<?xml version="1.0" encoding="utf-8"?>
<!-- Generator: Adobe Illustrator 23.0.0, SVG Export Plug-In . SVG Version: 6.00 Build 0)  -->
<svg version="1.1" id="Layer_1" xmlns="http://www.w3.org/2000/svg" xmlns:xlink="http://www.w3.org/1999/xlink" x="0px" y="0px"
	 viewBox="0 0 26.2 106" style="enable-background:new 0 0 26.2 106;" xml:space="preserve">
<style type="text/css">
	.st0{fill:#FFFFFF;}
</style>
<title>ionicons-v5-h</title>
<path class="st0" d="M25.6,22.4c-0.1-0.1-0.3-0.2-0.4-0.3L3.8,0.6c-0.9-0.9-2.3-0.9-3.1,0c-0.9,0.9-0.9,2.3,0,3.1L20.9,24L0.6,44.2
	c-0.9,0.9-0.9,2.3,0,3.1c0.9,0.9,2.3,0.9,3.1,0l21.4-21.4c0.1-0.1,0.3-0.2,0.4-0.3c0.4-0.4,0.7-1,0.6-1.6
	C26.3,23.4,26,22.8,25.6,22.4z"/>
<path class="st0" d="M0.6,80.4c0.1-0.1,0.3-0.2,0.4-0.3l21.4-21.4c0.9-0.9,2.3-0.9,3.1,0c0.9,0.9,0.9,2.3,0,3.1L5.4,82l20.2,20.2
	c0.9,0.9,0.9,2.3,0,3.1c-0.9,0.9-2.3,0.9-3.1,0L1.1,83.9c-0.1-0.1-0.3-0.2-0.4-0.3C0.2,83.2,0,82.6,0,82C0,81.4,0.2,80.8,0.6,80.4z"
	/>
</svg>
