<svg xmlns="http://www.w3.org/2000/svg" viewBox="0 0 45.7 64" fill="#fff" xmlns:v="https://vecta.io/nano"><path d="M.2 29.1a3.3 3.3 0 0 0 1 3.7c2 2 6.2 9.4 8.3 14.5s4.5 7 6.9 9.3a5.4 5.4 0 0 1 1.5 3.8v.4a3.2 3.2 0 0 0 3.2 3.2h17.1a3.2 3.2 0 0 0 3.2-3.2v-3.3a1.1 1.1 0 0 1 .3-.7c3.9-3.6 4-9.6 4-9.8V30.1a4.5 4.5 0 0 0-4-4.5 5 5 0 0 0-2.4.6v-1.6a4.3 4.3 0 0 0-2.2-3.8 4.4 4.4 0 0 0-4.3.1 4.3 4.3 0 0 0-2.3-3.4 4.1 4.1 0 0 0-4 .2v-1.8a8.2 8.2 0 0 0 4.2-7.3 8.5 8.5 0 1 0-17 0 8.4 8.4 0 0 0 4.2 7.3v17.2a9.5 9.5 0 0 1-.5 3.7 1 1 0 0 1-.7.7 1.2 1.2 0 0 1-1-.2 14.4 14.4 0 0 1-2.2-2.7c-1.8-2.7-6.5-7.9-9.4-7.9a4.2 4.2 0 0 0-3.9 2.4zM15.8 8.6a6.4 6.4 0 1 1 10.7 4.7V8.6a4.3 4.3 0 1 0-8.6 0v4.7a6.4 6.4 0 0 1-2.1-4.7zm-4.1 27.2a18.1 18.1 0 0 0 2.5 3 3 3 0 0 0 3 .8 3.5 3.5 0 0 0 2.3-2.1 16.1 16.1 0 0 0 .6-4.4V8.6a2.1 2.1 0 1 1 4.2 0V31a1.1 1.1 0 1 0 2.2 0v-9.6a2.1 2.1 0 1 1 4.2 0V31a1.1 1.1 0 1 0 2.2 0v-6.4a2.1 2.1 0 1 1 4.2 0V32a1.1 1.1 0 1 0 2.2 0v-2.1a2 2 0 0 1 .6-1.5 1.8 1.8 0 0 1 1.7-.6 2.1 2.1 0 0 1 1.9 2.3V47s0 5.3-3.3 8.2a3.3 3.3 0 0 0-.9 2.3v3.3a1.1 1.1 0 0 1-1.1 1.1H21.1a1.1 1.1 0 0 1-1-1.1v-.4a7.2 7.2 0 0 0-2.3-5.3c-1.8-1.7-5-5.2-6.3-8.5-2.2-5.5-6.6-13.1-8.8-15.3-.5-.5-.7-1-.5-1.4a2.1 2.1 0 0 1 1.9-1.1c1.4 0 5.4 3.6 7.6 7zm28.6 10.1a1.1 1.1 0 0 0 1.1-1.1v-6.4a1 1 0 0 0-1.1-1 .9.9 0 0 0-1 1v6.4a1 1 0 0 0 1 1.1zm-1 6.4a.9.9 0 0 0 .7-.3 4.7 4.7 0 0 0 1.4-2.9 1.1 1.1 0 0 0-1-1.1 1.1 1.1 0 0 0-1.1 1.1 2.9 2.9 0 0 1-.8 1.4.9.9 0 0 0-.2 1.1 1 1 0 0 0 1 .7zm-16 7.4h1a1 1 0 0 0 1.1-1 1.1 1.1 0 0 0-1.1-1.1h-1a1.1 1.1 0 0 0-1.1 1.1 1 1 0 0 0 1.1 1zm5.3 0h7.5a.9.9 0 0 0 1-1 1 1 0 0 0-1-1.1h-7.5a1.1 1.1 0 0 0-1.1 1.1 1 1 0 0 0 1.1 1zm-14.9-42a1.2 1.2 0 0 0 1-.7 1.4 1.4 0 0 0-.2-1.1A10.7 10.7 0 0 1 14 1.8a1.4 1.4 0 0 0 .2-1.1 1.4 1.4 0 0 0-.8-.7 1.5 1.5 0 0 0-1.1.4 12.8 12.8 0 0 0 .6 16.9 1.2 1.2 0 0 0 .8.4zm18.5-2.9a.8.8 0 0 0 .8.1 1.5 1.5 0 0 0 .6-.5 13 13 0 0 0-1.5-14 1.4 1.4 0 0 0-1-.4 1.6 1.6 0 0 0-.9.7 1.4 1.4 0 0 0 .2 1.1 10.7 10.7 0 0 1 1.3 11.6 1 1 0 0 0 .5 1.4z"/></svg>