<svg xmlns="http://www.w3.org/2000/svg" viewBox="0 0 64 64" fill="#fff" xmlns:v="https://vecta.io/nano"><path d="M58.7 19.2H46.9v-5.3h0v-.3h-.1l-.2-.3L33.8.3l-.3-.2H5.3A5.3 5.3 0 0 0 0 5.3v49.1a5.3 5.3 0 0 0 5.3 5.3h22.5a5.5 5.5 0 0 0 5.3 4.3h25.6a5.3 5.3 0 0 0 5.3-5.3V24.5a5.3 5.3 0 0 0-5.3-5.3zm-15.4-6.4h-8.1a1.1 1.1 0 0 1-1.1-1.1V3.6zM2.1 54.4V5.3a3.3 3.3 0 0 1 3.2-3.2H32v9.6a3.2 3.2 0 0 0 3.2 3.2h9.6v4.3H33.1a5.4 5.4 0 0 0-5.4 5.3v33.1H5.3a3.2 3.2 0 0 1-3.2-3.2zm59.8 4.3a3.3 3.3 0 0 1-3.2 3.2H33.1a3.2 3.2 0 0 1-3.2-3.2V24.5a3.2 3.2 0 0 1 3.2-3.2h25.6a3.3 3.3 0 0 1 3.2 3.2zm-7.5-35.2H37.3a5.3 5.3 0 0 0-5.3 5.3v4.3a5.3 5.3 0 0 0 5.3 5.3h17.1a5.3 5.3 0 0 0 5.3-5.3v-4.3a5.3 5.3 0 0 0-5.3-5.3zm3.2 9.6a3.2 3.2 0 0 1-3.2 3.2H37.3a3.3 3.3 0 0 1-3.2-3.2v-4.3a3.2 3.2 0 0 1 3.2-3.2h17.1a3.2 3.2 0 0 1 3.2 3.2v4.3zm-21.3 7.4a4.3 4.3 0 1 0 4.2 4.3 4.3 4.3 0 0 0-4.2-4.3zm0 6.4a2.1 2.1 0 1 1 0-4.2 2.1 2.1 0 1 1 0 4.2zm9.6-6.4a4.3 4.3 0 1 0 4.2 4.3 4.3 4.3 0 0 0-4.2-4.3zm0 6.4a2.1 2.1 0 1 1 0-4.2 2.1 2.1 0 1 1 0 4.2z"/><path d="M36.3 51.2a4.3 4.3 0 1 0 0 8.5 4.3 4.3 0 0 0 0-8.5zm0 6.4a2.2 2.2 0 1 1 2.1-2.1 2.2 2.2 0 0 1-2.1 2.1zm9.6-6.4a4.3 4.3 0 1 0 0 8.5 4.3 4.3 0 0 0 0-8.5zm0 6.4a2.2 2.2 0 1 1 2.1-2.1 2.2 2.2 0 0 1-2.1 2.1zm9.6-17.1a4.3 4.3 0 0 0-4.3 4.3v10.7a4.3 4.3 0 0 0 8.5 0V44.8a4.2 4.2 0 0 0-4.2-4.3zm2.1 15a2.2 2.2 0 0 1-4.3 0V44.8a2.1 2.1 0 0 1 2.2-2.1 2.1 2.1 0 0 1 2.1 2.1zM11 18.9a1.1 1.1 0 0 0 1.5 0l9.6-9.6a1.1 1.1 0 0 0-1.5-1.5L11 17.4a1.1 1.1 0 0 0 0 1.5zm6.1-1.8a3.2 3.2 0 0 0 3.2 3.2 3.3 3.3 0 0 0 3.2-3.2 3.2 3.2 0 0 0-6.4 0zm4.2 0a.9.9 0 0 1-1 1 1 1 0 0 1-1.1-1 1.1 1.1 0 0 1 1.1-1.1 1 1 0 0 1 1 1.1zm-8.5-4.3a3.2 3.2 0 1 0-3.2-3.2 3.2 3.2 0 0 0 3.2 3.2zm0-4.3a1.1 1.1 0 1 1-1.1 1.1 1.1 1.1 0 0 1 1.1-1.1zM7.5 28.8h12.8a1 1 0 0 0 1-1.1.9.9 0 0 0-1-1H7.5a1 1 0 0 0-1.1 1 1.1 1.1 0 0 0 1.1 1.1zm14.9 2.1H7.5a1.1 1.1 0 1 0 0 2.2h14.9a1.1 1.1 0 0 0 0-2.2zm-10.7 4.3H7.5a1.1 1.1 0 0 0-1.1 1.1 1 1 0 0 0 1.1 1h4.2a1 1 0 0 0 1.1-1 1.1 1.1 0 0 0-1.1-1.1zm10.7 0H16a1.1 1.1 0 0 0-1.1 1.1 1 1 0 0 0 1.1 1h6.4a1 1 0 0 0 1.1-1 1.1 1.1 0 0 0-1.1-1.1z"/></svg>