<?xml version="1.0" encoding="utf-8"?>
<!-- Generator: Adobe Illustrator 16.0.0, SVG Export Plug-In . SVG Version: 6.00 Build 0)  -->
<!DOCTYPE svg PUBLIC "-//W3C//DTD SVG 1.1//EN" "http://www.w3.org/Graphics/SVG/1.1/DTD/svg11.dtd">
<svg version="1.1" id="Capa_1" xmlns="http://www.w3.org/2000/svg" xmlns:xlink="http://www.w3.org/1999/xlink" x="0px" y="0px"
	 width="64px" height="64px" viewBox="224 224 64 64" enable-background="new 224 224 64 64" xml:space="preserve">
<g>
	<g>
		<g>
			<path fill="#FFFFFF" d="M287.063,254.636c0.519,0,0.938-0.42,0.938-0.938V240.65c0-1.97-1.602-3.572-3.571-3.572
				c-1.769,0-3.24,1.292-3.522,2.981c-9.717-0.07-9.479,0.158-10.235-0.208c-0.786-0.38-2.199-1.219-3.687-2.189
				c-0.434-0.283-1.015-0.16-1.297,0.273c-0.283,0.434-0.161,1.015,0.273,1.298c3.403,2.219,4.393,2.701,5.619,2.701h9.276v18.169
				h-3.386c-0.129-0.818-0.502-1.57-1.051-2.162c-11.492-12.945-10.633-11.998-11.137-12.007c-5.764-0.107-9.02-3.646-9.05-3.679
				c-0.622-0.698-2.107-0.833-2.91-0.103l-4.699,4.274c-0.546,0.497-1.25,0.737-1.949,0.711c-2.044-0.076-2.864-2.01-1.78-3.179
				c2.708-2.923,3.337-3.602,3.445-3.719c-0.029,0.031-0.07,0.076,0.018-0.02c2.716-2.951,4.937-3.923,5.026-3.983
				c2.854-1.435,6.229-1.628,8.903,0.42c0.412,0.315,1,0.237,1.314-0.174c0.315-0.411,0.237-1-0.174-1.314
				c-2.787-2.136-6.645-2.607-10.554-0.768c-2.408-0.667-4.109-0.75-5.19-0.252c-3.089,1.421-6.594,5.116-7.808,5.704
				c-0.763,0.369-0.726,0.14-8.782,0.208c-0.283-1.689-1.754-2.981-3.522-2.981c-1.969,0-3.572,1.603-3.572,3.572v2.916
				c0,0.518,0.42,0.938,0.938,0.938c0.518,0,0.938-0.419,0.938-0.938v-2.916c0-0.936,0.761-1.697,1.697-1.697
				s1.697,0.761,1.697,1.697c0,0.91,0,17.972,0,20.673c0,0.936-0.761,1.696-1.697,1.696s-1.697-0.761-1.697-1.696v-13.048
				c0-0.518-0.419-0.938-0.938-0.938c-0.518,0-0.938,0.42-0.938,0.938v13.048c0,1.97,1.603,3.571,3.572,3.571
				c1.745,0,3.201-1.258,3.51-2.915h4.191c0.425,1.834,2.091,3.154,4.032,3.088c-0.347,2.465,1.603,4.642,4.096,4.557
				c-0.347,2.465,1.603,4.641,4.096,4.557c-0.527,3.743,3.911,5.983,6.634,3.535l2-1.798c2.54,2.123,6.55,0.533,6.766-2.914
				c2.53,0.713,4.994-1.039,5.227-3.598c2.814,0.68,5.435-1.64,5.072-4.529c1.885,0.087,3.582-1.1,4.138-2.897h3.583
				c0.31,1.657,1.766,2.916,3.511,2.916c1.97,0,3.571-1.603,3.571-3.572v-3.132c0-0.518-0.419-0.938-0.938-0.938
				c-0.518,0-0.938,0.42-0.938,0.938v3.132c0,0.936-0.761,1.696-1.696,1.696s-1.696-0.761-1.696-1.696c0-1.489,0-17.235,0-20.673
				c0-0.936,0.761-1.697,1.696-1.697s1.696,0.761,1.696,1.697v13.048C286.125,254.216,286.545,254.636,287.063,254.636z
				 M237.14,260.448c0.116-0.379,0.333-0.711,0.608-0.958c2.452-2.204,2.656-2.508,3.327-2.687c2.09-0.567,3.662,2.02,1.981,3.633
				l-2.465,2.216C239.014,264.069,236.512,262.536,237.14,260.448z M241.685,267.049c-0.784-0.872-0.712-2.219,0.16-3.002
				c0.095-0.085-0.343,0.308,2.466-2.217c0.871-0.784,2.22-0.71,3.002,0.159l0,0c0.658,0.731,0.787,1.88-0.002,2.846
				c-0.137,0.151-0.022,0.029-2.624,2.374C243.815,267.992,242.468,267.921,241.685,267.049z M245.78,271.605
				c-0.783-0.872-0.712-2.219,0.16-3.002c2.593-2.323,2.735-2.604,3.549-2.734c0.749-0.121,1.463,0.17,1.919,0.677l0,0
				c0.779,0.866,0.716,2.214-0.16,3.002l-2.466,2.217C247.911,272.549,246.564,272.478,245.78,271.605z M255.475,273.976
				c-0.143,0.152,0.012-0.004-2.596,2.346c-0.872,0.783-2.219,0.712-3.002-0.159c-0.784-0.872-0.712-2.219,0.16-3.003
				c2.519-2.254,2.701-2.58,3.497-2.727c0.022,0.005,1.12-0.278,1.972,0.67l0,0C256.221,271.898,256.241,273.154,255.475,273.976z
				 M272.111,262.612c-0.888-0.612-1.939,0.526-1.259,1.363c0.745,0.917,0.653,2.267-0.211,3.072c-0.861,0.803-2.212,0.803-3.074,0
				c-0.745-0.694-1.911,0.141-1.495,1.069c0.412,0.919,0.159,2.013-0.615,2.658c-0.918,0.767-2.296,0.66-3.138-0.242l-0.235-0.253
				c-0.336-0.359-0.893-0.398-1.275-0.09c-0.383,0.31-0.461,0.863-0.179,1.267c0.64,0.915,0.507,2.18-0.31,2.94
				c-0.823,0.768-2.071,0.801-2.931,0.128c1.581-2.706-0.495-6.116-3.595-6.005c0.34-2.433-1.592-4.63-4.102-4.552
				c0.345-2.459-1.602-4.635-4.095-4.557c0.165-1.19-0.199-2.355-0.986-3.232h0c-1.466-1.634-3.997-1.787-5.65-0.301
				c-2.562,2.309-2.492,2.226-2.701,2.447c-0.485,0.514-0.811,1.129-0.972,1.778h-4.144v-18.169
				c7.604-0.115,8.158,0.278,9.549-0.395c1.584-0.767,4.911-4.371,7.775-5.688c0.217-0.1,0.777-0.247,2.038-0.058
				c-2.972,2.105-4.743,4.677-6.986,6.89c-2.205,2.381-0.494,6.349,3.282,6.33c1.14-0.006,2.237-0.429,3.085-1.2l4.649-4.229
				c0.116-0.069,0.258-0.068,0.374,0.001c2.095,2.207,5.813,4.032,9.926,4.211c11.094,12.406,10.238,11.446,10.36,11.601
				c0.332,0.442,0.44,1.575,0.439,1.563C275.475,262.708,273.501,263.569,272.111,262.612z"/>
		</g>
	</g>
	<g>
		<g>
			<path fill="#FFFFFF" d="M248.34,240.241C248.359,240.22,248.373,240.206,248.34,240.241L248.34,240.241z"/>
		</g>
	</g>
</g>
</svg>
