<?xml version="1.0" encoding="utf-8"?>
<!-- Generator: Adobe Illustrator 16.0.0, SVG Export Plug-In . SVG Version: 6.00 Build 0)  -->
<!DOCTYPE svg PUBLIC "-//W3C//DTD SVG 1.1//EN" "http://www.w3.org/Graphics/SVG/1.1/DTD/svg11.dtd">
<svg version="1.1" id="Layer_1" xmlns="http://www.w3.org/2000/svg" xmlns:xlink="http://www.w3.org/1999/xlink" x="0px" y="0px"
	 width="64px" height="64px" viewBox="32 32 64 64" enable-background="new 32 32 64 64" xml:space="preserve">
<g id="surface1">
	<path fill="#FFFFFF" d="M78.509,59.704V47.596c0-0.35-0.163-0.669-0.388-0.923l-13.582-14.26C64.285,32.146,63.925,32,63.566,32
		H42.038c-3.975,0-7.15,3.241-7.15,7.217v40.71c0,3.974,3.173,7.159,7.15,7.159h16.994C62.246,92.425,68.09,96,74.745,96
		c10.108,0,18.367-8.217,18.367-18.342C93.125,68.814,86.777,61.425,78.509,59.704z M64.899,36.684l9.113,9.591H68.1
		c-1.758,0-3.2-1.456-3.2-3.216V36.684z M42.04,84.421c-2.494,0-4.481-2.002-4.481-4.493V39.217c0-2.508,1.987-4.548,4.481-4.548
		h20.194v8.39c0,3.241,2.629,5.883,5.868,5.883h7.735v10.417c-0.399-0.013-0.719-0.054-1.066-0.054
		c-4.654,0-8.934,1.787-12.162,4.589H45.667c-0.733,0-1.333,0.598-1.333,1.333c0,0.733,0.6,1.333,1.333,1.333h14.458
		c-0.946,1.336-1.733,2.669-2.348,4.136h-12.11c-0.733,0-1.333,0.599-1.333,1.334c0,0.733,0.6,1.333,1.333,1.333h11.246
		c-0.333,1.333-0.509,2.814-0.509,4.296c0,2.4,0.467,4.775,1.309,6.778H42.038v-0.015h0.002V84.421L42.04,84.421z M74.759,93.346
		c-8.642,0-15.675-7.029-15.675-15.674C59.083,69.029,66.1,62,74.759,62c8.658,0,15.675,7.029,15.675,15.673
		C90.433,86.316,83.404,93.346,74.759,93.346z"/>
	<path fill="#FFFFFF" d="M45.667,59.879h13.512c0.734,0,1.333-0.6,1.333-1.333c0-0.733-0.6-1.333-1.333-1.333H45.667
		c-0.733,0-1.333,0.6-1.333,1.333C44.333,59.279,44.934,59.879,45.667,59.879z"/>
	<path fill="#FFFFFF" d="M81.587,77.392l-5.48,5.91V68.737c0-0.735-0.603-1.333-1.336-1.333s-1.333,0.598-1.333,1.333v14.564
		l-5.521-5.909c-0.508-0.533-1.362-0.575-1.896-0.067c-0.533,0.509-0.574,1.347-0.066,1.882l7.804,8.389
		c0.255,0.267,0.6,0.429,0.975,0.429c0.37,0,0.719-0.162,0.971-0.429l7.816-8.389c0.506-0.533,0.481-1.386-0.052-1.882
		C82.921,76.819,82.096,76.858,81.587,77.392z"/>
</g>
</svg>
