<?xml version="1.0" encoding="utf-8"?>
<!-- Generator: Adobe Illustrator 16.0.0, SVG Export Plug-In . SVG Version: 6.00 Build 0)  -->
<!DOCTYPE svg PUBLIC "-//W3C//DTD SVG 1.1//EN" "http://www.w3.org/Graphics/SVG/1.1/DTD/svg11.dtd">
<svg version="1.1" id="Capa_1" xmlns="http://www.w3.org/2000/svg" xmlns:xlink="http://www.w3.org/1999/xlink" x="0px" y="0px"
	 width="64px" height="64px" viewBox="224 224 64 64" enable-background="new 224 224 64 64" xml:space="preserve">
<g>
	<g>
		<g>
			<g>
				<path fill="#FFFFFF" d="M256.411,247.752c-3.605,0-6.528,2.923-6.528,6.528s2.922,6.528,6.528,6.528
					c3.605,0,6.528-2.923,6.528-6.528S260.017,247.752,256.411,247.752z M256.411,257.7c-1.889,0-3.42-1.531-3.42-3.42
					s1.531-3.42,3.42-3.42l0,0c1.889,0,3.42,1.531,3.42,3.42S258.3,257.7,256.411,257.7z"/>
				<path fill="#FFFFFF" d="M282.446,232.83l-42.434-4.818c-1.647-0.234-3.315,0.247-4.585,1.321
					c-1.27,0.985-2.083,2.444-2.254,4.042l-0.777,6.373h-2.41c-3.419,0-5.984,3.031-5.984,6.45v31.787
					c-0.086,3.261,2.488,5.974,5.749,6.061c0.079,0.002,0.157,0.002,0.236,0.001h42.667c3.42,0,6.528-2.643,6.528-6.062v-1.244
					c1.06-0.204,2.065-0.628,2.953-1.243c1.259-1.061,2.065-2.562,2.254-4.196l3.575-31.554
					C288.329,236.319,285.869,233.236,282.446,232.83z M276.074,277.984c0,1.71-1.71,2.953-3.42,2.953h-42.667
					c-1.544,0.045-2.833-1.17-2.879-2.715c-0.002-0.079-0.001-0.159,0.003-0.238v-5.751l12.046-8.86
					c1.447-1.111,3.485-1.012,4.818,0.233l8.471,7.461c1.287,1.08,2.906,1.684,4.586,1.71c1.313,0.016,2.604-0.334,3.73-1.011
					l15.311-8.86V277.984L276.074,277.984z M276.074,259.254l-16.943,9.87c-1.454,0.862-3.296,0.706-4.585-0.389l-8.549-7.538
					c-2.45-2.105-6.031-2.234-8.626-0.312l-10.259,7.461v-22.149c0-1.709,1.166-3.342,2.875-3.342h42.667
					c1.826,0.076,3.302,1.518,3.42,3.342V259.254L276.074,259.254z M284.858,239.327c-0.001,0.01-0.002,0.021-0.003,0.031
					l-3.652,31.554c0.006,0.817-0.367,1.593-1.011,2.098c-0.311,0.312-1.01,0.467-1.01,0.622v-27.435
					c-0.123-3.541-2.987-6.37-6.528-6.45h-37.149l0.7-6.062c0.151-0.785,0.562-1.497,1.166-2.021
					c0.682-0.471,1.506-0.691,2.332-0.622l42.357,4.896C283.768,236.101,285.021,237.618,284.858,239.327z"/>
			</g>
		</g>
	</g>
</g>
</svg>
