<?xml version="1.0" encoding="utf-8"?>
<!-- Generator: Adobe Illustrator 16.0.0, SVG Export Plug-In . SVG Version: 6.00 Build 0)  -->
<!DOCTYPE svg PUBLIC "-//W3C//DTD SVG 1.1//EN" "http://www.w3.org/Graphics/SVG/1.1/DTD/svg11.dtd">
<svg version="1.1" id="Capa_1" xmlns="http://www.w3.org/2000/svg" xmlns:xlink="http://www.w3.org/1999/xlink" x="0px" y="0px"
	 width="64px" height="64px" viewBox="224 224 64 64" enable-background="new 224 224 64 64" xml:space="preserve">
<g>
	<g>
		<g>
			<g>
				<path fill="#FFFFFF" d="M256,234.667c-2.941,0-5.333,2.392-5.333,5.333s2.392,5.333,5.333,5.333s5.333-2.392,5.333-5.333
					S258.941,234.667,256,234.667z M256,242.667c-1.47,0-2.667-1.197-2.667-2.667s1.197-2.667,2.667-2.667s2.667,1.197,2.667,2.667
					S257.47,242.667,256,242.667z"/>
				<path fill="#FFFFFF" d="M260,248h-10.667c-0.737,0-1.333,0.596-1.333,1.333v5.333c0,0.737,0.596,1.333,1.333,1.333h1.333v20
					c0,0.737,0.596,1.334,1.333,1.334h8c0.737,0,1.334-0.597,1.334-1.334v-26.667C261.333,248.596,260.737,248,260,248z
					 M258.667,274.667h-5.334v-20c0-0.737-0.596-1.333-1.333-1.333h-1.333v-2.667h8L258.667,274.667L258.667,274.667z"/>
				<path fill="#FFFFFF" d="M256,224c-17.645,0-32,14.355-32,32s14.355,32,32,32s32-14.355,32-32S273.645,224,256,224z M256,285.333
					c-16.174,0-29.333-13.158-29.333-29.333c0-16.174,13.159-29.333,29.333-29.333c16.175,0,29.333,13.159,29.333,29.333
					C285.333,272.175,272.175,285.333,256,285.333z"/>
			</g>
		</g>
	</g>
</g>
</svg>
