<?xml version="1.0" encoding="utf-8"?>
<!-- Generator: Adobe Illustrator 16.0.0, SVG Export Plug-In . SVG Version: 6.00 Build 0)  -->
<!DOCTYPE svg PUBLIC "-//W3C//DTD SVG 1.1//EN" "http://www.w3.org/Graphics/SVG/1.1/DTD/svg11.dtd">
<svg version="1.1" id="Layer_1" xmlns="http://www.w3.org/2000/svg" xmlns:xlink="http://www.w3.org/1999/xlink" x="0px" y="0px"
	 width="64px" height="64px" viewBox="-22 -22 64 64" enable-background="new -22 -22 64 64" xml:space="preserve">
<g>
	<g>
		<path fill="#FFFFFF" d="M30.856-5.45h-41.714c-0.758,0-1.376,0.619-1.376,1.377v20.805c0,0.756,0.619,1.378,1.376,1.378
			c0.763,0,1.38-0.615,1.38-1.378V-2.694h38.957v19.425l0,0c0,0.756,0.615,1.378,1.378,1.378c0.766,0,1.381-0.615,1.381-1.378V-4.07
			C32.231-4.831,31.615-5.45,30.856-5.45z"/>
	</g>
</g>
<g>
	<g>
		<path fill="#FFFFFF" d="M40.763,21.65h-2.538V-7.273c0-2.298-1.868-4.164-4.168-4.164h-48.118
			c-2.293-0.003-4.163,1.866-4.163,4.164V21.65h-2.537c-0.686,0-1.239,0.556-1.239,1.237v2.438c0,3.368,2.742,6.112,6.116,6.112
			h51.769c3.371,0,6.115-2.744,6.115-6.112v-2.438C42,22.206,41.443,21.65,40.763,21.65z M-15.469-7.273
			c0-0.778,0.63-1.408,1.408-1.408h48.118c0.781,0,1.409,0.633,1.409,1.408V21.65h-18.65c-0.084,0-0.178,0.006-0.269,0.024
			c-0.584,0.112-1.003,0.619-1.003,1.213c0,1.05-0.854,1.906-1.9,1.906H6.352c-1.045,0-1.897-0.856-1.897-1.906
			c0-0.694-0.577-1.25-1.267-1.237h-18.656V-7.273z M39.519,25.325L39.519,25.325c0,2.003-1.631,3.634-3.634,3.634h-51.769
			c-2.003,0-3.636-1.631-3.636-3.634v-1.194H2.153c0.534,1.807,2.215,3.132,4.198,3.132h7.292c1.984,0,3.669-1.325,4.203-3.132
			h21.672V25.325L39.519,25.325z"/>
	</g>
</g>
<g>
	<g>
		<path fill="#FFFFFF" d="M12.044,2.556c-0.536-0.538-1.406-0.538-1.949,0l-8.661,8.663c-0.539,0.534-0.539,1.412,0,1.95
			c0.269,0.269,0.62,0.403,0.972,0.403s0.705-0.135,0.977-0.403l8.661-8.663C12.581,3.969,12.581,3.094,12.044,2.556z"/>
	</g>
</g>
<g>
	<g>
		<path fill="#FFFFFF" d="M17.175,7.578c-0.537-0.538-1.409-0.538-1.946,0l-3.453,3.448c-0.533,0.539-0.533,1.408,0,1.948
			c0.274,0.27,0.625,0.406,0.975,0.406c0.356,0,0.713-0.137,0.981-0.406l3.45-3.451C17.713,8.989,17.713,8.116,17.175,7.578z"/>
	</g>
</g>
</svg>
