<?xml version="1.0" encoding="utf-8"?>
<!-- Generator: Adobe Illustrator 16.0.0, SVG Export Plug-In . SVG Version: 6.00 Build 0)  -->
<!DOCTYPE svg PUBLIC "-//W3C//DTD SVG 1.1//EN" "http://www.w3.org/Graphics/SVG/1.1/DTD/svg11.dtd">
<svg version="1.1" id="Capa_1" xmlns="http://www.w3.org/2000/svg" xmlns:xlink="http://www.w3.org/1999/xlink" x="0px" y="0px"
	 width="24px" height="29.938px" viewBox="0 0 24 29.938" enable-background="new 0 0 24 29.938" xml:space="preserve">
<g>
	<g>
		<path fill="#FFFFFF" d="M23.28,2.23H0.722c-0.397,0-0.721,0.324-0.721,0.721c0,0.396,0.324,0.721,0.721,0.721H23.28
			c0.396,0,0.721-0.324,0.721-0.721C24.001,2.553,23.677,2.23,23.28,2.23z"/>
	</g>
</g>
<g>
	<g>
		<path fill="#FFFFFF" d="M23.28,8.212H7.425c-0.397,0-0.721,0.324-0.721,0.721c0,0.397,0.324,0.721,0.721,0.721H23.28
			c0.396,0,0.721-0.323,0.721-0.721C24.001,8.536,23.678,8.212,23.28,8.212z"/>
	</g>
</g>
<g>
	<g>
		<path fill="#FFFFFF" d="M23.28,14.266H0.722c-0.397,0-0.721,0.324-0.721,0.72c0,0.396,0.324,0.721,0.721,0.721H23.28
			c0.396,0,0.721-0.324,0.721-0.721C24.001,14.59,23.677,14.266,23.28,14.266z"/>
	</g>
</g>
<g>
	<g>
		<path fill="#FFFFFF" d="M23.279,26.266H0.721C0.324,26.266,0,26.59,0,26.987s0.324,0.721,0.721,0.721h22.558
			c0.396,0,0.722-0.324,0.722-0.721S23.676,26.266,23.279,26.266z"/>
	</g>
</g>
<g>
	<g>
		<path fill="#FFFFFF" d="M23.279,20.248H13.118c-0.397,0-0.721,0.324-0.721,0.719c0,0.398,0.324,0.723,0.721,0.723h10.161
			c0.396,0,0.722-0.322,0.722-0.723C24.001,20.573,23.676,20.248,23.279,20.248z"/>
	</g>
</g>
</svg>
