<svg id="Capa_1" data-name="Capa 1" xmlns="http://www.w3.org/2000/svg" viewBox="0 0 61.4 64"><defs><style>.cls-1{fill:#fff;}</style></defs><title>percentage</title><path class="cls-1" d="M59.7,32.8a2.2,2.2,0,0,1,0-1.6l2.4-4.9a5.5,5.5,0,0,0-2.4-7.4l-4.8-2.5A1.9,1.9,0,0,1,54,15L53,9.7a5.6,5.6,0,0,0-6.3-4.6l-5.3.8a1.8,1.8,0,0,1-1.6-.5L35.9,1.6a5.6,5.6,0,0,0-7.8,0L24.2,5.4a1.8,1.8,0,0,1-1.6.5l-5.3-.8A5.6,5.6,0,0,0,11,9.7L10,15a1.9,1.9,0,0,1-.9,1.4L4.3,18.9a5.5,5.5,0,0,0-2.4,7.4l2.4,4.9a2.2,2.2,0,0,1,0,1.6L1.9,37.7a5.5,5.5,0,0,0,2.4,7.4l4.8,2.5A1.9,1.9,0,0,1,10,49l1,5.3a5.6,5.6,0,0,0,5.5,4.6h.8l5.3-.8a1.8,1.8,0,0,1,1.6.5l3.9,3.8a5.6,5.6,0,0,0,7.8,0l3.9-3.8a1.8,1.8,0,0,1,1.6-.5l5.3.8A5.6,5.6,0,0,0,53,54.3L54,49a1.9,1.9,0,0,1,.9-1.4l4.8-2.5a5.5,5.5,0,0,0,2.4-7.4Zm-1.7,9-4.8,2.6a5.5,5.5,0,0,0-2.9,3.9l-.9,5.4a1.8,1.8,0,0,1-2.1,1.5l-5.4-.7A5.5,5.5,0,0,0,37.2,56l-3.9,3.8a1.9,1.9,0,0,1-2.6,0L26.8,56a5.7,5.7,0,0,0-3.9-1.6h-.8l-5.4.7a1.8,1.8,0,0,1-2.1-1.5l-.9-5.4a5.5,5.5,0,0,0-2.9-3.9L6,41.8a1.8,1.8,0,0,1-.8-2.5l2.4-4.8a6,6,0,0,0,0-4.9L5.2,24.7A1.8,1.8,0,0,1,6,22.2l4.8-2.6a5.5,5.5,0,0,0,2.9-3.9l.9-5.4a1.8,1.8,0,0,1,2.1-1.5l5.4.7A5.5,5.5,0,0,0,26.8,8l3.9-3.8a1.9,1.9,0,0,1,2.6,0L37.2,8a5.5,5.5,0,0,0,4.7,1.5l5.4-.7a1.8,1.8,0,0,1,2.1,1.5l.9,5.4a5.5,5.5,0,0,0,2.9,3.9L58,22.2a1.8,1.8,0,0,1,.8,2.5l-2.4,4.9a6,6,0,0,0,0,4.9l2.4,4.8A1.8,1.8,0,0,1,58,41.8Z" transform="translate(-1.3)"/><path class="cls-1" d="M45.5,18.5a1.9,1.9,0,0,0-2.6,0L18.5,42.9a1.9,1.9,0,0,0,0,2.6,2.1,2.1,0,0,0,1.3.5,1.9,1.9,0,0,0,1.3-.5L45.5,21.1A1.9,1.9,0,0,0,45.5,18.5Z" transform="translate(-1.3)"/><path class="cls-1" d="M24.6,15.4a6.8,6.8,0,1,0,6.8,6.8A6.8,6.8,0,0,0,24.6,15.4Zm0,9.8a3,3,0,0,1-3.1-3,3.1,3.1,0,0,1,6.2,0A3,3,0,0,1,24.6,25.2Z" transform="translate(-1.3)"/><path class="cls-1" d="M39.4,35.1a6.8,6.8,0,1,0,6.8,6.7A6.8,6.8,0,0,0,39.4,35.1Zm0,9.8a3.1,3.1,0,0,1-3.1-3.1,3.1,3.1,0,0,1,6.2,0A3.1,3.1,0,0,1,39.4,44.9Z" transform="translate(-1.3)"/></svg>