<svg id="Layer_1" data-name="Layer 1" xmlns="http://www.w3.org/2000/svg" viewBox="0 0 64 64"><defs><style>.cls-1{fill:#fff;}</style></defs><title>sale</title><g id="_15-House_on_Sale" data-name="15-House on Sale"><path class="cls-1" d="M60.8,33.5a3.1,3.1,0,0,1-2.2-.9L32,7.9,5.4,32.6a3.2,3.2,0,0,1-4.5-.1A3.1,3.1,0,0,1,0,30.3,2.9,2.9,0,0,1,1,28L31.3.3a1.1,1.1,0,0,1,1.5,0L63,28a2.9,2.9,0,0,1,1,2.3,3.2,3.2,0,0,1-.9,2.3A3.5,3.5,0,0,1,60.8,33.5ZM32,5.3a.9.9,0,0,1,.7.3L60,31.1h0a1.2,1.2,0,0,0,1.6,0,1.2,1.2,0,0,0,0-1.6L32,2.5,2.4,29.5a1.9,1.9,0,0,0-.3.8.8.8,0,0,0,.4.7A.9.9,0,0,0,4,31L31.3,5.6A.9.9,0,0,1,32,5.3Z" transform="translate(0 0)"/><path class="cls-1" d="M62.9,64H1.1A1.1,1.1,0,0,1,0,62.9a1,1,0,0,1,1.1-1H62.9a1,1,0,0,1,1.1,1A1.1,1.1,0,0,1,62.9,64Z" transform="translate(0 0)"/><path class="cls-1" d="M53.4,21.7a1.1,1.1,0,0,1-.8-.3l-6.4-5.9a1.1,1.1,0,0,1-.3-.8V7.5A1.1,1.1,0,0,1,47,6.4h6.4a1,1,0,0,1,1,1.1V20.6a1.1,1.1,0,0,1-.6,1ZM48,14.3l4.3,3.9V8.5H48Z" transform="translate(0 0)"/><path class="cls-1" d="M56.5,64H7.5a1.1,1.1,0,0,1-1.1-1.1V29.2a.9.9,0,0,1,.3-.7L31.3,5.6a1,1,0,0,1,1.4,0L57.3,28.5a1.1,1.1,0,0,1,.3.8V62.9A1.1,1.1,0,0,1,56.5,64Zm-48-2.1h47V29.7L32,7.9,8.5,29.7Z" transform="translate(0 0)"/><path class="cls-1" d="M40.5,48H34.1a1,1,0,0,1-1-1.1V36.3a1,1,0,0,1,1-1.1,1.1,1.1,0,0,1,1.1,1.1v9.6h5.3a1,1,0,0,1,1.1,1A1.1,1.1,0,0,1,40.5,48Z" transform="translate(0 0)"/><path class="cls-1" d="M29.9,48a1.1,1.1,0,0,1-1.1-1.1V37.6c0-.2-.1-.3-.2-.3H24.8a.3.3,0,0,0-.3.3v9.3a1,1,0,0,1-1,1.1,1.1,1.1,0,0,1-1.1-1.1V37.6a2.4,2.4,0,0,1,2.4-2.4h3.8a2.3,2.3,0,0,1,2.3,2.4v9.3A1,1,0,0,1,29.9,48Z" transform="translate(0 0)"/><path class="cls-1" d="M29.9,42.7H23.5a1.1,1.1,0,0,1,0-2.2h6.4a1.1,1.1,0,0,1,0,2.2Z" transform="translate(0 0)"/><path class="cls-1" d="M16.5,48H12.8a1.1,1.1,0,0,1-1.1-1.1,1,1,0,0,1,1.1-1h3.7a1.6,1.6,0,0,0,0-3.2h-1a3.8,3.8,0,1,1,0-7.5h3.7a1.1,1.1,0,0,1,1.1,1.1,1,1,0,0,1-1.1,1H15.5a1.6,1.6,0,0,0-1.6,1.6,1.6,1.6,0,0,0,1.6,1.6h1a3.8,3.8,0,1,1,0,7.5Z" transform="translate(0 0)"/><path class="cls-1" d="M51.2,42.7H44.8a1.1,1.1,0,0,1-1.1-1.1V36.3a1.1,1.1,0,0,1,1.1-1.1h6.4a1.1,1.1,0,0,1,1.1,1.1,1,1,0,0,1-1.1,1H45.9v3.2h5.3a1.1,1.1,0,0,1,0,2.2Z" transform="translate(0 0)"/><path class="cls-1" d="M51.2,48H44.8a1.1,1.1,0,0,1-1.1-1.1V41.6a1.1,1.1,0,0,1,1.1-1.1h6.4a1.1,1.1,0,0,1,0,2.2H45.9v3.2h5.3a1,1,0,0,1,1.1,1A1.1,1.1,0,0,1,51.2,48Z" transform="translate(0 0)"/></g></svg>