<svg id="Capa_1" data-name="Capa 1" xmlns="http://www.w3.org/2000/svg" viewBox="0 0 64 64"><defs><style>.cls-1{fill:#fff;}</style></defs><title>tenders</title><path class="cls-1" d="M14.7,21.8a1.1,1.1,0,0,0-1.7,0,1.3,1.3,0,0,0,0,1.8,1.4,1.4,0,0,0,1.7,0A1.3,1.3,0,0,0,14.7,21.8Z" transform="translate(0 0)"/><path class="cls-1" d="M31.6,56a4.3,4.3,0,0,0,.9-2.6A4.4,4.4,0,0,0,28.1,49H6.9a4.4,4.4,0,0,0-4.4,4.4A4.3,4.3,0,0,0,3.4,56,6.2,6.2,0,0,0,0,61.5v1.2A1.3,1.3,0,0,0,1.2,64H33.7A1.3,1.3,0,0,0,35,62.7V61.5A6.2,6.2,0,0,0,31.6,56ZM5.5,52a2.4,2.4,0,0,1,1.4-.5H28.1A1.8,1.8,0,0,1,30,53.4a2.1,2.1,0,0,1-.5,1.3,1.9,1.9,0,0,1-1.4.5H6.9A1.8,1.8,0,0,1,5,53.4,2.4,2.4,0,0,1,5.5,52Zm-3,9.5a3.8,3.8,0,0,1,3.8-3.8H28.8a3.8,3.8,0,0,1,3.7,3.8Z" transform="translate(0 0)"/><path class="cls-1" d="M62.8,52.5a8,8,0,0,0-1.5-1.7l-5.8-5.1-.2-.2-.3-.2-3.5-3.1L35.1,27.9a3.5,3.5,0,0,0,1-2.6A3.3,3.3,0,0,0,35,22.7a3.9,3.9,0,0,0-1-.8l1.5-1.5,1.3.2a5.1,5.1,0,0,0,3.6-1.5,5.1,5.1,0,0,0,0-7L29.7,1.5a4.8,4.8,0,0,0-7,0,4.8,4.8,0,0,0-1.3,4.8L6.3,21.4,5,21.2a4.7,4.7,0,0,0-3.5,1.5,4.8,4.8,0,0,0,0,7L12.1,40.4a5.1,5.1,0,0,0,7,0,5.1,5.1,0,0,0,1.3-4.9L21.9,34a3.9,3.9,0,0,0,.8,1,3.3,3.3,0,0,0,2.6,1.1,3.5,3.5,0,0,0,2.6-1l17.4,20,.2.2c0,.1,0,.1.1.1l5.2,6c.1.1.2.3.4.4A7.4,7.4,0,0,0,56.4,64h1.1a7.4,7.4,0,0,0,5.3-11.4ZM24.4,3.2a2.7,2.7,0,0,1,3.6,0L38.6,13.8a2.4,2.4,0,0,1,.7,1.8,2.4,2.4,0,0,1-.7,1.8,2.6,2.6,0,0,1-3.5,0L24.4,6.8h0A2.7,2.7,0,0,1,24.4,3.2Zm-7,35.4a2.5,2.5,0,0,1-3.6,0L3.2,28a2.7,2.7,0,0,1,0-3.6A2.9,2.9,0,0,1,5,23.7a2.9,2.9,0,0,1,1.8.7L17.4,35.1A2.6,2.6,0,0,1,17.4,38.6Zm5.2-8.8-3.5,3.5L8.5,22.7,22.7,8.5,33.3,19.1l-3.5,3.5h-.1l-7,7C22.7,29.8,22.7,29.8,22.6,29.8Zm4.5,2.6h0l-.9.9a1.2,1.2,0,0,1-.9.3,1.6,1.6,0,0,1-.9-.3,1.5,1.5,0,0,1,0-1.8l7.1-7.1a1.5,1.5,0,0,1,1.8,0,1.6,1.6,0,0,1,.3.9,1.2,1.2,0,0,1-.3.9l-.9.9h0Zm2.6.9,3.6-3.6L48.8,43.2l-5.6,5.6ZM44.8,50.7l5.9-5.9,1.9,1.7-6.1,6.1Zm16.1,8.1a5.3,5.3,0,0,1-3.7,2.7A5,5,0,0,1,52.9,60l-.2-.3h-.1l-4.5-5.2,6.4-6.4,5.2,4.6h0a4,4,0,0,1,1,1.2A4.8,4.8,0,0,1,60.9,58.8Z" transform="translate(0 0)"/><path class="cls-1" d="M23.6,13a1.3,1.3,0,0,0-1.8,0l-5.3,5.3a1.1,1.1,0,0,0,0,1.7,1.1,1.1,0,0,0,.9.4,1.2,1.2,0,0,0,.9-.4l5.3-5.3A1.4,1.4,0,0,0,23.6,13Z" transform="translate(0 0)"/></svg>