<?xml version="1.0" encoding="utf-8"?>
<!-- Generator: Adobe Illustrator 23.0.0, SVG Export Plug-In . SVG Version: 6.00 Build 0)  -->
<svg version="1.1" id="Layer_1" xmlns="http://www.w3.org/2000/svg" xmlns:xlink="http://www.w3.org/1999/xlink" x="0px" y="0px"
	 viewBox="0 0 500 84" style="enable-background:new 0 0 500 84;" xml:space="preserve">
<style type="text/css">
	.st0{fill:#FFFFFF;}
	.st1{fill:#0089CF;}
</style>
<rect class="st0" width="500" height="84"/>
<g>
	<path class="st1" d="M54.2,75.5H32.8C20.3,75.5,10,65.2,10,52.7V31.3C10,18.8,20.3,8.5,32.8,8.5h21.4c12.6,0,22.8,10.3,22.8,22.8
		v21.4C76.9,65.2,66.6,75.5,54.2,75.5"/>
	<path class="st0" d="M43.8,43c1.1-3.4,4.5-3.9,4.5-3.9l5.5-0.5c0.9-0.1,1.7-0.3,2.5-0.7c1-0.5,1.9-0.8,2.4-0.8
		c0.2,0,0.3,0.1,0.3,0.3l-0.3,2.1c-0.5,1.8,0,5.7,0,6.6c0,0.7-0.1,1.3-0.2,1.8c-0.1,0.3-0.1,0.6-0.1,1c0,1.6-0.9,3.5-0.9,3.5
		c-2.6,4.8-8,5.3-9.4,5.3c-0.2,0-0.3,0.2-0.2,0.3c1.2,2,3.8,1.8,3.8,1.8c5.3,0.2,8.2-0.4,9.1-0.4c0.7,0,0.7-0.7,0.6-1.2
		c0-0.2-0.1-0.3-0.2-0.5c-0.1-0.2-0.1-0.5-0.1-0.7c0-0.3,0.2-0.6,0.5-0.7h0.1c0.2-0.1,0.4-0.3,0.4-0.5l0.1-0.6
		c0-0.3,0.3-0.5,0.6-0.6c0.3-0.1,0.7-0.2,0.9-0.2c0.2-0.1,0.3-0.6,0.3-0.9c0-0.1,0-0.2,0-0.3c0-0.9,0.9-0.9,0.9-0.9
		c1.3-0.2,1.5-0.5,1.5-0.6c0-0.1,0-0.1,0-0.2c0.2-1.2-0.7-1.4-0.7-1.4c-1.2-0.3-1-0.7-1-0.7c-1.1-1,0.5-5.1,0.5-5.1
		c0.5-0.6,0.6-1.7,0.6-1.7c0.6-0.7,0.4-2.7,0.4-2.7s0.1-1.6,1.7-1.8c1.6-0.2,1.1-1.4,1.1-1.4c-0.2-1.5-1.9-1.5-2.3-1.5
		c-0.1,0-0.3,0-0.4,0c-0.7-0.1-1-0.3-1.2-0.5c-0.1-0.2-0.3-0.3-0.5-0.5C59.2,29.9,52,29.5,52,29.5c0-1.2-0.9-2.7-1.2-3.2
		c-0.1-0.2-0.3-0.4-0.4-0.6c-0.8-1.2-3.1-4.7-4.3-5.2c-1.4-0.5-2-2.5-2-2.5c-0.1-1-0.5-1.5-0.8-1.8c-0.3-0.4-1-0.3-1.2,0.1
		c-0.1,0.2-0.2,0.4-0.2,0.8c0,1.1-0.2,1.1-1.1,2.8c-0.8,1.6-2.1,2.7-2.1,2.7c-3.3,2.5-3.7,4.1-3.7,4.1c-0.1,0.4-2,2-2,2
		s-3.6,0-4.2,0.3c-0.6,0.3-2.6,0.7-3.5,0.8c-0.2,0-0.5,0.2-0.6,0.4L23.4,32c-0.1,0.2-0.3,0.3-0.5,0.4c-1.1,0.4-4.5,1.9-5.1,2.9
		c-0.5,0.8-0.1,1.3,0.3,1.7c0.1,0.1,0.3,0.2,0.5,0.3c0.4,0.2,1.2,0.8,1.1,1.8c-0.1,0.8,0,1.2,0.1,1.4c0.1,0.2,0.2,0.3,0.3,0.3
		c0.2,0.1,0.3,0.3,0.4,0.5c0,0.1,0.1,0.2,0.1,0.2c0.3,0.5,0.2,1.3,0.2,1.7c0,0.1,0,0.2-0.1,0.2c-0.2,0.2-0.3,0.8-0.3,1.2
		c0,0.1,0,0.2-0.1,0.3c-0.2,0.4-0.2,1.8-0.2,2.4c0,0.1,0,0.3-0.1,0.4c-1,1.2-1.4,2.2-1.6,2.8c-0.2,0.5,0,1,0.4,1.2
		c0.3,0.3,0.8,0.5,1.2,0.6c1.1,0.1,1,0.3,1,0.3c-0.1,0.7,0.1,1.5,0.1,1.5s0,0.5,1.4,0.6c0.6,0,0.9,0.2,1,0.4
		c0.2,0.3,0.1,0.6-0.2,0.8c-0.8,0.4-0.8,0.9-0.8,0.9s0,0.5,1.1,0.5c1.1,0,0.5,0.7,0.5,0.7s-0.6,0.4-0.2,1.1c0.4,0.7,1.5,0.3,1.5,0.3
		c1-0.1,6.4,0.3,6.4,0.3c2.7,0.3,3.8-0.6,3.8-0.6l1.3-0.5c0.3-0.1,0.2-0.5-0.1-0.5L35,57.7c-6.8-1-7.8-7.7-7.8-7.7s-1-6.5-0.7-7.7
		c0.1-0.5,0.1-1.2,0-1.7c-0.1-0.7-0.2-1.3-0.5-1.9l-0.3-0.6c-0.1-0.2,0.1-0.4,0.4-0.4l1.2,0.4c0.4,0.1,0.7,0.2,0.9,0.3
		c0.7,0.4,1.4,0.6,2.2,0.6c2.4,0,7.1,0.1,9.2,1.6c0,0,2.1,1.2,2.2,4.6v9.8c0,0.9,0.1,1.8,0.3,2.7l0.1,0.4c0,0.2,0.3,0.2,0.3,0
		l0.1-0.6c0.2-0.9,0.3-1.8,0.3-2.7l0.4-7.9c0-0.7,0-1.2,0-1.9C43.3,44.5,43.4,43.3,43.8,43 M51.6,33.1c0,0.8-0.3,1.4-0.8,2
		c-0.7,1-2,2.5-4,3.4c-2.1,1-2.6,1.6-2.7,1.9c-0.1,0.3-0.2,0.5-0.4,0.7c-0.3,0.3-0.8,0.6-1.2,0.6c0,0-1,0.1-1.4-1.1
		c-0.3-0.8-1.2-1.4-1.9-1.8c-0.3-0.2-0.7-0.4-1-0.6c-0.9-0.5-4.2-2.2-4.6-5c-0.1-0.8-0.1-1.5,0-2.2c0.2-1.4,1-2.8,1.9-3.9
		c0.9-0.9,2.4-2.4,3.8-3.7c2.3-2.1,2.9-3.9,2.9-3.9l0.4-1.1c0.1-0.2,0.4-0.2,0.5,0c0.3,1.1,1.1,2.8,2.4,3.6c2,1.2,4.5,4.8,4.5,4.8
		S51.9,29.1,51.6,33.1"/>
	<path class="st0" d="M36.6,43.4c0,1-0.8,1.6-1.6,1.6s-1.6-0.8-1.6-1.6c0-1,0.8-1.6,1.6-1.6S36.6,42.6,36.6,43.4"/>
	<path class="st0" d="M46.5,51.4c0,0.4-0.4,0.8-0.8,0.8c-0.4,0-0.8-0.4-0.8-0.8s0.4-0.8,0.8-0.8C46.1,50.5,46.5,50.9,46.5,51.4"/>
	<path class="st0" d="M48.1,50.1c0,0.4-0.4,0.8-0.8,0.8c-0.4,0-0.8-0.4-0.8-0.8c0-0.4,0.4-0.8,0.8-0.8
		C47.7,49.3,48.1,49.6,48.1,50.1"/>
	<path class="st0" d="M49.7,51.4c0,0.4-0.4,0.8-0.8,0.8c-0.4,0-0.8-0.4-0.8-0.8s0.4-0.8,0.8-0.8C49.4,50.5,49.7,50.9,49.7,51.4"/>
	<path class="st0" d="M51.5,50.1c0,0.4-0.4,0.8-0.8,0.8c-0.4,0-0.8-0.4-0.8-0.8c0-0.4,0.4-0.8,0.8-0.8
		C51.1,49.3,51.5,49.7,51.5,50.1"/>
	<path class="st0" d="M53,51.5c0,0.5-0.4,0.9-0.9,0.9s-0.9-0.4-0.9-0.9s0.4-0.9,0.9-0.9C52.6,50.6,53,51,53,51.5"/>
	<path class="st0" d="M54.7,50.4c0,0.5-0.4,0.9-0.9,0.9S53,50.8,53,50.4s0.4-0.9,0.9-0.9C54.4,49.5,54.7,49.9,54.7,50.4"/>
	<path class="st0" d="M56.3,51.5c0,0.5-0.4,0.9-0.9,0.9c-0.5,0-0.9-0.4-0.9-0.9s0.4-0.9,0.9-0.9C55.9,50.6,56.3,51,56.3,51.5"/>
	<path class="st0" d="M40,52.3c-0.1-0.6-1.1-0.8-1.7-0.8c0.1-1.2,0.6-2.4,0.6-2.4c1.2-1.1,0.2-2,0.2-2c0-0.8-0.3-1.8-2-1.6
		s-2.4,1.1-2.4,1.1s-0.5-1.6-2.1-1.2c-1.6,0.4-1.1,0.7-1.6,1.1s-0.8,1.2-0.2,2.8c0.3,0.9,0.4,1.6,0.5,2.1c-0.2,0-0.4,0.1-0.5,0.1
		c-1.2,0.1-1.1,1.1-1.1,1.1s0.2,1.6,3,0.9c0,0,0.7-0.3,1.3-0.8c0.4-0.3,0.9-0.3,1.2-0.1c0.2,0.1,0.4,0.3,0.6,0.5
		c0.6,0.7,2.8,0.7,2.8,0.7S40.2,53.2,40,52.3 M31.9,51.1c-0.3-0.8-0.8-2.3-0.5-2.4c0.3-0.1,0.5-0.5,0.5-0.6s0-0.1,0-0.2
		c0.2-0.6-0.2-0.7-0.3-0.9c0-0.1-0.1-0.1-0.1-0.2c0-0.3,0.2-0.5,0.4-0.7c0.3-0.1,0.7-0.3,1.3-0.3c1.2,0,1.1,1.4,1.1,1.4
		c0,0.6-0.4,0.8-0.4,0.8c-0.8,0.2-1,0.5-1,0.5s-0.1,0.5,0.7,0.6c0.3,0.1,0.5,0.4,0.6,0.7c-0.1,0.2-0.2,0.3-0.2,0.3
		S32.9,50.8,31.9,51.1 M35.2,50.4L35.2,50.4c0.1-0.5,0.4-0.8,0.8-1c0.2-0.1,0.5-0.3,0.5-0.5c0-0.3-0.7-0.5-1-0.5
		c-0.1,0-0.2-0.1-0.2-0.2c-0.1-0.5-0.4-2.1,1.3-2.3c2.1-0.1,1.7,1.2,1.7,1.2s-0.5,0.8,0,1.3c0.4,0.5-0.1,2.3-0.3,3.1
		c-0.1,0-0.2,0-0.2,0S35.6,51.7,35.2,50.4"/>
	<path class="st0" d="M46.7,56.6l-2.3-0.1c-0.2,0-0.3-0.1-0.3-0.3v-1.9c0-0.3,0.1-0.5,0.2-0.7c0.2-0.3,0.6-0.7,1.2-1
		c0.1,0,0.2,0,0.2,0c0.4,0.2,1.3,0.7,1.3,1.9v1.6C47,56.5,46.9,56.6,46.7,56.6"/>
	<path class="st0" d="M49.5,56.7l-1.5,0.1c-0.1,0-0.2-0.1-0.2-0.2v-2c0-0.3,0.1-0.5,0.2-0.7c0.2-0.3,0.5-0.7,1.1-1
		c0.1,0,0.1,0,0.2,0c0.3,0.2,1.2,0.7,1.2,1.9v1.1C50.2,56.3,49.8,56.7,49.5,56.7"/>
	<path class="st0" d="M52,56.2h-0.9c-0.1,0-0.2-0.1-0.2-0.2v-1.7c0-0.3,0.1-0.5,0.2-0.7c0.2-0.3,0.5-0.7,1.1-1c0.1,0,0.1,0,0.2,0
		c0.3,0.2,1.2,0.5,1.2,1.6v0.4C53.4,55.5,52.7,56.1,52,56.2"/>
	<path class="st0" d="M55.2,52.7c-0.1,0-0.1,0-0.2,0c-0.6,0.2-0.9,0.6-1.1,1c-0.1,0.2-0.2,0.5-0.2,0.7c0,0,0.6,0.4,1.2-0.4
		C55.8,53.1,56.1,52.5,55.2,52.7"/>
	<rect x="47.1" y="41.4" class="st0" width="11.8" height="0.7"/>
	<rect x="47.1" y="47.1" class="st0" width="7.3" height="0.7"/>
	<rect x="49.1" y="43.1" class="st0" width="4.1" height="0.7"/>
	<rect x="47.1" y="41.4" class="st0" width="0.7" height="6.2"/>
	<path class="st0" d="M57.4,49.7l-1.9,0.6c0,0-1.3-1.8-1.5-2.7c0,0-0.8-0.1-1.1-1c-0.3-0.9-0.5-1.2-0.2-1.5c0,0,0.5-0.3,0.8,0.8
		c0.3,1.1,0.8,0.6,0.8,0.6s0.6-1,1.2-1.2c0,0,0.2-0.4,0-0.6c0,0-0.7-0.2-0.7-0.7c0-0.6,0.8-0.8,1-0.8c0,0,1,0.1,1,0.7
		c0,0.6-0.7,0.8-0.7,0.8S56,45,56.2,45.2c0,0,0.7,0,0.8,0.3c0.1,0.3,0.2,1.1,0,1.8C56.8,48,57.4,49.7,57.4,49.7"/>
	<path class="st0" d="M47.2,27.4c0,0-0.2-2.9-3.6-3.7c-0.7-0.2-1.3-0.2-1.9,0c-1.3,0.3-3.6,1.2-3.8,4.5c0,0-1,1.8-0.6,3.8
		c0.1,0.6,0.4,1.2,0.7,1.5c0.4,0.5,0.9,1.1,1.6,1.3c0,0,0.7,0.2,0.8,2.7h0.8v-2.3c0-0.2,0-0.3-0.1-0.4c-0.1-0.2-0.4-0.6-0.9-0.9
		c-0.1-0.1-0.2-0.2-0.1-0.4c0.1-0.3,0.4-0.7,1.2-0.5c1.3,0.2,1.4,0.6,1.4,0.6v3.8h0.8v-3.9c0,0,0.3-0.6,1.5-0.5
		c1.2,0.1,0.3,1.1,0.3,1.1l-0.8,0.6c-0.1,0.1-0.1,0.2-0.1,0.4l1.2,2.5l1-0.1c0,0-1.5-2.2-1.1-2.7c0,0,2.3-0.9,2.5-3.4
		C48.5,29,47.6,27.8,47.2,27.4 M47,28c0,0-0.8,0.6-0.2,1.4c0,0,0.1,1.1-0.5,1.2c0,0,0,0.6-0.5,0.8c0,0-0.6,1-3,1.1
		c0,0-3.5,0.4-4.4-3.1c0,0-0.7-3,2.1-4.9c0,0,1.3-1,4-0.2C44.6,24.2,47.3,25.7,47,28"/>
	<rect x="40.6" y="24.8" class="st0" width="4.5" height="0.7"/>
	<rect x="42.4" y="25.4" class="st0" width="0.7" height="4.3"/>
	<path class="st0" d="M39.3,27.5c0,0,2.5-1.2,2.7,1.8c0,0,0.3,0.5,1.2-0.3c0,0,0.5-1.9,3-2.1c0,0,0.2,3.9-3,4S39.4,28.6,39.3,27.5"
		/>
	<path class="st0" d="M44.8,30.1c0,0,1.2,0.3,1.4,1.2l0.5-0.5c0,0-1.5-0.8-1.7-1.2L44.8,30.1z"/>
	<rect x="52" y="42" class="st0" width="0.5" height="1.1"/>
	<path class="st1" d="M107.6,51.4h-3.4v14.1h-3.4v-2.1L93.4,67l-1.7-2l9.2-4.2v-9.4h-3.6v9.1c-0.2,0.2-0.5,0.5-1,0.7
		c-0.5,0.2-0.9,0.4-1.3,0.4l-4.3-2.3v-1.8h3.6v-5.9h-5.3v-2h18.7V51.4z"/>
	<polygon class="st1" points="110.1,51.4 106.8,51.4 106.8,49.4 116.8,49.4 116.8,51.4 113.5,51.4 113.5,65.5 110.1,65.5 	"/>
	<path class="st1" d="M135.4,51.4H132v14.1h-3.4v-5.4h-5.8v3.4h-1.8l-3.6-3.9c0-0.3,0.1-0.7,0.3-1c0.2-0.4,0.3-0.6,0.5-0.7h1.5v-6.4
		h-4.2v-2h19.7L135.4,51.4L135.4,51.4z M128.7,51.4h-5.8v6.4h5.8V51.4z"/>
	<path class="st1" d="M134.2,51.4v-2h3.4c-0.6-1.6-1.2-2.9-2-3.7s-1.6-1.2-2.6-1.2c-0.7,0-1.2,0.2-1.5,0.7c-0.4,0.4-0.6,1-0.6,1.6
		c0,0.8,0.2,1.7,0.7,3h-3c-0.5-1-0.8-1.9-0.8-3c0-0.9,0.2-1.7,0.7-2.4c0.4-0.7,1.1-1.2,1.8-1.6c0.8-0.4,1.6-0.6,2.6-0.6
		c1.6,0,3.2,0.6,4.4,1.8s2.4,3.1,3.5,5.5h3.5v2h-3.4v14.1h-3.4V51.4H134.2z"/>
	<path class="st1" d="M167.6,51.4h-3.4v14.1h-3.4V51.4H157v6.5c0,0.8-0.3,1.5-0.8,2.2c-0.5,0.7-1.2,1.2-2,1.5s-1.7,0.6-2.7,0.6
		c-1.5,0-2.8-0.5-3.7-1.3c-1-0.9-1.4-2.1-1.4-3.6v-5.7H143v-2h24.5v1.8H167.6z M153.7,51.4h-3.9v5.9c0,0.9,0.1,1.5,0.4,1.9
		c0.3,0.4,0.7,0.5,1.2,0.5c0.7,0,1.2-0.2,1.6-0.6c0.5-0.4,0.7-1,0.7-1.6L153.7,51.4L153.7,51.4z"/>
	<path class="st1" d="M193.4,51.4H190v14.1h-3.4v-5.4h-5.8v3.4h-1.8l-3.6-3.9c0-0.3,0.1-0.7,0.3-1c0.2-0.4,0.3-0.6,0.5-0.7h1.5v-6.4
		h-4.2v-2h19.8V51.4z M186.6,51.4h-5.8v6.4h5.8V51.4z"/>
	<path class="st1" d="M192.2,51.4v-2h3.4c-0.5-0.8-0.8-1.6-0.8-2.6c0-1.4,0.6-2.7,1.6-3.5c1.2-0.9,2.6-1.2,4.6-1.2
		c2.3,0,4.3,0.6,6.2,1.8c1.9,1.2,3.8,3.2,5.8,5.9h-2.9c-1.2-1.3-2.4-2.4-3.4-3.2c-1-0.8-1.9-1.3-2.8-1.6s-1.8-0.5-2.8-0.5
		c-1.1,0-1.8,0.2-2.4,0.7s-0.9,1.1-0.9,1.9c0,0.8,0.2,1.6,0.7,2.5h3.6v2h-3.4v14.1h-3.4V51.4H192.2z"/>
	<path class="st1" d="M206,56.4c0,0.5,0.4,0.9,1.1,1.2c0.8-0.2,1.5-0.3,2.3-0.3c1.1,0,2,0.2,3,0.5c1,0.3,1.7,0.8,2.4,1.3
		c0.6,0.6,1,1.3,1,2.2c0,1.1-0.5,1.9-1.3,2.4c-1,0.6-2,0.8-3.4,0.8c-0.4,0-0.7,0-0.9,0l-0.7-2.4l1.2,0.1c1.2,0,1.7-0.4,1.7-1.2
		c0-0.5-0.2-0.9-0.7-1.2c-0.5-0.3-1.1-0.4-1.7-0.4c-1.1,0-1.9,0.3-2.7,0.8c-0.8,0.6-1.2,1.2-1.2,2.2c0,0.8,0.2,1.3,0.7,1.8
		c0.5,0.5,1.1,1,1.7,1.2s1.6,0.7,2.8,1.1l-1.7,1.6c-2-0.7-3.7-1.5-5-2.5c-1.2-1-1.9-2.2-1.9-3.6c0-0.8,0.2-1.4,0.6-2.1
		c0.4-0.6,0.9-1.2,1.5-1.6c-0.7-0.5-1.2-1-1.5-1.5c-0.4-0.6-0.6-1.2-0.6-1.7c0-0.7,0.2-1.2,0.7-1.5c0.5-0.4,1-0.5,1.5-0.5h5.6v-1.9
		H201v-2h16.1v2h-3.4v4.2h-6C206.6,55.4,206,55.8,206,56.4"/>
	<path class="st1" d="M237.6,51.4h-3.4v14.1h-3.4v-8.4c-0.4-0.2-0.7-0.3-1-0.4c-0.3-0.1-0.5-0.1-0.8-0.1c-0.5,0-0.9,0.1-1.1,0.4
		c-0.3,0.3-0.5,0.7-0.6,1.2c-0.1,0.6-0.2,1.4-0.2,2.6V62h-3.1v-1.2c0-1.1,0.1-2,0.3-2.8c-0.9-0.9-1.6-1.3-2.4-1.3
		c-0.5,0-0.8,0.2-1,0.5c-0.2,0.4-0.3,0.9-0.3,1.6c0,1,0.2,1.9,0.6,2.9c0.4,1,1,2,1.8,3.2l-2.4,0.9c-1.2-1.5-1.9-2.9-2.4-3.9
		c-0.5-1.1-0.7-2.2-0.7-3.3c0-1.3,0.4-2.4,1.1-3.2c0.7-0.8,1.7-1.2,3.1-1.2c0.7,0,1.3,0.1,1.8,0.4c0.5,0.3,1.1,0.8,1.7,1.4
		c0.7-1.1,1.8-1.6,3.3-1.6c0.8,0,1.4,0.2,2.2,0.5v-3.4h-14.8v-2h21.5L237.6,51.4L237.6,51.4z"/>
	<polygon class="st1" points="239.8,51.4 236.6,51.4 236.6,49.4 246.5,49.4 246.5,51.4 243.2,51.4 243.2,65.5 239.8,65.5 	"/>
	<path class="st1" d="M270.2,51.4h-3.4v14.1h-3.4v-3.9c-1.2,1.2-2.6,1.8-4,1.8c-1,0-1.8-0.2-2.6-0.7c-0.8-0.5-1.4-1.1-1.9-1.8
		c-0.5-0.8-0.8-1.6-0.8-2.5s0.3-1.7,0.8-2.4c0.5-0.8,1.2-1.3,2-1.7c0.9-0.4,1.7-0.7,2.8-0.7c0.7,0,1.4,0.1,2.1,0.4v2.4
		c-0.4-0.1-0.7-0.2-1-0.3c-0.3-0.1-0.5-0.1-0.8-0.1c-0.9,0-1.5,0.2-2,0.7s-0.7,1.1-0.7,1.9c0,0.8,0.2,1.3,0.6,1.7s0.9,0.7,1.5,0.7
		c0.7,0,1.3-0.2,2-0.6c0.7-0.4,1.3-1,2-1.7v-7.1h-10.9v-2h17.6V51.4z"/>
	<path class="st1" d="M294.4,51.4h-3.4v14.1h-3.4v-4.3c-0.7,0.7-1.4,1.2-2.2,1.5c-0.8,0.4-1.6,0.6-2.4,0.6c-1,0-1.8-0.2-2.7-0.7
		c-0.9-0.5-1.4-1.1-2-1.8c-0.5-0.8-0.8-1.6-0.8-2.6c0-1,0.3-1.8,0.8-2.6c0.5-0.8,1.2-1.3,2-1.8c0.9-0.5,1.7-0.7,2.8-0.7
		c0.7,0,1.3,0.1,2.1,0.4v2.2c-0.6-0.2-1.2-0.3-1.7-0.3c-0.4,0-0.8,0.1-1.2,0.2l4.3,3.5c0.5-0.5,0.8-0.9,1.1-1.1v-6.7h-11.7v-2h18.3
		L294.4,51.4L294.4,51.4z M285.3,60.2l-4.1-3.4c-0.2,0.4-0.3,1-0.3,1.5c0,0.8,0.2,1.4,0.6,1.9c0.4,0.5,1,0.7,1.6,0.7
		S284.6,60.7,285.3,60.2"/>
	<polygon class="st1" points="296.8,51.4 293.4,51.4 293.4,49.4 303.4,49.4 303.4,51.4 300,51.4 300,65.5 296.8,65.5 	"/>
	<path class="st1" d="M323.7,51.4h-3.4v14.1H317v-8.4c-0.4-0.2-0.7-0.3-1-0.4c-0.3-0.1-0.5-0.1-0.8-0.1c-0.5,0-0.9,0.1-1.1,0.4
		c-0.3,0.3-0.5,0.7-0.6,1.2c-0.1,0.6-0.2,1.4-0.2,2.6V62h-3v-1.2c0-1.1,0.1-2,0.3-2.8c-0.9-0.9-1.6-1.3-2.4-1.3
		c-0.5,0-0.8,0.2-1,0.5c-0.2,0.4-0.3,0.9-0.3,1.6c0,1,0.2,1.9,0.6,2.9c0.4,1,1,2,1.8,3.2l-2.4,0.9c-1.2-1.5-1.9-2.9-2.4-3.9
		c-0.5-1.1-0.7-2.2-0.7-3.3c0-1.3,0.4-2.4,1.1-3.2c0.7-0.8,1.7-1.2,3.1-1.2c0.7,0,1.3,0.1,1.8,0.4c0.5,0.3,1.1,0.8,1.7,1.4
		c0.7-1.1,1.8-1.6,3.3-1.6c0.8,0,1.4,0.2,2.2,0.5v-3.4h-14.8v-2h21.5v2H323.7z"/>
	<path class="st1" d="M336,51.4v3.8c1.1-1.2,2.3-1.8,3.6-1.8c0.9,0,1.6,0.2,2.3,0.7c0.8,0.5,1.3,1.1,1.7,1.8
		c0.5,0.8,0.7,1.6,0.7,2.5c0,0.9-0.3,1.6-0.8,2.4c-0.5,0.8-1.3,1.6-2.5,2.6l-2.1-1.8c0.9-0.7,1.4-1.3,1.8-1.9
		c0.4-0.6,0.5-1.2,0.5-1.8c0-0.8-0.2-1.2-0.5-1.5s-0.7-0.4-1.2-0.4c-1.3,0-2.6,0.8-3.6,2.4v7.2h-3.4v-4c-0.6,0.6-1.2,1.1-1.7,1.3
		c-0.7,0.3-1.2,0.5-1.9,0.5c-0.8,0-1.5-0.2-2.3-0.7c-0.8-0.5-1.3-1.1-1.7-1.8c-0.4-0.8-0.7-1.6-0.7-2.5c0-0.9,0.2-1.7,0.7-2.4
		c0.5-0.8,1.1-1.3,1.8-1.7c0.8-0.4,1.6-0.7,2.6-0.7c0.8,0,1.5,0.1,2.2,0.4v2.4c-0.9-0.3-1.6-0.4-2.1-0.4c-0.7,0-1.2,0.2-1.5,0.7
		c-0.4,0.5-0.5,1.1-0.5,1.9c0,0.8,0.1,1.3,0.4,1.7c0.3,0.4,0.7,0.6,1.2,0.6s1.2-0.2,1.7-0.6s1.2-1.1,1.8-1.8v-7h-10v-2H346v2
		C346,51.4,336,51.4,336,51.4z"/>
	<path class="st1" d="M352,51.4v-2h3.4c-0.5-0.8-0.8-1.6-0.8-2.6c0-1.4,0.6-2.7,1.7-3.5c1.2-0.9,2.8-1.2,4.8-1.2
		c2.6,0,5,0.6,7.2,1.8c2.2,1.2,4.4,3.2,6.7,5.9h-3c-1.4-1.3-2.8-2.4-4-3.2c-1.2-0.8-2.3-1.3-3.4-1.6s-2.2-0.5-3.5-0.5
		c-1.2,0-2.1,0.2-2.7,0.7c-0.7,0.5-1,1.1-1,1.9c0,0.8,0.2,1.6,0.7,2.5h3.6v2h-3.4v14.1h-3.4V51.4H352z"/>
	<path class="st1" d="M378.5,51.4h-3.4v14.1h-3.4v-3.9c-1.2,1.2-2.6,1.8-4,1.8c-1,0-1.8-0.2-2.6-0.7c-0.8-0.5-1.4-1.1-1.9-1.8
		c-0.5-0.8-0.8-1.6-0.8-2.5s0.3-1.7,0.8-2.4c0.5-0.8,1.2-1.3,2-1.7c0.9-0.4,1.7-0.7,2.8-0.7c0.7,0,1.4,0.1,2.1,0.4v2.4
		c-0.4-0.1-0.7-0.2-1-0.3c-0.3-0.1-0.5-0.1-0.8-0.1c-0.9,0-1.5,0.2-2,0.7c-0.5,0.5-0.7,1.1-0.7,1.9c0,0.8,0.2,1.3,0.6,1.7
		c0.4,0.4,0.9,0.7,1.5,0.7c0.7,0,1.3-0.2,2-0.6c0.7-0.4,1.3-1,2-1.7v-7.1H361v-2h17.7L378.5,51.4L378.5,51.4z"/>
	<path class="st1" d="M390.7,51.4v3.8c1.1-1.2,2.3-1.8,3.6-1.8c0.9,0,1.6,0.2,2.3,0.7c0.8,0.5,1.3,1.1,1.7,1.8
		c0.5,0.8,0.7,1.6,0.7,2.5c0,0.9-0.3,1.6-0.8,2.4c-0.5,0.8-1.3,1.6-2.5,2.6l-2.1-1.8c0.9-0.7,1.4-1.3,1.8-1.9
		c0.4-0.6,0.5-1.2,0.5-1.8c0-0.8-0.2-1.2-0.5-1.5s-0.7-0.4-1.2-0.4c-1.3,0-2.6,0.8-3.6,2.4v7.2h-3.4v-4c-0.6,0.6-1.2,1.1-1.7,1.3
		c-0.7,0.3-1.2,0.5-1.9,0.5c-0.8,0-1.5-0.2-2.3-0.7c-0.8-0.5-1.3-1.1-1.7-1.8c-0.4-0.8-0.7-1.6-0.7-2.5c0-0.9,0.2-1.7,0.7-2.4
		c0.5-0.8,1.1-1.3,1.8-1.7c0.8-0.4,1.6-0.7,2.6-0.7c0.8,0,1.5,0.1,2.2,0.4v2.4c-0.9-0.3-1.6-0.4-2.1-0.4c-0.7,0-1.2,0.2-1.5,0.7
		c-0.4,0.5-0.5,1.1-0.5,1.9c0,0.8,0.1,1.3,0.4,1.7c0.3,0.4,0.7,0.6,1.2,0.6s1.2-0.2,1.7-0.6c0.7-0.4,1.2-1.1,1.8-1.8v-7h-10v-2h23.4
		v2C400.6,51.4,390.7,51.4,390.7,51.4z"/>
	<polygon class="st1" points="403,51.4 399.7,51.4 399.7,49.4 409.7,49.4 409.7,51.4 406.4,51.4 406.4,65.5 403,65.5 	"/>
	<path class="st1" d="M429.2,51.4h-3.4v14.1h-3.4v-6.1h-7.8l3.8,4.8l-2,1.8l-5.3-7.1c-0.4-0.5-0.7-0.9-0.8-1.2
		c-0.2-0.4-0.3-0.8-0.3-1.2c0-0.6,0.3-1.2,0.8-1.5c0.5-0.5,1.1-0.7,1.7-0.7l1.3,2.6c0.4-0.2,0.7-0.6,1-1.2c0.2-0.5,0.3-1.2,0.3-1.9
		c0-0.9-0.2-1.6-0.5-2.5h-6.1v-2h20.6L429.2,51.4L429.2,51.4z M422.6,57.2v-5.8h-4.9c0.4,0.9,0.6,1.7,0.6,2.7c0,1.2-0.3,2.2-1,3.1
		H422.6z"/>
	<path class="st1" d="M455,51.4h-3.4v14.1h-3.4v-5.4h-5.8v3.4h-1.8l-3.6-3.9c0-0.3,0.1-0.7,0.3-1c0.2-0.4,0.3-0.6,0.5-0.7h1.5v-6.4
		h-4.2v-2h19.7L455,51.4L455,51.4z M448.2,51.4h-5.8v6.4h5.8V51.4z"/>
	<rect x="448.5" y="43.1" class="st1" width="2.9" height="2.9"/>
	<path class="st1" d="M458.6,65.2c-1.2-0.5-2.3-1.2-3.6-2.1l1.2-2.3c1.1,0.8,2,1.3,2.9,1.8c0.9,0.4,1.9,0.7,3,0.7
		c1,0,1.7-0.2,2.2-0.5c0.6-0.3,0.9-0.8,0.9-1.2s-0.2-0.9-0.6-1.1c-0.4-0.2-0.9-0.3-1.6-0.3c-1.1,0-2.7,0.2-4.8,0.7
		c-0.9-0.6-1.5-1.2-2-2c-0.5-0.8-0.8-1.6-0.8-2.6c0-0.9,0.2-1.5,0.7-1.9c0.4-0.5,1-0.7,1.6-0.7h5.6v-2.1h-9.5v-2h16.1v2h-3.4v4.3
		H460c-0.9,0-1.2,0.3-1.2,1c0,0.3,0.1,0.7,0.3,1.1c0.2,0.4,0.4,0.7,0.8,0.9c0.9-0.3,1.6-0.5,2.2-0.7c0.6-0.1,1.2-0.2,1.8-0.2
		c1.4,0,2.5,0.4,3.4,1.1c0.9,0.7,1.2,1.6,1.2,2.7c0,1.3-0.6,2.4-1.6,3.3c-1.2,0.8-2.5,1.2-4.2,1.2C461,65.9,459.8,65.7,458.6,65.2"
		/>
	<path class="st1" d="M485,51.4v2.7c0.9,0.3,1.6,0.9,2.1,1.6c0.5,0.8,0.7,1.7,0.7,2.9c0,1.6-0.5,3-1.3,3.9c-0.9,1-2,1.4-3.5,1.4
		c-0.7,0-1.2-0.1-1.9-0.3c-0.6-0.2-1.2-0.6-1.9-1.1c-0.9,0.9-1.9,1.3-3.4,1.3s-2.6-0.5-3.5-1.4c-0.9-1-1.2-2.2-1.2-3.8
		c0-1.6,0.4-2.8,1.2-3.7c0.9-0.9,2-1.3,3.6-1.3c1.4,0,2.7,0.5,3.7,1.3c0.5-0.6,1.2-1,2-1.2v-2.6h-12.8v-2H490v2h-5V51.4z
		 M478.6,57.2l0.1-0.3c-0.4-0.3-0.8-0.5-1.2-0.7c-0.5-0.2-0.9-0.3-1.2-0.3c-0.8,0-1.3,0.3-1.8,1c-0.5,0.6-0.7,1.4-0.7,2.5
		c0,0.9,0.2,1.4,0.5,1.8c0.3,0.4,0.8,0.6,1.4,0.6c0.6,0,1.1-0.1,1.4-0.4c0.4-0.3,0.7-0.8,0.9-1.4L478.6,57.2z M484.5,60.9
		c0.5-0.7,0.7-1.5,0.7-2.7c0-0.8-0.1-1.3-0.4-1.7c-0.3-0.3-0.8-0.5-1.4-0.5c-1.2,0-2,0.5-2.3,1.5l-0.7,2.8c-0.1,0.3-0.1,0.5-0.2,0.6
		c0.4,0.3,0.9,0.5,1.2,0.7c0.5,0.2,0.9,0.3,1.2,0.3C483.5,61.9,484,61.6,484.5,60.9"/>
	<path class="st1" d="M100.9,16.4c1.2,0.9,1.9,2.1,2.2,3.6h-3.7c-0.3-0.5-0.7-1-1.2-1.2c-0.5-0.3-1.2-0.5-1.8-0.5
		c-1.2,0-2,0.4-2.7,1.2c-0.7,0.8-1.1,1.7-1.1,3.1c0,1.4,0.4,2.5,1.1,3.3s1.7,1.2,3.1,1.2c0.9,0,1.6-0.2,2.2-0.7
		c0.6-0.5,1.1-1.2,1.3-2h-4.5v-2.6h7.5v3.6c-0.3,0.9-0.7,1.6-1.3,2.4c-0.6,0.8-1.3,1.3-2.3,1.8c-1,0.5-2,0.7-3.3,0.7
		c-1.4,0-2.8-0.3-3.8-1c-1.2-0.7-1.9-1.5-2.6-2.7c-0.6-1.2-0.9-2.4-0.9-3.8c0-1.4,0.3-2.8,0.9-3.8c0.6-1.2,1.4-2,2.6-2.7
		c1.1-0.7,2.4-1,3.8-1C98.2,15,99.8,15.5,100.9,16.4"/>
	<path class="st1" d="M110.6,18.8c0.7-0.4,1.4-0.6,2.3-0.6V22h-1.1c-1,0-1.6,0.2-2.2,0.6c-0.5,0.4-0.8,1.1-0.8,2v5.3h-3.6V18.3h3.6
		v2.2C109.4,19.7,109.9,19.2,110.6,18.8"/>
	<path class="st1" d="M121.1,18.7c0.7,0.4,1.2,1,1.4,1.6v-2.1h3.6v11.6h-3.6v-2.1c-0.3,0.7-0.8,1.2-1.4,1.6
		c-0.7,0.4-1.4,0.6-2.3,0.6c-1,0-1.8-0.2-2.6-0.7s-1.3-1.2-1.8-2.1c-0.5-0.9-0.7-1.9-0.7-3.2s0.2-2.3,0.7-3.2c0.5-0.9,1.1-1.5,1.8-2
		c0.8-0.5,1.6-0.7,2.6-0.7C119.6,18.1,120.4,18.3,121.1,18.7 M118.1,21.9c-0.5,0.5-0.7,1.2-0.7,2.1c0,0.9,0.2,1.5,0.7,2.1
		c0.5,0.5,1.1,0.8,1.8,0.8c0.8,0,1.3-0.3,1.8-0.8c0.5-0.5,0.7-1.2,0.7-2s-0.2-1.5-0.7-2.1c-0.5-0.5-1.1-0.8-1.8-0.8
		C119.2,21.3,118.6,21.5,118.1,21.9"/>
	<path class="st1" d="M146.8,19.4c0.9,0.9,1.2,2.1,1.2,3.6v6.7h-3.6v-6.3c0-0.8-0.2-1.3-0.6-1.7c-0.4-0.4-1-0.6-1.6-0.6
		s-1.2,0.2-1.6,0.7c-0.4,0.5-0.6,1.1-0.6,1.8v6.1h-3.6v-6.3c0-0.8-0.2-1.3-0.6-1.7c-0.4-0.4-1-0.6-1.6-0.6s-1.2,0.2-1.7,0.7
		c-0.4,0.4-0.6,1.1-0.6,1.8v6.1h-3.6V18.3h3.6v2c0.3-0.7,0.8-1.2,1.4-1.5c0.7-0.4,1.3-0.6,2.2-0.6s1.6,0.2,2.3,0.6
		c0.7,0.4,1.2,1,1.5,1.7c0.4-0.7,1-1.2,1.6-1.7c0.7-0.4,1.4-0.7,2.3-0.7C144.9,18.1,146,18.6,146.8,19.4"/>
	<path class="st1" d="M150.6,13.7c0.4-0.4,0.9-0.6,1.5-0.6c0.7,0,1.2,0.2,1.5,0.6c0.4,0.4,0.6,0.8,0.6,1.3c0,0.5-0.2,1-0.6,1.3
		c-0.4,0.4-0.9,0.6-1.5,0.6c-0.7,0-1.2-0.2-1.5-0.6c-0.4-0.4-0.6-0.8-0.6-1.3S150.3,14,150.6,13.7 M154,29.8h-3.6V18.3h3.6V29.8z"/>
	<path class="st1" d="M167,19.4c0.8,0.9,1.2,2.1,1.2,3.6v6.7h-3.6v-6.3c0-0.8-0.2-1.3-0.6-1.8c-0.4-0.5-1-0.7-1.6-0.7
		c-0.8,0-1.2,0.2-1.7,0.7c-0.4,0.5-0.7,1.2-0.7,1.9v6.1h-3.6V18.3h3.6v2.1c0.3-0.7,0.9-1.2,1.4-1.6c0.7-0.4,1.4-0.6,2.3-0.6
		C165.1,18.1,166.2,18.6,167,19.4"/>
	<polygon class="st1" points="191.2,15.3 191.2,29.8 187.6,29.8 187.6,20.7 184.4,29.8 181.4,29.8 178.2,20.7 178.2,29.8 
		174.6,29.8 174.6,15.3 179,15.3 182.9,25.4 186.8,15.3 	"/>
	<path class="st1" d="M200.3,18.7c0.7,0.4,1.2,1,1.4,1.6v-2.1h3.6v11.6h-3.6v-2.1c-0.3,0.7-0.8,1.2-1.4,1.6
		c-0.7,0.4-1.4,0.6-2.3,0.6c-1,0-1.8-0.2-2.6-0.7s-1.3-1.2-1.8-2.1c-0.5-0.9-0.7-1.9-0.7-3.2s0.2-2.3,0.7-3.2c0.5-0.9,1.1-1.5,1.8-2
		c0.8-0.5,1.6-0.7,2.6-0.7C198.8,18.1,199.6,18.3,200.3,18.7 M197.3,21.9c-0.5,0.5-0.7,1.2-0.7,2.1c0,0.9,0.2,1.5,0.7,2.1
		c0.5,0.5,1.1,0.8,1.8,0.8c0.8,0,1.3-0.3,1.8-0.8c0.5-0.5,0.7-1.2,0.7-2s-0.2-1.5-0.7-2.1c-0.5-0.5-1.1-0.8-1.8-0.8
		C198.4,21.3,197.8,21.5,197.3,21.9"/>
	<path class="st1" d="M218.2,19.4c0.8,0.9,1.2,2.1,1.2,3.6v6.7h-3.6v-6.3c0-0.8-0.2-1.3-0.6-1.8c-0.4-0.5-1-0.7-1.6-0.7
		c-0.8,0-1.2,0.2-1.7,0.7c-0.4,0.5-0.7,1.2-0.7,1.9v6.1h-3.6V14.4h3.6v5.9c0.3-0.7,0.9-1.2,1.4-1.6c0.7-0.4,1.4-0.6,2.3-0.6
		C216.3,18.1,217.4,18.6,218.2,19.4"/>
	<path class="st1" d="M222,13.7c0.4-0.4,0.9-0.6,1.5-0.6c0.7,0,1.2,0.2,1.5,0.6c0.4,0.4,0.6,0.8,0.6,1.3c0,0.5-0.2,1-0.6,1.3
		c-0.4,0.4-0.9,0.6-1.5,0.6c-0.7,0-1.2-0.2-1.5-0.6c-0.4-0.4-0.6-0.8-0.6-1.3S221.6,14,222,13.7 M225.2,29.8h-3.6V18.3h3.6V29.8z"/>
	<rect x="227.7" y="14.4" class="st1" width="3.6" height="15.4"/>
	<path class="st1" d="M240.4,18.7c0.7,0.4,1.2,1,1.4,1.6v-2.1h3.6v11.6h-3.6v-2.1c-0.3,0.7-0.8,1.2-1.4,1.6
		c-0.7,0.4-1.4,0.6-2.3,0.6c-1,0-1.8-0.2-2.6-0.7s-1.3-1.2-1.8-2.1c-0.5-0.9-0.7-1.9-0.7-3.2s0.2-2.3,0.7-3.2c0.5-0.9,1.1-1.5,1.8-2
		c0.8-0.5,1.6-0.7,2.6-0.7C239,18.1,239.7,18.3,240.4,18.7 M237.4,21.9c-0.5,0.5-0.7,1.2-0.7,2.1c0,0.9,0.2,1.5,0.7,2.1
		c0.5,0.5,1.1,0.8,1.8,0.8c0.8,0,1.3-0.3,1.8-0.8c0.5-0.5,0.7-1.2,0.7-2s-0.2-1.5-0.7-2.1c-0.5-0.5-1.1-0.8-1.8-0.8
		C238.5,21.3,237.9,21.5,237.4,21.9"/>
	<polygon class="st1" points="257.3,26.4 259.8,18.3 263.6,18.3 259.5,29.8 255.1,29.8 251,18.3 254.7,18.3 	"/>
	<path class="st1" d="M271.8,18.7c0.7,0.4,1.2,1,1.4,1.6v-2.1h3.6v11.6h-3.6v-2.1c-0.3,0.7-0.8,1.2-1.4,1.6
		c-0.7,0.4-1.4,0.6-2.3,0.6c-1,0-1.8-0.2-2.6-0.7c-0.8-0.5-1.3-1.2-1.8-2.1c-0.5-0.9-0.7-1.9-0.7-3.2s0.2-2.3,0.7-3.2
		c0.5-0.9,1.1-1.5,1.8-2c0.8-0.5,1.6-0.7,2.6-0.7C270.4,18.1,271.1,18.3,271.8,18.7 M268.8,21.9c-0.5,0.5-0.7,1.2-0.7,2.1
		c0,0.9,0.2,1.5,0.7,2.1c0.5,0.5,1.1,0.8,1.8,0.8c0.8,0,1.3-0.3,1.8-0.8c0.5-0.5,0.7-1.2,0.7-2s-0.2-1.5-0.7-2.1
		c-0.5-0.5-1.1-0.8-1.8-0.8C269.9,21.3,269.2,21.5,268.8,21.9"/>
	<path class="st1" d="M294.3,23.6c0.5,0.7,0.8,1.4,0.8,2.3c0,1.2-0.4,2.2-1.2,3c-0.9,0.7-2,1.1-3.6,1.1h-6.8V15.1h6.6
		c1.5,0,2.7,0.3,3.5,1c0.9,0.7,1.2,1.5,1.2,2.8c0,0.9-0.2,1.6-0.7,2.2c-0.5,0.6-1.1,1-1.8,1.2C293,22.5,293.7,22.9,294.3,23.6
		 M286.9,21.2h2.3c1.2,0,1.8-0.5,1.8-1.5s-0.7-1.5-1.9-1.5h-2.3L286.9,21.2L286.9,21.2z M291.4,25.4c0-0.5-0.2-1-0.5-1.2
		c-0.4-0.3-0.9-0.5-1.4-0.5H287v3.3h2.5C290.7,26.9,291.4,26.4,291.4,25.4"/>
	<path class="st1" d="M303.6,18.7c0.7,0.4,1.2,1,1.4,1.6v-2.1h3.6v11.6H305v-2.1c-0.3,0.7-0.8,1.2-1.4,1.6c-0.7,0.4-1.4,0.6-2.3,0.6
		c-1,0-1.8-0.2-2.6-0.7s-1.3-1.2-1.8-2.1c-0.5-0.9-0.7-1.9-0.7-3.2s0.2-2.3,0.7-3.2c0.5-0.9,1.1-1.5,1.8-2c0.8-0.5,1.6-0.7,2.6-0.7
		C302.1,18.1,302.9,18.3,303.6,18.7 M300.6,21.9c-0.5,0.5-0.7,1.2-0.7,2.1c0,0.9,0.2,1.5,0.7,2.1c0.5,0.5,1.1,0.8,1.8,0.8
		c0.8,0,1.3-0.3,1.8-0.8c0.5-0.5,0.7-1.2,0.7-2s-0.2-1.5-0.7-2.1c-0.5-0.5-1.1-0.8-1.8-0.8C301.6,21.3,301.1,21.5,300.6,21.9"/>
	<rect x="311" y="14.4" class="st1" width="3.6" height="15.4"/>
	<path class="st1" d="M323.6,18.7c0.7,0.4,1.2,1,1.4,1.6v-2.1h3.6v11.6h-3.6v-2.1c-0.3,0.7-0.8,1.2-1.4,1.6
		c-0.7,0.4-1.4,0.6-2.3,0.6c-1,0-1.8-0.2-2.6-0.7c-0.8-0.5-1.3-1.2-1.8-2.1c-0.5-0.9-0.7-1.9-0.7-3.2s0.2-2.3,0.7-3.2
		c0.5-0.9,1.1-1.5,1.8-2c0.8-0.5,1.6-0.7,2.6-0.7C322.2,18.1,323,18.3,323.6,18.7 M320.7,21.9c-0.5,0.5-0.7,1.2-0.7,2.1
		c0,0.9,0.2,1.5,0.7,2.1c0.5,0.5,1.1,0.8,1.8,0.8c0.8,0,1.3-0.3,1.8-0.8c0.5-0.5,0.7-1.2,0.7-2s-0.2-1.5-0.7-2.1
		c-0.5-0.5-1.1-0.8-1.8-0.8C321.7,21.3,321.1,21.5,320.7,21.9"/>
	<polygon class="st1" points="338,29.8 334.6,24.9 334.6,29.8 331,29.8 331,14.4 334.6,14.4 334.6,22.9 338,18.3 342.3,18.3 
		337.6,24 342.4,29.8 	"/>
	<polygon class="st1" points="350.5,15.1 354.1,26.3 357.7,15.1 361.5,15.1 356.4,29.8 351.8,29.8 346.7,15.1 	"/>
	<path class="st1" d="M363.1,13.7c0.4-0.4,0.9-0.6,1.5-0.6c0.7,0,1.2,0.2,1.5,0.6c0.4,0.4,0.6,0.8,0.6,1.3c0,0.5-0.2,1-0.6,1.3
		c-0.4,0.4-0.9,0.6-1.5,0.6c-0.7,0-1.2-0.2-1.5-0.6c-0.4-0.4-0.6-0.8-0.6-1.3C362.5,14.4,362.7,14,363.1,13.7 M366.4,29.8h-3.6V18.3
		h3.6V29.8z"/>
	<polygon class="st1" points="375.9,29.8 372.4,24.9 372.4,29.8 368.8,29.8 368.8,14.4 372.4,14.4 372.4,22.9 375.9,18.3 
		380.1,18.3 375.4,24 380.2,29.8 	"/>
	<path class="st1" d="M388.1,18.7c0.7,0.4,1.2,1,1.4,1.6v-2.1h3.6v11.6h-3.6v-2.1c-0.3,0.7-0.8,1.2-1.4,1.6
		c-0.7,0.4-1.4,0.6-2.3,0.6c-1,0-1.8-0.2-2.6-0.7c-0.8-0.5-1.3-1.2-1.8-2.1c-0.5-0.9-0.7-1.9-0.7-3.2s0.2-2.3,0.7-3.2
		c0.5-0.9,1.1-1.5,1.8-2c0.8-0.5,1.6-0.7,2.6-0.7C386.7,18.1,387.5,18.3,388.1,18.7 M385.2,21.9c-0.5,0.5-0.7,1.2-0.7,2.1
		c0,0.9,0.2,1.5,0.7,2.1c0.5,0.5,1.1,0.8,1.8,0.8c0.8,0,1.3-0.3,1.8-0.8c0.5-0.5,0.7-1.2,0.7-2s-0.2-1.5-0.7-2.1
		c-0.5-0.5-1.1-0.8-1.8-0.8C386.2,21.3,385.6,21.5,385.2,21.9"/>
	<path class="st1" d="M403.2,19.2c0.9,0.8,1.4,1.7,1.6,2.9h-3.4c-0.1-0.5-0.3-0.9-0.7-1.2c-0.4-0.3-0.8-0.4-1.2-0.4
		c-0.4,0-0.7,0.1-1,0.3c-0.2,0.2-0.3,0.4-0.3,0.8s0.2,0.7,0.6,0.8c0.4,0.2,1,0.4,1.8,0.6c0.9,0.2,1.6,0.4,2.2,0.7
		c0.6,0.2,1.1,0.6,1.4,1.1s0.6,1.2,0.6,1.9c0,0.7-0.2,1.2-0.6,1.7c-0.4,0.5-0.9,1-1.5,1.2c-0.7,0.3-1.4,0.5-2.4,0.5
		c-1.5,0-2.8-0.4-3.7-1.1s-1.5-1.7-1.7-3h3.5c0.1,0.5,0.3,0.9,0.7,1.2c0.4,0.3,0.9,0.4,1.4,0.4c0.4,0,0.7-0.1,1-0.3
		c0.2-0.2,0.3-0.5,0.3-0.8c0-0.4-0.2-0.7-0.6-0.9c-0.4-0.2-1-0.4-1.8-0.6c-0.9-0.2-1.5-0.4-2.1-0.6c-0.6-0.2-1.1-0.6-1.4-1
		c-0.4-0.5-0.6-1.1-0.6-1.9c0-1.1,0.4-1.9,1.2-2.5c0.8-0.7,1.9-1,3.4-1C401.2,18.1,402.4,18.5,403.2,19.2"/>
	<polygon class="st1" points="427.7,15.3 427.7,29.8 424.1,29.8 424.1,20.7 421,29.8 417.9,29.8 414.7,20.7 414.7,29.8 411.2,29.8 
		411.2,15.3 415.5,15.3 419.5,25.4 423.4,15.3 	"/>
	<path class="st1" d="M436.8,18.7c0.7,0.4,1.2,1,1.4,1.6v-2.1h3.6v11.6h-3.6v-2.1c-0.3,0.7-0.8,1.2-1.4,1.6
		c-0.7,0.4-1.4,0.6-2.3,0.6c-1,0-1.8-0.2-2.6-0.7s-1.3-1.2-1.8-2.1c-0.5-0.9-0.7-1.9-0.7-3.2s0.2-2.3,0.7-3.2c0.5-0.9,1.1-1.5,1.8-2
		c0.8-0.5,1.6-0.7,2.6-0.7C435.5,18.1,436.2,18.3,436.8,18.7 M433.8,21.9c-0.5,0.5-0.7,1.2-0.7,2.1c0,0.9,0.2,1.5,0.7,2.1
		c0.5,0.5,1.1,0.8,1.8,0.8c0.8,0,1.3-0.3,1.8-0.8c0.5-0.5,0.7-1.2,0.7-2s-0.2-1.5-0.7-2.1c-0.5-0.5-1.1-0.8-1.8-0.8
		C435,21.3,434.3,21.5,433.8,21.9"/>
	<path class="st1" d="M454.8,19.4c0.8,0.9,1.2,2.1,1.2,3.6v6.7h-3.6v-6.3c0-0.8-0.2-1.3-0.6-1.8c-0.4-0.5-1-0.7-1.6-0.7
		c-0.8,0-1.2,0.2-1.7,0.7c-0.4,0.5-0.7,1.2-0.7,1.9v6.1h-3.6V18.3h3.6v2.1c0.3-0.7,0.9-1.2,1.4-1.6c0.7-0.4,1.4-0.6,2.3-0.6
		C452.9,18.1,454,18.6,454.8,19.4"/>
	<path class="st1" d="M464.9,18.7c0.7,0.4,1.1,1,1.3,1.6v-5.9h3.6v15.4h-3.6v-2.1c-0.3,0.7-0.8,1.2-1.3,1.6
		c-0.7,0.4-1.4,0.6-2.3,0.6c-1,0-1.8-0.2-2.6-0.7c-0.8-0.5-1.3-1.2-1.8-2.1c-0.5-0.9-0.7-1.9-0.7-3.2s0.2-2.3,0.7-3.2
		c0.5-0.9,1.1-1.5,1.8-2c0.8-0.5,1.6-0.7,2.6-0.7C463.6,18.1,464.4,18.3,464.9,18.7 M462,21.9c-0.5,0.5-0.7,1.2-0.7,2.1
		c0,0.9,0.2,1.5,0.7,2.1c0.5,0.5,1.1,0.8,1.8,0.8c0.8,0,1.3-0.3,1.8-0.8c0.5-0.5,0.7-1.2,0.7-2s-0.2-1.5-0.7-2.1
		c-0.5-0.5-1.1-0.8-1.8-0.8C463,21.3,462.4,21.5,462,21.9"/>
	<path class="st1" d="M479.1,18.7c0.7,0.4,1.2,1,1.4,1.6v-2.1h3.6v11.6h-3.6v-2.1c-0.3,0.7-0.8,1.2-1.4,1.6
		c-0.7,0.4-1.4,0.6-2.3,0.6c-1,0-1.8-0.2-2.6-0.7s-1.3-1.2-1.8-2.1c-0.5-0.9-0.7-1.9-0.7-3.2s0.2-2.3,0.7-3.2c0.5-0.9,1.1-1.5,1.8-2
		c0.8-0.5,1.6-0.7,2.6-0.7C477.6,18.1,478.4,18.3,479.1,18.7 M476.1,21.9c-0.5,0.5-0.7,1.2-0.7,2.1c0,0.9,0.2,1.5,0.7,2.1
		c0.5,0.5,1.1,0.8,1.8,0.8c0.8,0,1.3-0.3,1.8-0.8c0.5-0.5,0.7-1.2,0.7-2s-0.2-1.5-0.7-2.1c-0.5-0.5-1.1-0.8-1.8-0.8
		C477.1,21.3,476.6,21.5,476.1,21.9"/>
	<rect x="486.4" y="14.4" class="st1" width="3.6" height="15.4"/>
</g>
</svg>
