<?xml version="1.0" encoding="utf-8"?>
<!-- Generator: Adobe Illustrator 27.0.0, SVG Export Plug-In . SVG Version: 6.00 Build 0)  -->
<svg version="1.1" id="Layer_1" xmlns="http://www.w3.org/2000/svg" xmlns:xlink="http://www.w3.org/1999/xlink" x="0px" y="0px"
	 viewBox="0 0 745.88 375.06" style="enable-background:new 0 0 745.88 375.06;" xml:space="preserve">
<style type="text/css">
	.st0{fill:#0088CE;}
	.st1{fill:url(#SVGID_1_);stroke:#000000;stroke-width:5;stroke-miterlimit:10;}
	.st2{fill:url(#SVGID_00000171677524352650385430000013272793661425138109_);}
	.st3{fill:#295796;}
	.st4{fill:#E2B055;}
	.st5{fill:#511F16;}
	.st6{fill:#2F1311;}
	.st7{fill:#FFFFFF;}
	.st8{fill:none;stroke:#285796;stroke-width:2;stroke-miterlimit:10;}
	.st9{fill:url(#SVGID_00000120519670177273957430000004324368853989175215_);stroke:#000000;stroke-width:5;stroke-miterlimit:10;}
	.st10{fill:url(#SVGID_00000043415486647674185680000012126203735599408304_);}
	.st11{fill:#DCC0AF;}
	.st12{fill:#BC6951;}
	.st13{fill:none;stroke:#9C7169;stroke-width:1.9556;stroke-miterlimit:10;}
	.st14{fill:url(#SVGID_00000173852897410090522730000012186207897174646182_);}
	.st15{fill:url(#SVGID_00000018195822343582226430000000669006898015966336_);}
	.st16{fill:url(#SVGID_00000163759858283912709990000011078142196373324434_);}
	.st17{fill:url(#SVGID_00000093158537132535563690000017530133066045709210_);}
	.st18{fill:url(#SVGID_00000054250355631467548430000013321624873072921730_);}
	.st19{fill:url(#SVGID_00000183227505536352665000000007682805540669599643_);}
	.st20{fill:url(#SVGID_00000016759596771171909960000009845134864256095115_);}
	.st21{fill:url(#SVGID_00000176739064919900280550000009037971109110152117_);}
	.st22{fill:url(#SVGID_00000165231586670521827150000002757368348334145438_);}
	.st23{fill:url(#SVGID_00000044146033043852891000000007494357616845231779_);}
	.st24{fill:url(#SVGID_00000058576401079917716700000000523660945891649963_);}
	.st25{fill:#235999;}
	.st26{fill:url(#SVGID_00000038381452613470065100000006233271206180591535_);}
	.st27{fill:url(#SVGID_00000019678907961652290590000008514342098311393671_);}
	.st28{fill:url(#SVGID_00000064346764448303085640000015786564936823604647_);}
	.st29{fill:url(#SVGID_00000163041456587551300040000001407180405523464370_);}
	.st30{fill:url(#SVGID_00000160185099556999685150000003968574228972338874_);}
	.st31{fill:url(#SVGID_00000160896484056717742500000010818742465392816570_);}
	.st32{fill:url(#SVGID_00000158726853553120539250000016434749809451775651_);}
	.st33{fill:url(#SVGID_00000047059639291746741860000010776919288556943028_);}
	.st34{fill:url(#SVGID_00000172402943518285758660000002647883712415105463_);}
	.st35{fill:url(#SVGID_00000108275528124443525700000015161839786025937547_);}
	.st36{fill:url(#SVGID_00000172434718631775746990000010417103685274613389_);}
	.st37{fill:url(#SVGID_00000033336790855235349550000002020534301928766647_);}
	.st38{fill:url(#SVGID_00000070082537548378995810000015292399680910409871_);}
	.st39{fill:url(#SVGID_00000160907078180868886210000004103382802688369805_);}
	.st40{fill:url(#SVGID_00000140725093785406386380000008610490434555885463_);}
	.st41{fill:url(#SVGID_00000042710642875728572850000008500694378038603173_);}
	.st42{fill:url(#SVGID_00000078046546981197756310000007026012106128573630_);}
	.st43{fill:url(#SVGID_00000028311576747844550790000000419271510893230725_);}
	.st44{fill:url(#SVGID_00000129198783507701448070000012853619558451488679_);}
	.st45{fill:url(#SVGID_00000087373593700496080600000004143578981565998231_);}
	
		.st46{fill:url(#SVGID_00000049925950103732434660000006813814005942244791_);stroke:#000000;stroke-width:2.9587;stroke-miterlimit:10;}
	.st47{fill:url(#SVGID_00000136373384097596742950000015235368663505161900_);}
	.st48{fill:url(#SVGID_00000104696844242516249810000007945767370108772287_);}
	.st49{fill:url(#SVGID_00000112597928240578617450000003571731812647185560_);}
	.st50{fill:url(#SVGID_00000178171760172727326080000002245448333029005204_);}
	.st51{fill:url(#SVGID_00000114071094752047844330000016114123896150449560_);}
	.st52{fill:url(#SVGID_00000102521531676254125080000014016696967627128193_);}
	.st53{fill:url(#SVGID_00000040561126831153211650000004233733570528666784_);}
	.st54{fill:url(#SVGID_00000036959984537074860010000011767162116037657521_);}
	.st55{fill:url(#SVGID_00000165216244002531602910000014140632413981340088_);}
	.st56{fill:url(#SVGID_00000145780071317625246240000015681058986295767430_);}
	.st57{fill:url(#SVGID_00000084520865406192346430000008619193611202297252_);}
	.st58{fill:url(#SVGID_00000067212128504377717590000006704718995763836828_);}
	.st59{fill:url(#SVGID_00000146473408692918169440000004290381049618047151_);}
	.st60{fill:url(#SVGID_00000057852168838430196250000008283253992043847058_);}
	.st61{fill:url(#SVGID_00000112590717277421706750000016806653375054097082_);}
	.st62{fill:url(#SVGID_00000057134888075270547480000016121395457614653345_);}
	.st63{fill:url(#SVGID_00000043429683043370972180000004917011362895920291_);}
	.st64{fill:url(#SVGID_00000121255623106461814220000000711385417571820216_);}
	.st65{fill:url(#SVGID_00000080917418988856470840000017484578632952565931_);}
	.st66{fill:url(#SVGID_00000165214162630434716870000013449345460925000094_);}
</style>
<g>
	<rect x="0" class="st0" width="745.88" height="375.06"/>
	<g>
		<g>
			<path class="st7" d="M35.98,216.64c-1.95,0-3.56,0.43-4.83,1.3c-1.27,0.87-1.91,2.04-1.91,3.53c0,1.03,0.39,2.13,1.18,3.29h5.08
				l1.95,2.68l-0.69,1.42h-6.7l2.44,1.83v20.96l-1.58,0.69l-3.9-2.19v-21.29h-3.29l-1.91-2.72l0.69-1.38H27
				c-1.71-1.76-2.56-3.66-2.56-5.69c0-2.19,0.86-3.97,2.58-5.32c1.72-1.35,3.91-2.03,6.56-2.03c2.57,0,5.56,0.79,8.96,2.36
				c3.4,1.57,7.05,4.18,10.95,7.84l-1.75,2.15C45.51,219.12,40.26,216.64,35.98,216.64z"/>
			<path class="st7" d="M60.64,228.87h-8.49l2.44,1.83v7.31h-0.04l0.04,0.04h-6.95c-1.76,0-3.1,0.43-4.02,1.3
				c-0.92,0.87-1.38,1.9-1.38,3.09c0,1.49,0.64,2.74,1.91,3.74c0.87,0.33,1.73,0.49,2.6,0.49c1.38,0,2.68-0.33,3.9-0.97l-0.57-3.53
				l3.66-1.42l4.55,5.57c-0.57,1.19-1.53,2.29-2.88,3.29l3.9,7.23l-5.4,2.15l-1.75-7.72c-0.87,0.22-1.67,0.33-2.4,0.33
				c-1.84,0-3.76-0.5-5.75-1.5c-1.99-1-3.66-2.35-5-4.04c-1.34-1.69-2.01-3.53-2.01-5.5c0-2.27,0.83-4.12,2.48-5.52
				c1.65-1.41,3.87-2.11,6.66-2.11h3.21v-4.02H35.49l-1.91-2.72l0.69-1.38h25.1l1.95,2.68L60.64,228.87z"/>
			<path class="st7" d="M98.37,228.87h-6.91l2.44,1.83v20.96l-1.58,0.69l-3.9-2.19v-7.64h-7.15v3.62l-2.32,1.18
				c-1.38-0.57-2.85-1.63-4.41-3.19c-1.56-1.56-2.58-3.04-3.07-4.45l1.3-1.95h3.13l-0.37-8.86h-5.4l-1.91-2.72l0.69-1.38h28.23
				l1.91,2.68L98.37,228.87z M88.42,228.87h-9.83l2.44,1.83l0.08,7.03h7.31V228.87z"/>
			<path class="st7" d="M121.81,228.87h-6.91l2.44,1.83v5.36h-10.07c-2.33,0-3.49,0.66-3.49,1.99c0,0.49,0.18,0.95,0.53,1.38
				c1.35-0.68,2.94-1.02,4.75-1.02c2.74,0,5.06,0.73,6.99,2.19c1.92,1.46,2.88,3.29,2.88,5.48c0,2.41-1.22,4.35-3.66,5.81
				l-4.14-3.45c0.97-0.68,1.8-1.46,2.48-2.34c0.68-0.88,1.03-1.66,1.06-2.34c-0.92-0.65-2.07-0.97-3.45-0.97
				c-1.54,0-2.88,0.41-4,1.22c-1.12,0.81-1.69,1.91-1.69,3.29c0,1.95,1.12,3.53,3.35,4.73c2.23,1.2,5.19,2.21,8.88,3.03l-1.14,3.41
				c-5.09-1-9.13-2.62-12.13-4.85c-2.99-2.23-4.49-4.8-4.49-7.7c0-2,0.69-3.67,2.07-5c-1.9-1.6-2.84-3.28-2.84-5.04
				c0-1.27,0.53-2.36,1.6-3.27c1.07-0.91,2.74-1.36,5.02-1.36h6.54v-2.4H97.11l-1.91-2.72l0.69-1.38h24.66l1.95,2.68L121.81,228.87z
				"/>
			<path class="st7" d="M133.59,228.87h-6.91l2.44,1.83v20.96l-1.58,0.69l-3.9-2.19v-21.29h-3.09l-1.91-2.72l0.69-1.38h13l1.95,2.68
				L133.59,228.87z"/>
			<path class="st7" d="M151.83,228.87h-8.49l2.44,1.79v5.36c0,1.25-0.37,2.36-1.1,3.33c-0.73,0.97-1.83,2-3.29,3.09l8.94,6.05v1.42
				l-3.62,3.17l-13.28-13.2l1.22-3.25h5.4l0.12-0.69v-7.07h-7.84l-1.91-2.72l0.69-1.38h19.46l1.95,2.68L151.83,228.87z"/>
			<path class="st7" d="M163.61,228.87h-6.91l2.44,1.83v20.96l-1.58,0.69l-3.9-2.19v-21.29h-3.09l-1.91-2.72l0.69-1.38h13l1.95,2.68
				L163.61,228.87z"/>
			<path class="st7" d="M188.31,228.87h-6.82l2.27,1.71v5c0,5.17-2.79,8.45-8.37,9.83l-2.19,0.69c-1.76,0.65-2.64,1.75-2.64,3.29
				c0,0.89,0.34,1.71,1.02,2.44c0.76,0.3,1.58,0.45,2.48,0.45c1.54,0,3.14-0.38,4.79-1.14c1.65-0.76,2.99-1.75,4.02-2.97l3.25,4.47
				c-2.46,2.9-5.52,4.35-9.18,4.35c-2.98,0-5.65-0.93-8.02-2.78c-2.37-1.86-3.55-4-3.55-6.44c0-2.36,1.08-4.21,3.25-5.56
				c-2.71-2.27-4.06-4.81-4.06-7.6v-5.73h-2.23l-1.91-2.72l0.69-1.38h26l1.91,2.68L188.31,228.87z M173.24,240.85
				c1.33,0,2.45-0.38,3.37-1.14l-6.46-8.81v8.65C170.78,240.42,171.8,240.85,173.24,240.85z M178.44,228.87h-6.74l6.38,8.61
				l0.33-1.58L178.44,228.87z"/>
			<path class="st7" d="M181.53,266.04l-5.04-5.28l-4.35,5.2l-3.66-2.96l6.38-7.07h2.15l7.15,7.56L181.53,266.04z"/>
			<path class="st7" d="M222.96,228.87h-6.42l2.44,1.83v5.85c0,2.57-0.39,4.5-1.18,5.79c-0.79,1.29-2.32,2.39-4.59,3.31l-2.52-3.57
				l2.84-1.95v-11.25h-10.2l2.44,1.83v12.72l9.02,4.31c2.9,1.41,4.93,2.65,6.09,3.74c1.16,1.08,1.75,2.3,1.75,3.66
				c0,1.54-0.56,2.9-1.67,4.06l-5.04-2.36c0.73-0.97,1.1-1.8,1.1-2.48c0-0.87-0.66-1.65-1.99-2.36l-8.33-4.1
				c-4.31-2-6.46-5.19-6.46-9.55v-9.46h-2.44l-1.91-2.72l0.69-1.38h25.1l1.95,2.68L222.96,228.87z"/>
			<path class="st7" d="M239.53,210.87c5.31,0,11.67,0.86,19.09,2.58c7.42,1.72,15.46,4.35,24.13,7.9l-1.42,2.44
				c-7.2-2.55-14.18-4.56-20.94-6.03c-6.76-1.48-12.72-2.21-17.89-2.21c-4.58,0-8.17,0.59-10.79,1.77
				c-2.61,1.18-3.92,2.86-3.92,5.06c0,0.79,0.22,1.58,0.65,2.4h5.04l1.95,2.68l-0.69,1.42h-6.7l2.44,1.83v20.96l-1.58,0.69
				l-3.9-2.19v-21.29h-3.29l-1.91-2.72l0.69-1.38h4.59c-1.46-1.71-2.19-3.47-2.19-5.28c0-2.71,1.47-4.82,4.41-6.34
				C230.23,211.63,234.31,210.87,239.53,210.87z"/>
			<path class="st7" d="M256.72,233.34c1.22,0,2.36,0.38,3.43,1.14c1.07,0.76,1.9,1.76,2.5,3.01l-2.44,2.44l-0.37-0.41
				c-0.51-0.79-1.19-1.18-2.03-1.18c-1.41,0-3.25,1.35-5.52,4.06v9.26l-1.58,0.69l-3.9-2.19v-3.74c-0.84,0.35-1.69,0.53-2.56,0.53
				c-2.41,0-4.67-0.87-6.76-2.62c-2.1-1.75-3.15-3.73-3.15-5.95c0-1.79,0.65-3.32,1.95-4.59c1.3-1.27,2.9-1.91,4.79-1.91
				c0.62,0,1.26,0.08,1.91,0.24l3.82,1.95v-5.2h-13.32l-1.91-2.72l0.69-1.38h26.44l1.91,2.68l-0.69,1.42h-10.07l2.44,1.83v4.51
				C253.73,233.96,255.2,233.34,256.72,233.34z M240.43,242.68c0.32,0.11,0.72,0.16,1.18,0.16c0.89,0,1.81-0.25,2.76-0.75
				c0.95-0.5,1.76-1.2,2.44-2.09v-3.13c-1.06-0.46-2.03-0.69-2.93-0.69c-1.27,0-2.3,0.39-3.09,1.18c-0.79,0.79-1.18,1.73-1.18,2.84
				C239.62,241.07,239.89,241.89,240.43,242.68z"/>
			<path class="st7" d="M291.21,228.87h-6.91l2.44,1.83v20.96l-1.58,0.69l-3.9-2.19v-6.62c-0.41,0.11-0.89,0.16-1.46,0.16
				c-0.81,0-1.67-0.14-2.56-0.41c0.3,0.81,0.45,1.6,0.45,2.36c0,1.98-0.85,3.62-2.54,4.94c-1.69,1.31-3.88,2.06-6.56,2.25l5.04,4.43
				l-4.31,3.17l-5.12-8c-1.79-0.49-3.51-1.35-5.16-2.6l1.34-5.16l2.56,0.04l2.56,3.9c2.06,0.11,3.87-0.35,5.44-1.38
				c1.57-1.03,2.36-2.25,2.36-3.66l-0.04-0.53l-6.62,1.79c-2.57-0.68-4.72-1.83-6.44-3.47c-1.72-1.64-2.58-3.3-2.58-4.98
				c0-1.41,0.6-2.59,1.81-3.53c1.2-0.95,2.93-1.42,5.18-1.42h5.65v-2.56h-14.3l-1.91-2.72l0.69-1.38h35.22l1.95,2.68L291.21,228.87z
				 M281.25,228.87h-8.49l2.44,1.83v5.28h-9.67c-0.97,0-1.77,0.2-2.38,0.61c-0.61,0.41-0.91,0.92-0.91,1.54
				c0,0.6,0.35,1.22,1.06,1.87l8.25-1.83c2.19,0.84,4.13,1.26,5.81,1.26c1.62,0,2.92-0.37,3.9-1.1V228.87z"/>
			<path class="st7" d="M341.41,228.87h-6.91l2.44,1.83v20.96l-1.58,0.69l-3.9-2.19v-3.62c-1.14,0.65-2.4,0.98-3.78,0.98
				c-2.14,0-4.25-0.74-6.34-2.21c-2.09-1.48-3.81-3.47-5.16-5.99c-0.51-0.65-1.15-0.97-1.91-0.97c-1.41,0-3.25,1.35-5.52,4.06v9.26
				l-1.58,0.69l-3.9-2.19v-3.74c-0.84,0.35-1.69,0.53-2.56,0.53c-2.41,0-4.67-0.87-6.76-2.62c-2.1-1.75-3.15-3.73-3.15-5.95
				c0-1.79,0.65-3.32,1.95-4.59c1.3-1.27,2.9-1.91,4.79-1.91c0.62,0,1.26,0.08,1.91,0.24l3.82,1.95v-5.2h-13.32l-1.91-2.72
				l0.69-1.38h51.47l1.91,2.68L341.41,228.87z M296.89,242.68c0.32,0.11,0.72,0.16,1.18,0.16c0.89,0,1.81-0.25,2.76-0.75
				c0.95-0.5,1.76-1.2,2.44-2.09v-3.13c-1.06-0.46-2.03-0.69-2.92-0.69c-1.27,0-2.3,0.39-3.09,1.18c-0.79,0.79-1.18,1.73-1.18,2.84
				C296.08,241.07,296.35,241.89,296.89,242.68z M313.18,233.34c1.73,0,3.25,0.71,4.55,2.11c3.06-0.51,4.59-1.49,4.59-2.92
				c0-1.22-0.95-2.44-2.84-3.66h-13.16l2.44,1.83v4.51C310.19,233.96,311.67,233.34,313.18,233.34z M331.46,228.87h-7.72
				c2.44,1.81,3.66,3.75,3.66,5.81c0,2.84-1.98,4.67-5.93,5.48c0.38,1.19,0.91,2.21,1.58,3.05l1.34,0.12c1.38,0,2.73-0.35,4.06-1.06
				c1.33-0.7,2.33-1.69,3.01-2.97V228.87z"/>
			<path class="st7" d="M328.21,252.96c1.33-2.25,3.16-3.37,5.48-3.37c1.84,0,3.48,0.76,4.92,2.27c1.44,1.52,2.15,3.24,2.15,5.16
				c0,1.76-0.64,3.22-1.93,4.37c-1.29,1.15-2.86,1.73-4.73,1.73c-4.17,0-8.8-3.09-13.89-9.26l2.32-2.15
				c2.27,2.46,4.15,4.26,5.63,5.38c1.48,1.12,2.96,1.69,4.45,1.69c1.22,0,2.2-0.35,2.95-1.04c0.75-0.69,1.12-1.5,1.12-2.42
				c0-1.03-0.46-1.84-1.38-2.44l-3.66,3.53L328.21,252.96z"/>
			<path class="st7" d="M364.57,228.87h-8.61l2.44,1.83v8.21h-0.04l0.04,0.04h-6.62c-1.65,0-2.91,0.37-3.78,1.12
				c-0.87,0.75-1.3,1.69-1.3,2.82c0,1.22,0.53,2.33,1.58,3.33c0.87,0.35,1.85,0.53,2.97,0.53c1.49,0,2.97-0.32,4.43-0.96
				c1.46-0.64,2.67-1.51,3.62-2.62l3.29,4.43c-1.11,1.41-2.42,2.44-3.94,3.11c-1.52,0.66-3.01,1-4.47,1c-1.87,0-3.79-0.48-5.77-1.44
				c-1.98-0.96-3.62-2.27-4.91-3.94c-1.3-1.67-1.95-3.49-1.95-5.46c0-2.08,0.76-3.8,2.27-5.14c1.52-1.34,3.79-2.01,6.82-2.01h2.44
				v-4.83h-12.92l-1.91-2.72l0.69-1.38h24.37l1.95,2.68L364.57,228.87z"/>
			<path class="st7" d="M382.81,228.87h-8.49l2.44,1.79v5.36c0,1.25-0.37,2.36-1.1,3.33c-0.73,0.97-1.83,2-3.29,3.09l8.94,6.05v1.42
				l-3.62,3.17l-13.28-13.2l1.22-3.25h5.4l0.12-0.69v-7.07h-7.84l-1.91-2.72l0.69-1.38h19.46l1.95,2.68L382.81,228.87z"/>
			<path class="st7" d="M426.88,228.87h-6.91l2.44,1.83v20.96l-1.58,0.69l-3.9-2.19v-8.37c-0.43,0.16-0.92,0.24-1.46,0.24
				c-0.84,0-1.77-0.22-2.8-0.65c0.27,0.79,0.41,1.6,0.41,2.44c0,1.98-0.67,3.61-2.01,4.89c-1.34,1.29-3.08,1.93-5.22,1.93
				c-2.17,0-4.36-0.8-6.58-2.4c-2.22-1.6-4.29-4.47-6.22-8.61l2.76-1.75c2.49,5.39,5.34,8.08,8.53,8.08c1.35,0,2.41-0.39,3.17-1.16
				c0.76-0.77,1.14-1.66,1.14-2.66c0-0.73-0.2-1.42-0.61-2.07c-0.41-0.65-1-1.12-1.79-1.42l-4.14,2.4l-3.05-4.75
				c1.35-1.19,2.99-1.84,4.92-1.95c2.22-1.27,3.33-2.76,3.33-4.47c0-0.7-0.23-1.23-0.69-1.58c-1.03-0.11-2.23,0.17-3.6,0.83
				c-1.37,0.66-2.65,1.58-3.84,2.74l-2.97-3.94c2.41-2.41,4.93-3.62,7.56-3.62c2,0,3.8,0.75,5.38,2.23
				c1.58,1.49,2.38,3.11,2.38,4.88c0,1.81-0.81,3.45-2.44,4.92c1.25,1,2.64,1.5,4.18,1.5c1.49,0,2.71-0.42,3.66-1.26v-7.72h-3.33
				l-1.95-2.72l0.69-1.38h13.32l1.91,2.68L426.88,228.87z"/>
			<path class="st7" d="M426.52,216.44c-0.41,2.09-1.3,3.76-2.68,5.02c-1.38,1.26-3.05,1.89-5,1.89c-1.9,0-3.75-0.62-5.57-1.85
				c-1.81-1.23-3.26-2.97-4.35-5.22l2.36-2.03c1.6,3.06,3.63,4.59,6.09,4.59c1.16,0,2.19-0.39,3.07-1.16
				c0.88-0.77,1.47-1.9,1.77-3.39L426.52,216.44z"/>
			<path class="st7" d="M463.61,228.87h-7.6l2.44,1.83v5.36h-9.42c-2.33,0-3.49,0.68-3.49,2.03c0,0.73,0.38,1.4,1.14,1.99l7.27-1.87
				c2.08,0.65,3.72,1.71,4.91,3.19c1.19,1.48,1.79,3.05,1.79,4.73c0,1.98-0.77,3.63-2.3,4.96c-1.53,1.33-3.47,1.99-5.83,1.99
				c-5.04,0-9.78-3.34-14.22-10.03l2.36-1.91c3.01,4.74,6.4,7.11,10.2,7.11c1.54,0,2.85-0.41,3.92-1.24c1.07-0.83,1.6-1.81,1.6-2.95
				l-0.12-0.89l-6.17,1.99c-1.95-0.51-3.69-1.33-5.22-2.44c-1.53-1.11-2.63-2.33-3.31-3.66h-7.19v4.43l-2.44,1.14
				c-1.3-0.84-2.51-2.04-3.64-3.62c-1.12-1.57-1.88-3.09-2.25-4.55l1.58-2.15h13.73c1-2,3.3-3.01,6.91-3.01h5.24v-2.44h-27.87
				l-1.91-2.72l0.69-1.38h37.94l1.95,2.68L463.61,228.87z"/>
			<path class="st7" d="M497.52,228.87h-8.61l2.44,1.83v8.21h-0.04l0.04,0.04h-6.62c-1.65,0-2.91,0.37-3.78,1.12
				c-0.87,0.75-1.3,1.69-1.3,2.82c0,1.22,0.53,2.33,1.58,3.33c0.87,0.35,1.85,0.53,2.97,0.53c1.49,0,2.97-0.32,4.43-0.96
				c1.46-0.64,2.67-1.51,3.62-2.62l3.29,4.43c-1.11,1.41-2.42,2.44-3.94,3.11c-1.52,0.66-3.01,1-4.47,1c-1.87,0-3.79-0.48-5.77-1.44
				c-1.98-0.96-3.62-2.27-4.91-3.94c-1.3-1.67-1.95-3.49-1.95-5.46c0-2.08,0.76-3.8,2.27-5.14c1.52-1.34,3.79-2.01,6.82-2.01h2.44
				v-4.83h-12.92l-1.91-2.72l0.69-1.38h24.37l1.95,2.68L497.52,228.87z"/>
			<path class="st7" d="M491.88,260.76l-5.04-5.28l-4.35,5.2l-3.66-2.96l6.38-7.07h2.15l7.15,7.56L491.88,260.76z"/>
			<path class="st7" d="M506.26,241.54l-1.14,0.89l8.94,6.05v1.42l-3.62,3.17l-13.28-13.2l1.22-3.25h5.4l0.12-0.69v-7.07h-7.84
				l-1.91-2.72l0.69-1.38h19.66l1.95,2.68l-0.69,1.42h-8.69l2.44,1.79v5.36l-0.12,1.1h9.55l0.41,4.43H506.26z"/>
			<path class="st7" d="M538.96,228.87h-8.61l2.44,1.83v8.21h-0.04l0.04,0.04h-6.62c-1.65,0-2.91,0.37-3.78,1.12
				c-0.87,0.75-1.3,1.69-1.3,2.82c0,1.22,0.53,2.33,1.58,3.33c0.87,0.35,1.85,0.53,2.97,0.53c1.49,0,2.97-0.32,4.43-0.96
				c1.46-0.64,2.67-1.51,3.62-2.62l3.29,4.43c-1.11,1.41-2.42,2.44-3.94,3.11c-1.52,0.66-3.01,1-4.47,1c-1.87,0-3.79-0.48-5.77-1.44
				c-1.98-0.96-3.62-2.27-4.91-3.94c-1.3-1.67-1.95-3.49-1.95-5.46c0-2.08,0.76-3.8,2.27-5.14c1.52-1.34,3.79-2.01,6.82-2.01h2.44
				v-4.83h-12.92l-1.91-2.72l0.69-1.38h24.37l1.95,2.68L538.96,228.87z"/>
			<path class="st7" d="M550.74,228.87h-6.91l2.44,1.83v20.96l-1.58,0.69l-3.9-2.19v-21.29h-3.09l-1.91-2.72l0.69-1.38h4.47
				c-0.89-2.63-1.9-4.7-3.03-6.24c-1.12-1.53-2.5-2.3-4.12-2.3c-1.08,0-1.97,0.33-2.66,1c-0.69,0.66-1.04,1.47-1.04,2.42
				c0,0.97,0.41,2.06,1.22,3.25l-2.07,1.18c-2.46-2-3.7-4.25-3.7-6.74c0-1.79,0.62-3.26,1.87-4.41c1.25-1.15,2.84-1.73,4.79-1.73
				c2.95,0,5.46,1.26,7.54,3.78c2.07,2.52,3.69,5.78,4.85,9.79h4.87l1.95,2.68L550.74,228.87z"/>
			<path class="st7" d="M593.39,228.87h-16.78l2.44,1.83V235c1.49-1.16,3.03-1.75,4.63-1.75c2,0,3.76,0.82,5.26,2.46
				c1.5,1.64,2.25,3.53,2.25,5.67c0,3.47-2.15,6.65-6.46,9.55l-3.86-4.1c1.92-1.41,3.36-2.63,4.33-3.68
				c0.96-1.04,1.44-2.05,1.44-3.03c0-1.27-0.64-1.91-1.91-1.91c-1.62,0-3.52,1.29-5.69,3.86v9.59l-1.58,0.69l-3.9-2.19v-3.74
				c-0.84,0.35-1.69,0.53-2.56,0.53c-2.44,0-4.69-0.85-6.74-2.54c-2.06-1.69-3.09-3.68-3.09-5.95c0-1.84,0.65-3.39,1.95-4.65
				c1.3-1.26,2.92-1.89,4.87-1.89l1.79,0.2l3.78,1.95v-5.2h-13.32l-1.91-2.72l0.69-1.38h33.15l1.91,2.68L593.39,228.87z
				 M567.19,242.68c0.32,0.11,0.73,0.16,1.22,0.16c2,0,3.72-0.92,5.16-2.76v-3.21c-1-0.46-1.96-0.69-2.88-0.69
				c-1.27,0-2.3,0.41-3.09,1.24c-0.79,0.83-1.18,1.79-1.18,2.9C566.42,241.19,566.68,241.97,567.19,242.68z"/>
			<path class="st7" d="M576.21,222.17c-0.65-0.24-1.37-0.67-2.17-1.28c-0.8-0.61-1.4-1.2-1.81-1.77c0.95-1.89,2.02-3.21,3.21-3.94
				c1.43,0.57,2.72,1.6,3.86,3.09C578.65,219.95,577.62,221.25,576.21,222.17z"/>
			<path class="st7" d="M599.77,252.31c-0.62-0.24-1.33-0.67-2.11-1.28c-0.79-0.61-1.38-1.18-1.79-1.73
				c0.95-1.9,1.99-3.17,3.13-3.82c1.38,0.52,2.63,1.52,3.74,3.01C602.11,250.11,601.12,251.39,599.77,252.31z"/>
			<path class="st7" d="M639.86,228.87h-6.91l2.44,1.83v20.96l-1.58,0.69l-3.9-2.19v-5.44l-10.64,8.16l-3.9-3.17l7.39-5.2
				c-1.84-0.97-3.34-2.29-4.51-3.94c-1.16-1.65-1.75-3.28-1.75-4.88v-6.82h-3.05l-1.91-2.72l0.69-1.38h26.4l1.91,2.68L639.86,228.87
				z M629.91,228.87h-10.16l2.44,1.83v9.26c0.62,0.84,1.5,1.26,2.64,1.26c2.19,0,3.89-0.96,5.08-2.88V228.87z"/>
			<path class="st7" d="M651.64,228.87h-6.91l2.44,1.83v20.96l-1.58,0.69l-3.9-2.19v-21.29h-3.09l-1.91-2.72l0.69-1.38h13l1.95,2.68
				L651.64,228.87z"/>
			<path class="st7" d="M658.02,252.31c-0.62-0.24-1.33-0.67-2.11-1.28c-0.79-0.61-1.38-1.18-1.79-1.73
				c0.95-1.9,1.99-3.17,3.13-3.82c1.38,0.52,2.63,1.52,3.74,3.01C660.36,250.11,659.38,251.39,658.02,252.31z"/>
			<path class="st7" d="M683.45,211.44c6.8,0,14.88,3.44,24.25,10.32l-1.83,2.11c-4.01-2.44-7.66-4.31-10.97-5.63
				c-3.3-1.31-6.38-1.97-9.22-1.97c-2.49,0-4.49,0.49-5.99,1.46c-1.5,0.97-2.25,2.29-2.25,3.94c0,0.97,0.33,2,0.97,3.09h5.08
				l1.95,2.68l-0.69,1.42h-6.7l2.44,1.83v20.96l-1.58,0.69l-3.9-2.19v-21.29h-3.29l-1.91-2.72l0.69-1.38h4.55
				c-1.65-1.76-2.48-3.66-2.48-5.69c0-2.33,1-4.18,2.99-5.57C677.54,212.13,680.17,211.44,683.45,211.44z"/>
			<path class="st7" d="M714.65,228.87h-6.91l2.44,1.83v20.96l-1.58,0.69l-3.9-2.19V236.5c-1.33,0.46-2.39,1.4-3.19,2.8
				c-0.8,1.41-1.23,3.14-1.28,5.2l-1.34,0.77l-4.02-2.68c0.03-1.68,0.35-3.2,0.97-4.55c-0.7-0.43-1.42-0.65-2.15-0.65
				c-0.97,0-1.81,0.32-2.52,0.97c-0.7,0.65-1.06,1.56-1.06,2.72c0,1.46,0.64,2.88,1.91,4.24c1.27,1.37,3.15,2.85,5.65,4.45
				l-2.15,2.84c-7.37-4.47-11.05-8.98-11.05-13.53c0-1.98,0.65-3.6,1.95-4.87c1.3-1.27,2.87-1.91,4.71-1.91
				c0.97,0,1.87,0.2,2.68,0.61l3.37,3.09c1.9-2.17,4.4-3.2,7.52-3.09v-4.06h-21.2l-1.91-2.72l0.69-1.38h31.12l1.95,2.68
				L714.65,228.87z"/>
			<path class="st7" d="M721.11,252.31c-0.62-0.24-1.33-0.67-2.11-1.28c-0.79-0.61-1.38-1.18-1.79-1.73
				c0.95-1.9,1.99-3.17,3.13-3.82c1.38,0.52,2.63,1.52,3.74,3.01C723.45,250.11,722.46,251.39,721.11,252.31z"/>
		</g>
		<line class="st8" x1="21.53" y1="275.38" x2="724.35" y2="275.38"/>
		<g>
			<g>
				<path class="st7" d="M29.19,297.06h-5.23v-3.68h14.91v3.68h-5.3v15.7h-4.38V297.06z"/>
				<path class="st7" d="M41.05,292.35h4.38v8.03h0.06c0.46-0.62,1.02-1.08,1.71-1.45c0.65-0.35,1.47-0.56,2.28-0.56
					c2.79,0,4.93,1.93,4.93,6.18v8.21h-4.38v-7.73c0-1.85-0.64-3.12-2.26-3.12c-1.17,0-1.88,0.75-2.2,1.54
					c-0.11,0.26-0.14,0.64-0.14,0.96v8.35h-4.38V292.35z"/>
				<path class="st7" d="M61.26,307.13c0.13,1.82,1.92,2.68,3.97,2.68c1.48,0,2.69-0.2,3.87-0.6l0.59,2.96
					c-1.46,0.59-3.21,0.89-5.1,0.89c-4.77,0-7.5-2.78-7.5-7.16c0-3.58,2.23-7.53,7.09-7.53c4.56,0,6.28,3.54,6.28,7.03
					c0,0.76-0.08,1.41-0.16,1.73H61.26z M66.4,304.13c0.01-1.05-0.46-2.85-2.45-2.85c-1.85,0-2.6,1.69-2.72,2.85H66.4z"/>
				<path class="st7" d="M95.41,305.35c-0.09-2.35-0.18-5.14-0.17-7.98h-0.08c-0.62,2.48-1.43,5.23-2.16,7.52l-2.37,7.55h-3.4
					l-2.09-7.49c-0.62-2.28-1.27-5.03-1.75-7.59h-0.06c-0.1,2.63-0.2,5.63-0.32,8.04l-0.36,7.35h-4.05l1.24-19.38h5.84l1.89,6.48
					c0.61,2.22,1.21,4.66,1.64,6.93h0.09c0.53-2.24,1.19-4.8,1.84-6.96l2.06-6.45h5.73l1.04,19.38h-4.26L95.41,305.35z"/>
				<path class="st7" d="M111.2,312.76l-0.26-1.4h-0.09c-0.92,1.12-2.35,1.71-4.02,1.71c-2.87,0-4.55-2.06-4.55-4.3
					c0-3.67,3.28-5.4,8.26-5.4v-0.18c0-0.75-0.4-1.82-2.58-1.81c-1.43,0-2.94,0.49-3.88,1.05l-0.81-2.8
					c0.98-0.56,2.9-1.26,5.47-1.26c4.68,0,6.17,2.77,6.17,6.07v4.91c0,1.34,0.07,2.62,0.22,3.41H111.2z M110.67,306.1
					c-2.3-0.01-4.08,0.54-4.08,2.22c0,1.13,0.74,1.68,1.74,1.68c1.07,0,1.98-0.71,2.26-1.62c0.07-0.23,0.08-0.5,0.08-0.75V306.1z"/>
				<path class="st7" d="M118.37,292.35h4.38v8.03h0.06c0.46-0.62,1.02-1.08,1.71-1.45c0.65-0.35,1.47-0.56,2.28-0.56
					c2.79,0,4.93,1.93,4.93,6.18v8.21h-4.38v-7.73c0-1.85-0.64-3.12-2.26-3.12c-1.17,0-1.88,0.75-2.19,1.54
					c-0.11,0.26-0.14,0.64-0.14,0.96v8.35h-4.38V292.35z"/>
				<path class="st7" d="M143.22,312.76l-0.26-1.4h-0.09c-0.92,1.12-2.35,1.71-4.02,1.71c-2.86,0-4.55-2.06-4.55-4.3
					c0-3.67,3.28-5.4,8.26-5.4v-0.18c0-0.75-0.4-1.82-2.58-1.81c-1.43,0-2.94,0.49-3.88,1.05l-0.8-2.8c0.98-0.56,2.9-1.26,5.47-1.26
					c4.68,0,6.17,2.77,6.17,6.07v4.91c0,1.34,0.07,2.62,0.22,3.41H143.22z M142.69,306.1c-2.3-0.01-4.08,0.54-4.08,2.22
					c0,1.13,0.74,1.68,1.74,1.68c1.07,0,1.98-0.71,2.26-1.62c0.07-0.23,0.08-0.5,0.08-0.75V306.1z"/>
				<path class="st7" d="M150.39,303.33c0-2.07-0.04-3.43-0.12-4.64h3.76l0.16,2.6h0.11c0.72-2.06,2.43-2.92,3.8-2.92
					c0.4,0,0.61,0.01,0.93,0.08v4.11c-0.34-0.07-0.69-0.12-1.18-0.12c-1.61,0-2.71,0.85-3,2.22c-0.05,0.28-0.08,0.62-0.08,0.97v7.12
					h-4.38V303.33z"/>
				<path class="st7" d="M169.32,312.76l-0.26-1.4h-0.09c-0.92,1.12-2.35,1.71-4.02,1.71c-2.87,0-4.55-2.06-4.55-4.3
					c0-3.67,3.28-5.4,8.26-5.4v-0.18c0-0.75-0.4-1.82-2.58-1.81c-1.43,0-2.94,0.49-3.88,1.05l-0.81-2.8
					c0.98-0.56,2.9-1.26,5.47-1.26c4.68,0,6.17,2.77,6.17,6.07v4.91c0,1.34,0.07,2.62,0.22,3.41H169.32z M168.79,306.1
					c-2.3-0.01-4.08,0.54-4.08,2.22c0,1.13,0.74,1.68,1.74,1.68c1.07,0,1.98-0.71,2.26-1.62c0.07-0.23,0.08-0.5,0.08-0.75V306.1z"/>
				<path class="st7" d="M176.47,308.95c0.8,0.49,2.48,1.05,3.75,1.05c1.32,0,1.88-0.44,1.88-1.16c0-0.73-0.45-1.08-2.07-1.63
					c-2.92-0.96-4.03-2.55-4.01-4.21c0-2.64,2.23-4.63,5.72-4.63c1.65,0,3.1,0.39,3.96,0.82l-0.76,3.01
					c-0.63-0.33-1.86-0.79-3.05-0.79c-1.07,0-1.68,0.43-1.68,1.13c0,0.67,0.56,1.03,2.28,1.62c2.67,0.91,3.79,2.28,3.8,4.33
					c0,2.62-2.05,4.56-6.08,4.56c-1.83,0-3.48-0.42-4.56-0.99L176.47,308.95z"/>
				<path class="st7" d="M188.97,292.35h4.38v8.03h0.06c0.46-0.62,1.02-1.08,1.71-1.45c0.65-0.35,1.47-0.56,2.28-0.56
					c2.79,0,4.93,1.93,4.93,6.18v8.21h-4.38v-7.73c0-1.85-0.64-3.12-2.26-3.12c-1.17,0-1.88,0.75-2.2,1.54
					c-0.11,0.26-0.14,0.64-0.14,0.96v8.35h-4.38V292.35z"/>
				<path class="st7" d="M210.69,294.67v4.01h3.15v3.23h-3.15v5.1c0,1.7,0.42,2.48,1.73,2.48c0.56,0,1-0.06,1.3-0.13l0.03,3.32
					c-0.56,0.2-1.61,0.38-2.83,0.38c-1.41,0-2.59-0.49-3.3-1.22c-0.81-0.83-1.21-2.17-1.21-4.17v-5.75h-1.87v-3.23h1.87v-3.02
					L210.69,294.67z"/>
				<path class="st7" d="M216.36,303.33c0-2.07-0.04-3.43-0.12-4.64H220l0.16,2.6h0.11c0.72-2.06,2.43-2.92,3.8-2.92
					c0.4,0,0.61,0.01,0.93,0.08v4.11c-0.34-0.07-0.69-0.12-1.18-0.12c-1.61,0-2.7,0.85-3,2.22c-0.05,0.28-0.08,0.62-0.08,0.97v7.12
					h-4.38V303.33z"/>
				<path class="st7" d="M235.29,312.76l-0.26-1.4h-0.09c-0.92,1.12-2.35,1.71-4.02,1.71c-2.87,0-4.55-2.06-4.55-4.3
					c0-3.67,3.28-5.4,8.26-5.4v-0.18c0-0.75-0.4-1.82-2.58-1.81c-1.43,0-2.94,0.49-3.88,1.05l-0.81-2.8
					c0.98-0.56,2.9-1.26,5.47-1.26c4.68,0,6.17,2.77,6.17,6.07v4.91c0,1.34,0.07,2.62,0.22,3.41H235.29z M234.76,306.1
					c-2.3-0.01-4.08,0.54-4.08,2.22c0,1.13,0.74,1.68,1.74,1.68c1.07,0,1.98-0.71,2.26-1.62c0.07-0.23,0.08-0.5,0.08-0.75V306.1z"/>
				<path class="st7" d="M259.94,304.56h-7.13v4.61h7.97v3.59h-12.35v-19.38h11.94v3.59h-7.56v4.04h7.13V304.56z"/>
				<path class="st7" d="M266.95,298.69l1.38,2.36c0.41,0.72,0.79,1.41,1.15,2.1h0.08c0.36-0.76,0.71-1.47,1.08-2.17l1.24-2.29h4.75
					l-4.63,6.71l4.68,7.37h-4.96l-1.41-2.53c-0.4-0.7-0.75-1.4-1.09-2.14h-0.08c-0.36,0.76-0.72,1.45-1.08,2.15l-1.32,2.52h-4.79
					l4.77-7.17l-4.65-6.9H266.95z"/>
				<path class="st7" d="M281.91,307.13c0.13,1.82,1.92,2.68,3.96,2.68c1.48,0,2.69-0.2,3.87-0.6l0.59,2.96
					c-1.46,0.59-3.21,0.89-5.1,0.89c-4.77,0-7.5-2.78-7.5-7.16c0-3.58,2.23-7.53,7.09-7.53c4.56,0,6.28,3.54,6.28,7.03
					c0,0.76-0.08,1.41-0.16,1.73H281.91z M287.04,304.13c0.01-1.05-0.46-2.85-2.45-2.85c-1.85,0-2.6,1.69-2.72,2.85H287.04z"/>
				<path class="st7" d="M304.27,312.41c-0.79,0.36-2.25,0.65-3.92,0.65c-4.55,0-7.44-2.78-7.44-7.2c0-4.11,2.81-7.48,8.04-7.48
					c1.16,0,2.43,0.21,3.34,0.55l-0.68,3.25c-0.53-0.24-1.3-0.45-2.45-0.45c-2.31,0-3.8,1.64-3.78,3.94c0,2.58,1.73,3.96,3.85,3.96
					c1.04,0,1.85-0.18,2.52-0.46L304.27,312.41z"/>
				<path class="st7" d="M319.93,308.25c0,1.83,0.05,3.34,0.12,4.51h-3.79l-0.2-1.99h-0.09c-0.55,0.87-1.86,2.3-4.38,2.3
					c-2.86,0-4.94-1.79-4.94-6.11v-8.27h4.38v7.56c0,2.06,0.66,3.29,2.2,3.29c1.19,0,1.89-0.82,2.17-1.54
					c0.11-0.25,0.16-0.58,0.16-0.93v-8.39h4.38V308.25z"/>
				<path class="st7" d="M328.31,294.67v4.01h3.15v3.23h-3.15v5.1c0,1.7,0.42,2.48,1.73,2.48c0.56,0,1-0.06,1.3-0.13l0.04,3.32
					c-0.56,0.2-1.61,0.38-2.83,0.38c-1.41,0-2.59-0.49-3.3-1.22c-0.81-0.83-1.21-2.17-1.21-4.17v-5.75h-1.87v-3.23h1.87v-3.02
					L328.31,294.67z"/>
				<path class="st7" d="M347.86,305.58c0,5.14-3.64,7.49-7.42,7.49c-4.09,0-7.26-2.71-7.26-7.25c0-4.54,3-7.45,7.52-7.45
					C345,298.37,347.86,301.33,347.86,305.58z M337.69,305.73c0,2.4,1.01,4.22,2.88,4.22c1.71,0,2.79-1.71,2.79-4.25
					c0-2.08-0.8-4.21-2.78-4.21C338.49,301.5,337.69,303.64,337.69,305.73z"/>
				<path class="st7" d="M350.57,303.33c0-2.07-0.04-3.43-0.12-4.64h3.76l0.16,2.6h0.11c0.72-2.06,2.43-2.92,3.8-2.92
					c0.4,0,0.61,0.01,0.93,0.08v4.11c-0.34-0.07-0.69-0.12-1.18-0.12c-1.61,0-2.7,0.85-3,2.22c-0.05,0.28-0.08,0.62-0.08,0.97v7.12
					h-4.38V303.33z"/>
				<path class="st7" d="M379.79,312.76c-0.42-0.42-0.83-0.86-1.28-1.38c-1.26,0.99-3.03,1.7-5.32,1.7c-4.7,0-6.76-2.78-6.76-5.48
					c0-2.56,1.46-4.41,3.69-5.57l0-0.1c-0.84-0.93-1.49-2.35-1.49-3.73c0-2.46,1.94-5.13,5.83-5.13c2.99,0,5.25,1.76,5.25,4.54
					c0,1.96-1.15,3.63-3.83,4.98l-0.02,0.11c1.1,1.24,2.3,2.65,3.23,3.62c0.79-1.22,1.38-3,1.65-4.72h3.9
					c-0.52,2.95-1.48,5.45-3.22,7.36c1.11,1.25,2.23,2.52,3.42,3.8H379.79z M376.47,308.93c-1.2-1.19-2.77-2.97-4.36-4.75
					c-0.8,0.58-1.53,1.42-1.53,2.68c0,1.65,1.23,3.04,3.23,3.04C374.95,309.9,375.89,309.47,376.47,308.93z M372.57,297.77
					c0,0.99,0.44,1.84,1.32,2.79c1.4-0.96,2.11-1.72,2.11-2.84c0-0.91-0.53-1.92-1.68-1.92
					C373.19,295.8,372.57,296.76,372.57,297.77z"/>
				<path class="st7" d="M396.49,297.06h-5.23v-3.68h14.91v3.68h-5.3v15.7h-4.38V297.06z"/>
				<path class="st7" d="M408.34,303.33c0-2.07-0.04-3.43-0.11-4.64h3.76l0.16,2.6h0.11c0.72-2.06,2.43-2.92,3.8-2.92
					c0.4,0,0.61,0.01,0.93,0.08v4.11c-0.34-0.07-0.69-0.12-1.18-0.12c-1.61,0-2.7,0.85-3,2.22c-0.05,0.28-0.08,0.62-0.08,0.97v7.12
					h-4.38V303.33z"/>
				<path class="st7" d="M432.52,308.25c0,1.83,0.05,3.34,0.12,4.51h-3.79l-0.2-1.99h-0.09c-0.55,0.87-1.86,2.3-4.38,2.3
					c-2.86,0-4.94-1.79-4.94-6.11v-8.27h4.38v7.56c0,2.06,0.66,3.29,2.2,3.29c1.19,0,1.89-0.82,2.17-1.54
					c0.11-0.25,0.16-0.58,0.16-0.93v-8.39h4.38V308.25z"/>
				<path class="st7" d="M436.01,308.95c0.8,0.49,2.48,1.05,3.75,1.05c1.32,0,1.88-0.44,1.88-1.16c0-0.73-0.45-1.08-2.06-1.63
					c-2.93-0.96-4.03-2.55-4.01-4.21c0-2.64,2.23-4.63,5.72-4.63c1.65,0,3.1,0.39,3.96,0.82l-0.76,3.01
					c-0.63-0.33-1.86-0.79-3.05-0.79c-1.07,0-1.68,0.43-1.68,1.13c0,0.67,0.56,1.03,2.28,1.62c2.67,0.91,3.79,2.28,3.81,4.33
					c0,2.62-2.05,4.56-6.08,4.56c-1.83,0-3.48-0.42-4.56-0.99L436.01,308.95z"/>
				<path class="st7" d="M453.38,294.67v4.01h3.15v3.23h-3.15v5.1c0,1.7,0.42,2.48,1.73,2.48c0.57,0,1-0.06,1.3-0.13l0.04,3.32
					c-0.57,0.2-1.61,0.38-2.83,0.38c-1.42,0-2.59-0.49-3.3-1.22c-0.81-0.83-1.21-2.17-1.21-4.17v-5.75h-1.87v-3.23h1.87v-3.02
					L453.38,294.67z"/>
				<path class="st7" d="M462.42,307.13c0.13,1.82,1.92,2.68,3.97,2.68c1.48,0,2.69-0.2,3.87-0.6l0.59,2.96
					c-1.46,0.59-3.21,0.89-5.1,0.89c-4.77,0-7.5-2.78-7.5-7.16c0-3.58,2.23-7.53,7.09-7.53c4.56,0,6.28,3.54,6.28,7.03
					c0,0.76-0.08,1.41-0.16,1.73H462.42z M467.56,304.13c0.01-1.05-0.46-2.85-2.45-2.85c-1.85,0-2.6,1.69-2.72,2.85H467.56z"/>
				<path class="st7" d="M477.6,307.13c0.13,1.82,1.92,2.68,3.97,2.68c1.48,0,2.69-0.2,3.87-0.6l0.59,2.96
					c-1.46,0.59-3.21,0.89-5.1,0.89c-4.77,0-7.5-2.78-7.5-7.16c0-3.58,2.23-7.53,7.09-7.53c4.56,0,6.28,3.54,6.28,7.03
					c0,0.76-0.08,1.41-0.16,1.73H477.6z M482.74,304.13c0.01-1.05-0.46-2.85-2.45-2.85c-1.85,0-2.6,1.69-2.72,2.85H482.74z"/>
				<path class="st7" d="M509.58,312.22c-0.78,0.39-2.62,0.84-4.95,0.84c-6.71,0-10.17-4.19-10.17-9.72
					c0-6.61,4.73-10.26,10.58-10.26c2.28,0,4.01,0.44,4.77,0.86l-0.89,3.46c-0.87-0.38-2.12-0.73-3.68-0.73
					c-3.46,0-6.17,2.11-6.17,6.41c0,3.88,2.29,6.33,6.19,6.33c1.34,0,2.79-0.26,3.66-0.63L509.58,312.22z"/>
				<path class="st7" d="M526.19,305.58c0,5.14-3.64,7.49-7.42,7.49c-4.09,0-7.27-2.71-7.27-7.25c0-4.54,3-7.45,7.52-7.45
					C523.33,298.37,526.19,301.33,526.19,305.58z M516.02,305.73c0,2.4,1.01,4.22,2.88,4.22c1.71,0,2.79-1.71,2.79-4.25
					c0-2.08-0.8-4.21-2.78-4.21C516.82,301.5,516.02,303.64,516.02,305.73z"/>
				<path class="st7" d="M528.9,303.18c0-1.75-0.05-3.23-0.12-4.5h3.7l0.19,1.91h0.09c0.59-0.89,1.85-2.22,4.24-2.22
					c1.83,0,3.25,0.93,3.85,2.41h0.06c0.53-0.75,1.15-1.32,1.83-1.72c0.76-0.46,1.62-0.7,2.67-0.7c2.69,0,4.74,1.9,4.74,6.11v8.28
					h-4.26v-7.64c0-2.04-0.66-3.22-2.07-3.22c-1.01,0-1.72,0.69-2.01,1.53c-0.11,0.32-0.16,0.76-0.16,1.11v8.23h-4.26v-7.89
					c0-1.77-0.63-2.98-2.03-2.98c-1.12,0-1.79,0.86-2.05,1.57c-0.13,0.34-0.16,0.74-0.16,1.11v8.18h-4.26V303.18z"/>
				<path class="st7" d="M553.62,303.42c0-1.85-0.05-3.41-0.11-4.73h3.8l0.2,1.97h0.06c1.04-1.49,2.64-2.29,4.69-2.29
					c3.08,0,5.85,2.68,5.85,7.17c0,5.13-3.27,7.54-6.4,7.54c-1.68,0-3.03-0.68-3.65-1.61H558v6.98h-4.38V303.42z M558,306.74
					c0,0.33,0.03,0.63,0.09,0.91c0.28,1.17,1.29,2.08,2.56,2.08c1.89,0,3.02-1.59,3.02-3.98c0-2.24-1-3.95-2.95-3.95
					c-1.24,0-2.35,0.94-2.62,2.21c-0.07,0.25-0.1,0.52-0.1,0.78V306.74z"/>
				<path class="st7" d="M578.82,312.76l-0.26-1.4h-0.09c-0.92,1.12-2.35,1.71-4.02,1.71c-2.87,0-4.55-2.06-4.55-4.3
					c0-3.67,3.28-5.4,8.26-5.4v-0.18c0-0.75-0.4-1.82-2.58-1.81c-1.43,0-2.94,0.49-3.88,1.05l-0.81-2.8
					c0.98-0.56,2.9-1.26,5.47-1.26c4.68,0,6.17,2.77,6.17,6.07v4.91c0,1.34,0.07,2.62,0.22,3.41H578.82z M578.29,306.1
					c-2.3-0.01-4.08,0.54-4.08,2.22c0,1.13,0.74,1.68,1.74,1.68c1.07,0,1.98-0.71,2.26-1.62c0.07-0.23,0.08-0.5,0.08-0.75V306.1z"/>
				<path class="st7" d="M585.99,303.18c0-1.75-0.05-3.23-0.12-4.5h3.79l0.2,1.95h0.09c0.57-0.91,2-2.27,4.35-2.27
					c2.87,0,5.04,1.92,5.04,6.06v8.33h-4.38v-7.8c0-1.81-0.65-3.05-2.22-3.05c-1.2,0-1.92,0.84-2.22,1.65
					c-0.11,0.27-0.15,0.69-0.15,1.08v8.12h-4.38V303.18z"/>
				<path class="st7" d="M606.1,298.69l2.1,6.92c0.24,0.82,0.51,1.88,0.7,2.61H609c0.2-0.76,0.42-1.8,0.62-2.62l1.73-6.91h4.67
					l-3.26,9.26c-2.02,5.59-3.37,7.82-4.96,9.23c-1.51,1.32-3.12,1.81-4.21,1.92l-0.94-3.69c0.56-0.11,1.23-0.36,1.9-0.75
					c0.67-0.35,1.39-1.05,1.8-1.75c0.15-0.22,0.24-0.44,0.24-0.63c0-0.16-0.04-0.37-0.19-0.72l-5.16-12.87H606.1z"/>
				<path class="st7" d="M623.83,293.64c1.35-0.23,3.25-0.41,5.91-0.41c2.69,0,4.63,0.52,5.93,1.56c1.24,0.96,2.05,2.58,2.05,4.48
					c0,1.9-0.61,3.52-1.77,4.59c-1.5,1.41-3.73,2.06-6.29,2.06c-0.58,0-1.1-0.04-1.49-0.1v6.94h-4.34V293.64z M628.17,302.43
					c0.36,0.08,0.81,0.12,1.45,0.12c2.33,0,3.76-1.18,3.76-3.14c0-1.78-1.22-2.84-3.43-2.84c-0.87,0-1.47,0.07-1.79,0.14V302.43z"/>
				<path class="st7" d="M643.64,298.69l1.89,6.54c0.34,1.19,0.59,2.3,0.8,3.42h0.09c0.22-1.16,0.46-2.21,0.78-3.42l1.81-6.54h4.6
					l-5.24,14.07h-4.36l-5.12-14.07H643.64z"/>
				<path class="st7" d="M660.49,294.67v4.01h3.15v3.23h-3.15v5.1c0,1.7,0.42,2.48,1.73,2.48c0.56,0,1-0.06,1.3-0.13l0.04,3.32
					c-0.57,0.2-1.61,0.38-2.83,0.38c-1.42,0-2.59-0.49-3.3-1.22c-0.81-0.83-1.21-2.17-1.21-4.17v-5.75h-1.87v-3.23h1.87v-3.02
					L660.49,294.67z"/>
				<path class="st7" d="M665.84,310.42c0-1.56,1.07-2.66,2.58-2.66c1.52,0,2.56,1.07,2.57,2.66c0,1.54-1.03,2.65-2.58,2.65
					C666.9,313.07,665.84,311.96,665.84,310.42z"/>
				<path class="st7" d="M679.6,293.38h4.38v15.7h7.71v3.67H679.6V293.38z"/>
				<path class="st7" d="M699.01,294.67v4.01h3.15v3.23h-3.15v5.1c0,1.7,0.42,2.48,1.73,2.48c0.56,0,1-0.06,1.3-0.13l0.04,3.32
					c-0.57,0.2-1.61,0.38-2.83,0.38c-1.42,0-2.59-0.49-3.3-1.22c-0.81-0.83-1.21-2.17-1.21-4.17v-5.75h-1.87v-3.23h1.87v-3.02
					L699.01,294.67z"/>
				<path class="st7" d="M718.3,292.35v16.21c0,1.6,0.05,3.26,0.11,4.2h-3.89l-0.18-2.06h-0.06c-0.89,1.58-2.59,2.38-4.4,2.38
					c-3.32,0-6.01-2.85-6.01-7.22c-0.02-4.72,2.95-7.48,6.3-7.48c1.74,0,3.07,0.62,3.7,1.59h0.06v-7.61H718.3z M713.93,304.66
					c0-0.25-0.01-0.54-0.06-0.79c-0.25-1.17-1.2-2.14-2.54-2.14c-2,0-3.02,1.78-3.02,4c0,2.37,1.17,3.86,2.99,3.86
					c1.24,0,2.26-0.86,2.53-2.1c0.07-0.3,0.09-0.64,0.09-0.99V304.66z"/>
				<path class="st7" d="M721.49,310.42c0-1.56,1.07-2.66,2.58-2.66c1.52,0,2.56,1.07,2.57,2.66c0,1.54-1.03,2.65-2.58,2.65
					C722.55,313.07,721.49,311.96,721.49,310.42z"/>
			</g>
		</g>
		<g>
			<g>
				<path class="st7" d="M28.43,325.7c-1.9,2.57-3.27,5.95-3.27,10.69c0,4.65,1.43,7.97,3.27,10.57h-1.78
					c-1.65-2.16-3.42-5.5-3.42-10.59c0.01-5.13,1.76-8.48,3.42-10.67H28.43z"/>
				<path class="st7" d="M33.79,338.3l-1.82,5.53h-2.36l5.98-17.59h2.73l6.01,17.59h-2.43l-1.88-5.53H33.79z M39.56,336.52
					l-1.74-5.06c-0.38-1.15-0.65-2.2-0.91-3.21h-0.06c-0.25,1.03-0.53,2.1-0.87,3.18l-1.73,5.09H39.56z"/>
				<path class="st7" d="M53.27,331.2l1.7,6.4c0.36,1.41,0.68,2.73,0.94,4.03h0.06c0.28-1.27,0.7-2.64,1.13-4.01l2.06-6.42h1.93
					l1.96,6.31c0.45,1.5,0.82,2.83,1.12,4.12h0.06c0.23-1.28,0.57-2.61,0.98-4.1l1.8-6.33h2.26l-4.08,12.62h-2.08l-1.92-6.02
					c-0.46-1.42-0.81-2.68-1.12-4.16h-0.05c-0.32,1.52-0.71,2.83-1.16,4.18l-2.03,6h-2.1l-3.8-12.62H53.27z"/>
				<path class="st7" d="M71.58,325.3h2.28v7.88h0.05c0.38-0.64,0.95-1.22,1.65-1.62c0.67-0.4,1.48-0.64,2.35-0.64
					c1.7,0,4.4,1.04,4.4,5.39v7.51h-2.28v-7.26c0-2.04-0.77-3.75-2.92-3.75c-1.5,0-2.66,1.05-3.1,2.29
					c-0.12,0.32-0.15,0.67-0.15,1.09v7.63h-2.28V325.3z"/>
				<path class="st7" d="M97.48,337.39c0,4.67-3.24,6.72-6.28,6.72c-3.42,0-6.07-2.49-6.07-6.5c0-4.22,2.78-6.69,6.27-6.69
					C95.04,330.92,97.48,333.55,97.48,337.39z M87.48,337.54c0,2.77,1.59,4.85,3.83,4.85c2.2,0,3.84-2.06,3.84-4.92
					c0-2.13-1.08-4.83-3.8-4.83C88.65,332.64,87.48,335.15,87.48,337.54z"/>
				<path class="st7" d="M100.39,325.3h2.28v18.53h-2.28V325.3z"/>
				<path class="st7" d="M106.55,325.3h2.28v18.53h-2.28V325.3z"/>
				<path class="st7" d="M113.53,331.2l2.76,7.46c0.3,0.83,0.61,1.82,0.81,2.58h0.06c0.22-0.74,0.5-1.71,0.8-2.63l2.5-7.41h2.43
					l-3.45,8.99c-1.63,4.34-2.76,6.55-4.32,7.91c-1.13,0.98-2.25,1.37-2.81,1.47l-0.57-1.92c0.58-0.18,1.32-0.54,2.01-1.12
					c0.62-0.5,1.39-1.39,1.92-2.56c0.12-0.24,0.18-0.41,0.18-0.55c0-0.13-0.04-0.31-0.16-0.59l-4.65-11.64H113.53z"/>
				<path class="st7" d="M141.95,337.39c0,4.67-3.24,6.72-6.28,6.72c-3.42,0-6.07-2.49-6.07-6.5c0-4.22,2.78-6.69,6.27-6.69
					C139.5,330.92,141.95,333.55,141.95,337.39z M131.94,337.54c0,2.77,1.59,4.85,3.83,4.85c2.2,0,3.85-2.06,3.85-4.92
					c0-2.13-1.08-4.83-3.8-4.83C133.12,332.64,131.94,335.15,131.94,337.54z"/>
				<path class="st7" d="M145.75,331.2l1.69,6.4c0.36,1.41,0.68,2.73,0.94,4.03h0.06c0.28-1.27,0.7-2.64,1.13-4.01l2.06-6.42h1.93
					l1.96,6.31c0.45,1.5,0.82,2.83,1.11,4.12h0.06c0.23-1.28,0.57-2.61,0.98-4.1l1.8-6.33h2.26l-4.08,12.62h-2.08l-1.92-6.02
					c-0.46-1.42-0.81-2.68-1.12-4.16h-0.05c-0.32,1.52-0.71,2.83-1.16,4.18l-2.03,6h-2.1l-3.8-12.62H145.75z"/>
				<path class="st7" d="M164.06,334.61c0-1.32-0.04-2.36-0.1-3.41h2.03l0.13,2.07h0.06c0.62-1.18,2.09-2.36,4.17-2.36
					c1.73,0,4.45,1.04,4.45,5.38v7.53h-2.28v-7.28c0-2.04-0.77-3.75-2.92-3.75c-1.51,0-2.68,1.07-3.09,2.36
					c-0.1,0.28-0.16,0.69-0.16,1.06v7.6h-2.28V334.61z"/>
				<path class="st7" d="M179.83,337.93c0.04,3.1,2.01,4.38,4.32,4.38c1.64,0,2.65-0.29,3.5-0.65l0.4,1.63
					c-0.8,0.37-2.21,0.8-4.21,0.8c-3.88,0-6.21-2.58-6.21-6.37c0-3.82,2.25-6.81,5.94-6.81c4.12,0,5.19,3.61,5.19,5.93
					c0,0.48-0.03,0.83-0.08,1.08H179.83z M186.55,336.28c0.02-1.45-0.59-3.71-3.17-3.71c-2.34,0-3.34,2.12-3.52,3.71H186.55z"/>
				<path class="st7" d="M202.51,325.3v15.27c0,1.12,0.04,2.38,0.1,3.25h-2.04l-0.12-2.18h-0.06c-0.7,1.41-2.22,2.47-4.28,2.47
					c-3.06,0-5.42-2.58-5.42-6.41c-0.02-4.22,2.6-6.78,5.67-6.78c1.94,0,3.24,0.91,3.81,1.91h0.05v-7.53H202.51z M200.23,336.34
					c0-0.3-0.03-0.68-0.1-0.98c-0.36-1.45-1.59-2.64-3.32-2.64c-2.38,0-3.8,2.08-3.8,4.86c0,2.56,1.28,4.69,3.75,4.69
					c1.54,0,2.93-1.04,3.35-2.76c0.08-0.3,0.11-0.62,0.11-0.98V336.34z"/>
				<path class="st7" d="M211.54,341.49c0.69,0.43,1.9,0.9,3.04,0.9c1.68,0,2.45-0.82,2.45-1.88c0-1.1-0.67-1.68-2.35-2.31
					c-2.28-0.83-3.36-2.07-3.35-3.58c0-2.03,1.65-3.7,4.37-3.7c1.28,0,2.39,0.35,3.09,0.78l-0.57,1.67
					c-0.49-0.3-1.41-0.74-2.59-0.74c-1.35,0-2.09,0.78-2.09,1.73c0,1.04,0.74,1.51,2.4,2.15c2.17,0.81,3.3,1.91,3.31,3.79
					c0,2.24-1.74,3.8-4.72,3.8c-1.38,0-2.66-0.36-3.55-0.88L211.54,341.49z"/>
				<path class="st7" d="M232.76,340.37c0,1.32,0.04,2.46,0.1,3.45h-2.03l-0.12-2.06h-0.06c-0.58,1.02-1.92,2.35-4.18,2.35
					c-1.97,0-4.35-1.11-4.35-5.53v-7.38h2.28v6.97c0,2.4,0.75,4.04,2.82,4.04c1.54,0,2.61-1.08,3.04-2.11
					c0.12-0.33,0.21-0.74,0.21-1.18v-7.73h2.28V340.37z"/>
				<path class="st7" d="M236.47,343.82c0.06-0.87,0.1-2.13,0.1-3.25V325.3h2.28v7.93h0.05c0.81-1.42,2.27-2.31,4.3-2.31
					c3.13,0,5.34,2.6,5.33,6.43c0,4.53-2.87,6.77-5.68,6.77c-1.82,0-3.28-0.72-4.23-2.36h-0.06l-0.12,2.07H236.47z M238.86,338.76
					c0,0.28,0.03,0.57,0.1,0.83c0.43,1.59,1.78,2.69,3.44,2.69c2.41,0,3.83-1.95,3.83-4.85c0-2.54-1.31-4.71-3.77-4.71
					c-1.56,0-3.01,1.09-3.47,2.82c-0.07,0.28-0.13,0.59-0.13,0.95V338.76z"/>
				<path class="st7" d="M251.11,341.49c0.69,0.43,1.9,0.9,3.04,0.9c1.68,0,2.45-0.82,2.45-1.88c0-1.1-0.67-1.68-2.35-2.31
					c-2.28-0.83-3.36-2.07-3.35-3.58c0-2.03,1.65-3.7,4.37-3.7c1.28,0,2.39,0.35,3.09,0.78l-0.57,1.67
					c-0.49-0.3-1.41-0.74-2.59-0.74c-1.35,0-2.09,0.78-2.09,1.73c0,1.04,0.74,1.51,2.4,2.15c2.17,0.81,3.3,1.91,3.31,3.79
					c0,2.24-1.74,3.8-4.72,3.8c-1.38,0-2.66-0.36-3.55-0.88L251.11,341.49z"/>
				<path class="st7" d="M264.33,327.64c0,0.78-0.55,1.43-1.46,1.43c-0.83,0-1.39-0.65-1.39-1.43c0-0.79,0.59-1.43,1.43-1.43
					C263.77,326.21,264.32,326.84,264.33,327.64z M261.77,343.82V331.2h2.28v12.62H261.77z"/>
				<path class="st7" d="M278.76,325.3v15.27c0,1.12,0.04,2.38,0.1,3.25h-2.04l-0.12-2.18h-0.06c-0.7,1.41-2.22,2.47-4.28,2.47
					c-3.06,0-5.42-2.58-5.42-6.41c-0.02-4.22,2.6-6.78,5.67-6.78c1.94,0,3.24,0.91,3.81,1.91h0.05v-7.53H278.76z M276.48,336.34
					c0-0.3-0.03-0.68-0.1-0.98c-0.36-1.45-1.59-2.64-3.32-2.64c-2.38,0-3.8,2.08-3.8,4.86c0,2.56,1.28,4.69,3.75,4.69
					c1.54,0,2.93-1.04,3.35-2.76c0.08-0.3,0.11-0.62,0.11-0.98V336.34z"/>
				<path class="st7" d="M285.15,327.64c0,0.78-0.55,1.43-1.46,1.43c-0.83,0-1.39-0.65-1.38-1.43c0-0.79,0.59-1.43,1.43-1.43
					C284.59,326.21,285.15,326.84,285.15,327.64z M282.59,343.82V331.2h2.28v12.62H282.59z"/>
				<path class="st7" d="M295.69,343.82l-0.2-1.59h-0.07c-0.69,0.99-2.05,1.88-3.86,1.88c-2.55,0-3.85-1.81-3.85-3.62
					c0-3.06,2.71-4.74,7.58-4.7v-0.27c0-1.03-0.29-2.92-2.87-2.91c-1.17,0-2.4,0.35-3.29,0.94l-0.52-1.53
					c1.04-0.67,2.57-1.11,4.17-1.11c3.86,0,4.8,2.64,4.8,5.17v4.72c0,1.08,0.05,2.15,0.19,3.02H295.69z M295.34,337.38
					c-2.48-0.05-5.33,0.39-5.33,2.83c0,1.51,0.99,2.2,2.14,2.2c1.66,0,2.71-1.05,3.08-2.11c0.08-0.24,0.11-0.5,0.11-0.72V337.38z"/>
				<path class="st7" d="M301.27,335.13c0-1.49-0.04-2.76-0.1-3.93h2.01l0.09,2.47h0.08c0.59-1.69,1.98-2.76,3.51-2.76
					c0.25,0,0.43,0.02,0.64,0.06v2.16c-0.23-0.05-0.47-0.07-0.78-0.07c-1.62,0-2.76,1.22-3.07,2.94c-0.06,0.32-0.09,0.7-0.09,1.07
					v6.74h-2.28V335.13z"/>
				<path class="st7" d="M310.64,331.2l2.76,7.46c0.3,0.83,0.61,1.82,0.81,2.58h0.06c0.22-0.74,0.5-1.71,0.8-2.63l2.5-7.41h2.43
					l-3.45,8.99c-1.63,4.34-2.76,6.55-4.32,7.91c-1.13,0.98-2.25,1.37-2.81,1.47l-0.57-1.92c0.58-0.18,1.32-0.54,2.01-1.12
					c0.62-0.5,1.39-1.39,1.92-2.56c0.12-0.24,0.18-0.41,0.18-0.55c0-0.13-0.04-0.31-0.16-0.59l-4.65-11.64H310.64z"/>
				<path class="st7" d="M339.05,337.39c0,4.67-3.24,6.72-6.28,6.72c-3.42,0-6.07-2.49-6.07-6.5c0-4.22,2.78-6.69,6.27-6.69
					C336.61,330.92,339.05,333.55,339.05,337.39z M329.05,337.54c0,2.77,1.59,4.85,3.83,4.85c2.2,0,3.84-2.06,3.84-4.92
					c0-2.13-1.08-4.83-3.8-4.83C330.22,332.64,329.05,335.15,329.05,337.54z"/>
				<path class="st7" d="M342.18,343.82v-10.88h-1.76v-1.74h1.76v-0.61c0-1.78,0.41-3.39,1.47-4.42c0.86-0.83,2.01-1.16,3.07-1.16
					c0.83,0,1.52,0.17,1.96,0.37l-0.3,1.76c-0.35-0.15-0.8-0.29-1.47-0.29c-1.94,0-2.45,1.72-2.45,3.67v0.68h3.05v1.74h-3.04v10.88
					H342.18z"/>
				<path class="st7" d="M355.18,326.48c1-0.22,2.57-0.38,4.15-0.38c2.28,0,3.74,0.39,4.83,1.28c0.91,0.69,1.47,1.74,1.47,3.11
					c0,1.7-1.13,3.2-2.97,3.85v0.07c1.67,0.4,3.63,1.78,3.63,4.41c0,1.5-0.6,2.66-1.5,3.5c-1.21,1.14-3.19,1.65-6.07,1.65
					c-1.57,0-2.76-0.11-3.53-0.2V326.48z M357.45,333.68h2.08c2.38,0,3.79-1.27,3.79-2.97c0-2.04-1.54-2.86-3.84-2.86
					c-1.05,0-1.65,0.08-2.02,0.16V333.68z M357.45,342.09c0.46,0.09,1.09,0.12,1.91,0.12c2.36,0,4.53-0.86,4.53-3.42
					c0-2.39-2.07-3.39-4.55-3.4h-1.89V342.09z"/>
				<path class="st7" d="M376.25,343.82l-0.2-1.59h-0.07c-0.69,0.99-2.05,1.88-3.86,1.88c-2.55,0-3.85-1.81-3.85-3.62
					c0-3.06,2.71-4.74,7.58-4.7v-0.27c0-1.03-0.29-2.92-2.87-2.91c-1.17,0-2.4,0.35-3.29,0.94l-0.52-1.53
					c1.05-0.67,2.57-1.11,4.17-1.11c3.86,0,4.8,2.64,4.8,5.17v4.72c0,1.08,0.05,2.15,0.19,3.02H376.25z M375.89,337.38
					c-2.48-0.05-5.33,0.39-5.33,2.83c0,1.51,0.99,2.2,2.14,2.2c1.66,0,2.71-1.05,3.08-2.11c0.08-0.24,0.11-0.5,0.11-0.72V337.38z"/>
				<path class="st7" d="M381.83,334.61c0-1.32-0.04-2.36-0.1-3.41h2.03l0.13,2.07h0.06c0.62-1.18,2.09-2.36,4.17-2.36
					c1.73,0,4.45,1.04,4.45,5.38v7.53h-2.28v-7.28c0-2.04-0.77-3.75-2.92-3.75c-1.51,0-2.68,1.07-3.09,2.36
					c-0.09,0.28-0.16,0.69-0.16,1.06v7.6h-2.28V334.61z"/>
				<path class="st7" d="M398.59,336.99h0.05c0.31-0.44,0.74-1,1.1-1.44l3.72-4.35h2.76l-4.87,5.19l5.56,7.43h-2.8l-4.34-6.06
					l-1.17,1.31v4.75h-2.28V325.3h2.28V336.99z"/>
				<path class="st7" d="M425.51,337.39c0,4.67-3.24,6.72-6.28,6.72c-3.42,0-6.07-2.49-6.07-6.5c0-4.22,2.78-6.69,6.27-6.69
					C423.06,330.92,425.51,333.55,425.51,337.39z M415.5,337.54c0,2.77,1.59,4.85,3.83,4.85c2.2,0,3.84-2.06,3.84-4.92
					c0-2.13-1.08-4.83-3.8-4.83C416.68,332.64,415.5,335.15,415.5,337.54z"/>
				<path class="st7" d="M428.64,343.82v-10.88h-1.76v-1.74h1.76v-0.61c0-1.78,0.41-3.39,1.47-4.42c0.86-0.83,2.01-1.16,3.07-1.16
					c0.83,0,1.52,0.17,1.96,0.37l-0.3,1.76c-0.35-0.15-0.8-0.29-1.47-0.29c-1.94,0-2.45,1.72-2.45,3.67v0.68h3.05v1.74h-3.04v10.88
					H428.64z"/>
				<path class="st7" d="M456.47,336.1c-0.14-2.44-0.3-5.41-0.28-7.58h-0.07c-0.6,2.04-1.33,4.26-2.21,6.67l-3.11,8.53h-1.71
					l-2.87-8.37c-0.84-2.48-1.52-4.74-2.01-6.82h-0.06c-0.06,2.19-0.17,5.12-0.34,7.76l-0.47,7.55h-2.16l1.22-17.59h2.9l2.99,8.51
					c0.72,2.15,1.32,4.09,1.77,5.92h0.07c0.46-1.78,1.08-3.72,1.86-5.92l3.14-8.51h2.9l1.09,17.59h-2.23L456.47,336.1z"/>
				<path class="st7" d="M469.54,343.82l-0.2-1.59h-0.07c-0.69,0.99-2.05,1.88-3.86,1.88c-2.55,0-3.85-1.81-3.85-3.62
					c0-3.06,2.71-4.74,7.58-4.7v-0.27c0-1.03-0.29-2.92-2.87-2.91c-1.17,0-2.4,0.35-3.29,0.94l-0.52-1.53
					c1.05-0.67,2.57-1.11,4.17-1.11c3.86,0,4.8,2.64,4.8,5.17v4.72c0,1.08,0.05,2.15,0.19,3.02H469.54z M469.19,337.38
					c-2.48-0.05-5.33,0.39-5.33,2.83c0,1.51,0.99,2.2,2.14,2.2c1.66,0,2.71-1.05,3.08-2.11c0.08-0.24,0.11-0.5,0.11-0.72V337.38z"/>
				<path class="st7" d="M475.13,325.3h2.28v7.88h0.05c0.38-0.64,0.95-1.22,1.65-1.62c0.67-0.4,1.48-0.64,2.35-0.64
					c1.7,0,4.4,1.04,4.4,5.39v7.51h-2.28v-7.26c0-2.04-0.77-3.75-2.92-3.75c-1.5,0-2.66,1.05-3.1,2.29
					c-0.12,0.32-0.15,0.67-0.15,1.09v7.63h-2.28V325.3z"/>
				<path class="st7" d="M496.61,343.82l-0.2-1.59h-0.07c-0.69,0.99-2.05,1.88-3.86,1.88c-2.55,0-3.85-1.81-3.85-3.62
					c0-3.06,2.71-4.74,7.58-4.7v-0.27c0-1.03-0.29-2.92-2.87-2.91c-1.17,0-2.4,0.35-3.29,0.94l-0.52-1.53
					c1.05-0.67,2.57-1.11,4.17-1.11c3.86,0,4.8,2.64,4.8,5.17v4.72c0,1.08,0.05,2.15,0.19,3.02H496.61z M496.25,337.38
					c-2.48-0.05-5.33,0.39-5.33,2.83c0,1.51,0.99,2.2,2.14,2.2c1.66,0,2.71-1.05,3.08-2.11c0.08-0.24,0.11-0.5,0.11-0.72V337.38z"/>
				<path class="st7" d="M502.18,335.13c0-1.49-0.04-2.76-0.1-3.93h2.01l0.09,2.47h0.08c0.59-1.69,1.98-2.76,3.51-2.76
					c0.25,0,0.43,0.02,0.64,0.06v2.16c-0.23-0.05-0.47-0.07-0.78-0.07c-1.62,0-2.76,1.22-3.07,2.94c-0.06,0.32-0.09,0.7-0.09,1.07
					v6.74h-2.28V335.13z"/>
				<path class="st7" d="M517.72,343.82l-0.2-1.59h-0.07c-0.69,0.99-2.05,1.88-3.86,1.88c-2.55,0-3.85-1.81-3.85-3.62
					c0-3.06,2.71-4.74,7.58-4.7v-0.27c0-1.03-0.29-2.92-2.87-2.91c-1.17,0-2.4,0.35-3.29,0.94l-0.52-1.53
					c1.05-0.67,2.57-1.11,4.17-1.11c3.86,0,4.8,2.64,4.8,5.17v4.72c0,1.08,0.05,2.15,0.19,3.02H517.72z M517.36,337.38
					c-2.48-0.05-5.33,0.39-5.33,2.83c0,1.51,0.99,2.2,2.14,2.2c1.66,0,2.71-1.05,3.08-2.11c0.08-0.24,0.11-0.5,0.11-0.72V337.38z"/>
				<path class="st7" d="M522.97,341.49c0.69,0.43,1.9,0.9,3.04,0.9c1.68,0,2.45-0.82,2.45-1.88c0-1.1-0.67-1.68-2.34-2.31
					c-2.28-0.83-3.36-2.07-3.35-3.58c0-2.03,1.65-3.7,4.37-3.7c1.28,0,2.39,0.35,3.09,0.78l-0.57,1.67
					c-0.49-0.3-1.41-0.74-2.59-0.74c-1.35,0-2.09,0.78-2.09,1.73c0,1.04,0.74,1.51,2.4,2.15c2.17,0.81,3.3,1.91,3.31,3.79
					c0,2.24-1.74,3.8-4.72,3.8c-1.38,0-2.66-0.36-3.55-0.88L522.97,341.49z"/>
				<path class="st7" d="M533.63,325.3h2.28v7.88h0.05c0.38-0.64,0.95-1.22,1.65-1.62c0.67-0.4,1.48-0.64,2.35-0.64
					c1.7,0,4.4,1.04,4.4,5.39v7.51h-2.28v-7.26c0-2.04-0.77-3.75-2.92-3.75c-1.5,0-2.66,1.05-3.1,2.29
					c-0.12,0.32-0.15,0.67-0.15,1.09v7.63h-2.28V325.3z"/>
				<path class="st7" d="M550.87,327.57v3.63h3.3v1.74h-3.3v6.8c0,1.57,0.45,2.46,1.74,2.46c0.59,0,1.03-0.07,1.33-0.17l0.1,1.74
					c-0.45,0.18-1.16,0.32-2.05,0.32c-1.05,0-1.93-0.35-2.48-0.97c-0.63-0.7-0.89-1.81-0.89-3.29v-6.89h-1.95v-1.74h1.95v-3.04
					L550.87,327.57z"/>
				<path class="st7" d="M556.75,335.13c0-1.49-0.04-2.76-0.1-3.93h2.01l0.09,2.47h0.08c0.59-1.69,1.98-2.76,3.51-2.76
					c0.25,0,0.43,0.02,0.64,0.06v2.16c-0.23-0.05-0.47-0.07-0.78-0.07c-1.62,0-2.76,1.22-3.07,2.94c-0.06,0.32-0.09,0.7-0.09,1.07
					v6.74h-2.28V335.13z"/>
				<path class="st7" d="M572.28,343.82l-0.2-1.59h-0.07c-0.69,0.99-2.05,1.88-3.86,1.88c-2.55,0-3.85-1.81-3.85-3.62
					c0-3.06,2.71-4.74,7.58-4.7v-0.27c0-1.03-0.29-2.92-2.87-2.91c-1.17,0-2.4,0.35-3.29,0.94l-0.52-1.53
					c1.05-0.67,2.57-1.11,4.17-1.11c3.86,0,4.8,2.64,4.8,5.17v4.72c0,1.08,0.05,2.15,0.19,3.02H572.28z M571.93,337.38
					c-2.48-0.05-5.33,0.39-5.33,2.83c0,1.51,0.99,2.2,2.14,2.2c1.66,0,2.71-1.05,3.08-2.11c0.08-0.24,0.11-0.5,0.11-0.72V337.38z"/>
				<path class="st7" d="M588.71,335.93v1.68h-6.44v-1.68H588.71z"/>
				<path class="st7" d="M606.11,335.58h-6.82v6.35h7.63v1.89h-9.91v-17.59h9.51v1.89h-7.22v5.57h6.82V335.58z"/>
				<path class="st7" d="M609.46,341.49c0.69,0.43,1.9,0.9,3.04,0.9c1.67,0,2.45-0.82,2.45-1.88c0-1.1-0.67-1.68-2.34-2.31
					c-2.28-0.83-3.36-2.07-3.35-3.58c0-2.03,1.65-3.7,4.37-3.7c1.28,0,2.39,0.35,3.09,0.78l-0.57,1.67
					c-0.49-0.3-1.41-0.74-2.59-0.74c-1.35,0-2.09,0.78-2.09,1.73c0,1.04,0.74,1.51,2.4,2.15c2.17,0.81,3.3,1.91,3.31,3.79
					c0,2.24-1.74,3.8-4.72,3.8c-1.38,0-2.66-0.36-3.55-0.88L609.46,341.49z"/>
				<path class="st7" d="M622.87,327.57v3.63h3.3v1.74h-3.3v6.8c0,1.57,0.45,2.46,1.74,2.46c0.59,0,1.03-0.07,1.33-0.17l0.1,1.74
					c-0.45,0.18-1.16,0.32-2.05,0.32c-1.05,0-1.93-0.35-2.48-0.97c-0.63-0.7-0.89-1.81-0.89-3.29v-6.89h-1.95v-1.74h1.95v-3.04
					L622.87,327.57z"/>
				<path class="st7" d="M639.64,325.3v15.27c0,1.12,0.04,2.38,0.1,3.25h-2.04l-0.12-2.18h-0.06c-0.7,1.41-2.22,2.47-4.28,2.47
					c-3.06,0-5.42-2.58-5.42-6.41c-0.02-4.22,2.6-6.78,5.67-6.78c1.94,0,3.24,0.91,3.81,1.91h0.05v-7.53H639.64z M637.36,336.34
					c0-0.3-0.03-0.68-0.1-0.98c-0.36-1.45-1.59-2.64-3.32-2.64c-2.38,0-3.8,2.08-3.8,4.86c0,2.56,1.28,4.69,3.75,4.69
					c1.54,0,2.93-1.04,3.35-2.76c0.08-0.3,0.11-0.62,0.11-0.98V336.34z"/>
				<path class="st7" d="M642.93,342.47c0-0.96,0.65-1.66,1.56-1.66c0.92,0,1.53,0.68,1.54,1.66c0,0.92-0.61,1.64-1.56,1.64
					C643.55,344.11,642.91,343.39,642.93,342.47z"/>
				<path class="st7" d="M653.87,333.27c0-0.95,0.64-1.65,1.55-1.65c0.92,0,1.53,0.68,1.53,1.65c0,0.91-0.6,1.63-1.55,1.63
					C654.49,334.9,653.85,334.18,653.87,333.27z M653.87,342.48c0-0.95,0.64-1.65,1.55-1.65c0.92,0,1.53,0.68,1.53,1.65
					c0,0.91-0.6,1.63-1.55,1.63C654.49,344.11,653.85,343.39,653.87,342.48z"/>
				<path class="st7" d="M669.59,328.99h-0.05l-2.95,1.59l-0.44-1.74l3.7-1.98h1.95v16.96h-2.21V328.99z"/>
				<path class="st7" d="M679.33,342.2c0.49,0.04,1.06,0.01,1.84-0.09c1.33-0.16,2.58-0.71,3.56-1.63c1.11-1.03,1.92-2.52,2.23-4.52
					l-0.07,0c-0.95,1.15-2.3,1.82-4.01,1.82c-3.05,0-5-2.3-5-5.2c0-3.19,2.33-6.02,5.8-6.02c3.46,0,5.61,2.81,5.61,7.16
					c0,3.72-1.26,6.32-2.93,7.95c-1.3,1.26-3.1,2.06-4.93,2.26c-0.82,0.12-1.57,0.16-2.09,0.14V342.2z M680.16,332.46
					c0,2.11,1.28,3.6,3.27,3.6c1.53,0,2.73-0.76,3.34-1.78c0.11-0.21,0.2-0.46,0.2-0.84c0.01-2.9-1.08-5.1-3.48-5.1
					C681.53,328.33,680.15,330.06,680.16,332.46z"/>
				<path class="st7" d="M698.47,343.82v-4.63h-7.88v-1.5l7.56-10.83h2.49v10.55h2.38v1.78h-2.38v4.63H698.47z M698.47,337.42v-5.67
					c0-0.88,0.03-1.77,0.09-2.66l-0.09-0.01c-0.53,1.01-0.94,1.74-1.41,2.52l-4.13,5.77l-0.01,0.05H698.47z"/>
				<path class="st7" d="M714.45,328.47c-0.49-0.01-1.06,0.02-1.74,0.13c-3.6,0.58-5.5,3.21-5.88,6.03h0.06
					c0.81-1.09,2.22-1.98,4.09-1.98c3.02,0,5.13,2.18,5.13,5.48c0,3.11-2.12,5.98-5.65,5.98c-3.61,0-5.99-2.82-5.99-7.22
					c0-3.34,1.19-5.98,2.87-7.65c1.4-1.39,3.28-2.24,5.42-2.51c0.67-0.11,1.24-0.13,1.66-0.13L714.45,328.47z M713.79,338.27
					c0-2.43-1.39-3.89-3.49-3.89c-1.39,0-2.68,0.85-3.31,2.08c-0.14,0.27-0.24,0.59-0.24,1.01c0.03,2.79,1.32,4.88,3.73,4.88
					C712.46,342.35,713.79,340.7,713.79,338.27z"/>
				<path class="st7" d="M717.51,346.97c1.85-2.58,3.27-5.96,3.27-10.65c0-4.69-1.4-8.01-3.27-10.61h1.78
					c1.65,2.14,3.42,5.49,3.42,10.63c-0.01,5.11-1.76,8.43-3.42,10.64H717.51z"/>
			</g>
		</g>
		<g>
			
				<radialGradient id="SVGID_1_" cx="717.963" cy="0.9821" r="224.0092" gradientTransform="matrix(0.7268 0 0 0.845 -148.8859 103.0105)" gradientUnits="userSpaceOnUse">
				<stop  offset="0.02" style="stop-color:#2B3990"/>
				<stop  offset="1" style="stop-color:#0088CE"/>
			</radialGradient>
			
				<rect x="228.75" y="24.72" style="fill:url(#SVGID_1_);stroke:#000000;stroke-width:2.9587;stroke-miterlimit:10;" width="288.37" height="158.25"/>
			<path class="st6" d="M367.73,146.17l33.33,14.94c0,0,14.54-20.66,63.64-19.62c0,0-49.08,0.85-62.49,26.13L367.73,146.17z"/>
			<g>
				
					<linearGradient id="SVGID_00000097468483359013889110000004460119922963910810_" gradientUnits="userSpaceOnUse" x1="372.9376" y1="135.0082" x2="372.9376" y2="50.2422">
					<stop  offset="0.177" style="stop-color:#2D3C97"/>
					<stop  offset="0.5122" style="stop-color:#F7941D"/>
					<stop  offset="1" style="stop-color:#FAC13F"/>
				</linearGradient>
				<circle style="fill:url(#SVGID_00000097468483359013889110000004460119922963910810_);" cx="372.94" cy="81.3" r="42.38"/>
				<path class="st5" d="M373.47,84.48l25.74,11.54c0,0,13.15-15.86,55.33-14.5c0,0-44.08,0-54.44,19.53L373.47,84.48z"/>
				<path class="st7" d="M411.34,42.92l14.92,6.69c0,0,7.06-9.28,31.08-7.91c0,0-24.56-0.5-30.56,10.82L411.34,42.92z"/>
				<path class="st7" d="M450.4,51.56l19.58,8.78c0,0,9.27-12.17,40.78-10.37c0,0-32.22-0.65-40.1,14.2L450.4,51.56z"/>
			</g>
			<g>
				<rect x="230.22" y="123.32" class="st25" width="285.43" height="58.07"/>
				
					<radialGradient id="SVGID_00000031165935055887704680000009237225043269287341_" cx="372.9376" cy="117.8893" r="102.0274" gradientTransform="matrix(0.9898 0 0 0.9735 3.8022 17.209)" gradientUnits="userSpaceOnUse">
					<stop  offset="0" style="stop-color:#FAC13F"/>
					<stop  offset="0.4944" style="stop-color:#B06F61"/>
					<stop  offset="0.7067" style="stop-color:#9A7171"/>
					<stop  offset="0.8464" style="stop-color:#3F74A2"/>
					<stop  offset="0.9312" style="stop-color:#0076C0"/>
					<stop  offset="0.9916" style="stop-color:#0076C0"/>
				</radialGradient>
				
					<rect x="230.22" y="126.62" style="fill:url(#SVGID_00000031165935055887704680000009237225043269287341_);" width="285.43" height="10.72"/>
				
					<radialGradient id="SVGID_00000178909226844962015430000007891398572956697510_" cx="372.9376" cy="130.1692" r="101.9971" gradientTransform="matrix(0.9898 0 0 0.9735 3.8022 17.209)" gradientUnits="userSpaceOnUse">
					<stop  offset="0" style="stop-color:#FAC13F"/>
					<stop  offset="0.2989" style="stop-color:#B06F61"/>
					<stop  offset="0.5447" style="stop-color:#9A7171"/>
					<stop  offset="0.7235" style="stop-color:#3F74A2"/>
					<stop  offset="0.9983" style="stop-color:#0076C0"/>
				</radialGradient>
				
					<rect x="230.22" y="139.81" style="fill:url(#SVGID_00000178909226844962015430000007891398572956697510_);" width="285.43" height="8.24"/>
				
					<radialGradient id="SVGID_00000131332782058232535110000000747690208486105002_" cx="372.9376" cy="143.9312" r="101.9778" gradientTransform="matrix(0.9898 0 0 0.9735 3.8022 17.209)" gradientUnits="userSpaceOnUse">
					<stop  offset="0" style="stop-color:#FAC13F"/>
					<stop  offset="0.2542" style="stop-color:#B06F61"/>
					<stop  offset="0.4553" style="stop-color:#9A7171"/>
					<stop  offset="0.6173" style="stop-color:#3F74A2"/>
					<stop  offset="0.9983" style="stop-color:#0076C0"/>
				</radialGradient>
				
					<rect x="230.22" y="154.24" style="fill:url(#SVGID_00000131332782058232535110000000747690208486105002_);" width="285.43" height="6.18"/>
				
					<radialGradient id="SVGID_00000070107346446865054580000010263425627129491090_" cx="372.9376" cy="155.9994" r="101.9746" gradientTransform="matrix(0.9898 0 0 0.9735 3.8022 17.209)" gradientUnits="userSpaceOnUse">
					<stop  offset="0" style="stop-color:#FAC13F"/>
					<stop  offset="0.1201" style="stop-color:#B06F61"/>
					<stop  offset="0.2709" style="stop-color:#9A7171"/>
					<stop  offset="0.4162" style="stop-color:#3F74A2"/>
					<stop  offset="0.9983" style="stop-color:#0076C0"/>
				</radialGradient>
				
					<rect x="230.22" y="166.2" style="fill:url(#SVGID_00000070107346446865054580000010263425627129491090_);" width="285.43" height="5.77"/>
				
					<radialGradient id="SVGID_00000170262177376738908940000008226013521931445155_" cx="365.7774" cy="134.9279" r="66.6287" gradientTransform="matrix(0.998 0 0 0.3894 7.6342 96.0238)" gradientUnits="userSpaceOnUse">
					<stop  offset="0" style="stop-color:#FAC13F"/>
					<stop  offset="0.243" style="stop-color:#FAC43D;stop-opacity:0.9469"/>
					<stop  offset="0.7067" style="stop-color:#FFEC00;stop-opacity:0.0661"/>
					<stop  offset="0.9983" style="stop-color:#FFF200;stop-opacity:0"/>
				</radialGradient>
				<polygon style="fill:url(#SVGID_00000170262177376738908940000008226013521931445155_);" points="281.76,125.17 332.57,171.97 
					412.52,171.97 463.63,125.42 				"/>
			</g>
			<g>
				
					<linearGradient id="SVGID_00000127005399895966611080000005157697074097357230_" gradientUnits="userSpaceOnUse" x1="279.7824" y1="117.9996" x2="291.1363" y2="117.9996">
					<stop  offset="0" style="stop-color:#FCD227"/>
					<stop  offset="0.9983" style="stop-color:#E2B055"/>
				</linearGradient>
				<path style="fill:url(#SVGID_00000127005399895966611080000005157697074097357230_);" d="M290.8,110.44h-9.52
					c-0.26,0-0.47,0.04-0.65,0.13c-0.18,0.09-0.32,0.2-0.44,0.34c-0.11,0.14-0.2,0.3-0.25,0.48c-0.05,0.18-0.08,0.36-0.1,0.54
					l-0.06,1.19c0,0.2,0.08,0.3,0.23,0.3h3.41c-0.04,0.58-0.09,1.21-0.14,1.9c-0.05,0.68-0.1,1.37-0.16,2.06
					c-0.06,0.69-0.11,1.37-0.16,2.05c-0.05,0.67-0.1,1.3-0.14,1.87c-0.04,0.57-0.07,1.07-0.1,1.5c-0.02,0.43-0.03,0.75-0.03,0.96
					c0,0.58,0.17,1.03,0.51,1.34c0.34,0.31,0.91,0.47,1.7,0.47h1.17c0.14,0,0.22-0.11,0.23-0.32l0.81-11.82h2.3
					c0.64,0,1.06-0.13,1.27-0.39c0.21-0.26,0.32-0.61,0.35-1.03l0.08-1.26c0-0.11-0.04-0.19-0.11-0.23
					C290.96,110.46,290.88,110.44,290.8,110.44z"/>
				
					<linearGradient id="SVGID_00000108274792792678025950000005235956106157719686_" gradientUnits="userSpaceOnUse" x1="291.8181" y1="117.9996" x2="303.0444" y2="117.9996">
					<stop  offset="0" style="stop-color:#FCD227"/>
					<stop  offset="0.9983" style="stop-color:#E2B055"/>
				</linearGradient>
				<path style="fill:url(#SVGID_00000108274792792678025950000005235956106157719686_);" d="M302.04,122.47l-1.79-2.56
					c0.97-0.45,1.67-1.12,2.11-1.98c0.44-0.87,0.66-1.85,0.66-2.96c0-0.72-0.1-1.38-0.29-1.96s-0.49-1.08-0.89-1.49
					c-0.41-0.41-0.93-0.73-1.59-0.96c-0.65-0.23-1.43-0.34-2.34-0.34c-0.3,0-0.64,0.01-1.01,0.03c-0.38,0.02-0.78,0.05-1.2,0.07
					c-0.43,0.03-0.87,0.05-1.33,0.08c-0.46,0.02-0.91,0.03-1.35,0.03c-0.14,0-0.23,0.09-0.28,0.27c-0.04,0.18-0.08,0.59-0.13,1.23
					c-0.03,0.51-0.07,1.21-0.12,2.11c-0.05,0.89-0.13,2.06-0.25,3.49c-0.06,0.68-0.11,1.35-0.16,2.01c-0.05,0.66-0.1,1.27-0.14,1.82
					c-0.04,0.55-0.07,1.03-0.1,1.44c-0.02,0.41-0.03,0.69-0.03,0.86c0,0.63,0.17,1.1,0.5,1.42c0.33,0.32,0.91,0.48,1.72,0.48h1.07
					c0.13,0,0.21-0.02,0.26-0.07c0.04-0.05,0.07-0.13,0.09-0.25c0-0.06,0.01-0.23,0.04-0.52c0.03-0.29,0.06-0.66,0.08-1.11
					c0.03-0.45,0.06-0.96,0.11-1.52c0.04-0.57,0.09-1.16,0.13-1.79c0.33,0.07,0.75,0.12,1.26,0.15c0.17,0.7,0.35,1.36,0.54,2
					c0.19,0.64,0.42,1.2,0.68,1.69c0.26,0.49,0.56,0.88,0.9,1.18c0.33,0.3,0.73,0.45,1.18,0.45c0.41,0,0.78-0.06,1.12-0.19
					c0.33-0.13,0.62-0.28,0.85-0.46c0.23-0.18,0.41-0.35,0.53-0.53c0.12-0.18,0.18-0.32,0.18-0.42c0-0.13-0.08-0.32-0.26-0.59
					C302.62,123.33,302.37,122.96,302.04,122.47z M299.33,116c-0.05,0.28-0.15,0.55-0.31,0.8c-0.16,0.25-0.37,0.46-0.65,0.63
					c-0.28,0.17-0.64,0.26-1.08,0.26c-0.37,0-0.8-0.06-1.3-0.17c0.06-0.78,0.1-1.52,0.14-2.21c0.04-0.69,0.07-1.28,0.1-1.78
					c0.24-0.03,0.47-0.05,0.68-0.07c0.21-0.02,0.4-0.03,0.57-0.03c0.71,0,1.21,0.16,1.49,0.47c0.28,0.31,0.43,0.76,0.43,1.34
					C299.4,115.46,299.38,115.71,299.33,116z"/>
				
					<linearGradient id="SVGID_00000147200514753796136160000013276944748039731590_" gradientUnits="userSpaceOnUse" x1="305.0894" y1="118.1065" x2="317.083" y2="118.1065">
					<stop  offset="0" style="stop-color:#FCD227"/>
					<stop  offset="0.9983" style="stop-color:#E2B055"/>
				</linearGradient>
				<path style="fill:url(#SVGID_00000147200514753796136160000013276944748039731590_);" d="M316.76,110.91
					c-0.14-0.14-0.35-0.26-0.63-0.34c-0.28-0.09-0.66-0.13-1.14-0.13h-1.17c-0.14,0-0.23,0.04-0.28,0.12
					c-0.04,0.08-0.06,0.26-0.06,0.54c0,0.18-0.01,0.53-0.04,1.02c-0.03,0.5-0.07,1.08-0.12,1.75c-0.05,0.67-0.11,1.38-0.17,2.15
					c-0.06,0.77-0.12,1.51-0.18,2.24c-0.03,0.3-0.08,0.68-0.14,1.15c-0.06,0.47-0.18,0.93-0.34,1.38c-0.16,0.46-0.4,0.85-0.7,1.17
					c-0.31,0.33-0.7,0.49-1.18,0.49c-0.38,0-0.68-0.1-0.88-0.29c-0.21-0.19-0.35-0.43-0.45-0.71c-0.09-0.28-0.15-0.58-0.17-0.89
					c-0.02-0.31-0.03-0.59-0.03-0.83c0-0.13,0.01-0.38,0.03-0.77c0.02-0.38,0.05-0.83,0.09-1.34c0.04-0.51,0.07-1.05,0.11-1.62
					c0.04-0.57,0.07-1.09,0.11-1.58c0.04-0.48,0.06-0.89,0.09-1.23c0.02-0.33,0.03-0.52,0.03-0.56c0-0.72-0.15-1.27-0.45-1.64
					c-0.3-0.37-0.88-0.55-1.75-0.55h-1.17c-0.11,0-0.2,0.04-0.26,0.12c-0.06,0.08-0.09,0.25-0.11,0.52
					c-0.01,0.26-0.04,0.63-0.09,1.12c-0.04,0.49-0.09,1.04-0.14,1.65c-0.05,0.61-0.1,1.25-0.16,1.93c-0.06,0.67-0.11,1.32-0.16,1.95
					c-0.05,0.63-0.09,1.2-0.12,1.74c-0.03,0.53-0.04,0.96-0.04,1.27c0,0.7,0.09,1.35,0.28,1.96c0.18,0.61,0.48,1.15,0.9,1.61
					c0.41,0.46,0.94,0.82,1.6,1.09c0.65,0.26,1.44,0.39,2.36,0.39c0.91,0,1.69-0.12,2.35-0.35c0.66-0.23,1.23-0.55,1.69-0.94
					c0.47-0.39,0.85-0.83,1.15-1.33c0.3-0.5,0.54-1.01,0.71-1.54c0.18-0.53,0.31-1.06,0.4-1.58c0.09-0.52,0.15-0.99,0.19-1.42
					c0.06-0.52,0.11-1.14,0.15-1.83c0.04-0.7,0.08-1.37,0.11-2.02c0.03-0.65,0.05-1.24,0.08-1.75c0.02-0.51,0.03-0.86,0.03-1.04
					c0-0.2-0.02-0.39-0.05-0.58C316.99,111.21,316.91,111.05,316.76,110.91z"/>
				
					<linearGradient id="SVGID_00000149365683592205346950000016126595476747904139_" gradientUnits="userSpaceOnUse" x1="318.5739" y1="117.9996" x2="328.7987" y2="117.9996">
					<stop  offset="0" style="stop-color:#FCD227"/>
					<stop  offset="0.9983" style="stop-color:#E2B055"/>
				</linearGradient>
				<path style="fill:url(#SVGID_00000149365683592205346950000016126595476747904139_);" d="M324.28,113.46
					c0.33,0,0.58,0.07,0.77,0.22c0.18,0.15,0.32,0.33,0.4,0.54c0.09,0.21,0.14,0.43,0.16,0.66c0.02,0.23,0.03,0.41,0.03,0.55
					c0,0.16,0.04,0.26,0.11,0.31c0.07,0.05,0.23,0.08,0.49,0.08c0.82,0,1.46-0.21,1.9-0.63c0.44-0.42,0.66-1.03,0.66-1.82
					c0-0.94-0.32-1.7-0.97-2.28c-0.65-0.58-1.64-0.87-2.97-0.87c-0.68,0-1.37,0.09-2.05,0.27c-0.69,0.18-1.31,0.47-1.85,0.87
					c-0.55,0.41-0.99,0.93-1.34,1.57c-0.35,0.64-0.52,1.42-0.52,2.34c0,0.82,0.13,1.5,0.4,2.02c0.27,0.52,0.61,0.95,1.02,1.29
					c0.41,0.33,0.86,0.6,1.33,0.79c0.48,0.19,0.92,0.38,1.33,0.55c0.41,0.18,0.75,0.37,1.02,0.59s0.4,0.5,0.4,0.85
					c0,0.2-0.05,0.37-0.14,0.51c-0.09,0.14-0.21,0.26-0.36,0.34c-0.15,0.09-0.32,0.15-0.51,0.18c-0.19,0.04-0.39,0.05-0.59,0.05
					c-0.5,0-0.93-0.09-1.31-0.26s-0.71-0.36-0.99-0.58c-0.28-0.21-0.54-0.4-0.76-0.57c-0.22-0.17-0.43-0.26-0.63-0.26
					c-0.28,0-0.48,0.21-0.59,0.62c-0.11,0.41-0.16,1.09-0.16,2.02c0,0.23,0.13,0.48,0.38,0.76c0.26,0.28,0.61,0.53,1.06,0.77
					c0.45,0.23,0.97,0.43,1.58,0.59c0.6,0.16,1.26,0.23,1.97,0.23c0.82,0,1.54-0.11,2.16-0.34c0.62-0.23,1.13-0.54,1.53-0.95
					c0.4-0.4,0.71-0.88,0.92-1.43c0.21-0.55,0.31-1.13,0.31-1.76c0-0.8-0.15-1.45-0.44-1.97c-0.29-0.52-0.66-0.95-1.1-1.3
					c-0.44-0.35-0.92-0.63-1.44-0.84c-0.52-0.21-1-0.42-1.44-0.63c-0.44-0.21-0.81-0.43-1.1-0.67c-0.29-0.24-0.44-0.55-0.44-0.94
					c0-0.44,0.18-0.8,0.53-1.08C323.42,113.6,323.83,113.46,324.28,113.46z"/>
				
					<linearGradient id="SVGID_00000078032597449525785870000017697174483509783450_" gradientUnits="userSpaceOnUse" x1="330.0769" y1="117.9996" x2="341.4308" y2="117.9996">
					<stop  offset="0" style="stop-color:#FCD227"/>
					<stop  offset="0.9983" style="stop-color:#E2B055"/>
				</linearGradient>
				<path style="fill:url(#SVGID_00000078032597449525785870000017697174483509783450_);" d="M341.09,110.44h-9.52
					c-0.25,0-0.47,0.04-0.65,0.13s-0.32,0.2-0.44,0.34c-0.11,0.14-0.19,0.3-0.25,0.48c-0.05,0.18-0.08,0.36-0.09,0.54l-0.06,1.19
					c0,0.2,0.08,0.3,0.23,0.3h3.41c-0.04,0.58-0.09,1.21-0.14,1.9c-0.05,0.68-0.1,1.37-0.16,2.06c-0.06,0.69-0.11,1.37-0.16,2.05
					c-0.05,0.67-0.1,1.3-0.14,1.87c-0.04,0.57-0.07,1.07-0.09,1.5c-0.02,0.43-0.03,0.75-0.03,0.96c0,0.58,0.17,1.03,0.51,1.34
					c0.34,0.31,0.91,0.47,1.7,0.47h1.17c0.14,0,0.22-0.11,0.23-0.32l0.81-11.82h2.3c0.64,0,1.06-0.13,1.27-0.39
					c0.21-0.26,0.32-0.61,0.35-1.03l0.08-1.26c0-0.11-0.03-0.19-0.11-0.23C341.25,110.46,341.18,110.44,341.09,110.44z"/>
				
					<linearGradient id="SVGID_00000158731957376634633370000005225410541211439798_" gradientUnits="userSpaceOnUse" x1="346.2456" y1="118.1065" x2="358.2398" y2="118.1065">
					<stop  offset="0" style="stop-color:#FCD227"/>
					<stop  offset="0.9983" style="stop-color:#E2B055"/>
				</linearGradient>
				<path style="fill:url(#SVGID_00000158731957376634633370000005225410541211439798_);" d="M357.92,110.91
					c-0.14-0.14-0.35-0.26-0.63-0.34c-0.28-0.09-0.66-0.13-1.14-0.13h-1.17c-0.14,0-0.23,0.04-0.28,0.12
					c-0.04,0.08-0.06,0.26-0.06,0.54c0,0.18-0.01,0.53-0.04,1.02c-0.03,0.5-0.07,1.08-0.12,1.75c-0.05,0.67-0.11,1.38-0.17,2.15
					c-0.06,0.77-0.12,1.51-0.18,2.24c-0.03,0.3-0.07,0.68-0.14,1.15c-0.06,0.47-0.18,0.93-0.34,1.38c-0.16,0.46-0.4,0.85-0.7,1.17
					c-0.31,0.33-0.7,0.49-1.18,0.49c-0.38,0-0.68-0.1-0.88-0.29c-0.21-0.19-0.35-0.43-0.45-0.71c-0.09-0.28-0.15-0.58-0.17-0.89
					c-0.02-0.31-0.03-0.59-0.03-0.83c0-0.13,0.01-0.38,0.03-0.77c0.02-0.38,0.05-0.83,0.09-1.34c0.04-0.51,0.07-1.05,0.11-1.62
					c0.04-0.57,0.07-1.09,0.11-1.58c0.04-0.48,0.06-0.89,0.09-1.23c0.02-0.33,0.03-0.52,0.03-0.56c0-0.72-0.15-1.27-0.45-1.64
					c-0.3-0.37-0.88-0.55-1.75-0.55h-1.17c-0.11,0-0.2,0.04-0.26,0.12c-0.06,0.08-0.09,0.25-0.11,0.52
					c-0.01,0.26-0.04,0.63-0.09,1.12c-0.04,0.49-0.09,1.04-0.14,1.65c-0.05,0.61-0.1,1.25-0.16,1.93c-0.06,0.67-0.11,1.32-0.16,1.95
					c-0.05,0.63-0.09,1.2-0.12,1.74c-0.03,0.53-0.04,0.96-0.04,1.27c0,0.7,0.09,1.35,0.28,1.96c0.18,0.61,0.48,1.15,0.89,1.61
					c0.41,0.46,0.94,0.82,1.6,1.09c0.65,0.26,1.44,0.39,2.36,0.39c0.91,0,1.69-0.12,2.35-0.35c0.66-0.23,1.23-0.55,1.69-0.94
					c0.47-0.39,0.85-0.83,1.15-1.33c0.3-0.5,0.54-1.01,0.71-1.54c0.18-0.53,0.31-1.06,0.39-1.58c0.09-0.52,0.15-0.99,0.19-1.42
					c0.06-0.52,0.11-1.14,0.15-1.83c0.04-0.7,0.08-1.37,0.11-2.02c0.03-0.65,0.05-1.24,0.08-1.75c0.02-0.51,0.03-0.86,0.03-1.04
					c0-0.2-0.02-0.39-0.05-0.58C358.15,111.21,358.06,111.05,357.92,110.91z"/>
				
					<linearGradient id="SVGID_00000036224703646885450530000011729657573683335857_" gradientUnits="userSpaceOnUse" x1="359.7307" y1="117.9996" x2="369.9566" y2="117.9996">
					<stop  offset="0" style="stop-color:#FCD227"/>
					<stop  offset="0.9983" style="stop-color:#E2B055"/>
				</linearGradient>
				<path style="fill:url(#SVGID_00000036224703646885450530000011729657573683335857_);" d="M365.44,113.46
					c0.33,0,0.58,0.07,0.77,0.22c0.18,0.15,0.32,0.33,0.41,0.54c0.08,0.21,0.14,0.43,0.16,0.66c0.02,0.23,0.03,0.41,0.03,0.55
					c0,0.16,0.03,0.26,0.11,0.31c0.07,0.05,0.23,0.08,0.49,0.08c0.82,0,1.46-0.21,1.9-0.63c0.44-0.42,0.66-1.03,0.66-1.82
					c0-0.94-0.32-1.7-0.97-2.28c-0.64-0.58-1.64-0.87-2.97-0.87c-0.68,0-1.37,0.09-2.06,0.27c-0.69,0.18-1.31,0.47-1.85,0.87
					c-0.55,0.41-0.99,0.93-1.34,1.57c-0.35,0.64-0.52,1.42-0.52,2.34c0,0.82,0.14,1.5,0.4,2.02c0.27,0.52,0.61,0.95,1.02,1.29
					c0.41,0.33,0.86,0.6,1.33,0.79c0.48,0.19,0.92,0.38,1.33,0.55c0.41,0.18,0.75,0.37,1.02,0.59c0.27,0.21,0.4,0.5,0.4,0.85
					c0,0.2-0.05,0.37-0.14,0.51c-0.09,0.14-0.21,0.26-0.36,0.34c-0.15,0.09-0.32,0.15-0.51,0.18c-0.19,0.04-0.39,0.05-0.58,0.05
					c-0.5,0-0.93-0.09-1.31-0.26s-0.71-0.36-0.99-0.58c-0.28-0.21-0.54-0.4-0.76-0.57c-0.22-0.17-0.43-0.26-0.63-0.26
					c-0.28,0-0.48,0.21-0.59,0.62c-0.11,0.41-0.16,1.09-0.16,2.02c0,0.23,0.13,0.48,0.38,0.76c0.26,0.28,0.61,0.53,1.05,0.77
					c0.45,0.23,0.97,0.43,1.58,0.59c0.6,0.16,1.26,0.23,1.97,0.23c0.82,0,1.55-0.11,2.16-0.34c0.62-0.23,1.13-0.54,1.53-0.95
					c0.4-0.4,0.71-0.88,0.92-1.43c0.21-0.55,0.31-1.13,0.31-1.76c0-0.8-0.15-1.45-0.44-1.97c-0.29-0.52-0.66-0.95-1.1-1.3
					c-0.44-0.35-0.92-0.63-1.44-0.84c-0.52-0.21-1-0.42-1.44-0.63c-0.44-0.21-0.81-0.43-1.1-0.67c-0.29-0.24-0.44-0.55-0.44-0.94
					c0-0.44,0.18-0.8,0.53-1.08C364.58,113.6,364.98,113.46,365.44,113.46z"/>
				
					<linearGradient id="SVGID_00000151527072285128062770000014065042081437649308_" gradientUnits="userSpaceOnUse" x1="375.7075" y1="117.9892" x2="389.5116" y2="117.9892">
					<stop  offset="0" style="stop-color:#FCD227"/>
					<stop  offset="0.9983" style="stop-color:#E2B055"/>
				</linearGradient>
				<path style="fill:url(#SVGID_00000151527072285128062770000014065042081437649308_);" d="M389.15,116.76h-7.07
					c-0.51,0-0.9-0.15-1.16-0.44c-0.26-0.29-0.39-0.65-0.39-1.08c0-0.23,0.04-0.45,0.12-0.67c0.08-0.22,0.19-0.42,0.34-0.61
					c0.15-0.18,0.34-0.33,0.56-0.45c0.23-0.11,0.49-0.17,0.79-0.17c0.35,0,0.67,0.11,0.94,0.33c0.27,0.22,0.43,0.65,0.49,1.29
					c0.04,0.11,0.08,0.18,0.11,0.21c0.03,0.03,0.12,0.04,0.28,0.04c0.89,0,1.58-0.18,2.04-0.53c0.47-0.35,0.7-0.89,0.7-1.62
					c0-0.4-0.07-0.77-0.22-1.12c-0.15-0.35-0.39-0.65-0.72-0.92c-0.33-0.26-0.76-0.47-1.28-0.62c-0.52-0.15-1.15-0.22-1.89-0.22
					c-0.95,0-1.79,0.12-2.5,0.37c-0.72,0.25-1.32,0.58-1.8,0.98s-0.85,0.87-1.1,1.38c-0.25,0.52-0.37,1.06-0.37,1.61
					s0.12,1.08,0.36,1.58c0.24,0.5,0.58,0.91,1.02,1.24c-0.85,0.4-1.51,0.93-1.98,1.59c-0.47,0.66-0.7,1.5-0.7,2.52
					c0,1.36,0.43,2.42,1.29,3.17c0.86,0.75,2.16,1.13,3.91,1.13c0.97,0,1.85-0.14,2.64-0.41c0.8-0.27,1.48-0.68,2.06-1.22
					c0.57-0.55,1.04-1.24,1.38-2.08c0.35-0.84,0.56-1.83,0.65-2.98c0.37,0,0.67-0.02,0.9-0.05s0.42-0.1,0.55-0.18
					c0.14-0.09,0.23-0.2,0.28-0.35c0.05-0.15,0.08-0.33,0.1-0.54l0.04-0.89c-0.01-0.1-0.06-0.17-0.13-0.22
					C389.31,116.79,389.23,116.76,389.15,116.76z M383.25,121.83c-0.47,0.55-1.04,0.83-1.7,0.83c-0.6,0-1.06-0.18-1.39-0.53
					c-0.33-0.35-0.5-0.78-0.5-1.28c0-0.47,0.15-0.88,0.45-1.24c0.3-0.35,0.73-0.53,1.3-0.53h2.79
					C384.03,120.36,383.72,121.28,383.25,121.83z"/>
				
					<linearGradient id="SVGID_00000058590122969530318640000017901133046321648517_" gradientUnits="userSpaceOnUse" x1="395.3053" y1="118.021" x2="406.2766" y2="118.021">
					<stop  offset="0" style="stop-color:#FCD227"/>
					<stop  offset="0.9983" style="stop-color:#E2B055"/>
				</linearGradient>
				<path style="fill:url(#SVGID_00000058590122969530318640000017901133046321648517_);" d="M405.81,116.23
					c0.17-0.33,0.29-0.67,0.36-1.03c0.07-0.36,0.11-0.71,0.11-1.05c0-0.61-0.11-1.16-0.34-1.64c-0.23-0.48-0.58-0.89-1.06-1.21
					c-0.48-0.33-1.11-0.58-1.89-0.76c-0.77-0.18-1.7-0.27-2.78-0.27c-0.44,0-0.95,0.01-1.54,0.04c-0.59,0.03-1.3,0.07-2.14,0.13
					c-0.1,0-0.17,0.02-0.22,0.05c-0.05,0.03-0.09,0.09-0.11,0.17c-0.02,0.08-0.04,0.19-0.04,0.33c-0.01,0.14-0.01,0.33-0.01,0.55
					c0,0.11,0,0.25-0.01,0.41c-0.01,0.16-0.02,0.45-0.05,0.85c-0.03,0.4-0.07,0.98-0.13,1.71c-0.06,0.74-0.14,1.74-0.23,3
					c-0.08,1.02-0.15,1.87-0.2,2.55c-0.05,0.67-0.09,1.23-0.12,1.65c-0.03,0.43-0.05,0.76-0.06,0.99c-0.02,0.23-0.02,0.41-0.02,0.54
					c0,0.43,0.06,0.8,0.18,1.11c0.12,0.31,0.34,0.57,0.66,0.78c0.32,0.21,0.75,0.36,1.29,0.47c0.54,0.11,1.23,0.16,2.07,0.16
					c1.31,0,2.39-0.13,3.26-0.38s1.56-0.6,2.09-1.03c0.53-0.43,0.89-0.94,1.11-1.51c0.21-0.57,0.32-1.19,0.32-1.84
					c0-0.81-0.17-1.51-0.51-2.1s-0.92-1.01-1.75-1.27c0.44-0.11,0.81-0.29,1.1-0.54C405.41,116.85,405.64,116.56,405.81,116.23z
					 M402.58,121.7c-0.05,0.23-0.15,0.45-0.3,0.64c-0.15,0.19-0.36,0.35-0.63,0.48c-0.27,0.13-0.63,0.19-1.07,0.19
					c-0.41,0-0.87-0.08-1.38-0.23l0.23-3.47c0.24-0.04,0.48-0.07,0.7-0.1c0.23-0.02,0.42-0.03,0.58-0.03c0.71,0,1.21,0.18,1.5,0.54
					c0.29,0.36,0.44,0.81,0.44,1.33C402.65,121.24,402.63,121.46,402.58,121.7z M402.79,115.36c-0.05,0.18-0.15,0.36-0.3,0.51
					c-0.15,0.16-0.35,0.28-0.61,0.38c-0.25,0.1-0.6,0.15-1.02,0.15c-0.36,0-0.76-0.06-1.21-0.17c0.04-0.58,0.08-1.12,0.1-1.62
					c0.02-0.5,0.05-0.93,0.07-1.3c0.2-0.03,0.4-0.05,0.59-0.08c0.19-0.02,0.37-0.03,0.52-0.03c0.71,0,1.21,0.16,1.5,0.48
					c0.29,0.32,0.44,0.7,0.44,1.14C402.87,115,402.84,115.17,402.79,115.36z"/>
				
					<linearGradient id="SVGID_00000183223195354388120140000013358115688772389805_" gradientUnits="userSpaceOnUse" x1="408.1928" y1="117.9996" x2="417.2676" y2="117.9996">
					<stop  offset="0" style="stop-color:#FCD227"/>
					<stop  offset="0.9983" style="stop-color:#E2B055"/>
				</linearGradient>
				<path style="fill:url(#SVGID_00000183223195354388120140000013358115688772389805_);" d="M416.93,110.44h-7.5
					c-0.23,0-0.34,0.11-0.34,0.32c0,0.24-0.02,0.69-0.06,1.34c-0.04,0.65-0.1,1.41-0.17,2.28c-0.07,0.87-0.14,1.79-0.21,2.77
					c-0.07,0.98-0.14,1.91-0.21,2.79c-0.07,0.88-0.13,1.67-0.17,2.35c-0.04,0.69-0.06,1.18-0.06,1.46c0,0.58,0.17,1.03,0.51,1.34
					c0.34,0.31,0.91,0.47,1.7,0.47h4.9c0.64,0,1.06-0.13,1.27-0.39c0.21-0.26,0.32-0.61,0.35-1.03l0.09-1.26
					c0-0.1-0.04-0.17-0.11-0.22c-0.07-0.05-0.15-0.07-0.23-0.07h-4.69l0.23-3.17h1.85c0.64,0,1.06-0.13,1.27-0.39
					c0.21-0.26,0.32-0.61,0.35-1.03l0.09-1.26c0-0.11-0.03-0.19-0.11-0.23c-0.07-0.04-0.15-0.06-0.23-0.06h-3.03l0.21-3h2.94
					c0.64,0,1.06-0.13,1.27-0.39c0.21-0.26,0.32-0.61,0.35-1.03l0.08-1.26c0-0.11-0.03-0.19-0.11-0.23
					C417.09,110.46,417.01,110.44,416.93,110.44z"/>
				
					<linearGradient id="SVGID_00000110449482175573369070000010356242584579179435_" gradientUnits="userSpaceOnUse" x1="423.4462" y1="117.9996" x2="432.521" y2="117.9996">
					<stop  offset="0" style="stop-color:#FCD227"/>
					<stop  offset="0.9983" style="stop-color:#E2B055"/>
				</linearGradient>
				<path style="fill:url(#SVGID_00000110449482175573369070000010356242584579179435_);" d="M432.18,110.44h-7.5
					c-0.23,0-0.34,0.11-0.34,0.32c0,0.24-0.02,0.69-0.06,1.34c-0.04,0.65-0.1,1.41-0.17,2.28c-0.07,0.87-0.14,1.79-0.21,2.77
					c-0.07,0.98-0.14,1.91-0.21,2.79s-0.13,1.67-0.17,2.35c-0.04,0.69-0.06,1.18-0.06,1.46c0,0.58,0.17,1.03,0.51,1.34
					c0.34,0.31,0.91,0.47,1.7,0.47h1.17c0.13,0,0.2-0.02,0.2-0.07c0.01-0.05,0.02-0.13,0.03-0.25l0.4-5.84h1.85
					c0.64,0,1.06-0.13,1.27-0.39c0.21-0.26,0.32-0.61,0.35-1.03l0.09-1.26c0-0.11-0.04-0.19-0.11-0.23
					c-0.07-0.04-0.15-0.06-0.23-0.06h-3.02l0.21-3h2.94c0.64,0,1.06-0.13,1.27-0.39c0.21-0.26,0.32-0.61,0.35-1.03l0.09-1.26
					c0-0.11-0.04-0.19-0.11-0.23C432.34,110.46,432.26,110.44,432.18,110.44z"/>
				
					<linearGradient id="SVGID_00000035527543552526066690000006103020249964171194_" gradientUnits="userSpaceOnUse" x1="433.33" y1="117.9996" x2="444.5568" y2="117.9996">
					<stop  offset="0" style="stop-color:#FCD227"/>
					<stop  offset="0.9983" style="stop-color:#E2B055"/>
				</linearGradient>
				<path style="fill:url(#SVGID_00000035527543552526066690000006103020249964171194_);" d="M443.56,122.47l-1.79-2.56
					c0.97-0.45,1.67-1.12,2.11-1.98c0.44-0.87,0.66-1.85,0.66-2.96c0-0.72-0.1-1.38-0.29-1.96c-0.19-0.58-0.49-1.08-0.89-1.49
					c-0.4-0.41-0.93-0.73-1.59-0.96c-0.65-0.23-1.43-0.34-2.34-0.34c-0.3,0-0.64,0.01-1.01,0.03c-0.38,0.02-0.78,0.05-1.2,0.07
					c-0.43,0.03-0.87,0.05-1.33,0.08c-0.46,0.02-0.91,0.03-1.35,0.03c-0.14,0-0.23,0.09-0.28,0.27c-0.04,0.18-0.08,0.59-0.13,1.23
					c-0.03,0.51-0.07,1.21-0.12,2.11c-0.05,0.89-0.13,2.06-0.25,3.49c-0.06,0.68-0.11,1.35-0.16,2.01
					c-0.05,0.66-0.09,1.27-0.14,1.82c-0.04,0.55-0.07,1.03-0.09,1.44c-0.02,0.41-0.03,0.69-0.03,0.86c0,0.63,0.17,1.1,0.5,1.42
					c0.33,0.32,0.9,0.48,1.72,0.48h1.06c0.13,0,0.21-0.02,0.26-0.07c0.04-0.05,0.07-0.13,0.09-0.25c0-0.06,0.01-0.23,0.04-0.52
					c0.03-0.29,0.06-0.66,0.09-1.11c0.03-0.45,0.06-0.96,0.11-1.52c0.04-0.57,0.09-1.16,0.13-1.79c0.33,0.07,0.75,0.12,1.26,0.15
					c0.17,0.7,0.35,1.36,0.54,2c0.19,0.64,0.42,1.2,0.68,1.69c0.26,0.49,0.56,0.88,0.89,1.18c0.33,0.3,0.73,0.45,1.18,0.45
					c0.41,0,0.78-0.06,1.12-0.19c0.33-0.13,0.62-0.28,0.85-0.46c0.23-0.18,0.41-0.35,0.53-0.53c0.12-0.18,0.18-0.32,0.18-0.42
					c0-0.13-0.09-0.32-0.26-0.59C444.13,123.33,443.88,122.96,443.56,122.47z M440.84,116c-0.05,0.28-0.15,0.55-0.31,0.8
					c-0.16,0.25-0.37,0.46-0.65,0.63c-0.28,0.17-0.64,0.26-1.08,0.26c-0.37,0-0.8-0.06-1.3-0.17c0.06-0.78,0.1-1.52,0.14-2.21
					c0.04-0.69,0.07-1.28,0.1-1.78c0.24-0.03,0.47-0.05,0.68-0.07c0.21-0.02,0.4-0.03,0.57-0.03c0.71,0,1.21,0.16,1.49,0.47
					c0.28,0.31,0.43,0.76,0.43,1.34C440.91,115.46,440.89,115.71,440.84,116z"/>
				
					<linearGradient id="SVGID_00000155130735742174480220000017144537810464018106_" gradientUnits="userSpaceOnUse" x1="446.473" y1="117.9996" x2="455.5478" y2="117.9996">
					<stop  offset="0" style="stop-color:#FCD227"/>
					<stop  offset="0.9983" style="stop-color:#E2B055"/>
				</linearGradient>
				<path style="fill:url(#SVGID_00000155130735742174480220000017144537810464018106_);" d="M455.21,110.44h-7.5
					c-0.23,0-0.34,0.11-0.34,0.32c0,0.24-0.02,0.69-0.06,1.34c-0.04,0.65-0.1,1.41-0.17,2.28c-0.07,0.87-0.14,1.79-0.21,2.77
					c-0.07,0.98-0.14,1.91-0.21,2.79c-0.07,0.88-0.13,1.67-0.17,2.35c-0.04,0.69-0.06,1.18-0.06,1.46c0,0.58,0.17,1.03,0.51,1.34
					c0.34,0.31,0.91,0.47,1.7,0.47h4.9c0.64,0,1.06-0.13,1.27-0.39c0.21-0.26,0.32-0.61,0.35-1.03l0.09-1.26
					c0-0.1-0.04-0.17-0.11-0.22c-0.07-0.05-0.15-0.07-0.23-0.07h-4.69l0.23-3.17h1.85c0.64,0,1.06-0.13,1.27-0.39
					c0.21-0.26,0.32-0.61,0.35-1.03l0.09-1.26c0-0.11-0.03-0.19-0.11-0.23c-0.07-0.04-0.15-0.06-0.23-0.06h-3.03l0.21-3h2.94
					c0.64,0,1.06-0.13,1.27-0.39c0.21-0.26,0.32-0.61,0.35-1.03l0.08-1.26c0-0.11-0.03-0.19-0.11-0.23
					C455.37,110.46,455.29,110.44,455.21,110.44z"/>
				
					<linearGradient id="SVGID_00000003803887084739595830000009087968854394598842_" gradientUnits="userSpaceOnUse" x1="457.1462" y1="117.9996" x2="466.221" y2="117.9996">
					<stop  offset="0" style="stop-color:#FCD227"/>
					<stop  offset="0.9983" style="stop-color:#E2B055"/>
				</linearGradient>
				<path style="fill:url(#SVGID_00000003803887084739595830000009087968854394598842_);" d="M464.52,113.42
					c0.64,0,1.06-0.13,1.27-0.39c0.21-0.26,0.32-0.61,0.35-1.03l0.08-1.26c0-0.11-0.04-0.19-0.11-0.23
					c-0.07-0.04-0.15-0.06-0.23-0.06h-7.5c-0.23,0-0.34,0.11-0.34,0.32c0,0.24-0.02,0.69-0.06,1.34c-0.04,0.65-0.1,1.41-0.17,2.28
					c-0.07,0.87-0.14,1.79-0.21,2.77c-0.07,0.98-0.14,1.91-0.21,2.79c-0.07,0.88-0.13,1.67-0.17,2.35
					c-0.04,0.69-0.06,1.18-0.06,1.46c0,0.58,0.17,1.03,0.51,1.34c0.34,0.31,0.91,0.47,1.7,0.47h4.9c0.64,0,1.06-0.13,1.27-0.39
					c0.21-0.26,0.32-0.61,0.35-1.03l0.09-1.26c0-0.1-0.04-0.17-0.11-0.22c-0.07-0.05-0.15-0.07-0.23-0.07h-4.69l0.23-3.17h1.85
					c0.64,0,1.06-0.13,1.27-0.39c0.21-0.26,0.32-0.61,0.35-1.03l0.09-1.26c0-0.11-0.04-0.19-0.11-0.23
					c-0.07-0.04-0.15-0.06-0.23-0.06h-3.03l0.21-3H464.52z"/>
			</g>
		</g>
	</g>
</g>
</svg>
