<?xml version="1.0" encoding="utf-8"?>
<!-- Generator: Adobe Illustrator 23.0.0, SVG Export Plug-In . SVG Version: 6.00 Build 0)  -->
<svg version="1.1" id="Layer_1" xmlns="http://www.w3.org/2000/svg" xmlns:xlink="http://www.w3.org/1999/xlink" x="0px" y="0px"
	 viewBox="0 0 64 64" style="enable-background:new 0 0 64 64;" xml:space="preserve">
<style type="text/css">
	.st0{fill:#FFFFFF;stroke:#FFFFFF;stroke-width:2;stroke-miterlimit:10;}
	.st1{fill:#FFFFFF;stroke:#FFFFFF;stroke-width:0.25;stroke-miterlimit:10;}
	.st2{fill:#FFFFFF;}
</style>
<g>
	<path class="st0" d="M39.6,19.2c0.2-0.2,0.3-0.5,0.4-0.7c0.4,0.1,0.8,0.2,1.1,0.5c0.7,0.5,1.5,0.7,2.3,0.7c0.3,0,0.5,0,0.8-0.1
		c1.1-0.2,2-0.8,2.7-1.7c0.3-0.5,0.9-0.9,1.5-1c0.6-0.1,1.3,0.1,1.8,0.4c0.9,0.6,2,0.9,3.1,0.7L52.9,16c-0.6,0.1-1.3,0-1.8-0.4
		c-1.9-1.3-4.5-0.8-5.8,1c-0.3,0.5-0.9,0.9-1.5,1c-0.3,0.1-0.6,0.1-0.9,0c0.6-0.2,1.1-0.4,1.6-0.8c0.8-0.7,1.4-1.7,1.5-2.8
		c0-0.6,0.3-1.2,0.8-1.6c0.5-0.4,1.1-0.6,1.8-0.5c1.1,0.1,2.2-0.2,3-1l-1.3-1.5c-0.5,0.4-1.1,0.6-1.8,0.5c-2.3-0.2-4.3,1.5-4.5,3.8
		c0,0.6-0.3,1.2-0.8,1.6c-0.5,0.4-1.1,0.6-1.7,0.5c-0.6,0-1.2,0-1.8,0.2c-0.3-0.5-0.7-0.9-1.2-1.1L43,6.1c0.2-0.3,0.1-0.7,0-1
		c-0.2-0.3-0.5-0.5-0.8-0.5c-0.7,0-1.4-0.3-1.8-0.8c-1.7-1.6-4.4-1.6-6.2,0c-0.5,0.5-1.2,0.8-1.9,0.8c-0.7,0-1.4-0.3-1.9-0.8
		c-1.7-1.6-4.4-1.6-6.2,0c-0.5,0.5-1.2,0.8-1.9,0.8c-0.3,0-0.7,0.2-0.8,0.5c-0.2,0.3-0.2,0.7,0,1l4.4,8.8c-0.7,0.4-1.3,1.1-1.5,1.9
		c-0.2,0.8,0,1.7,0.5,2.4c-9.1,2.4-15.4,10.6-15.4,20V57c0,2.7,2.2,4.9,4.9,4.9H50c2.7,0,4.9-2.2,4.9-4.9V39.2
		C54.9,29.8,48.6,21.6,39.6,19.2z M25.4,5.4c0.5-0.5,1.2-0.8,1.9-0.8c0.7,0,1.4,0.3,1.9,0.8c1.7,1.6,4.4,1.6,6.2,0
		c0.5-0.5,1.2-0.8,1.9-0.8c0.7,0,1.4,0.3,1.9,0.8c0.5,0.4,1,0.7,1.6,1l-4.1,8.1h-8.7l-4.1-8.1C24.4,6.1,25,5.8,25.4,5.4z M27.3,18.5
		c-0.5,0-1-0.4-1-1s0.4-1,1-1h9.9c0.5,0,1,0.4,1,1c0,0.5-0.4,1-1,1L27.3,18.5L27.3,18.5z M52.9,57c0,1.6-1.3,3-3,3H14.4
		c-1.6,0-3-1.3-3-3V39.2c0-10.4,8.4-18.8,18.8-18.8h3.9c10.4,0,18.7,8.4,18.8,18.8L52.9,57L52.9,57z"/>
	<path class="st0" d="M50,62.2H14.4c-2.9,0-5.3-2.4-5.3-5.3V39.2c0-9.4,6.2-17.6,15.2-20.2c-0.4-0.7-0.5-1.5-0.3-2.2
		c0.2-0.8,0.7-1.5,1.4-2l-4.3-8.5c-0.2-0.4-0.2-0.9,0.1-1.3c0.2-0.4,0.7-0.6,1.1-0.6l0,0c0.6,0,1.2-0.2,1.6-0.7
		c0.9-0.8,2.1-1.3,3.3-1.3s2.4,0.5,3.3,1.3c0.9,0.9,2.4,0.9,3.2,0c0.9-0.8,2.1-1.3,3.3-1.3c1.2,0,2.4,0.5,3.3,1.3
		c0.4,0.4,1,0.7,1.6,0.7l0,0c0.5,0,0.9,0.2,1.2,0.6c0.2,0.4,0.3,0.9,0.1,1.3L39,14.7c0.3,0.2,0.6,0.5,0.8,0.8
		c0.6-0.2,1.1-0.2,1.7-0.2c0.1,0,0.2,0,0.3,0c0.4,0,0.9-0.2,1.2-0.4c0.4-0.3,0.7-0.8,0.7-1.4c0.3-2.5,2.4-4.3,4.9-4.1
		c0.1,0,0.2,0,0.2,0c0.5,0,0.9-0.2,1.3-0.4l0.3-0.2l1.7,2l-0.3,0.2c-0.9,0.8-2.1,1.2-3.3,1.1c-0.1,0-0.2,0-0.3,0
		c-0.4,0-0.9,0.2-1.2,0.4c-0.4,0.3-0.7,0.9-0.7,1.4c0,0.5-0.2,1-0.4,1.5c1.5-1.2,3.8-1.3,5.4-0.2c0.4,0.3,1,0.5,1.5,0.4l0.3-0.1
		l0.5,2.6l-0.3,0.1c-1.2,0.2-2.4,0-3.4-0.7c-0.4-0.3-1-0.5-1.5-0.4c-0.5,0.1-1,0.4-1.3,0.9c-0.7,1-1.8,1.6-2.9,1.8
		C44,20,43.7,20,43.4,20c-0.2,0-0.5,0-0.7-0.1c7.5,3.3,12.6,10.8,12.6,19.3V57C55.3,59.9,52.9,62.2,50,62.2z M22.4,5
		c-0.2,0-0.5,0.1-0.6,0.3c-0.1,0.2-0.1,0.4,0,0.6l4.6,9.1L26,15.2c-0.7,0.4-1.1,1-1.3,1.7c-0.2,0.7,0,1.5,0.4,2.1l0.3,0.4L25,19.5
		C16.1,21.9,9.9,30,9.8,39.2V57c0,2.5,2.1,4.6,4.6,4.6H50c2.5,0,4.6-2.1,4.6-4.6V39.2c0-9.2-6.2-17.3-15.1-19.7L39,19.4l0.3-0.4
		c0.1-0.2,0.3-0.4,0.3-0.6l0.1-0.3l0.3,0c0.5,0.1,0.9,0.2,1.3,0.5c0.6,0.4,1.4,0.7,2.1,0.7c0.2,0,0.5,0,0.7-0.1
		c1-0.2,1.9-0.7,2.5-1.6c0.4-0.6,1-1,1.7-1.2c0.7-0.1,1.5,0.1,2,0.5c0.7,0.5,1.6,0.7,2.5,0.7l-0.2-1.3c-0.6,0-1.2-0.2-1.7-0.5
		c-0.6-0.4-1.4-0.7-2.2-0.7c-1.2,0-2.4,0.6-3.1,1.6c-0.4,0.6-1,1-1.7,1.2c-0.3,0.1-0.7,0.1-1,0l-1.3-0.3l1.3-0.3
		c0.5-0.1,1-0.4,1.4-0.8c0.8-0.7,1.3-1.6,1.4-2.6c0-0.7,0.4-1.4,0.9-1.9c0.6-0.5,1.3-0.7,2-0.6c0.1,0,0.2,0,0.3,0
		c0.8,0,1.5-0.2,2.2-0.7l-0.8-1c-0.5,0.3-1.1,0.5-1.7,0.4c-0.1,0-0.2,0-0.3,0c-2,0-3.6,1.5-3.8,3.5c0,0.7-0.4,1.4-0.9,1.9
		c-0.6,0.5-1.3,0.7-2,0.6c-0.1,0-0.2,0-0.3,0c-0.5,0-0.9,0.1-1.4,0.2l-0.3,0.1l-0.1-0.2c-0.2-0.4-0.6-0.8-1-1L38.1,15l4.6-9.1
		c0.1-0.2,0.1-0.4,0-0.6C42.5,5.1,42.3,5,42.1,5c-0.8,0-1.6-0.3-2.1-0.9C39.2,3.4,38.2,3,37.2,3c-1.1,0-2.1,0.4-2.8,1.1
		C33.8,4.7,33,5,32.2,5c-0.8,0-1.5-0.3-2.1-0.9C29.4,3.4,28.3,3,27.3,3c-1.1,0-2.1,0.4-2.9,1.1C23.9,4.7,23.1,5,22.4,5L22.4,5z
		 M40.1,19c0.3,0.1,0.6,0.2,0.9,0.3c0,0-0.1-0.1-0.1-0.1c-0.2-0.2-0.5-0.3-0.7-0.3C40.1,18.9,40.1,18.9,40.1,19z M50,60.3H14.4
		c-1.8,0-3.3-1.5-3.3-3.3V39.2c0-10.5,8.6-19.1,19.1-19.1h3.9c10.5,0,19.1,8.6,19.1,19.1l0,17.8C53.3,58.8,51.8,60.3,50,60.3z
		 M30.2,20.8c-10.1,0-18.4,8.3-18.4,18.4V57c0,1.4,1.2,2.6,2.6,2.6H50c1.4,0,2.6-1.2,2.6-2.6l0-17.8c0-10.1-8.3-18.4-18.4-18.4
		C34.2,20.8,30.2,20.8,30.2,20.8z M37.1,18.8h-9.9c-0.7,0-1.3-0.6-1.3-1.3c0-0.7,0.6-1.3,1.3-1.3h9.9c0.7,0,1.3,0.6,1.3,1.3
		C38.5,18.2,37.9,18.8,37.1,18.8z M27.3,16.8c-0.4,0-0.6,0.3-0.6,0.6c0,0.4,0.3,0.6,0.6,0.6h9.9c0.4,0,0.6-0.3,0.6-0.6
		c0-0.4-0.3-0.6-0.6-0.6C37.2,16.8,27.3,16.8,27.3,16.8z M36.8,14.9h-9.1l-4.3-8.7L23.7,6c0.5-0.2,1.1-0.5,1.5-0.9
		c0.5-0.5,1.3-0.9,2.1-0.9c0.8,0,1.5,0.3,2.1,0.9c0.8,0.7,1.8,1.1,2.8,1.1c1.1,0,2.1-0.4,2.8-1.1c0.5-0.5,1.3-0.9,2.1-0.9
		c0.8,0,1.5,0.3,2.1,0.9c0.4,0.4,0.9,0.7,1.5,0.9l0.4,0.1L36.8,14.9z M28.1,14.2h8.2l3.8-7.6c-0.5-0.2-0.9-0.5-1.4-0.9
		c-0.9-0.9-2.4-0.9-3.2,0C34.6,6.5,33.4,7,32.2,7c-1.2,0-2.4-0.5-3.3-1.3c-0.9-0.9-2.4-0.9-3.2,0c-0.4,0.4-0.9,0.7-1.4,0.9
		L28.1,14.2z"/>
</g>
<g>
	<path class="st1" d="M25.6,46.4l11.8-11.9l1.4,1.4L27,47.8L25.6,46.4z"/>
	<path class="st1" d="M27,48.3l-1.9-1.9l12.3-12.3l1.9,1.9L27,48.3z M26.1,46.4l0.9,0.9l11.4-11.4L37.4,35L26.1,46.4z"/>
</g>
<g>
	<path class="st2" d="M36.2,42.2c-1.6,0-3,1.3-3,3c0,1.6,1.3,3,3,3c1.6,0,3-1.3,3-3C39.1,43.5,37.8,42.2,36.2,42.2z M36.2,46.1
		c-0.5,0-1-0.4-1-1c0-0.5,0.4-1,1-1c0.5,0,1,0.4,1,1C37.2,45.7,36.7,46.1,36.2,46.1z"/>
	<path class="st2" d="M36.2,48.4c-1.8,0-3.3-1.5-3.3-3.3c0-1.8,1.5-3.3,3.3-3.3s3.3,1.5,3.3,3.3S38,48.4,36.2,48.4z M36.2,42.5
		c-1.4,0-2.6,1.2-2.6,2.6s1.2,2.6,2.6,2.6c1.4,0,2.6-1.2,2.6-2.6S37.6,42.5,36.2,42.5z M36.2,46.5c-0.7,0-1.3-0.6-1.3-1.3
		c0-0.7,0.6-1.3,1.3-1.3c0.7,0,1.3,0.6,1.3,1.3C37.5,45.9,36.9,46.5,36.2,46.5z M36.2,44.5c-0.4,0-0.6,0.3-0.6,0.6s0.3,0.6,0.6,0.6
		c0.4,0,0.6-0.3,0.6-0.6S36.5,44.5,36.2,44.5z"/>
</g>
<g>
	<path class="st2" d="M28.3,40.2c1.6,0,3-1.3,3-3c0-1.6-1.3-3-3-3s-3,1.3-3,3C25.3,38.9,26.6,40.2,28.3,40.2z M28.3,36.2
		c0.5,0,1,0.4,1,1c0,0.6-0.4,1-1,1c-0.5,0-1-0.4-1-1C27.3,36.7,27.7,36.2,28.3,36.2z"/>
	<path class="st2" d="M28.3,40.5c-1.8,0-3.3-1.5-3.3-3.3c0-1.8,1.5-3.3,3.3-3.3c1.8,0,3.3,1.5,3.3,3.3C31.6,39,30.1,40.5,28.3,40.5z
		 M28.3,34.6c-1.4,0-2.6,1.2-2.6,2.6c0,1.4,1.2,2.6,2.6,2.6c1.4,0,2.6-1.2,2.6-2.6C30.9,35.8,29.7,34.6,28.3,34.6z M28.3,38.6
		c-0.7,0-1.3-0.6-1.3-1.3c0-0.4,0.1-0.7,0.4-0.9c0.3-0.3,0.6-0.4,0.9-0.4c0.7,0,1.3,0.6,1.3,1.3C29.6,38,29,38.6,28.3,38.6z
		 M28.3,36.6c-0.2,0-0.3,0.1-0.5,0.2c-0.1,0.1-0.2,0.3-0.2,0.4c0,0.4,0.3,0.6,0.6,0.6c0.4,0,0.6-0.3,0.6-0.6
		C28.9,36.9,28.6,36.6,28.3,36.6z"/>
</g>
<g>
	<path class="st0" d="M32.2,27.3c-7.6,0-13.8,6.2-13.8,13.8c0,7.6,6.2,13.8,13.8,13.8C39.8,55,46,48.8,46,41.2
		C46,33.5,39.8,27.4,32.2,27.3z M32.2,53c-6.5,0-11.8-5.3-11.8-11.9s5.3-11.8,11.8-11.8s11.9,5.3,11.9,11.8
		C44.1,47.7,38.8,53,32.2,53z"/>
	<path class="st0" d="M32.2,55.3C24.4,55.3,18,49,18,41.2C18,33.4,24.4,27,32.2,27c7.8,0,14.2,6.4,14.2,14.2
		C46.4,49,40,55.3,32.2,55.3z M32.2,27.7c-7.4,0-13.5,6-13.5,13.5c0,7.4,6,13.5,13.5,13.5s13.5-6,13.5-13.5
		C45.7,33.7,39.6,27.7,32.2,27.7z M32.2,53.4c-6.7,0-12.2-5.5-12.2-12.2C20,34.4,25.5,29,32.2,29c6.7,0,12.2,5.5,12.2,12.2
		C44.4,47.9,38.9,53.4,32.2,53.4z M32.2,29.7c-6.3,0-11.5,5.2-11.5,11.5s5.2,11.5,11.5,11.5c6.3,0,11.5-5.2,11.5-11.5
		C43.7,34.8,38.6,29.7,32.2,29.7z"/>
</g>
</svg>
