<?xml version="1.0" encoding="utf-8"?>
<!-- Generator: Adobe Illustrator 23.0.0, SVG Export Plug-In . SVG Version: 6.00 Build 0)  -->
<svg version="1.1" id="Capa_1" xmlns="http://www.w3.org/2000/svg" xmlns:xlink="http://www.w3.org/1999/xlink" x="0px" y="0px"
	 viewBox="0 0 64 64" style="enable-background:new 0 0 64 64;" xml:space="preserve">
<style type="text/css">
	.st0{fill:#FFFFFF;stroke:#FFFFFF;stroke-width:0.9415;stroke-miterlimit:10;}
</style>
<g>
	<g>
		<path class="st0" d="M32,6.6c-0.7,0-1.2,0.5-1.2,1.2c0,0.6,0.5,1.1,1.1,1.2c0.7,0.1,1.3-0.5,1.3-1.2C33.2,7.1,32.6,6.6,32,6.6z"/>
	</g>
</g>
<g>
	<g>
		<path class="st0" d="M55.5,8.9c-3.2,0-5.9-2.6-5.9-5.9c0-0.6-0.5-1.2-1.2-1.2h-33c-0.6,0-1.2,0.5-1.2,1.2c0,3.2-2.6,5.9-5.9,5.9
			c-0.6,0-1.2,0.5-1.2,1.2v19.2c0,15,9.8,28.4,24.4,32.8c0.1,0,0.2,0,0.3,0c0.1,0,0.2,0,0.3,0c14.3-4.3,24.4-17.5,24.4-32.8V10.1
			C56.7,9.5,56.2,8.9,55.5,8.9z M54.4,29.3c0,14.1-9,26.2-22.4,30.4C18.7,55.6,9.6,43.3,9.6,29.3V11.2c3.6-0.5,6.5-3.4,7-7h30.8
			c0.5,3.6,3.4,6.5,7,7C54.4,11.2,54.4,29.3,54.4,29.3z"/>
	</g>
</g>
<g>
	<g>
		<path class="st0" d="M51.3,12.8c-2.5-1.1-4.4-3-5.5-5.5c-0.2-0.4-0.6-0.7-1.1-0.7h-8c-0.7,0-1.2,0.5-1.2,1.2s0.5,1.2,1.2,1.2H44
			c1.2,2.4,3.2,4.4,5.6,5.6v14.7c0,11.5-6.9,21.5-17.7,25.4c-10.7-4-17.7-13.9-17.7-25.4V14.6c2.4-1.2,4.4-3.2,5.6-5.6h7.3
			c0.6,0,1.2-0.5,1.2-1.2s-0.5-1.2-1.2-1.2h-8c-0.5,0-0.9,0.3-1.1,0.7c-1.1,2.5-3,4.4-5.5,5.5c-0.4,0.2-0.7,0.6-0.7,1.1v15.5
			c0,12.6,7.8,23.6,19.6,27.8c0.1,0,0.3,0.1,0.4,0.1c0.1,0,0.3,0,0.4-0.1C44.2,52.9,52,41.9,52,29.3V13.8
			C52,13.4,51.7,12.9,51.3,12.8z"/>
	</g>
</g>
<g>
	<g>
		<path class="st0" d="M32,19.1c-5.8,0-10.6,4.8-10.6,10.6S26.2,40.2,32,40.2s10.6-4.8,10.6-10.6S37.8,19.1,32,19.1z M32,37.9
			c-4.5,0-8.2-3.7-8.2-8.2c0-4.5,3.7-8.2,8.2-8.2c4.5,0,8.2,3.7,8.2,8.2C40.2,34.2,36.5,37.9,32,37.9z"/>
	</g>
</g>
<g>
	<g>
		<path class="st0" d="M37.5,26.5c-0.5-0.5-1.2-0.5-1.7,0l-5.1,5.1L29.3,30c-0.5-0.5-1.2-0.5-1.7,0c-0.5,0.5-0.5,1.2,0,1.7L30,34
			c0.2,0.2,0.5,0.3,0.8,0.3s0.6-0.1,0.8-0.3l5.9-5.9C38,27.7,38,26.9,37.5,26.5z"/>
	</g>
</g>
</svg>
