<?xml version="1.0" encoding="utf-8"?>
<!-- Generator: Adobe Illustrator 23.0.0, SVG Export Plug-In . SVG Version: 6.00 Build 0)  -->
<svg version="1.1" id="Layer_1" xmlns="http://www.w3.org/2000/svg" xmlns:xlink="http://www.w3.org/1999/xlink" x="0px" y="0px"
	 viewBox="0 0 128 128" style="enable-background:new 0 0 128 128;" xml:space="preserve">
<style type="text/css">
	.st0{fill:#FFFFFF;stroke:#FFFFFF;stroke-width:2;stroke-miterlimit:10;}
</style>
<path class="st0" d="M81.8,56.4c-1.3,0-2.6-0.4-3.2,1.5c-0.3,1-2.8,0.5-2.9-0.7C75.6,56,74.8,56,74,56c-7.2,0-14.3,1.1-21.1,3.6
	c-1.5,0.5-3.1,0.8-4.6,1.2c-0.1-0.3-0.2-0.5-0.2-0.8c2.7-0.9,5.3-2,8-2.7c5.9-1.6,11.9-2.5,18.1-2.1c0.8,0,1.6,0.1,1.6-1.1
	c0-1.2-0.8-1.1-1.6-1.2c-7.5-0.4-14.7,0.7-21.9,2.9c-0.3,0.1-0.5,0.1-0.8,0.1c5.2-2.6,10.7-4.4,16.5-5c2.2-0.2,4.3-0.3,6.5-0.4
	c1.1,0,1.6-0.3,1.6-1.5c0.3-6.5,0.6-13,0.9-19.5c0-0.7,0-1.4,0.4-2.2c0.1,1.6,0.3,3.2,0.4,4.8c0.3,5.6,0.6,11.2,0.8,16.8
	c0.1,1.3,0.4,1.9,1.8,2.1c7.1,1,13.6,3.7,19.3,8.1c3.6,2.8,6.7,6.1,10.1,9.1c0.6,0.5,1.4,0.8,2.1,0.9c2.7,0.6,5.4,0.9,8,1.8
	c3.4,1.2,5.3,4.8,5.1,8.6c-3.8,0.3-7.6,0.4-11.4,0.8c-9.5,1-18.7,3.4-27.6,6.8c-2.6,1-5.1,0.6-7.6,0.2C68,86,57.5,85.1,47,85.8
	c-3,0.2-6.2,0-8.8,2.4c-4.2,3.9-7.5,8.5-10,13.7c-1.1,2.2-2.1,4.4-3.2,6.7c-0.2-0.1-0.3-0.2-0.5-0.2c1.8-4,3.3-8.1,5.6-11.8
	c2.2-3.6,5.2-6.7,7.8-10.1c1.1-1.4,2.6-1.8,4.2-1.9c10.8-1.2,21.6-1.4,32.4-0.7c2,0.1,4,0.2,5.9,0.6c2.9,0.6,5.5-0.1,8.3-1
	c9-3,18.2-5.6,27.7-6.6c1.3-0.1,2.6-0.1,3.9-0.1c1.5,0,2.1-0.8,1.1-1.9c-1.1-1.3-2.5-2.8-4-3.2c-3.3-0.8-6.8-1.1-10.2-1.5
	c-0.8-0.1-1.6,0-2.5,0c0.5-0.2,1-0.3,1.7-0.6c-3-3.5-6.2-6.7-9.9-9.2c-4.8-3.2-9.9-5.4-15.5-6.5c-0.6-0.1-1.9,0.1-2,0.5
	c-0.4,1.2,0.5,1.7,1.6,1.8C80.9,56.2,81.3,56.3,81.8,56.4z"/>
<path class="st0" d="M10.3,89.3C8,83.9,7.2,78.6,7,73.2c-0.5-16.6,5.3-30.6,17.4-41.5c12.4-11.2,27-15.3,43.4-12.6
	c2.3,0.4,2.6,0.9,2.9,4.2c-1.9-0.3-3.8-0.7-5.7-0.9C48,20.3,33.6,25.9,22.3,39C13.1,49.6,9.4,62.2,10.9,76.3c0.2,2.4,0.5,4.8,1.2,7
	C12.8,85.8,11.4,87.2,10.3,89.3z"/>
<path class="st0" d="M29.2,110.5c3.4,1.9,6.6,4,10,5.5c15.9,7,31.3,5.7,45.9-3.6c8.8-5.6,15.1-13.4,18.7-23.4c1.1-3,1.6-3.3,5-3.3
	c-0.8,2.3-1.4,4.5-2.3,6.5c-7.2,15.7-18.9,26.1-35.5,30.2c-15.1,3.7-29.2,0.9-42-8.1c-0.7-0.5-1.1-1-0.6-1.9
	C28.7,111.8,29,111.1,29.2,110.5z"/>
<path class="st0" d="M25.2,69.7c6.7-6.1,14.4-8.2,23.3-6.9c12.6,1.8,25.3,3.5,38,5.1c2.4,0.3,4.8,0.2,7.2,0.1c1.1,0,1.7,0.5,2.1,1.5
	c1.4,3.7,0.1,6.9-3.6,8.4c-5.6,2.3-11.4,2.2-17.2,1.7c-6.1-0.5-12.3-1.2-17.3-1.6c3.7-0.7,8.5-0.8,13.3-0.4
	c5.5,0.4,11.1,0.3,16.4-1.4c1.5-0.5,3-1.5,4-2.7c1.5-1.8,0.6-3.6-1.7-3.6c-13.6-0.1-26.8-2.4-40.1-5.3c-8.6-1.8-16.8-0.3-24.1,4.9
	C25.5,69.6,25.3,69.6,25.2,69.7z"/>
<path class="st0" d="M49,37.3c6.4-5.6,18.2-6.4,25.1-1.1c-7.5,0.3-14.9,0.5-22.3,0.8c0,0.2,0,0.4,0,0.7c7.3,0.2,14.7,0.5,22.2,0.7
	C66.9,42.9,55,42.2,49,37.3z"/>
<path class="st0" d="M105.5,43.2c-7.1,5.5-17.6,6.1-24.5,1.4c7.3-0.3,14.4-0.6,21.4-0.9c0-0.2,0-0.4,0-0.6c-7-0.4-13.9-0.8-21.1-1.2
	C87.3,37.7,97.6,37.3,105.5,43.2z"/>
<path class="st0" d="M76.5,8.8c-0.3,5.2-0.6,10.4-0.9,15.8c-3.7-4.5-3.1-12.9,1.2-18.7c3.6,3.4,5.5,12.7,2.3,18.2
	c-0.3-2.8-0.7-5.4-1-7.9c-0.3-2.5-0.6-5-0.8-7.5C77,8.8,76.7,8.8,76.5,8.8z"/>
<path class="st0" d="M81.7,72.1c-8.2,0.1-16.3-1.1-24.3-2.8c-5.3-1.1-10.7-2.1-16.2-1.8c-5.8,0.3-10.7,2.8-14.6,7
	c-3.8,4.1-7.2,8.6-10.7,12.8c0.4-0.7,1-1.7,1.5-2.5c3.8-5.9,8-11.4,13.8-15.3c4.2-2.8,8.8-3.9,13.8-3.1c9.3,1.5,18.6,3.1,27.9,4.6
	C75.8,71.5,78.7,71.7,81.7,72.1z"/>
<path class="st0" d="M52.1,70.4c-2-0.1-4-0.1-6-0.3c-6.3-0.6-11.2,2.2-15.5,6.6c-5.9,6.1-10.2,13.3-14.7,20.4
	c-0.1-0.1-0.3-0.2-0.4-0.2c2.2-4.2,4.1-8.6,6.7-12.6c2.4-3.6,5.4-6.9,8.4-10c4.5-4.7,10.2-5.4,16.3-4.8c1.7,0.2,3.4,0.4,5.2,0.7
	C52.1,70.3,52.1,70.3,52.1,70.4z"/>
<path class="st0" d="M83.1,24.4c5.3,2.8,9.9,6.4,14.2,11.1c-2.6,0-4.6,0.5-6.6-1.4c-2.2-2-4.7-3.8-7.2-5.3c-1.5-0.9-1.8-1.6-1-3
	C82.7,25.4,82.8,25,83.1,24.4z"/>
<path class="st0" d="M102.9,50.4c1.3-0.3,2.3-0.6,3.7-1c1.3,4.4,2.6,8.8,4,13.6C105.1,60.2,104.9,55,102.9,50.4z"/>
</svg>
