<?xml version="1.0" encoding="utf-8"?>
<!-- Generator: Adobe Illustrator 23.0.0, SVG Export Plug-In . SVG Version: 6.00 Build 0)  -->
<svg version="1.1" id="Layer_1" xmlns="http://www.w3.org/2000/svg" xmlns:xlink="http://www.w3.org/1999/xlink" x="0px" y="0px"
	 viewBox="0 0 128 128" style="enable-background:new 0 0 128 128;" xml:space="preserve">
<style type="text/css">
	.st0{fill:#FFFFFF;stroke:#FFFFFF;stroke-width:2;stroke-miterlimit:10;}
</style>
<path class="st0" d="M86.7,39.4C85.7,40,84.7,41,83.6,41c-1.5,0-3-0.7-5.2-1.4c-4.6,2.6-6.8,2.3-9.1-1.8c-0.5,0.5-0.9,1-1.3,1.5
	c-1.5,1.7-3.6,2.2-5.7,1.5s-2.6-2.6-2.7-4.5c-0.1-3.2,0-6.5-0.1-9.7c0-0.6-0.1-1.7-0.5-1.8c-2.4-0.8-1.1-1.6-0.2-2.6
	c1.5-1.6,2.9-3.5,4.4-5.1c0.4-0.4,0.9-0.6,1.5-0.9c0.2,0.5,0.5,1,0.6,1.5c0.1,1.5,0,2.9,0,3.9c1.4,0.8,2.4,1.5,3.4,2.1
	c-1,0.5-2,0.8-3.3,1.5c0,3.6,0,7.4,0,11.3c0,1.2,0.7,1.6,1.8,1c0.8-0.5,2-1.1,2.4-1.8c1.5-3.6,4.9-4.3,8-5.6
	c0.7-0.3,1.6-1.2,1.7-1.8c0.1-1.5,0.6-3.4-1.3-4.1c-1.1-0.5-2.4-0.1-4-0.1c0.5,1.2,1,1.5,1,2c0,1,0.2,2.2-0.3,2.8
	c-0.5,0.6-2,1-2.7,0.7c-0.8-0.4-1.6-1.5-1.8-2.5c-0.3-1.9,1-3.3,2.6-4.1c3.2-1.5,6.5-1.5,9.7,0.3c1.9,1,2.5,2.9,2.5,4.9
	c0,3.1,0,6.3,0,9.4c0.2-0.1,0.4-0.2,0.5-0.2C85.9,38.1,86.3,38.8,86.7,39.4L86.7,39.4z M79.3,31.7c-2.4,0.4-3.7,1.6-3.8,3.6
	c-0.1,0.8,0.9,1.7,1.5,2.6c0.8-0.7,2-1.3,2.3-2.2C79.6,34.6,79.3,33.1,79.3,31.7z"/>
<path class="st0" d="M18.4,75.1c-4.6,0-8.7,0-12.9,0c0.1-0.5,0-0.6,0.1-0.7c3.1-0.9,2.8-3.4,2.7-5.7c0-4.7,0-9.4,0-14.1
	c0-1.9-0.1-3.6-2.5-4.1c-0.2,0-0.3-0.5-0.5-0.7c0.3-0.2,0.5-0.5,0.5-0.5c4.9,0,9.8-0.3,14.8,0.3c4.4,0.5,6.5,3.1,6.5,6.6
	c0,3.7-2.4,6.5-6.6,7.3c-0.6,0.1-1.4,0.2-2,0.2c-4,0.2-4,0.2-3.9,4.3c0,0.7,0,1.5,0,2.3c0,1.9,0.4,3.6,2.7,3.9
	C17.6,74.2,17.8,74.6,18.4,75.1z M14.7,56.7L14.7,56.7c0,1.4-0.1,2.7,0.1,4c0,0.5,0.7,1.4,0.8,1.3c1.4-0.5,3.4-0.7,4-1.8
	c1.4-2.4,1.4-5.3,0-7.7c-0.5-0.9-2.4-1.2-3.6-1.4c-0.3,0-1,1.5-1.2,2.4C14.5,54.6,14.7,55.7,14.7,56.7z"/>
<path class="st0" d="M25.6,97.1c1.7-3.1,3.2-5.7,4.6-8.3c0.9-1.7,0.9-3-1.5-3.3c-0.3,0-0.5-0.4-1.4-0.9c3.3-1.1,6.1-0.7,9.5-0.3
	c-4.9,3.6-6.6,8.7-9.2,13c-1.9,3.1-1.1,6.8-0.5,10.2c0.2,0.7,1.8,1.3,2.7,1.8c-1,1.3-11.1,1.5-12.9,0.2c0-0.2,0.1-0.4,0.1-0.4
	c2.8-0.5,3.1-2.5,3.2-4.9c0-2.9-0.4-5.6-2-8.1c-1-1.5-1.7-3.4-2.6-4.9c-1.5-2.4-3-4.6-4.6-6.9c3.8,0,8,0,12.2,0
	c0.1,0.2,0.1,0.4,0.2,0.5c-0.5,0.3-1,0.6-1.5,0.6c-1.5,0.2-1.6,0.9-1.1,2C22.3,90.6,23.8,93.6,25.6,97.1z"/>
<path class="st0" d="M39,40.3c-2.6,0-5.1,0-7.7,0c3.7-2.9,4-7.3,5.6-10.9c2-4.6,3.7-9.5,5.6-14.1c0.2-0.5,0.8-1,1.2-1.5
	c0.5,0.5,1,0.9,1.3,1.5c2.6,6.1,5,12.3,7.7,18.4c1,2.3,2.4,4.3,3.6,6.6c-3.6,0-7.7,0-11.9,0c0.2-0.5,0.3-0.7,0.5-0.8
	c0.8-0.5,2.4-0.9,2.3-1.3c-0.1-1.5-0.6-2.9-1.1-4.3c-0.1-0.3-0.5-0.6-0.8-0.6c-2.3-0.1-4.7-0.5-6.9,0.2c-1,0.3-1.5,2.6-2,4.2
	c-0.1,0.4,1.1,1,1.7,1.5c0.4,0.3,0.7,0.5,1,0.6C39.1,40,39,40.1,39,40.3z M41.7,22.7c-1.1,3-2.1,5.6-3,8.2c2.3,0,4.2,0,6.4,0
	C43.8,28.3,42.8,25.7,41.7,22.7z"/>
<path class="st0" d="M103.1,75.1c2.7-3.4,2.6-14.2,0.2-17c2.1-1.5,6.8-0.9,7.7,1c0.5-0.5,1-0.8,1.5-1.2c3.5-2.3,7.7-0.4,8.2,3.8
	c0.3,2.6,0,5.4,0.3,8c0.1,1.7,0.6,3.5,1,5.5c-2.4,0-5.3,0-8.3,0c2.9-4.5,1.2-9.2,1.4-13.7c0-0.5-1.3-1.5-1.6-1.3
	c-1,0.5-2.5,1.3-2.6,2c-0.3,3.5-0.2,7,0,10.6c0,0.7,1,1.4,1.7,2.4C109.3,75.1,106.3,75.1,103.1,75.1z"/>
<path class="st0" d="M51.6,75.2c-3.3,0-6.2,0-9.2,0c2.4-1.6,1.7-3.9,1.7-6c0-1.9,0-3.9,0-5.8c0-1.9,0.6-4.1-2.1-5.1
	c2.6-1.5,7.1-1.2,8.4,0.5c0.5-0.4,0.9-0.7,1.5-1c3.8-2.3,8,0,8.2,4.4c0.1,2.6-0.1,5.3,0.1,7.8c0.1,1.6,0.6,3.2,1,5.1
	c-2.3,0-5.2,0-8.2,0c2.9-4.4,1.1-9.1,1.4-13.7c0-0.5-1.3-1.5-1.6-1.4c-1,0.5-2.5,1.3-2.6,2c-0.3,3.5-0.2,7-0.1,10.6
	C50,73.5,50.9,74.1,51.6,75.2z"/>
<path class="st0" d="M79.4,93c4-1.5,7.6-0.9,8.2,1c0.6-0.5,1.3-1,2-1.5c3.7-2.1,7.8,0.1,8,4.5c0.1,2.7-0.1,5.4,0.1,8.1
	c0.1,1.5,0.6,3.1,1,4.9c-2.4,0-5.3,0-8.4,0c3.1-4.4,1.3-9.1,1.5-13.7c0-0.5-1.5-1.5-1.8-1.3c-1,0.5-2.4,1.4-2.5,2.2
	c-0.3,3.4-0.2,6.7,0,10.1c0,0.8,1,1.5,1.8,2.7c-3.3,0.5-6.3,0.5-9.5-0.2c2.6-1.7,1.8-4.3,1.9-6.5c0-1.8,0-3.6,0-5.4
	C81.7,96.2,82.3,94.1,79.4,93z"/>
<path class="st0" d="M79.7,108.1c-2.3,3.6-5.3,3.7-7.6,0.8c-1.4,0.6-2.7,1.4-4.1,1.8c-2.2,0.7-4.5-0.3-5.4-2.1
	c-0.9-1.8-0.5-4.4,1.4-5.6c2-1.3,4.2-2.4,6.4-3.1c1.9-0.6,1.8-1.8,1.7-3.3c-0.1-1.5-0.5-2.9-2.4-3c-0.7-0.1-1.6,0.2-2.3,0.6
	c-0.2,0.1,0.3,1.2,0.3,1.7c0,0.9,0.1,2.3-0.5,2.7c-0.7,0.5-2.2,0.8-2.9,0.5c-0.7-0.4-1.5-1.7-1.5-2.6c0-2.1,1.5-3.4,3.4-4
	c2.6-0.9,5.3-0.9,7.9,0.1c2.4,0.9,3.5,2.7,3.6,5.2c0,3.2,0,6.4,0,9.7C78.4,107.7,79,107.8,79.7,108.1z M72.1,101.2
	c-2.5,0.7-3.9,1.9-3.9,4.1c0,0.8,1,1.5,1.5,2.4c0.8-0.7,2-1.3,2.4-2.1C72.4,104.3,72.1,102.9,72.1,101.2z"/>
<path class="st0" d="M117.2,108.2c-1.5,3.3-4.8,3.6-7.4,0.7c-1.4,0.6-2.6,1.4-4.1,1.7c-2.1,0.6-4.3-0.2-5.3-1.9
	c-1.1-1.9-0.9-4.2,1.1-5.6c2-1.4,4.3-2.5,6.6-3.3c2.3-0.7,1.5-2.4,1.6-3.8c0.1-1.5-0.6-2.3-2-2.5c-0.7-0.1-1.6,0.1-2.3,0.5
	c-0.2,0.1,0.3,1.3,0.2,1.9c0,0.9,0.1,2.1-0.5,2.6c-0.6,0.5-2,1-2.7,0.7c-0.7-0.3-1.5-1.4-1.7-2.3c-0.4-2,0.8-3.5,2.6-4.3
	c3.1-1.5,6.3-1.4,9.3,0.1c1.8,0.9,2.7,2.5,2.7,4.6c0,2.8-0.1,5.6,0.1,8.6c0,0.7,0.7,1.5,1.1,2.3
	C116.7,108.2,116.9,108.2,117.2,108.2z M109.7,101.2c-2.4,0.8-3.9,1.9-3.8,4.1c0,0.8,0.9,1.5,1.5,2.3c0.8-0.7,2-1.3,2.3-2.2
	C110,104.3,109.7,102.8,109.7,101.2z"/>
<path class="st0" d="M85.5,66.4c0.1-5.4,3.9-9.6,8.7-9.5c4.8,0.1,8.6,4.5,8.5,9.7c-0.1,5.3-3.9,9.4-8.7,9.4
	C89,75.9,85.4,71.8,85.5,66.4z M96.9,66.8c-0.3-2-0.4-4.2-0.8-6.3c-0.2-0.7-1.3-1.7-1.8-1.7c-0.8,0.1-2.1,1-2.2,1.6
	c-0.2,4-0.3,8,0,11.9c0,0.6,1.4,1.7,2.1,1.7s1.8-1.1,2-1.9C96.6,70.6,96.6,68.7,96.9,66.8z"/>
<path class="st0" d="M50,101.3c0,5.5-3.7,9.7-8.6,9.7s-8.7-4.3-8.7-9.6c0-5.3,3.7-9.5,8.5-9.5C46.2,91.7,49.9,95.8,50,101.3z
	 M44.2,101.3c-0.3-2-0.3-4-0.7-6c-0.2-0.7-1.3-1.8-1.9-1.7c-0.8,0.1-2.1,1.1-2.2,1.7c-0.2,4-0.2,8,0,12c0,0.6,1.3,1.8,1.9,1.7
	c0.8-0.1,1.9-1,2.1-1.8C43.9,105.4,44,103.4,44.2,101.3z"/>
<path class="st0" d="M86.7,39.5c1.5-0.4,2-1.4,1.9-2.8c0-6,0.1-12.1-0.1-18.1c0-1.2-0.7-2.4-1.3-3.7c0.5-0.5,5.8-1,6.5-0.3
	c0.5,0.5,0.5,1.5,0.5,2.3c0,6.1,0,12.2,0.1,18.4c0,1.6,0.6,3.2,1,5.4c-1.9,0-4.4,0.1-6.7,0C88,40.6,87.4,39.9,86.7,39.5
	C86.7,39.4,86.7,39.5,86.7,39.5z"/>
<path class="st0" d="M32.5,66.2c0.3,1.5,0.4,2.6,0.6,3.6c1.1,3.2,3.8,3.9,6.5,1.7c0.5-0.5,1.2-0.6,1.7-0.9c-0.2,0.7-0.2,1.5-0.6,2.1
	c-2,2.6-4.6,3.8-7.8,3.1c-3.3-0.7-5.4-3-5.7-6.1C26.8,67,27,64,27.8,61.4c1.1-3.5,4.9-5.1,8.2-4.3c3.3,0.7,5.6,3.9,5.6,7.6
	c0,1.3-0.5,1.5-1.6,1.5C37.6,66.2,35.3,66.2,32.5,66.2z M36.5,64.5c0.3-0.2,0.5-0.5,0.7-0.6c-0.5-1.6-1.1-3.4-1.7-4.9
	c-0.1-0.2-1.7,0-1.9,0.4c-0.5,1.5-0.8,2.9-1.1,4.5C33.7,64,35.1,64.2,36.5,64.5z"/>
<path class="st0" d="M52.4,116.6c0.5-0.5,1.3-0.7,1.5-1.3c0.4-0.8,0.4-1.7,0.4-2.6c0-4.5,0-9,0-13.5c0-2.4,0.7-5-2.7-6.1
	c0.2-0.2,0.3-0.5,0.5-0.6c2.3,0,4.6-0.1,6.9,0.1c0.3,0,0.7,1,0.8,1.6c0.1,5.8,0.2,11.7-0.1,17.5c-0.2,5.1-4.8,8-9.3,6
	c-1.1-0.5-2.1-1.7-2.6-2.8c-0.3-0.6,0.3-2.1,0.9-2.6c0.5-0.5,2.1-0.5,2.6-0.1c0.6,0.5,0.7,1.7,0.9,2.7c0.1,0.4-0.3,0.8-0.4,1.2
	C52,116.1,52.2,116.4,52.4,116.6z"/>
<path class="st0" d="M74.2,57.4c0,1.6,0,3.5,0,5.2c-0.2,0.1-0.4,0.2-0.5,0.3c-0.5-0.5-0.8-1.2-1.4-1.6c-1.1-0.9-2.2-1.9-3.5-2.6
	c-0.5-0.2-1.8,0.5-2.1,1.1c-0.3,0.6,0.1,1.9,0.6,2.4c1.1,0.9,2.4,1.5,3.6,2.1c3.6,1.8,4.8,4.6,3.6,7.8c-1.1,3-4.3,4.3-8,3.4
	c-1.3-0.3-2.6-0.2-4.2-0.4c0-1.7,0-3.8,0-6c0.2-0.1,0.5-0.1,0.6-0.2c0.4,0.6,0.7,1.3,1.1,1.9c0.8,1.8,2.2,3.2,4.3,3
	c0.8-0.1,2-0.8,2.4-1.5c0.3-0.5-0.4-1.8-1-2.4c-1.1-0.9-2.5-1.5-3.6-2.1c-3.4-1.9-4.6-4.6-3.4-7.6c1.2-2.9,4.1-4.1,7.7-3.3
	C71.5,57.4,72.7,57.4,74.2,57.4z"/>
<path class="st0" d="M75.2,57.4c2.8,0,5-0.1,7.1,0.1c0.4,0,0.7,1.2,0.8,1.8c0.1,3.3,0,6.6,0.1,9.8c0,2-0.5,4.2,2.3,5.9
	c-3.7,0-6.7,0-9.9,0C78.2,71.8,78.2,60.9,75.2,57.4z"/>
<path class="st0" d="M80.4,48.7c1.6,0.1,3,1.6,2.9,3.3s-1.5,3-3,3c-1.6,0-3.1-1.5-3.1-3.2C77.3,50.1,78.7,48.6,80.4,48.7z"/>
<path class="st0" d="M56.9,89.8c-1.6,0.1-2.9-1.2-3-2.9c-0.1-1.8,1.1-3.3,2.8-3.4c1.6-0.1,3.2,1.3,3.3,3
	C60,88.2,58.5,89.8,56.9,89.8z"/>
</svg>
