<?xml version="1.0" encoding="utf-8"?>
<!-- Generator: Adobe Illustrator 23.0.0, SVG Export Plug-In . SVG Version: 6.00 Build 0)  -->
<svg version="1.1" id="Layer_1" xmlns="http://www.w3.org/2000/svg" xmlns:xlink="http://www.w3.org/1999/xlink" x="0px" y="0px"
	 viewBox="0 0 128 128" style="enable-background:new 0 0 128 128;" xml:space="preserve">
<style type="text/css">
	.st0{fill:#FFFFFF;stroke:#FFFFFF;stroke-width:2;stroke-miterlimit:10;}
</style>
<g>
	<path class="st0" d="M81.9,35.4c0,1.4,0,2.6,0,4.1c-2.8,0-5.5,0-8.3,0c0-1.3,0-2.6,0-4.1C76.2,35.4,78.9,35.4,81.9,35.4z"/>
	<path class="st0" d="M73.4,48.2c0-1.3,0-2.5,0-3.8c2.8,0,5.6,0,8.4,0c0,1.2,0,2.4,0,3.8C79.1,48.2,76.4,48.2,73.4,48.2z"/>
	<path class="st0" d="M73.5,57.1c0-1.3,0-2.5,0-3.9c2.9,0,5.6,0,8.4,0c0,1.3,0,2.5,0,3.9C79.1,57.1,76.4,57.1,73.5,57.1z"/>
	<g>
		<path class="st0" d="M19.8,119.6c0-3,0-5.7,0-8.6c-1-0.1-1.6-0.1-2.4-0.2c-3.7-0.3-6.5-3-6.5-6.7c-0.1-11.9-0.1-23.7,0-35.6
			c0-4.1,3-6.7,7.6-6.7c15.5,0,30.9,0,46.4,0c12,0,23.9,0,35.9,0c5.5,0,8.1,2.6,8.1,8c0,10.8,0,21.5,0,32.3c0,6.2-1.9,8.2-8.1,8.7
			c-0.3,0-0.4,0.2-0.9,0.3c0,2.7,0,5.5,0,8.4C73.1,119.6,46.7,119.6,19.8,119.6z M60,66.3C60,66.3,60,66.3,60,66.3
			c-13.7,0-27.4,0-41.1,0c-3.2,0-3.7,0.5-3.7,3.3c0,11.1,0,22.2,0,33.2c0,3.1,0.5,3.6,3.7,3.6c27.3,0,54.4,0,81.7,0
			c3.3,0,3.8-0.5,3.8-3.8c0-10.9,0-21.7,0-32.6c0-3.4-0.4-3.8-3.7-3.8C87.1,66.3,73.6,66.3,60,66.3z M24.1,115.1c24,0,47.7,0,71.4,0
			c0-1.5,0-2.8,0-4.2c-23.9,0-47.6,0-71.4,0C24.1,112.4,24.1,113.7,24.1,115.1z"/>
		<path class="st0" d="M100.1,35.6c0-2.1,0-3.3,0-4.9c1.6,0,3.3,0.1,4.9,0c4.7-0.3,8.2-4.1,8.2-8.8c0-4.5-3.4-8.5-7.6-8.9
			c-5.2-0.5-9.5,2.3-10.1,7.3c-0.5,4.2-0.3,8.3-0.3,12.6c0,8.1,0,16.1,0,24.4c-1.5,0-2.7,0-4.1,0c0-0.6-0.1-1.4-0.1-2.1
			c0-11.1-0.2-22.2,0.1-33.2c0.1-2.9,1.4-5.7,2.2-8.8c0,0-0.5-0.2-1.1-0.2c-18.1,0-36.1,0-54.2,0c-5.9,0-9.5,3.7-9.5,9.6
			c0,10.6,0,21.2,0,31.8c0,0.9,0,1.8,0,2.9c-1.4,0-2.6,0-4,0c-0.1-0.8-0.2-1.5-0.2-2.2c0-10.8,0.2-21.5-0.1-32.3
			c-0.3-8.2,5.8-14.4,14.3-14.3c21.7,0.1,43.4,0,65,0.1c6.7,0,12.3,4.3,13.5,10.2c1.4,6.3-1.6,12.8-7.6,15.1
			C106.8,34.9,103.6,35,100.1,35.6z"/>
		<path class="st0" d="M40,26c0-1.4,0-2.5,0-3.8c14.7,0,29.3,0,44,0c0,1.2,0,2.4,0,3.8C69.3,26,54.7,26,40,26z"/>
		<path class="st0" d="M37.6,39.4c0-1.5,0-2.7,0-4.1c8.8,0,17.5,0,26.4,0c0,1.4,0,2.7,0,4.1C55.3,39.4,46.6,39.4,37.6,39.4z"/>
		<path class="st0" d="M37.7,57.1c0-1.3,0-2.5,0-3.9c7.3,0,14.5,0,21.9,0c0,1.2,0,2.4,0,3.9C52.5,57.1,45.3,57.1,37.7,57.1z"/>
		<path class="st0" d="M37.7,48.2c0-1.3,0-2.5,0-3.8c5.8,0,11.5,0,17.4,0c0,1.2,0,2.4,0,3.8C49.4,48.2,43.6,48.2,37.7,48.2z"/>
		<path class="st0" d="M73.4,88.5c0-4.3,0-8.5,0-12.8c7.2,0,14.3,0,21.7,0c0,4.3,0,8.5,0,12.8C87.9,88.5,80.9,88.5,73.4,88.5z
			 M77.6,84c4.6,0,9,0,13.4,0c0-1.6,0-2.9,0-4.2c-4.5,0-8.9,0-13.4,0C77.6,81.3,77.6,82.5,77.6,84z"/>
	</g>
</g>
</svg>
