<?xml version="1.0" encoding="utf-8"?>
<!-- Generator: Adobe Illustrator 23.0.0, SVG Export Plug-In . SVG Version: 6.00 Build 0)  -->
<svg version="1.1" id="Layer_1" xmlns="http://www.w3.org/2000/svg" xmlns:xlink="http://www.w3.org/1999/xlink" x="0px" y="0px"
	 viewBox="0 0 128 128" style="enable-background:new 0 0 128 128;" xml:space="preserve">
<style type="text/css">
	.st0{fill:#FFFFFF;stroke:#FFFFFF;stroke-width:2;stroke-miterlimit:10;}
</style>
<path class="st0" d="M6,55.7c0.7-2.7,1.3-5.3,1.9-7.8c1.3-5.5,2.7-11,4.1-16.5c0.3-1.1,0.8-1.4,1.8-1.4c7.7,0,15.3,0,23,0
	c2.2,0,2.8,0.8,2.2,2.9c-0.5,2-1.1,4.1-1.5,6.2c-0.3,1.6-0.9,3-2.9,3.7c1.9,1.3,1.3,2.8,0.9,4.3c-0.5,2-1,4-1.6,6
	c-0.7,2.2-1.3,2.7-3.5,2.7c-7.5,0-15,0-22.5,0C7.3,55.8,6.8,55.7,6,55.7z M11.6,50.6c0.4,0.1,0.6,0.3,0.9,0.3c5.2,0,10.4,0,15.5,0
	c0.7,0,1.8-0.5,2.1-1.1c0.5-0.9,0.6-2.2,0.6-3.2c0-0.5-1-1.2-1.6-1.2c-5.1-0.1-10.1-0.1-15.2,0c-0.4,0-1,0.4-1.1,0.7
	C12.3,47.5,12,49,11.6,50.6z M14.1,40.4c0.5,0.1,0.7,0.2,1,0.2c5.1,0,10.1,0,15.2,0c1.6,0,3.1-1.7,3.2-3.4c0.1-1.5-0.4-2.2-2-2.2
	c-5,0-9.9,0-14.9,0c-0.4,0-1.1,0.3-1.2,0.6C14.9,37.1,14.6,38.7,14.1,40.4z"/>
<path class="st0" d="M81,30.2c3.3,6.2,6.4,12,9.7,18.1c6.2-6,12.3-11.7,18.3-17.5c0.1,0,0.2,0.1,0.3,0.1c-0.3,1.5-0.6,2.9-1,4.3
	c-1.5,6.3-3.1,12.6-4.6,19c-0.3,1.1-0.7,1.6-1.8,1.5c-0.9-0.1-1.8,0-2.9,0c1-4,1.9-7.8,2.8-11.6c-0.1-0.1-0.3-0.2-0.4-0.3
	c-3.8,3.9-7.6,7.8-11.5,11.9c-2.4-4.6-4.7-9.1-7-13.6c-0.1,0-0.3,0-0.4,0c-0.3,1-0.5,2-0.8,3c-0.8,3.2-1.6,6.5-2.4,9.7
	c-0.1,0.4-0.6,0.8-0.9,0.9c-1.1,0.1-2.2,0-3.6,0C76.9,47.2,78.9,38.9,81,30.2z"/>
<path class="st0" d="M56.9,64.6c0.4-1.6,0.6-2.8,1.1-4c0.1-0.4,0.9-0.6,1.4-0.6c4.9,0,9.9,0,14.8,0c2.5,0,5.1,0,7.6,0
	c2,0,2.6,0.7,2.1,2.6c-0.8,3.2-1.5,6.4-2.3,9.6C81,74.1,80,74.8,78,74.8c-5.9,0-11.8,0.1-17.8,0c-1.4,0-1.9,0.5-2.1,1.8
	c-0.5,2.4-1.2,4.7-1.7,7.1c-0.2,1.1-0.8,1.4-1.8,1.3c-0.8-0.1-1.7,0-2.7,0c0.3-1.5,0.6-2.7,0.9-3.9c0.8-3.1,1.6-6.3,2.3-9.4
	c0.3-1.1,0.8-1.5,1.9-1.5c6.3,0.1,12.5,0,18.8,0.1c1.4,0,2.1-0.4,2.4-1.9c0.7-3.7,0.8-3.7-2.9-3.7c-5.4,0-10.8,0-16.3,0
	C58.4,64.6,57.8,64.6,56.9,64.6z"/>
<path class="st0" d="M47.2,30c-0.7,3.2-1.3,6.1-2.1,9c-0.3,1.3,0,1.6,1.2,1.6c5.2,0,10.4,0,15.5,0c1,0,1.5-0.3,1.7-1.3
	c0.5-2.6,1.3-5.1,1.9-7.6c0.3-1.2,0.7-1.8,2-1.6c0.8,0.1,1.6,0,2.6,0c-0.4,1.9-0.8,3.5-1.2,5.2c-1.6,6.5-3.2,13-4.8,19.5
	c-0.1,0.4-0.7,0.9-1,0.9c-1,0.1-2.1,0-3.4,0c0.4-1.8,0.8-3.5,1.2-5.1c0.3-1.4,0.7-2.8,1-4.1c0.3-1-0.1-1.4-1.1-1.4
	c-5.3,0-10.7,0-16,0c-0.8,0-1.2,0.3-1.4,1.2c-0.6,2.7-1.3,5.4-1.9,8.1c-0.2,1-0.6,1.4-1.6,1.3c-0.9-0.1-1.9,0-3,0
	c0.7-2.7,1.2-5.1,1.8-7.5c1.3-5.5,2.7-11,4-16.5c0.3-1.3,0.8-1.8,2.1-1.7C45.4,30.1,46.2,30,47.2,30z"/>
<path class="st0" d="M54.7,60c-0.7,2.9-1.3,5.5-1.9,8.1c-1.2,4.8-2.4,9.5-3.5,14.3c-0.5,2.2-1,2.7-3.3,2.7c-6.9,0-13.8,0-20.8,0
	c-2.4,0-3-0.6-2.4-3.1c1.7-7,3.4-13.9,5.1-20.9c0.2-0.7,0.5-1.1,1.3-1.1c0.9,0.1,1.9,0,3.1,0c-0.4,1.8-0.7,3.4-1.1,5
	c-1.1,4.6-2.3,9.2-3.5,13.8c-0.3,1.2,0,1.6,1.1,1.6c5.1,0,10.2,0,15.2,0c1.1,0,1.5-0.5,1.7-1.4c1.4-5.7,2.9-11.4,4.2-17.1
	c0.3-1.5,1-2,2.4-1.8C53.1,60.1,53.8,60,54.7,60z"/>
<path class="st0" d="M115.8,36.4c0.4-1.7,0.9-3.3,1.4-5.3c1.4,3.1,2.6,5.8,3.9,8.6c0,0.1,0.1,0.2,0.1,0.3c0.5,1.3,1.6,2.8,1.4,4
	c-0.2,1.2-1.7,2.2-2.7,3.1c-3,2.8-6,5.7-8.6,8.2c0.2-0.9,0.5-2.4,0.8-3.9c-0.1-0.1-0.2-0.1-0.3-0.2c-1.2,1.4-2.4,2.9-3.6,4.3
	c-0.3-0.2-0.5-0.4-0.8-0.5c1.8-7.6,3.7-15.2,5.7-23.3c0.9,1.9,1.6,3.3,2.3,4.8C115.5,36.4,115.7,36.4,115.8,36.4z"/>
<path class="st0" d="M89.6,84.3c1.9-7.6,3.8-15.3,5.6-22.9c0.2,0,0.3,0,0.4,0c0.7,1.4,1.3,2.8,2,4.2c0.1,0,0.3-0.1,0.4-0.1
	c0.4-1.6,0.8-3.3,1.4-5.2c0.5,1.1,0.9,1.8,1.3,2.6c1.4,3,2.7,6.1,4,9.1c0.2,0.4,0.2,1.2,0,1.4c-3.7,3.9-7.4,7.8-11.3,11.5
	c0.3-1.5,0.7-2.9,1-4.7c-1.5,1.8-2.8,3.3-4.1,4.7C90.2,84.7,89.9,84.5,89.6,84.3z"/>
<path class="st0" d="M77.7,30.2c-0.7,2.8-1.2,5.2-1.8,7.7c-1.3,5.4-2.7,10.9-4,16.3c-0.3,1.3-0.8,1.8-2.1,1.6c-0.8-0.1-1.6,0-2.6,0
	c0.6-2.7,1.2-5.1,1.8-7.6c1.3-5.4,2.7-10.9,4-16.3c0.3-1.4,0.8-1.9,2.2-1.8C75.8,30.2,76.6,30.2,77.7,30.2z"/>
<path class="st0" d="M81.9,84.7c0.7-2.8,1.3-5.5,2-8.1c1.2-5,2.5-10,3.6-15c0.3-1.4,0.9-1.9,2.2-1.7c0.7,0.1,1.5,0,2.4,0
	c-0.5,2.1-1,4-1.4,6c-1.3,5.5-2.7,11.1-4,16.6c-0.6,2.3-0.6,2.3-2.9,2.3C83.2,84.8,82.7,84.8,81.9,84.7z"/>
</svg>
