<?xml version="1.0" encoding="utf-8"?>
<!-- Generator: Adobe Illustrator 23.0.0, SVG Export Plug-In . SVG Version: 6.00 Build 0)  -->
<svg version="1.1" id="Layer_1" xmlns="http://www.w3.org/2000/svg" xmlns:xlink="http://www.w3.org/1999/xlink" x="0px" y="0px"
	 viewBox="0 0 128 128" style="enable-background:new 0 0 128 128;" xml:space="preserve">
<style type="text/css">
	.st0{fill:#FFFFFF;stroke:#FFFFFF;stroke-width:2;stroke-miterlimit:10;}
	.st1{fill:#FFFFFF;stroke:#FFFFFF;stroke-width:1.84;stroke-miterlimit:10;}
</style>
<g>
	<path class="st0" d="M21.2,84.7c0-0.6,0-1,0-1.4c0.1-22.1,0.3-44.2,0.4-66.3c0-0.6,0.3-1.3,0.6-1.9c1.2-2.4,2.8-4.4,5.2-5.8
		C29,8.4,30.7,8,32.5,8c10.1-0.1,20.1-0.1,30.2-0.2c8,0,16.1,0.2,24,0c2.6,0,4.6,0.7,6.5,2.2c2.9,2.2,4.9,5.1,4.9,9
		c0.1,8,0.1,16,0.2,23.9c0,0.4,0,0.8,0,1.3c0.5,0,0.8,0,1.3,0c5.9,0,11.7,0,17.7,0.1c1.3,0,2.6,0.2,3.9,0.2c0.9,0,1.2,0.5,1.3,1.3
		c0.1,1.5,0.2,2.9,0.2,4.4c0,23,0.1,46.1,0.1,69.2c0,1.1-0.6,1.7-2,1.8c-1.6,0.1-3.1,0.2-4.7,0.2c-6.7,0.1-13.4,0.1-20.1,0.1
		c-9.3,0-18.6,0-27.9-0.1c-1.4,0-2.8-0.1-4.1-0.2c-1.3-0.1-1.8-0.6-1.9-1.8c-0.1-1.5-0.2-2.9-0.2-4.5c0-1.8,0-3.7,0-5.6
		c-0.5,0-0.8,0-1.2,0c-11.4,0-22.7,0-34-0.1c-2.9,0-6,0-8.8-0.6C11.2,107.4,6,101.6,5.5,95c-0.3-2.5-0.2-5-0.2-7.5
		c0-2,0.5-2.4,2.4-2.4c4-0.1,8.2-0.2,12.2-0.3C20.2,84.7,20.7,84.7,21.2,84.7z M77,11.9c-0.6,0-0.8,0-1.1,0c-8.3,0-16.6,0-25,0
		c-6.1,0-12.4,0.2-18.5,0.2c-1.7,0-3.2,0.6-4.4,1.7c-1.6,1.5-2.5,3.2-2.5,5.4c0,3.5-0.2,7-0.2,10.6c0,17.5,0,35.1,0,52.7
		c0,2.5-0.3,2.3,2.2,2.3c11.2-0.1,22.3-0.2,33.5-0.4c0.2,0,0.4-0.1,0.6-0.1c0-0.5,0-0.8,0-1.2c0-10.3,0-20.6,0-30.8
		c0-1.9,0.1-3.8,0.2-5.7c0.1-1.8,0.6-2.3,2.4-2.3c2.8-0.1,5.6,0,8.3-0.1c0.4,0,0.7,0,1.2,0c0-0.6,0-0.9,0-1.3
		c0-6.3,0.1-12.6,0.1-18.9c0-1.4,0.1-2.8,0.2-4.1C74.3,17,74.9,14.2,77,11.9z M118.7,48.4c-17.6,0-35.2,0-52.8,0
		c0,22.9,0,45.8,0,68.6c17.6,0,35.1,0,52.8,0C118.7,94.1,118.7,71.3,118.7,48.4z M61.7,88.7c-17.5,0-35,0-52.3,0c0,1.7,0,3.4,0,5.1
		c0,3.8,1.9,6.6,4.8,8.8c1.4,1,2.8,1.8,4.6,1.9c1.4,0.1,2.8,0.2,4.2,0.2c12.6,0.1,25,0.2,37.6,0.3c0.4,0,0.7,0,1.1,0
		C61.7,99.5,61.7,94.1,61.7,88.7z M78.1,44.1c5.5,0,10.9,0,16.3,0c0-1.4,0-2.8,0-4c-0.1-7.1-0.2-14.1-0.4-21.2
		c-0.1-3-1.8-5.3-4.6-6.3c-2.8-1.1-5.8-1.1-8.3,1.2c-2.1,1.9-2.8,4.2-2.8,7c0,7.6-0.1,15.1-0.2,22.8C78,43.5,78.1,43.8,78.1,44.1z"
		/>
	<path class="st0" d="M70.1,36.2c0,1.3,0,2.5,0,3.7c-10.9,0-21.7,0-32.6,0c0-1.2,0-2.4,0-3.7C48.3,36.2,59.1,36.2,70.1,36.2z"/>
	<path class="st0" d="M69.9,27.9c0.1,1.4,0.2,2.7,0.2,3.9c-10.9,0-21.7,0-32.8,0c0.1-1.1,0.1-2.3,0.2-3.4c0-0.3,0.6-0.6,1-0.6
		c3.5-0.1,6.9-0.1,10.4-0.1c6.7,0,13.4,0.1,20.1,0.1C69.2,27.9,69.5,27.9,69.9,27.9z"/>
	<path class="st0" d="M70.1,19.8c-0.1,1.3-0.1,2.5-0.2,3.9c-10.7,0-21.5,0-32.3,0c-0.1-1.3-0.2-2.5-0.3-3.9
		C48.2,19.8,59.1,19.8,70.1,19.8z"/>
	<path class="st0" d="M57.7,52.2c0.1,1.5,0.2,2.7,0.3,4c-6.9,0-13.7,0-20.6,0c0.1-1.1,0.1-2.3,0.2-3.4c0-0.2,0.6-0.5,1-0.5
		c4.1-0.1,8.3-0.1,12.4-0.1C53.2,52.2,55.5,52.2,57.7,52.2z"/>
	<path class="st0" d="M37.4,44.2c6.9,0,13.7,0,20.6,0c-0.1,1.3-0.2,2.5-0.2,3.9c-0.4,0-0.6,0.1-0.9,0.1c-6.1,0-12.1,0-18.2,0
		c-0.8,0-1.1-0.2-1.1-1C37.5,46.2,37.4,45.2,37.4,44.2z"/>
	<path class="st0" d="M57.8,72.5c-5.4,0-10.7,0-16.1,0c0-1.3,0-2.6,0-3.9c5.4,0,10.8,0,16.3,0C57.9,69.8,57.9,71,57.8,72.5z"/>
	<path class="st0" d="M41.6,64.2c0-1.3,0-2.5,0-3.7c5.4,0,10.8,0,16.2,0c0,1.2,0,2.4,0,3.7C52.4,64.2,47.1,64.2,41.6,64.2z"/>
	<path class="st0" d="M33.4,52.3c0.1,1.4,0.1,2.7,0.2,3.9c-1.5,0-2.8,0-4.1,0c0-1.4,0-2.7,0-4.1C30.8,52.1,32.1,52.2,33.4,52.3z"/>
	<path class="st0" d="M29.4,24c0-1.5,0-2.8,0-4.1c1.4,0,2.7,0,4.1,0c-0.1,1.3-0.1,2.5-0.2,3.9C32.1,23.9,30.8,23.9,29.4,24z"/>
	<path class="st0" d="M29.5,27.7c1.3,0.1,2.6,0.2,3.9,0.3c0.1,1.3,0.1,2.6,0.2,3.9c-1.4,0-2.8,0-4.1,0
		C29.5,30.6,29.5,29.2,29.5,27.7z"/>
	<path class="st0" d="M29.4,48.4c0-1.5,0-2.8,0-4.1c1.4,0,2.7,0,4.1,0c-0.1,1.3-0.1,2.6-0.2,3.9C32.1,48.2,30.8,48.3,29.4,48.4z"/>
	<path class="st0" d="M29.4,39.8c0-1.3,0-2.4,0-3.7c1.4,0,2.7,0,4,0c0,1.2,0,2.4,0,3.7C32.2,39.8,30.8,39.8,29.4,39.8z"/>
	<path class="st1" d="M91.9,51c6.4,0,12.7,0,19.2,0c0.8,0,1.4,0.1,2.2,0.1s1.1,0.4,1.1,1.1c0,4,0,7.9,0,11.8c0,1-0.5,1.4-1.7,1.5
		c-3,0.1-6.1,0.3-9.1,0.3c-9.8,0-19.6,0-29.4-0.1c-0.9,0-1.9-0.1-2.7-0.2c-0.8-0.1-1.3-0.6-1.4-1.4c0-0.2-0.1-0.3-0.1-0.4
		c0-3.7-0.1-7.3,0.2-11.1c0.1-1.9,0.7-1.9,2.2-1.9c6.6,0.1,13.2,0,19.8,0C91.9,50.9,91.9,50.9,91.9,51z M111,54.7
		c-12.5,0-24.9,0-37.3,0c0,2.4,0,4.8,0,7.3c12.5,0,24.9,0,37.3,0C111,59.5,111,57.2,111,54.7z"/>
	<path class="st0" d="M102.6,98.8c0-3.9,0-7.9,0-11.9c0-1.7,0.3-2,2-2c2.7,0,5.3,0,7.9,0c1.4,0,1.7,0.4,1.7,1.7
		c0.1,7.6,0.1,15.1,0.2,22.8c0,0.5-0.1,1-0.1,1.5c-0.2,1.6-0.4,1.9-1.9,2c-2.8,0.1-5.5,0.1-8.3,0c-1.3,0-1.6-0.4-1.6-1.8
		C102.6,107,102.6,102.9,102.6,98.8L102.6,98.8z M106.7,88.6c0,6.9,0,13.7,0,20.4c1.3,0,2.5,0,3.7,0c0-6.9,0-13.6,0-20.4
		C109,88.6,107.9,88.6,106.7,88.6z"/>
	<path class="st0" d="M108.5,80.6c-1.2,0-2.5,0.1-3.7,0c-1.6-0.1-2.2-0.6-2.3-2.1c-0.1-2.8,0-5.5,0.1-8.3c0-0.9,0.6-1.5,1.6-1.6
		c2.8-0.1,5.5-0.1,8.3,0c1.3,0,1.8,0.6,1.9,1.8c0.1,2.7,0.1,5.4,0,8.1c-0.1,1.3-0.7,1.8-2.1,1.9C111.1,80.6,109.8,80.6,108.5,80.6
		L108.5,80.6z M106.7,72.7c0,1.3,0,2.5,0,3.7c1.3,0,2.4,0,3.7,0c0-1.3,0-2.5,0-3.7C109,72.7,107.9,72.7,106.7,72.7z"/>
	<path class="st0" d="M70.1,74.5c0.1-1.5,0.2-2.9,0.2-4.5c0-0.8,0.5-1.4,1.3-1.4c2.8-0.1,5.7-0.2,8.5-0.1c1.4,0,2,0.7,2.1,2.1
		c0.1,2.5,0.1,5,0,7.5c-0.1,1.5-0.7,2.2-2.3,2.2c-2.8,0-5.5-0.1-8.3-0.1c-0.9,0-1.3-0.6-1.4-1.4C70.1,77.5,70.1,76.1,70.1,74.5z
		 M78,72.7c-1.4,0-2.8,0-4,0c0,1.3,0,2.4,0,3.7c1.4,0,2.7,0,4,0C78,75.2,78,74,78,72.7z"/>
	<path class="st0" d="M92.5,68.5c1.4,0.1,2.8,0.2,4.1,0.3c0.9,0.1,1.5,0.5,1.4,1.5c0,2.9,0,5.9-0.1,8.8c0,0.8-0.6,1.5-1.4,1.6
		c-2.8,0.1-5.8,0.1-8.6,0c-1.2,0-1.8-0.7-1.8-2.1c-0.1-2.5-0.1-5,0-7.5c0.1-1.7,0.6-2.2,2.5-2.3C90,68.5,91.2,68.5,92.5,68.5
		L92.5,68.5z M90.3,76.3c1.5,0,2.8,0,4,0c0-1.3,0-2.5,0-3.7c-1.4,0-2.8,0-4,0C90.3,74,90.3,75.2,90.3,76.3z"/>
	<path class="st0" d="M76,113c-1.6-0.1-3-0.2-4.6-0.3c-0.7,0-1.1-0.4-1.1-1.1c0-3-0.1-6.1,0-9c0-1,0.6-1.7,1.7-1.7
		c2.7,0,5.4-0.1,8.1,0c1.3,0.1,1.9,0.7,2,2c0.1,2.6,0.1,5.1,0,7.7c-0.1,1.5-0.8,2-2.4,2.1c-1.3,0.1-2.5,0-3.8,0
		C76,113,76,113,76,113z M73.9,105.1c0.1,1.3,0.2,2.6,0.3,3.9c1.4,0.1,2.6,0.2,3.9,0.2c0-1.5,0-2.8,0-4.1
		C76.6,105.1,75.3,105.1,73.9,105.1z"/>
	<path class="st0" d="M98.3,107.3c-0.1,1.6-0.2,2.8-0.3,4.2c0,0.7-0.3,1.3-1.2,1.3c-2.8,0-5.7,0.2-8.5,0.1c-1.5,0-2.1-0.8-2.2-2.3
		c-0.1-2.5-0.1-4.9,0-7.3c0-1.4,0.7-2.2,2-2.2c2.7-0.1,5.3-0.1,7.9,0c1.3,0.1,1.8,0.6,1.9,2C98.2,104.5,98.2,106,98.3,107.3z
		 M90.3,105c0,1.4,0,2.8,0,4.2c1.4-0.1,2.6-0.2,3.9-0.3c0.1-1.4,0.2-2.7,0.3-3.9C93.1,105,91.8,105,90.3,105z"/>
	<path class="st0" d="M92.3,84.8c1.6,0.1,3.1,0.2,4.8,0.3c0.6,0,1,0.4,1,1c0,2.9,0.1,5.9,0,8.8c0,1.4-0.6,1.9-2,2
		c-2.6,0.1-5.1,0.1-7.7,0c-1.4-0.1-2-0.7-2.1-2c-0.1-2.6-0.1-5.2,0.1-7.8c0.1-1.7,0.7-2,2.3-2.1c1.2,0,2.5,0,3.7,0
		C92.3,84.9,92.3,84.8,92.3,84.8z M90.3,92.8c1.4,0,2.8,0,4.1,0c-0.1-1.4-0.2-2.7-0.2-3.9c-1.4-0.1-2.6-0.1-3.9-0.2
		C90.3,90,90.3,91.3,90.3,92.8z"/>
	<path class="st0" d="M70.1,90.2c0.1-1.3,0.2-2.7,0.3-3.9c0-0.7,0.4-1.2,1.1-1.2c2.9,0,5.9-0.1,8.8,0c1.2,0,1.8,0.7,1.9,1.9
		c0.1,2.7,0.1,5.3,0,7.9c0,1.2-0.8,1.9-2.1,2c-2.6,0.1-5,0.1-7.6,0c-1.6-0.1-2-0.6-2.2-2.2c-0.1-1.5,0-2.9,0-4.5
		C70.1,90.2,70.1,90.2,70.1,90.2z M78,88.7c-1.1,0-2.2,0-3.3,0c-0.3,0-0.6,0.4-0.6,0.6c-0.1,1.1-0.2,2.2-0.2,3.4c1.5,0,2.8,0,4.1,0
		C78,91.4,78,90,78,88.7z"/>
</g>
</svg>
