<?xml version="1.0" encoding="utf-8"?>
<!-- Generator: Adobe Illustrator 23.0.0, SVG Export Plug-In . SVG Version: 6.00 Build 0)  -->
<svg version="1.1" id="Layer_1" xmlns="http://www.w3.org/2000/svg" xmlns:xlink="http://www.w3.org/1999/xlink" x="0px" y="0px"
	 viewBox="0 0 128 128" style="enable-background:new 0 0 128 128;" xml:space="preserve">
<style type="text/css">
	.st0{fill:#FFFFFF;stroke:#FFFFFF;stroke-width:2;stroke-miterlimit:10;}
</style>
<path class="st0" d="M120,61.2c0,19.4,0,39,0,58.7c-2.4,0-4.9,0-7.4,0c0-0.4,0-0.8,0-1.2c0-16.4,0-32.7,0-49.1
	c0-0.7,0.2-1.3,0.8-1.8C115.7,65.7,117.9,63.5,120,61.2z"/>
<g>
	<path class="st0" d="M84.5,73.2c12.1-1.5,22.4-6.4,29.9-16.1c2.2-2.8,3.4-5.9,3.5-9.5c1.2,0,2.4,0,3.6,0c0,24.6,0,49.3,0,74.1
		c-0.4,0-0.7,0-1.1,0c-24.9,0-49.8,0.1-74.7,0c-9.7,0-16.9-4.7-21.6-13.1c-0.3-0.4-0.7-0.9-1.1-1.3C11.9,98.9,6.3,87.8,6.7,73.8
		c0.4-10.1,4.4-18.6,11.5-25.7c4.2-4.2,8.5-8.5,12.6-12.6c0.3-0.3,0.6-0.5,1.1-0.8c-0.4-0.4-0.7-0.8-1-1.1c-2.9-2.9-5.8-5.8-8.7-8.6
		c-0.5-0.5-0.8-1.2-0.7-1.9c0.2-4,3.3-7.3,7.3-7.7c0.9-0.1,1.7-0.3,2.7-0.4c-0.4-1.3-0.8-2.7-1.3-4c1.7-0.4,3.4-0.7,5-1
		c2.2-0.4,4.3-0.8,6.5-1.3c0.8-0.3,1.3-0.2,1.6,0.5c0.7,1.2,1.5,2.3,2.3,3.6c1.4-1.9,2.8-3.7,4.1-5.5c0.4-0.5,0.8-0.8,1.5-0.5
		c3.1,0.7,6.4,1.5,9.6,2.3c-0.6,1.9-1.2,3.8-1.7,5.8c1.2,0.2,2.2,0.3,3.2,0.4c4.1,0.5,7.2,3.9,7.3,7.9c0,0.5-0.3,1.3-0.7,1.7
		c-2.9,3-5.8,5.8-8.7,8.8c-0.3,0.3-0.5,0.5-0.8,0.9c0.4,0.4,0.6,0.7,1,1c4.9,4.9,9.8,9.6,14.5,14.7c5.8,6.2,8.7,13.8,9.4,22.1
		C84.3,72.6,84.4,72.8,84.5,73.2z M80.7,73.5c0-0.4,0-0.5,0-0.6c0-0.4,0-0.7-0.1-1.1c-0.9-7.6-3.9-14.4-9.2-19.9
		c-4.9-5-9.9-10-14.9-14.9c-0.3-0.3-0.9-0.5-1.3-0.5c-6.4,0-12.8,0-19.2,0c-0.4,0-1.1,0.3-1.3,0.5c-4.8,4.7-9.5,9.4-14.2,14.1
		C8.4,63.4,7,81.6,16.8,95.8c1.3,2,3.1,3.7,4.6,5.6c0.1-0.1,0.2-0.2,0.3-0.2c0-0.4,0-0.6-0.1-1c-0.4-2.6-0.2-5.2,0.4-7.8
		c2.6-11.2,12.1-18.8,23.6-18.9c11.1,0,22.1,0,33.1,0C79.4,73.5,79.9,73.5,80.7,73.5z M45.6,118c11.2,0,20.4-9.1,20.4-20.2
		c0-11.3-9.1-20.5-20.3-20.5s-20.5,9.1-20.5,20.3C25.2,108.7,34.3,117.9,45.6,118z M117.9,59.1c-2.2,2.2-4.4,4.5-6.7,6.7
		c-0.5,0.5-0.8,1-0.8,1.8c0,16.4,0,32.7,0,49.1c0,0.4,0,0.8,0,1.2c2.5,0,4.9,0,7.4,0C117.9,98.2,117.9,78.6,117.9,59.1z
		 M106.7,117.9c0-16.3,0-32.4,0-48.5c-2.2,1.2-4.2,2.2-6.3,3.3c-0.8,0.4-1.1,0.8-1.1,1.6c0,14.1,0,28.2,0,42.4c0,0.4,0,0.7,0,1.2
		C101.9,117.9,104.3,117.9,106.7,117.9z M95.7,74.7c-2.4,0.6-4.9,1.2-7.3,1.8c0,13.8,0,27.6,0,41.4c2.4,0,4.9,0,7.3,0
		C95.7,103.4,95.7,89.1,95.7,74.7z M77.2,77.1c0,13.8,0,27.3,0,40.8c2.4,0,4.9,0,7.3,0c0-13.7,0-27.2,0-40.8
		C82.1,77.1,79.7,77.1,77.2,77.1z M73.4,117.9c0-13.6,0-27.2,0-40.7c-4.9,0-9.7,0-14.7,0c7.1,5,11.1,11.7,11.1,20.3
		s-4,15.3-11.1,20.3C63.7,117.9,68.4,117.9,73.4,117.9z M49.8,32.6c2.2-7,4.3-13.9,6.5-21c-1.3-0.4-2.4-0.6-3.6-0.9
		c-0.4-0.1-0.9,0.1-1.1,0.4c-1.3,1.5-2.3,3.1-3.6,4.7c-0.8,1.1-1.5,2.1-2.4,3.2c-1.4-2.1-2.7-4-4-6c-0.2-0.3-0.6-0.6-0.8-0.6
		c-1.9,0.4-3.7,0.9-5.7,1.3c2.1,6.2,4.1,12.3,6.2,18.4c0.1,0.3,0.4,0.5,0.7,0.5C44.6,32.6,47.1,32.6,49.8,32.6z M53.7,32.5
		c2.2,0.2,2.2,0.2,3.5-1.2c2.5-2.5,5-5,7.6-7.6c1.3-1.3,1.3-2,0.1-3.2c-0.6-0.6-1.5-1.2-2.4-1.4c-1.2-0.4-2.5-0.4-3.8-0.5
		c-0.3,0-0.7,0.3-0.8,0.4C56.5,23.5,55.1,28,53.7,32.5z M32.8,18.5c-1.4,0.2-2.8,0.3-4.1,0.5c-1.3,0.3-2.4,1.2-3.1,2.4
		c-0.4,0.7-0.4,1.2,0.3,1.8c2.8,2.7,5.6,5.5,8.3,8.3c1,1,1.9,1.3,3.2,0.9C35.9,27.9,34.3,23.3,32.8,18.5z"/>
	<path class="st0" d="M110.5,17.1c0,7,0,14,0,21.1c-1.3,0-2.4,0-3.7,0c0-7,0-14,0-21.3c-1.4,1.5-2.8,2.9-4.1,4.3
		c-1.1-1.1-1.9-1.9-2.6-2.6c2.9-2.9,5.8-5.8,8.5-8.5c2.7,2.7,5.6,5.7,8.5,8.5c-0.7,0.6-1.5,1.4-2.4,2.2c-1.3-1.3-2.5-2.7-3.8-4
		C110.9,16.9,110.7,17,110.5,17.1z"/>
	<path class="st0" d="M93.9,51.2c-1.3,0-2.2,0-3.2,0c-0.2,0-0.3,0-0.5-0.1c0-7,0-14,0-21.2c-1.3,1.4-2.7,2.8-4,4.2
		c-1-1.2-1.8-2-2.6-2.9c2.7-2.7,5.6-5.5,8.4-8.3c2.7,2.7,5.6,5.7,8.5,8.5c-0.7,0.6-1.5,1.4-2.4,2.3c-1.3-1.3-2.5-2.7-3.9-4
		c-0.1,0.1-0.3,0.2-0.4,0.3C93.9,37,93.9,44.1,93.9,51.2z"/>
	<path class="st0" d="M14.6,81.2c-1.5-10.7,1.3-19.8,8.6-27.6c0.9,0.9,1.8,1.7,2.7,2.6c-3.1,3.2-5.5,6.9-6.8,11.2
		c-1.3,4.2-1.6,8.6-0.8,13.1C17,80.7,15.9,80.9,14.6,81.2z"/>
	<path class="st0" d="M17.1,89.1c-0.5-1.3-1-2.6-1.5-4c1.3-0.4,2.3-0.7,3.5-1.2c0.4,1.2,0.9,2.2,1.3,3.5
		C19.3,88,18.3,88.5,17.1,89.1z"/>
	<path class="st0" d="M62.7,53.5c-0.7-0.8-1.5-1.6-2.4-2.4c0.8-0.8,1.7-1.6,2.5-2.4c0.7,0.8,1.5,1.6,2.4,2.5
		C64.5,51.9,63.7,52.7,62.7,53.5z"/>
	<path class="st0" d="M69.7,61.8c1.1-0.6,2.1-1.3,3.1-1.9c0.6,1.2,1.2,2.2,1.8,3.5c-1.2,0.5-2.2,1-3.4,1.4
		C70.8,63.8,70.2,62.8,69.7,61.8z"/>
	<path class="st0" d="M65.5,56.4c0.9-0.9,1.7-1.7,2.6-2.6c0.8,0.9,1.7,1.9,2.6,2.9c-1,0.8-1.9,1.5-2.9,2.2
		C67,58.1,66.3,57.2,65.5,56.4z"/>
	<path class="st0" d="M57.4,48.2c-0.7-0.7-1.5-1.4-2.3-2.2c0.8-0.8,1.7-1.7,2.5-2.5c0.7,0.7,1.5,1.5,2.2,2.3
		C59.2,46.5,58.3,47.3,57.4,48.2z"/>
	<path class="st0" d="M36.9,97.3c1.2,0,2.2,0,3.2,0c2.2,0,4.2-0.6,5.8-2.2c0.8-0.7,1.3-1.6,1.3-2.7c-3.9,0-7.6,0-11.6,0
		c0.6-0.9,1.2-1.8,1.8-2.6c0.1-0.1,0.4-0.2,0.5-0.2c2.7,0,5.4,0,8,0c0.3,0,0.4,0,0.8-0.1c-0.3-0.3-0.4-0.6-0.7-0.9
		c-0.8-0.7-1.8-1.1-2.8-1.3c-2.3-0.5-4.8-0.6-7.2-0.5c-0.1,0-0.2,0-0.4,0c0.6-0.9,1.3-1.8,1.9-2.7c0.1-0.1,0.4-0.2,0.6-0.2
		c5.6,0,11.1,0,16.6,0c0.7,0,1.4,0,2.2,0c-0.4,0.7-0.9,1.3-1.3,2c-0.4,0.9-1.1,1.2-2,1.1c-1.2-0.1-2.3,0-3.5,0
		c0.4,0.8,0.7,1.6,1.1,2.3c0.1,0.3,0.3,0.3,0.4,0.3c1.4,0,3,0,4.4,0c0.2,0,0.4,0,0.7,0c-0.4,0.7-0.8,1.3-1.3,1.9c0,0-0.1,0-0.1,0.1
		c-0.4,1.1-1.2,1.3-2.2,1.2c-0.4-0.1-1,0-1.4,0c-0.3,0-0.4,0.1-0.4,0.4c-0.5,2.1-1.7,3.5-3.5,4.6c-1.3,0.8-2.8,1.3-4.4,1.5
		c-0.5,0.1-1.2,0.2-1.8,0.4c3.8,4.4,7.6,8.8,11.5,13.3c-0.5,0-0.9,0-1.3,0c-1.1,0-2.2,0-3.2,0c-0.5,0-0.8-0.2-1.1-0.5
		c-1.4-1.7-3-3.4-4.5-5c-2.1-2.2-4.1-4.6-6.1-6.8c-0.1-0.1-0.2-0.3-0.2-0.4C36.9,99.1,36.9,98.3,36.9,97.3z"/>
</g>
</svg>
