<?xml version="1.0" encoding="utf-8"?>
<!-- Generator: Adobe Illustrator 23.0.0, SVG Export Plug-In . SVG Version: 6.00 Build 0)  -->
<svg version="1.1" id="Layer_1" xmlns="http://www.w3.org/2000/svg" xmlns:xlink="http://www.w3.org/1999/xlink" x="0px" y="0px"
	 viewBox="0 0 128 128" style="enable-background:new 0 0 128 128;" xml:space="preserve">
<style type="text/css">
	.st0{fill:#FFFFFF;stroke:#FFFFFF;stroke-miterlimit:10;}
</style>
<path class="st0" d="M119.3,84.8c-1,4.2-4.5,6-7.6,8.1c-10.2,7-20.9,13.4-32.3,18.6c-3.4,1.6-6.7,3.3-10.2,4.2
	c-5.7,1.5-11.4,0.7-16.8-2c-5.3-2.7-10.5-5.4-15.7-8.1c-0.5-0.3-1.2-1.1-1.2-1.6c-0.1-10.6-0.1-21.2-0.1-32.1c2.2,0,4.2,0.2,6.2,0
	c9.7-1.1,18,2.4,26,7.5c1.1,0.7,2.6,1,4,1.1c3.1,0.2,6.3,0,9.4,0.1c2.8,0.1,4.7,1.5,5.3,3.8c0.5,1.8-0.5,3.7-2.9,5.3
	c-3.3,2.3-6.9,2.4-10.7,2.3c-1.5,0-3-0.3-4.5-0.1c-0.9,0.2-2,1.1-2.3,2c-0.5,1.2,0.3,2.3,1.6,2.8c0.3,0.1,0.5,0.3,0.8,0.3
	c5.2-0.3,10.5,0.2,15.3-2.3c2.8-1.4,5-3.4,6-6.4c0.6-1.9,1.8-3,3.6-3.8c4.3-2,8.6-4.2,12.9-6.3c6.2-3,10.7-1.3,12.9,5
	C119.3,83.7,119.3,84.2,119.3,84.8z"/>
<path class="st0" d="M8.3,68.4c7.4,0,14.7,0,22.2,0c0,13.3,0,26.3,0,39.5c-7.5,0-14.8,0-22.2,0C8.3,94.8,8.3,81.7,8.3,68.4z"/>
<path class="st0" d="M66.3,68.7c-9.9,0-19.8,0-29.6,0c-0.1-0.1-0.1-0.2-0.2-0.2c-0.3-0.2-0.7-0.3-1-0.4c-0.7-0.3-1.1-1-1.6-1.6
	c-0.7-0.8-1-1.7-1-2.8c0-15.9,0-31.7,0-47.6c0-0.7,0.3-1.5,0.5-2.1c0.4-1,1.1-1.7,2.1-2.3c0.5-0.3,1-0.6,1.6-0.6
	c9.5,0,19.1,0,28.6,0c0.2,0,0.3,0,0.5,0.1c0.9,0.3,1.6,0.8,2.3,1.4c1.1,1,1.7,2.2,1.7,3.6c0,15.8,0,31.6,0,47.3
	c0,1.3-0.6,2.4-1.5,3.4c-0.6,0.7-1.3,1.1-2.2,1.4C66.5,68.5,66.4,68.6,66.3,68.7z M51.5,16.7c-4.2,0-8.4,0-12.7,0c-1.1,0-2,1-1.9,2
	c0,2.1,0,4.1,0,6.2c0,1,0.8,1.9,1.9,1.9c8.5,0,16.9,0,25.4,0c0.3,0,0.8-0.1,1-0.3c0.5-0.4,0.9-1,0.9-1.8c0-2,0-3.9,0-5.9
	c0-1-0.8-2.1-2.1-2.1C59.9,16.7,55.7,16.7,51.5,16.7z M60.5,55.8c0,1.7,0,3.5,0,5.1c0,0.8,0.4,1.2,1.2,1.2c0.5,0,1,0,1.5,0
	c0.9,0,1.3-0.5,1.3-1.3c0-2.9,0-5.8,0-8.8c0-0.4,0-1,0-1.4c-0.1-0.9-0.2-1.3-1.3-1.2c-0.6,0-1.1,0-1.7,0c-0.7,0-1,0.3-1,1
	C60.5,52.3,60.5,54.1,60.5,55.8z M42.6,59.9c0-0.4,0-1,0-1.4s-0.3-0.8-0.8-0.8c-0.8,0-1.6,0-2.3,0c-0.4,0-0.8,0.2-0.8,0.7
	c-0.1,0.9-0.1,1.8-0.1,2.7c0,0.5,0.6,1,1.1,1c0.6,0,1.2,0,1.8,0c0.5,0,1-0.5,1-1C42.6,60.8,42.6,60.3,42.6,59.9z M42.6,35.3
	c0-0.4,0-1,0-1.4c0-0.4-0.3-0.8-0.8-0.8c-0.8,0-1.6,0-2.4,0c-0.4,0-0.7,0.2-0.7,0.6c-0.1,1-0.2,1.9-0.1,2.9c0.1,1,0.3,1,1.1,1
	c0.7,0,1.4,0,2,0c0.5,0,0.8-0.2,0.8-0.8C42.6,36.2,42.6,35.8,42.6,35.3z M60.5,35.3c0,0.4,0,1,0,1.4c0,0.6,0.3,0.9,0.9,0.9
	c0.7,0,1.5,0,2.2,0c0.5,0,0.8-0.2,0.9-0.7c0.1-1,0.2-1.8,0.1-2.8c-0.1-0.8-0.3-1-1.1-1c-0.7,0-1.3,0-2,0c-0.6,0-0.9,0.3-0.9,0.9
	C60.5,34.4,60.5,34.8,60.5,35.3z M42.6,43.6c0-0.4,0-0.9,0-1.3c0,0,0,0,0-0.1c0-0.6-0.3-0.9-1-0.9c-0.7,0-1.5,0-2.2,0
	c-0.4,0-0.7,0.2-0.8,0.6c-0.1,1-0.1,1.9-0.1,2.9c0,0.6,0.4,1,1.1,1c0.6,0,1.3,0,1.9,0c0.5,0,1-0.3,1-1C42.6,44.5,42.6,44,42.6,43.6z
	 M60.5,43.6L60.5,43.6c0,0.4,0,0.9,0.1,1.3c0,0.5,0.4,1,1,1c0.7,0,1.3,0,2,0c0.5,0,0.9-0.3,1-0.7c0.1-1,0-2,0-2.9
	c0-0.4-0.3-0.7-0.7-0.7c-0.8,0-1.6,0-2.4,0c-0.3,0-0.6,0.2-0.7,0.5C60.5,42.5,60.5,43,60.5,43.6z M42.6,51.8c0-0.4,0-1,0-1.4
	c0-0.6-0.3-0.9-0.9-0.9c-0.7,0-1.5,0-2.2,0c-0.5,0-0.8,0.3-0.8,0.7c-0.1,0.9-0.1,1.7-0.1,2.6c0,0.7,0.4,1,1.1,1c0.6,0,1.2,0,1.8,0
	c0.7,0,1-0.3,1-1C42.6,52.5,42.6,52.2,42.6,51.8z M45.9,59.8c0,0.4,0,0.9,0,1.3c0,0.7,0.4,1.1,1,1.1s1.3,0,1.9,0c0.4,0,1-0.5,1-0.9
	c0-1,0-1.9,0-2.8c0-0.4-0.2-0.8-0.7-0.8c-0.8,0-1.6,0-2.4,0c-0.5,0-0.8,0.3-0.8,0.9C45.9,58.9,45.9,59.4,45.9,59.8z M57.1,59.9
	c0-0.4,0-0.8,0-1.2c0-0.7-0.3-1-1-1c-0.7,0-1.4,0-2.1,0c-0.6,0-0.9,0.3-0.9,0.9c0,0.9,0,1.7,0,2.6c0,0.5,0.5,1,1,1
	c0.6,0,1.2,0,1.8,0c0.7,0,1.1-0.4,1.1-1.1C57.1,60.7,57.1,60.2,57.1,59.9z M45.9,35.3c0,0.5,0,1,0,1.6c0,0.4,0.3,0.7,0.7,0.7
	c0.8,0,1.5-0.1,2.3,0c0.7,0.1,0.9-0.3,0.9-1c0-0.9,0-1.7,0-2.7c0-0.5-0.3-0.8-0.8-0.8c-0.8,0-1.5,0-2.3,0c-0.5,0-0.9,0.3-0.9,0.9
	C45.9,34.4,45.9,34.8,45.9,35.3z M53.2,35.3c0,0.4,0,1,0,1.4c0,0.6,0.3,0.8,0.8,0.8c0.8,0,1.5,0,2.3,0c0.6,0,0.8-0.2,0.8-0.8
	c0-1,0-1.9,0-2.8c0-0.4-0.3-0.8-0.8-0.8c-0.8,0-1.6,0-2.3,0c-0.5,0-0.8,0.3-0.8,0.8C53.2,34.4,53.2,34.8,53.2,35.3z M49.8,43.5
	c0-0.4,0-1,0-1.4c0-0.4-0.3-0.7-0.7-0.7c-0.8,0-1.6,0-2.4,0c-0.4,0-0.7,0.3-0.7,0.7c0,1,0,2,0,2.9c0,0.4,0.4,0.8,0.8,0.8
	c0.7,0,1.4,0,2.1,0s1-0.3,1-1C49.8,44.4,49.8,43.9,49.8,43.5z M53.2,43.5c0,0.4,0,1,0,1.4c0,0.5,0.3,0.9,0.9,0.9c0.6,0,1.3,0,1.9,0
	c0.9,0,1.1-0.3,1.1-1.1c0-0.8,0-1.6,0-2.4c0-0.5-0.3-0.9-0.9-0.9c-0.8,0-1.5,0-2.3,0c-0.5,0-0.8,0.3-0.8,0.8S53.2,43.1,53.2,43.5z
	 M45.9,51.7c0,0.4,0,0.9,0,1.3c0,0.7,0.3,1,1,1c0.7,0,1.4,0,2,0c0.4,0,0.8-0.4,0.8-0.8c0-1,0-1.9,0-2.8c0-0.4-0.3-0.8-0.8-0.8
	c-0.8,0-1.6,0-2.3,0c-0.5,0-0.8,0.3-0.8,0.8C45.9,50.8,45.9,51.2,45.9,51.7z M57.1,51.7c0-0.4,0-0.9,0-1.3c0-0.5-0.3-0.8-0.9-0.9
	c-0.7,0-1.4,0-2.2,0c-0.6,0-0.9,0.3-0.9,1c0,0.8,0,1.6,0,2.4c0,0.7,0.3,1,1,1c0.6,0,1.2,0,1.8,0c0.7,0,1-0.3,1-1
	C57.1,52.5,57.1,52.1,57.1,51.7z"/>
<path class="st0" d="M92.1,30.3c10.8,0,19.5,8.1,19.6,19.6c0,10.8-8.1,19.3-19.4,19.6c-11.1,0.2-20-8.9-19.9-20.1
	C72.6,39,81,30.1,92.1,30.3z M85.6,48.5c-0.5,2.2-0.2,3.9,1.6,5.5c1.7,1.6,3.2,3.4,4.6,5.3c1.5,1.9,3.1,1.9,5.5,1.2
	c-2.6-3-4.9-5.8-6.9-8.1c1.6-1,3.4-1.7,4.2-3c1.1-1.6,2.1-2.9,4.2-2.4c0.3-1.6,0.3-2.5-1.6-2.6c-0.8,0-1.6-1-2.3-1.5
	c0.1-0.3,0.3-0.5,0.3-0.8c0.9,0,1.8,0.2,2.7-0.1c0.4-0.1,1-0.8,1-1.2s-0.6-1.3-0.9-1.3c-4.2-0.1-8.3-0.1-12.5-0.1c0,1.4,0,2.5,0,3.5
	c2.2,0.3,4.2,0.4,6.2,0.7c0,0.3-0.1,0.6-0.1,0.9c-2,0-4,0-6.1,0c0,1,0,1.6,0,2.6c2.3,0,4.2,0,6.8,0C90.1,49.2,87.6,47.7,85.6,48.5z"
	/>
</svg>
