<?xml version="1.0" encoding="utf-8"?>
<!-- Generator: Adobe Illustrator 23.0.0, SVG Export Plug-In . SVG Version: 6.00 Build 0)  -->
<svg version="1.1" id="Layer_1" xmlns="http://www.w3.org/2000/svg" xmlns:xlink="http://www.w3.org/1999/xlink" x="0px" y="0px"
	 viewBox="0 0 128 128" style="enable-background:new 0 0 128 128;" xml:space="preserve">
<style type="text/css">
	.st0{fill:#FFFFFF;stroke:#FFFFFF;stroke-width:2;stroke-miterlimit:10;}
</style>
<g>
	<path class="st0" d="M109,117.1c-30.2,0-60.3,0-90.5,0c-0.3-0.1-0.4-0.2-0.7-0.2c-3.5-0.8-5.8-2.9-6.9-6.3
		c-0.2-0.5-0.3-1.1-0.5-1.7c0-17.3,0-34.6,0-52c0-0.1,0.1-0.1,0.1-0.2C11.7,51.5,15,49,20.6,49c3.8,0,7.6,0,11.5,0
		c0.8,0,1.4-0.2,1.9-0.8C45.5,36.7,57,25.1,68.6,13.6c0.5-0.5,1-1,1.5-1.4c3.8-2.9,9-2.5,12.5,1.1c10,10,19.9,19.9,29.9,29.9
		c2.1,2,4,4.1,4.5,7.2c0,0.9,0,1.8,0,2.7c-0.7,1.4-0.6,2.6,0,4c0,17.3,0,34.6,0,52c-0.1,0.3-0.2,0.5-0.3,0.8c-0.9,3.5-3,5.8-6.4,6.9
		C110,116.9,109.5,117,109,117.1z M63.6,110.9c14.5,0,28.9,0,43.4,0c2.6,0,3.8-1.2,3.8-3.8c0-16,0-32,0-48c0-2.7-1.1-3.9-3.9-3.9
		c-28.9,0-57.7,0-86.6,0c-2.7,0-3.9,1.1-3.9,3.9c0,16,0,31.9,0,47.9c0,2.8,1.1,3.9,3.9,3.9C34.8,110.9,49.2,110.9,63.6,110.9z
		 M42.2,48.6c0.1,0.1,0.2,0.3,0.2,0.3c0.2,0,0.4,0.1,0.6,0.1c10.2,0,20.4,0,30.6,0c0.4,0,1-0.3,1.4-0.6c4.1-4.1,8.1-8.1,12.2-12.2
		c1.6-1.6,3.1-3.1,4.7-4.7c-0.3-0.3-0.4-0.5-0.7-0.8c-4.3-4.3-8.5-8.5-12.9-12.9c-1.9-1.9-3.5-1.8-5.3,0c-9.9,10.1-19.9,20.1-30,30
		C42.8,48.2,42.5,48.3,42.2,48.6z M83.5,48.9c2.8,0,5.5,0,8.2,0c0.3,0,0.7-0.3,0.9-0.5c1.8-1.8,3.6-3.6,5.3-5.3
		c0.9-0.9,1.9-1.8,2.7-2.6c-1.6-1.6-3-3-4.3-4.3C92.1,40.3,87.9,44.6,83.5,48.9z M101.1,49c2.9,0,5.6,0,8,0c-1.3-1.4-2.7-2.7-4-4
		C103.9,46.2,102.6,47.5,101.1,49z"/>
	<path class="st0" d="M33.3,82.3c-1.7,0-3.4,0-5.1,0c-3.3-0.1-5.4-2.2-5.4-5.6c0-2.6,0-5.2,0-7.8c0-3.1,2.2-5.3,5.2-5.4
		c3.5-0.1,7-0.1,10.5,0c3.1,0,5.2,2.2,5.3,5.3c0,2.7,0,5.4,0,8.1c0,3-2.1,5.2-5.2,5.2C37,82.3,35.2,82.3,33.3,82.3L33.3,82.3z
		 M29.1,76c2.9,0,5.7,0,8.5,0c0-2,0-4.1,0-6.1c-2.9,0-5.7,0-8.5,0C29.1,71.9,29.1,73.9,29.1,76z"/>
	<path class="st0" d="M22.7,101.3c0-2,0-4.1,0-6.1c4.8,0,9.6,0,14.5,0c0,2,0,4.1,0,6.1C32.3,101.3,27.6,101.3,22.7,101.3z"/>
	<path class="st0" d="M59.7,95.2c0,2,0,4,0,6.1c-4.8,0-9.6,0-14.5,0c0-2,0-4,0-6.1C50,95.2,54.8,95.2,59.7,95.2z"/>
	<path class="st0" d="M82.2,95.2c0,2,0,4,0,6.1c-4.8,0-9.6,0-14.5,0c0-2,0-4,0-6.1C72.5,95.2,77.3,95.2,82.2,95.2z"/>
	<path class="st0" d="M104.7,101.3c-4.9,0-9.6,0-14.5,0c0-2,0-4.1,0-6.1c4.8,0,9.6,0,14.5,0C104.7,97.2,104.7,99.3,104.7,101.3z"/>
</g>
</svg>
