<?xml version="1.0" encoding="utf-8"?>
<!-- Generator: Adobe Illustrator 23.0.0, SVG Export Plug-In . SVG Version: 6.00 Build 0)  -->
<svg version="1.1" id="Layer_1" xmlns="http://www.w3.org/2000/svg" xmlns:xlink="http://www.w3.org/1999/xlink" x="0px" y="0px"
	 viewBox="0 0 128 128" style="enable-background:new 0 0 128 128;" xml:space="preserve">
<style type="text/css">
	.st0{fill:#FFFFFF;stroke:#FFFFFF;stroke-width:2;stroke-miterlimit:10;}
</style>
<g>
	<path class="st0" d="M53.1,41.8c0,0.3,2.9,2.9,3.1,3.1c9.2,10,15.7,21.9,18.9,35.2c1.1,4.4,1.8,8.9,0.9,13.4
		c-1.3,7-5,12.3-11.6,15.3c-1.2,0.5-2.5,0.7-3.8,1.1H18.7c-1-0.2-1.9-0.4-2.9-0.7c-5-1.6-8.1-5.1-10-9.7c-1.9-4.5-2.2-9.2-1.7-13.9
		c1.6-13.3,7.5-24.8,15.6-35.4c1.5-2,3.2-3.9,5-5.7c1.8-1.8,3.7-3.3,5.5-4.9c-2-2.2-4.1-4.4-6-6.7c-2.7-3.3-5-6.9-6.3-11.1
		c-0.5-1.7-0.5-3.5,0.1-5.2c0.7-2,2.5-2.8,4.4-1.8c1,0.5,2,1.3,2.9,2c0.3,0.2,0.6,0.5,1,0.6c1.2,0.7,1.6,0.6,2.5-0.7
		c1-1.3,2-2.6,3.1-3.8c0.4-0.5,1-0.8,1.5-1.2c1.8-1.1,4.2-0.7,5.6,1c0.9,1.2,1.6,2.6,2.5,3.9c0.8,1.3,1.6,2.5,2.6,3.9
		c0.7-0.9,1.3-1.5,1.9-2.2c1.6-1.9,3.4-3.4,5.8-4c2.6-0.7,5.1-0.1,7.5,0.9c0.8,0.3,1.1,1.1,1.1,2c-0.1,2.8-0.8,5.5-1.9,8
		c-1.1,2.4-2.4,4.8-3.6,7.1c-0.1,0.2-0.2,0.4-0.4,0.7c-0.2,0.3-2.9,6-2.9,6.4L53.1,41.8z M44,42.5c-0.5,0.1-0.9,0.2-1.2,0.3
		c-2.4,0.5-4.8,0.7-7-0.3c-1.3-0.5-2.2-0.3-3.1,0.5c-0.2,0.1-0.4,0.3-0.5,0.4c-4.4,3.4-8,7.6-11.1,12.1C15,64,10.4,73.1,8.6,83.4
		c-0.8,4.4-0.9,8.8,0.5,13.1c1.6,4.7,4.9,9.5,12.7,9.4c12.2-0.2,24.4,0,36.6,0c2.7,0,5.1-0.8,7.2-2.5c3.9-3.1,6-7.3,6.4-12.2
		c0.3-4-0.4-7.9-1.5-11.8c-3-10.9-8.6-20.4-15.8-29.1l-2.3-2.4c-1.6-2.3-3.7-4.9-6.4-5.1L44,42.5z M21.5,19.1
		c0.2,0.9,0.2,1.5,0.5,2.1c0.9,1.9,1.8,3.8,2.9,5.6c2.7,4.2,5.9,7.9,10,10.9c3.4,2.5,9.5,1.2,11.5-1.1c3.3-3.6,5.9-7.7,7.8-12.2
		c0.8-1.9,1.3-3.9,2-5.9c-0.6-0.1-0.9-0.2-1.3-0.3c-2.1-0.3-3.8,0.3-5.2,1.9c-0.9,1-1.8,2.1-2.8,3.1c-1.9,1.8-4,1.9-5.9,0
		c-0.9-0.9-1.7-1.9-2.4-3c-0.8-1.2-1.4-2.5-2.2-3.7c-0.3-0.5-0.6-0.9-0.9-1.4c-1.4,1-2.4,2.2-3.2,3.6c-2.1,3.5-5.1,4.2-8.6,2
		C23.1,20.3,22.4,19.8,21.5,19.1z"/>
</g>
<g>
	<path class="st0" d="M94.8,113.6c13.5,0,24.6-11,24.6-24.6c0-13.5-11-24.5-24.5-24.6c-13.5,0-24.6,11-24.6,24.5
		C70.2,102.5,81.2,113.6,94.8,113.6z M85.7,57.6c6.7,0,13.3,0,20,0c2.6,0,4.5-2,4.4-4.5c-0.1-2.3-2-4-4.5-4c-10.5,0-21.1,0-31.6,0
		c-2.8,0-5.5,0-8.3,0c-1.9,0-3.6,1.3-4.1,3.1c-0.8,2.8,1.2,5.4,4.2,5.4C72.4,57.6,79,57.6,85.7,57.6z M54.1,45.8c6.7,0,5.7,0,12.3,0
		c6.6,0,13.3,0,19.9,0c2.1,0,3.7-1.2,4.3-3.1c0.8-2.8-1.2-5.4-4.2-5.4c-7.9,0-15.9,0-23.8,0c-5.3,0-8.6,1-13.9,1l1.9-4
		C63.7,34.3,73,34,86.1,34c6.1,0,9.7,6,6.8,11.3c-0.1,0.1-0.1,0.2-0.2,0.5c0.4,0,0.7,0,1,0c4.1,0,8.1,0,12.2,0
		c4.2,0,7.5,3.5,7.4,7.7c-0.1,3.9-3.3,7.2-7.2,7.3c-1.5,0-2.9,0-4.5,0c0.3,0.9,0.7,1.4,1.6,1.7c10.7,3.8,17.1,11.3,19.1,22.5
		c0.1,0.6,0.2,1.2,0.3,1.8c0,1.4,0,2.8,0,4.3c-0.2,1.5-0.4,3-0.8,4.4c-3.1,11.4-10.5,18.6-22.1,20.9c-9.5,1.8-17.8-1.1-24.8-7.8
		c-0.4-0.4-0.8-0.5-1.3-0.5c-5.6,0-11.1,0-16.7,0c-1,0-1.8-0.8-1.7-1.8v0c0-0.8,0.7-1.5,1.6-1.5c4.7,0,9.5,0,14.2,0
		c0.2,0,0.4,0,0.4,0c-1.3-2.8-2.6-5.6-3.9-8.5c-3.6,0-7.3,0-11.1,0c-0.7,0-1.2-0.5-1.2-1.2l0-0.8c0-0.1,0-0.2,0-0.3
		c0.2-0.8,0.9-1.3,1.7-1.3c3.1,0,6.1,0.3,9.3,0.3c0.3,0,0.6,0,0.9,0v-8.5c0,0-0.2,0-0.4,0c-3.3,0-4.4,0-7,0c-0.9,0-1.6-0.7-1.6-1.6
		v0c0-0.9,0.7-1.7,1.7-1.7c2.9,0,4.3,0,7.8,0c0.2,0,0.5-0.2,0.6-0.4c0.9-2.9,2.3-5.5,4-8.1c-0.2-0.1-0.2-0.1-0.3-0.1
		c-5.7,0,1.8,0-3.9,0l0.3-3.3c6.3,0-0.4,0,5.9,0c0.6,0,1-0.2,1.4-0.6c4.7-4.4,10.2-6.9,16.6-7.5c1.4-0.1,2.8,0,4.2,0l0-0.3
		c-0.6,0-1.2-0.1-1.7-0.1c-9.8,0-19.6,0-29.4,0c-3.4,0,1,0-2.4,0l-0.3-3.3c1.5,0-3,0-1.4,0c-1.7-2.9-3.7-5.7-2-8.5
		c-0.7,0-1.2,0-1.7,0c-3.8,0-0.1,0-3.9,0"/>
</g>
<g>
	<path class="st0" d="M98.6,107.3c-0.1-0.1-0.1-0.2-0.2-0.3c-3.9-3.9-7.8-7.8-11.7-11.7c-0.2-0.2-0.3-0.4-0.3-0.6c0-1.1,0-2.3,0-3.4
		c0-0.1,0-0.2,0-0.4c0.2,0,0.3,0,0.4,0c2.3,0,4.7,0,7,0c2.6-0.1,4.5-1.3,5.6-3.6c0.1-0.1,0.1-0.3,0.2-0.4c0,0,0-0.1,0-0.1
		c-0.1,0-0.3,0-0.4,0c-4.2,0-8.3,0-12.5,0c-0.3,0-0.4-0.1-0.4-0.4c0-1.1,0-2.3,0-3.4c0-0.1,0-0.2,0-0.4c4.4,0,8.8,0,13.3,0
		c-0.3-0.5-0.5-0.9-0.7-1.3c-1.2-1.8-2.9-2.8-5.1-2.8c-2.4,0-4.7,0-7.1,0c-0.1,0-0.3,0-0.4,0c0-1.4,0-2.8,0-4.1c7,0,14,0,20.9,0
		c0,1.4,0,2.7,0,4.1c-1.7,0-3.4,0-5.2,0c0.9,1.3,1.6,2.7,1.9,4.2c1.1,0,2.2,0,3.3,0c0,1.4,0,2.8,0,4.2c-1.1,0-2.2,0-3.3,0
		c-1.8,5.8-5.7,8.5-11.7,8.4c3.1,3.1,6.1,6.1,9.2,9.2C100.6,105.3,99.6,106.3,98.6,107.3C98.6,107.3,98.6,107.3,98.6,107.3z"/>
</g>
<g>
	<path class="st0" d="M42.3,100.4c-0.1-0.1-0.2-0.2-0.3-0.3C36.9,95,31.9,90,26.8,84.9c-0.2-0.2-0.3-0.5-0.3-0.8c0-1.5,0-3,0-4.4
		c0-0.2,0-0.3,0-0.5c0.2,0,0.4,0,0.5,0c3,0,6.1,0,9.1,0c3.4-0.1,5.8-1.7,7.3-4.7c0.1-0.2,0.1-0.3,0.2-0.5c0,0,0-0.1,0-0.2
		c-0.2,0-0.3,0-0.5,0c-5.4,0-10.8,0-16.2,0c-0.4,0-0.5-0.1-0.5-0.5c0-1.5,0-2.9,0-4.4c0-0.1,0-0.3,0-0.5c5.8,0,11.5,0,17.3,0
		c-0.3-0.6-0.6-1.2-0.9-1.7c-1.6-2.3-3.8-3.6-6.6-3.7c-3.1-0.1-6.1,0-9.2,0c-0.2,0-0.4,0-0.6,0c0-1.8,0-3.6,0-5.4c9,0,18.1,0,27.2,0
		c0,1.8,0,3.5,0,5.4c-2.2,0-4.5,0-6.8,0c1.2,1.7,2,3.4,2.4,5.4c1.4,0,2.9,0,4.3,0c0,1.8,0,3.6,0,5.4c-1.4,0-2.9,0-4.2,0
		c-2.3,7.6-7.4,11.1-15.1,10.9c4,4,7.9,7.9,12,12C44.9,97.9,43.7,99.2,42.3,100.4C42.3,100.4,42.3,100.4,42.3,100.4z"/>
</g>
</svg>
