<?xml version="1.0" encoding="utf-8"?>
<!-- Generator: Adobe Illustrator 23.0.0, SVG Export Plug-In . SVG Version: 6.00 Build 0)  -->
<svg version="1.1" id="Layer_1" xmlns="http://www.w3.org/2000/svg" xmlns:xlink="http://www.w3.org/1999/xlink" x="0px" y="0px"
	 viewBox="0 0 128 128" style="enable-background:new 0 0 128 128;" xml:space="preserve">
<style type="text/css">
	.st0{fill:#FFFFFF;stroke:#FFFFFF;stroke-width:2;stroke-miterlimit:10;}
</style>
<path class="st0" d="M8.3,103.6c0-17.1,0-34.2,0-51.2c0.1-0.2,0.2-0.3,0.2-0.4c1-4.2,4.2-6.7,8.5-6.7c1.9,0,3.9,0,5.9,0
	c0.1-0.4,0.2-0.7,0.2-1c0.5-4.6,1-9.3,1.5-13.8c0.5-4.8,4.6-7.9,9.4-7.4c6.7,0.6,13.3,1.1,19.9,1.6c6.3,0.5,12.7,1,19,1.6
	c6.4,0.5,12.9,1.1,19.3,1.6c6.3,0.5,12.7,1,19,1.6c2.6,0.3,4.8,1.3,6.2,3.5c0.7,1,1,2.3,1.6,3.5c0,1,0,1.9,0,2.9
	c-0.1,0.3-0.2,0.5-0.2,0.9c-0.4,5.2-0.9,10.4-1.3,15.5c-0.9,10.3-1.8,20.5-2.5,30.8c-0.3,4.5-4.1,9-10.1,8.1
	c-0.5-0.1-1.1-0.1-1.7-0.1c0,2.5,0,4.9,0,7.3c0,0.9-0.1,1.8-0.3,2.7c-1,3.8-4.2,6.2-8.4,6.2c-24.8,0-49.8,0-74.6,0c-1,0-2.2,0-3.2,0
	c-3.9-0.1-7.1-2.6-8-6.3C8.5,104.1,8.4,103.9,8.3,103.6z M12.6,75.6c0,0.4,0,0.8,0,1.1c0,8.3,0,16.6,0,24.8c0,3.1,1.6,4.7,4.7,4.7
	c25.6,0,51.2,0,76.9,0c3.2,0,4.8-1.6,4.8-4.8c0-8.2,0-16.4,0-24.7c0-0.3,0-0.8,0-1.2C70.2,75.6,41.4,75.6,12.6,75.6z M27.3,45.2
	c0.6,0,1,0,1.5,0c21.7,0,43.4,0,65.1,0c1,0,2,0.1,3,0.3c3.9,0.9,6.4,4.2,6.4,8.6c0,11.6,0,23.1,0,34.7c0,0.4,0,0.9,0,1.4
	c1.2,0.1,2.2,0.3,3.2,0.3c2.3,0.1,4-1.5,4.2-3.7c0.5-5.7,1-11.4,1.5-17.1c0.9-10.3,1.7-20.5,2.6-30.8c0.3-3-1.2-4.8-4.2-5
	c-5.5-0.4-11.2-1-16.7-1.4c-7.4-0.6-14.8-1.2-22.2-1.9c-6.6-0.5-13.1-1.1-19.6-1.6c-6.2-0.5-12.5-1-18.8-1.6
	c-2.3-0.2-4.1,1.2-4.3,3.5c-0.3,2.3-0.5,4.5-0.8,6.8C27.8,40.1,27.5,42.5,27.3,45.2z M12.7,71.2c28.8,0,57.5,0,86.1,0
	c0-3,0-5.9,0-8.8c-28.7,0-57.5,0-86.1,0C12.7,65.3,12.7,68.2,12.7,71.2z M98.9,57.9c0-1.2,0-2.3,0-3.4c0-3.6-1.5-5-5-5
	c-25.4,0-50.8,0-76.3,0c-0.4,0-0.9,0-1.3,0c-1.8,0.2-3.4,1.4-3.5,3.2c-0.2,1.7,0,3.5,0,5.2C41.4,57.9,70.1,57.9,98.9,57.9z"/>
<path class="st0" d="M79.5,100c-3.3,0-6.7,0-10,0c-1.9,0-2.7-0.7-2.7-2.7c0-4.2,0-8.4,0-12.6c0-1.9,0.7-2.6,2.6-2.6
	c6.7,0,13.2,0,19.9,0c1.9,0,2.6,0.8,2.6,2.7c0,4.2,0,8.5,0,12.6c0,1.8-0.8,2.6-2.6,2.6C86.1,100,82.8,100,79.5,100z M71.3,95.5
	c5.5,0,10.9,0,16.4,0c0-3,0-6.1,0-9.1c-5.5,0-10.9,0-16.4,0C71.3,89.5,71.3,92.5,71.3,95.5z"/>
</svg>
