<?xml version="1.0" encoding="utf-8"?>
<!-- Generator: Adobe Illustrator 23.0.0, SVG Export Plug-In . SVG Version: 6.00 Build 0)  -->
<svg version="1.1" id="Layer_1" xmlns="http://www.w3.org/2000/svg" xmlns:xlink="http://www.w3.org/1999/xlink" x="0px" y="0px"
	 viewBox="0 0 128 128" style="enable-background:new 0 0 128 128;" xml:space="preserve">
<style type="text/css">
	.st0{fill:#FFFFFF;stroke:#FFFFFF;stroke-width:3;stroke-miterlimit:10;}
</style>
<path class="st0" d="M77.9,102.5c0.5,5.4-0.4,10.7,1,16.1c-8.8,0.6-17.3,0.3-25.6,0.1c0.2-5.4,0.4-10.7,0.6-16.2c-2,0-3.7,0.1-5.5,0
	c-3-0.1-3.7-0.9-3.7-3.8c0-25.4,0-50.7,0.1-76.1c0-3.2,0-6.2-0.1-9.4c0-2.1,0.9-3.2,3.1-3.2c11.9,0,23.9,0,35.8,0
	c2.6,0,3.4,0.8,3.4,3.5C86.9,41.7,87,69.9,87,98c0,3.7-0.6,4.3-4.4,4.4C81.2,102.5,79.7,102.5,77.9,102.5z M47.8,43L47.8,43
	c0,9.1,0,18.1,0,27.2c0,2.1,0.5,2.6,2.6,2.6c10.3,0,20.6,0,30.8,0c2.1,0,2.6-0.5,2.6-2.6c0-18.1,0-36.3,0-54.5c0-2-0.4-2.5-2.3-2.5
	c-10.5,0-20.9,0-31.3,0c-1.9,0-2.4,0.5-2.4,2.5C47.8,24.8,47.8,33.9,47.8,43z"/>
</svg>
