<?xml version="1.0" encoding="utf-8"?>
<!-- Generator: Adobe Illustrator 23.0.0, SVG Export Plug-In . SVG Version: 6.00 Build 0)  -->
<svg version="1.1" id="Layer_1" xmlns="http://www.w3.org/2000/svg" xmlns:xlink="http://www.w3.org/1999/xlink" x="0px" y="0px"
	 viewBox="0 0 128 128" style="enable-background:new 0 0 128 128;" xml:space="preserve">
<style type="text/css">
	.st0{fill:#FFFFFF;stroke:#FFFFFF;stroke-width:2;stroke-miterlimit:10;}
</style>
<g>
	<path class="st0" d="M50.2,50.1c0,8.6-0.1,17.1,0,25.7c0.1,5-2.3,7.4-7.5,7.4c-7.5-0.1-15-0.1-22.5,0c-5.2,0.1-7.8-2-7.7-7.1
		c0.1-17.3,0.1-34.7,0-52c0-4.9,2.2-7.4,7.5-7.3c7.5,0.1,15,0.2,22.5,0c5.7-0.1,7.8,2.5,7.8,7.7C50.2,33,50.2,41.6,50.2,50.1z
		 M16.4,73.5c10.3,0,20.1,0,30,0c0-15.9,0-31.3,0-47.1c-10.2,0-20,0-30,0C16.4,42.3,16.4,57.9,16.4,73.5z"/>
	<path class="st0" d="M73.6,37.1c10.3,0,20.5,0,30.9,0c4.1,0,4.8,0.7,4.8,4.8c0,13,0,26.1,0,39.1c0,3.5-0.9,4.4-4.3,4.4
		c-20.8,0-41.8,0-62.6,0c-3.4,0-4.4-1-4.4-4.4c0-13.3,0-26.5,0-39.8c0-3.4,1-4.2,4.4-4.2C52.8,37.1,63.2,37.1,73.6,37.1z M74.1,41.6
		c-9.3,0-18.7,0.1-28-0.1c-2.5,0-3.3,0.8-3.3,3.3c0.1,10.9,0.2,21.8,0,32.7c0,2.7,1.1,3.4,3.6,3.4c18.3-0.1,36.4-0.1,54.7,0
		c2.6,0,3.6-0.8,3.5-3.5c-0.1-10.8-0.1-21.7,0-32.4c0-2.6-0.7-3.6-3.5-3.5C92.1,41.7,83,41.6,74.1,41.6z"/>
	<path class="st0" d="M73.4,87.1c12.5,0,25,0,37.5,0c1.1,0,2.3-0.2,3.2,0.2c0.9,0.4,1.9,1.5,1.9,2.3s-1.1,1.8-1.9,2.4
		c-0.5,0.3-1.5,0.2-2.2,0.2c-25.5,0-51,0-76.5,0c-0.7,0-1.6,0.2-2.2-0.2c-0.8-0.6-1.9-1.5-1.8-2.2c0.1-0.9,1-2,1.9-2.5
		c0.7-0.4,1.9-0.2,2.8-0.2C48.4,87.1,60.9,87.1,73.4,87.1z M78.3,90.2c0-0.3,0-0.6,0-1c-3.1,0-6.2,0-9.3,0c0,0.3,0,0.6,0,1
		C72,90.2,75.1,90.2,78.3,90.2z"/>
	<path class="st0" d="M57.8,104c-9.9,0-19.9,0-29.9,0c-3.3,0-4.3-1-4.3-4.2c0-12.8,0-25.8,0-38.6c0-3.3,1-4.2,4.3-4.2
		c20,0,40.2,0,60.2,0c3.2,0,4.2,1,4.2,4c0,12.9,0,25.9,0,38.9c0,3.2-1,4.1-4.1,4.1C78,104,67.9,104,57.8,104z M58.1,60.2L58.1,60.2
		c-9.4,0-18.7,0-28-0.1c-1.8,0-2.6,0.4-2.6,2.4c0.1,9.9,0.1,19.9,0,29.9c0,1.7,0.6,2.3,2.3,2.3c18.8-0.1,37.7-0.1,56.6,0
		c1.8,0,2.3-0.6,2.3-2.4c-0.1-9.9-0.1-19.8,0-29.7c0-1.9-0.6-2.5-2.5-2.5C76.7,60.3,67.4,60.2,58.1,60.2z M57.9,100.5
		c1.1,0,2.3,0.1,3.5-0.1c0.4-0.1,0.7-0.6,1.1-0.9c-0.4-0.4-0.7-1.1-1.1-1.1c-2.3-0.1-4.6-0.1-6.9,0c-0.3,0-0.7,0.6-1.1,1
		c0.4,0.3,0.8,1,1.2,1.1C55.8,100.5,56.9,100.5,57.9,100.5z"/>
	<path class="st0" d="M57.9,111.3c-3.6,0-7.2,0.1-10.8-0.1c-0.8,0-1.5-0.8-2.3-1.2c0.7-0.4,1.5-1.1,2.3-1.2c1.1-0.1,1.9-0.3,2.1-1.5
		c0.2-1.5,1.1-1.8,2.4-1.8c4.3,0.1,8.6,0.1,12.8,0c1.1,0,2,0.2,2.2,1.4c0.2,1.6,1.1,1.9,2.6,1.9c0.6,0,1.3,0.7,1.9,1.1
		c-0.6,0.5-1.3,1.3-1.9,1.3C65.4,111.3,61.7,111.3,57.9,111.3z"/>
</g>
</svg>
