<?xml version="1.0" encoding="utf-8"?>
<!-- Generator: Adobe Illustrator 27.0.0, SVG Export Plug-In . SVG Version: 6.00 Build 0)  -->
<svg version="1.1" id="Layer_1" xmlns="http://www.w3.org/2000/svg" xmlns:xlink="http://www.w3.org/1999/xlink" x="0px" y="0px"
	 viewBox="0 0 64 64" style="enable-background:new 0 0 64 64;" xml:space="preserve">
<style type="text/css">
	.st0{fill:none;}
	.st1{fill:#0088CF;}
</style>
<g>
	<path class="st0" d="M8.1,51.4c16,0,31.9,0,47.8,0c0-1.6,0-3.3,0-4.9c-16,0-31.9,0-47.8,0C8.1,48.1,8.1,49.7,8.1,51.4z"/>
	<path class="st0" d="M56,43.3c0-4.6,0-9.2,0-13.8c0-1.7-0.9-2.6-2.6-2.6c-14.2,0-28.5,0-42.7,0c-1.8,0-2.6,0.9-2.6,2.6
		c0,4.6,0,9.2,0,13.7c0,0.2,0,0.4,0,0.7C24,44,40,44,56,44C56,43.7,56,43.5,56,43.3z M25.8,39c0,1.1-0.4,1.5-1.4,1.5
		c-3.7,0-7.4,0-11,0c-1,0-1.5-0.4-1.5-1.5c0-2.3,0-4.7,0-7c0-1,0.4-1.4,1.4-1.4c1.9,0,3.7,0,5.6,0c1.8,0,3.6,0,5.5,0
		c1.1,0,1.5,0.4,1.5,1.5C25.8,34.3,25.8,36.7,25.8,39z"/>
	<path class="st0" d="M10.1,58.5c0.2,0,0.4,0,0.5,0c14.2,0,28.5,0,42.7,0c0.3,0,0.5,0,0.8-0.1c0.9-0.2,1.6-0.7,1.7-1.6
		c0.1-1,0-2,0-3c-15.9,0-31.8,0-47.8,0c0,0.9,0,1.8,0,2.6C8.2,57.6,9,58.4,10.1,58.5z"/>
	<path class="st0" d="M14.3,38c3,0,6,0,9.1,0c0-1.7,0-3.4,0-5c-3.1,0-6.1,0-9.1,0C14.3,34.7,14.3,36.3,14.3,38z"/>
	<path class="st1" d="M24.4,30.5c-1.8,0-3.6,0-5.5,0c-1.9,0-3.7,0-5.6,0c-1,0-1.4,0.4-1.4,1.4c0,2.3,0,4.7,0,7c0,1,0.4,1.5,1.5,1.5
		c3.7,0,7.4,0,11,0c1,0,1.4-0.4,1.4-1.5c0-2.3,0-4.6,0-7C25.8,30.9,25.4,30.5,24.4,30.5z M24.8,39.2c-4,0-8,0-12,0
		c0-2.5,0-4.9,0-7.5c4,0,7.9,0,12,0C24.8,34.2,24.8,36.7,24.8,39.2z"/>
	<g>
		<path class="st1" d="M44,3.1c-7.8,0-14.1,6.3-14.1,14.1S36.2,31.2,44,31.2c7.8,0,14.1-6.3,14.1-14.1S51.8,3.1,44,3.1z M44,29.5
			c-6.8,0-12.3-5.5-12.3-12.3S37.2,4.8,44,4.8c6.8,0,12.3,5.5,12.3,12.3S50.8,29.5,44,29.5z"/>
		<g>
			<path class="st1" d="M48.7,12h-2.4c0.4,0.5,0.7,1.2,0.8,2h2l-0.5,1.6h-1.5c-0.1,1.2-0.6,2.1-1.4,2.7c-0.8,0.6-2,0.9-3.4,0.9
				l4.9,5.7v0.1H45l-5.3-6.2l0-1.2h2.5c0.8,0,1.5-0.2,2-0.5c0.5-0.4,0.8-0.8,1-1.5h-5.8l0.5-1.6h5.3c-0.3-1.3-1.3-1.9-2.9-2h-2.8
				l0.5-1.6h9.2L48.7,12z"/>
		</g>
	</g>
	<g>
		<path class="st1" d="M56.7,25.6c-0.4,0.7-0.9,1.3-1.5,1.9c0.5,0.4,0.7,1.1,0.7,2c0,4.6,0,9.2,0,13.8c0,0.2,0,0.4,0,0.7
			C40,44,24,44,8.1,44c0-0.2,0-0.5,0-0.7c0-4.6,0-9.2,0-13.7c0-1.7,0.9-2.6,2.6-2.6c7.2,0,14.4,0,21.6,0c-0.6-0.7-1.2-1.5-1.6-2.4
			c-6.6,0-13.3,0-19.9,0c-0.2,0-0.4,0-0.6,0c-2,0.1-3.8,1.4-4.3,3.4c-0.2,0.8-0.2,1.6-0.2,2.4c0,1.1,0,2.1,0,3.2V36
			c0,0.3,0,0.6,0,0.8c0,6.4,0,12.8,0,19.3c0,2.3,1.4,4.2,3.5,4.7c0.5,0.1,1.1,0.2,1.7,0.2c12,0,24.1,0,36.1,0c0.3,0,0.5,0,0.8,0
			l2.9,0c0.9,0,1.7,0,2.6,0c3.1,0,5-1.9,5-5c0-8.8,0-17.5,0-26.3C58.4,27.8,57.8,26.5,56.7,25.6z M55.8,56.8
			c-0.1,0.9-0.8,1.4-1.7,1.6c-0.3,0.1-0.5,0.1-0.8,0.1c-14.2,0-28.5,0-42.7,0c-0.2,0-0.4,0-0.5,0c-1.2-0.1-2-0.9-2.1-2.1
			c-0.1-0.8,0-1.7,0-2.6c16,0,31.9,0,47.8,0C55.9,54.8,56,55.8,55.8,56.8z M55.9,51.4c-15.9,0-31.9,0-47.8,0c0-1.6,0-3.2,0-4.9
			c15.9,0,31.8,0,47.8,0C55.9,48.1,55.9,49.7,55.9,51.4z"/>
	</g>
</g>
</svg>
