<?xml version="1.0" encoding="utf-8"?>
<!-- Generator: Adobe Illustrator 23.0.0, SVG Export Plug-In . SVG Version: 6.00 Build 0)  -->
<svg version="1.1" id="Layer_1" xmlns="http://www.w3.org/2000/svg" xmlns:xlink="http://www.w3.org/1999/xlink" x="0px" y="0px"
	 viewBox="0 0 128 128" style="enable-background:new 0 0 128 128;" xml:space="preserve">
<style type="text/css">
	.st0{fill:#FFFFFF;stroke:#FFFFFF;stroke-miterlimit:10;}
</style>
<g>
	<g>
		<path class="st0" d="M38.9,65.6c0.2-1,0.3-1.9,0.6-2.8c0.6-1.5,2.1-2,3.5-1.2c2.3,1.2,3.5,3.4,4.4,5.8c0.7,1.9,1.3,4,2.3,5.8
			c1.9,3.8,5,6.6,8.6,8.9c1.6,1.1,3.4,2.1,5,3.2c0.4,0.3,0.7,0.8,1.1,1.2c-0.5,0.3-1,0.6-1.5,0.6c-2.7,0.2-5.1-0.4-7.5-1.3
			c-5.1-1.9-9.5-4.9-12.6-9.4C40.5,73.2,39.2,69.6,38.9,65.6z"/>
		<path class="st0" d="M62.2,25.8c1.3,0.2,2.7,0.3,3.9,0.5C82,29.1,92.8,38.2,97.6,53.5c6.5,21-5.1,42.8-26.1,49
			c-21,6.3-42.6-5.3-48.9-26c-6.4-21.1,5.3-42.7,26.1-49.1c2.8-0.9,5.7-1.1,8.7-1.6c0.3,0,0.4-0.1,0.7-0.2
			C59.5,25.8,60.9,25.8,62.2,25.8z M60.2,35.9c-16.4,0.2-29.1,13.2-29,29.1c0.1,16.3,13,29,29,29c16.1-0.1,29.2-13.2,29-29.1
			C89.1,48.7,76.3,36,60.2,35.9z"/>
		<path class="st0" d="M115.3,112.6c-0.5,1.3-0.9,2.9-1.7,4c-3.2,4.3-8.9,4.8-12.9,1C95,112,89.6,106.4,84,100.8
			c-0.1-0.1-0.2-0.3-0.3-0.4c4.8-3.2,8.8-7.2,11.9-11.9c0.3,0.3,0.5,0.5,0.8,0.8c5,5,9.8,9.9,14.9,14.8c1.9,1.9,3.5,3.9,4,6.6
			C115.3,111.3,115.3,111.9,115.3,112.6z"/>
		<path class="st0" d="M25.9,7c0.7,0.5,1.3,1.1,1,2.2c-0.4,1-1.2,1.1-2.1,1.1c-1.4,0-2.8,0-4.2,0c-1.1,0-1.5,0.4-1.4,1.4
			c0,0.2,0,0.4,0,0.5c0,29.5,0,59,0,88.5c0,0.4,0,0.9,0,1.5c0.4,0,0.8,0,1.2,0c2.3,0,4.7,0,7,0s3.7,1.4,3.7,3.7c0,2.9,0,5.8,0,8.8
			c0,0.4,0,0.8,0,1.3c0.5,0,0.9,0,1.3,0c19.9,0,39.8,0,59.7,0c1.7,0,1.8-0.1,1.8-1.7c0-3.2,0-6.5,0-9.6c0-0.4,0-0.7,0.1-1
			c0.2-0.9,0.8-1.4,1.8-1.3c0.9,0.1,1.5,0.6,1.5,1.5c0,4,0.1,8,0,11.9c-0.1,1.9-1.9,3.4-3.8,3.5c-0.4,0-0.7,0-1.1,0
			c-20.6,0-41.1,0-61.7,0c-1.2,0-2-0.4-2.8-1.3c-3.6-4.2-7.3-8.4-10.9-12.6c-0.4-0.5-0.8-1.4-0.8-2.1c0-30.6,0-61.1-0.1-91.7
			c0-2.3,1.1-3.7,3.1-4.6C21.2,7,23.6,7,25.9,7z M21.1,105.5c2.3,2.7,4.4,5,6.5,7.4c0.3-2.4,0.3-4.6,0.2-6.9c0-0.2-0.4-0.5-0.5-0.5
			C25.2,105.5,23.3,105.5,21.1,105.5z"/>
		<path class="st0" d="M93.9,7c2.4,1,3.2,2.8,3.2,5.4c-0.1,27.9,0,55.9,0,83.9c0,0.4,0,0.9,0,1.3C97,98.4,96.5,99,95.7,99
			c-0.8,0.1-1.4-0.3-1.7-1.1c-0.1-0.4-0.1-1-0.1-1.5c0-28,0-56,0-84.1c0-1.9,0-1.9-1.9-1.9c-19.4,0-39,0-58.4,0c-0.3,0-0.5,0-0.8,0
			c-1,0.1-1.8-0.1-2.1-1.1c-0.4-1.1,0.3-1.7,1-2.2C52.3,7,73,7,93.9,7z"/>
		<path class="st0" d="M56.4,53.1c-8.9,0-17.9,0-26.9,0c-0.4,0-0.7,0-1.1,0c-0.8-0.1-1.3-0.6-1.4-1.4c-0.1-0.8,0.3-1.4,1.1-1.7
			c0.4-0.1,0.9-0.1,1.3-0.1c17.9,0,36,0,53.9,0c0.4,0,0.7,0,1.1,0.1c0.9,0.3,1.4,0.8,1.3,1.8c-0.1,0.9-0.6,1.4-1.5,1.4
			c-0.4,0-0.6,0-1,0C74.4,53.1,65.3,53.1,56.4,53.1z"/>
		<path class="st0" d="M56.4,59.6c-8.9,0-17.9,0-26.9,0c-0.4,0-0.7,0-1.1,0c-0.8-0.1-1.3-0.6-1.4-1.4c-0.1-0.9,0.4-1.5,1.2-1.8
			c0.4-0.1,0.8-0.1,1.2-0.1c17.9,0,36,0,53.9,0c0.4,0,0.7,0,1,0c0.9,0.2,1.4,0.7,1.4,1.7s-0.6,1.5-1.5,1.6c-0.4,0-0.6,0-1,0
			C74.4,59.6,65.3,59.6,56.4,59.6z"/>
		<path class="st0" d="M56.4,72.8c-8.9,0-17.9,0-26.9,0c-0.4,0-0.7,0-1.1,0c-0.9-0.2-1.4-0.7-1.4-1.6c0-0.9,0.4-1.4,1.3-1.7
			c0.4-0.1,0.7-0.1,1.1-0.1c17.9,0,36,0,53.9,0c0.4,0,0.7,0,1.1,0.1c0.9,0.2,1.3,0.8,1.3,1.7c0,0.9-0.5,1.4-1.4,1.6
			c-0.4,0.1-0.7,0-1.1,0C74.4,72.8,65.3,72.8,56.4,72.8z"/>
		<path class="st0" d="M56.4,79.3c-8.9,0-17.9,0-26.9,0c-0.4,0-0.6,0-1,0c-0.9-0.1-1.5-0.6-1.5-1.6c0-0.9,0.4-1.4,1.3-1.7
			c0.4-0.1,0.7-0.1,1.1-0.1c17.9,0,36,0,53.9,0c0.4,0,0.8,0,1.2,0.1c0.8,0.3,1.2,0.9,1.1,1.8c-0.1,0.8-0.6,1.3-1.4,1.4
			c-0.4,0.1-0.6,0-1,0C74.4,79.3,65.4,79.3,56.4,79.3z"/>
		<path class="st0" d="M56.4,86c-8.9,0-17.9,0-26.9,0c-0.4,0-0.7,0-1.1,0c-0.8-0.1-1.3-0.6-1.4-1.4c-0.1-0.9,0.4-1.5,1.2-1.8
			c0.4-0.1,0.8-0.1,1.2-0.1c17.9,0,36,0,53.9,0c0.4,0,0.8,0,1.2,0.1c0.8,0.3,1.3,0.9,1.2,1.8c-0.1,0.8-0.6,1.3-1.4,1.4
			c-0.4,0.1-0.6,0-1,0C74.4,86,65.4,86,56.4,86z"/>
		<path class="st0" d="M48.5,46.4c-5,0-10,0-15,0c-1,0-1.8-0.3-2-1.3c-0.3-0.9,0.4-1.8,1.3-1.9c0.4-0.1,0.8-0.1,1.2-0.1
			c9.7,0,19.4,0,29.1,0c0.3,0,0.6,0,0.9,0c1.1,0.1,1.7,0.8,1.7,1.7s-0.7,1.6-1.7,1.6c-2.5,0-5,0-7.4,0
			C53.8,46.4,51.1,46.4,48.5,46.4z"/>
		<path class="st0" d="M48.4,66.2c-4.9,0-9.7,0-14.6,0c-0.4,0-0.6,0-1,0c-0.9-0.2-1.4-0.6-1.4-1.5c-0.1-0.9,0.4-1.4,1.3-1.7
			c0.4-0.1,0.7-0.1,1.1-0.1c9.8,0,19.6,0,29.4,0c0.3,0,0.6,0,0.9,0c1,0.1,1.6,0.9,1.5,1.7c-0.1,1-0.6,1.4-1.6,1.5
			c-0.5,0-1.1,0-1.5,0C57.8,66.2,53.1,66.2,48.4,66.2z"/>
		<path class="st0" d="M72.9,106.9c-0.4,0.4-0.7,0.8-1.1,1.1c-1.5,1.5-3.5,1.5-5,0c-0.5-0.4-1.1-0.9-1.7-1.2c-0.7-0.4-1.1-1-0.9-1.9
			c0.2-0.9,0.9-1.4,1.7-1.2c0.9,0.2,1.7,0.7,2.5,1.1c0.4,0.2,0.6,0.6,1,1.1c1-1.1,1.9-2.2,3.5-2.3c1.6,0,2.6,1,3.5,2.3
			c0.4-0.4,0.6-0.8,1-1c0.8-0.4,1.6-1,2.5-1.2c0.9-0.2,1.6,0.4,1.8,1.2c0.2,0.9-0.3,1.5-1.1,1.9c-0.4,0.2-0.8,0.4-1.1,0.7
			c-1.9,2.2-4,2.2-5.9,0C73.3,107.3,73.1,107.2,72.9,106.9z"/>
		<path class="st0" d="M76,26.7c-2.5,0-5,0-7.5,0c-1.3,0-2.1-0.6-2.1-1.7c0-1,0.8-1.6,2-1.6c5.1,0,10.3,0,15.3,0c1.3,0,2,0.6,2,1.6
			c0,1.1-0.7,1.7-2.1,1.7C81.2,26.7,78.6,26.7,76,26.7z"/>
		<path class="st0" d="M76,33.4c-2.6,0-5.1,0-7.7,0c-1.2,0-2-0.6-2-1.6c0-1,0.8-1.7,2-1.7c5.1,0,10.3,0,15.5,0c1.2,0,2,0.7,1.9,1.7
			c0,1-0.7,1.6-1.9,1.6C81.3,33.4,78.6,33.4,76,33.4z"/>
		<path class="st0" d="M38.6,92.5c-1.8,0-3.5,0-5.2,0c-1.2,0-1.9-0.6-1.9-1.6c0-1.1,0.7-1.7,1.9-1.7c3.5,0,7,0,10.5,0
			c1.2,0,2,0.6,2,1.7s-0.7,1.6-2,1.6C42.1,92.5,40.4,92.5,38.6,92.5z"/>
	</g>
	<path class="st0" d="M79.3,20.2c-1.5,0-3,0-4.5,0c-1.1,0-1.9-0.6-1.9-1.6c0-1,0.8-1.7,1.9-1.7c3,0,6,0,9,0c1.2,0,2,0.7,1.9,1.7
		c0,1-0.7,1.6-1.9,1.6C82.3,20.2,80.8,20.2,79.3,20.2z"/>
</g>
</svg>
