<?xml version="1.0" encoding="utf-8"?>
<!-- Generator: Adobe Illustrator 23.0.0, SVG Export Plug-In . SVG Version: 6.00 Build 0)  -->
<svg version="1.1" id="Layer_1" xmlns="http://www.w3.org/2000/svg" xmlns:xlink="http://www.w3.org/1999/xlink" x="0px" y="0px"
	 viewBox="0 0 128 128" style="enable-background:new 0 0 128 128;" xml:space="preserve">
<style type="text/css">
	.st0{fill:#FFFFFF;stroke:#FFFFFF;stroke-width:2;stroke-miterlimit:10;}
</style>
<g>
	<path class="st0" d="M80,97.6c1.5,0,3,0,4.5,0c0-0.8,0-1.6,0-2.4c-1.5,0-2.9,0-4.5,0C80,95.9,80,96.7,80,97.6z"/>
	<g>
		<path class="st0" d="M109.1,93.9c0,5.2-4.3,9.4-9.4,9.5c-5.1,0-9.4-4.4-9.4-9.6s4.2-9.3,9.4-9.3C104.9,84.6,109.1,88.7,109.1,93.9
			z M99.7,88.4c-3,0-5.5,2.6-5.5,5.6s2.6,5.5,5.6,5.5c3.1,0,5.5-2.4,5.4-5.6C105.2,90.8,102.7,88.4,99.7,88.4z"/>
		<path class="st0" d="M73.8,77.7c0,2.9,0,5.6,0,8.5c3.5,0,6.9,0,10.5,0c0-2.8,0-5.6,0-8.5C80.8,77.7,77.4,77.7,73.8,77.7z"/>
		<g>
			<path class="st0" d="M46.6,76.7c-1.5,0.1-2.9,0.1-4.3,0.2c-0.3-8.9-0.7-17.8-1-26.8c1.5-0.1,2.8-0.1,4.3-0.2
				C45.9,58.9,46.2,67.7,46.6,76.7z"/>
			<path class="st0" d="M37.7,76.7c-1.5,0.1-2.9,0.1-4.3,0.2c-0.3-8.9-0.7-17.8-1-26.8c1.5-0.1,2.8-0.1,4.3-0.2
				C37,58.9,37.4,67.7,37.7,76.7z"/>
			<path class="st0" d="M27.7,77.9c-1.5,0.1-2.9,0.1-4.3,0.2c-0.3-8.9-0.7-17.8-1-26.8c1.5-0.1,2.8-0.1,4.3-0.2
				C27,60,27.3,68.8,27.7,77.9z"/>
			<path class="st0" d="M71.2,38.2c-1,0.3-1.5,0.5-2,0.8c-6.3,2.6-12.5,5.3-18.8,8c-0.2,0.1-0.4,0.2-0.6,0.3c-1,0.3-1.9,0.4-2.4-0.6
				c-0.5-1,0-1.7,0.9-2.4c0.4-0.3,0.9-0.6,1.4-1c-2.8-3-5.5-5.8-8.1-8.7c-0.9-0.9-2.3-1.7-1.3-3.3c0.9-1.5,3.2-2.1,4.9-1.4
				c3.4,1.4,6.9,2.8,10.2,4.3c1.1,0.5,2,0.4,3.1-0.3c10.1-6.4,20.4-12.7,30.5-19.2c3.8-2.5,8.2-3.1,12.5-3.8
				c1.7-0.3,3.8-0.2,4.6,1.8c0.9,2-0.6,3.5-2,4.6c-1.8,1.5-3.8,2.8-5.8,4c-3.7,2.4-7.5,4.6-11.2,7.1c-1,0.7-1.9,1.7-2.8,2.7
				c-3.1,3.7-5.9,7.5-9.2,11.1c-1.6,1.7-3.7,3-5.6,4.4c-0.3,0.3-1.4,0.2-1.6-0.1c-0.3-0.5-0.4-1.4-0.2-1.9
				C68.8,42.8,69.9,40.7,71.2,38.2z"/>
			<path class="st0" d="M85.3,87.2c0-3.5,0-6.8,0-10.2c-1.1-0.1-2.1-0.1-3.3-0.2c0.3-10.7,0.7-21.2,1.1-32.1
				c5.9,0,11.7-0.3,17.4,0.1c4.1,0.3,8.1,1.2,12.2,2.1c2.3,0.5,3.7,2,4.1,4.5c0.4,2.9,1,5.7,1.5,8.6c0.3,2.1,0.5,4.3,1,6.4
				c0.9,3.7,0.7,7.3-0.2,10.8c0.3,0.6,0.8,1.3,0.8,1.9c0.1,5.2,0.2,10.2,0,15.4c0,0.8-1,2.2-1.7,2.3c-2.6,0.3-5.2,0.1-7.9,0.1
				c0-8.6-4.1-13.6-10.8-13.6c-6.7,0.1-10.8,5.2-10.6,13.5c-1.1,0-2.3,0-3.4,0c-0.1-0.8-0.2-1.6-0.3-2.4c-1.8,0-3.6,0-5.3,0
				c-0.3,0-0.7,0.2-1,0.3c-0.6,0.3-1.2,0.8-1.7,0.8c-6.8,0.1-13.7,0-20.6,0c-0.4,0-1-0.1-1-0.1c-0.9-2.8-1.7-5.3-2.5-8.1
				C63.7,87.2,74.5,87.2,85.3,87.2z M115.8,58.4c-0.2-2.1-0.3-4.2-0.7-6.2c-0.1-0.5-0.8-1.2-1.2-1.2c-5.9-0.1-11.7,0-17.6-0.1
				c-1,0-1.3,0.3-1.3,1.3c0,3.4,0,6.8,0.1,10.1c0,0.4,0.6,1,1,1.1c5,1,10,1.9,15,2.8c1.7,0.3,3.6,0.4,5.7,0.7
				C116.4,63.9,116.1,61.1,115.8,58.4z"/>
			<path class="st0" d="M43.4,103.4c-5.2,0-9.4-4.4-9.4-9.4c0-5.2,4.2-9.4,9.4-9.4c5.3,0,9.4,3.9,9.4,9.3
				C52.8,99.2,48.7,103.5,43.4,103.4z M43.4,99.5c3,0,5.6-2.6,5.6-5.5s-2.7-5.6-5.6-5.6c-3,0-5.5,2.5-5.5,5.5
				C37.9,96.9,40.4,99.5,43.4,99.5z"/>
			<path class="st0" d="M30.5,93.9c0,5.2-4.3,9.4-9.4,9.4c-5.2,0.1-9.4-4.2-9.4-9.4c0-5.3,4-9.4,9.3-9.4
				C26.3,84.6,30.6,88.7,30.5,93.9z M21,88.4c-3,0.1-5.6,2.8-5.5,5.6c0.1,3,2.7,5.5,5.7,5.5c3.1,0,5.5-2.5,5.4-5.6
				C26.5,90.8,23.9,88.4,21,88.4z"/>
			<path class="st0" d="M41.6,82.4c0-0.9,0.5-1.4,1.8-1.5c1.4-0.1,2.8-0.4,4.2-0.8c-0.2-0.6-0.3-1-0.5-1.4c-8,0.7-16,1.4-24.2,2.1
				c-0.4,1.2-0.2,2.2,1.6,2.5c0.3,0.1,0.8,0.2,1,0.4c2.8,2.4,6.1,1.7,9.4,1.7c0.4,0,1-0.2,1.4-0.4C37.8,84.3,39.6,83.4,41.6,82.4z"
				/>
			<path class="st0" d="M11.4,87.3c-1,0-2.2,0-3.5,0c0,2.6,0,5.2,0,8c0.5,0,1,0,1.4,0C10.1,92.6,10.8,90,11.4,87.3z"/>
			<path class="st0" d="M34.2,87.3c-1.4,0-2.5,0-3.8,0c0.6,1.3,1.2,2.4,1.9,3.8C32.8,89.8,33.5,88.6,34.2,87.3z"/>
		</g>
	</g>
</g>
</svg>
