<?xml version="1.0" encoding="utf-8"?>
<!-- Generator: Adobe Illustrator 23.0.0, SVG Export Plug-In . SVG Version: 6.00 Build 0)  -->
<svg version="1.1" id="Layer_1" xmlns="http://www.w3.org/2000/svg" xmlns:xlink="http://www.w3.org/1999/xlink" x="0px" y="0px"
	 viewBox="0 0 128 128" style="enable-background:new 0 0 128 128;" xml:space="preserve">
<style type="text/css">
	.st0{fill:#FFFFFF;stroke:#FFFFFF;stroke-width:2;stroke-miterlimit:10;}
</style>
<g>
	<g>
		<g>
			<path class="st0" d="M95.8,106.6c-1.4,0-2.8,0-4.2,0c-0.4-0.2-0.5-0.6-0.5-1c0-2.2,0-4.3,0-6.5c0-0.1,0-0.2,0-0.4
				c-0.2,0-0.3,0-0.4,0c-1.8,0-3.7,0-5.5,0c-0.1,0-0.2,0-0.3,0c-0.5-0.1-0.7-0.3-0.7-0.8c0-0.6,0-1.3,0-1.9c0-0.7,0.2-1,1-1
				c1.9,0,3.7,0,5.6,0c0.1,0,0.2,0,0.4,0c0-0.6,0-1.2,0-1.8c-0.1,0-0.2,0-0.3,0c-1.9,0-3.8,0-5.7,0c-0.6,0-0.9-0.3-0.9-0.9
				c0-0.6,0-1.2,0-1.9c0-0.7,0.2-1,1-1c1.3,0,2.7,0,4,0c0.1,0,0.2,0,0.4,0c-0.1-0.2-0.1-0.2-0.2-0.3c-2.2-4-4.4-8-6.6-12
				c-0.3-0.6-0.3-0.9,0.3-1.3c1.5,0,3.1,0,4.7,0c0.2,0.2,0.4,0.4,0.5,0.6c1.5,2.9,2.9,5.7,4.4,8.6c0.5,1,1,2,1.4,3.1
				c0-0.1,0.1-0.2,0.1-0.3c1.7-3.8,3.5-7.6,5.2-11.5c0.1-0.2,0.3-0.4,0.5-0.6c1.5,0,3.1,0,4.6,0c0.5,0.4,0.6,0.6,0.3,1.3
				c-2.1,4-4.3,8-6.4,11.9c-0.1,0.1-0.1,0.2-0.2,0.4c0.2,0,0.3,0,0.4,0c1.4,0,2.7,0,4.1,0c0.6,0,0.9,0.3,0.9,0.9c0,0.6,0,1.2,0,1.9
				c0,0.7-0.2,0.9-0.9,0.9c-1.9,0-3.8,0-5.7,0c-0.1,0-0.2,0-0.4,0c0,0.6,0,1.2,0,1.8c0.1,0,0.2,0,0.4,0c1.9,0,3.7,0,5.6,0
				c0.1,0,0.3,0,0.4,0c0.3,0.1,0.6,0.3,0.6,0.6c0,0.8,0,1.6,0,2.4c0,0.3-0.2,0.5-0.6,0.6c-0.1,0-0.3,0-0.4,0c-1.9,0-3.7,0-5.6,0
				c-0.1,0-0.2,0-0.4,0c0,0.2,0,0.3,0,0.4c0,2.2,0,4.3,0,6.5C96.3,106.1,96.2,106.4,95.8,106.6z"/>
		</g>
	</g>
	<g>
		<g>
			<path class="st0" d="M36.5,105.2c-1.4,0-2.7,0-4.1,0c0-0.5,0-1,0-1.4c0-0.7,0-1.4,0-2.1c0-0.3-0.1-0.4-0.4-0.4
				c-2.2-0.1-4.3-0.6-6.3-1.5c-0.3-0.1-0.3-0.2-0.3-0.5c0.4-1.5,0.8-2.9,1.1-4.4c0.5,0.2,0.9,0.4,1.3,0.6c2,0.8,4,1.3,6.2,1.2
				c0.7,0,1.4-0.2,2-0.5c1.6-0.8,1.8-2.6,0.5-3.8c-0.8-0.7-1.8-1.1-2.7-1.5c-1.2-0.5-2.5-0.9-3.6-1.5c-1.4-0.6-2.6-1.5-3.5-2.7
				c-1.8-2.4-1.5-6.1,0.6-8.3c1.4-1.5,3.1-2.2,5-2.7c0,0,0.1,0,0.2,0c0-1.3,0-2.6,0-3.9c1.4,0,2.7,0,4.1,0c0,1.2,0,2.4,0,3.6
				c2.1,0.1,4.1,0.5,6,1.4c-0.4,1.5-0.8,3.1-1.2,4.6c-0.9-0.3-1.8-0.7-2.7-0.9c-1.6-0.4-3.2-0.6-4.8-0.2c-0.4,0.1-0.8,0.3-1.1,0.5
				c-1.1,0.8-1.2,2.2-0.2,3.1c0.8,0.7,1.7,1.1,2.6,1.5c1.3,0.6,2.7,1,4,1.7c0.8,0.4,1.5,0.8,2.2,1.4c1.8,1.5,2.4,3.5,2.3,5.7
				c-0.2,3.3-2.4,5.8-5.7,6.9c-0.4,0.1-0.8,0.2-1.2,0.3c-0.2,0-0.3,0.2-0.3,0.4c0,1.2,0,2.3,0,3.5C36.5,105,36.5,105.1,36.5,105.2z"
				/>
		</g>
	</g>
	<g>
		<g>
			<path class="st0" d="M75.6,46.6c0.7,1.8,1.3,3.5,2,5.3c-1.4,0.9-2.9,1.5-4.5,1.9c-7.7,1.8-15.4-2.4-18.2-9.9
				c-0.2-0.5-0.4-0.6-0.9-0.6c-1.5,0-3.1,0-4.6,0c-0.2,0-0.3,0-0.5,0c0.3-1.2,0.6-2.4,0.9-3.6c0-0.1,0.2-0.2,0.4-0.2
				c1.1,0,2.1,0,3.2,0c0.2,0,0.3,0,0.5,0c0-0.6-0.1-1.1-0.1-1.6c-1.2,0-2.3,0-3.6,0c0.3-1.4,0.6-2.7,1-4.1c1,0,2,0,3.1,0
				c0.1-0.3,0.1-0.5,0.2-0.7c1.9-5.9,5.7-9.8,11.7-11.3c3.7-0.9,7.2-0.4,10.6,1.4c0.2,0.1,0.3,0.2,0.2,0.5c-0.4,1.7-0.8,3.5-1.3,5.3
				c-3.6-2.5-7.3-2.9-11.2-0.7c-2.1,1.2-3.9,3.5-4.5,5.5c4.8,0,9.6,0,14.5,0c-0.3,1.4-0.6,2.7-1,4.1c-4.8,0-9.5,0-14.3,0
				c0,0.6,0.1,1.1,0.1,1.6c4.6,0,9.2,0,13.8,0c-0.3,1.3-0.6,2.6-0.9,3.8c-3.9,0-7.7,0-11.6,0C63,47.9,69.8,50.9,75.6,46.6z"/>
		</g>
	</g>
	<g>
		<path class="st0" d="M66.2,66.1c-15.7,0-28.5-12.8-28.5-28.5c0-15.7,12.8-28.5,28.5-28.5s28.5,12.8,28.5,28.5
			C94.6,53.3,81.9,66.1,66.2,66.1z M66.2,13.4c-13.4,0-24.2,10.9-24.2,24.2s10.9,24.2,24.2,24.2S90.4,51,90.4,37.6
			S79.5,13.4,66.2,13.4z"/>
	</g>
	<g>
		<path class="st0" d="M35.5,116.4C19.8,116.4,7,103.6,7,87.9c0-15.7,12.8-28.5,28.5-28.5C51.2,59.4,64,72.2,64,87.9
			S51.2,116.4,35.5,116.4z M35.5,63.7c-13.4,0-24.2,10.9-24.2,24.2s10.9,24.2,24.2,24.2s24.2-10.9,24.2-24.2S48.8,63.7,35.5,63.7z"
			/>
	</g>
	<g>
		<path class="st0" d="M92.5,118.8c-15.7,0-28.5-12.8-28.5-28.5c0-15.7,12.8-28.5,28.5-28.5c15.7,0,28.5,12.8,28.5,28.5
			C121,106.1,108.2,118.8,92.5,118.8z M92.5,66.1c-13.4,0-24.2,10.9-24.2,24.2s10.9,24.2,24.2,24.2s24.2-10.9,24.2-24.2
			S105.9,66.1,92.5,66.1z"/>
	</g>
</g>
</svg>
