<?xml version="1.0" encoding="utf-8"?>
<!-- Generator: Adobe Illustrator 23.0.0, SVG Export Plug-In . SVG Version: 6.00 Build 0)  -->
<svg version="1.1" id="Layer_1" xmlns="http://www.w3.org/2000/svg" xmlns:xlink="http://www.w3.org/1999/xlink" x="0px" y="0px"
	 viewBox="0 0 128 128" style="enable-background:new 0 0 128 128;" xml:space="preserve">
<style type="text/css">
	.st0{fill:#FFFFFF;stroke:#FFFFFF;stroke-width:1.8126;stroke-miterlimit:10;}
</style>
<g>
	<g>
		<g>
			<path class="st0" d="M6,69.8c0.1-1.8,0.1-3.5,0.2-5.3c0.1-1.8,1.2-2.9,3-3c1.5-0.1,2.9-0.1,4.4-0.1c1.8,0,3.6,0.1,5.4,0
				c0.6,0,0.9,0.2,1.4,0.6c1.1,0.8,1.3,1.8,1.3,3.2c-0.1,13.1,0,26.2,0,39.3c0,0.7-0.1,1.3,0,1.9c0.1,1.3-0.6,2.3-1.5,3.1
				c-0.2,0.1-0.5,0.2-0.7,0.2c-3.3,0-6.5,0-9.8,0c-0.5,0-1-0.1-1.5-0.2c-1.1-0.2-1.8-1-1.8-2.1c-0.1-2.3-0.1-4.5-0.2-6.8
				c0-0.4-0.1-0.7-0.1-1.1C6,89.7,6,79.7,6,69.8z"/>
		</g>
		<g>
			<path class="st0" d="M30.9,72.1c2.8,0.4,5.5,0.8,8.2,1.1c4.5,0.6,8.9,1.2,13.4,1.8c1.5,0.2,3,0.5,4.5,0.5c1.8,0,3.6-0.1,5.4-0.3
				c4.5-0.5,9-1,13.6-1.5c1.5-0.2,3.1-0.3,4.6-0.3c2.9,0,5.2,1.8,6,4.6c0.6,2.4,0.5,4.6-1,6.7c-1.1,1.5-2.6,2.2-4.4,2.4
				c-6.8,0.8-13.5,1.7-20.3,2.5c-0.2,0-0.4,0.1-0.7,0.3c1.9,0.3,3.9,0.6,5.8,0.8c3.1,0.4,6.3,0.8,9.4,1.2c0.9,0.1,1.7,0.1,2.6-0.3
				c7.3-3.4,14.7-6.7,22-10.1c4.4-2,8.8-3.9,13.1-5.9c4.5-2,8.7,1.4,8.9,5.4c0.1,2.5-0.8,4.5-2.9,5.7c-1.7,1-3.6,1.8-5.4,2.7
				c-0.9,0.4-1.7,0.9-2.6,1.2c-0.7,0.3-0.8,0.7-0.7,1.4c0,1.1,0,2.1-0.2,3.2c-0.4,1.9-1.5,3.3-3.4,4.1c-8.9,3.7-17.7,7.5-26.5,11.2
				c-2.9,1.2-5.8,2.2-8.7,3.5c-2.6,1.1-5.2,1.2-7.9,0.2c-4.6-1.9-9.3-3.8-13.9-5.7c-4.9-2.1-9.7-4.4-14.5-6.5
				c-1.2-0.5-2.4-0.9-3.7-1.3c-0.4-0.1-0.5-0.3-0.5-0.7c0-9-0.1-18-0.1-27C30.9,72.8,30.9,72.5,30.9,72.1z"/>
		</g>
		<g>
			<path class="st0" d="M23.7,66.5c1,0,2-0.1,2.9,0c1.2,0.1,2.1,1.2,2.1,2.3c0,10.6-0.1,21.1-0.1,31.7c0,1-0.1,2-0.3,2.9
				c-0.2,1.1-0.6,1.4-1.7,1.4c-1,0-1.9,0.1-2.9,0.2C23.7,92.2,23.7,79.4,23.7,66.5z"/>
		</g>
	</g>
	<g>
		<path class="st0" d="M64.5,96.2H41.5V52.5h23.1V96.2z M44.8,92.9h16.4V55.8H44.8V92.9z"/>
	</g>
	<g>
		<path class="st0" d="M84.3,96.2H61.2V39.9h23.1V96.2z M64.5,92.9H81V43.3H64.5V92.9z"/>
	</g>
	<g>
		<path class="st0" d="M104,94.3H81V59.1H104V94.3z M84.3,91h16.4V62.4H84.3V91z"/>
	</g>
	<g>
		<path class="st0" d="M66.1,12.9c3.1,0,5.4,1.8,5.4,5.5c0,3.6-2.3,5.5-5.4,5.5c-3.1,0-5.5-1.8-5.5-5.5C60.6,14.7,63,12.9,66.1,12.9
			z M64.7,18.4c0,1.3,0.5,1.9,1.3,1.9c0.8,0,1.4-0.6,1.4-1.9s-0.5-1.9-1.4-1.9C65.2,16.5,64.7,17.1,64.7,18.4z M77,13.3h5.9L71,35.4
			h-5.9L77,13.3z M81.9,24.8c3.1,0,5.4,1.8,5.4,5.5c0,3.7-2.3,5.5-5.4,5.5c-3.1,0-5.5-1.8-5.5-5.5C76.5,26.6,78.8,24.8,81.9,24.8z
			 M80.6,30.2c0,1.3,0.5,1.9,1.3,1.9c0.8,0,1.3-0.6,1.3-1.9c0-1.3-0.5-1.9-1.3-1.9C81,28.4,80.6,29,80.6,30.2z"/>
	</g>
	<g>
		<path class="st0" d="M91.2,23.4l-2.1,2.7c13.3,5.9,22.6,19.2,22.6,34.6c0,20.9-17,37.8-37.8,37.8s-37.8-17-37.8-37.8
			c0-15.8,9.7-29.3,23.5-35l-0.7-3.3c-15.3,6-26.1,20.9-26.1,38.3c0,22.7,18.5,41.1,41.1,41.1S115,83.4,115,60.7
			C115,44.2,105.3,30,91.2,23.4z"/>
	</g>
</g>
</svg>
