<?xml version="1.0" encoding="utf-8"?>
<!-- Generator: Adobe Illustrator 23.0.0, SVG Export Plug-In . SVG Version: 6.00 Build 0)  -->
<svg version="1.1" id="Layer_1" xmlns="http://www.w3.org/2000/svg" xmlns:xlink="http://www.w3.org/1999/xlink" x="0px" y="0px"
	 viewBox="0 0 128 128" style="enable-background:new 0 0 128 128;" xml:space="preserve">
<style type="text/css">
	.st0{fill:#FFFFFF;stroke:#FFFFFF;stroke-width:2;stroke-miterlimit:10;}
</style>
<g>
	<g>
		<rect x="39.6" y="83.7" class="st0" width="5.3" height="38"/>
	</g>
</g>
<g>
	<g>
		<rect x="61.5" y="77.3" class="st0" width="5.3" height="44.3"/>
	</g>
</g>
<g>
	<g>
		<rect x="18" y="107.5" class="st0" width="5" height="14.1"/>
	</g>
</g>
<g>
	<g>
		<rect x="83.1" y="61.2" class="st0" width="5.3" height="60.4"/>
	</g>
</g>
<g>
	<g>
		<rect x="105" y="46.8" class="st0" width="5" height="74.8"/>
	</g>
</g>
<g>
	<g>
		<path class="st0" d="M117.2,7.1c-0.6-0.5-1.3-0.7-2-0.7h-19c-1.5,0-2.8,1.3-2.8,2.8s1.2,2.8,2.8,2.8l12.3,0l-30,30L68,31.3
			c-0.5-0.5-1.2-0.8-2-0.9c-0.7,0-1.4,0.3-2,0.9L10.9,84.6c-1.1,1.1-1.1,2.8-0.1,3.9c1.1,1.1,2.8,1.1,3.9,0.1c0,0,0.1-0.1,0.1-0.1
			l51.3-51.3l10.5,10.5c0.5,0.5,1.2,0.8,2,0.8c0.7,0,1.4-0.3,2-0.8l32-32l0,12.2c0,1.5,1.2,2.7,2.7,2.7h0c1.5,0,2.7-1.2,2.8-2.7
			c0,0,0,0,0,0l0-19C118,8.3,117.7,7.6,117.2,7.1z"/>
	</g>
</g>
</svg>
