<?xml version="1.0" encoding="utf-8"?>
<!-- Generator: Adobe Illustrator 23.0.0, SVG Export Plug-In . SVG Version: 6.00 Build 0)  -->
<svg version="1.1" id="Layer_1" xmlns="http://www.w3.org/2000/svg" xmlns:xlink="http://www.w3.org/1999/xlink" x="0px" y="0px"
	 viewBox="0 0 128 128" style="enable-background:new 0 0 128 128;" xml:space="preserve">
<style type="text/css">
	.st0{stroke:#000000;stroke-width:2;stroke-miterlimit:10;}
</style>
<g>
	<g>
		<g>
			<path class="st0" d="M96.3,107.3c-1.4,0-2.8,0-4.2,0c-0.4-0.2-0.5-0.6-0.5-1c0-2.2,0-4.4,0-6.6c0-0.1,0-0.2,0-0.4
				c-0.2,0-0.3,0-0.4,0c-1.9,0-3.7,0-5.6,0c-0.1,0-0.2,0-0.3,0c-0.5-0.1-0.7-0.3-0.7-0.8c0-0.6,0-1.3,0-1.9c0-0.8,0.2-1,1-1
				c1.9,0,3.8,0,5.7,0c0.1,0,0.2,0,0.4,0c0-0.6,0-1.2,0-1.9c-0.1,0-0.2,0-0.3,0c-1.9,0-3.9,0-5.8,0c-0.6,0-0.9-0.3-0.9-0.9
				c0-0.6,0-1.3,0-1.9c0-0.7,0.2-1,1-1c1.4,0,2.7,0,4.1,0c0.1,0,0.2,0,0.4,0c-0.1-0.2-0.1-0.3-0.2-0.3c-2.3-4.1-4.5-8.1-6.8-12.2
				c-0.3-0.6-0.3-0.9,0.3-1.3c1.6,0,3.2,0,4.7,0c0.2,0.2,0.4,0.4,0.5,0.6c1.5,2.9,3,5.8,4.4,8.8c0.5,1,1,2.1,1.4,3.1
				c0-0.1,0.1-0.2,0.1-0.3c1.8-3.9,3.5-7.8,5.3-11.7c0.1-0.2,0.3-0.4,0.5-0.6c1.6,0,3.1,0,4.7,0c0.6,0.4,0.6,0.7,0.3,1.3
				c-2.2,4-4.4,8.1-6.6,12.2c-0.1,0.1-0.1,0.2-0.2,0.4c0.2,0,0.3,0,0.4,0c1.4,0,2.8,0,4.2,0c0.6,0,0.9,0.3,0.9,0.9
				c0,0.6,0,1.3,0,1.9c0,0.7-0.2,1-1,1c-1.9,0-3.8,0-5.8,0c-0.1,0-0.2,0-0.4,0c0,0.6,0,1.2,0,1.9c0.1,0,0.3,0,0.4,0
				c1.9,0,3.8,0,5.7,0c0.1,0,0.3,0,0.4,0c0.3,0.1,0.6,0.3,0.6,0.6c0,0.8,0,1.6,0,2.5c0,0.3-0.2,0.5-0.6,0.6c-0.1,0-0.3,0-0.4,0
				c-1.9,0-3.8,0-5.7,0c-0.1,0-0.2,0-0.4,0c0,0.2,0,0.3,0,0.4c0,2.2,0,4.4,0,6.6C96.8,106.8,96.7,107.1,96.3,107.3z"/>
		</g>
	</g>
	<g>
		<g>
			<path class="st0" d="M36,106c-1.4,0-2.8,0-4.2,0c0-0.5,0-1,0-1.5c0-0.7,0-1.4,0-2.1c0-0.3-0.1-0.4-0.4-0.4
				c-2.2-0.1-4.3-0.6-6.4-1.6c-0.3-0.1-0.3-0.2-0.3-0.5c0.4-1.5,0.8-3,1.2-4.5c0.5,0.2,0.9,0.4,1.3,0.6c2,0.9,4.1,1.3,6.3,1.2
				c0.7,0,1.4-0.2,2.1-0.5c1.6-0.8,1.8-2.7,0.5-3.9c-0.8-0.7-1.8-1.1-2.8-1.5c-1.2-0.5-2.5-0.9-3.7-1.5c-1.4-0.6-2.6-1.5-3.5-2.7
				c-1.8-2.5-1.5-6.2,0.6-8.5c1.4-1.5,3.2-2.3,5.1-2.7c0,0,0.1,0,0.2,0c0-1.3,0-2.6,0-3.9c1.4,0,2.7,0,4.1,0c0,1.2,0,2.4,0,3.6
				c2.1,0.1,4.2,0.5,6.1,1.4c-0.4,1.6-0.8,3.1-1.2,4.7c-0.9-0.3-1.8-0.7-2.7-1c-1.6-0.4-3.2-0.6-4.9-0.3c-0.4,0.1-0.8,0.3-1.2,0.5
				c-1.1,0.8-1.2,2.2-0.2,3.1c0.8,0.7,1.7,1.1,2.7,1.5c1.4,0.6,2.8,1.1,4.1,1.7c0.8,0.4,1.5,0.9,2.2,1.4c1.8,1.5,2.5,3.5,2.4,5.8
				c-0.2,3.4-2.4,5.9-5.8,7c-0.4,0.1-0.8,0.2-1.3,0.3c-0.3,0-0.3,0.2-0.3,0.4c0,1.2,0,2.4,0,3.6C36,105.7,36,105.8,36,106z"/>
		</g>
	</g>
	<g>
		<g>
			<path class="st0" d="M75.9,46.3c0.7,1.8,1.3,3.6,2,5.4c-1.4,0.9-2.9,1.5-4.5,1.9c-7.8,1.8-15.7-2.4-18.6-10.1
				c-0.2-0.5-0.4-0.7-0.9-0.6c-1.6,0-3.1,0-4.7,0c-0.2,0-0.3,0-0.5,0c0.3-1.2,0.6-2.5,0.9-3.7c0-0.1,0.2-0.2,0.4-0.2
				c1.1,0,2.2,0,3.3,0c0.2,0,0.3,0,0.5,0c0-0.6-0.1-1.1-0.1-1.7c-1.2,0-2.4,0-3.6,0c0.3-1.4,0.7-2.8,1-4.2c1,0,2.1,0,3.2,0
				c0.1-0.3,0.1-0.5,0.2-0.7c1.9-6,5.8-9.9,11.9-11.5c3.7-0.9,7.3-0.4,10.7,1.4c0.2,0.1,0.3,0.2,0.2,0.5c-0.4,1.8-0.9,3.6-1.3,5.4
				c-3.7-2.5-7.4-2.9-11.4-0.7c-2.2,1.2-4,3.6-4.6,5.6c4.9,0,9.8,0,14.8,0c-0.3,1.4-0.7,2.8-1,4.2c-4.8,0-9.7,0-14.6,0
				c0,0.6,0.1,1.1,0.1,1.7c4.7,0,9.4,0,14.1,0c-0.3,1.3-0.6,2.6-0.9,3.9c-3.9,0-7.8,0-11.8,0C63,47.6,69.9,50.7,75.9,46.3z"/>
		</g>
	</g>
	<g>
		<path class="st0" d="M66.2,66.2c-16,0-29-13-29-29c0-16,13-29,29-29s29,13,29,29C95.2,53.2,82.2,66.2,66.2,66.2z M66.2,12.5
			c-13.6,0-24.7,11.1-24.7,24.7s11.1,24.7,24.7,24.7s24.7-11.1,24.7-24.7S79.8,12.5,66.2,12.5z"/>
	</g>
	<g>
		<path class="st0" d="M35,117.3c-16,0-29-13-29-29c0-16,13-29,29-29c16,0,29,13,29,29S51,117.3,35,117.3z M35,63.7
			c-13.6,0-24.7,11.1-24.7,24.7S21.4,113,35,113s24.7-11.1,24.7-24.7S48.6,63.7,35,63.7z"/>
	</g>
	<g>
		<path class="st0" d="M93,119.8c-16,0-29-13-29-29c0-16,13-29,29-29c16,0,29,13,29,29C122,106.8,109,119.8,93,119.8z M93,66.2
			c-13.6,0-24.7,11.1-24.7,24.7s11.1,24.7,24.7,24.7s24.7-11.1,24.7-24.7S106.6,66.2,93,66.2z"/>
	</g>
</g>
</svg>
