<?xml version="1.0" encoding="utf-8"?>
<!-- Generator: Adobe Illustrator 23.0.0, SVG Export Plug-In . SVG Version: 6.00 Build 0)  -->
<svg version="1.1" id="Layer_1" xmlns="http://www.w3.org/2000/svg" xmlns:xlink="http://www.w3.org/1999/xlink" x="0px" y="0px"
	 viewBox="0 0 128 128" style="enable-background:new 0 0 128 128;" xml:space="preserve">
<style type="text/css">
	.st0{fill:#FFFFFF;stroke:#FFFFFF;stroke-width:2;stroke-miterlimit:10;}
</style>
<g>
	<path class="st0" d="M6,65c0-2.1,0-4.2,0-6.3c0.1-3,1.9-5.1,4.8-5.7c0.6-0.1,1.3-0.3,1.9-0.3c5.9-0.3,11.1-3.2,16.5-5.2
		c10.8-4,21.9-6.2,33.4-5.4c10.4,0.8,19.9,4.1,28.4,10c1.2,0.8,2.3,1.2,3.8,1.2c6.3,0.2,12.5,1.2,18.3,3.6c2.8,1.2,5.4,2.7,7.3,5.1
		c1.1,1.5,1.7,3.1,1.6,5c-0.1,2.4,0,4.8,0,7.2c0,4-2.3,6.3-6.2,6.2c-1.4,0-1.9,0.5-2.3,1.8c-3.2,8.8-13.8,11.3-20.4,5.2
		c-1.8-1.7-3.1-3.6-3.7-6c-0.2-0.7-0.5-0.9-1.3-0.9c-14.9,0-29.8,0-44.7,0c-0.8,0-1.1,0.3-1.3,1c-1.6,5.5-6.6,9.3-12.2,9.3
		c-5.6,0-10.6-3.8-12.1-9.2c-0.2-0.8-0.5-1.2-1.4-1.1c-3.1,0.4-5.4-0.9-7.2-3.3c-0.4-0.6-0.9-1.1-1.4-1.7c-1.2-1.3-1.8-2.8-1.7-4.6
		C6,69,6,67,6,65L6,65z M9.9,63.4c0,1.6,0.1,3.2,0,4.7c-0.3,2.8,0.5,5,2.6,7c1.1,1.1,2.1,1.7,3.7,1.6c0.8-0.1,1.2-0.3,1.4-1.1
		c1.3-6,6.4-10.1,12.4-10.1c6,0,11.1,4.1,12.4,10.1c0.2,0.9,0.5,1.2,1.4,1.2c14.7,0,29.3,0,44,0c0.9,0,1.2-0.3,1.4-1.2
		c1.2-5.8,6.4-10,12.4-10.1c5.9,0,11.1,4.1,12.4,9.9c0.3,1.3,0.9,1.4,1.9,1.3c1.1-0.1,2.2-0.3,2.2-1.6c0.1-2.5,0-5,0-7.7
		c-1.4,0-2.6,0-3.9,0c-1.2,0-1.9-0.4-2.5-1.5c-1-1.9-2.1-3.8-3.2-5.6c-0.4-0.6-1.1-1.2-1.7-1.3c-4.2-0.7-8.5-1.6-12.7-1.7
		c-14.8-0.2-29.5-0.1-44.3-0.1c-0.3,0-0.7,0.1-1.2,0.1c0.7,1.5,1.4,2.8,2,4.1c1.2,2.5,2.5,5.1,3.7,7.6c0.7,1.5-0.2,3.2-1.7,3.1
		c-1-0.1-1.5-0.8-2-1.6c-3.4-7-6.9-14-10.4-21c-0.2-0.4-0.4-0.8-0.8-1.4c-3.7,1.3-7.5,2.5-11.1,3.9c-4.7,1.9-9.2,4.1-14.3,4.4
		c-0.9,0.1-1.7,0.2-2.5,0.4c-1.2,0.2-1.7,1-1.6,2.3c1.6,0.2,3.9-0.4,3.8,2.1C13.8,63.7,11.6,63.1,9.9,63.4z M43.5,47.4
		c0.9,1.7,1.7,3.4,2.5,5c0.3,0.7,0.7,0.9,1.5,0.9c12.2,0,24.4,0,36.6,0c0.3,0,0.5-0.1,1-0.2C71.9,45.5,58.1,44.3,43.5,47.4z
		 M29.9,86.9c4.9,0,8.7-3.9,8.7-8.7c0-4.8-3.9-8.7-8.7-8.7c-4.8,0-8.8,3.9-8.8,8.7C21.2,83.1,25,86.9,29.9,86.9z M101.5,86.9
		c4.8,0,8.8-4,8.7-8.8c-0.1-4.7-4.1-8.7-8.7-8.7c-4.8,0-8.8,4-8.8,8.8C92.8,83,96.7,86.9,101.5,86.9z"/>
	<path class="st0" d="M57.3,63.3c-0.6,0-1.1,0-1.6-0.1c-1-0.2-1.6-0.9-1.5-1.9c0-0.9,0.6-1.7,1.5-1.8c1.1-0.1,2.1-0.2,3.2,0
		c1.1,0.1,1.7,0.9,1.7,2c0,1.1-0.7,1.7-1.8,1.9C58.2,63.3,57.8,63.2,57.3,63.3C57.3,63.2,57.3,63.3,57.3,63.3z"/>
	<path class="st0" d="M36,78.2c0,3.4-2.8,6.2-6.1,6.1c-3.4,0-6.1-2.8-6.1-6.2c0-3.4,2.7-6,6.1-6C33.3,72.1,36,74.8,36,78.2z
		 M29.8,76.1c-1.2,0-2.1,1-2.1,2.2c0,1.2,1,2.2,2.3,2.1c1.2-0.1,2.1-1,2-2.2C32,77,31,76,29.8,76.1z"/>
	<path class="st0" d="M107.6,78.1c0,3.3-2.8,6.2-6.1,6.2c-3.3,0-6.1-2.8-6.2-6.1c0-3.3,2.7-6,6-6.1C104.7,72,107.6,74.8,107.6,78.1z
		 M103.7,78.2c0-1.1-1.1-2.1-2.2-2.1c-1.2,0-2.2,1.1-2.1,2.3c0.1,1.2,1,2,2.2,2C102.7,80.3,103.7,79.3,103.7,78.2z"/>
</g>
</svg>
