<?xml version="1.0" encoding="utf-8"?>
<!-- Generator: Adobe Illustrator 23.0.0, SVG Export Plug-In . SVG Version: 6.00 Build 0)  -->
<svg version="1.1" id="Layer_1" xmlns="http://www.w3.org/2000/svg" xmlns:xlink="http://www.w3.org/1999/xlink" x="0px" y="0px"
	 viewBox="0 0 128 128" style="enable-background:new 0 0 128 128;" xml:space="preserve">
<style type="text/css">
	.st0{fill:#FFFFFF;stroke:#FFFFFF;stroke-width:2;stroke-miterlimit:10;}
</style>
<g>
	<path class="st0" d="M94.2,97.7c0-19.3,0-38.6,0-58.1c-0.5,0-0.9,0-1.3,0c-5.4,0-10.8,0-16.3,0c-4.9,0-8.5-3.6-8.5-8.5
		c0-4.9,0-9.8,0-14.6c0-0.4,0-0.7,0-1.2c-0.4,0-0.8,0-1.2,0c-14.6,0-29.2,0-43.8,0c-2.6,0-3.8,1.2-3.8,3.8c0,30,0,60,0,90
		c0,2.7,1.2,3.8,3.8,3.8c22.3,0,44.6,0,66.9,0c2.6,0,3.5-0.7,4.2-3.1c1-0.3,2.1-0.5,3.1-0.8c0.8,3.2-2.2,6.9-5.9,7.1
		c-0.5,0-1.1,0-1.6,0c-22.2,0-44.5,0-66.7,0c-4.4,0-7-2.7-7-7c0-30,0-60.1,0-90.1c0-4.3,2.7-7,6.9-7c15.5,0,31,0,46.5,0
		c0.8,0,1.3,0.2,1.9,0.7c8.4,7.9,16.8,15.8,25.3,23.7c0.6,0.5,0.8,1.1,0.8,1.8c0,18.4,0,36.9,0,55.3c0,0.9-0.2,1.5-0.8,2.1
		c-0.7,0.6-1.4,1.4-2,2.1C94.4,97.7,94.3,97.7,94.2,97.7z M91.7,36.3c-6.8-6.4-13.5-12.7-20.3-19.1c0,0.6,0,0.9,0,1.2
		c0,4.2,0,8.4,0,12.6c0,3.3,2.1,5.4,5.4,5.4c4.6,0,9.2,0,13.8,0C90.8,36.3,91.1,36.3,91.7,36.3z"/>
	<path class="st0" d="M94.5,102.4c2.7-2.8,5.3-5.5,7.9-8.2c2.1-2.2,4.3-4.4,6.4-6.6c0.9-0.9,1.8-1,2.6-0.3c0.7,0.7,0.7,1.7-0.2,2.6
		c-5.1,5.3-10.2,10.6-15.4,15.8c-0.9,0.9-1.7,0.9-2.7,0c-3.3-3.1-6.5-6.2-9.8-9.3c-0.9-0.8-1-1.8-0.3-2.5c0.7-0.8,1.7-0.7,2.6,0.2
		c2.6,2.4,5.1,4.9,7.7,7.3C93.7,101.6,94.1,102,94.5,102.4z"/>
	<path class="st0" d="M46.9,53.6c-0.9,0-1.8,0-2.7,0c-0.6,0-1.2-0.2-1.2-1.1c0-0.8,0.6-1,1.3-1.1c1.4,0,2.7,0,4.1,0
		c1,0,1.5,0.6,1.5,1.6c0,1,0.1,2,0,2.9c-0.1,0.6-0.4,1.3-0.9,1.6c-2.6,1.6-5.4,2-8.3,1.2c-3.6-1-5.6-4.3-5-8.2
		c0.5-3.4,2.5-5.4,5.9-5.9c1.9-0.3,3.8-0.3,5.5,0.7c0.9,0.5,1.6,1.4,2.2,2.3c0.4,0.6,0.1,1.3-0.5,1.7c-0.7,0.4-1.3,0.3-1.8-0.3
		c-0.2-0.2-0.3-0.4-0.4-0.6c-1-1.6-2.6-2-4.3-1.7c-1.7,0.3-2.9,1.4-3.2,3.1c-0.2,1.3-0.2,2.6,0.1,3.9c0.4,1.8,1.8,2.9,3.7,3
		c0.8,0,1.7,0,2.4-0.2C47.2,56,47.1,56.3,46.9,53.6z"/>
	<path class="st0" d="M58.1,59.4c-2.1-0.3-3.9-0.6-5.2-2.4c-0.4-0.5-0.6-1.1-0.7-1.7C52,54.6,52.3,54,53,53.8c0.7-0.2,1.3,0,1.6,0.6
		c0.1,0.2,0.2,0.4,0.3,0.5c0.9,2,3,2.6,4.9,1.6c0.7-0.3,1.1-0.8,1.1-1.7c0-0.8-0.5-1.3-1.2-1.6c-0.8-0.3-1.6-0.5-2.4-0.7
		c-1-0.3-2.1-0.6-3.1-1.1c-1.3-0.6-1.9-1.7-1.9-3.1c0-1.4,0.6-2.5,1.9-3.1c2.3-1.1,4.7-1.3,7-0.1c0.7,0.4,1.4,1.2,1.8,1.9
		c0.5,0.8,0.1,1.7-0.6,2c-0.9,0.4-1.4,0-1.8-0.8c-1.1-1.8-2.4-2.3-4.1-1.6c-0.5,0.2-1.1,0.8-1.3,1.4c-0.2,0.8,0.5,1.2,1.1,1.4
		c0.9,0.3,1.9,0.5,2.8,0.8c0.8,0.2,1.6,0.4,2.3,0.7c1.5,0.6,2.4,1.6,2.4,3.3c0.1,1.7-0.6,3.1-2.2,3.8C60.7,58.8,59.3,59,58.1,59.4z"
		/>
	<path class="st0" d="M50.2,87.1c-0.6-0.4-1.3-0.7-1.4-1.1c-0.2-0.6-0.2-1.4,0.1-1.9c1.5-2.4,3-4.6,4.6-6.9C56.3,73.1,59,69,61.7,65
		c0.6-1,1.6-1.3,2.4-0.7c0.8,0.6,1,1.5,0.3,2.5c-4.2,6.3-8.4,12.7-12.7,19C51.4,86.2,50.8,86.6,50.2,87.1z"/>
	<path class="st0" d="M47,64c3.1,0,5.6,2.5,5.6,5.6c0,3.2-2.5,5.8-5.7,5.8c-3.1,0-5.7-2.5-5.7-5.7C41.2,66.5,43.7,64,47,64z
		 M46.9,72.1c1.3,0,2.4-1.2,2.4-2.5c0-1.3-1.1-2.4-2.4-2.4c-1.4,0-2.5,1.1-2.5,2.4C44.5,71,45.6,72.1,46.9,72.1z"/>
	<path class="st0" d="M72.1,81.1c0,3.1-2.6,5.7-5.7,5.7c-3.2,0-5.7-2.6-5.7-5.8c0-3.1,2.6-5.6,5.8-5.6C69.6,75.4,72.1,78,72.1,81.1z
		 M64,81.1c0,1.3,1.1,2.5,2.4,2.5c1.3,0,2.4-1.1,2.4-2.4c0-1.3-1-2.5-2.4-2.5C65.1,78.6,64,79.7,64,81.1z"/>
	<path class="st0" d="M73,47.1c0,0.6,0,1,0,1.4c0,2.9,0,5.8,0,8.7c0,1.3-0.5,1.9-1.5,1.9c-1,0-1.5-0.6-1.5-1.9c0-3,0-6,0-8.9
		c0-0.4,0-0.7,0-1.2c-1.1,0-2,0-2.9,0c-0.4,0-0.8,0-1.1-0.2c-0.3-0.2-0.7-0.7-0.7-1s0.4-0.8,0.7-1c0.3-0.2,0.8-0.2,1.2-0.2
		c2.9,0,5.8,0,8.6,0c0.3,0,0.6,0,0.9,0c0.7,0.1,1.2,0.4,1.1,1.2c0,0.7-0.5,1.1-1.2,1.1c-0.8,0.1-1.6,0-2.4,0
		C73.8,47.1,73.5,47.1,73,47.1z"/>
</g>
</svg>
