<?xml version="1.0" encoding="utf-8"?>
<!-- Generator: Adobe Illustrator 23.0.0, SVG Export Plug-In . SVG Version: 6.00 Build 0)  -->
<svg version="1.1" id="Layer_1" xmlns="http://www.w3.org/2000/svg" xmlns:xlink="http://www.w3.org/1999/xlink" x="0px" y="0px"
	 viewBox="0 0 128 128" style="enable-background:new 0 0 128 128;" xml:space="preserve">
<style type="text/css">
	.st0{fill:#FFFFFF;stroke:#FFFFFF;stroke-width:3;stroke-miterlimit:10;}
</style>
<g>
	<path class="st0" d="M40.3,33.5c-1.8-1.5-3.3-1.7-5.1-0.7c-0.7,0.4-1.3,0.7-1.8-0.1c-0.5-0.9,0.1-1.3,0.8-1.7
		c1.8-1.1,3.7-1.1,5.6-0.3c0.5,0.2,1,0.5,1.5,0.7c0.3-1.1,0.5-2.2,0.9-3.2c0.2-0.4,0.6-0.9,1-1.1c0.2-0.1,0.8,0.1,1,0.3
		c0.2,0.3,0.2,0.8,0.1,1.2c-0.3,1.1-0.6,2.2-1,3.2c0.1,0.1,0.2,0.1,0.4,0.2c0.9-0.9,1.8-1.8,2.8-2.6c0.5-0.4,1-0.9,1.6-1.1
		c0.4-0.1,1.1,0,1.3,0.3c0.2,0.3,0.1,1-0.2,1.3c-0.5,0.6-1.2,1-2.1,1.7c1.4-0.2,2.4-0.4,3.5-0.6c0.9-8.8,7.4-12.2,14.4-8.9
		c0-1.1,0-2.1,0-3.3c-2.7,0.5-5.3,0.3-7.7-1.1c-1.3-0.7-2.5-1.6-3.7-2.5c-1.3-1.1-1.2-1.8,0.4-2.5c3.9-1.8,7.6-1.7,10.9,1.3
		c0.1,0.1,0.3,0.2,0.3,0.2c0.9-1.2,1.5-2.4,2.5-3.4c2.9-3,6.7-2.7,10-1c0.8,0.4,0.7,1.1,0.4,1.8c-1.6,4.7-5.5,6.9-10.2,5.7
		c-0.2-0.1-0.5-0.1-0.8-0.2c0,1.7,0,3.3,0,5.1c3.2-1.7,6.4-1.9,9.5-0.2c3.2,1.8,4.1,5.1,4.7,8.4c1.4-0.2,2.8-0.3,4.3-0.4
		c0.2-0.9,0.5-1.9,0.6-3c0.1-0.4-0.1-1-0.3-1.4c-0.7-1-1.4-1.9-2.1-2.9c-0.4-0.6-0.6-1.3,0.1-1.6c0.4-0.2,1.1,0.1,1.5,0.4
		c0.6,0.5,1,1.2,1.6,2c0.5-2.2,0.9-4.2,1.3-6.1c0-0.3-0.2-0.6-0.4-0.9c-0.5-0.5-1-1-1.5-1.6c-0.5-0.6-1.4-1.2-0.5-2
		c0.8-0.8,1.4,0,1.9,0.5c0.3,0.4,0.5,0.8,0.7,1.2c0.2-0.1,0.3-0.2,0.5-0.4c0.2-0.9,0.3-1.8,0.7-2.7c0.2-0.4,0.8-1,1.2-1
		c0.8,0,1,0.7,0.8,1.4c-0.4,1.9-0.8,3.8-1.2,5.9c0.7-0.4,1.1-0.9,1.6-1c0.5-0.1,1,0.1,1.6,0.2c-0.1,0.5-0.1,1.1-0.4,1.4
		c-0.8,0.7-1.8,1.2-2.7,1.9c-0.4,0.3-0.7,0.7-0.8,1.2c-0.6,2.7-1.2,5.3-1.7,8c-0.1,0.4,0.2,0.8,0.4,1.2c0.4-0.2,0.9-0.4,1-0.7
		c2.1-4.2,4.1-8.4,6.1-12.7c0.2-0.4,0.2-1,0.2-1.4c-0.5-2.6-1.1-5.2-1.7-7.9c-0.2-0.8-0.2-1.5,0.7-1.7c0.9-0.2,1.1,0.5,1.3,1.2
		c0.4,1.9,0.8,3.7,1.3,6c0.7-1.4,1.2-2.5,1.8-3.6c0.3-0.7,0.5-1.4,1-1.9c0.3-0.3,0.9-0.4,1.3-0.6c0.2,0.5,0.6,1.1,0.4,1.5
		c-0.7,1.7-1.6,3.4-2.5,5.4c1.8-0.8,3.3-1.5,4.8-2.1c0.4-0.2,0.7-0.3,1.1-0.5c0.7-0.3,1.5-0.6,1.8,0.4c0.4,0.8-0.3,1.2-0.9,1.5
		c-2.2,1-4.4,2-6.7,2.9C98.2,17.3,97.5,18,97,19c-1.9,4.1-3.9,8.2-5.8,12.2c-0.2,0.4,0,0.9,0,1.3c0.4-0.2,0.8-0.3,1.1-0.6
		c1.9-2,3.9-4.1,5.8-6.2c0.4-0.5,0.7-1.2,0.8-1.9c0.1-1.3-0.1-2.6,0.1-3.8c0-0.4,0.6-0.8,1-1.2c0.3,0.4,0.9,0.8,1,1.2
		c0.2,0.8,0,1.6,0,2.7c1.4-1.5,2.6-2.8,3.9-4.1c0.3-0.3,0.5-0.7,0.8-0.7c0.4-0.1,1,0,1.1,0.2c0.2,0.4,0.2,1,0,1.3
		c-0.5,0.8-1.3,1.5-2.1,2.4c0.9,0,1.7-0.1,2.3,0c0.4,0.1,0.7,0.6,1.1,1c-0.4,0.3-0.7,0.7-1.1,1c0,0-0.1,0-0.1,0
		c-3.6-0.9-5.7,1.2-7.6,3.7c-0.3,0.4-0.7,0.8-1.3,1.4c1.4,0,2.5,0,3.7,0c0.7,0,1.3,0.2,1.3,1c0,0.8-0.6,1-1.3,1
		c-1.4,0-2.8,0.1-4.2,0c-1-0.1-1.8,0.3-2.4,1.1c-0.5,0.7-1.1,1.3-1.8,2c1.4,1.9,1.9,4.1,1.4,6.5c0,0.2,0.2,0.5,0.4,0.7
		c1.6,1.7,1.9,3.4,1.6,5.8c-0.3,1.8-0.3,3.9,0,5.7c0.3,2.2,0.3,4-1,5.9c0.5,0.2,0.9,0.4,1.3,0.5c4.6,1.8,6.4,6.8,4.1,11.1
		c-1.9,3.5-4.5,6.3-7.8,8.5c-0.4,0.3-0.9,0.9-0.9,1.5c-1.2,9.1-2.4,18.2-3.6,27.4c-0.2,1.4-0.3,2.7-0.5,4.1
		c-0.3,1.9-1.4,3.2-2.9,4.3c-3,2-6.3,3.1-9.8,3.8c-10.4,2.1-20.8,2.1-31-0.7c-2.6-0.7-5.1-1.9-7.5-3.2c-1.9-1-2.8-2.8-3-5
		c-1.1-8.8-2.4-17.6-3.4-26.5c-0.3-3.2-1.2-5.5-4-7.3c-2.4-1.5-4-3.9-5.3-6.4c-2.4-4.6-0.4-9.7,4.5-11.4c0.3-0.1,0.6-0.2,1-0.4
		c-1.4-1.9-1.9-3.9-1-6.1c0.1-0.2,0-0.4,0-0.6c0-0.2-0.2-0.3-0.2-0.5c-0.1-2.6-0.4-5.2,0-7.7c0.2-1.4,1.6-2.6,2.6-3.8
		c0.6-0.8,1.5-1.5,2.1-2.3c2-2.8,4.7-4.2,8.1-4.4C38.8,33.5,39.5,33.5,40.3,33.5z M89.9,80.5c-3.8,1.7-7.5,2.1-11.3,2.4
		c-0.8,0.1-1.3,0.3-1.7,1.2c-0.7,2.1-2.6,3.4-4.8,3.4c-7.5,0-15,0-22.5,0c-2.3,0-3.9-1.2-4.7-3.2c-0.3-0.7-0.7-1-1.4-1.1
		c-3.9-0.3-7.8-0.7-11.6-2.4c0.2,1.8,0.4,3.5,0.6,5.1c1.1,8.2,2.2,16.3,3.2,24.5c0.2,2.1,1.1,3.6,2.9,4.4c2.2,1,4.4,2.1,6.8,2.6
		c10,2.5,20.1,2.4,30.2,0.3c3-0.6,5.9-1.6,8.5-3.4c1.2-0.8,1.8-1.9,2-3.4c0.9-7,1.8-13.9,2.7-20.9C89.1,86.9,89.5,83.8,89.9,80.5z
		 M92.4,61.6C82.5,66.9,71.8,68,61,68c-10.9,0-21.6-1.1-31.5-6.4c0,0.2,0,0.3,0,0.4c0.6,4.9,1.4,9.8,1.9,14.7
		c0.1,1.3,0.7,1.8,1.8,2.3c3.4,1.5,7.1,1.7,10.7,2c0.3,0,0.8-0.3,1-0.7c1.1-2.2,2.8-3.2,5.2-3.2c7.2,0,14.4,0,21.6,0
		c2.4,0,4.1,0.9,5.2,3.1c0.1,0.3,0.5,0.6,0.8,0.6c4-0.3,8-0.6,11.7-2.4c0.7-0.3,1-0.8,1.1-1.5c0.2-2.3,0.6-4.6,0.9-6.8
		C91.7,67.3,92,64.5,92.4,61.6z M58,46.4c0.8-1.9,1-3.7,0.6-5.6c-0.7-3.4-2.4-6-5.8-7.2c-3.2-1.1-5.9,0.2-8.3,2.3
		c-0.6,0.5-1.1,0.6-1.8,0.4C36.5,34,31,37,30.3,43.4c-0.4,4.2,0,7.1,4.8,8.6c1.8,0.6,3.6,1.2,5.4,1.8C42,48.2,49,43.6,58,46.4z
		 M74,41.4c0.2-0.5,0.3-1,0.5-1.4c1.2-2.2,2.2-4.6,3.7-6.7c0.9-1.2,1.2-2.2,0.9-3.5c-0.7-2.9-1.7-5.6-5-6.5c-2.6-0.8-5-0.1-7,1.6
		c-0.8,0.6-1.4,0.7-2.1,0c-0.5-0.4-1.1-0.8-1.7-1.1c-3.9-2-8.2-0.4-9.7,3.7c-0.4,1.2-0.6,2.4-0.9,3.7c4.3,1.4,6.6,4.4,7.9,8.4
		C67,37.7,69.7,38,74,41.4z M72.3,54.9c3.5,0.1,13.3-2.3,14.8-3.7C86,50.8,85,50.3,84,49.9c-0.8-0.3-1.9-0.5-1.5-1.7
		c0.4-1.2,1.4-0.6,2.2-0.3c1.2,0.4,2.3,0.9,3.6,1.4c1-1.8,2-3.5,3-5.3c-0.7-0.3-1.4-0.4-1.8-0.7c-0.4-0.3-0.5-0.8-0.8-1.3
		c0.5-0.2,1-0.6,1.5-0.6c0.6,0,1.3,0.3,1.9,0.5c1.7-4.8,0.1-7.6-5.4-9.4c-4-1.3-7.7,1.2-9,6.1c1.3,0.5,2.6,1.1,3.9,1.6
		c0.7,0.3,1.3,0.6,1,1.5c-0.3,0.8-1,0.7-1.7,0.4c-1.3-0.5-2.7-1.1-4.3-1.7C74.9,45.4,73.6,50.1,72.3,54.9z M27.2,54.6
		c-0.1,1.5,0.4,2.6,1.4,3.4c1.3,1.1,2.6,2.1,4.1,2.8c5.9,2.9,12.2,4.2,18.7,4.6c5.4,0.4,10.9,0.4,16.3,0.2
		c6.4-0.2,12.6-1.3,18.6-3.6c2.2-0.9,4.3-2.1,6.3-3.4c1.3-0.9,2.2-2.2,2.2-4c-0.2,0.1-0.4,0.1-0.4,0.2c-3.3,2.8-7.3,4.3-11.5,5.4
		c-12.6,3.2-25.4,3.4-38.2,1.2C38.4,60.5,32.4,58.9,27.2,54.6z M27.2,49.9c0,1.6,0.7,2.6,2.2,3.9c2.5,2,5.4,3.1,8.3,4
		c6.2,1.9,12.6,2.7,19.1,3c9.3,0.4,18.6-0.3,27.5-3.1c2.8-0.9,5.5-2,7.9-3.8c1.3-1,2.3-2.2,2.4-3.9c-0.7,0.3-1.3,0.5-1.8,0.9
		c-4.9,3.4-10.6,4.8-16.4,5.7c-4.7,0.7-9.6,1.1-14.4,1.4c-6.3,0.4-12.5,0.1-18.7-1.2c-4.8-1-9.5-2.4-13.7-5.1
		C28.9,51,28.1,50.5,27.2,49.9z M59.9,85.4c0-0.7-0.1-1.4,0-1.9c0.1-0.4,0.6-0.7,1-1.1c0.3,0.4,0.9,0.7,1,1.1c0.2,0.6,0,1.2,0,1.9
		c1.4,0,2.7,0,4.1,0c0-0.7-0.1-1.4,0-2c0.1-0.4,0.7-0.7,1-1c0.3,0.3,0.8,0.6,0.9,1c0.2,0.6,0,1.3,0,2c1.5,0,2.8,0,4.1,0
		c1.3,0,2.3-0.7,2.8-1.9c0.9-2.1-0.6-4.2-3.1-4.2c-5.4,0-10.8,0-16.2,0c-2,0-4,0-6,0c-1.7,0-3,1.4-3.1,3c-0.1,1.5,1.2,3,2.8,3.1
		c1.4,0.1,2.9,0,4.4,0c0-0.7-0.1-1.3,0-1.9c0.2-0.5,0.7-0.8,1-1.2c0.3,0.4,0.8,0.7,0.9,1.1c0.2,0.6,0,1.2,0,1.9
		C57.2,85.4,58.5,85.4,59.9,85.4z M65.2,55.6c1.4-0.1,2.8-0.2,4.1-0.3c0.8,0,1-0.4,1.1-1.1c0.8-3.2,1.7-6.4,2.5-9.6
		c0.1-0.5-0.1-1.3-0.4-1.7c-2.6-2.8-7.7-3.4-10.9-1.3c-0.3,0.2-0.6,0.5-0.6,0.8c-0.3,1.6-0.5,3.2-0.8,5
		C63.7,50.4,64.4,51.5,65.2,55.6z M62.9,55.8c-0.1-4.5-4.3-7.9-9.8-8.2c-5.1-0.2-10,2.9-10.4,6.7C49.4,55.8,56.1,56,62.9,55.8z
		 M27.3,61.2c-3.7,0.5-6.1,3.9-5,7.2c1.2,3.6,3.7,6.2,7,8.6C28.6,71.5,28,66.4,27.3,61.2z M94.6,60.9c-0.7,5.2-1.3,10.3-2.1,15.8
		c3.3-2.4,5.8-5.1,7-8.6C100.7,64.8,98.3,61.5,94.6,60.9z M75.9,11.5c-3.4-1.8-7.1-0.2-8.4,3.5C70.9,16.8,74.7,15.2,75.9,11.5z
		 M64.4,16.8c-2.3-3-5.7-3.9-8.7-2.3C58.4,16.4,61,17.6,64.4,16.8z M90.6,49.7c4-1.9,5.1-4.1,3.3-6.2C92.8,45.5,91.7,47.5,90.6,49.7
		z M28.3,47.6c-0.1-1.5-0.2-2.9-0.2-4.4C26.7,44.8,26.8,46,28.3,47.6z"/>
	<path class="st0" d="M42.3,109.2c0,0.7,0.2,1.6-0.9,1.6c-1,0.1-1.1-0.7-1.2-1.5c-0.8-6.8-1.7-13.6-2.5-20.4c0-0.3-0.2-0.7,0-0.9
		c0.2-0.4,0.6-0.8,0.9-1.2c0.4,0.3,1,0.6,1.1,1c0.3,1.7,0.5,3.4,0.7,5.1C41,98.3,41.6,103.8,42.3,109.2z"/>
	<path class="st0" d="M35.5,70.8c0.2-0.2,0.7-0.9,1-0.8c0.4,0,1,0.6,1.1,1.1c0.3,1.7,0.5,3.3,0.6,5c0,0.4-0.6,0.9-0.9,1.3
		c-0.4-0.3-1-0.6-1.1-1C36,74.7,35.8,72.9,35.5,70.8z"/>
	<path class="st0" d="M33.3,44.8c0.1-3.2,1.6-5.5,4.1-6.2c0.3-0.1,0.7-0.2,1-0.1c0.4,0.2,0.9,0.5,0.9,0.8c0,0.4-0.4,1.1-0.7,1.1
		c-2.3,0.4-2.9,2.1-3.2,4c0,0.2,0,0.3-0.1,0.5c0,0.8,0,1.7-1.1,1.7C33.2,46.5,33.3,45.6,33.3,44.8z"/>
	<path class="st0" d="M55.8,31.1c0.1-3.2,1.6-5.3,3.9-5.9c0.4-0.1,0.8-0.2,1.1-0.1c0.4,0.2,0.9,0.6,1,1c0.1,0.2-0.5,0.9-0.9,1
		c-2.2,0.6-2.9,1.4-3.1,3.7c-0.1,0.7-0.2,1.5-1,1.4C56.3,32,56,31.3,55.8,31.1z"/>
</g>
</svg>
