<?xml version="1.0" encoding="utf-8"?>
<!-- Generator: Adobe Illustrator 23.0.0, SVG Export Plug-In . SVG Version: 6.00 Build 0)  -->
<svg version="1.1" id="Layer_1" xmlns="http://www.w3.org/2000/svg" xmlns:xlink="http://www.w3.org/1999/xlink" x="0px" y="0px"
	 viewBox="0 0 128 128" style="enable-background:new 0 0 128 128;" xml:space="preserve">
<style type="text/css">
	.st0{fill:#FFFFFF;stroke:#FFFFFF;stroke-width:3;stroke-miterlimit:10;}
</style>
<g>
	<path class="st0" d="M40.5,106.8c0-1.8,0-3.1,0-4.8c7.6,0,15.1,0,22.6,0c1,0,2,0,3,0c3-0.2,5.1-2.2,5.1-4.7c0-2.6-2.1-4.7-5.1-4.8
		c-3.8-0.1-7.5,0-11.3,0c-2.3,0-4.6-0.3-6.8,0.1c-6.1,0.8-11-0.7-14.6-5.9c-0.6-0.8-2.2-1.3-3.3-1.3c-7.5-0.1-15-0.1-22.9-0.1
		c0-5.3-0.1-10.4,0.1-15.5c0-0.6,1.2-1.1,2.2-2.1c0.9-13.3,6.1-25.5,15.9-35.4c9.9-10,22-15.2,36.1-16.2c0-1.5,0-2.9,0-4.6
		c-3.8,0-7.6,0-11.5,0c0-1.7,0-3,0-4.6c9.3,0,18.6,0,28.1,0c0,1.4,0,2.8,0,4.5c-3.8,0-7.5,0-11.5,0c0,1.6,0,3.1,0,4.7
		c13.8,1,25.9,6.1,35.8,16c9.9,9.9,15.2,22,16.2,36.1c0.3-0.1,0.5-0.2,0.8-0.3c0.5,1.1,1.4,2.3,1.5,3.4c0.1,5.9,0.1,11.8,0.1,17.7
		c0,3.3-1.5,5.8-4.3,7.3c-14.6,8.1-29.2,16.2-43.8,24.2c-0.9,0.5-2.1,0.6-3.1,0.6c-15.7,0-31.4,0.1-47.1,0c-1.3,0-2.8-0.7-3.8-1.5
		c-3.8-3.4-7.6-6.8-11.2-10.5c-0.8-0.8-0.5-2.7-0.7-4.2c2.2-0.7,3.8-0.4,5.2,1.2c2.5,2.8,5.4,5.3,7.9,8.1c1.5,1.7,3.1,2.3,5.4,2.3
		c14.1-0.1,28.3,0,42.4-0.1c1.6,0,3.3-0.5,4.7-1.2c13.3-7.3,26.6-14.7,39.9-22c3.4-1.9,4.3-3.4,3.2-5.6c-1.1-2.2-4.2-2.9-7.1-1.4
		c-8.8,4.6-17.7,8.8-26.1,14c-8.7,5.3-17.6,7.9-27.7,6.9C50.2,106.4,45.5,106.8,40.5,106.8z M14.7,68.5c33.1,0,65.9,0,98.7,0
		c0-20.7-17.5-46.8-48.7-47.4C38.2,20.4,15.1,42.5,14.7,68.5z M116.1,73.6c-34.8,0-69.4,0-104,0c0,2.4,0,4.6,0,6.8
		c34.8,0,69.3,0,104,0C116.1,78.1,116.1,76,116.1,73.6z M99,85.6c-20.2,0-39.7,0-59.2,0c-0.1,0.3-0.1,0.6-0.2,0.9
		c1.3,0.4,2.5,1.2,3.8,1.2c6.8,0.1,13.6,0.1,20.4,0c3,0,6.2-0.4,8.4,2c1.9,2.1,3.2,4.9,4.9,7.6C83.7,93.7,91.1,89.8,99,85.6z"/>
	<path class="st0" d="M14.7,68.5c0.4-26,23.5-48,50-47.4c31.2,0.7,48.7,26.7,48.7,47.4C80.6,68.5,47.7,68.5,14.7,68.5z"/>
</g>
</svg>
