<?xml version="1.0" encoding="utf-8"?>
<!-- Generator: Adobe Illustrator 23.0.0, SVG Export Plug-In . SVG Version: 6.00 Build 0)  -->
<svg version="1.1" id="Layer_1" xmlns="http://www.w3.org/2000/svg" xmlns:xlink="http://www.w3.org/1999/xlink" x="0px" y="0px"
	 viewBox="0 0 128 128" style="enable-background:new 0 0 128 128;" xml:space="preserve">
<style type="text/css">
	.st0{fill:#FFFFFF;stroke:#FFFFFF;stroke-width:3;stroke-miterlimit:10;}
</style>
<g>
	<path class="st0" d="M55.9,8c1,0.7,1.3,1.7,1.2,2.8c0,1.5,0,3,0,4.6c0.4,0,0.8,0.1,1.2,0.1c2,0,4.1,0,6.1,0c2.1,0,2.7,0.7,2.7,2.8
		c0,2.4,0,4.7,0,7.2c1.2,0,2.4,0,3.7,0c0-2.1,0-4.2,0-6.3c0-0.5,0-1,0-1.5c0.1-1.3,0.7-1.9,2.1-2.1c0.3,0,0.6,0,0.9,0
		c11.1,0,22.1,0,33.2,0c2.4,0,3,0.5,3,3c0,32.1,0,64.2,0,96.3c0,0.5,0,0.9,0,1.5c1,0,1.9,0,2.8,0c1.4,0,2.2,0.7,2.2,1.9
		c0,1.2-0.8,1.9-2.3,1.9c-15.3,0-30.6,0-45.9,0c-16.9,0-33.9,0-50.8,0c-0.3,0-0.6,0-0.9,0c-1.4,0-2.2-0.7-2.2-1.9
		c0-1.1,0.8-1.8,2.1-1.9c0.9,0,1.9,0,2.9,0c0-0.6,0-1.1,0-1.5c0-22.9,0-45.8,0-68.7c0-2.3,0.5-2.8,2.8-2.8c4.5,0,9,0,13.5,0
		c0.4,0,0.8,0,1.3,0c0-0.5,0-1,0-1.4c0-4.5,0-9,0-13.5c0-2.1,0.7-2.8,2.8-2.8c1.5,0,3,0,4.5,0c0.1,0,0.1-0.1,0.3-0.1
		c0-2.4,0-4.8,0-7.3c0-2,0.7-2.6,2.6-2.6c2.4,0,4.9,0,7.5,0c0-1.7,0.1-3.3,0-4.8c-0.1-1.2,0.3-2.1,1.3-2.7C55,8,55.5,8,55.9,8z
		 M74.8,19.4c0,15.5,0,30.9,0,46.4c2,0,4,0,6.1,0c0.2-1.3,0.6-2.4,2.1-2.4c1,0,1.6,0.7,1.9,2.4c1.2,0,2.4,0,3.6,0
		c0-0.3,0-0.4,0.1-0.6c0.2-1.1,1-1.8,1.9-1.8c0.9,0,1.7,0.7,1.9,1.8c0.1,0.4,0.1,0.9,0.1,1.3c0,16.1,0,32.2,0,48.3
		c0,0.5,0,0.9,0,1.5c4.6,0,9.1,0,13.7,0c0-32.3,0-64.5,0-96.8C95.6,19.4,85.3,19.4,74.8,19.4z M21.9,47.1c0,23.1,0,46.1,0,69.1
		c2.9,0,5.7,0,8.7,0c0-0.5,0-0.9,0-1.3c0-2.1,0-4.2,0-6.3c0-1.5,0.6-2.3,1.9-2.3c3.4-0.1,6.8-0.1,10.2,0c1.2,0,1.8,0.8,1.9,2.1
		c0,1.9,0,3.7,0,5.6c0,0.8,0,1.5,0,2.2c3,0,5.9,0,8.7,0c0-23.1,0-46,0-69C42.8,47.1,32.4,47.1,21.9,47.1z M57.2,116.2
		c10.5,0,20.9,0,31.3,0c0-15.5,0-31,0-46.4c-10.5,0-20.8,0-31.3,0C57.2,85.2,57.2,100.7,57.2,116.2z M70.8,29.5
		c-10.5,0-20.9,0-31.3,0c0,4.6,0,9.1,0,13.7c4.9,0,9.6,0,14.4,0c2.5,0,2.6,0.1,3.3,2.5c1.5,0,3,0,4.4,0c0.5,0,0.9,0,1.4,0.1
		c1,0.2,1.6,1.1,1.5,2c-0.1,1-0.9,1.7-1.9,1.7c-1.8,0-3.6,0-5.5,0c0,2.1,0,4.1,0,6.2c0.9,0,1.7,0,2.5,0c1.1,0,2.3,0,3.4,0.1
		c1,0.1,1.5,0.9,1.5,1.8c0,0.9-0.7,1.7-1.7,1.9c-0.5,0.1-0.9,0-1.4,0c-1.4,0-2.9,0-4.3,0c0,2.1,0,4.1,0,6.1c4.6,0,9.1,0,13.6,0
		C70.8,53.6,70.8,41.6,70.8,29.5z M47.1,25.4c5.5,0,10.8,0,16.2,0c0-2.1,0-4.1,0-6c-5.4,0-10.8,0-16.2,0
		C47.1,21.4,47.1,23.4,47.1,25.4z M35.6,116.2c0-0.5,0-1,0-1.4c0-0.5,0-0.9,0-1.4c0.1-1.4,0.9-2.1,2-2.1c1.1,0.1,1.8,0.9,1.8,2.2
		c0,0.9,0,1.8,0,2.8c0.4,0,0.7,0,1.1,0c0-2.1,0-4.1,0-6.1c-2.1,0-4.1,0-6.1,0c0,2.1,0,4.1,0,6.1C34.9,116.2,35.2,116.2,35.6,116.2z"
		/>
</g>
</svg>
