<?xml version="1.0" encoding="utf-8"?>
<!-- Generator: Adobe Illustrator 23.0.0, SVG Export Plug-In . SVG Version: 6.00 Build 0)  -->
<svg version="1.1" id="Layer_1" xmlns="http://www.w3.org/2000/svg" xmlns:xlink="http://www.w3.org/1999/xlink" x="0px" y="0px"
	 viewBox="0 0 128 128" style="enable-background:new 0 0 128 128;" xml:space="preserve">
<style type="text/css">
	.st0{fill:#FFFFFF;stroke:#FFFFFF;stroke-width:3;stroke-miterlimit:10;}
</style>
<path class="st0" d="M28.4,48.5c0-0.4,0-0.7,0-1c0-3.5-0.1-7.1,0.1-10.6C29,21.4,40.2,7.8,55.3,4.1C75.3-0.9,95.1,11.8,99,32
	c0.4,2.3,0.5,4.6,0.6,7c0.1,2.9,0,5.8,0,8.6c0,0.3,0,0.6,0,0.9c2.3,0,4.6,0,6.8,0c2.2,0,3.3,1.1,3.3,3.3c0,20.8,0,41.6,0,62.3
	c0,4.3-1.8,7.6-5.7,9.6c-1.5,0.8-3.2,1.2-4.8,1.2c-23.5,0-47,0-70.6,0c-5.9,0-10.5-4.6-10.5-10.5c0-20.9,0-41.8,0-62.8
	c0-2.1,1.1-3.2,3.2-3.2C23.7,48.5,26,48.5,28.4,48.5z M84,48.5c0-0.4,0-0.7,0-1c0-2.9,0-5.9,0-8.8c0-1.3-0.1-2.5-0.3-3.8
	c-1.8-10.6-12.4-17.9-23-16c-9.7,1.8-16.6,9.9-16.6,19.8c0,3,0,6,0,9c0,0.3,0,0.5,0,0.8C57.4,48.5,70.6,48.5,84,48.5z M63.9,104.2
	c1.7,0,3.4,0,5.1,0c1.4,0,2.4-1.1,2.3-2.5c0-0.5-0.1-1-0.2-1.5c-0.5-4.1-0.9-8.2-1.4-12.4c-0.1-0.5,0.1-0.8,0.4-1.1
	c2.9-2.4,4.1-5.6,3.5-9.3c-0.7-4.2-4.2-7.6-8.4-8.1c-4.5-0.5-8.6,1.8-10.4,5.9c-1.7,4-0.6,8.7,2.8,11.4c0.5,0.4,0.6,0.7,0.5,1.3
	c-0.5,4.5-1,9-1.5,13.5c-0.2,1.6,0.8,2.7,2.4,2.7C60.7,104.2,62.3,104.2,63.9,104.2z"/>
</svg>
