<?xml version="1.0" encoding="utf-8"?>
<!-- Generator: Adobe Illustrator 23.0.0, SVG Export Plug-In . SVG Version: 6.00 Build 0)  -->
<svg version="1.1" id="Layer_1" xmlns="http://www.w3.org/2000/svg" xmlns:xlink="http://www.w3.org/1999/xlink" x="0px" y="0px"
	 viewBox="0 0 128 128" style="enable-background:new 0 0 128 128;" xml:space="preserve">
<style type="text/css">
	.st0{fill:#FFFFFF;stroke:#FFFFFF;stroke-width:3.3748;stroke-miterlimit:10;}
</style>
<g>
	<path class="st0" d="M4.9,74c4,1.3,8,2.5,11.9,4.1c1.8,0.7,3.2,0.6,4.8-0.3c1.1-0.7,2.4-1.2,4.3-2.2c-5-2.4-9.4-4.6-13.9-6.5
		c-2.8-1.2-5.8-2-8.7-2.9c-1.5-0.5-2.3-1.2-2-3.2c3.9,0.4,7.9,0.6,11.8,1.1c8.2,1.1,16.1,3.3,23.7,6.5c0.5,0.2,1.3,0.4,1.8,0.2
		c2.3-0.6,4.6-1.4,6.9-2.1c0.1-0.2,0.2-0.5,0.2-0.8c-4.2-1.8-8.2-3.9-12.5-5.5C23.2,58.6,12.6,57.2,2,56.2c-0.7-0.1-1.4-0.6-2-0.9
		c0.7-0.4,1.4-1.2,2-1.2C10.6,54,19.2,54,28.2,54c-0.2-0.6-0.1-1.6-0.5-1.9c-2.4-1.7-2.6-4.2-2.8-6.7c-0.5-5.7,0.7-11.1,2.6-16.4
		c0.6-1.8,1.4-3.6,2.2-5.9c3.1,7.9,5.8,15.3,4.6,23.4c-0.3,2.1-0.7,4.1-2.6,5.5c-0.5,0.4-0.5,1.5-0.8,2.3c4.4,1,8.3,1.8,12.6,2.7
		c-0.1-0.6-0.2-1.1-0.3-1.5c-1-2.1-2.6-4-3-6.2c-1.9-11,1.2-21.3,4.6-31.5c0.2,0,0.4-0.1,0.6-0.1C46.6,22.5,48,27,49,31.6
		c1.4,6,1.9,12.1,0.7,18.2c-0.4,1.9-1.7,3.6-2.5,5.3c-0.4,0.9-0.7,1.9-1,2.5c4.6,2.7,8.9,5.1,13.2,7.5c2.2,1.2,4.7-0.3,4.7-2.9
		c0-5,0-10.1,0-15.1c0-3.5,0-3.5-3.7-3.8c1.7-2.7,3.5-5.1,4.9-7.8c2.3-4.6,5.8-7.4,10.5-9.4c4.9-2.1,9.5-4.7,14.4-7
		c0.7-0.3,1.8-0.3,2.5,0c6.6,3.2,13.1,6.5,19.6,9.8c0.7,0.3,1.4,0.8,1.8,1.4c2.8,4.2,5.5,8.5,8.4,13.1c-1.4,0.1-2.5,0.2-3.7,0.3
		c0,7,0,13.9,0,20.9c3,0.5,6,1,9,1.5c0.1,0.3,0.1,0.5,0.2,0.8c-0.7,0.3-1.3,0.8-2,0.9c-6.2,0.3-12.4,0.3-18.6,0.7
		C77.6,70.8,50,79.1,26.3,97.9C26.2,98,26,98,25.8,98.2c-5.4-3.7-10.2-8-14.3-13.1c-0.3-0.4-0.1-1.1-0.2-1.6
		c-0.1-0.5-0.1-1.1-0.4-1.4c-1.3-1.4-2.8-2.8-4.1-4.2c-0.9-1-1.7-2.1-2.6-3.1C4.5,74.5,4.7,74.2,4.9,74z M103.2,52.7
		c-8,0-15.8,0-23.5,0c0,3.6,0,6.9,0,10.3c7.9,0,15.6,0,23.5,0C103.2,59.5,103.2,56.1,103.2,52.7z M88.9,33.2l-0.1,5.3H94v-5.3H88.9z
		"/>
	<path class="st0" d="M38.7,105.1c25.8-20.7,53.4-35.2,87.3-33.2c0.1,0.2,0.3,0.5,0.4,0.7c-0.5,0.3-0.9,0.9-1.4,1
		C102.3,77.3,84,89,68.5,105.3c-4.1,4.3-7.9,5.6-13.4,4.4C49.6,108.5,44.2,107.4,38.7,105.1z"/>
	<path class="st0" d="M123.1,80.3c-0.5,0.7-1,1.5-1.6,2.1c-3.8,4.1-7.5,8.4-11.7,12.2c-2.9,2.7-6.4,4.8-9.8,6.8
		c-5.8,3.5-12.1,5.8-19.3,7.4C91.7,94.1,105.6,84.6,123.1,80.3z"/>
</g>
</svg>
