<?xml version="1.0" encoding="utf-8"?>
<!-- Generator: Adobe Illustrator 23.0.0, SVG Export Plug-In . SVG Version: 6.00 Build 0)  -->
<svg version="1.1" id="Layer_1" xmlns="http://www.w3.org/2000/svg" xmlns:xlink="http://www.w3.org/1999/xlink" x="0px" y="0px"
	 viewBox="0 0 128 128" style="enable-background:new 0 0 128 128;" xml:space="preserve">
<style type="text/css">
	.st0{fill:#FFFFFF;stroke:#FFFFFF;stroke-width:3.2381;stroke-miterlimit:10;}
</style>
<g>
	<path class="st0" d="M74.4,65.5c-1.2-3-2.2-6-3.5-8.8c-1.4-2.9-1-6.1-1.3-9.3c-3.4,2.6-4.7,2.8-6.3,1.1C61.8,47,62,45,63.9,43
		c-0.5-1.2-1.1-2.3-1.3-3.5c-0.5-2.9,1.1-5.4,4.1-6.5c0.9-0.3,1.4-0.8,1.8-1.7c0.2-0.4,0.4-0.8,0.6-1.2c1.7-3.2,4.4-4.5,7.9-4
		c0.8,0.1,1.3,0,1.8-0.8c1.1-1.9,3.2-2.3,5.1-1.2c0.5,0.3,1.2,0.5,1.8,0.6c5,0.3,8.7,2.6,10.8,7.3c0.6,1.2,1.6,2.3,2.4,3.4
		c2.6,3.7,2.6,7.6,0.8,11.7c-0.3,0.6-0.5,1.2-0.6,1.8c-0.4,1.7-1.4,3-2.9,2.9c-1.6-0.1-2.2,1-2.6,2.1c-0.6,1.5-1.4,2.7-2.4,3.9
		c-0.6,0.7-0.8,1.9-1.1,2.8c0.1,0.1,0.2,0.2,0.3,0.3c8.3-3.2,16.5-6.4,24.9-9.6c-0.2-0.4-0.3-0.7-0.5-1c-4-7.2-8-14.4-12-21.7
		c-0.5-0.8-0.9-1.3-1.9-0.9c-0.6,0.2-1.2,0.2-1.8,0.3c-0.7,0.2-1.1-0.1-1.2-0.8c-0.1-0.7,0.1-1.3,1-1.3c0.9,0,1.8,0.2,2.1-1.1
		c0-0.1,1-0.1,1.6-0.1c0.5,0.1,1,0.4,1.5,0.4c2.6-0.2,5.2-0.5,7.9-0.7c0,0.6,0,0.9,0.1,1.3c0.1,0.8-0.2,1.1-1,1.1
		c-1.9,0.1-3.8,0.3-5.9,0.5c0.4,0.5,0.7,0.8,1,1.1c6.1,6.3,12.2,12.6,18.4,18.9c1,1,1.2,1.9,0.9,3.2c-1.6,6.5-3.1,13-4.5,19.6
		c-1.4,6.8-2.7,13.5-3.8,20.4c-0.3,2,0.1,4.2,0.4,6.3c0.9,7.1,1.9,14.1,2.8,21.2c0.3,2.7,0.3,5.4,0.5,8.2c0,0.6-0.1,1-0.9,1
		c-4.2,0.1-8.5,0.2-12.7,0.3c-0.2,0-0.5,0-0.9-0.1c0.3-1.2,0.7-2.4,1-3.7c-1.6,0.1-3,0.2-4.6,0.3c0.1,1.2,0.2,2.3,0.2,3.4
		c-14.4,0-28.8,0-43.3,0c0.6-4.2,1.1-8.3,1.7-12.5c-0.1,0-0.1,0-0.2,0c-0.5,1.2-0.9,2.4-1.5,3.5c-0.7,1.4-1.5,2.8-2.5,4
		c-1.4,1.7-2.9,1.7-4.5,0.2c-0.8-0.7-1.5-1.6-2.2-2.4c-3.2-4.3-6.3-8.7-9.5-13c-0.4-0.6-0.9-1.2-0.3-2c0.1-0.2,0-0.7-0.2-1
		c-1-2.1-2-4.2-3-6.3c-0.1-0.2-0.3-0.5-0.5-0.7c-3-1.8-5-4.5-6.5-7.6c0-0.1-0.2-0.2-0.4-0.4c-9.1,3.9-18.2,7.8-27.6,11.7
		c0-2.2,0-4.3,0-6.4c0-0.3,0.6-0.7,1-0.8c6.6-2.7,13.2-5.5,19.8-8.2c1.4-0.6,2.8-1.2,4.3-1.7c0.7-0.3,0.9-0.6,0.8-1.4
		c-0.1-1.7,0-1.7,1.7-1.9c0.7-0.1,1.5-0.3,2.2-0.5c0.1-1.6,0.9-2,3.3-1.6c1.3-1.6,2-1.6,3.6-0.2c0.3,0.3,1,0.4,1.3,0.3
		c11.2-4.1,22.3-8.3,33.5-12.5C74.2,65.8,74.3,65.7,74.4,65.5z M91.7,66.2c0.6,0.8,1.1,1.4,1.6,2c0.3,0.4,0.8,0.9,0.8,1.3
		c0,1.9,1.5,2.1,2.7,2.5c1.9,0.7,3.8,1.3,5.7,2.1c1.6,0.7,2.9,2,4.3,2.9c3.1,1.9,5.6,4.3,7.4,7.4c0.2,0.3,0.4,0.6,0.7,1.1
		c0.3-9.8,0.6-19.2,0.8-28.8C107.7,60,99.9,63.1,91.7,66.2z M47.9,97.7c1.8-0.6,2,1.2,2.8,1.9c0.9,0.8,1.6,1.9,2.4,2.8
		c0.1,0,0.3,0,0.4-0.1c0.9-7.9,1.9-15.8,2.9-23.9c-1.1,0.4-2,0.7-2.8,1c-0.2,0.1-0.5,0.3-0.5,0.5c-0.1,1.6-1.2,2.6-2.3,3.6
		c-1.7,1.6-2.8,3.5-3.4,5.7c-0.2,0.7-0.2,1.5-0.6,2c-2.1,2.5-0.6,4.3,0.9,6.2C47.7,97.5,47.8,97.6,47.9,97.7z M47.2,81.9
		c-1.5,0.7-3,1.4-4.6,2.1C44.4,85.3,45.3,85.6,47.2,81.9z"/>
</g>
</svg>
