<?xml version="1.0" encoding="utf-8"?>
<!-- Generator: Adobe Illustrator 23.0.0, SVG Export Plug-In . SVG Version: 6.00 Build 0)  -->
<svg version="1.1" id="Layer_1" xmlns="http://www.w3.org/2000/svg" xmlns:xlink="http://www.w3.org/1999/xlink" x="0px" y="0px"
	 viewBox="0 0 128 128" style="enable-background:new 0 0 128 128;" xml:space="preserve">
<style type="text/css">
	.st0{fill:#FFFFFF;stroke:#FFFFFF;stroke-miterlimit:10;}
</style>
<g>
	<path class="st0" d="M112.1,74.5c-2.3,3.9-4.3,7.3-6.3,10.8c-3.1,5.3-6.1,10.5-9.3,15.7c-0.5,0.8-1.7,1.8-2.6,1.8
		c-16.9,0.1-33.8,0.1-50.8,0.1c-0.2,0-0.5-0.1-1.1-0.3c4.5-5.8,8.8-11.5,13.2-17.2c2.2-2.8,4.5-5.6,6.6-8.6c1.2-1.8,2.6-2.4,4.8-2.4
		c14.2,0.1,28.3,0.1,42.5,0.1C109.9,74.5,110.8,74.5,112.1,74.5z"/>
	<path class="st0" d="M51.1,68.8c-6.9-7.3-13.1-14.7-14.9-24.7c-1.2-6.8,1.2-13,6.5-16.4c5.2-3.4,11.8-3.5,16.9,0
		c5.8,4,7.7,9.8,6.5,16.5C64.1,54.1,57.9,61.5,51.1,68.8z M56.8,38.4c0.1-3.2-2.6-5.9-5.7-5.9c-3,0-5.7,2.6-5.8,5.6
		C45.3,41.3,48,44,51.1,44C54.1,44,56.7,41.5,56.8,38.4z"/>
	<path class="st0" d="M23.6,83c5.7-7.3,11.3-14.5,17.1-21.8c2.7,3.1,5.3,6.1,8,9.1c2.4,2.6,2.5,2.6,4.9,0.1c1.6-1.7,3.4-3.2,4.5-5.2
		c2.1-3.6,5.1-4.7,8.9-4.1c0.9,0.1,1.8,0,3.3,0c-2.7,3.5-5.1,6.6-7.4,9.7c-2.8,3.7-5.6,7.3-8.5,10.9c-0.6,0.7-1.8,1.5-2.6,1.5
		c-9,0.1-18,0-27,0C24.4,83.3,24.2,83.2,23.6,83z"/>
	<path class="st0" d="M8,102.8c4.4-5.6,8.4-10.7,12.4-15.7c0.4-0.4,1-0.9,1.5-0.9c9.5-0.1,19,0,29.1,0c-4.4,5.7-8.4,10.9-12.4,16.1
		c-0.3,0.4-0.9,0.6-1.4,0.6C27.7,102.8,18.1,102.8,8,102.8z"/>
	<path class="st0" d="M66.2,71.2c2.4-3.1,4.6-6.1,6.9-8.9c0.5-0.6,1.5-1.1,2.3-1.1c14.7-0.1,29.4-0.1,44.7-0.1
		c-2.1,3.5-3.9,6.6-5.8,9.7c-0.3,0.5-1.3,0.7-1.9,0.7c-15.1,0-30.2,0-45.3,0C66.9,71.5,66.7,71.4,66.2,71.2z"/>
</g>
</svg>
