<?xml version="1.0" encoding="utf-8"?>
<!-- Generator: Adobe Illustrator 23.0.0, SVG Export Plug-In . SVG Version: 6.00 Build 0)  -->
<svg version="1.1" id="Layer_1" xmlns="http://www.w3.org/2000/svg" xmlns:xlink="http://www.w3.org/1999/xlink" x="0px" y="0px"
	 viewBox="0 0 128 128" style="enable-background:new 0 0 128 128;" xml:space="preserve">
<style type="text/css">
	.st0{fill:#FFFFFF;stroke:#FFFFFF;stroke-width:3;stroke-miterlimit:10;}
	.st1{fill:#FFFFFF;stroke:#FFFFFF;stroke-width:2;stroke-miterlimit:10;}
</style>
<g>
	<path class="st0" d="M105.2,88.9c-0.9,0.3-1.8,0.6-2.7,0.9c-1.6,0.6-3.3,1.2-4.9,1.7c-1.5,0.5-3-0.3-3.4-1.6
		c-0.5-1.5,0.1-2.9,1.7-3.4c5.2-1.8,10.3-3.7,15.5-5.4c2.1-0.7,3.6,0.4,3.8,2.6c0.5,4.7,1.1,9.3,1.7,14c0.1,0.5,0.1,1,0,1.5
		c-0.3,1.3-1.3,2.2-2.6,2.2c-1.2,0-2.3-0.9-2.6-2.2c-0.3-1.5-0.4-3-0.6-4.5c-0.2-1.1-0.3-2.3-0.5-3.7c-0.5,0.6-0.8,1.1-1.1,1.5
		c-4.9,7.1-11.1,12.8-18.7,16.9c-5.7,3.1-11.7,5-18,5.9c-2.9,0.4-5.8,0.7-8.7,0.7c-10.3,0.1-19.9-2.6-28.5-8.2
		c-8.6-5.6-15.6-12.7-20.1-22c-0.2-0.5-0.5-1-0.6-1.5c-0.4-1.3,0.1-2.4,1.3-3c1.2-0.6,2.4-0.4,3.3,0.7c0.5,0.6,0.9,1.4,1.2,2.1
		c7.5,14.1,19.1,23.1,34.8,25.8c17.4,3,32.8-1.7,45.1-14.7c1.6-1.7,3-3.6,4.4-5.5c0.2-0.2,0.3-0.4,0.4-0.6
		C105.3,89.1,105.2,89,105.2,88.9z"/>
	<path class="st0" d="M18.1,37.2c1.4-1.8,2.6-3.6,3.9-5.2c8.4-10.3,19.3-16.6,32.3-19.1c4.3-0.9,8.7-1.2,13-0.9
		c11.1,0.7,21.2,4.4,30.1,11.1c6.7,5,11.9,11.3,15.7,18.8c0.2,0.5,0.4,0.9,0.6,1.4c0.3,1.1-0.1,2.1-1.1,2.8c-1,0.7-2.1,0.7-3-0.1
		c-0.5-0.5-0.9-1.1-1.2-1.7c-4.4-8.6-10.7-15.5-19.1-20.4c-5.9-3.4-12.3-5.6-19.1-6.3c-11.5-1.2-22.3,1.1-32.2,7.2
		c-5.8,3.6-10.5,8.4-14.3,14c-0.1,0.1-0.1,0.3-0.3,0.6c0.4-0.1,0.7-0.1,0.9-0.2c1.9-0.6,3.7-1.3,5.6-1.9c0.6-0.2,1.3-0.3,1.9-0.3
		c1.9,0.1,3,2.3,1.8,3.8c-0.5,0.7-1.3,1.2-2,1.5c-4.4,1.6-8.8,3.1-13.2,4.6c-2.4,0.8-3.7,0.1-4.2-2.4c-1-4.7-2-9.3-2.9-14
		c-0.3-1.5,0.6-2.9,2.1-3.3c1.4-0.3,2.8,0.6,3.1,2.1c0.5,2.4,1,4.8,1.5,7.2C18,36.7,18,36.8,18.1,37.2z"/>
	<path class="st0" d="M90.5,64C90.7,77.5,78.8,90.1,64,89.8c-13.5-0.3-25.5-11.1-25.4-26c0.1-14.5,12.6-25.6,26-25.5
		C78.6,38.4,90.7,50.3,90.5,64z M85.2,64.1c-0.1-11.6-8.7-20.3-20.9-20.4c-12.1-0.1-20.3,9.9-20.4,20c-0.2,11.2,8.3,20.9,20.8,20.8
		C76.6,84.4,85.2,75.2,85.2,64.1z"/>
	<path class="st1" d="M66,79.9c-0.5-0.5-0.9-1-1.4-1.6c-3-3.6-6.1-7.2-9.4-10.7c-0.2-0.2-0.3-0.5-0.3-0.8c0-0.8,0-1.6,0-2.4
		c0-0.6,0.3-0.8,0.8-0.8c1.2,0,2.3,0,3.5-0.1c1.4-0.1,2.8-0.4,3.9-1.3c0.7-0.5,1.2-1.3,1.5-2.2c-0.1,0-0.3,0-0.4,0
		c-2.8,0-5.6,0-8.4,0c-0.1,0-0.3,0-0.4,0c-0.3,0-0.5-0.3-0.5-0.5c0-0.8,0-1.6,0-2.4c0-0.3,0.2-0.5,0.5-0.5c0.1,0,0.3,0,0.4,0
		c2.7,0,5.4,0,8,0c0.1,0,0.2,0,0.4,0c-0.3-0.3-0.4-0.6-0.7-0.8c-0.7-0.7-1.6-1.1-2.6-1.3c-0.9-0.1-1.7-0.2-2.6-0.3
		c-0.9,0-1.8,0-2.8,0c-0.6,0-0.9-0.3-0.9-0.9c0-0.8,0-1.7,0-2.5c0-0.6,0.2-0.8,0.9-0.8c5.8,0,11.6,0,17.3,0c0.6,0,0.9,0.2,0.9,0.9
		c0,0.6,0,1.2,0,1.8c0,0.7-0.2,0.9-0.9,0.9c-1.4,0-2.9,0-4.4,0c-0.1,0-0.2,0-0.3,0c0.2,0.3,0.4,0.5,0.5,0.8c0.3,0.6,0.5,1.3,0.7,1.9
		c0.1,0.2,0.2,0.3,0.4,0.3c1,0,2.1,0,3.1,0c0.7,0,0.9,0.2,0.9,0.9c0,0.6,0,1.2,0,1.8c0,0.6-0.2,0.8-0.8,0.8c-1.1,0-2.1,0-3.2,0
		c-0.2,0-0.3,0-0.3,0.3c-0.6,3.2-2.5,5.2-5.5,6.3c-1,0.4-2,0.6-3,0.8c0,0,0.1,0.1,0.2,0.2c3.1,3.4,6.1,7,9,10.5
		c0.1,0.1,0.2,0.3,0.3,0.4c0.4,0.4,0.3,0.9-0.2,1.3C69.1,79.9,67.6,79.9,66,79.9z"/>
</g>
</svg>
