<?xml version="1.0" encoding="utf-8"?>
<!-- Generator: Adobe Illustrator 23.0.0, SVG Export Plug-In . SVG Version: 6.00 Build 0)  -->
<svg version="1.1" id="Layer_1" xmlns="http://www.w3.org/2000/svg" xmlns:xlink="http://www.w3.org/1999/xlink" x="0px" y="0px"
	 viewBox="0 0 128 128" style="enable-background:new 0 0 128 128;" xml:space="preserve">
<style type="text/css">
	.st0{display:none;fill:#F40C0C;}
	.st1{display:none;opacity:0.85;fill:#5B0303;stroke:#000000;stroke-miterlimit:10;enable-background:new    ;}
	.st2{fill:none;stroke:#FFFFFF;stroke-width:4.4364;stroke-miterlimit:10;}
</style>
<rect class="st0" width="128" height="128"/>
<rect x="-7.5" y="-9.5" class="st1" width="165" height="149"/>
<g>
	<g>
		<g>
			<path class="st2" d="M11.5,68.1c-1.4,0-2.6,1.1-2.6,2.6v0.6c0,1.4,1.1,2.6,2.6,2.6h2.4c-0.6-1.9-0.9-3.8-1-5.8h-1.4V68.1z"/>
			<path class="st2" d="M61.5,68.1h-1c-0.1,2-0.4,3.9-1,5.8h2c1.4,0,2.6-1.1,2.6-2.6v-0.6C64.1,69.4,63,68.1,61.5,68.1z"/>
			<path class="st2" d="M59.5,73.9H14"/>
			<path class="st2" d="M60.3,70.3c0.2-2,0.2-2.3,0.2-2.7c0-13.1-10.6-23.7-23.7-23.7S13,54.6,13,67.8"/>
		</g>
		<polyline class="st2" points="32.5,44.5 32.5,36.6 42.1,36.6 42.1,44.6 		"/>
	</g>
	<g>
		<path class="st2" d="M77,53.6v7.9c0,11.3,9.2,20.4,20.4,20.4l0,0c11.3,0,20.4-9.2,20.4-20.4v-7.9"/>
		<circle class="st2" cx="33.7" cy="67.1" r="6.7"/>
		<circle class="st2" cx="33.7" cy="67.1" r="5.3"/>
		<path class="st2" d="M106.7,19.6h4.4c3.8,0,6.8,3,6.8,6.8v27.3"/>
		<path class="st2" d="M102.8,17.5h1.8c1.1,0,2,0.9,2,2.1l0,0c0,1.1-0.9,2.1-2,2.1h-1.8c-1.1,0-2-0.9-2-2.1l0,0
			C100.8,18.5,101.7,17.5,102.8,17.5z"/>
		<path class="st2" d="M88.2,19.6h-4.4c-3.8,0-6.8,3-6.8,6.8v27.3"/>
		<path class="st2" d="M92.9,18l-1.7-0.7c-1-0.4-2.2,0-2.7,1.1l0,0c-0.4,1,0.1,2.2,1.1,2.7l1.7,0.7c1,0.4,2.2,0,2.7-1.1l0,0
			C94.5,19.7,93.9,18.5,92.9,18z"/>
	</g>
	<g>
		<path class="st2" d="M97.3,91.3h0.3c2.4,0,4.4-2,4.4-4.4l0,0c0-2.4-2-4.4-4.4-4.4h-0.3c-2.4,0-4.4,2-4.4,4.4l0,0
			C92.9,89.3,94.9,91.3,97.3,91.3z"/>
	</g>
	<path class="st2" d="M40.8,66.9c0,0,11.9,0,7.3,9.1c-17.7,38.5,55.7,45.4,49.6,15.5"/>
</g>
</svg>
