<?xml version="1.0" encoding="utf-8"?>
<!-- Generator: Adobe Illustrator 23.0.0, SVG Export Plug-In . SVG Version: 6.00 Build 0)  -->
<svg version="1.1" id="Layer_1" xmlns="http://www.w3.org/2000/svg" xmlns:xlink="http://www.w3.org/1999/xlink" x="0px" y="0px"
	 viewBox="0 0 128 128" style="enable-background:new 0 0 128 128;" xml:space="preserve">
<style type="text/css">
	.st0{fill-rule:evenodd;clip-rule:evenodd;fill:#FFFFFF;}
	.st1{fill:#FFFFFF;}
	.st2{fill:none;stroke:#FFFFFF;stroke-width:2;stroke-miterlimit:10;}
</style>
<path class="st0" d="M111.4,24.3c3.7,4.6,5.9,10.5,5.9,16.8c0,6.4-2.2,12.3-5.9,16.8v-1.2c3.3-4.4,5.2-9.8,5.2-15.6
	s-1.9-11.2-5.2-15.6V24.3L111.4,24.3z M111.4,50.6L111.4,50.6l0.3,0.2l0.9-0.5l-1.2-0.5L111.4,50.6L111.4,50.6z M111.4,48.3
	L111.4,48.3c0.8,0.1,1.8-0.7,1.9-1.8l-0.7,0.1c-0.3,0.7-0.7,1.2-1.2,1L111.4,48.3L111.4,48.3z M111.4,45.9L111.4,45.9L111.4,45.9
	l0.3,0.2l0.7-0.6c-1-1.4-0.9-2.7-0.3-2.8c0.7-0.1,1.2,1,1.1,2l0.8-0.5c-0.3-1.2-1-2-1.9-2c-0.2,0-0.4,0.1-0.6,0.2L111.4,45.9
	L111.4,45.9z M111.4,41.1L111.4,41.1h2.2l0.5-0.8h-2.7V41.1L111.4,41.1z M111.4,38L111.4,38h1.4l0.4-0.9l-1.8,0.1V38L111.4,38z
	 M111.4,36.2L111.4,36.2h1.4l0.4-0.8h-1.8V36.2L111.4,36.2z M107,19.9v1c1.6,1.3,3.2,2.9,4.4,4.6v-1.2
	C110.1,22.7,108.7,21.2,107,19.9L107,19.9L107,19.9z M111.4,58v-1.2c-1.2,1.7-2.8,3.3-4.4,4.7v1C108.7,61.1,110.1,59.6,111.4,58
	L111.4,58L111.4,58z M111.4,35.4h-1.2l-0.5,0.8h1.7V35.4L111.4,35.4L111.4,35.4z M111.4,37.2h-1.2l-0.6,0.8h1.8L111.4,37.2
	L111.4,37.2L111.4,37.2z M111.4,40.4h-1.1c0-0.2,0-0.5,0-0.8h-0.6c0.1,0.6,0.1,1,0.1,1.5c0.1,3.8-1,7.4-2.9,10.4v0.8
	c0.2-0.3,0.4-0.6,0.6-1c0.6-0.2,1.3-0.3,1.7,0.1c1.2,1,0.2,2.2-0.4,2.3c-0.8,0.2-0.7-0.7,0.1-1.2c-0.2-0.2-0.3-0.4-0.4-0.6
	c-1.2,0.8-1.3,2-0.1,2.5c0.8,0.4,1.9-0.4,2.1-1.3c0.5-2.1-1.4-2.7-2.7-2.4c0.3-0.4,0.5-0.9,0.7-1.2l2.8,1.2v-0.8l-2.5-1
	c0.6-1.5,1.1-3.1,1.3-4.7h0.9l0.2,0.8c-0.7,0.9-1.1,1.8-0.7,2.7c0.2,0.5,0.5,0.7,0.9,0.8v-0.8h-0.1c-0.5-0.3-0.4-0.9,0.1-1.6v-3.4
	c-0.3,0.2-0.5,0.5-0.5,0.9h-0.7c0.1-0.7,0.2-1.4,0.2-2.2h1V40.4L111.4,40.4L111.4,40.4z M107,59.6v-0.7h0.5v0.7H107L107,59.6
	L107,59.6z M107,56.3L107,56.3v-1.2c0.3,0,0.6,0.2,0.6,0.6C107.6,56,107.3,56.3,107,56.3L107,56.3z M107,47v-3.3
	c0.1-0.8,0.2-1.7,0.2-2.6s-0.1-1.7-0.2-2.6v-3.3c0.7,1.8,1,3.8,1,5.8S107.7,45.2,107,47L107,47L107,47z M107,33.9L107,33.9v-0.8
	c0.1,0.6,0.7,0.8,1.7,0.8v0.4C108,34.3,107.4,34.2,107,33.9L107,33.9z M107,32.8L107,32.8v-2.1l2.1-3.6l-2.1,0.4V27l3.8-0.7
	l-3.4,5.5C107.2,32.2,107,32.5,107,32.8L107,32.8z M107,23.5v-1c0.2,0,0.4-0.1,0.6-0.2L107,23.5L107,23.5L107,23.5z M101,16.3
	L101,16.3c2.1,1,4.2,2.2,6,3.6v1c-1.8-1.5-3.9-2.8-6-3.8V16.3L101,16.3z M107,62.4L107,62.4c-1.8,1.4-3.9,2.7-6,3.6v-0.9
	c2.1-1,4.2-2.3,6-3.7V62.4L107,62.4z M107,22.6L107,22.6v1l-1.8,3.7L107,27v0.5l-3.2,0.5l2.1-4.5c-1.4,0.8-3.3,1.5-5,1.6v-0.5
	C102.9,24.5,105.1,23.4,107,22.6L107,22.6z M107,30.7l-0.5,0.8c-0.5,0.9-0.3,1.8,0.5,2.4v-0.8c0-0.1,0-0.2,0-0.3V30.7L107,30.7
	L107,30.7z M107,35.3L107,35.3c-1.2-3.3-3.3-6.2-6-8.2v1c3.2,2.6,5.4,6.3,6,10.5V35.3L107,35.3z M107,43.7L107,43.7V47
	c-1.2,3.3-3.3,6.2-6,8.3v-1C104.2,51.7,106.4,47.9,107,43.7L107,43.7z M107,51.6v0.8c-0.7,1-1.4,2-2.3,2.9l0.9,1.2
	c-0.5,0.4-1.1,0.8-1.5,1.2c-0.5,0.3-0.1,1,0.6,0.4c0.6-0.6,1.2-1.2,1.8-0.8c0.7,0.4,0.5,1.2-0.1,1.8h0.7v0.7l-1.3,0.2l-0.3,0.7
	l-0.6-0.1l0.3-0.7l-1.1,0.2v-0.4c0.8-0.2,1.3-0.5,1.7-1c0.4-0.6-0.2-0.9-0.7-0.3c-0.5,0.5-1.6,1-2,0.7c-0.8-0.7,0-1.8,1.4-2.4
	L104,56c-1,0.9-2,1.7-3.2,2.4v-0.6C103.4,56.1,105.5,54,107,51.6L107,51.6L107,51.6z M107,55.1L107,55.1c-0.4,0-0.6,0.2-0.6,0.6
	c0,0.3,0.2,0.6,0.6,0.6V55.1L107,55.1z M101,60.7L101,60.7l0.6,1.2h0.9L101,59V60.7L101,60.7z M101,50.6L101,50.6v-0.7h1.5V33.1H101
	v-0.8h2.2v18.3H101L101,50.6z M101,48.5L101,48.5c0.3-0.3,0.5-0.7,0.5-1s-0.2-0.8-0.5-1V48.5L101,48.5z M101,46.2L101,46.2
	c0.1-0.1,0.3-0.4,0.3-0.8c0-0.3-0.1-0.6-0.3-0.9V46.2L101,46.2z M101,42L101,42v-5.5h0.3l0.5,1h-0.7v4.7L101,42L101,42z M101,35.9
	L101,35.9v-1.2c0.3,0,0.6,0.3,0.6,0.7C101.6,35.6,101.3,35.9,101,35.9L101,35.9z M99.4,15.7v0.8c0.5,0.3,1.1,0.5,1.6,0.7v-0.9
	C100.4,16.1,99.9,15.9,99.4,15.7L99.4,15.7L99.4,15.7z M101,66v-0.9c-0.6,0.2-1.2,0.5-1.6,0.7v0.9C99.9,66.4,100.4,66.2,101,66
	L101,66L101,66z M101,24.6c-0.6,0-1.2,0-1.6-0.2v0.5c0.5,0.2,1,0.2,1.6,0.2V24.6L101,24.6L101,24.6z M101,27.1
	c-0.6-0.5-1.2-0.8-1.6-1.1v1c0.6,0.4,1.1,0.8,1.6,1.1V27.1L101,27.1L101,27.1z M101,32.3L101,32.3v0.8h-1.6v-0.8H101L101,32.3z
	 M101,34.6L101,34.6v1.2c-0.4,0-0.7-0.3-0.7-0.6S100.6,34.6,101,34.6L101,34.6z M101,36.5V42l-0.9-0.5v-1.3
	c-0.2,0.2-0.5,0.4-0.8,0.5v-1.3l0.3,0.5c0.2-0.1,0.4-0.3,0.5-0.4V39c-0.1,0-0.1,0-0.1,0c-0.1-0.2-0.4-0.3-0.7-0.3v-0.6
	c0.3,0.1,0.6,0.3,0.8,0.6v-1.1h-0.8V36c0.1,0.2,0.3,0.3,0.5,0.5h0.3c-0.3-0.3-0.6-0.7-0.8-1v-0.8c0.5,0.6,0.8,1.2,1.3,1.7L101,36.5
	L101,36.5L101,36.5z M101,44.6c-0.3-0.2-0.6-0.4-1.2-0.4h-0.5v0.9h0.3c0.4,0,0.7,0.1,0.7,0.5S100,46,99.7,46h-0.3v0.8h0.4
	c0.4,0,0.7,0.2,0.7,0.6c0,0.5-0.2,0.8-0.7,0.8h-0.4V49h0.2c0.9,0,1.2-0.1,1.4-0.4v-2c-0.1-0.1-0.2-0.1-0.3-0.1
	c0.1-0.1,0.2-0.1,0.3-0.2L101,44.6L101,44.6L101,44.6z M101,49.9h-1.6v0.7h1.6V49.9L101,49.9L101,49.9z M101,54.3
	c-0.6,0.5-1.1,0.9-1.6,1.2v1c0.5-0.3,1.1-0.7,1.6-1V54.3L101,54.3L101,54.3z M101,57.6c-0.6,0.4-1.2,0.7-1.6,1v0.6
	c0.2-0.1,0.4-0.2,0.6-0.3l0.5,0.8l-1.1,0.6V61l1.3-0.7l0.3,0.4V59l-0.4-0.7c0.1,0,0.2-0.1,0.4-0.2L101,57.6L101,57.6L101,57.6z
	 M99,15.5L99,15.5c0.1,0.1,0.2,0.1,0.4,0.2v0.8c-0.2,0-0.3,0-0.4-0.1V15.5L99,15.5z M99.4,66.7L99.4,66.7c-0.2,0-0.3,0-0.4,0.1v-0.9
	c0.1,0,0.2-0.1,0.4-0.1V66.7L99.4,66.7z M99.4,24.4L99.4,24.4v0.5c-0.2,0-0.3-0.1-0.4-0.1v-0.5C99.1,24.3,99.2,24.4,99.4,24.4
	L99.4,24.4z M99.4,25.9L99.4,25.9v1c-0.1-0.1-0.3-0.2-0.4-0.2v-1C99.1,25.8,99.2,25.8,99.4,25.9L99.4,25.9z M99.4,32.3H99v0.8h0.4
	V32.3L99.4,32.3L99.4,32.3z M99.4,34.7c-0.1-0.1-0.3-0.2-0.4-0.3v0.7c0.1,0.1,0.3,0.2,0.4,0.4V34.7L99.4,34.7L99.4,34.7z M99.4,36
	c-0.2-0.1-0.3-0.2-0.4-0.3v0.8h0.1H99v1h0.4V36L99.4,36L99.4,36z M99.4,38.1c-0.1,0-0.3,0-0.4,0v0.7c0.1,0,0.3-0.1,0.4-0.1V38.1
	L99.4,38.1L99.4,38.1z M99.4,39.3L99,38.8v1l0.1,0.1H99v0.7c0.1,0,0.3,0,0.4,0V39.3L99.4,39.3L99.4,39.3z M99.4,44.2L99.4,44.2v0.9
	H99v-0.9H99.4L99.4,44.2z M99.4,46L99.4,46v0.8H99V46H99.4L99.4,46z M99.4,48.1L99.4,48.1v0.8H99v-0.8H99.4L99.4,48.1z M99.4,49.9
	L99.4,49.9v0.7H99v-0.7H99.4L99.4,49.9z M99.4,55.4L99.4,55.4v1c-0.2,0.1-0.3,0.1-0.4,0.2v-1C99.1,55.6,99.3,55.5,99.4,55.4
	L99.4,55.4z M99.4,58.6L99.4,58.6v0.6c-0.1,0.1-0.3,0.1-0.4,0.2v-0.6C99.1,58.7,99.3,58.7,99.4,58.6L99.4,58.6z M99.4,60.2
	L99.4,60.2V61h-0.2c0.2,0.8,0.1,1.4-0.2,1.9v-2.7H99.4L99.4,60.2z M98.5,15.4v0.9c0.2,0,0.4,0.1,0.5,0.1v-0.9
	C98.9,15.5,98.7,15.4,98.5,15.4L98.5,15.4L98.5,15.4z M99,66.8v-0.9c-0.1,0.1-0.3,0.1-0.5,0.2v0.8C98.7,66.9,98.9,66.8,99,66.8
	L99,66.8L99,66.8z M99,24.3c-0.1-0.1-0.3-0.1-0.5-0.2v0.4c0.2,0.1,0.3,0.2,0.5,0.3V24.3L99,24.3L99,24.3z M99,25.7
	c-0.1-0.1-0.3-0.2-0.5-0.3v1c0.2,0.1,0.4,0.2,0.5,0.3V25.7L99,25.7L99,25.7z M99,32.3L99,32.3v0.8h-0.5v-0.8H99L99,32.3z M99,34.4
	L99,34.4v0.7c-0.1-0.2-0.2-0.3-0.3-0.4c-0.1,0-0.1-0.1-0.2-0.1V34c0.1,0,0.1,0.1,0.1,0.1C98.8,34.3,98.9,34.3,99,34.4L99,34.4z
	 M99,35.7L99,35.7v0.8l-0.5-0.4v-0.7C98.7,35.5,98.9,35.6,99,35.7L99,35.7z M99,36.5L99,36.5v1h-0.5v-1H99L99,36.5z M99,38.1
	L99,38.1v0.7v0.1v1l-0.5-0.7V38c0.1,0,0.2,0,0.3,0C98.9,38.1,98.9,38.1,99,38.1L99,38.1z M99,40L99,40v0.7c-0.2,0-0.3,0-0.5-0.1V40
	C98.7,40,98.8,40,99,40L99,40z M99,44.2h-0.5v0.9H99V44.2L99,44.2L99,44.2z M99,46h-0.5v0.8H99V46L99,46L99,46z M99,48.1h-0.5v0.8
	H99V48.1L99,48.1L99,48.1z M99,49.9h-0.5v0.7H99V49.9L99,49.9L99,49.9z M99,55.6c-0.1,0.1-0.3,0.2-0.5,0.3v1
	c0.2-0.1,0.4-0.2,0.5-0.3V55.6L99,55.6L99,55.6z M99,58.7c-0.1,0-0.3,0.1-0.5,0.2v0.6c0.2-0.1,0.4-0.2,0.5-0.2V58.7L99,58.7L99,58.7
	z M99,60.3l-0.2,0.1l-0.3-0.7v3.7c0.2-0.1,0.4-0.3,0.5-0.5V60.3L99,60.3L99,60.3z M97.8,15.2L97.8,15.2c0.2,0,0.5,0.1,0.7,0.2v0.9
	c-0.2-0.1-0.5-0.2-0.7-0.3V15.2L97.8,15.2z M98.5,66.9L98.5,66.9c-0.2,0.1-0.5,0.2-0.7,0.3v-0.9c0.2-0.1,0.5-0.1,0.7-0.2V66.9
	L98.5,66.9z M98.5,24.1L98.5,24.1v0.4c0,0,0,0,0-0.1V24C98.5,24,98.5,24,98.5,24.1L98.5,24.1z M98.5,25.5L98.5,25.5v1
	c-0.2-0.2-0.5-0.3-0.7-0.4v-0.9C98,25.3,98.3,25.4,98.5,25.5L98.5,25.5z M98.5,32.3h-0.7v0.8h0.7V32.3L98.5,32.3L98.5,32.3z
	 M98.5,34.1c-0.2-0.1-0.5-0.2-0.7-0.3v0.7h0.1c0.2,0,0.4,0.1,0.6,0.2V34.1L98.5,34.1L98.5,34.1z M98.5,35.4
	C98.5,35.3,98.4,35.3,98.5,35.4C98.2,35.1,98,35,97.8,35v0.7h0.1l0.6,0.4V35.4L98.5,35.4L98.5,35.4z M98.5,36.5h-0.7v1h0.7V36.5
	L98.5,36.5L98.5,36.5z M98.5,38.1c-0.3,0-0.5,0.1-0.7,0.3v1.9c0.2,0.1,0.4,0.3,0.7,0.3V40c-0.2,0-0.3-0.1-0.4-0.2
	c-0.2-0.3-0.1-0.6,0.3-0.9l0.1,0.3V38.1L98.5,38.1L98.5,38.1z M98.5,44.2L98.5,44.2v0.9v1v0.8v1.3V49h-0.7v-4.7L98.5,44.2L98.5,44.2
	z M98.5,49.9L98.5,49.9v0.7h-0.7v-0.7H98.5L98.5,49.9z M98.5,55.9L98.5,55.9v1c-0.2,0.1-0.5,0.2-0.7,0.4v-1
	C98,56.2,98.3,56.1,98.5,55.9L98.5,55.9z M98.5,58.9L98.5,58.9v0.6c0,0,0,0-0.1,0l0.1,0.2v3.7c-0.2,0.1-0.5,0.1-0.7,0.1V63
	c0.6,0.1,0.9-0.8,0.5-1.6c-0.2,0-0.4,0.1-0.5,0.1v-0.8c0.1-0.1,0.1-0.1,0.2-0.2L97.8,60v-0.9C98,59.1,98.3,59,98.5,58.9L98.5,58.9z
	 M90.3,14.1V15c2.6,0,5.2,0.4,7.6,1.1v-0.8C95.4,14.4,92.9,14.1,90.3,14.1L90.3,14.1L90.3,14.1z M97.8,67.2v-0.9
	c-2.4,0.8-5,1.2-7.6,1.2v0.8C92.9,68.2,95.4,67.8,97.8,67.2L97.8,67.2L97.8,67.2z M97.8,25.2c-2.3-1.1-4.9-1.7-7.6-1.7v0.8
	c2.7,0,5.3,0.7,7.6,1.8V25.2L97.8,25.2L97.8,25.2z M97.8,32.3L97.8,32.3h-2.3v17.6h-1.2v-1h-0.9L93,48.3v-2c0.3-0.4,0.5-0.2,0.9-1
	l0.2-0.6c0.2-0.1,0.3-0.5,0.3-0.9h-0.8c0,0.8-0.7,1-1.1,1v-1.4c0.3-0.1,0.5-0.1,0.9-0.6l0.3-0.5c0.2-0.1,0.3-0.2,0.4-0.4v-0.4h-1
	L93,42.2h-1.1v-1c0.5-0.3,1.2-0.6,1.3-1.2c0.1,0,0.5-0.3,0.6-0.3v-0.6H93l-0.3,0.5c-0.2,0.4-1.1,0.3-1,0.3v-1c0.5-0.2,1-0.5,1.2-0.9
	l0.5-0.2V37h-0.9c0,0.3-0.2,0.6-0.5,0.8c-0.2,0-0.3,0-0.5,0v-1c0.5-0.3,1.1-0.5,1.2-1.2l0.5-0.2v-0.6h-0.9c0,0.2-0.3,0.5-0.4,0.7
	h-0.5V35c0.5-0.3,0.8-0.7,0.9-1.2l0.6-0.1V33H92c-0.2,0.9-0.6,0.9-0.8,0.8V33c0.5-0.3,0.5-0.4,1-0.9c0.4-0.2,0.7-1,0.3-1h-0.4
	c-0.3,0-0.3,0.5-0.5,0.7c-0.1,0-0.4,0.1-0.6,0.1V31c0.5-0.1,1.1-0.5,1.2-1h0.3c0-0.1,0-0.3,0.1-0.5c-0.3,0-0.6,0-0.8,0
	c-0.1,0.4-0.4,0.6-0.7,0.7c-0.4-0.3-0.5-0.3-0.6-0.8c0-0.7,0.7-1.3,0.2-2l0.2-0.4c0-0.8-0.3-0.9-0.6-1.1v24.8h7.6V50h-1.7V33.1h1.7
	L97.8,32.3L97.8,32.3z M97.8,33.8L97.8,33.8v0.7h-0.6l-0.4-0.7H97.8L97.8,33.8z M97.8,35L97.8,35v0.7h-0.5l-0.5-0.8
	c0.3,0,0.5,0,0.8,0C97.7,34.9,97.7,34.9,97.8,35L97.8,35z M97.8,36.5L97.8,36.5v1h-0.5l-0.4-1H97.8L97.8,36.5z M97.8,38.4L97.8,38.4
	v1.9c-0.3-0.3-0.5-0.6-0.5-1S97.5,38.6,97.8,38.4L97.8,38.4z M97.8,44.2h-0.2v4.7h0.2V44.2L97.8,44.2L97.8,44.2z M97.8,56.3
	c-2.3,1.2-4.9,1.8-7.6,1.8v0.8c2.7,0,5.3-0.6,7.6-1.6V56.3L97.8,56.3L97.8,56.3z M97.8,59.2c-2.4,1-4.9,1.5-7.6,1.5v3.9l0.5,0.4
	v-1.6c0.4-0.2,0.7-0.3,1-0.5c0.7-0.5,1.8-0.9,2.1-0.2c0.2,0.6-0.9,1-1.7,0.8c-0.1,0.3-0.2,0.6-0.3,0.8c0.8,0.1,2,0.2,2.4-0.7
	c0.4-1,0.1-1.8-1.2-1.8c-0.7-0.1-1.4,0.3-2.2,0.7v-1.2c2.5,0,4.8-0.5,7-1.3l0.1,0.2v-1L97.8,59.2L97.8,59.2z M97.8,60.8L97.8,60.8
	c-1.7,0.8-1.5,2.2-0.5,2.7c0.1,0,0.3,0.1,0.5,0.1v-0.5c-0.1,0-0.3-0.1-0.4-0.1c-0.6-0.4-0.5-1,0.4-1.4V60.8L97.8,60.8z M90.3,20.4
	v-0.8l2.3-3.8l1.9,6.2c0.5,1.5,1.3,1.6,2.4,0.3l0.3,0.3c-1.2,1.7-3.1,1.2-3.5-0.2l-1.5-4.8L90.3,20.4L90.3,20.4L90.3,20.4z
	 M90.3,68.2L90.3,68.2c-3.2,0-6.3-0.6-9.2-1.6v-0.9c2.9,1.1,6,1.7,9.2,1.7V68.2L90.3,68.2z M81.1,15.7L81.1,15.7
	c2.9-1.1,6-1.6,9.2-1.6V15c-3.2,0-6.3,0.6-9.2,1.6V15.7L81.1,15.7z M90.3,19.6v0.8l-1.1,1.7l-1.9-4.5c-0.7,2.6-2.1,6-4.2,6.3
	l-0.3-0.2c2.9-1,3.6-5.1,4.7-8l2.1,5L90.3,19.6L90.3,19.6L90.3,19.6z M90.3,23.4L90.3,23.4v0.8c-3.3,0-6.5,1-9.2,2.8v-1
	C83.8,24.4,86.9,23.4,90.3,23.4L90.3,23.4z M90.3,25.8v24.8h-9.2v-0.7h3.3V33.1h-3.3v-0.8H85v17.6h1.2v-1H87l0.5-0.7v-2
	c-0.5-0.3-0.9-0.7-1.1-1.5L86,44.6V44h0.7c0.1,0.7,0.6,1,0.9,1v-1.4c-0.4,0-0.7-0.3-0.9-0.9l-0.1-0.3c-0.2,0-0.4-0.1-0.5-0.3v-0.4h1
	l0.1,0.7h0.5l0.1-1c-0.5-0.4-0.9-0.9-1.2-1.4c-0.1,0-0.2-0.1-0.3-0.1c0-0.2,0-0.4,0-0.6H87v0.5c0,0.4,0.9,0.3,0.9,0.3l-0.1-1
	c-0.4-0.1-0.8-0.6-1.1-1L86.4,38v-0.6h0.9c0,0.2,0.1,0.4,0.4,0.6c0.1,0,0.3,0,0.5,0v-1c-0.6-0.3-1-0.7-1.1-1.3h-0.4v-0.6h0.9
	c0,0.2,0.1,0.5,0.3,0.7l0.4-0.1V35c-0.5-0.3-0.9-0.7-0.9-1.2l-0.5-0.1V33h0.7c0.2,0.9,0.7,0.9,1,0.8V33c-0.5-0.2-0.9-0.4-1-0.9
	c-0.4-0.2-0.8-0.9-0.4-0.9h0.4c0.3,0,0.4,0.5,0.6,0.8c0.1,0,0.3,0,0.4,0v-0.9c-0.5,0-0.9-0.6-1-1.1h-0.3c-0.1-0.1-0.1-0.3-0.1-0.5
	c0.3,0,0.5,0,0.8,0c0.1,0.4,0.4,0.6,0.7,0.7l0.2-0.3c0-0.2,0-0.4,0-0.6c-0.2-0.8-0.6-1.3,0.2-1.9l-0.3-0.8c-0.2-1.5,0.5-1,1.1-1.5
	c0.1-0.2,0.4-0.1,0.5,0.1C90.1,25.5,90.2,25.7,90.3,25.8L90.3,25.8L90.3,25.8z M90.3,58.1L90.3,58.1v0.8c-3.3,0-6.5-1-9.2-2.6v-0.9
	C83.8,57,86.9,58.1,90.3,58.1L90.3,58.1z M90.3,60.8v3.9l-0.1-0.2v-0.9C89.1,64,88,64.2,87,63.7c-0.8-0.5-1.1-1.2,0.1-1.7
	c0.7-0.4,1.4-0.4,2.3,0.1c-0.2,0.1-0.4,0.3-0.5,0.5c-1.1-0.4-1.8-0.1-1.7,0.4c0.1,0.6,1.2,0.6,3-0.1l-0.1-1.6
	c-1.8,0-3.5-0.2-5.3-0.7L83.6,64l-0.3-0.9l0.9-2.9c-0.6-0.1-1.2-0.4-1.7-0.6l-0.1,0.5c0.5,0.2,0.8,0.7,0.6,1.3
	c-0.2,0.7-0.9,1-1.8,1.2v-0.8c0.7,0.1,1.3,0,1.3-0.5s-0.4-0.9-1.3-0.9v-0.7l0.5,0.1l0.2-0.6c-0.2-0.1-0.4-0.2-0.7-0.4v-0.6
	c0.9,0.5,1.7,0.9,2.6,1.2c-0.3-0.9-0.7-1.4-1.4-1.4v-0.7c0.9,0.2,1.6,0.8,2.2,1.9h0.7l0.1,0.7C86.8,60.5,88.6,60.8,90.3,60.8
	L90.3,60.8L90.3,60.8z M81.1,48.9h0.7l0.9-3.9v3.9h0.9v-4.7h-1.3l-0.9,3.7l-0.2-0.7L81.1,48.9L81.1,48.9L81.1,48.9z M81.1,39.7h1v2
	l0.9,0.7v-4.9h0.7l-0.3-1h-2.2v1h1v1.2h-1L81.1,39.7L81.1,39.7L81.1,39.7z M81.1,25.4L81.1,25.4c0.4-0.5,0.5-1.1,0.4-1.9h-0.4V25.4
	L81.1,25.4z M81.1,66.6v-0.9c-1.5-0.6-3.1-1.3-4.5-2.2v1C78,65.4,79.6,66,81.1,66.6L81.1,66.6L81.1,66.6z M76.6,17.8v1
	c1.4-0.9,3-1.6,4.5-2.2v-0.9C79.6,16.3,78,17,76.6,17.8L76.6,17.8L76.6,17.8z M81.1,23.4c0.2,1.7-0.5,2.3-1.9,1.5l-2.6-1.2v1.1
	l2.3,1c0.9,0.4,1.7,0.1,2.2-0.6V23.4L81.1,23.4L81.1,23.4z M81.1,26L81.1,26c-1.7,1-3.3,2.4-4.5,3.9v1.2c1.3-1.6,2.8-3.2,4.5-4.2V26
	L81.1,26z M81.1,32.3h-3.8v17.6v0.7h3.8v-0.7h-3.2V33.1h3.2V32.3L81.1,32.3L81.1,32.3z M81.1,36.5L81.1,36.5h-2.4l0.3,1h0.5v1.2
	c-0.8,0.3-0.9,0.6-0.4,1.3c0.2,0.4,0.6,0.7,1.1,0.7c0.3-0.3,0.2-0.6,0.2-1h0.8v-1h-0.8v-1.2h0.8L81.1,36.5L81.1,36.5z M81.1,47.3
	L81.1,47.3l-0.7-3.1H79v4.7h1V45l0.9,3.9h0.3v-1.6C81.2,47.3,81.1,47.3,81.1,47.3z M81.1,55.4c-1.7-1.2-3.3-2.6-4.5-4.3v1.2
	c1.3,1.6,2.8,2.9,4.5,3.9V55.4L81.1,55.4L81.1,55.4z M81.1,58.5c0,0-0.1-0.1-0.2-0.1l-0.3,0.5c0.2,0.1,0.4,0.2,0.5,0.2V58.5
	L81.1,58.5L81.1,58.5z M81.1,59.9L81.1,59.9h-0.3c-0.6-1-1.3-1.5-2.2-1.5S77.1,59.1,78,61l0.7-0.3c-0.6-0.6-0.9-1.2-0.4-1.6
	c0.4-0.5,1-0.1,1.5,0.8l-0.1,0.2l0.1,0.6c0.5-0.1,1-0.1,1.3-0.1V59.9L81.1,59.9z M81.1,61.9c-0.2,0-0.5-0.1-0.7-0.2v0.9
	c0.3,0.1,0.5,0.1,0.7,0.1V61.9L81.1,61.9L81.1,61.9z M76.6,54.1v-1.2c0.4,0,0.7,0.2,0.7,0.6C77.3,53.8,77,54.1,76.6,54.1L76.6,54.1
	L76.6,54.1z M76.6,64.5L76.6,64.5c-0.1-0.1-0.2-0.2-0.3-0.2v-1c0.1,0.1,0.2,0.2,0.3,0.2V64.5L76.6,64.5z M76.3,18L76.3,18
	c0.1,0,0.2-0.1,0.3-0.2v1c-0.1,0.1-0.2,0.1-0.3,0.2V18L76.3,18z M76.6,23.7L76.6,23.7v1.1l-0.3-0.2v-1L76.6,23.7L76.6,23.7z
	 M76.6,29.9L76.6,29.9v1.2c-0.1,0.2-0.2,0.4-0.3,0.5v-1.3C76.4,30.2,76.5,30,76.6,29.9L76.6,29.9z M76.6,51.1L76.6,51.1v1.2
	c-0.1-0.1-0.2-0.3-0.3-0.4v-1.3C76.4,50.8,76.5,50.9,76.6,51.1L76.6,51.1z M76.6,52.9L76.6,52.9v1.2c-0.1,0-0.2-0.1-0.3-0.1v-1
	C76.4,52.9,76.5,52.9,76.6,52.9L76.6,52.9z M76.3,55.4L76.3,55.4v-0.6c0.1,0.1,0.2,0.2,0.3,0.3L76.3,55.4L76.3,55.4z M76.3,64.3v-1
	c-0.6-0.4-1.2-0.8-1.7-1.2v1C75.2,63.5,75.7,63.9,76.3,64.3L76.3,64.3L76.3,64.3z M74.6,19.1v1c0.6-0.4,1.2-0.8,1.7-1.1v-1
	C75.7,18.4,75.2,18.8,74.6,19.1L74.6,19.1L74.6,19.1z M76.3,23.6l-1.7-0.9v1.1l1.7,0.8V23.6L76.3,23.6L76.3,23.6z M76.3,30.3
	C75.6,31.2,75,32,74.6,33v1.8c0.5-1,1.1-2.1,1.7-3.2L76.3,30.3L76.3,30.3L76.3,30.3z M76.3,50.6c-0.7-1-1.3-2-1.7-3.2v1.8
	c0.5,1,1.1,1.8,1.7,2.7V50.6L76.3,50.6L76.3,50.6z M76.3,53c-0.2,0.1-0.3,0.2-0.3,0.5c0,0.2,0.1,0.4,0.3,0.5V53L76.3,53L76.3,53z
	 M76.3,54.8L76.3,54.8c-0.7-0.6-1.3-1.2-1.7-2v0.7l0.7,0.9l-0.7,0.5v1l1.1-0.9c0.2,0.2,0.4,0.4,0.6,0.6l0.1-0.1L76.3,54.8L76.3,54.8
	z M74.6,28.6L74.6,28.6v-1l0.4,0.2l-0.4-1.2V25l1.2,4.1L74.6,28.6L74.6,28.6z M74.6,63.2L74.6,63.2c-1.3-1-2.6-2.1-3.8-3.3v-1.2
	c1.2,1.2,2.5,2.4,3.8,3.4V63.2L74.6,63.2z M70.8,22.4L70.8,22.4c1.2-1.1,2.5-2.3,3.8-3.3v1c-1.3,1-2.7,2.2-3.8,3.4V22.4L70.8,22.4z
	 M74.6,22.8v1.1l-0.3-0.1l0.3,1v1.6l-1.2-4.3L74.6,22.8L74.6,22.8L74.6,22.8z M74.6,27.6L74.6,27.6v1L71,27.4
	c1.4,2.3,3.1,5.6,1.8,7.4l-0.4,0.1c1-2.2-0.4-4.8-1.7-7.2v-1.4L74.6,27.6L74.6,27.6z M74.6,33v1.8c-0.8,2-1.2,4.1-1.2,6.3
	s0.5,4.3,1.2,6.3v1.8c-1.2-2.4-2-5.2-2-8.1S73.3,35.4,74.6,33L74.6,33L74.6,33z M74.6,52.8L74.6,52.8v0.7l-0.7-0.8
	c-0.3,1.2-1,1.5-2.1,1c0,1,1,1.4,2.1,1.6l0.7-0.5v1l-1.7,1.4l-0.2-0.8l0.7-0.7C71,55,71,53.8,71.6,52.4c0.8,1,1.5,1,1.8-0.5
	c-0.5-0.7-0.9-1.4-1.3-2.2l-1.3,0.5V48c0.3,0.3,0.4,0.8,0.6,1.2l0.5-0.2c-0.4-1-0.8-1.9-1.1-2.9v-3c0.2,1.7,0.6,3.3,1.2,4.9
	c0.5-0.6,0.7-1.2,0.3-1.9l0.6-0.3c0.3,0.8,0.2,1.7-0.4,2.9l0.3,0.6l-0.2,0.2C73.2,50.7,73.8,51.9,74.6,52.8L74.6,52.8z M70.8,59.9
	v-1.2c-0.3-0.4-0.6-0.8-0.9-1.2v1.2C70.2,59.2,70.5,59.5,70.8,59.9L70.8,59.9L70.8,59.9z M69.8,23.4v1.3c0.4-0.4,0.7-0.8,0.9-1.1
	v-1.1C70.5,22.8,70.2,23.2,69.8,23.4L69.8,23.4L69.8,23.4z M70.8,26.2l-0.9-0.4c0.3,0.6,0.7,1.2,0.9,1.8V26.2L70.8,26.2L70.8,26.2z
	 M70.8,43.2c0-0.7-0.1-1.4-0.1-2.1h-0.5c0,0.6,0,1,0,1.5l-0.4,0.1v0.8l0.6-0.1l0.2,1.3l-0.8,0.1v0.9l0.9-0.2c0,0.3,0.1,0.5,0.1,0.7
	L70.8,43.2L70.8,43.2L70.8,43.2z M70.8,48c-0.2-0.4-0.6-0.7-0.9-0.8v0.9c0.4,0.3,0.7,1,0.9,2.2l0.1-0.1L70.8,48L70.8,48L70.8,48z
	 M69.8,50.8v-0.9c0.2,0.1,0.3,0.2,0.4,0.4L69.8,50.8L69.8,50.8L69.8,50.8z M69.8,38.2L69.8,38.2v-0.8h0.9l-0.4,0.8H69.8L69.8,38.2z
	 M69.8,36.5L69.8,36.5v-0.9h0.9l-0.3,0.9H69.8L69.8,36.5z M69.8,58.8L69.8,58.8c-0.8-1-1.5-2-2.3-3.1v-1.5c0.7,1.2,1.4,2.3,2.3,3.3
	V58.8L69.8,58.8z M67.5,26.5L67.5,26.5c0.8-1,1.5-2.1,2.3-3.1v1.3c-0.9,1-1.6,2.2-2.3,3.4V26.5L67.5,26.5z M69.8,25.8L69.8,25.8v9.8
	v0.9h-2.3v-0.6l0.2-0.3h2.1L69.8,25.8L69.8,25.8z M69.8,37.4h-2.1l-0.2,0.2v0.6h2.3L69.8,37.4L69.8,37.4L69.8,37.4z M69.8,42.8
	L69.8,42.8v0.8H69l0.2,1.4l0.6-0.1v0.9L67.5,46v-0.7l0.9-0.2l-0.2-1.4c-0.2,0-0.5-0.1-0.7-0.1v-0.9c0.1,0,0.2,0,0.2,0
	c0.3-0.1,0.4-0.4,0.3-0.7s-0.3-0.5-0.5-0.5v-0.9c0.7-0.1,1.3,0.4,1.5,2L69.8,42.8L69.8,42.8z M69.8,47.3L69.8,47.3v0.9
	C69.7,48,69.6,48,69.4,48c-0.9,0-0.8,1.2-0.3,1.6c0.3,0.1,0.5,0.1,0.7,0.3v0.9l-0.1,0.1l-0.9-0.2L68,51.2c-0.1,0.1-0.3,0.2-0.5,0.2
	v-1l0.1-0.1l0.4,0.3l0.4-0.4l-0.9-0.5v-0.8l0.7,0.5c-0.2-1.2,0.2-2,1.2-2.1C69.5,47.3,69.7,47.3,69.8,47.3L69.8,47.3z M67.5,55.8
	v-1.5c-2.2-3.8-3.4-8.3-3.4-13.1s1.2-9.3,3.4-13.1v-1.5c-2.7,4.2-4.3,9.3-4.3,14.6S64.8,51.6,67.5,55.8L67.5,55.8L67.5,55.8z
	 M67.5,35.9L67.5,35.9l-0.3,0.6h0.3V35.9L67.5,35.9z M67.5,37.6v0.6h-0.4L67.5,37.6L67.5,37.6L67.5,37.6z M67.5,40.8L67.5,40.8
	c-0.5,0.1-1,0.7-1,1.4s0.3,1.2,1,1.4v-0.9c-0.2,0-0.4-0.2-0.4-0.5c-0.1-0.3,0-0.7,0.3-0.7c0-0.1,0.1-0.1,0.1,0V40.8L67.5,40.8z
	 M67.5,45.4L67.5,45.4h-0.3c-0.1-0.5-0.3-1-0.6-1.4l-0.4,0.2c0.6,1.2,0.1,1.9-0.5,1.3c-0.7-0.6-0.2-1.7,0-2.5l-0.3-0.1
	c-0.5,1-0.8,2,0,3.2c0.6,0.9,1.2,0.6,1.7,0.1l0.3-0.1L67.5,45.4L67.5,45.4z M67.5,48.9L67.5,48.9l-0.7-0.4L66.5,49l1,0.7V48.9
	L67.5,48.9z M67.5,50.3L67.5,50.3l-0.6,0.5l0.3,0.4c0.1,0.1,0.2,0.2,0.3,0.2L67.5,50.3L67.5,50.3z"/>
<g>
	<path class="st1" d="M81.5,88.9c0,0.1,0,0.2-0.1,0.3c-0.5,1.8-1,3.7-1.5,5.5c-0.1,0.2-0.2,0.3-0.4,0.3c-9.4,0-18.8,0-28.1,0
		c-0.2,0-0.3,0.1-0.3,0.2c-1.5,5.3-2.9,10.5-4.4,15.8c-0.1,0.4-0.2,0.7-0.3,1.1c0.1,0,0.1,0,0.2,0c1.8,0,3.6,0,5.4,0
		c0.2,0,0.2-0.1,0.2-0.2c1-3.7,2-7.3,3-11c0.1-0.4,0-0.3,0.4-0.3c8.5,0,17,0,25.4,0c0.2,0,0.4,0,0.7-0.1c1.5-0.4,2.6-1.3,3.1-2.8
		c1-3.6,2-7.1,3-10.7c0.2-0.6,0.4-1.2,0.3-1.8c0-0.8-0.5-1.5-1.2-1.7c-0.3-0.1-0.7-0.2-1-0.2c-10.4,0-20.8,0-31.2,0
		c-0.2,0-0.2,0.1-0.3,0.2c-0.5,1.7-1,3.5-1.4,5.2c0,0.1,0,0.1,0,0.2C62.4,88.9,71.9,88.9,81.5,88.9z M50.4,83.3c-0.1,0-0.2,0-0.2,0
		c-1.7,0-3.5,0-5.2,0c-0.2,0-0.3,0.1-0.3,0.2c-2.1,7.6-4.2,15.2-6.3,22.8c0,0.2-0.1,0.3-0.3,0.3c-7.5,0-15,0-22.5,0
		c-0.1,0-0.2,0-0.3,0c2.1-7.7,4.3-15.5,6.4-23.2c-0.1,0-0.2,0-0.3,0c-1.7,0-3.5,0-5.2,0c-0.2,0-0.3,0.1-0.3,0.2
		c-2,7.1-3.9,14.2-5.9,21.3c-0.4,1.6-0.9,3.1-1.3,4.7c-0.4,1.4,0.6,2.6,2,2.6c9.9,0,19.8,0,29.8,0c0.2,0,0.4,0,0.5-0.1
		c1.1-0.3,1.7-1,2-2c2.3-8.4,4.7-16.8,7-25.2C50.1,84.3,50.3,83.8,50.4,83.3z M103.5,83.3c-2.7,9.6-5.3,19.2-8,28.8
		c2.3-2.2,4.6-4.3,6.8-6.5c0,0,0,0,0.1,0c-0.6,2.1-1.2,4.2-1.8,6.4c0.1-0.1,0.2-0.1,0.2-0.2c4.9-4.7,9.9-9.4,14.8-14
		c0.1-0.1,0.2-0.2,0.1-0.4c-2.3-4.6-4.7-9.3-7-13.9c0-0.1-0.1-0.1-0.1-0.3c-0.6,2.2-1.2,4.3-1.8,6.4c0,0,0,0-0.1,0
		C105.7,87.6,104.6,85.5,103.5,83.3z"/>
	<path class="st1" d="M98.6,83.2c-2,7.3-4,14.6-6.1,21.9c-0.6,2.2-1.2,4.4-1.8,6.6c-0.1,0.2-0.1,0.3-0.4,0.3c-1.7,0-3.4,0-5.1,0
		c-0.1,0-0.2,0-0.3,0c0-0.1,0-0.2,0.1-0.2c1.9-6.8,3.8-13.7,5.7-20.5c0.7-2.7,1.5-5.3,2.2-8v-0.1C94.9,83.2,96.7,83.2,98.6,83.2z"/>
	<path class="st1" d="M81.5,88.9c-9.6,0-19.1,0-28.7,0c0-0.1,0-0.1,0-0.2c0.5-1.7,1-3.5,1.4-5.2c0-0.2,0.1-0.2,0.3-0.2
		c10.4,0,20.8,0,31.2,0c0.3,0,0.7,0.1,1,0.2c0.7,0.2,1.2,0.9,1.2,1.7c0,0.6-0.2,1.2-0.3,1.8c-1,3.6-2,7.2-3,10.7
		c-0.4,1.5-1.5,2.4-3.1,2.8c-0.2,0.1-0.4,0.1-0.7,0.1c-8.5,0-17,0-25.4,0c-0.4,0-0.3-0.1-0.4,0.3c-1,3.7-2,7.3-3,11
		c0,0.1-0.1,0.2-0.2,0.2c-1.8,0-3.6,0-5.4,0c0,0-0.1,0-0.2,0c0.1-0.4,0.2-0.8,0.3-1.1c1.5-5.3,2.9-10.5,4.4-15.8
		c0-0.2,0.1-0.2,0.3-0.2c9.4,0,18.8,0,28.1,0c0.3,0,0.3-0.1,0.4-0.3c0.5-1.8,1-3.7,1.5-5.5C81.4,89.1,81.4,89,81.5,88.9z"/>
	<path class="st1" d="M50.4,83.3c-0.1,0.5-0.3,1-0.4,1.5c-2.3,8.4-4.7,16.8-7,25.2c-0.3,1-0.9,1.7-2,2c-0.2,0.1-0.4,0.1-0.5,0.1
		c-9.9,0-19.9,0-29.8,0c-1.4,0-2.3-1.2-2-2.6c0.4-1.6,0.9-3.1,1.3-4.7c2-7.1,3.9-14.2,5.9-21.3c0-0.2,0.1-0.2,0.3-0.2
		c1.7,0,3.5,0,5.2,0c0.1,0,0.1,0,0.3,0c-2.1,7.8-4.3,15.5-6.4,23.2c0.1,0,0.2,0,0.3,0c7.5,0,15,0,22.5,0c0.2,0,0.3-0.1,0.3-0.3
		c2.1-7.6,4.2-15.2,6.3-22.8c0-0.2,0.1-0.2,0.3-0.2c1.7,0,3.5,0,5.2,0C50.3,83.3,50.3,83.3,50.4,83.3z"/>
	<path class="st1" d="M103.5,83.3c1.1,2.2,2.2,4.3,3.2,6.4c0,0,0,0,0.1,0c0.6-2.1,1.2-4.3,1.8-6.4c0.1,0.1,0.1,0.2,0.1,0.3
		c2.3,4.7,4.7,9.3,7,13.9c0.1,0.2,0.1,0.2-0.1,0.4c-4.9,4.7-9.9,9.3-14.8,14c-0.1,0.1-0.1,0.1-0.2,0.2c0.6-2.2,1.2-4.3,1.8-6.4
		c0,0,0,0-0.1,0c-2.3,2.1-4.5,4.3-6.8,6.5C98.2,102.4,100.8,92.9,103.5,83.3z"/>
</g>
<line class="st2" x1="15.8" y1="77.7" x2="110" y2="77.7"/>
</svg>
