<?xml version="1.0" encoding="utf-8"?>
<!-- Generator: Adobe Illustrator 23.0.0, SVG Export Plug-In . SVG Version: 6.00 Build 0)  -->
<svg version="1.1" id="Layer_1" xmlns="http://www.w3.org/2000/svg" xmlns:xlink="http://www.w3.org/1999/xlink" x="0px" y="0px"
	 viewBox="0 0 128 128" style="enable-background:new 0 0 128 128;" xml:space="preserve">
<style type="text/css">
	.st0{fill:#FFFFFF;}
</style>
<g>
	<path class="st0" d="M68.7,121.3c-13.2,0-26.5,0-39.7,0c-3.7,0-4.3-0.9-3.4-4.6c1.2-5,5.6-8.3,11.1-8.3c17.4,0,34.9,0,52.3,0
		c4,0,8.1-0.1,12.1,0c5.3,0.1,9.5,3.7,10.6,8.9c0.6,3-0.1,3.9-3.1,3.9C95.3,121.3,82,121.3,68.7,121.3z"/>
	<path class="st0" d="M79.1,104.8c-14.7,0-28.8,0-43.4,0c0.6-1.7,1.1-3.1,1.7-4.5c2.4-5.8,4.9-11.6,7.2-17.5c0.8-2,1.8-2.9,4-2.8
		c6,0.1,11.9,0,17.8,0.1c1,0,2.7,0.7,3,1.5C72.7,89.2,75.8,96.8,79.1,104.8z M63.4,94.9c0.1-3.3-2.7-6.2-5.9-6.3
		c-3.3-0.1-6.1,2.5-6.3,5.9c-0.2,3.5,2.6,6.4,6,6.4C60.5,100.9,63.3,98.2,63.4,94.9z"/>
	<path class="st0" d="M15.7,25c0-9.3,7.2-16.7,16.3-16.7c9.2,0,16.6,7.6,16.6,16.9c-0.1,9.1-7.5,16.6-16.6,16.6
		C23,41.9,15.7,34.3,15.7,25z M32.3,18c-3.9,0-7,3.1-7,6.9c0,3.8,3.1,7.1,6.9,7.1c3.8,0,7-3.1,7-7C39.2,21.3,36.1,18.1,32.3,18z"/>
	<path class="st0" d="M51.5,32.8c0-5.2,0-10.3,0-15.5c10.2,0,20.8,0,31.6,0c0,5.2,0,10.3,0,15.5C72.4,32.8,61.7,32.8,51.5,32.8z"/>
	<path class="st0" d="M58.2,76.6c-2.9,0-5.3-0.1-7.7,0c-2.3,0.1-4.5,0.3-7.3,0.5C39.5,66.9,35.6,56.3,31.8,46
		c4.5-1.5,8.7-3,13.3-4.5C49.2,52.6,53.6,64.3,58.2,76.6z"/>
	<path class="st0" d="M108.9,31.2c0,0,0.1,0.2,0.3,0.4c4.3,5.1,4.3,5.1,1.2,11.2c-1.1,2.1-2,4.2-3.3,6.1c-0.5,0.7-1.8,0.8-2.7,1.2
		c-0.1-0.9-0.6-2-0.2-2.8c1.3-2.9,2.9-5.7,4.3-8.5c0.3-0.6,0.8-1.6,0.6-1.8c-2-2.3-3.8-5.3-6.4-6.4c-2.4-1.1-5.6-0.9-8,2
		c-3.6,4.5-3.9,4.3-1.3,9.4c0.9,1.8,2,3.6,2.7,5.5c0.3,0.7-0.2,1.6-0.4,2.4c-0.9-0.3-2.2-0.3-2.5-1c-2-3.6-3.9-7.3-5.7-11.1
		c-0.4-0.8,0.1-2.3,0.6-3.1c0.9-1.4,2.3-2.6,3.4-3.8c-0.2-0.3-0.3-0.6-0.4-0.6c-4.2-0.5-5.6-3.7-3.6-8.4c1.3-3.2,3.9-4.6,7.3-4.7
		c3.4,0,6.9-0.1,10.4,0c6,0.1,10.1,6.1,7.8,11.7C112.6,30.1,110.4,30.5,108.9,31.2z"/>
	<path class="st0" d="M35.5,25.2c-0.1-2.1-1.2-3.5-3.3-3.5c-2.2-0.1-3.5,1.2-3.6,3.3c-0.1,2.1,1.2,3.5,3.3,3.6
		C34,28.6,35.2,27.3,35.5,25.2z"/>
	<path class="st0" d="M57.2,91.1c1.3,1.7,2.6,2.7,2.5,3.6c-0.1,0.9-1.5,1.8-2.4,2.7c-0.9-0.8-2.3-1.6-2.4-2.6
		C54.8,93.9,56.1,92.8,57.2,91.1z"/>
	<path class="st0" d="M35.5,25.2c-0.3,2.2-1.5,3.5-3.6,3.4c-2.1-0.1-3.4-1.5-3.3-3.6c0.1-2.1,1.4-3.4,3.6-3.3
		C34.3,21.7,35.3,23,35.5,25.2z"/>
</g>
<path class="st0" d="M90.5,41.8c6,0,12,0,18.1,0c0,6.1,0,12.1,0,18.3c-0.3,0-0.6,0.1-0.9,0.1c-5.5,0-10.9,0-16.4,0
	c-0.7,0-0.9-0.2-0.9-0.9c0-5.6,0-11.1,0-16.7C90.4,42.3,90.5,42.1,90.5,41.8z M103.5,49.3c0.9,0,1.8-0.8,1.8-1.7
	c0-0.9-0.8-1.8-1.8-1.8c-0.9,0-1.7,0.8-1.7,1.8C101.8,48.5,102.6,49.3,103.5,49.3z M95.5,49.3c0.9,0,1.8-0.8,1.8-1.7
	c0-1-0.8-1.8-1.8-1.8c-0.9,0-1.8,0.9-1.7,1.8C93.8,48.4,94.6,49.3,95.5,49.3z M101.3,47.5c0-1-0.8-1.8-1.7-1.8
	c-0.9,0-1.7,0.8-1.7,1.8c0,1,0.8,1.8,1.8,1.8C100.5,49.3,101.3,48.5,101.3,47.5z"/>
<path class="st0" d="M111,56.2c0-5.6,0-11.1,0-16.7c-0.6,0-1.1,0-1.6,0c-1.4,0-2.8,0.3-4.1-0.1c-1.2-0.4-2.3-1.5-3.3-2.3
	c-1.4-1-2.8-2.1-4.2-3.1c-1.9-1.4-1.8-4.2,0.2-5.4c0.4-0.2,0.5-0.5,0.5-0.9c0-1.1,0-2.1,0-3.3c-2.8,0.2-5-0.6-6.7-2.8
	c-0.9-1.3-1.4-2.8-1.2-4c6,0,12,0,18.1,0c-0.2,2.6-1.3,4.6-3.4,5.9c-1.2,0.7-2.4,1-3.8,0.9c-0.6,0-0.8,0.2-0.8,0.8
	c0,1-0.3,2.1,0.1,3c0.4,0.8,1.5,1.2,2.3,1.8c3.7,2.8,7.3,5.5,11,8.2c1.1,0.8,1.5,1.7,1.5,3.1c-0.1,3.3,0,6.6,0,10
	C115.4,53.6,113.5,55.8,111,56.2z M101.3,31.3c0-1-0.8-1.7-1.8-1.7c-0.9,0-1.7,0.8-1.7,1.8c0,0.9,0.8,1.8,1.7,1.8
	C100.5,33.1,101.3,32.3,101.3,31.3z"/>
<path class="st0" d="M94.1,31.6c0.2,2.6,1.8,4.1,3.9,5.4c-1.4,0.9-2.6,1.7-3.9,2.4c-0.3,0.2-0.7,0-1.1,0c-1.4,0-2.8,0-4.2,0
	c-0.7,0-0.8,0.2-0.8,0.8c0,5,0,10,0,15c0,0.3,0,0.6,0,1.1c-0.6-0.3-1.2-0.4-1.6-0.7c-1.8-1.2-2.8-2.8-2.8-5c0-3.1,0-6.1,0-9.2
	c0-1.4,0.5-2.4,1.6-3.3c2.7-2,5.4-4,8.1-6C93.6,32,93.8,31.8,94.1,31.6z"/>
<path class="st0" d="M120,68.2c-15.6,0-31.1,0-46.7,0c0-0.6-0.1-1.2,0-1.7c0-0.2,0.4-0.4,0.7-0.4c2.7,0,5.4,0,8,0
	c12.2,0,24.3,0,36.5,0c1.7,0,1.4-0.2,1.4,1.5C120,67.7,120,67.9,120,68.2z"/>
<path class="st0" d="M100.7,77.5c-1.9,0-3.4-1.5-3.4-3.4c0-1.9,1.5-3.4,3.4-3.4s3.4,1.5,3.4,3.4C104.1,75.9,102.6,77.5,100.7,77.5z"
	/>
<path class="st0" d="M86.9,77.5c-1.9,0-3.3-1.5-3.3-3.4c0-1.9,1.5-3.4,3.4-3.4c1.9,0,3.3,1.5,3.3,3.4C90.3,76,88.8,77.5,86.9,77.5z"
	/>
<path class="st0" d="M114.4,77.5c-1.9,0-3.4-1.5-3.4-3.4c0-1.8,1.5-3.4,3.4-3.4c1.9,0,3.4,1.4,3.4,3.4
	C117.7,76,116.3,77.5,114.4,77.5z"/>
<path class="st0" d="M77.5,89.4c0-2.3,0-4.5,0-6.7c1.2,0,2,0.4,2.7,1.4c0.8,1.2,0.9,2.4,0.2,3.7C79.8,88.8,78.8,89.4,77.5,89.4z"/>
</svg>
