<?xml version="1.0" encoding="utf-8"?>
<!-- Generator: Adobe Illustrator 23.0.0, SVG Export Plug-In . SVG Version: 6.00 Build 0)  -->
<svg version="1.1" id="Layer_1" xmlns="http://www.w3.org/2000/svg" xmlns:xlink="http://www.w3.org/1999/xlink" x="0px" y="0px"
	 viewBox="0 0 128 128" style="enable-background:new 0 0 128 128;" xml:space="preserve">
<style type="text/css">
	.st0{display:none;fill:#F40C0C;}
	.st1{display:none;opacity:0.85;fill:#5B0303;stroke:#000000;stroke-miterlimit:10;enable-background:new    ;}
	.st2{fill:#F9F9F9;stroke:#FFFFFF;stroke-width:3.2005;stroke-miterlimit:10;}
	.st3{fill:none;stroke:#FFFFFF;stroke-width:3.2005;stroke-miterlimit:10;}
	.st4{fill:#FFFFFF;stroke:#FFFFFF;stroke-width:3.2005;stroke-miterlimit:10;}
</style>
<rect class="st0" width="128" height="128"/>
<rect x="-7.5" y="-9.5" class="st1" width="165" height="149"/>
<g>
	<path class="st2" d="M99.8,122c-0.5-0.2-1-0.3-1.3-0.7c-0.2-0.3-0.4-0.9-0.5-1.3c-0.2-0.7-0.3-1.5-0.4-2.2c0-0.2-0.1-0.3-0.3-0.4
		c-0.6-0.2-1.3-0.5-1.9-0.7c-0.1,0-0.3,0-0.4,0.1c-0.6,0.4-1.3,0.9-1.9,1.3c-1.1,0.7-2.2,0.6-3.1-0.2c-0.7-0.7-1.5-1.4-2.1-2.1
		c-1-1-1-2-0.2-3.2c0.4-0.6,0.9-1.2,1.3-1.8c0.1-0.1,0.1-0.3,0-0.4c-0.2-0.6-0.5-1.3-0.9-2c-0.1-0.2-0.2-0.3-0.4-0.4
		c-0.7-0.1-1.5-0.2-2.2-0.3c-1.3-0.2-2-1.1-2-2.3c0-1.1,0-2,0-3.1c0-1.3,0.7-2.2,2-2.3c0.7-0.1,1.5-0.2,2.2-0.4
		c0.1,0,0.2-0.1,0.3-0.2c0.3-0.7,0.6-1.4,0.9-2.1c0-0.1,0-0.3-0.1-0.4c-0.4-0.6-0.9-1.3-1.3-1.8c-0.9-1.2-0.7-2.2,0.3-3.3
		c0.7-0.7,1.4-1.4,2.1-2c1-1,2.1-1.1,3.2-0.2c0.5,0.4,1.2,0.9,1.7,1.3c0.2,0.1,0.3,0.2,0.6,0.1c0.6-0.3,1.3-0.5,1.9-0.9
		c0.2-0.1,0.3-0.2,0.3-0.4c0.1-0.9,0.2-1.7,0.4-2.5c0.2-1,1.1-1.7,2-1.7c1.2,0,2.3,0,3.5,0c1.1,0,1.9,0.9,2.1,2
		c0.1,0.7,0.2,1.5,0.3,2.2c0,0.2,0.1,0.3,0.3,0.4c0.7,0.3,1.4,0.5,2.1,0.9c0.2,0.1,0.3,0.1,0.5-0.1c0.6-0.4,1.2-0.9,1.8-1.3
		c1.1-0.7,2.2-0.6,3.2,0.2c0.7,0.7,1.5,1.4,2.1,2.1c0.9,1,1,2,0.2,3.1c-0.4,0.6-0.9,1.2-1.3,1.8c-0.1,0.2-0.1,0.3-0.1,0.5
		c0.3,0.6,0.5,1.3,0.9,2c0.1,0.2,0.2,0.3,0.4,0.3c0.7,0.1,1.5,0.2,2.2,0.3c1,0.2,1.6,0.7,1.9,1.7c0,0.1,0,0.1,0.1,0.2
		c0,1.4,0,2.8,0,4.1c0,0.1-0.1,0.1-0.1,0.2c-0.3,1-1,1.6-1.9,1.7c-0.7,0.1-1.5,0.2-2.2,0.3c-0.2,0-0.3,0.1-0.4,0.3
		c-0.2,0.6-0.5,1.3-0.9,1.9c-0.1,0.2-0.1,0.3,0.1,0.5c0.4,0.6,0.9,1.2,1.3,1.8c0.7,1.1,0.6,2.2-0.2,3.2c-0.7,0.7-1.4,1.5-2.1,2.1
		c-1,1-2,1-3.2,0.2c-0.6-0.4-1.2-0.9-1.8-1.3c-0.1-0.1-0.3-0.1-0.4,0c-0.7,0.3-1.4,0.5-2,0.9c-0.1,0.1-0.3,0.2-0.3,0.4
		c-0.1,0.7-0.2,1.5-0.4,2.2c-0.1,0.9-0.6,1.5-1.4,1.8c-0.1,0.1-0.3,0.1-0.4,0.2C102.6,122,101.2,122,99.8,122z M118.5,103.3
		c0-0.4,0-0.9,0-1.4c0-0.3-0.1-0.5-0.4-0.5c-1-0.1-1.8-0.3-2.8-0.4c-0.6-0.1-1-0.4-1.2-1c-0.3-1-0.7-1.9-1.2-2.9
		c-0.2-0.5-0.2-1,0.1-1.5c0.5-0.7,1.1-1.6,1.7-2.3c0.2-0.2,0.2-0.4,0-0.6c-0.6-0.6-1.4-1.4-2-2c-0.2-0.2-0.3-0.2-0.6,0
		c-0.7,0.5-1.6,1.2-2.3,1.7c-0.4,0.3-0.9,0.3-1.4,0.1c-1-0.5-2-1-3.2-1.3c-0.5-0.1-0.9-0.4-0.9-1c-0.2-1-0.3-1.9-0.5-3
		c0-0.3-0.2-0.3-0.4-0.3c-1,0-1.9,0-2.9,0c-0.3,0-0.4,0.1-0.5,0.4c-0.1,1-0.3,1.8-0.4,2.8c-0.1,0.6-0.4,1-1.1,1.2
		c-1,0.3-1.9,0.7-2.9,1.2c-0.5,0.3-1.1,0.3-1.5-0.1c-0.7-0.5-1.5-1.1-2.3-1.7c-0.2-0.2-0.4-0.2-0.6,0c-0.6,0.6-1.3,1.4-2,2
		c-0.2,0.2-0.2,0.3-0.1,0.6c0.5,0.7,1.1,1.6,1.7,2.3c0.3,0.5,0.3,1,0.1,1.5c-0.4,1-0.9,1.9-1.2,2.9c-0.2,0.6-0.5,1-1.2,1.1
		c-1,0.1-1.8,0.3-2.8,0.4c-0.3,0-0.4,0.2-0.4,0.4c0,1,0,1.9,0,2.9c0,0.3,0.1,0.4,0.4,0.4c1,0.1,1.9,0.3,2.9,0.4
		c0.6,0.1,0.9,0.4,1.1,1c0.3,1,0.7,2,1.3,3c0.2,0.5,0.3,1-0.1,1.5c-0.5,0.7-1.1,1.6-1.7,2.3c-0.2,0.2-0.1,0.4,0.1,0.6
		c0.6,0.6,1.4,1.4,2,2c0.2,0.2,0.3,0.2,0.6,0.1c0.7-0.5,1.6-1.1,2.3-1.7c0.5-0.3,1-0.3,1.5-0.1c1,0.4,1.9,0.9,2.9,1.2
		c0.5,0.2,0.9,0.5,1,1.2c0.1,1,0.3,1.9,0.4,2.8c0,0.3,0.2,0.4,0.5,0.4c1,0,1.8,0,2.8,0c0.3,0,0.4-0.1,0.5-0.4c0.1-1,0.3-1.9,0.4-2.9
		c0.1-0.5,0.4-0.9,0.9-1c1.1-0.3,2-0.7,3-1.3c0.5-0.3,1-0.2,1.5,0.1c0.7,0.5,1.6,1.1,2.3,1.7c0.2,0.2,0.4,0.2,0.6,0
		c0.6-0.6,1.3-1.4,2-2c0.2-0.2,0.2-0.4,0-0.6c-0.5-0.7-1.1-1.5-1.6-2.2c-0.4-0.5-0.4-1-0.1-1.6c0.4-0.9,0.9-1.8,1.2-2.8
		c0.2-0.6,0.6-1,1.3-1.1c1-0.1,1.8-0.3,2.8-0.4c0.2,0,0.4-0.2,0.3-0.4C118.4,104.3,118.5,103.7,118.5,103.3z"/>
	<path class="st2" d="M109.9,103.3c0,4.4-3.5,8-8,8.1c-4.4,0-8-3.5-8.1-8c-0.1-4.4,3.6-8.1,8-8.1C106.3,95.2,109.8,98.8,109.9,103.3
		z M107.8,103.3c0.1-3.2-2.6-5.9-5.9-6c-3.2-0.1-6,2.6-6,5.9c-0.1,3.2,2.6,6,6,6C105,109.3,107.7,106.6,107.8,103.3z"/>
</g>
<g>
	<polyline class="st3" points="104.4,17.9 90.1,17.9 90.1,2.9 16.8,2.9 16.8,117 85.4,117 	"/>
	<polyline class="st3" points="90.1,2.9 90.1,17.9 103.9,17.9 	"/>
</g>
<line class="st3" x1="105" y1="18.4" x2="105" y2="84.6"/>
<line class="st3" x1="90.4" y1="2.7" x2="105.5" y2="19"/>
<rect x="22.2" y="81.9" class="st4" width="43.5" height="4.5"/>
<rect x="68" y="81.9" class="st4" width="12.6" height="4.5"/>
<rect x="37.1" y="97.6" class="st4" width="43.5" height="4.5"/>
<rect x="22.2" y="88.5" class="st4" width="58.5" height="5.3"/>
<rect x="22.2" y="104.9" class="st4" width="58.5" height="5.3"/>
<rect x="22.2" y="97.6" class="st4" width="12.6" height="4.5"/>
<g>
	<path class="st4" d="M64.2,9.2c0,1.8,0,3.5,0,5.4c-1.4,0-2.7,0-4.1,0c0-1.8,0-3.6,0-5.4C61.5,9.2,62.8,9.2,64.2,9.2z"/>
	<path class="st4" d="M54.9,70.2c-1.4,0-2.7,0-4.1,0c0-0.3,0-0.6,0-0.9c0-3.1,0-6.3,0-9.4c0-2.6-0.9-4.6-2.7-6.3
		c-3.2-3.1-5.2-6.8-5.9-11.3c-1.2-7.7,1.3-14.2,7.4-19.1c11.9-9.7,29.9-3,32.6,12.2c1.3,7-0.7,13.2-5.9,18.2
		c-1.2,1.2-2.1,2.5-2.5,4.2c-0.1,0.5-0.1,1.2-0.1,1.8c0,3.2,0,6.4,0,9.7c0,0.3,0,0.5,0,0.9c-1.4,0-2.7,0-4.1,0c0,2.6-1,4.7-3.1,6.3
		c-1.5,1.1-3.1,1.5-4.9,1.4C58.5,77.7,55,75,54.9,70.2z M69.8,40.6c0,1.9,0,3.8,0,5.8c0,0.2-0.2,0.4-0.4,0.5c-1.5,1-3,1.9-4.5,2.9
		c-0.3,0.2-0.5,0.4-0.5,0.9c0,1.9,0,3.9,0,5.9c0,0.2,0,0.4,0,0.5c1.9,0,3.7,0,5.5,0c1.4-3.9,1.7-4.5,3.6-6.4
		c3.8-3.8,5.5-8.4,4.9-13.8c-1.3-10.5-12.2-17-22-13.1c-11.1,4.4-14,18.5-5.4,26.9c1.7,1.7,3,3.6,3.6,6c0,0.2,0.2,0.4,0.4,0.4
		c1.8,0,3.5,0,5.3,0c0-0.1,0.1-0.2,0.1-0.3c0-2.1,0-4.2,0-6.3c0-0.2-0.2-0.5-0.4-0.6c-1.5-1-3-2-4.6-3c-0.3-0.2-0.5-0.5-0.5-1
		c0-1,0-1.9,0-2.9c0-0.9,0-1.7,0-2.6c1.4,0,2.7,0,4.1,0c0,1.2,0,2.2,0,3.3c0,0.2,0.2,0.5,0.3,0.6c0.9,0.6,1.8,1.2,2.7,1.8
		c0.3,0.2,0.5,0.2,0.9,0c0.7-0.5,1.6-1.1,2.5-1.6c0.4-0.3,0.6-0.5,0.6-1.1c0-1.1,0-2.1,0-3.1C67.2,40.6,68.4,40.6,69.8,40.6z
		 M54.9,66.1c5,0,9.9,0,14.8,0c0-1.6,0-3.2,0-4.8c-5,0-9.9,0-14.8,0C54.9,62.9,54.9,64.5,54.9,66.1z M58.9,70.2
		c0,1.4,0.4,2.5,1.6,3.1c1.2,0.7,2.5,0.7,3.6,0c1.1-0.7,1.6-1.8,1.5-3.1C63.4,70.2,61.2,70.2,58.9,70.2z"/>
	<path class="st4" d="M32.3,37.1c1.8,0,3.6,0,5.3,0c0,1.3,0,2.7,0,3.9c-1.8,0-3.5,0-5.3,0C32.3,39.7,32.3,38.5,32.3,37.1z"/>
	<path class="st4" d="M92,37.2c0,1.3,0,2.6,0,3.9c-1.8,0-3.6,0-5.4,0c0-1.3,0-2.6,0-3.9C88.4,37.2,90.2,37.2,92,37.2z"/>
	<path class="st4" d="M87.1,22.5c0.6,1.2,1.3,2.2,2,3.5c-1.6,1-3.1,1.8-4.7,2.8c-0.6-1.2-1.3-2.2-2-3.5
		C83.9,24.3,85.5,23.3,87.1,22.5z"/>
	<path class="st4" d="M45.5,14.2c1.2-0.6,2.3-1.4,3.5-2c0.9,1.6,1.8,3.1,2.8,4.7c-1.2,0.6-2.3,1.3-3.5,2
		C47.3,17.3,46.4,15.8,45.5,14.2z"/>
	<path class="st4" d="M75.4,12.2c1.2,0.6,2.3,1.4,3.5,2c-1,1.6-1.8,3.1-2.8,4.7c-1.2-0.6-2.2-1.3-3.5-2
		C73.6,15.3,74.4,13.8,75.4,12.2z"/>
	<path class="st4" d="M37.3,22.5c1.6,1,3.1,1.8,4.7,2.7c-0.6,1.2-1.4,2.3-2,3.5c-1.6-1-3.1-1.8-4.7-2.8C36,24.7,36.5,23.6,37.3,22.5
		z"/>
</g>
</svg>
