<?xml version="1.0" encoding="utf-8"?>
<!-- Generator: Adobe Illustrator 23.0.0, SVG Export Plug-In . SVG Version: 6.00 Build 0)  -->
<svg version="1.1" id="Layer_1" xmlns="http://www.w3.org/2000/svg" xmlns:xlink="http://www.w3.org/1999/xlink" x="0px" y="0px"
	 viewBox="0 0 128 128" style="enable-background:new 0 0 128 128;" xml:space="preserve">
<style type="text/css">
	.st0{fill-rule:evenodd;clip-rule:evenodd;fill:#FFFFFF;}
</style>
<path class="st0" d="M110.7,26.5c8.3,10.2,13.2,23.3,13.2,37.3c0,14.2-4.9,27.2-13.2,37.3v-2.8c7.2-9.8,11.5-21.6,11.5-34.6
	c0-12.9-4.2-24.8-11.5-34.6V26.5L110.7,26.5z M110.7,84.8L110.7,84.8l0.6,0.4l1.9-1.1l-2.5-1.1V84.8L110.7,84.8z M110.7,79.7
	L110.7,79.7c1.7,0.2,4-1.5,4.2-4l-1.5,0.2c-0.6,1.5-1.5,2.6-2.8,2.1L110.7,79.7L110.7,79.7z M110.7,74.4L110.7,74.4l0.2-0.2l0.4,0.6
	l1.5-1.3c-2.1-3.2-1.9-5.9-0.6-6.2c1.5-0.2,2.5,2.1,2.3,4.5l1.7-1.1c-0.6-2.8-2.1-4.5-4.2-4.5c-0.4,0-0.8,0.2-1.3,0.4V74.4
	L110.7,74.4z M110.7,63.8L110.7,63.8h4.9l1.1-1.7h-5.9L110.7,63.8L110.7,63.8z M110.7,56.8L110.7,56.8h3.2l0.8-1.9l-4,0.2V56.8
	L110.7,56.8z M110.7,52.8L110.7,52.8h3.2l0.8-1.7h-4V52.8L110.7,52.8z M100.9,16.7V19c3.6,3,7,6.4,9.8,10.2v-2.8
	C107.7,22.9,104.5,19.7,100.9,16.7L100.9,16.7L100.9,16.7z M110.7,101.2v-2.8c-2.8,3.8-6.2,7.2-9.8,10.4v2.1
	C104.5,108.2,107.7,104.8,110.7,101.2L110.7,101.2L110.7,101.2z M110.7,51.1h-2.8l-1.1,1.7h3.8L110.7,51.1L110.7,51.1L110.7,51.1z
	 M110.7,55.1h-2.8l-1.3,1.7h4v-1.7H110.7L110.7,55.1z M110.7,62.1h-2.3c0-0.4,0-1.1,0-1.7h-1.3c0.2,1.3,0.2,2.3,0.2,3.4
	c0.2,8.5-2.1,16.3-6.4,23.1v1.7c0.4-0.6,0.8-1.3,1.3-2.1c1.3-0.4,3-0.6,3.8,0.2c2.5,2.3,0.4,4.9-0.9,5.1c-1.7,0.4-1.5-1.5,0.2-2.8
	c-0.4-0.4-0.6-0.8-0.8-1.3c-2.5,1.7-2.8,4.5-0.2,5.5c1.7,0.8,4.2-0.9,4.7-3c1.1-4.7-3.2-5.9-5.9-5.3c0.6-0.8,1.1-1.9,1.5-2.8
	l6.2,2.5v-1.7l-5.5-2.3c1.3-3.4,2.3-6.8,2.8-10.4h1.9l0.4,1.7c-1.5,1.9-2.3,4-1.5,5.9c0.4,1.1,1.1,1.5,1.9,1.7V78h-0.2
	c-1.1-0.6-0.8-1.9,0.2-3.6v-7.6c-0.6,0.4-1.1,1.1-1.1,1.9h-1.5c0.2-1.5,0.4-3.2,0.4-4.9h2.1L110.7,62.1L110.7,62.1L110.7,62.1z
	 M100.9,104.8v-1.5h1.1v1.5H100.9L100.9,104.8L100.9,104.8z M100.9,97.3L100.9,97.3v-2.5c0.6,0,1.3,0.4,1.3,1.3
	C102.2,96.7,101.6,97.3,100.9,97.3L100.9,97.3z M100.9,76.8v-7.2c0.2-1.7,0.4-3.8,0.4-5.7s-0.2-3.8-0.4-5.7V51
	c1.5,4,2.1,8.5,2.1,12.9C103.1,68.3,102.4,72.7,100.9,76.8L100.9,76.8L100.9,76.8z M100.9,47.7L100.9,47.7V46
	c0.2,1.3,1.5,1.7,3.8,1.7v0.8C103.1,48.7,101.8,48.3,100.9,47.7L100.9,47.7z M100.9,45.4L100.9,45.4v-4.7l4.7-8.1l-4.7,0.9v-1.1
	l8.5-1.5l-7.6,12.3C101.4,44.1,100.9,44.7,100.9,45.4L100.9,45.4z M100.9,24.8v-2.1c0.4,0,0.8-0.2,1.3-0.4L100.9,24.8L100.9,24.8
	L100.9,24.8z M87.6,8.7L87.6,8.7c4.7,2.1,9.3,4.9,13.4,8.1v2.3c-4-3.4-8.7-6.2-13.4-8.5V8.7L87.6,8.7z M100.9,110.9L100.9,110.9
	c-4,3.2-8.7,5.9-13.4,8.1v-1.9c4.7-2.1,9.3-5.1,13.4-8.3V110.9L100.9,110.9z M100.9,22.7L100.9,22.7v2.1l-4,8.3l4-0.6v1.1l-7,1.1
	l4.7-10c-3.2,1.7-7.4,3.4-11,3.6v-1.1C91.8,26.9,96.7,24.6,100.9,22.7L100.9,22.7z M100.9,40.7l-1.1,1.7c-1.1,1.9-0.6,4,1.1,5.3V46
	c0-0.2,0-0.4,0-0.6V40.7L100.9,40.7L100.9,40.7z M100.9,50.9L100.9,50.9c-2.5-7.4-7.4-13.8-13.4-18.2v2.1c7,5.7,11.9,14,13.4,23.3
	V50.9L100.9,50.9z M100.9,69.5L100.9,69.5v7.2c-2.5,7.4-7.4,13.8-13.4,18.5v-2.3C94.6,87.2,99.5,78.9,100.9,69.5L100.9,69.5z
	 M100.9,86.9v1.7c-1.5,2.3-3.2,4.5-5.1,6.4l1.9,2.6c-1.1,0.8-2.3,1.7-3.4,2.5c-1.1,0.6-0.2,2.3,1.3,0.9c1.3-1.3,2.5-2.8,4-1.7
	c1.5,0.9,1.1,2.5-0.2,4h1.5v1.5l-2.8,0.4l-0.6,1.5l-1.3-0.2l0.6-1.5l-2.3,0.4v-0.9c1.7-0.4,3-1.1,3.8-2.3c0.9-1.3-0.4-1.9-1.5-0.6
	c-1.1,1.1-3.6,2.1-4.5,1.5c-1.7-1.5,0-4,3.2-5.3l-1.1-1.5c-2.1,1.9-4.5,3.8-7,5.3v-1.3C92.9,96.9,97.5,92.2,100.9,86.9L100.9,86.9
	L100.9,86.9z M100.9,94.8L100.9,94.8c-0.9,0-1.3,0.4-1.3,1.3c0,0.6,0.4,1.3,1.3,1.3V94.8L100.9,94.8z M87.6,107.1L87.6,107.1
	l1.3,2.8h1.9l-3.2-6.4L87.6,107.1L87.6,107.1z M87.6,84.8L87.6,84.8v-1.5H91V46h-3.4v-1.7h4.9v40.5H87.6L87.6,84.8z M87.6,80.2
	L87.6,80.2c0.6-0.6,1.1-1.5,1.1-2.3s-0.4-1.7-1.1-2.1V80.2L87.6,80.2z M87.6,75.1L87.6,75.1c0.2-0.2,0.6-0.9,0.6-1.7
	c0-0.6-0.2-1.3-0.6-1.9V75.1L87.6,75.1z M87.6,65.7L87.6,65.7V53.4h0.6l1.1,2.1h-1.5v10.4L87.6,65.7L87.6,65.7z M87.6,52.1
	L87.6,52.1v-2.8c0.6,0,1.3,0.6,1.3,1.5C88.8,51.5,88.2,52.1,87.6,52.1L87.6,52.1z M84,7.4v1.7c1.1,0.6,2.3,1.1,3.6,1.5V8.7
	C86.3,8.2,85,7.8,84,7.4L84,7.4L84,7.4z M87.6,119v-1.9c-1.3,0.4-2.5,1.1-3.6,1.5v1.9C85,119.8,86.3,119.4,87.6,119L87.6,119
	L87.6,119z M87.6,27.1c-1.3,0-2.5,0-3.6-0.4v1.1c1.1,0.4,2.1,0.4,3.6,0.4V27.1L87.6,27.1L87.6,27.1z M87.6,32.6
	c-1.3-1.1-2.5-1.7-3.6-2.5v2.1c1.3,0.8,2.3,1.7,3.6,2.6V32.6L87.6,32.6L87.6,32.6z M87.6,44.3L87.6,44.3V46H84v-1.7H87.6L87.6,44.3z
	 M87.6,49.4L87.6,49.4v2.8c-0.9,0-1.5-0.6-1.5-1.3C86.1,50,86.7,49.4,87.6,49.4L87.6,49.4z M87.6,53.4v12.3l-1.9-1.1v-3
	c-0.4,0.4-1.1,0.8-1.7,1.1v-3l0.6,1.1c0.4-0.2,0.8-0.6,1.1-0.9v-1.1c-0.2,0-0.2,0-0.2,0c-0.2-0.4-0.8-0.6-1.5-0.6V57
	c0.6,0.2,1.3,0.6,1.7,1.3v-2.5H84v-3.4c0.2,0.4,0.6,0.6,1.1,1.1h0.6c-0.6-0.6-1.3-1.5-1.7-2.1v-1.7c1.1,1.3,1.7,2.8,3,3.8L87.6,53.4
	L87.6,53.4L87.6,53.4z M87.6,71.5c-0.6-0.4-1.3-0.9-2.5-0.9H84v1.9h0.6c0.8,0,1.5,0.2,1.5,1.1c0,0.8-0.6,1.1-1.5,1.1H84v1.7h0.9
	c0.8,0,1.5,0.4,1.5,1.3c0,1.1-0.4,1.7-1.5,1.7H84V81h0.4c1.9,0,2.5-0.2,3.2-0.9v-4.5c-0.2-0.2-0.4-0.2-0.6-0.2
	c0.2-0.2,0.4-0.2,0.6-0.4V71.5L87.6,71.5L87.6,71.5z M87.6,83.3H84v1.5h3.6V83.3L87.6,83.3L87.6,83.3z M87.6,92.9
	c-1.3,1.1-2.3,1.9-3.6,2.5v2.1c1.1-0.6,2.3-1.5,3.6-2.3V92.9L87.6,92.9L87.6,92.9z M87.6,100.3c-1.3,0.8-2.5,1.5-3.6,2.1v1.3
	c0.4-0.2,0.9-0.4,1.3-0.6l1.1,1.7L84,106v1.7l3-1.5l0.6,0.8v-3.6l-0.9-1.5c0.2,0,0.4-0.2,0.9-0.4V100.3L87.6,100.3L87.6,100.3z
	 M83.1,7L83.1,7c0.2,0.2,0.4,0.2,0.8,0.4v1.7c-0.4,0-0.6,0-0.8-0.2V7L83.1,7z M84,120.5L84,120.5c-0.4,0-0.6,0-0.8,0.2v-1.9
	c0.2,0,0.4-0.2,0.8-0.2V120.5L84,120.5z M84,26.7L84,26.7v1.1c-0.4,0-0.6-0.2-0.8-0.2v-1.1C83.3,26.5,83.5,26.7,84,26.7L84,26.7z
	 M84,30.1L84,30.1v2.1c-0.2-0.2-0.6-0.4-0.8-0.4v-2.1C83.3,29.9,83.5,29.9,84,30.1L84,30.1z M84,44.3h-0.8V46H84V44.3L84,44.3
	L84,44.3z M84,49.6c-0.2-0.2-0.6-0.4-0.8-0.6v1.5c0.2,0.2,0.6,0.4,0.8,0.8V49.6L84,49.6L84,49.6z M84,52.4c-0.4-0.2-0.6-0.4-0.8-0.6
	v1.7h0.2h-0.2v2.3H84V52.4L84,52.4L84,52.4z M84,57c-0.2,0-0.6,0-0.8,0v1.5c0.2,0,0.6-0.2,0.8-0.2V57L84,57L84,57z M84,59.8
	l-0.8-1.1V61l0.2,0.2h-0.2v1.5c0.2,0,0.6,0,0.8,0V59.8L84,59.8L84,59.8z M84,70.6L84,70.6v1.9h-0.8v-1.9H84L84,70.6z M84,74.6
	L84,74.6v1.7h-0.8v-1.7H84L84,74.6z M84,79.3L84,79.3V81h-0.8v-1.7H84L84,79.3z M84,83.3L84,83.3v1.5h-0.8v-1.5H84L84,83.3z
	 M84,95.4L84,95.4v2.1c-0.4,0.2-0.6,0.2-0.8,0.4v-2.1C83.3,95.8,83.8,95.6,84,95.4L84,95.4z M84,102.4L84,102.4v1.3
	c-0.2,0.2-0.6,0.2-0.8,0.4v-1.3C83.3,102.6,83.8,102.6,84,102.4L84,102.4z M84,106L84,106v1.7l-0.4,0.2c0.4,1.7,0.2,3.2-0.4,4.2
	v-5.9L84,106L84,106z M82.1,6.7v1.9c0.4,0,0.9,0.2,1.1,0.2V7C82.9,7,82.5,6.7,82.1,6.7L82.1,6.7L82.1,6.7z M83.1,120.7v-1.9
	c-0.2,0.2-0.6,0.2-1.1,0.4v1.7C82.5,120.9,82.9,120.7,83.1,120.7L83.1,120.7L83.1,120.7z M83.1,26.5c-0.2-0.2-0.6-0.2-1.1-0.4v0.8
	c0.4,0.2,0.6,0.4,1.1,0.6V26.5L83.1,26.5L83.1,26.5z M83.1,29.7c-0.2-0.2-0.6-0.4-1.1-0.6v2.1c0.4,0.2,0.9,0.4,1.1,0.6V29.7
	L83.1,29.7L83.1,29.7z M83.1,44.3L83.1,44.3V46H82v-1.7H83.1L83.1,44.3z M83.1,49L83.1,49v1.5c-0.2-0.4-0.4-0.6-0.6-0.8
	c-0.2,0-0.2-0.2-0.4-0.2v-1.3c0.2,0,0.2,0.2,0.2,0.2C82.7,48.5,82.9,48.7,83.1,49L83.1,49z M83.1,51.7L83.1,51.7v1.7L82,52.5V51
	C82.5,51.3,82.9,51.5,83.1,51.7L83.1,51.7z M83.1,53.4L83.1,53.4v2.3H82v-2.3H83.1L83.1,53.4z M83.1,57L83.1,57v1.5v0.2V61L82,59.5
	V57c0.2,0,0.4,0,0.6,0C82.9,57,82.9,57,83.1,57L83.1,57z M83.1,61.3L83.1,61.3v1.5c-0.4,0-0.6,0-1.1-0.2v-1.3
	C82.5,61.3,82.7,61.3,83.1,61.3L83.1,61.3z M83.1,70.6H82v1.9h1.1V70.6L83.1,70.6L83.1,70.6z M83.1,74.6H82v1.7h1.1V74.6L83.1,74.6
	L83.1,74.6z M83.1,79.3H82V81h1.1V79.3L83.1,79.3L83.1,79.3z M83.1,83.3H82v1.5h1.1V83.3L83.1,83.3L83.1,83.3z M83.1,95.8
	c-0.2,0.2-0.6,0.4-1.1,0.6v2.1c0.4-0.2,0.9-0.4,1.1-0.6V95.8L83.1,95.8L83.1,95.8z M83.1,102.8c-0.2,0-0.6,0.2-1.1,0.4v1.3
	c0.4-0.2,0.9-0.4,1.1-0.4V102.8L83.1,102.8L83.1,102.8z M83.1,106.2l-0.4,0.2l-0.6-1.5v8.3c0.4-0.2,0.9-0.6,1.1-1.1L83.1,106.2
	L83.1,106.2L83.1,106.2z M80.6,6.3L80.6,6.3c0.4,0,1.1,0.2,1.5,0.4v1.9C81.7,8.5,81,8.2,80.6,8V6.3L80.6,6.3z M82.1,120.9
	L82.1,120.9c-0.4,0.2-1.1,0.4-1.5,0.6v-1.9c0.4-0.2,1.1-0.2,1.5-0.4V120.9L82.1,120.9z M82.1,26.1L82.1,26.1v0.8c0,0,0,0,0-0.2v-0.9
	C82.1,25.8,82.1,25.8,82.1,26.1L82.1,26.1z M82.1,29L82.1,29v2.1c-0.4-0.4-1.1-0.6-1.5-0.8v-1.9C81,28.6,81.6,28.8,82.1,29L82.1,29z
	 M82.1,44.3h-1.5V46h1.5V44.3L82.1,44.3L82.1,44.3z M82.1,48.1c-0.4-0.2-1.1-0.4-1.5-0.6V49h0.2c0.4,0,0.9,0.2,1.3,0.4V48.1
	L82.1,48.1L82.1,48.1z M82.1,51.1c0-0.2-0.2-0.2-0.2-0.2c-0.4-0.4-0.9-0.6-1.3-0.6v1.5h0.2l1.3,0.9V51.1L82.1,51.1L82.1,51.1z
	 M82.1,53.4h-1.5v2.3h1.5V53.4L82.1,53.4L82.1,53.4z M82.1,57c-0.6,0-1.1,0.2-1.5,0.6v4.2c0.4,0.2,0.9,0.6,1.5,0.6v-1.3
	c-0.4,0-0.6-0.2-0.9-0.4c-0.4-0.6-0.2-1.3,0.6-1.9l0.2,0.6L82.1,57L82.1,57L82.1,57z M82.1,70.6L82.1,70.6v1.9v2.1v1.7v3V81h-1.5
	V70.6H82.1L82.1,70.6z M82.1,83.3L82.1,83.3v1.5h-1.5v-1.5H82.1L82.1,83.3z M82.1,96.5L82.1,96.5v2.1c-0.4,0.2-1.1,0.4-1.5,0.9v-2.1
	C81,97.1,81.6,96.9,82.1,96.5L82.1,96.5z M82.1,103.3L82.1,103.3v1.3c0,0,0,0-0.2,0l0.2,0.4v8.3c-0.4,0.2-1.1,0.2-1.5,0.2v-1.1
	c1.3,0.2,1.9-1.7,1.1-3.6c-0.4,0-0.9,0.2-1.1,0.2v-1.7c0.2-0.2,0.2-0.2,0.4-0.4l-0.4-1.1v-1.9C81,103.7,81.6,103.5,82.1,103.3
	L82.1,103.3z M63.8,3.8v1.9c5.7,0,11.5,0.9,16.8,2.3V6.3C75.3,4.6,69.5,3.8,63.8,3.8L63.8,3.8L63.8,3.8z M80.6,121.5v-1.9
	c-5.3,1.7-11,2.5-16.8,2.5v1.7C69.5,123.9,75.3,123,80.6,121.5L80.6,121.5L80.6,121.5z M80.6,28.4c-5.1-2.6-10.8-3.8-16.8-3.8v1.7
	c5.9,0,11.7,1.5,16.8,4V28.4L80.6,28.4L80.6,28.4z M80.6,44.3L80.6,44.3h-5.1v39H73V81h-2l-0.9-1.3v-4.5c0.6-0.9,1.1-0.4,1.9-2.1
	l0.4-1.3c0.4-0.2,0.6-1.1,0.6-1.9h-1.7c0,1.7-1.5,2.3-2.3,2.3V69c0.6-0.2,1.1-0.2,1.9-1.3l0.6-1.1c0.4-0.2,0.6-0.4,0.9-0.9v-0.8
	h-2.1l-0.2,1.5h-2.3v-2.1c1.1-0.6,2.5-1.3,2.8-2.8c0.2,0,1.1-0.6,1.3-0.6v-1.3h-1.7l-0.6,1.1c-0.4,0.8-2.3,0.6-2.1,0.6V59
	c1.1-0.4,2.1-1.1,2.5-1.9l1.1-0.4V55h-1.9c0,0.6-0.4,1.3-1.1,1.7c-0.4,0-0.6,0-1.1,0v-2.1c1.1-0.6,2.3-1.1,2.5-2.6l1.1-0.4v-1.3
	h-1.9c0,0.4-0.6,1.1-0.8,1.5h-1.1v-1.7c1.1-0.6,1.7-1.5,1.9-2.8l1.3-0.2v-1.5h-2c-0.4,1.9-1.3,1.9-1.7,1.7v-1.7
	c1.1-0.6,1.1-0.8,2.1-1.9c0.8-0.4,1.5-2.3,0.6-2.1h-0.9c-0.6,0-0.6,1.1-1.1,1.5c-0.2,0-0.8,0.2-1.3,0.2v-1.9
	c1.1-0.2,2.3-1.1,2.6-2.3h0.6c0-0.2,0-0.6,0.2-1.1c-0.6,0-1.3,0-1.7,0c-0.2,0.9-0.9,1.3-1.5,1.5c-0.9-0.6-1.1-0.6-1.3-1.7
	c0-1.5,1.5-2.8,0.4-4.5l-0.2-1.1c0-1.7-0.6-1.9-1.3-2.6v55h16.8v-1.5h-3.8V46h3.8L80.6,44.3L80.6,44.3z M80.6,47.5L80.6,47.5V49
	h-1.3l-0.8-1.5H80.6L80.6,47.5z M80.6,50.2L80.6,50.2v1.5h-1.1l-1-1.7c0.6,0,1.1,0,1.7,0C80.4,50,80.4,50,80.6,50.2L80.6,50.2z
	 M80.6,53.4L80.6,53.4v2.3h-1.1l-0.8-2.3H80.6L80.6,53.4z M80.6,57.7L80.6,57.7v4.2c-0.6-0.6-1.1-1.3-1.1-2.1
	C79.3,58.9,79.7,58.1,80.6,57.7L80.6,57.7z M80.6,70.6h-0.4V81h0.4V70.6L80.6,70.6L80.6,70.6z M80.6,97.3c-5.1,2.6-10.8,4-16.8,4
	v1.7c5.9,0,11.7-1.3,16.8-3.6V97.3L80.6,97.3L80.6,97.3z M80.6,103.9c-5.3,2.1-10.8,3.4-16.8,3.4v8.7l1.1,0.9v-3.6
	c0.9-0.4,1.5-0.6,2.1-1.1c1.5-1.1,4-1.9,4.7-0.4c0.4,1.3-1.9,2.1-3.8,1.7c-0.2,0.6-0.4,1.3-0.6,1.7c1.7,0.2,4.5,0.4,5.3-1.5
	c0.9-2.1,0.2-4-2.8-4c-1.5-0.2-3.2,0.6-4.9,1.5v-2.8c5.5,0,10.6-1.1,15.5-3l0.2,0.4L80.6,103.9L80.6,103.9L80.6,103.9z M80.6,107.3
	L80.6,107.3c-3.8,1.7-3.4,4.9-1.1,5.9c0.2,0,0.6,0.2,1.1,0.2v-1.1c-0.2,0-0.6-0.2-0.8-0.2c-1.3-0.9-1.1-2.3,0.8-3.2V107.3
	L80.6,107.3z M63.8,17.8v-1.7l5.1-8.5l4.2,13.8c1.1,3.4,3,3.6,5.3,0.6l0.6,0.6c-2.8,3.8-6.8,2.8-7.9-0.4l-3.4-10.6L63.8,17.8
	L63.8,17.8L63.8,17.8z M63.8,123.9L63.8,123.9c-7,0-14-1.3-20.4-3.6v-1.9c6.4,2.3,13.4,3.8,20.4,3.8L63.8,123.9L63.8,123.9z
	 M43.4,7.4L43.4,7.4C49.8,5,56.8,3.8,63.8,3.8v1.9c-7,0-14,1.3-20.4,3.6V7.4L43.4,7.4z M63.8,16.1v1.7l-2.3,3.8l-4.2-10
	c-1.5,5.7-4.7,13.4-9.3,14l-0.6-0.4c6.4-2.3,8.1-11.2,10.4-17.8l4.7,11L63.8,16.1L63.8,16.1L63.8,16.1z M63.8,24.6L63.8,24.6v1.7
	c-7.4,0-14.4,2.3-20.4,6.2v-2.1C49.4,26.7,56.4,24.6,63.8,24.6L63.8,24.6z M63.8,29.9v55H43.4v-1.5h7.2V46h-7.2v-1.7h8.7v39h2.5
	v-2.1h1.7l1.1-1.5v-4.5c-1.1-0.6-1.9-1.5-2.3-3.4l-0.9-0.4v-1.3h1.5c0.2,1.5,1.3,2.1,2.1,2.1V69c-0.8,0-1.5-0.6-2.1-1.9l-0.2-0.6
	c-0.4,0-0.9-0.2-1.1-0.6v-0.8h2.1l0.2,1.5h1.1l0.2-2.1c-1.1-0.8-1.9-1.9-2.5-3.2c-0.2,0-0.4-0.2-0.6-0.2c0-0.4,0-0.9,0-1.3h1.7v1.1
	c0,0.8,1.9,0.6,1.9,0.6l-0.2-2.3c-0.9-0.2-1.7-1.3-2.3-2.1l-0.9-0.2v-1.3H57c0,0.4,0.2,0.8,0.8,1.3c0.2,0,0.6,0,1.1,0v-2.1
	c-1.3-0.6-2.1-1.5-2.3-3h-0.8v-1.3h1.9c0,0.4,0.2,1.1,0.6,1.5l0.8-0.2v-1.5c-1.1-0.6-1.9-1.5-2.1-2.8l-1-0.2v-1.5h1.5
	c0.4,1.9,1.5,1.9,2.1,1.7v-1.7c-1.1-0.4-1.9-0.8-2.1-1.9c-0.8-0.4-1.7-1.9-0.8-1.9h0.8c0.6,0,0.9,1.1,1.3,1.7c0.2,0,0.6,0,0.9,0
	v-1.9c-1.1,0-1.9-1.3-2.1-2.6H57c-0.2-0.2-0.2-0.6-0.2-1.1c0.6,0,1.1,0,1.7,0c0.2,0.9,0.8,1.3,1.5,1.5l0.4-0.6c0-0.4,0-0.9,0-1.3
	c-0.4-1.7-1.3-3,0.4-4.2L60,31.8c-0.4-3.4,1.1-2.3,2.3-3.4c0.2-0.4,0.9-0.2,1.1,0.2C63.4,29.2,63.6,29.7,63.8,29.9L63.8,29.9
	L63.8,29.9z M63.8,101.4L63.8,101.4v1.7c-7.4,0-14.4-2.1-20.4-5.7v-1.9C49.4,99,56.4,101.4,63.8,101.4L63.8,101.4z M63.8,107.3v8.7
	l-0.2-0.4v-1.9c-2.3,0.8-4.9,1.3-7,0.2c-1.7-1.1-2.3-2.8,0.2-3.8c1.5-0.9,3.2-0.9,5.1,0.2c-0.4,0.2-0.9,0.6-1.1,1.1
	c-2.3-0.9-4-0.2-3.8,0.9c0.2,1.3,2.5,1.3,6.6-0.2l-0.2-3.6c-4,0-7.9-0.4-11.7-1.5l-2.8,7.6l-0.6-1.9l1.9-6.4
	c-1.3-0.2-2.5-0.9-3.8-1.3l-0.2,1.1c1.1,0.4,1.7,1.5,1.3,3s-1.9,2.3-4,2.6V110c1.5,0.2,2.8,0,3-1.1s-0.9-1.9-3-1.9v-1.5l1.1,0.2
	l0.4-1.3c-0.4-0.2-0.9-0.4-1.5-0.8v-1.3c1.9,1.1,3.8,1.9,5.7,2.5c-0.6-1.9-1.5-3.2-3.2-3.2v-1.5c1.9,0.4,3.6,1.7,4.9,4.2h1.5
	l0.2,1.5C56.2,106.7,60,107.3,63.8,107.3L63.8,107.3L63.8,107.3z M43.4,81h1.5l1.9-8.7V81h1.9V70.6h-3l-1.9,8.3l-0.4-1.5V81L43.4,81
	L43.4,81z M43.4,60.6h2.1v4.5l1.9,1.5V55.7H49l-0.6-2.1h-4.9v2.1h2.1v2.8h-2.1L43.4,60.6L43.4,60.6L43.4,60.6z M43.4,28.8L43.4,28.8
	c0.9-1.1,1.1-2.6,0.9-4.2h-0.9V28.8L43.4,28.8z M43.4,120.3v-1.9c-3.4-1.3-6.8-3-10-4.9v2.1C36.7,117.5,40.1,119,43.4,120.3
	L43.4,120.3L43.4,120.3z M33.5,12.1v2.1c3.2-1.9,6.6-3.6,10-4.9V7.4C40.1,8.7,36.7,10.3,33.5,12.1L33.5,12.1L33.5,12.1z M43.4,24.6
	c0.4,3.8-1.1,5.1-4.2,3.4l-5.7-2.8v2.5l5.1,2.3c1.9,0.8,3.8,0.2,4.9-1.3L43.4,24.6L43.4,24.6L43.4,24.6z M43.4,30.3L43.4,30.3
	c-3.8,2.3-7.2,5.3-10,8.7v2.8c2.8-3.6,6.2-7,10-9.3V30.3L43.4,30.3z M43.4,44.3H35v39v1.5h8.5v-1.5h-7V46h7L43.4,44.3L43.4,44.3
	L43.4,44.3z M43.4,53.6L43.4,53.6h-5.3l0.6,2.1h1.1v2.8c-1.7,0.6-1.9,1.3-0.9,3c0.4,0.9,1.3,1.5,2.3,1.5c0.6-0.6,0.4-1.3,0.4-2.3
	h1.7v-2.1h-1.7v-2.8h1.7L43.4,53.6L43.4,53.6z M43.4,77.4L43.4,77.4L42,70.6h-3.2V81h2.1v-8.7l1.9,8.7h0.6L43.4,77.4L43.4,77.4z
	 M43.4,95.4c-3.8-2.5-7.2-5.7-10-9.6v2.8c2.8,3.6,6.2,6.4,10,8.7V95.4L43.4,95.4L43.4,95.4z M43.4,102.2c0,0-0.2-0.2-0.4-0.2
	l-0.6,1.1c0.4,0.2,0.9,0.4,1.1,0.4L43.4,102.2L43.4,102.2L43.4,102.2z M43.4,105.4L43.4,105.4h-0.6c-1.3-2.1-3-3.4-4.9-3.4
	s-3.4,1.7-1.3,5.9l1.5-0.6c-1.3-1.3-1.9-2.8-0.9-3.6c0.9-1.1,2.1-0.2,3.4,1.7l-0.2,0.4l0.2,1.3c1.1-0.2,2.1-0.2,2.8-0.2V105.4
	L43.4,105.4z M43.4,109.8c-0.4,0-1.1-0.2-1.5-0.4v1.9c0.6,0.2,1.1,0.2,1.5,0.2V109.8L43.4,109.8L43.4,109.8z M33.5,92.5V90
	c0.9,0,1.5,0.4,1.5,1.3C35,91.8,34.3,92.5,33.5,92.5L33.5,92.5L33.5,92.5z M33.5,115.6L33.5,115.6c-0.2-0.2-0.4-0.4-0.6-0.4V113
	c0.2,0.2,0.4,0.4,0.6,0.4V115.6L33.5,115.6z M32.8,12.5L32.8,12.5c0.2,0,0.4-0.2,0.6-0.4v2.1c-0.2,0.2-0.4,0.2-0.6,0.4V12.5
	L32.8,12.5z M33.5,25.2L33.5,25.2v2.5l-0.6-0.4V25L33.5,25.2L33.5,25.2z M33.5,39L33.5,39v2.8c-0.2,0.4-0.4,0.8-0.6,1.1v-3
	C33.1,39.6,33.3,39.2,33.5,39L33.5,39z M33.5,85.9L33.5,85.9v2.8c-0.2-0.2-0.4-0.6-0.6-0.9v-3C33.1,85.2,33.3,85.5,33.5,85.9
	L33.5,85.9z M33.5,89.9L33.5,89.9v2.5c-0.2,0-0.4-0.2-0.6-0.2v-2.1C33.1,89.9,33.3,89.9,33.5,89.9L33.5,89.9z M32.8,95.4L32.8,95.4
	v-1.3c0.2,0.2,0.4,0.4,0.6,0.6L32.8,95.4L32.8,95.4z M32.8,115.2V113c-1.3-0.9-2.5-1.7-3.8-2.6v2.1
	C30.3,113.5,31.6,114.3,32.8,115.2L32.8,115.2L32.8,115.2z M29,15v2.1c1.3-0.8,2.6-1.7,3.8-2.6v-2.1C31.6,13.3,30.3,14.2,29,15
	L29,15L29,15z M32.8,25L29,23.1v2.6l3.8,1.7V25L32.8,25L32.8,25z M32.8,39.8c-1.5,1.9-2.8,3.8-3.8,5.9v4c1.1-2.3,2.3-4.7,3.8-7V39.8
	L32.8,39.8L32.8,39.8z M32.8,84.8c-1.5-2.1-2.8-4.5-3.8-7v4c1.1,2.1,2.3,4,3.8,5.9V84.8L32.8,84.8L32.8,84.8z M32.8,90.1
	c-0.4,0.2-0.6,0.4-0.6,1.1c0,0.4,0.2,0.9,0.6,1.1V90.1L32.8,90.1L32.8,90.1z M32.8,94.2L32.8,94.2c-1.5-1.3-2.8-2.8-3.8-4.5v1.5
	l1.5,1.9l-1.5,1v2.1l2.3-1.9c0.4,0.4,0.9,0.9,1.3,1.3l0.2-0.2V94.2L32.8,94.2z M29,36L29,36v-2.3l0.8,0.4L29,31.4v-3.6l2.6,9.1
	L29,36L29,36z M29,112.6L29,112.6c-3-2.1-5.7-4.7-8.5-7.2v-2.5c2.5,2.8,5.5,5.3,8.5,7.6V112.6L29,112.6z M20.5,22.2L20.5,22.2
	c2.8-2.6,5.5-5.1,8.5-7.2v2.1c-3,2.3-5.9,4.9-8.5,7.6V22.2L20.5,22.2z M29,23.1v2.6l-0.6-0.2l0.6,2.3v3.6l-2.8-9.6L29,23.1L29,23.1
	L29,23.1z M29,33.7L29,33.7V36l-7.9-2.8c3.2,5.1,6.8,12.5,4,16.3l-0.9,0.2c2.1-4.9-0.9-10.6-3.8-15.9v-3.2L29,33.7L29,33.7z
	 M29,45.8v4c-1.7,4.5-2.8,9.1-2.8,14s1.1,9.6,2.8,14v4c-2.8-5.3-4.5-11.5-4.5-18C24.6,57.2,26.3,51.1,29,45.8L29,45.8L29,45.8z
	 M29,89.7L29,89.7v1.5l-1.5-1.7c-0.6,2.8-2.1,3.4-4.7,2.1c0,2.1,2.1,3.2,4.7,3.6l1.5-1.1v2.1l-3.8,3.2l-0.4-1.7l1.5-1.5
	c-5.3-1.5-5.3-4.2-4-7.4c1.7,2.3,3.4,2.1,4-1.1c-1.1-1.5-1.9-3.2-2.8-4.9l-3,1.1V79c0.6,0.6,0.9,1.7,1.3,2.8l1.1-0.4
	c-0.8-2.1-1.7-4.2-2.3-6.4v-6.6c0.4,3.8,1.3,7.4,2.8,10.8c1.1-1.3,1.5-2.8,0.6-4.2l1.3-0.6c0.6,1.7,0.4,3.8-0.9,6.4l0.6,1.3
	l-0.4,0.4C25.8,85,27.3,87.6,29,89.7L29,89.7z M20.5,105.4v-2.5c-0.6-0.9-1.3-1.7-2.1-2.5v2.8C19.3,103.9,19.9,104.5,20.5,105.4
	L20.5,105.4L20.5,105.4z M18.4,24.6v2.8c0.8-0.9,1.5-1.7,2.1-2.6v-2.5C19.9,23.1,19.3,23.9,18.4,24.6L18.4,24.6L18.4,24.6z
	 M20.5,30.7l-2.1-0.9c0.6,1.3,1.5,2.8,2.1,4V30.7L20.5,30.7L20.5,30.7z M20.5,68.5c0-1.5-0.2-3.2-0.2-4.7h-1.1c0,1.3,0,2.3,0,3.4
	l-0.8,0.2v1.7l1.3-0.2l0.4,3l-1.7,0.2V74l1.9-0.4c0,0.6,0.2,1.1,0.2,1.5L20.5,68.5L20.5,68.5L20.5,68.5z M20.5,79.1
	c-0.4-0.9-1.3-1.5-2.1-1.7v1.9c0.8,0.6,1.5,2.3,1.9,4.9l0.2-0.2V79.1L20.5,79.1L20.5,79.1z M18.4,85.2v-1.9c0.4,0.2,0.6,0.4,0.8,0.8
	L18.4,85.2L18.4,85.2L18.4,85.2z M18.4,57.2L18.4,57.2v-1.7h2.1l-0.8,1.7H18.4L18.4,57.2z M18.4,53.4L18.4,53.4v-1.9h2.1l-0.6,1.9
	H18.4L18.4,53.4z M18.4,103.1L18.4,103.1c-1.7-2.1-3.4-4.5-5.1-6.8v-3.4c1.5,2.5,3.2,5.1,5.1,7.4V103.1L18.4,103.1z M13.3,31.4
	L13.3,31.4c1.7-2.3,3.4-4.7,5.1-6.8v2.8c-1.9,2.3-3.6,4.9-5.1,7.4L13.3,31.4L13.3,31.4z M18.4,29.9L18.4,29.9v21.6v1.9h-5.1v-1.3
	l0.4-0.6h4.7L18.4,29.9L18.4,29.9z M18.4,55.5h-4.7L13.3,56v1.3h5.1V55.5L18.4,55.5L18.4,55.5z M18.4,67.4L18.4,67.4v1.7h-1.7
	l0.4,3.2l1.3-0.2V74l-5.1,0.6v-1.5l1.9-0.4l-0.4-3.2c-0.4,0-1.1-0.2-1.5-0.2v-1.9c0.2,0,0.4,0,0.4,0c0.6-0.2,0.8-0.9,0.6-1.5
	s-0.6-1.1-1.1-1.1V63c1.5-0.2,3,0.8,3.4,4.5L18.4,67.4L18.4,67.4z M18.4,77.4L18.4,77.4v1.9c-0.2-0.2-0.4-0.2-0.9-0.2
	c-1.9,0-1.7,2.5-0.6,3.6c0.6,0.2,1.1,0.2,1.5,0.6v1.9l-0.2,0.2L16.3,85l-1.9,1.1c-0.2,0.2-0.6,0.4-1.1,0.4v-2.3l0.2-0.2l0.9,0.6
	l0.9-0.9l-1.9-1.1V81l1.5,1.1c-0.4-2.8,0.4-4.5,2.5-4.7C17.8,77.4,18.2,77.4,18.4,77.4L18.4,77.4z M13.3,96.3v-3.4
	c-4.9-8.5-7.6-18.5-7.6-29.1s2.8-20.6,7.6-29.1v-3.4c-5.9,9.3-9.6,20.6-9.6,32.5C3.8,75.7,7.4,86.9,13.3,96.3L13.3,96.3L13.3,96.3z
	 M13.3,52.1L13.3,52.1l-0.6,1.3h0.6V52.1L13.3,52.1z M13.3,56v1.3h-0.8L13.3,56L13.3,56L13.3,56z M13.3,63L13.3,63
	c-1.1,0.2-2.1,1.5-2.1,3.2c0,1.5,0.6,2.6,2.1,3.2v-1.9c-0.4,0-0.8-0.4-0.8-1.1c-0.2-0.6,0-1.5,0.6-1.5c0-0.2,0.2-0.2,0.2,0L13.3,63
	L13.3,63z M13.3,73.2L13.3,73.2h-0.6c-0.2-1.1-0.6-2.1-1.3-3.2l-0.8,0.4c1.3,2.5,0.2,4.2-1.1,3c-1.5-1.3-0.4-3.8,0-5.5l-0.6-0.2
	c-1.1,2.3-1.7,4.5,0,7c1.3,1.9,2.5,1.3,3.8,0.2l0.6-0.2L13.3,73.2L13.3,73.2z M13.3,81L13.3,81l-1.5-0.9l-0.6,1.1l2.1,1.5L13.3,81
	L13.3,81z M13.3,84.2L13.3,84.2L12,85.3l0.6,0.9c0.2,0.2,0.4,0.4,0.6,0.4L13.3,84.2L13.3,84.2z"/>
</svg>
