<?xml version="1.0" encoding="utf-8"?>
<!-- Generator: Adobe Illustrator 23.0.0, SVG Export Plug-In . SVG Version: 6.00 Build 0)  -->
<svg version="1.1" id="Layer_1" xmlns="http://www.w3.org/2000/svg" xmlns:xlink="http://www.w3.org/1999/xlink" x="0px" y="0px"
	 viewBox="0 0 128 128" style="enable-background:new 0 0 128 128;" xml:space="preserve">
<style type="text/css">
	.st0{display:none;opacity:0.85;fill:#5B0303;stroke:#000000;stroke-miterlimit:10;enable-background:new    ;}
	.st1{fill:none;stroke:#FFFFFF;stroke-width:5;stroke-miterlimit:10;}
</style>
<rect x="-7.5" y="-9.5" class="st0" width="165" height="149"/>
<g>
	<path class="st1" d="M103.7,64.6c2.9-2.6,4.9-5.6,5.9-9.2c4-15.1-13.3-32.8-38.7-39.5c-25.3-6.7-49.2,0-53.2,15.1
		C15.2,40.5,21,50.9,32,59.1"/>
	<path class="st1" d="M34.5,43.2c-0.8-0.8-1.5-1.5-2-2.2c-3.7-4.6-5.3-9.5-4.1-14.1c3-11.2,21.7-15.9,41.8-10.5s34.1,18.7,31.1,29.9
		c-0.9,3.4-3.2,6.1-6.6,8.2"/>
	<path class="st1" d="M103.7,64.6c-1,0.9-2.1,1.7-3.2,2.4c1.8,2.7,2.8,5.5,2.7,8.5c-0.6,11.5-18,20-38.8,18.9
		c-8.2-0.4-15.7-2.3-21.8-5.1c-4.4-1.5-7.5-3.3-8.6-5.4c-4.1-3.6-6.4-7.9-6.2-12.3c0.2-4.1,2.6-7.8,6.4-10.8c-0.7-0.5-1.5-1-2.2-1.5
		c-8.2,4.6-13.4,11.1-13.8,18.6c-0.8,15.4,19.8,29.1,46,30.5s48.1-10.1,48.9-25.7C113.5,76.1,109.9,69.8,103.7,64.6z"/>
	<path class="st1" d="M53.8,53.1c-0.5-0.2-1-0.3-1.5-0.5"/>
	<path class="st1" d="M59.5,54.5"/>
	<path class="st1" d="M82.3,72.8c7.1-0.8,13.4-2.7,18.2-5.8"/>
	<path class="st1" d="M34.2,60.6c6.2,4.2,13.7,7.7,22.2,9.9c1.6,0.4,3.2,0.8,4.8,1.1"/>
	<path class="st1" d="M99.5,82c0-4-7-7.4-17.2-9.2c-6.5,0.7-13.6,0.3-21-1.1C45.5,72.4,33.5,76.8,33.5,82c0,0.6,0.2,1.2,0.5,1.8
		c2.3,2.1,5.2,3.9,8.6,5.4c6,2,14.5,3.3,23.9,3.3C84.7,92.5,99.5,87.8,99.5,82z"/>
	<path class="st1" d="M67.2,52c8.3,0.4,15.6,1.9,22.3,4.5c1.8-0.6,3.8-1.2,5.2-2c0.4-0.5,0.7-1,0.8-1.5c1.4-5.6-11.8-13.8-29.5-18.1
		S32.9,31.4,31.5,37c-0.3,1.2,0.1,2.5,1,3.9c0.6,0.8,1.3,1.5,2,2.2c3.5,3.3,9.9,6.7,17.8,9.4C57,51.9,62,51.7,67.2,52z"/>
	<path class="st1" d="M53.8,53.1c2.3,0.8,4.7,1.5,7.2,2.1c10.5,2.6,22.5,3.3,28.5,1.3"/>
</g>
</svg>
