<?xml version="1.0" encoding="utf-8"?>
<!-- Generator: Adobe Illustrator 23.0.0, SVG Export Plug-In . SVG Version: 6.00 Build 0)  -->
<svg version="1.1" id="Layer_1" xmlns="http://www.w3.org/2000/svg" xmlns:xlink="http://www.w3.org/1999/xlink" x="0px" y="0px"
	 viewBox="0 0 128 128" style="enable-background:new 0 0 128 128;" xml:space="preserve">
<style type="text/css">
	.st0{display:none;fill:#F40C0C;}
	.st1{display:none;opacity:0.85;fill:#5B0303;stroke:#000000;stroke-miterlimit:10;enable-background:new    ;}
	.st2{fill:none;stroke:#FFFFFF;stroke-width:6;stroke-miterlimit:10;}
	.st3{fill:none;stroke:#FFFFFF;stroke-width:5;stroke-miterlimit:10;}
	.st4{fill:#FFFFFF;}
</style>
<rect class="st0" width="128" height="128"/>
<rect x="-7.5" y="-9.5" class="st1" width="165" height="149"/>
<g>
	<polygon class="st2" points="102.9,52.2 102.9,17.7 80.8,17.7 80.8,30.1 	"/>
	<g>
		<path class="st2" d="M78,29.4c0.3,0,0.7,0,1,0L59.5,10l-0.1,0.1l-20,20"/>
		<path class="st2" d="M20.9,48.6l-7.7,7.7l7-0.1"/>
		<path class="st2" d="M103,55.4h2l-2-2c0,0.3,0,0.7,0,1V55.4z"/>
		<path class="st2" d="M79,29.4l23.9,23.9C94.2,43.6,85.9,36.4,79,29.4z"/>
		<path class="st2" d="M20.2,54.3v30.4c0,19,11.2,34.2,25,34.2h32.9c13.8,0,24.9-15.2,24.9-33.9V48.3"/>
		<path class="st2" d="M20.9,48.6l18.5-18.5"/>
	</g>
	<rect x="33.2" y="52.5" class="st3" width="55.6" height="18.3"/>
	<rect x="30.7" y="77.7" class="st4" width="12.2" height="7.3"/>
	<rect x="47.5" y="77.7" class="st4" width="12.2" height="7.3"/>
	<rect x="64.3" y="77.7" class="st4" width="12.2" height="7.3"/>
	<rect x="81.1" y="77.7" class="st4" width="12.2" height="7.3"/>
	<rect x="30.7" y="88.2" class="st4" width="12.2" height="7.3"/>
	<rect x="47.5" y="88.2" class="st4" width="12.2" height="7.3"/>
	<rect x="64.3" y="88.2" class="st4" width="12.2" height="7.3"/>
	<rect x="81.1" y="88.2" class="st4" width="12.2" height="7.3"/>
	<rect x="30.7" y="98" class="st4" width="12.2" height="7.3"/>
	<rect x="47.5" y="98" class="st4" width="12.2" height="7.3"/>
	<rect x="64.3" y="98" class="st4" width="12.2" height="7.3"/>
	<rect x="81.1" y="98" class="st4" width="12.2" height="7.3"/>
</g>
</svg>
