<?xml version="1.0" encoding="utf-8"?>
<!-- Generator: Adobe Illustrator 23.0.0, SVG Export Plug-In . SVG Version: 6.00 Build 0)  -->
<svg version="1.1" id="Layer_1" xmlns="http://www.w3.org/2000/svg" xmlns:xlink="http://www.w3.org/1999/xlink" x="0px" y="0px"
	 viewBox="0 0 128 128" style="enable-background:new 0 0 128 128;" xml:space="preserve">
<style type="text/css">
	.st0{fill:#FFFFFF;stroke:#FFFFFF;stroke-width:5.2106;stroke-miterlimit:10;}
	.st1{fill:#FFFFFF;stroke:#FFFFFF;stroke-width:0.7816;stroke-miterlimit:10;}
	.st2{opacity:0.5;fill:#FFFFFF;stroke:#FFFFFF;stroke-width:5.2106;stroke-miterlimit:10;enable-background:new    ;}
</style>
<g>
	<path class="st0" d="M88.9,109.2h3.9V51.4c0-10.2-8-18.6-18.2-18.8c-9.5-0.2-17.6,6.9-18.8,16.3c-0.1,1.1,0.6,2.1,1.7,2.2
		c0.1,0,0.2,0,0.3,0c1,0,1.9-0.8,2-1.8c0.9-7.5,7.3-13,14.9-12.9c8,0.2,14.3,6.9,14.3,14.9L88.9,109.2L88.9,109.2z"/>
	<path class="st1" d="M61.5,84.6c0.2,0.1,0.3,0.3,0.3,0.5v1.2c0,0.2-0.1,0.3-0.3,0.3c-0.1,0-0.2,0-0.2,0h-2.8c0,0,0,0.1,0.1,0.1
		c0.3,0.5,0.6,1,0.7,1.5c0,0.1,0.1,0.2,0.2,0.2h1.9c0.4,0,0.5,0.1,0.5,0.5v1.1c0,0.3-0.1,0.5-0.5,0.5h-1.9c-0.1,0-0.2,0-0.2,0.2
		c-0.2,0.9-0.6,1.8-1.3,2.5c-0.5,0.5-1.2,0.9-1.9,1.2c-0.6,0.2-1.1,0.4-1.7,0.4l-0.2,0c0,0,0,0.1,0.1,0.1c0.6,0.6,1.1,1.2,1.6,1.8
		c0.6,0.6,1.1,1.3,1.7,2c0.8,0.9,1.5,1.8,2.3,2.7l0,0c0.2,0.1,0.2,0.4,0.1,0.6c-0.1,0.1-0.1,0.1-0.2,0.1h-2.3
		c-0.2,0-0.5-0.1-0.6-0.3c-0.4-0.5-0.9-1.1-1.3-1.6c-0.4-0.5-0.8-0.9-1.2-1.3c-0.6-0.8-1.3-1.5-2-2.3c-0.6-0.6-1.1-1.2-1.7-1.9
		c-0.1-0.1-0.2-0.3-0.2-0.4v-1.5c0-0.2,0.1-0.4,0.4-0.5c0,0,0.1,0,0.1,0h1.3c0.8,0,1.5-0.1,2.3-0.3c0.6-0.2,1-0.5,1.4-1
		c0.2-0.2,0.3-0.5,0.3-0.8H51c-0.1,0-0.2,0-0.2,0c-0.2,0-0.3-0.2-0.3-0.4v-1.4c0-0.2,0.2-0.3,0.3-0.3c0.1,0,0.1,0,0.2,0h5
		c0,0,0-0.1,0-0.1c-0.3-0.5-0.7-0.8-1.2-1c-0.6-0.2-1.3-0.3-1.9-0.3H51c-0.4,0-0.5-0.2-0.5-0.6c0-0.5,0-0.9,0-1.4
		c0-0.2,0.1-0.4,0.3-0.5L61.5,84.6L61.5,84.6z"/>
	<path class="st0" d="M39.8,30.3l5.2-17l7.1,4.7c0,0,1,1.8,6.7,0.2c5.7-1.7,9.2-2.1,12.7-1.6c5.4,0.8,28,16.1,28,16.1
		s-1.4,5-8.2,2.3c0,0-0.8,2.2-4.4,2.2l-7.9-4c0,0-1.5,1.3-6.6,1.4h-7.5c0,0-5.7,3.8-11.6,2.6c-5.9-1.2-8.4-4.8-8.4-4.8L39.8,30.3
		L39.8,30.3z"/>
	<path class="st2" d="M79,33.1c0,0,2.4-1.8,2.4-4.8c0,0-11.3-0.5-15.1-1.9c0,0,0.2-4.6,4.4-4.2s27.1,12.7,27.1,12.7s-2.2,1.9-6.4,0
		c0,0-0.7,2.1-4.4,2.2L79,33.1L79,33.1z"/>
	<path class="st0" d="M45.4,12.5l-5.9,19L31.6,29l4.6-24.2L45.4,12.5z"/>
</g>
<g>
	<path class="st0" d="M28.9,84c0-3.9,0-7.9,0-11.8c0-1,0.2-1.3,1.2-1.4c9.2-1.4,18.1-4,26.6-7.9c0.3-0.2,0.9-0.2,1.2,0
		c6.8,3.1,13.9,5.4,21.2,7c1.8,0.4,3.7,0.6,5.5,0.9c0.8,0.1,1.1,0.4,1.1,1.2c0,7.4,0.1,14.8,0,22.2c-0.2,10-4.7,17.7-13,23.3
		c-4.5,3-9.4,5-14.7,6c-0.6,0.1-1.3,0-1.9-0.1c-6.3-1.4-12.2-3.9-17.1-8.2c-5.6-4.8-8.9-10.8-9.7-18.1c-0.3-2.9-0.2-5.9-0.3-8.9
		C28.9,86.8,28.9,85.4,28.9,84z M57.3,111.3c10.1,0,18.3-8.2,18.3-18.3c0-10-8.2-18.2-18.2-18.2C47.3,74.8,39.1,83,39,93.1
		C39,103.1,47.2,111.3,57.3,111.3z"/>
</g>
</svg>
