<?xml version="1.0" encoding="utf-8"?>
<!-- Generator: Adobe Illustrator 23.0.0, SVG Export Plug-In . SVG Version: 6.00 Build 0)  -->
<svg version="1.1" id="Layer_1" xmlns="http://www.w3.org/2000/svg" xmlns:xlink="http://www.w3.org/1999/xlink" x="0px" y="0px"
	 viewBox="0 0 128 128" style="enable-background:new 0 0 128 128;" xml:space="preserve">
<style type="text/css">
	.st0{display:none;fill:#F40C0C;}
	.st1{display:none;opacity:0.85;fill:#5B0303;stroke:#000000;stroke-miterlimit:10;enable-background:new    ;}
	.st2{fill:#FFFFFF;stroke:#FFFFFF;stroke-width:2;stroke-miterlimit:10;}
</style>
<rect class="st0" width="128" height="128"/>
<rect x="-7.5" y="-9.5" class="st1" width="165" height="149"/>
<g>
	<path class="st2" d="M3.8,78.9c0-0.8,0.1-1.6,0.1-2.4c0.5-4.2,3.2-6.7,6.2-8.8c1.7-1.1,3.6-2,5.5-2.5c5.3-1.5,10.6-2.8,16-4.2
		c0.9-0.2,1.4-0.6,1.8-1.4c2-3.6,4.2-7.1,6.2-10.7c0.3-0.5,0.5-1,0.8-1.5c1.6-2.3,3.2-4.5,5-6.5c1.9-2,4.6-3,7.3-3.6
		c5.8-1.4,11.6-2.7,17.4-4c5.3-1.1,10.6-1.6,15.9-0.3c4.5,1.1,9.1,1.8,13.8,2.7c4.9,0.9,9.7,0.1,14.6,0c2.7-0.1,4.3,0.8,4.9,3.4
		c0.6,2.6,1.1,5.3,1.8,7.9c0.1,0.5,0.6,0.9,0.9,1.2c0.7,0.8,1.5,1.6,1.8,2.5c0.7,2.4,1.1,4.9,1.7,7.3c0.5,2.3-0.1,4.3-1.9,5.9
		c-1,0.8-2,1.5-3.2,2.1c-1.8,1-3.6,2-5.4,2.9c-0.9,0.5-1.2,1.1-1.4,2.1c-0.6,5.3-3.5,9-8,11.4c-2,1-4.2,1.2-6.5,0.8
		c-2.7-0.6-5.2-1.4-7.2-3.4c-4.3-4.2-5.8-9.3-4.3-15c0.3-1.5,1-2.9,1.6-4.4c-0.2,0-0.5,0.1-0.7,0.1c-3.2,0.9-6.4,1.7-9.7,2.6
		c-11.5,3.2-23,6.3-34.5,9.5c-1.4,0.3-2.4-0.1-2.6-1.1c-0.3-1,0.5-2.3,1.7-2.6c4.5-1.2,9-2.5,13.5-3.7c17.5-5.1,34.9-9.8,52.3-14.6
		c0.5-0.1,0.8-0.2,1.1-0.5c-0.9-5.2,0.8-8.8,5.8-10.7c-3.7-0.3-7.3,0.6-11.1,0.3c-3.7-0.2-7.4-0.9-11.2-1.5c-0.5,1.9-0.9,4-1.5,6
		c-0.9,3.5-3.2,5.9-6.4,6.8c-13.7,3.6-27.4,7-41.1,10.5c-9.4,2.4-18.7,4.7-28.1,7.2c-1.8,0.5-3.5,1.5-5.3,2.3
		c2.6,1.4,4.4,2.9,4.9,6.2c1-0.7,1.8-1.1,2.5-1.7c0.8-0.7,1.2-1.6,2-2.1c4-2.7,8.2-3.6,12.8-1.5c3.5,1.6,6,4.1,7.3,7.7
		c0.6,1.5,0.9,3.2,1.5,4.9c0.5-0.1,0.9-0.2,1.4-0.3c12.4-2.8,24.7-5.6,37.1-8.5c0.5-0.1,0.9-0.2,1.4-0.2c1-0.1,1.9,0.6,2,1.7
		c0.1,1.4-0.3,2-2.1,2.4c-12.9,2.9-25.8,6-38.8,8.8c-0.9,0.2-1.5,0.5-1.7,1.6c-0.8,4-3.5,6.5-6.7,8.5c-2.3,1.4-4.7,1.7-7.3,1.2
		c-3.5-0.6-6.4-2.1-8.8-4.9c-0.3-0.3-1-0.5-1.5-0.5c-1.4,0.2-2.7,0.6-4,0.9c-1.5,0.3-2.9,0.3-4.1-0.7c-0.9-0.9-1.8-1.8-2.7-2.7
		C5.7,87.6,4.8,83.3,3.8,78.9z M63.4,53c-1-4.5-1.9-8.9-2.9-13.4c-4,1.1-8.1,1.2-11.5,3.6c-1.4,1-2.6,2.3-3.5,3.7
		c-1.9,2.8-3.6,5.8-5.3,8.7c-0.7,1.1-1.2,2.3-2,3.7C46.6,57.2,54.9,55.2,63.4,53z M26.7,75c-5.2,1.2-8.6,6.7-7.3,12.3
		c1.2,5.9,6.8,9.5,11.9,8.4c4.9-1,8.7-6.8,7.3-12.5C37.3,77.9,32,73.8,26.7,75z M102.9,79.3c5-1.2,8.6-7,7.1-12.8
		c-1.4-5.6-6.5-9-11.9-7.9c-5.4,1.2-8.5,7.2-7.1,12.5C92.1,77.1,98,80.6,102.9,79.3z M67,51.9c5.1-1.1,10.2-2.3,15.2-3.5
		c-0.2-1.1-0.5-2-0.7-2.8c-0.6-2.8-1.2-5.5-1.8-8.4c-0.1-0.6-0.2-1-1-1c-5,0.1-9.7,1.6-14.7,2.6C65,43.3,65.9,47.6,67,51.9z
		 M113.5,65.4c2.6-1.5,5-2.8,7.4-4.2c1-0.6,1.4-1.6,1.1-2.6c-0.5-2.4-1-4.7-1.6-7.2c-4.9,1.5-9.7,2.8-14.9,4.4
		C109.7,57.9,112.1,61.3,113.5,65.4z M15.8,81.2c-2.5,0.8-4.9,1.5-7.3,2.1C9,85.6,9.4,87.8,10,90c0.3,1.1,1.2,1.6,2.4,1.5
		c1.2-0.2,2.6-0.6,4.1-0.9C15.4,87.4,15.2,84.5,15.8,81.2z M83.3,36.2c0.9,3.8,1.6,7.3,2.5,11.1c3.8-2,3.5-6.1,4.5-9.6
		C87.8,37.2,85.7,36.7,83.3,36.2z M12.6,78.1c-0.1-1.8-0.7-2.6-2-2.7c-2.7-0.3-3,0-3,2.8c0,0.2,0,0.5,0,0.8c0,0.1,0.1,0.3,0.1,0.7
		C9.4,79.1,11,78.6,12.6,78.1z M113.9,49.4c1.2-0.3,2.5-0.7,3.8-1.1c-0.3-1.6-0.7-3-1-4.5C114,45,113.1,46.8,113.9,49.4z"/>
	<path class="st2" d="M31.5,84.3c1,3-1.1,7.1-4.2,7.7c-3,0.7-6.4-1.5-7.1-4.7c-0.7-3.3,0.8-6.5,4.2-7.3
		C27.7,79.1,30.4,81.1,31.5,84.3z M25.3,83.8c-1.1,0.2-1.8,1.5-1.6,2.6c0.3,1.2,1.4,2,2.6,1.8c1.2-0.2,1.9-1.5,1.6-2.8
		C27.6,84.2,26.6,83.6,25.3,83.8z"/>
	<path class="st2" d="M98.2,63.4c3.5-0.9,6.3,1.2,7.1,4.6c0.9,3.3-1.2,6.7-4.3,7.4c-3,0.8-6.7-1.9-7-4.7
		C93.1,67.4,95,64.2,98.2,63.4z M100.3,71.6c1.2-0.3,1.8-1.6,1.5-2.8c-0.3-1.1-1.5-1.8-2.6-1.5c-1.1,0.3-1.8,1.4-1.5,2.6
		C98,71.2,99,71.9,100.3,71.6z"/>
</g>
</svg>
