<?xml version="1.0" encoding="utf-8"?>
<!-- Generator: Adobe Illustrator 23.0.0, SVG Export Plug-In . SVG Version: 6.00 Build 0)  -->
<svg version="1.1" id="Layer_1" xmlns="http://www.w3.org/2000/svg" xmlns:xlink="http://www.w3.org/1999/xlink" x="0px" y="0px"
	 viewBox="0 0 128 128" style="enable-background:new 0 0 128 128;" xml:space="preserve">
<style type="text/css">
	.st0{fill:#FFFFFF;stroke:#FFFFFF;stroke-width:2;stroke-miterlimit:10;}
</style>
<g>
	<path class="st0" d="M87.6,118.9c-0.7,0-1.4,0-2.2,0c-0.3-0.1-0.5-0.2-0.8-0.2c-6.9-0.5-12.7-3.4-17.3-8.4c-2.4-2.6-4-5.5-5.3-8.8
		c-0.5,0-1,0-1.5,0c-13.2,0-26.3,0-39.5,0c-6.1,0-11.5-4.1-13.1-10c-0.2-0.8-0.4-1.5-0.6-2.3c0-19,0-38.1,0-57.1
		c0.1-0.2,0.2-0.4,0.2-0.7c0.9-5.7,4.9-10.1,10.5-11.4c0.6-0.1,1.1-0.3,1.7-0.4c29.8,0,59.7,0,89.5,0c0.1,0.1,0.2,0.2,0.3,0.2
		c6.3,1.1,10.1,4.8,11.6,11c0.1,0.3,0.2,0.6,0.4,0.9c0,19.4,0,38.9,0,58.3c-0.2,0.4-0.3,0.9-0.5,1.3c-1.5,4.7-4.4,8.1-9.2,9.7
		c-0.8,0.2-1.1,0.7-1.4,1.4c-3.5,8.6-9.8,14-18.9,16C90.4,118.6,89,118.7,87.6,118.9z M114,48.7c-33,0-65.8,0-98.8,0
		c0,0.5,0,0.9,0,1.3c0,12.4,0,24.7,0,37.1c0,4.4,2.5,6.9,6.9,6.9c12.4,0,24.9,0,37.3,0c0.4,0,0.8,0,1,0c0.6-3.5,1.1-6.8,1.7-10.2
		c-0.4,0-0.8,0-1.3,0c-7.6,0-15.1,0-22.7,0c-2.9,0-5.8,0-8.8-0.1c-1.9,0-3.7-0.5-5.2-1.6c-1.4-1.1-1.5-2.5-0.4-3.8
		c1.3-1.4,2.8-2.1,4.8-2.1c12.4,0,24.7,0,37.1,0.1c0.8,0,1.4-0.2,2.1-0.8c7.4-7.5,16.4-10,26.4-7c9.8,3,15.7,10,17.8,20.1
		c0.2,1.1,0.3,2.1,0.5,3.4c1.5-1.8,1.6-3.7,1.6-5.6c0-12.2,0-24.3,0-36.5C114.1,49.5,114,49.1,114,48.7z M34.2,40.6c0-1,0-1.9,0-2.8
		c0-2.4,1.7-4.2,3.9-4.2c2.2,0,3.8,1.8,3.9,4.2c0,0.9,0,1.8,0,2.7c24.1,0,48.1,0,72.1,0c0-2.5,0.1-4.9,0-7.3c-0.1-3.5-2.7-6-6.2-6
		c-2.2,0-4.3,0-6.5,0c-26.3,0-52.6,0-78.9,0c-0.4,0-0.7,0-1.1,0c-3.4,0.1-5.8,2-6.1,5.3c-0.3,2.6-0.1,5.3-0.1,8.1
		C21.6,40.6,27.8,40.6,34.2,40.6z M66.1,101.5c5.4,13.5,22.2,17.7,32.9,9.8c-2.7-3-5.4-6.1-8.1-9.1c-0.5-0.6-1-0.8-1.7-0.8
		c-1.7,0-3.4,0-5.2,0c-0.8,0-1.3,0.2-1.9,0.8c-2.6,2.9-5.2,5.8-7.8,8.8c-1.4-1.2-2.7-2.5-4.1-3.7c1.7-1.9,3.4-3.8,5.2-5.8
		C72.1,101.5,69.1,101.5,66.1,101.5z M106,82.2c-1.6,1.4-3.4,1.6-5.2,1.5c-1.5-0.1-2.5,0.3-3.5,1.5c-2.3,2.8-4.7,5.4-7.3,8.3
		c0.7,0.2,1.1,0.3,1.5,0.3c1.9,0,3.8,0,5.8,0c3.4,0,6.9,0,10.3,0c0.6,0,1.2,0.1,1.2-0.9C108.8,89.3,107.9,85.7,106,82.2z M82.8,93.4
		c-2.9-3.2-5.6-6.3-8.3-9.3c-0.2-0.2-0.7-0.4-1.1-0.4c-2.1,0-4.2-0.1-6.3,0c-0.4,0-1,0.4-1.1,0.8c-0.5,1.5-1,2.9-1.3,4.5
		c-0.3,1.6-0.3,3.2-0.5,4.9c6.1,0,11.8,0,17.6,0C82.1,93.9,82.4,93.6,82.8,93.4z M72.2,76.1c9.6,0,19.1,0,28.7,0
		C93.4,69,79.6,69,72.2,76.1z M103.3,107.9c1.4-2.2,2.6-4.2,4-6.4c-3.4,0-6.5,0-9.8,0C99.5,103.7,101.3,105.7,103.3,107.9z
		 M91.2,83.9c-3.3,0-6.3,0-9.6,0c1.7,1.8,3.2,3.5,4.8,5.3C88,87.4,89.5,85.7,91.2,83.9z"/>
	<path class="st0" d="M64.6,66.1c-12.2,0-24.5,0-36.7,0c-1.7,0-3.3-0.4-5-0.7c-0.6-0.1-1.1-0.4-1.6-0.7c-1.9-1.2-2-3.4,0-4.7
		c1.7-1.1,3.6-1.5,5.6-1.5c12.5,0,25,0,37.4,0c11.6,0,23.3,0,34.9,0.1c1.9,0,4,0.4,5.8,1.1c2.9,1.1,3,3.5,0.5,5.4
		c-1.2,0.9-2.5,1.1-4,1.1C89.2,66.1,76.9,66.1,64.6,66.1C64.6,66.1,64.6,66.1,64.6,66.1z"/>
</g>
</svg>
