<?xml version="1.0" encoding="utf-8"?>
<!-- Generator: Adobe Illustrator 23.0.0, SVG Export Plug-In . SVG Version: 6.00 Build 0)  -->
<svg version="1.1" id="Layer_1" xmlns="http://www.w3.org/2000/svg" xmlns:xlink="http://www.w3.org/1999/xlink" x="0px" y="0px"
	 viewBox="0 0 128 128" style="enable-background:new 0 0 128 128;" xml:space="preserve">
<style type="text/css">
	.st0{display:none;fill:#F40C0C;}
	.st1{display:none;opacity:0.85;fill:#5B0303;stroke:#000000;stroke-miterlimit:10;enable-background:new    ;}
	.st2{fill:none;stroke:#FFFFFF;stroke-width:3.3293;stroke-miterlimit:10;}
	.st3{opacity:0.3;fill:#1D5F3E;stroke:#FFFFFF;stroke-width:3.3293;stroke-miterlimit:10;enable-background:new    ;}
	.st4{fill:#FFFFFF;stroke:#FFFFFF;stroke-width:3.3293;stroke-miterlimit:10;}
</style>
<rect class="st0" width="128" height="128"/>
<rect x="-7.5" y="-9.5" class="st1" width="165" height="149"/>
<g>
	<g>
		<circle class="st2" cx="64.8" cy="64.2" r="24.3"/>
		<g>
			<path class="st3" d="M74.4,50.7H54.9v0.7V53v0.1H61c3.1,0.7,5.4,2.8,5.8,5.3H55.4v1.1h11.5c-0.3,3.1-3.8,5.5-7.9,5.5
				c-1.4,0-2.2,0-4-0.3v1.8l0,0l13.7,13.7H72L58.9,67.4l0,0c5.7,0,10.2-3.4,10.7-7.8h4.8v-1.1h-4.8c-0.2-2.1-1.3-4-3.2-5.3h7.9
				L74.4,50.7L74.4,50.7z"/>
			<path class="st4" d="M74.6,50.1H55.2v0.7v1.7v0.1h6.1c3.1,0.7,5.4,2.8,5.8,5.3H55.6V59h11.5c-0.3,3.1-3.8,5.5-7.9,5.5
				c-1.4,0-2.2,0-4-0.3v2l0,0l13.7,13.7h3.3l-13.1-13l0,0c5.7,0,10.2-3.4,10.7-7.8h4.8V58h-4.8c-0.2-2.1-1.3-4-3.2-5.3h7.9
				L74.6,50.1L74.6,50.1z"/>
		</g>
		<circle class="st2" cx="64.8" cy="64.1" r="23.6"/>
		<g>
			<rect x="9.2" y="39" class="st2" width="2.8" height="11.1"/>
			<rect x="9.2" y="38.9" class="st2" width="11.1" height="2.8"/>
		</g>
		<g>
			<rect x="117.6" y="39" class="st2" width="2.8" height="11.1"/>
			<rect x="109.2" y="38.9" class="st2" width="11.1" height="2.8"/>
		</g>
		<g>
			<rect x="9.2" y="78.4" class="st2" width="2.8" height="11.1"/>
			<rect x="9.2" y="86.7" class="st2" width="11.1" height="2.8"/>
		</g>
		<g>
			<rect x="117.6" y="78.4" class="st2" width="2.8" height="11.1"/>
			<rect x="109.3" y="86.7" class="st2" width="11.1" height="2.8"/>
		</g>
	</g>
	<rect x="4.4" y="33.9" class="st2" width="120.4" height="60.4"/>
</g>
</svg>
