<svg id="Layer_1" data-name="Layer 1" xmlns="http://www.w3.org/2000/svg" viewBox="0 0 43 43"><defs><style>.cls-1{fill:#0c72b6;}</style></defs><title>icons</title><path class="cls-1" d="M31,3.41l.64.2a3.83,3.83,0,0,1,2.64,3.84V21.09a3.91,3.91,0,0,0,0,.43l-1.34-.37V7.41a2.52,2.52,0,0,0-1.78-2.6,2.86,2.86,0,0,0-.82-.12H9A2.5,2.5,0,0,0,6.45,7.2V35.81A2.5,2.5,0,0,0,9,38.32H31.16a1.73,1.73,0,0,0,1.75-2.12s-.06-.08-.1-.13l1.4-.1a3,3,0,0,1-1.15,3,2.93,2.93,0,0,1-1.8.62H8.9A3.78,3.78,0,0,1,5.16,36c0-.14,0-.28,0-.42V7.43A3.75,3.75,0,0,1,7.08,3.92,9.5,9.5,0,0,1,8.4,3.41Z"/><path class="cls-1" d="M31,20.81l-1.28-.06V7.8H9.7V32.53H24.17l-.1-.3,0,0,1,1.62H9.34c-.85,0-1-.13-1-1V7.47a2.91,2.91,0,0,1,0-.42.59.59,0,0,1,.56-.55,2.17,2.17,0,0,1,.36,0h21a.65.65,0,0,1,.69.7V20.75S31,20.79,31,20.81Z"/><path class="cls-1" d="M19.67,36.68h-.89a.69.69,0,0,1-.76-.63c0-.38.28-.64.73-.65h1.87a.66.66,0,0,1,.72.62.69.69,0,0,1-.74.66h-.93Z"/><path class="cls-1" d="M17.19,9.11h6a.68.68,0,0,1,0,1.35h-6a.68.68,0,0,1,0-1.35Zm0,3.49h6a.68.68,0,0,1,0,1.35h-6a.68.68,0,0,1,0-1.35Zm-5-1a1,1,0,0,1-.41-.82v-.61a1,1,0,1,1,2,0v.61a1,1,0,0,1-.4.82,1.8,1.8,0,0,1,1.34,1.76.67.67,0,0,1-.65.68H11.54a.67.67,0,0,1-.65-.68A1.8,1.8,0,0,1,12.23,11.57Zm-.71,4.51H23.23a.68.68,0,0,1,0,1.36H11.52a.68.68,0,0,1,0-1.36Zm0,3.49H23.23a.68.68,0,0,1,0,1.35H11.52a.68.68,0,0,1,0-1.35Zm0,3.41h8c.25,0,.45.3.45.68s-.2.67-.45.67h-8c-.25,0-.45-.3-.45-.67S11.29,23,11.54,23Zm.11,3.29h8c.25,0,.45.3.45.68s-.2.67-.45.67h-8c-.25,0-.45-.3-.45-.67S11.4,26.27,11.65,26.27Z"/><path class="cls-1" d="M24.82,24.54V24c0-2.57,0-5.14,0-7.71a2.21,2.21,0,0,1,1.51-2.08A2.09,2.09,0,0,1,29,16.12c.06,1.24,0,2.49,0,3.74v.52a2.21,2.21,0,0,1,2.51.77,2.21,2.21,0,0,1,3.05.68,5.36,5.36,0,0,1,.78-.23,2.1,2.1,0,0,1,2.46,2.11c0,2.68,0,5.36-.06,8a4.68,4.68,0,0,1-3.36,4.19,4.1,4.1,0,0,1-1,.09c-1.75,0-3.5.14-5.25.09a4.19,4.19,0,0,1-3.39-2,13.29,13.29,0,0,1-.66-1.37l-3.73-7c-.44-.83-.41-.88.28-1.49a2.85,2.85,0,0,1,2.17-.8A2.89,2.89,0,0,1,24.82,24.54Zm-3.23.73c1.38,2.65,2.73,5.34,4.16,8a3.05,3.05,0,0,0,2.83,1.57h4.5a3.2,3.2,0,0,0,2.56-1.17A3.85,3.85,0,0,0,36.55,31q0-3.53,0-7a2.71,2.71,0,0,0,0-.29.82.82,0,0,0-.86-.8.85.85,0,0,0-.77.89c0,.29,0,.58,0,.87,0,.45-.25.72-.63.73s-.66-.27-.66-.73,0-1.09,0-1.64a.88.88,0,0,0-.67-.92A.81.81,0,0,0,32,23c0,.6,0,1.21,0,1.81a.68.68,0,0,1-.65.73.67.67,0,0,1-.65-.72c0-.66,0-1.31,0-2a2.53,2.53,0,0,0-.06-.61.82.82,0,0,0-.86-.62.81.81,0,0,0-.74.72,3.77,3.77,0,0,0,0,.47c0,.77,0,1.53,0,2.3a.62.62,0,0,1-.62.66.65.65,0,0,1-.68-.65c0-.11,0-.22,0-.32V16.68a3.77,3.77,0,0,0,0-.47.85.85,0,0,0-.7-.73.8.8,0,0,0-.82.58,1.93,1.93,0,0,0-.07.53v9.6c0,.38-.08.68-.46.81s-.59-.07-.8-.33c-.38-.47-.75-1-1.15-1.39A1.39,1.39,0,0,0,21.59,25.27Z"/></svg>