<?xml version="1.0" encoding="utf-8"?>
<!-- Generator: Adobe Illustrator 23.0.0, SVG Export Plug-In . SVG Version: 6.00 Build 0)  -->
<svg version="1.1" id="Layer_1" xmlns="http://www.w3.org/2000/svg" xmlns:xlink="http://www.w3.org/1999/xlink" x="0px" y="0px"
	 viewBox="0 0 128 128" style="enable-background:new 0 0 128 128;" xml:space="preserve">
<style type="text/css">
	.st0{display:none;fill:#F40C0C;}
	.st1{display:none;opacity:0.85;fill:#5B0303;stroke:#000000;stroke-miterlimit:10;enable-background:new    ;}
	.st2{fill:#FFFFFF;stroke:#FFFFFF;stroke-width:4.4375;stroke-miterlimit:10;}
</style>
<rect class="st0" width="128" height="128"/>
<rect x="-7.5" y="-9.5" class="st1" width="165" height="149"/>
<g>
	<path class="st2" d="M13.1,26.8c19.5-1.4,35.8-10.4,50.8-22.3c14.9,11.9,31.2,20.9,50.8,22.3c0,1.3,0,2.6,0,3.9
		c-0.2,11.8-1.1,23.4-3.5,34.8c-2.3,10.8-5.9,21.1-11.9,30.5c-7.8,12-18.5,20.2-31.5,25.5c-3.9,1.6-3.9,1.6-7.8,0
		C46.2,115.9,35,106.9,27.2,94c-4.8-8-7.9-16.5-10-25.5C14,54.9,13.1,41.1,13,27.2C13,27.1,13.1,27,13.1,26.8z M18.3,31.5
		c0,0.2-0.1,0.4-0.1,0.7c0.2,10.4,1.1,20.9,3.1,31.1c1.8,9,4.5,17.6,9,25.8c7,12.8,17.4,21.6,30.7,27.3c2,0.9,3.7,0.9,5.5,0
		c9-4,17-9.2,23.4-16.6c6.5-7.5,10.8-16.3,13.6-25.8c3.8-12.2,5.2-24.8,5.7-37.5c0.1-1.7,0-3.3,0-5c-0.2,0-0.6-0.1-0.8-0.2
		c-4.8-0.7-9.3-1.8-13.9-3.3c-10.9-3.8-20.7-9.3-30-16.2c-0.7-0.6-1.1-0.6-1.9,0c-3.1,2.2-6.2,4.4-9.4,6.4
		c-8.8,5.4-18.2,9.7-28.3,12C23,30.7,20.6,31.1,18.3,31.5z"/>
	<path class="st2" d="M73.2,54.3c0-0.6,0-1,0-1.3c0-4.9,0-9.7,0-14.5c0-1.4-0.2-1.7-1.6-1.7c-5.2,0-10.3,0-15.5,0
		c-1.4,0-1.7,0.2-1.7,1.7c0,4.9,0,9.8,0,14.6c0,0.3,0,0.8,0,1.2c-0.6,0-1,0-1.3,0c-4.9,0-9.7,0-14.5,0c-1.4,0-1.7,0.2-1.7,1.7
		c0,5.2,0,10.3,0,15.5c0,1.4,0.2,1.7,1.7,1.7c4.9,0,9.8,0,14.6,0c0.3,0,0.8,0,1.2,0c0,0.6,0,1,0,1.3c0,4.9,0,9.7,0,14.5
		c0,1.4,0.2,1.7,1.6,1.7c5.2,0,10.3,0,15.5,0c1.4,0,1.7-0.2,1.7-1.7c0-4.9,0-9.8,0-14.6c0-0.3,0-0.8,0-1.2c0.6,0,1,0,1.3,0
		c4.9,0,9.7,0,14.5,0c1.4,0,1.7-0.2,1.7-1.6c0-5.2,0-10.3,0-15.5c0-1.4-0.2-1.7-1.7-1.7c-4.9,0-9.7,0-14.5,0
		C74.2,54.3,73.8,54.3,73.2,54.3z"/>
</g>
</svg>
