<?xml version="1.0" encoding="utf-8"?>
<!-- Generator: Adobe Illustrator 23.0.0, SVG Export Plug-In . SVG Version: 6.00 Build 0)  -->
<svg version="1.1" id="Layer_1" xmlns="http://www.w3.org/2000/svg" xmlns:xlink="http://www.w3.org/1999/xlink" x="0px" y="0px"
	 viewBox="0 0 128 128" style="enable-background:new 0 0 128 128;" xml:space="preserve">
<style type="text/css">
	.st0{fill:#FFFFFF;}
</style>
<g>
	<path class="st0" d="M123.3,61.1c0,1.7,0,3.2,0,4.9c0,0.2-0.1,0.6-0.1,0.8c-0.2,3.9-0.7,7.6-1.8,11.4
		c-4.9,17.6-15.5,30.5-32.2,38.7c-2.1,1-4.3,1.8-6.5,2.5c-5.3,1.9-10.8,2.9-16.4,3.1c-2.1,0.1-4.3,0-6.4-0.1
		c-2.1-0.1-4.2-0.1-6.3-0.4c-6.2-1-12.1-2.9-17.6-5.7c-5.7-3-10.9-6.6-15.4-11.1c-3.1-3.2-6-6.5-8.3-10.3c-7.8-13-10.5-27-7.8-41.9
		C6.9,38.9,14,27.5,24.7,18.5C34,10.7,44.8,6.4,56.9,5c6.9-0.8,13.8-0.3,20.5,1.3c14.8,3.5,26.5,11.6,35.2,23.7
		c6.2,8.5,9.5,18,10.5,28.3C123.2,59.3,123.3,60.2,123.3,61.1z M22.5,63.7c0,0.8,0.1,1.8,0.1,2.9c0,0.3,0.1,0.7,0.1,1
		c0.8,6.8,3,13,6.9,18.6c2.2,3.2,4.7,6.1,7.8,8.5c2.6,2,5.4,3.9,8.6,5.3c4.6,2.1,9.4,3.4,14.3,3.6c2.8,0.1,5.5,0,8.3-0.3
		c5.5-0.6,10.7-2.3,15.4-5.2c3.3-2,6.4-4.3,9-7.1c0.6-0.7,1.1-1.3,1.7-2c8.3-10,11-21.5,8.5-34.2c-1.4-7.2-5.1-13.2-10-18.6
		c-1.1-1.2-2.3-2.4-3.6-3.4c-5.3-4.4-11.2-7.3-18.1-8.7c-1.1-0.2-2.3-0.3-3.5-0.6c-1.8-0.2-3.4-0.6-5.2-0.4
		c-2.1,0.1-4.1,0.2-6.2,0.6c-4,0.7-7.7,1.9-11.2,3.4c-1.9,0.8-3.5,2-5.2,3.1c-2.1,1.3-3.9,2.9-5.7,4.5c-2,1.9-3.6,4.1-5.3,6.3
		C24.8,47.8,22.6,55.3,22.5,63.7z M11.5,46.6c-0.2,0.6-0.4,1-0.6,1.4c-0.3,1-0.3,1,0.8,1.3c2.5,0.8,5.1,1.7,7.5,2.4
		c0.4,0.1,0.8,0.1,0.9-0.4c0-0.3,0.2-0.7,0.3-0.9c0.3-0.9,0.3-1-0.7-1.3c-0.8-0.2-1.5-0.4-2.2-0.7c-0.1,0-0.2-0.2-0.3-0.3
		c0.1,0,0.3-0.1,0.6,0c1.1,0.3,2.1,0.7,3.1,0.9c0.7-1.3,1.2-2.5,1.9-3.7c0.6-1.1,0.6-1.1-0.4-1.9c-0.1-0.1-0.2-0.4-0.2-0.6
		c0.2,0,0.4-0.2,0.7-0.1c0.3,0.1,0.8,0.2,1.1,0.3c0.3-0.6,0.6-1.1,0.8-1.5c0.3-0.7,0.2-0.8-0.4-1s-1.1-0.3-1.7-0.4
		c-2.1-0.7-4.2-1.3-6.4-2c-0.2,0-0.6,0-0.7,0.1c-0.6,1-1,1.9-1.5,3c2.6,1.8,5.2,3.4,7.6,5.1c0,0.1-0.1,0.1-0.1,0.2
		c-3-0.9-5.8-1.8-8.9-2.6c-0.2,0.8-0.4,1.3-0.6,2c-0.1,0.3,0,0.6,0.4,0.7c0.8,0.2,1.5,0.4,2.2,0.7c0.1,0,0.2,0.2,0.2,0.3
		c-0.2-0.1-0.3,0-0.4,0c-0.1,0-0.3-0.1-0.6-0.1C13.1,47.2,12.3,47,11.5,46.6z M16.9,61.5c0.2,0,0.4,0,0.7,0c1,0,1-0.1,1-1.1
		c0-0.6,0-1.2,0.1-1.8c0.2-1.3,0.6-2.6,0.7-3.9c0.2-1.2-0.2-1.8-1.3-2.1c-2-0.4-4-0.8-6-1C11,51.5,10.3,51.9,10,53
		c-0.3,1.1-0.4,2.1-0.8,3.2c-0.1,0.6,0,0.8,0.6,0.9c2,0.3,4,0.7,6,1c0.8,0.1,1.5,0.2,2.2,0.3c0,0,0,0.1,0,0.2
		c-0.2,0-0.3,0.1-0.6,0.2c-2.6,0.3-5.4,0.7-8.1,1.1c-0.3,0-0.6,0.1-0.6,0.6c0,0.8-0.1,1.5-0.1,2.3c0,1,0,1,1.1,1.2
		c2.3,0.3,4.6,0.7,7.1,1c0.6,0.1,1.1,0.1,1.7,0.2c0-0.6,0-1.1,0-1.5c0-1.1,0-1.1-1.1-1.2C16.9,62.3,16.6,62.1,16.9,61.5z M34,30
		c0.6-0.6,1-0.9,1.3-1.3c0.1-0.1,0.1-0.6,0-0.7c-2-2.1-4-4.1-6-6.2c-0.3-0.3-0.6-0.3-0.9,0c-0.6,0.6-1,1-1.5,1.5
		c-0.2,0.2-0.3,0.4-0.1,0.8c0.6,0.7,1,1.4,1.5,2.2c-0.8-0.4-1.4-1-2.2-1.5c-0.3-0.2-0.6-0.2-0.9,0.1c-0.4,0.4-0.9,0.9-1.4,1.3
		c-0.4,0.4-0.4,0.8,0,1.2c1.9,1.9,3.9,3.9,5.7,5.7c0.1,0.1,0.3,0.2,0.6,0.4c0.4-0.3,0.8-0.8,1.1-1.1c0.3-0.2,0.3-0.6,0.1-0.8
		c-0.6-0.6-1.1-1.1-1.7-1.7c-0.1-0.1-0.2-0.2-0.3-0.4l0.1-0.1c0.2,0.1,0.3,0.2,0.6,0.3c0.7,0.4,1.2,1,1.9,1.4
		c0.1,0.1,0.4,0.2,0.6,0.1c1-0.4,1-1,0.4-1.8c-0.3-0.3-0.6-0.8-0.9-1.1c-0.1-0.2-0.2-0.4-0.3-0.7c0.1,0,0.1-0.1,0.2-0.1
		C32.5,28.4,33.2,29.2,34,30z M96.7,25.2c-0.1-0.8,0.3-1.1,0.8-1.4c1.2-1.2,1.4-1.1-0.1-2.5c-0.4-0.4-0.8-0.3-1.1,0
		c-1.8,2-3.5,3.9-5.3,5.8c-0.1,0.1-0.3,0.3-0.3,0.6c0,0.1,0,0.3,0,0.4c0.6,0.6,1.1,1,1.5,1.4c1-1,1.9-1.9,2.8-2.8
		c0.1,0.1,0.2,0.1,0.2,0.2c-0.1,0.2-0.2,0.4-0.3,0.7c-0.4,0.6-1,1-1.4,1.5c-0.8,0.8-0.8,0.9,0.1,1.5c1.1,1,1.1,1,2.1,0
		c1.8-1.9,3.4-3.7,5.2-5.6c0.1-0.1,0.2-0.4,0.2-0.4c-0.6-0.6-1.1-1.1-1.7-1.5c-0.1,0-0.4,0.1-0.6,0.3c-0.3,0.4-0.8,0.9-1.1,1.3
		C97.3,24.9,96.9,25,96.7,25.2z M94.1,20c-0.2-0.4-0.3-0.9-0.7-1.2c-1-0.8-2-1.4-3.1-2.2c-0.3-0.2-0.6-0.2-0.8,0.1
		c-1.5,2.4-3.2,4.7-4.7,7.2c-0.1,0.1,0,0.6,0.1,0.7c1.1,0.7,2.2,1.4,3.3,2c0.7,0.3,1.2,0.2,1.8-0.2c0.2-0.2,0.4-0.4,0.7-0.7
		c0.9-1.3,1.8-2.6,2.6-4.1C93.6,21.1,93.7,20.6,94.1,20z M111.4,67.9C111.4,67.9,111.4,68,111.4,67.9c-0.1,0.1-0.1,0.2-0.2,0.2
		c-0.9,0.1-1.8,0.3-2.6,0.4c-0.1,0-0.3,0.2-0.3,0.3c-0.1,0.4-0.1,0.9-0.2,1.3c-0.1,0.6,0.2,0.7,0.7,0.8c2.8,0.3,5.5,0.7,8.3,1
		c0.4,0.1,0.7,0,0.8-0.6c0-0.3,0.1-0.8,0.2-1.2c0.1-0.3-0.1-0.6-0.4-0.7c-0.6-0.1-1.1-0.1-1.8-0.2c-0.2,0-0.4-0.1-0.7-0.2
		c0.7-0.2,1.2-0.3,1.8-0.4c1.3-0.2,1.5-0.7,1.4-1.9c0-0.4-0.2-0.7-0.7-0.7c-2.5-0.3-5.1-0.7-7.5-0.9c-1.5-0.2-1.7-0.1-1.7,1.4
		c0,0.6,0.2,0.7,0.7,0.8C109.7,67.7,110.6,67.8,111.4,67.9z M42.6,21.4c0,0,0.1,0,0.1-0.1c0.4,0.6,1,1,1.4,1.4
		c0.4,0.6,0.9,0.6,1.3,0.3c0.1-0.1,0.3-0.1,0.4-0.2c0.8-0.4,0.9-0.4,0.4-1.2c-1.1-2.2-2.1-4.5-3.2-6.7c-0.6-1-0.6-1-1.7-0.6
		c-0.3,0.1-0.6,0.2-0.9,0.4c0.4,1,0.8,1.9,1.2,2.8c-0.1,0-0.1,0.1-0.2,0.1c-0.6-0.6-1.1-1.1-1.7-1.8c-0.4-0.6-0.9-0.7-1.4-0.3
		c-0.1,0.1-0.2,0.1-0.3,0.1c-0.7,0.2-0.7,0.6-0.4,1.1c1.2,2.5,2.3,5,3.5,7.5c0.1,0.1,0.2,0.2,0.3,0.3c0.7-0.3,1.2-0.6,1.9-0.9
		C43.2,23,42.9,22.1,42.6,21.4z M80.4,22.6c0.1-0.2,0.2-0.4,0.3-0.7c0.9-2.3,1.8-4.6,2.5-6.9c0.6-1.4,0.4-1.5-1.1-1.9
		c-0.4-0.1-0.7,0-0.8,0.4c-0.2,0.9-0.6,1.7-0.9,2.5c-0.1-0.2-0.2-0.4-0.2-0.7c0-0.8,0.1-1.5,0.1-2.3c0-0.2-0.1-0.4-0.2-0.6
		c-0.6-0.2-1.2-0.4-1.8-0.7c-0.2,0.4-0.3,0.9-0.4,1.2c-0.9,2.3-1.7,4.6-2.5,7.1c-0.2,0.6-0.1,0.9,0.4,1c0.1,0,0.3,0.1,0.4,0.1
		c0.9,0.3,0.9,0.3,1.2-0.6c0.2-0.7,0.4-1.2,0.8-1.9c0.1,0,0.1,0,0.2,0c0,0.9-0.1,1.8-0.1,2.6c0,0.2,0.1,0.6,0.2,0.6
		C79.1,22.1,79.7,22.4,80.4,22.6z M21.6,34.1c0,0,0,0.1-0.1,0.2c-0.2,0-0.4-0.1-0.6-0.1c-0.8-0.2-1.4-0.4-2.2-0.6
		c-0.2,0-0.6,0.1-0.7,0.2c-0.3,0.3-0.6,0.7-0.7,1c-0.1,0.1,0,0.4,0.1,0.6c0.4,0.4,1,0.8,1.4,1.1c1.7,1.1,3.3,2.3,5,3.4
		c1.2,0.8,1.4,0.7,2.1-0.6c0.2-0.3,0.2-0.7-0.2-0.9c-0.7-0.3-1.2-0.9-1.9-1.3c0,0,0-0.1,0.1-0.2c0.6,0.2,1.1,0.3,1.8,0.4
		c1.4,0.4,1.4,0.4,2.2-0.9c0.2-0.4,0.3-0.7-0.2-1c-2.3-1.5-4.5-3.1-6.8-4.7c-0.1-0.1-0.3-0.2-0.6-0.3c-0.3,0.4-0.7,0.9-0.9,1.3
		c-0.2,0.3-0.2,0.7,0.2,0.9C20.3,33.1,20.9,33.5,21.6,34.1z M106.7,36.1L106.7,36.1l-0.1-0.2c0.4-0.6,0.9-1.1,1.4-1.7
		c0.6-0.6,0.6-1,0.1-1.5c-0.8-1-0.4-1.1-1.7-0.4c-2.1,1.2-4.1,2.5-6.1,3.7c-1.2,0.8-1.2,0.8-0.4,2c0.3,0.4,0.7,0.6,1.1,0.2
		c0.7-0.4,1.3-0.8,2-1.1c-0.3,0.6-0.7,1-1.1,1.4c-0.9,1-1,1.1-0.2,2.2c0.1,0.1,0.1,0.2,0.2,0.2c0.2,0.3,0.4,0.3,0.8,0.1
		c0.7-0.4,1.4-0.9,2.1-1.2c1.8-1.1,3.4-2.1,5.2-3.2c0.2-0.1,0.4-0.3,0.3-0.4c-0.3-0.6-0.6-1.1-1-1.5c-0.1-0.1-0.7,0.2-1,0.3
		C107.8,35.4,107.3,35.8,106.7,36.1z M18.5,68.3c-1.3,0.1-2.6,0.3-4,0.4c-0.1-0.6,0.2-0.7,0.6-0.7c0.9-0.1,1.8-0.2,2.6-0.2
		c0.7,0,0.9-0.3,0.8-0.9s-0.2-1-0.3-1.7c-1.7,0.4-3.5-0.1-4.9,1.4c-1-1-2.1-0.7-3.2-0.3C9.4,66.7,8.9,67.2,9,68c0,1,0,2,0.1,3
		c0.1,1.1,0.2,1.1,1.2,1c2.1-0.2,4.2-0.6,6.3-0.8c2.3-0.2,2.4-0.4,1.9-2.6C18.6,68.6,18.6,68.5,18.5,68.3z M54.9,16
		c0.1,0,0.2,0,0.2-0.1c0.1,0.3,0.3,0.6,0.4,1c0.2,0.9,0.3,1.7,0.6,2.5c0,0.1,0.3,0.4,0.4,0.4c0.6,0,1.1-0.1,1.7-0.2
		c0.1,0,0.2-0.2,0.2-0.3c-0.1-1.4-0.2-2.9-1.2-4.2C57.1,15,57,14.6,57,14.5c0.6-0.9,0.2-1.7,0-2.5c-0.4-1.3-0.9-1.5-2.3-1.4
		c-0.7,0.1-1.4,0.2-2.1,0.3c-1.4,0.1-1.4,0.1-1.2,1.4c0.4,2.2,0.8,4.4,1.2,6.5c0.3,1.8,0.4,1.8,2.2,1.3c0.6-0.1,0.8-0.4,0.6-1
		c-0.2-0.9-0.4-1.7-0.6-2.5C54.8,16.4,54.9,16.2,54.9,16z M116.4,50.3c0-1.9-1.4-3.3-3.1-3s-3.3,0.7-4.9,1.2
		c-2.1,0.7-2.6,2.5-1.5,4.4c0.7,1.1,1.8,1.4,2.9,1.2c1.7-0.3,3.2-0.8,4.9-1.3C115.8,52.5,116.4,51.5,116.4,50.3z M109.9,62.2
		c-1.9,0.4-1.9,0.4-1.7,2.3c0.1,0.6,0.3,0.8,0.9,0.7c1.1-0.2,2.2-0.4,3.3-0.6c1.5-0.2,3.2-0.6,4.7-0.8c0.3-0.1,0.8-0.2,0.8-0.7
		c0-0.9,0-1.7,0-2.5c0-0.4-0.2-0.7-0.8-0.8c-2-0.2-4-0.4-5.8-0.6c-1-0.1-2-0.2-3.1-0.3c0,0.6,0,0.9,0,1.3c0,1.1,0.1,1.2,1.2,1.3
		c0.1,0,0.3,0,0.4,0.1c0,0.1,0,0.2,0,0.3C109.9,62,109.9,62.1,109.9,62.2z M41.5,24.9c-2.2-2.5-4.3-4.9-6.5-7.3
		c-0.9,0.6-1.5,1.1-2.4,1.5c-0.7,0.3-0.7,0.7-0.3,1.2c1.2,2.5,2.4,5,3.6,7.5c0.1,0.1,0.2,0.2,0.3,0.4c0.4-0.3,0.9-0.6,1.3-0.8
		c0.9-0.6,0.9-0.6,0.4-1.4c0,0-0.1-0.1-0.1-0.2c0-0.2,0.1-0.4,0.1-0.7c0.2,0.1,0.4,0.1,0.6,0.2c0.2,0.2,0.4,0.6,0.7,0.9
		C40,25.9,40.7,25.4,41.5,24.9z M99,36.6c2.2-2.4,4.4-4.7,6.5-7.2c-0.7-0.9-1.3-1.5-1.9-2.3c-0.3-0.6-0.7-0.6-1.2-0.2
		c-2.2,1.4-4.4,2.8-6.7,4.2c-0.3,0.2-0.6,0.4-0.9,0.7c0.6,0.7,1.1,1.3,1.7,2c0.4-0.3,0.8-0.6,1.1-0.7c0.1-0.1,0.4,0,0.6,0.1
		c0.1,0.1,0,0.3-0.1,0.6c-0.1,0.1-0.2,0.2-0.3,0.3c-0.3,0.3-0.4,0.7-0.1,1C98.1,35.5,98.5,35.9,99,36.6z M74.8,20.6
		c0.1-3.2,0.2-6.3,0.3-9.3c0-0.1-0.2-0.4-0.4-0.4c-1-0.2-1.9-0.3-2.9-0.4c-0.1,0-0.3,0.1-0.4,0.2c-0.9,2.6-1.9,5.4-2.8,8.1
		c-0.1,0.2-0.1,0.4-0.1,0.8c0.7,0.1,1.1,0.2,1.7,0.3c0.9,0.1,0.9,0.1,1.1-0.7c0.1-0.6,0.3-0.8,0.9-0.4c0,0.2-0.1,0.4-0.1,0.7
		c0,0.3-0.2,0.8,0.3,0.9C73.2,20.4,74,20.5,74.8,20.6z M116.9,74.6c-3.1-1.2-6.1-2.4-9.2-3.4c-0.1,0.4-0.1,0.8-0.2,1
		c-0.1,0.4-0.3,0.9-0.2,1.2c0.1,0.3,0.7,0.6,1,0.8c0.1,0.1,0.2,0.3,0.3,0.4c-0.2,0.1-0.3,0.3-0.6,0.3c-0.3,0-0.8-0.1-1.2-0.1
		c-0.1,0.6-0.3,1.1-0.4,1.7c-0.1,0.8,0,0.9,0.8,0.9c1.8,0.2,3.6,0.3,5.4,0.4c1.1,0.1,2.2,0.1,3.4,0.2
		C116.3,76.9,116.7,75.8,116.9,74.6z M16,75.1c-0.1-0.4-0.3-0.9-0.4-1.2c-0.4-0.9-1.2-1.3-2.2-1.1c-0.6,0.1-1.2,0.3-1.8,0.6
		c-1.2,0.4-1.7,1.2-1.5,2.3c0.1,1,0.4,2,0.7,3c0.1,0.4,0.3,0.6,0.8,0.4c0.7-0.2,1.4-0.4,2.1-0.7c1.7-0.4,3.3-0.8,5-1.2
		c1.8-0.4,1.8-0.4,1.3-2.1c-0.1-0.7-0.4-0.8-1.1-0.7C18,74.7,17,74.9,16,75.1z M112.3,39.6c-0.8,0.6-1.5,1.2-2.2,1.8
		c-1.4,1.3-3,2.5-5,3.3c-1,0.3-1,0.4-0.6,1.3c0.7,1.4,0.4,1.3,1.9,0.8c1.2-0.4,2.3-0.9,3.5-1.1c0.7-0.2,1.4,0,2.1-0.1
		c0.9-0.1,1.7-0.2,2.5-0.3c-0.2-0.6-0.3-0.9-0.4-1.2c-0.4-1-0.6-1-1.7-0.8c-0.3,0.1-0.7,0.1-1,0.1c0-0.2,0.1-0.3,0.2-0.4
		c0.4-0.3,1.1-0.7,1.2-1.1s-0.3-1.1-0.6-1.7C112.5,39.9,112.4,39.8,112.3,39.6z M28.8,100.2c0.1,0,0.1,0.1,0.2,0.1
		c0,0.3,0.1,0.7,0.1,0.9c0,0.4-0.1,1-0.2,1.4c-0.2,1,0.8,1,1.1,1.4c0.1,0.2,0.4,0.3,0.8,0.3c0.1,0,0.2-0.1,0.3-0.1
		c0.2-0.1,0.3-0.2,0.6-0.4c0.2,0.2,0.4,0.3,0.7,0.6c0.1,0.2,0.3,0.4,0.3,0.7c-0.3,0.8,0.1,1.1,0.8,1.4c0.2-0.4,0.3-1,0.6-1.4
		c0.4-1.1,1-2.3,1.4-3.4c0.2-0.4,0.2-0.8-0.2-1c-0.4-0.3-0.8-0.3-1.1,0c-0.9,0.7-1.9,1.4-2.9,2.1c-0.3,0.2-0.7,0.3-1.2,0.7
		c0.2-0.9,0.3-1.5,0.4-2.2c0.2,0,0.3,0,0.3,0c1.4-0.1,2.2-1.3,1.3-2.5c-0.4-0.7-1.1-1.1-1.7-1.5c-0.2-0.2-0.6-0.2-0.8,0.1
		c-1,1.2-2,2.3-3,3.5c-0.3,0.3-0.3,0.6,0.1,0.9s0.7,0,0.9-0.2C28.1,101,28.4,100.7,28.8,100.2z M48.6,21.7c0.2,0,0.4,0,0.7-0.1
		c2.2-0.7,2-0.4,1.3-2.3c-0.6-1.5-1.1-3.1-1.7-4.7c-0.2-0.6-0.1-0.9,0.6-1c0.2,0,0.4-0.2,0.4-0.2c-0.1-0.6-0.2-1.1-0.4-1.7
		c0-0.1-0.6-0.1-0.8,0c-1.3,0.4-2.6,0.9-4.1,1.3c-0.2,0.1-0.4,0.4-0.3,0.6c0.1,0.6,0.3,1,0.6,1.5c0.6-0.1,1-0.2,1.4-0.3
		C47,17.1,47.7,19.4,48.6,21.7z M41.1,105C41.1,105.1,41.2,105.1,41.1,105c0,0.3,0,0.5-0.1,0.8c-0.6,1.1-1.1,2.3-1.5,3.4
		c-0.4,1-0.3,1,0.8,1.2c0.3-0.7,0.7-1.3,1-2.1c0.4,0.2,0.8,0.3,1.2,0.6c-0.2,0.7-0.6,1.2-0.8,1.9c0,0.2,0,0.6,0.2,0.7
		c0.2,0.2,0.7,0.3,0.9-0.1c0.8-1.5,1.5-3.1,2.3-4.7c-0.4-0.2-0.8-0.3-1.1-0.4c-0.2,0.4-0.4,0.9-0.7,1.3c-0.1,0.3-0.3,0.7-0.8,0.4
		c-0.4-0.2-0.8-0.4-0.4-1c0.1-0.3,0.2-0.7,0.3-1c0.2-0.3,0-0.6-0.3-0.8c-0.4-0.2-0.9-0.4-1.3-0.7c-0.4-0.2-0.8-0.2-1.1,0
		c-0.4,0.2-0.8,0.4-1.3,0.9c0.2-0.4,0.4-0.9,0.6-1.2c0.2-0.4,0.1-0.7-0.3-0.9c-0.3-0.2-0.6,0-0.8,0.3c-0.8,1.4-1.5,2.8-2.2,4.2
		c-0.1,0.1,0,0.4,0.1,0.6c0.4,0.4,0.7,0.4,1-0.2c0.2-0.4,0.3-1.1,1.2-1.1c-0.1,0.7-0.2,1.2-0.3,1.9c-0.1,0.3,0,0.6,0.3,0.7
		c0.2,0.1,0.6,0.2,0.8,0.3c0-0.1,0.1-0.1,0.1-0.2c0.1-1,0.2-2,0.3-3c0-0.2,0.1-0.6,0.2-0.7C40,105.5,40.6,105.3,41.1,105z
		 M64.8,19.2c0.1,0,0.2,0.1,0.2,0.1c0.4,0,0.9,0.1,1.4,0.1c1.3,0,1.8-0.3,2-1.7c0.3-2.4,0.4-4.9,0.7-7.3c0-0.1-0.2-0.4-0.3-0.4
		c-0.2-0.1-0.6-0.1-0.8-0.2c-1.3-0.2-1.4-0.1-1.5,1.2c-0.2,1.9-0.3,3.9-0.6,5.7c0,0.2-0.3,0.6-0.4,0.7c-0.4,0.1-0.6,0.3-0.6,0.7
		C64.7,18.4,64.8,18.8,64.8,19.2z M109.7,58.3c1.1-0.1,2.3-0.2,3.4-0.3c1.2-0.1,2.4-0.3,3.5-0.3c0.7,0,0.9-0.3,0.8-0.9
		c-0.1-2.1-0.1-1.9-1.9-1.8c-1.8,0.2-3.5,0.3-5.3,0.6c-0.4,0-0.8,0-1-0.6c-0.1-0.1-0.3-0.2-0.4-0.2c-1.2-0.1-1.3,0.1-1.2,1.3
		c0,0.2,0.1,0.4,0.1,0.7C108.1,58,108.5,58.3,109.7,58.3z M58.8,10.1c0,0.3,0,0.6,0,0.8c0.2,2.3,0.3,4.7,0.6,7.1
		c0.1,1.7,0.4,1.8,2.1,1.5c0.4-0.1,0.7-0.2,0.7-0.8c-0.2-1.9-0.3-3.7-0.4-5.5c-0.1-1.1-0.2-2.1-0.3-3.2C60.4,9.9,59.7,10,58.8,10.1z
		 M23,97.5c0.3-0.2,0.7-0.3,1-0.6c1-0.7,1.9-1.4,2.8-2.1s0.9-0.8,0.1-1.5c-0.3-0.4-0.7-0.3-1-0.1c-0.8,0.3-1.5,0.7-2.3,1
		c0-0.1-0.1-0.1-0.1-0.2c0.6-0.7,1.1-1.3,1.5-1.9c0.4-0.4,0.3-0.8-0.2-1.4c-0.4-0.4-0.7-0.2-1,0c-1.1,0.9-2.2,1.7-3.3,2.5
		c-0.7,0.6-0.7,0.7,0.1,1.2c0.3-0.2,0.7-0.6,1-0.8c0.3-0.2,0.7-0.4,1-0.8l0.1,0.1c-0.4,0.6-0.9,1.2-1.4,1.8c-0.3,0.3-0.2,0.7,0,0.9
		c0.2,0.3,0.4,0.3,0.9,0.2c0.6-0.3,1.2-0.6,1.9-0.8c0,0.2,0,0.3-0.1,0.3c-0.3,0.3-0.7,0.6-1.1,0.8C22.3,96.7,22.3,96.8,23,97.5z
		 M57.6,115.4c0.9,0,1.5,0.1,2.3,0c1.1-0.1,1.7-0.9,1.3-2c-0.1-0.3-0.3-0.7-0.6-1c0.1-0.1,0.2-0.2,0.2-0.3c0.7-0.9,0.4-1.8-0.6-2.2
		c-0.4-0.2-1-0.2-1.4-0.2c-1-0.1-1,0-1,0.9c0,0.3,0,0.7-0.1,1C57.7,112.9,57.6,114.1,57.6,115.4z M92.1,107.5
		c0.7-0.4,1.3-0.9,1.9-1.3c0.9-0.8,0.9-1.5,0.3-2.5c-0.3-0.4-0.7-1-1-1.4c-0.7-0.9-1.9-1.1-2.9-0.6c-0.3,0.2-0.7,0.6-1.1,0.8
		c-0.4,0.3-0.4,0.6-0.2,1C90,104.7,91,106.1,92.1,107.5z M64.3,112.1c-1.2,0.2-1.2,0.2-1.3-0.9c0-0.1,0-0.3,0-0.4
		c0-0.4-0.2-0.7-0.8-0.7s-0.6,0.3-0.6,0.7c0,1.4,0.1,3,0.1,4.4c0,0.2,0.1,0.4,0.1,0.7c0.4,0,0.8-0.1,1.1-0.1c0-0.8,0-1.5,0-2.3
		c0.2,0,0.3-0.1,0.4-0.1c0.9,0,0.9,0,0.9,0.9c0,0.4,0,0.9,0,1.4c0.4,0,0.9,0,1.1,0c0-1.8,0-3.5,0-5.3c0-0.4-0.3-0.3-0.7-0.3
		c-0.3,0-0.7,0-0.7,0.4C64.3,110.9,64.3,111.5,64.3,112.1z M74.4,111.5c-0.6,0.1-1,0.1-1.4,0.2c-0.2,0.1-0.4,0.2-0.6,0.4
		c0.2,0.2,0.3,0.3,0.6,0.6c0.1,0.1,0.4,0.2,0.4,0.4c0.1,0.3,0,0.7-0.4,0.8s-0.9,0.1-1-0.3c-0.2-0.8-0.3-1.7-0.4-2.5
		c0-0.2,0.3-0.7,0.6-0.7c0.2-0.1,0.6,0.2,0.8,0.3c0.2,0.1,0.4,0.2,0.6,0.2c0.7-0.2,0.8-0.6,0.3-1.1c-0.4-0.6-1.1-0.7-1.8-0.6
		c-0.9,0.2-1.3,0.7-1.5,1.4c-0.3,0.9-0.1,1.9,0.2,2.8c0.7,1.8,2.2,2.2,3.7,1.1c0.4-0.3,0.7-0.7,0.4-1.2
		C74.7,112.7,74.5,112.1,74.4,111.5z M92.3,100.5c1.2,1.3,2.4,2.8,3.7,4.1c1-0.6,1-0.8,0.3-1.4c-0.2-0.2-0.4-0.6-0.7-0.8
		c-0.3-0.4,0.1-0.7,0.3-0.9c0.3-0.2,0.6-0.3,0.8,0.1c0.2,0.3,0.6,0.7,0.8,1c0.3,0.3,0.6,0.4,0.9,0.1c0.4-0.3,0.3-0.7,0-0.9
		c-0.4-0.6-0.9-1.1-1.4-1.7c-0.7-0.8-1.3-1.4-2-2.1c-0.9,0.7-0.9,0.8-0.3,1.5c0.2,0.3,0.4,0.6,0.8,0.9c-0.3,0.3-0.7,0.6-1,0.9
		c-0.3-0.3-0.6-0.7-0.8-0.9C93.1,99.6,92.8,99.7,92.3,100.5z M66.1,115.5c0.8,0.1,1.4,0.1,1.4-0.8c0-0.2,0.4-0.4,0.7-0.4
		c0.3,0,0.9-0.2,1,0.3c0.2,0.8,0.7,0.7,1.3,0.6c0-0.1,0-0.3,0-0.3c-0.6-1.7-1.1-3.2-1.8-4.9c-0.1-0.1-0.4-0.2-0.7-0.2
		c-0.2,0-0.6,0.2-0.7,0.3C66.9,111.9,66.6,113.7,66.1,115.5z M102.6,98.8c-1.7-1-3.2-1.9-4.9-2.8c-0.1-0.1-0.6,0.1-0.7,0.3
		c-0.1,0.2-0.3,0.6-0.2,0.8c0.4,1.1,1,2.2,1.5,3.2c0.3,0.6,0.6,1,0.9,1.5c0.7-0.3,1.1-0.8,0.6-1.4c-0.2-0.3,0.1-0.6,0.3-0.8
		c0.2-0.2,0.6-0.6,1-0.3C101.9,99.8,102,99.7,102.6,98.8z M83.6,111.8c-1-1.4-1.9-2.9-2.9-4.2c-0.2-0.4-0.6-0.4-1-0.3
		s-0.7,0.3-0.7,0.9c0.1,1.4,0.1,3,0.1,4.4c0,0.2,0.1,0.6,0.2,0.8c0.2-0.1,0.7-0.1,0.8-0.3c0.2-0.2,0.2-0.4,0.2-0.8
		c0-0.7,0.7-0.6,1-0.7c0.1-0.1,0.6,0,0.7,0.2C82.7,112.3,82.7,112.3,83.6,111.8z M50.6,114.1c0.8,0.4,1.2,0.4,1.3,0
		c0.2-0.8,0.6-0.8,1.3-0.4c0.4,0.2,0.6,0.4,0.6,0.9c0.1,0.4,0.4,0.4,0.8,0.4c0.4,0,0.4-0.3,0.3-0.7c0-0.6-0.1-1.1-0.2-1.7
		c-0.1-1.1-0.2-2.1-0.4-3.2c0-0.1-0.3-0.3-0.4-0.4c-0.3,0-0.9,0-0.9,0.1C52.3,110.9,51.5,112.5,50.6,114.1z M107.4,92.6
		c-1.7-0.6-3.4-1.2-5.1-1.8c-0.3-0.1-0.6-0.2-0.8,0.2c-0.2,0.3-0.4,0.7-0.1,1c0.9,1.1,1.8,2.3,2.6,3.5c0.2,0.2,0.4,0.4,0.7,0.7
		c0.8-0.6,0.8-0.8,0.3-1.4c-0.3-0.4,0.1-0.8,0.3-1.1c0.1-0.2,0.3-0.4,0.7-0.2C106.9,93.7,107,93.6,107.4,92.6z M47.7,108.5
		c0-0.3,0.1-0.6,0-0.7c-0.1-0.2-0.2-0.4-0.4-0.6c-0.2-0.1-0.7-0.1-0.9,0c-1.1,1.3-2.1,2.8-3.2,4.2c-0.2,0.3-0.1,0.4,0.2,0.6
		c0.4,0.1,0.8,0.2,1-0.3c0-0.1,0.3-0.3,0.4-0.2c0.3,0.1,0.8,0.2,1.1,0.4c0.1,0.1,0.1,0.4,0.1,0.8c0,0.6,0.4,0.6,0.8,0.7
		c0.4,0.1,0.4-0.2,0.4-0.6C47.5,111.2,47.6,109.8,47.7,108.5z M86.3,107.9c-0.1,0-0.1,0.1-0.2,0.1c0-0.1-0.1-0.2-0.1-0.3
		c-0.6-0.7-1.2-1.3-1.8-2c-0.3-0.4-0.8-0.3-1.2,0c-0.4,0.3,0,0.6,0.2,0.8c0.1,0.1,0.2,0.2,0.2,0.3c1.1,1.2,2.1,2.4,3.2,3.5
		c1.1-0.4,1.1-0.4,1-1.4c-0.1-0.4-0.1-0.9-0.2-1.2c-0.2-1.2-0.4-2.3-0.7-3.5c-1,0.1-1.2,0.3-1,1.2C86,106.2,86.2,107.1,86.3,107.9z
		 M29.4,97c0.2-0.1,0.4-0.3,0.7-0.6c-0.8-0.8-1.5-1.4-2.3-2.1c-1.2,1.1-2.4,2.3-3.6,3.5c-0.1,0.1-0.1,0.6,0,0.7c0.4,0.6,1,1,1.4,1.5
		c0.2,0.2,0.4,0.3,0.8,0.1c0.3-0.3,0.3-0.6,0-0.9s-0.7-0.6-0.9-0.8c0.7-1.3,1.1-1.3,1.8-0.3c0.2,0.3,0.4,0.3,0.7,0.1
		c0.3-0.2,0.4-0.4,0.1-0.8c-0.2-0.2-0.4-0.6-0.8-0.9c0.2-0.2,0.6-0.7,0.7-0.6C28.4,96.4,28.9,96.7,29.4,97z M76.5,110
		c-0.1-0.1-0.2-0.1-0.3-0.2c-0.3-0.3-0.6-0.7-0.9-1c-0.3-0.4-0.8-0.3-1.2,0c-0.4,0.3,0,0.6,0.2,0.8c0.2,0.3,0.4,0.6,0.7,0.8
		c0.9,0.8,1.5,1.8,1.7,2.9c0,0.2,0.1,0.4,0.2,0.7c1.1-0.1,1.2-0.2,0.9-1.1c-0.4-1.1-0.3-2.1,0-3.1c0.1-0.6,0.2-1.1,0.3-1.9
		c-0.4,0.1-1,0.1-1.1,0.3C76.7,108.6,76.6,109.3,76.5,110z M48.4,113.6c0.3,0.1,0.7,0.3,1,0.2c0.1,0,0.3-0.4,0.4-0.7
		c0.3-1.1,0.6-2.1,0.9-3.2c0.1-0.4,0.3-0.7,0.8-0.4c0.3,0.2,0.7,0.2,0.8-0.2c0.1-0.4,0-0.7-0.4-0.8c-0.8-0.2-1.7-0.3-2.4-0.6
		c-0.4-0.1-0.7-0.1-0.9,0.3s0.2,0.6,0.6,0.7c0.6,0.1,0.6,0.4,0.4,0.8C49.1,111,48.7,112.2,48.4,113.6z M99.6,95
		c1.1,0.9,2.1,1.7,3.1,2.5c0.3,0.3,0.7,0.3,0.9,0c0.3-0.3,0.2-0.7-0.1-1c-0.8-0.7-1.5-1.3-2.4-2c-0.4-0.3-0.8-0.7-0.2-1.2
		c0.1-0.1,0-0.4-0.1-0.6c0-0.1-0.3-0.1-0.4-0.1c-0.9,0.8-1.7,1.5-2.2,2.6c0.2,0.2,0.4,0.3,0.8,0.6c0.1-0.2,0.2-0.3,0.3-0.4
		C99.2,95.4,99.5,95.3,99.6,95z M88.2,103.2c-1,0.4-1.1,0.4-0.6,1.3c0.7,1.2,1.4,2.4,2.1,3.6c0.2,0.3,0.4,0.4,0.8,0.2
		c0.3-0.2,0.4-0.4,0.2-0.9c-0.3-0.6-0.7-1.2-1-1.8C89.3,105,88.8,104.1,88.2,103.2z M83.1,18.5c-0.2,0.2-0.3,0.4-0.4,0.7
		c-0.1,0.3-0.1,0.7-0.2,1c0,0,0.1,0,0.1,0.1c0.8,0.3,1.4,0.7,2.2,1c0.2,0.1,0.6-0.1,0.7-0.3c0.2-0.3,0.3-1.1,0.2-1.1
		C84.9,19.4,84.1,18.9,83.1,18.5z"/>
	<path class="st0" d="M73.8,61.2c-1.3,0-2.5,0-3.6,0c-1.2,0-2.3,0-3.5,0c-0.7,0-0.9,0.3-0.9,0.9c0,0.9,0.1,1.8,0.1,2.6
		c0,0.7-0.1,1.3-0.3,2c-0.2,0.8-0.7,1.3-1.4,1.7c-0.6,0.2-0.6,0.6-0.2,1c1.5,1.8,3,3.5,4.5,5.2c0.3,0.3,0.3,0.7-0.1,1
		s-0.7,0.2-1-0.1c-1.9-2-3.7-4.1-5.7-6.1c-0.8-0.8-1.4-1.5-2.2-2.3c-0.2-0.2-0.4-0.4-0.6-0.7c-0.3-0.4-0.7-1.1-0.3-1.7
		c0.2-0.3,1-0.3,1.4-0.3c0.9-0.1,1.8-0.1,2.6-0.1c0.4,0,0.7-0.2,0.7-0.7c0-0.7,0-1.4,0-2.1c0-0.4-0.2-0.6-0.7-0.6c-1.3,0-2.6,0-4,0
		c-1.9,0-2.3-0.4-2.3-2.4c0.7,0,1.2,0,1.9,0c1.4,0,2.8,0,4.2,0c0.9,0,0.9-0.1,0.9-0.9c0-0.2,0-0.6,0-0.8c0.1-0.8-0.2-0.9-0.9-0.9
		c-2.2,0-4.4,0-6.5,0c-0.7,0-1-0.2-1.1-0.8s-0.3-1.1-0.6-1.8c0.3,0,0.6,0,0.9,0c5,0,9.9,0,14.9,0c0.6,0,0.8,0.1,0.9,0.6
		c0.2,0.6,0.4,1.1,0.8,1.8c-0.7,0-1.2,0-1.7,0c-1.2,0-2.3,0-3.5,0c-0.6,0-0.8,0.2-0.8,0.7c-0.1,2.1,0,2,1.8,2c1.5,0,3,0,4.5,0
		c0.4,0,0.7,0.1,0.9,0.6C73.2,60,73.4,60.5,73.8,61.2z"/>
	<path class="st0" d="M43.9,49.7c0,2.2-1.7,3.7-3.9,3.7c-3.1,0-6.5-2.5-7.3-5.5c-0.9-3,1.3-5.5,4.4-5c3.2,0.6,5.5,2.3,6.6,5.4
		c0.1,0.2,0.1,0.6,0.2,0.8C44,49.4,43.9,49.6,43.9,49.7z"/>
	<path class="st0" d="M59.7,92.3c0-1.2,0.2-2.3,0.8-3.3c1.2-2.3,4-2.8,6-1.2c1.3,1,2,2.4,2.3,4c0.4,1.8,0.3,3.4-0.4,5
		c-1.3,2.8-4.6,3.2-6.7,0.9C60.2,96.1,59.7,94.3,59.7,92.3z"/>
	<path class="st0" d="M83.1,49c0-1.3,1-2.8,2.4-4c1.8-1.4,3.7-2.3,6.1-1.9c2.2,0.4,3.5,2.4,2.8,4.5s-1.9,3.7-4,4.7
		c-1.3,0.7-2.5,1.1-4.1,0.9C84.4,53.1,83.1,51.9,83.1,49z"/>
	<path class="st0" d="M77,53.9c-1.4-3.6,0.4-13.3,3.4-18c0,0.8-0.1,1.4-0.1,2c-0.2,2.5-0.4,5.1-0.4,7.6c0,1.3,0.2,2.6,0.3,3.9
		c0.1,0.9,0.1,1.7-0.8,2.3C78.6,52.4,77.9,53.1,77,53.9z"/>
	<path class="st0" d="M61.3,80.1c-0.1,0.7-0.3,1.2-0.4,1.9c-0.2,1.8-1.1,2.6-2.9,3.3c-3.6,1.4-6.7,3.6-9.8,5.8
		c-0.3,0.2-0.6,0.4-1,0.7C48.5,88.1,58.2,80,61.3,80.1z"/>
	<path class="st0" d="M50,53.8c-1-1-2-2-3-3c-0.2-0.2-0.2-0.6-0.2-0.9c0.7-3.4,0.6-6.8,0.3-10.3c0-0.9-0.2-1.9-0.3-2.8
		c0-0.4-0.1-0.8-0.1-1.3C49.2,38,51.2,49.5,50,53.8z"/>
	<path class="st0" d="M79,57.2c1-0.3,2-0.6,3-0.9c1-0.3,1.7-0.1,2.4,0.4c3.4,2.4,7.2,4.4,11,6.1c0.2,0.1,0.3,0.1,0.6,0.2
		C92.5,64,80.9,60,79,57.2z"/>
	<path class="st0" d="M86.5,73.9c1.1-0.7,2.9-0.8,4.7-0.2c2.2,0.7,4.1,1.8,5,3.9c0.9,2-0.1,4.2-2.2,4.9s-4.2,0.6-6.2-0.6
		c-1.3-0.7-2.3-1.4-3.1-2.8C83.7,77.2,84,75.5,86.5,73.9z"/>
	<path class="st0" d="M78.8,71.7c2.2-3.2,11.5-7.2,17.1-7.4c-0.7,0.3-1.2,0.8-1.8,1c-2.2,1.3-4.4,2.5-6.6,3.9
		c-1.1,0.7-2.1,1.7-3.1,2.5c-0.7,0.6-1.4,1-2.4,0.7C81,72,79.9,71.9,78.8,71.7z"/>
	<path class="st0" d="M77.2,75.1c0.9,0.7,1.5,1.3,2.4,1.9s1,1.2,1,2.3c-0.1,4.2,0.3,8.3,1.2,12.4c0,0.2,0.1,0.3,0.1,0.7
		C79.2,90,76,78.3,77.2,75.1z"/>
	<path class="st0" d="M60.2,39.6c-1.1-0.7-1.9-2.3-2.2-4.2c-0.3-2.2,0-4.3,1.5-6.1c1.5-1.7,3.9-1.7,5.4,0c1.4,1.7,2.2,3.5,2.1,5.7
		c-0.1,1.4-0.4,2.8-1.3,3.9C64.4,40.8,62.6,41.1,60.2,39.6z"/>
	<path class="st0" d="M61.2,47.3C57.3,46.6,49.8,40,47.3,35c0.7,0.4,1.1,0.8,1.7,1.1c2.1,1.4,4.2,3,6.3,4.3c1.1,0.7,2.3,1.2,3.5,1.8
		c0.9,0.3,1.5,0.9,1.7,1.9C60.6,45.2,60.9,46.2,61.2,47.3z"/>
	<path class="st0" d="M65.1,47.4c0.3-1,0.6-2,0.8-3c0.2-1,0.8-1.4,1.7-1.9c4-1.5,7.6-3.6,11-6.1c0.1-0.1,0.3-0.2,0.6-0.3
		C78.1,39.6,68.5,47.3,65.1,47.4z"/>
	<path class="st0" d="M42.5,78.2c0,1.3-0.9,2.9-2.3,4.1c-1.7,1.5-3.6,2.4-6,2.1c-2.2-0.3-3.5-2.3-3-4.4s1.8-3.7,3.6-4.9
		c1.2-0.7,2.5-1.2,4-1.1C41,74.2,42.3,75.3,42.5,78.2z"/>
	<path class="st0" d="M48.4,73.1c1.5,3.5,0.2,13.3-2.5,18.2c0-0.8,0-1.4,0-2c0-2.5,0.2-5.1,0.1-7.6c0-1.3-0.3-2.5-0.6-3.9
		c-0.1-0.9-0.1-1.7,0.7-2.4S47.6,73.9,48.4,73.1z"/>
	<path class="st0" d="M46.3,69.9c-1,0.3-2,0.7-2.9,1s-1.7,0.2-2.5-0.3c-3.5-2.3-7.4-4.2-11.4-5.6c-0.2-0.1-0.3-0.1-0.6-0.2
		C32.4,63.6,44.2,67.1,46.3,69.9z"/>
	<path class="st0" d="M79.4,91.9c-0.8-0.6-1.4-1-2.1-1.5c-3.1-2.2-6.2-4.2-9.8-5.6c-0.7-0.2-1.1-0.7-1.3-1.4
		c-0.2-0.9-0.4-1.8-0.7-2.6c0-0.1,0-0.3,0-0.6c0.3,0.1,0.8,0.1,1.1,0.2c1.9,0.8,3.5,1.9,5.1,3.1c2.9,2.1,5.2,4.6,7.3,7.5
		c0.2,0.3,0.3,0.6,0.6,0.9C79.5,91.8,79.4,91.9,79.4,91.9z"/>
	<path class="st0" d="M30.8,62.9c1.3-0.6,2.5-1.2,3.9-1.8c2.5-1.1,5-2.5,7.3-4.1c0.2-0.1,0.4-0.2,0.6-0.4c0.7-0.7,1.4-0.8,2.2-0.4
		c1,0.3,2.1,0.7,3.2,1c-0.2,0.2-0.3,0.4-0.6,0.6c-3.3,2.4-7.1,3.9-11.1,4.6c-1.8,0.3-3.6,0.6-5.4,0.8C30.9,63.1,30.9,63.1,30.8,62.9
		z"/>
	<path class="st0" d="M20.1,41.8c-0.3,0.6-0.8,0.3-1.4-0.6C19.1,41.4,19.5,41.7,20.1,41.8z"/>
	<path class="st0" d="M17.2,55.7c-1.9-0.3-3.9-0.4-5.6-1c0-0.1,0-0.1,0-0.2c0.1-0.1,0.3-0.2,0.4-0.2c1.7,0.2,3.3,0.6,5.1,0.9
		c0.1,0,0.2,0.2,0.3,0.4C17.3,55.6,17.2,55.6,17.2,55.7z"/>
	<path class="st0" d="M14.9,61.7c-0.6,0.6-1.4,0.6-2.3,0C13.4,61.7,14.1,61.7,14.9,61.7z"/>
	<path class="st0" d="M87.9,24c1-1.5,2.1-3.2,3.2-4.9C91.4,20.2,88.8,24.2,87.9,24z"/>
	<path class="st0" d="M10.8,69c0.2-0.1,0.4-0.3,0.8-0.3c0.3,0,0.7,0.1,1.1,0.1c-0.1,0.6-0.7,0.2-0.9,0.3c-0.2,0.1-0.6,0.1-0.8,0.1
		C10.9,69.1,10.8,69.1,10.8,69z"/>
	<path class="st0" d="M54.4,12.4c0.1,0.2,0.3,0.3,0.4,0.6c0.2,0.6,0.2,0.8-0.3,1.3c-0.1-0.7-0.2-1.2-0.3-1.8
		C54.1,12.4,54.3,12.4,54.4,12.4z"/>
	<path class="st0" d="M108.4,51.5c0.4-0.6,4.9-1.9,6.1-1.7c-0.2,0.2-0.3,0.4-0.4,0.4c-1.8,0.4-3.6,0.9-5.4,1.3
		C108.5,51.6,108.5,51.6,108.4,51.5z"/>
	<path class="st0" d="M113.7,61.8c-0.6,0-1.1,0.1-1.8,0.1C112.3,61.5,112.4,61.5,113.7,61.8z"/>
	<path class="st0" d="M35.5,21.9c1.3,1.1,1.4,1.4,1.1,2C36.2,23.1,35.8,22.5,35.5,21.9z"/>
	<path class="st0" d="M101.2,30.7c-0.4,0.3-0.9,0.8-1.4,1.2c0,0-0.1-0.1-0.2-0.2c0.6-0.3,1-0.8,1.5-1.1
		C101.1,30.6,101.2,30.6,101.2,30.7z"/>
	<path class="st0" d="M72.8,14.5c-0.1,0.7,0.1,1.3-0.3,1.9c-0.1,0-0.2,0-0.2,0C72.4,15.7,72.5,15.2,72.8,14.5
		C72.7,14.5,72.7,14.5,72.8,14.5z"/>
	<path class="st0" d="M110.5,75.4c0.1-0.2,0.1-0.4,0.2-0.4c0.6,0.1,1.1,0.2,1.7,0.3c0,0.1,0,0.2,0,0.3
		C111.7,75.4,111.2,75.4,110.5,75.4z"/>
	<path class="st0" d="M12,76c0.3-0.8,1.4-1,2.2-0.4C13.4,75.6,12.8,75.8,12,76z"/>
	<path class="st0" d="M30.7,100.2c-0.4-0.3-0.9-0.6-0.9-0.9c0-0.2,0.3-0.8,0.7-0.8c0.2,0,0.8,0.3,0.8,0.7
		C31.3,99.6,30.9,99.9,30.7,100.2z"/>
	<path class="st0" d="M32.6,103.2c0.3-0.2,0.8-0.6,1.1-0.8l0.1,0.1c-0.1,0.3-0.2,0.8-0.4,1c-0.1,0.1-0.4,0-0.7,0
		C32.6,103.3,32.6,103.2,32.6,103.2z"/>
	<path class="st0" d="M58.8,114.3c0-0.3,0.1-0.8,0.2-1.2c0.3,0.1,0.7,0.2,0.9,0.4c0.1,0.1,0.1,0.4,0,0.6c-0.2,0.2-0.6,0.3-0.9,0.4
		C58.9,114.4,58.9,114.4,58.8,114.3z"/>
	<path class="st0" d="M58.9,111.9c0.2-0.3-0.1-1,0.7-1c0.4,0,0.4,0.3,0.3,0.6C59.8,112.1,59.3,112,58.9,111.9z"/>
	<path class="st0" d="M90.3,103.1c0.8-0.8,1.2-0.8,1.8-0.1c0.4,0.6,0.8,1.1,1.2,1.8c0.2,0.4,0,0.9-0.4,1c-0.2,0.1-0.6,0-0.7-0.1
		C91.5,104.8,91,104,90.3,103.1z"/>
	<path class="st0" d="M68.3,111.8c0.1,0.4,0.2,0.9,0.4,1.4c-0.3,0-0.4,0.1-0.8,0.1c0.1-0.6,0.2-1,0.2-1.4
		C68.1,111.8,68.3,111.8,68.3,111.8z"/>
	<path class="st0" d="M98.5,97.7c0.3,0.2,0.8,0.6,1.2,0.9c-0.2,0.2-0.4,0.3-0.7,0.6c-0.3-0.6-0.6-1-0.8-1.3
		C98.4,97.8,98.5,97.7,98.5,97.7z"/>
	<path class="st0" d="M80.6,109.1c0.2,0.4,0.4,0.8,0.7,1.3c-0.3,0.1-0.6,0.1-0.9,0.2c0-0.6,0-1-0.1-1.4
		C80.4,109.1,80.5,109.1,80.6,109.1z"/>
	<path class="st0" d="M53.6,111c0,0.4,0,0.9,0,1.4c-0.2-0.1-0.4,0-0.6-0.2c-0.1-0.1,0-0.3,0-0.6c0.1-0.2,0.2-0.4,0.3-0.8
		C53.5,111,53.6,111,53.6,111z"/>
	<path class="st0" d="M103.2,92.4c0.4,0.1,0.8,0.3,1.3,0.4c-0.1,0.2-0.2,0.4-0.3,0.8c-0.3-0.4-0.7-0.8-1-1.1
		C103.1,92.5,103.2,92.4,103.2,92.4z"/>
	<path class="st0" d="M46.6,109c0,0.4-0.1,0.9-0.2,1.5c-0.2,0-0.4,0-0.7-0.1c-0.1-0.1,0-0.3,0-0.6c0.2-0.3,0.4-0.7,0.6-0.9
		C46.5,108.9,46.5,109,46.6,109z"/>
</g>
</svg>
