<?xml version="1.0" encoding="utf-8"?>
<!-- Generator: Adobe Illustrator 23.0.0, SVG Export Plug-In . SVG Version: 6.00 Build 0)  -->
<svg version="1.1" id="Layer_1" xmlns="http://www.w3.org/2000/svg" xmlns:xlink="http://www.w3.org/1999/xlink" x="0px" y="0px"
	 viewBox="0 0 128 128" style="enable-background:new 0 0 128 128;" xml:space="preserve">
<style type="text/css">
	.st0{fill:#FFFFFF;stroke:#FFFFFF;stroke-width:2;stroke-miterlimit:10;}
</style>
<g>
	<path class="st0" d="M120,67.7c-1.8,19.3-10.4,34.4-26.9,44.2c-19.8,11.8-40.3,11.5-59.7-0.9C17.7,101.2,9.7,86.4,8,67.7
		c2,0.4,2.5,1.5,2.8,3.2c3.2,21.8,15.2,37,36.1,44.1s39.8,2.1,55.6-13.3c8.3-8.3,13.4-19,14.7-30.6C117.5,68.7,117.5,68.7,120,67.7z
		"/>
	<path class="st0" d="M118.3,51.7c-1.8-0.4-2.5-1.4-3.1-3.2c-8.7-28.3-38.6-44.2-66.9-35.5c-17.1,5.3-30.5,18.7-35.6,35.8
		c-0.4,1.5-1.6,2.6-3.2,2.8C13.3,31.5,33.8,7.8,65,8.3C96.1,8.8,115.3,33.2,118.3,51.7z"/>
	<path class="st0" d="M102.9,67.8c2.4,0.4,2.1,1.8,1.8,3.2c-2.6,17.1-16.8,31.2-34,34c-21.3,3.6-41.8-9.8-47-30.8
		c-0.4-1.1-0.4-2.4-0.7-3.6c-0.3-1.2,0-2.5,1.7-2.8c4.7,22.6,17.9,35.5,41.7,35.2c9.6,0,17.8-4.2,24.8-10.9
		C97.9,85.7,102,77,102.9,67.8z"/>
	<path class="st0" d="M26.6,52.5c-1.6-0.5-1.8-1.4-1.2-2.8c6-16,21.1-26.5,38.1-26.7c17.6,0,33.1,10.4,39.1,26.5
		c0.7,1.8,0.7,1.8-1.2,2.9C94.6,35.5,82.5,25.5,64,25.5S33.4,35.5,26.6,52.5z"/>
	<path class="st0" d="M64.4,12.9c1.1,1.2,2,2.5,2.9,3.8c0.2,0.4-0.6,1.4-1.1,2l-1.1,0.9c-2.5,1.8-4.3,1.4-5.4-1.6
		c-0.1-0.4-0.2-0.7-0.1-0.9S62.6,14.5,64.4,12.9z M64.1,14.8L61,17.2l2,2.4l3.1-2.4L64.1,14.8z"/>
	<path class="st0" d="M64.4,108.4c1.1,1.2,2,2.5,2.9,3.8c0.2,0.4-0.6,1.2-1.1,1.8c-0.4,0.4-0.7,0.7-1.1,1c-2.5,1.8-4.3,1.2-5.4-1.7
		c-0.1-0.2-0.2-0.7-0.1-0.9L64.4,108.4z M64.1,110.3l-3.1,2.3l2,2.5l3.1-2.4L64.1,110.3z"/>
	<path class="st0" d="M104.9,38c-1.1,0.6-1.8,1.4-2.4,1.2c-0.5-0.1-1.4-1.1-1.2-1.6c0.1-0.5,1-1.4,1.5-1.4S103.8,37.1,104.9,38z"/>
	<path class="st0" d="M22.8,39.7c-0.6-1.2-1.4-2-1.2-2.5c0.1-0.5,1.1-1.1,1.7-1.2c0.6-0.1,1.2,1,1.2,1.5
		C24.5,37.9,23.6,38.5,22.8,39.7z"/>
	<path class="st0" d="M23.4,86.2c-1.1,0.7-1.7,1.5-2.2,1.5c-0.5,0-1.1-1-1.7-1.6c-0.6-0.6,1.1-1.4,1.7-1.5
		C21.9,84.5,22.4,85.5,23.4,86.2z"/>
	<path class="st0" d="M109.5,84.7c-1.2,0.6-2,1.4-2.5,1.2c-0.7-0.3-1.1-0.9-1.4-1.6c0-0.4,1-1.2,1.5-1.2
		C107.5,83.1,108.2,83.9,109.5,84.7z"/>
	<path class="st0" d="M85.2,85c-8.9,7.7-34.7,7.6-43.1,1C56.5,91.2,70.6,91.2,85.2,85z"/>
	<path class="st0" d="M74.9,84.1c0.4,0.6,0.7,1.2,0.9,2c0,0.4-1.1,0.7-1.8,1l-5,0.7h-1.1L74.9,84.1z"/>
	<path class="st0" d="M50.4,86.7l1-2.2l1.8,0.7c1.6,0.7,3.1,1.6,4.5,2.5L50.4,86.7z"/>
	<path class="st0" d="M103,58.8c3.3,2.1,6.1,1.1,9.1-0.1c2.9-1.2,4.5,0.2,6.3,2.5l-0.6,0.2c-2.4-1-4.7-0.4-6.9,0.9
		C108.6,63.5,104.8,62.6,103,58.8z"/>
	<path class="st0" d="M9.6,61.7c1.7-2.7,4.2-3.9,6.4-2.9c2.2,1.1,5.6,2.1,9,0.2c-1.2,3.1-4.1,4.8-6.5,3.9S12.9,59.7,9.6,61.7z"/>
</g>
</svg>
