<?xml version="1.0" encoding="utf-8"?>
<!-- Generator: Adobe Illustrator 23.0.0, SVG Export Plug-In . SVG Version: 6.00 Build 0)  -->
<svg version="1.1" id="Layer_1" xmlns="http://www.w3.org/2000/svg" xmlns:xlink="http://www.w3.org/1999/xlink" x="0px" y="0px"
	 viewBox="0 0 128 128" style="enable-background:new 0 0 128 128;" xml:space="preserve">
<style type="text/css">
	.st0{display:none;fill:#F40C0C;}
	.st1{display:none;opacity:0.85;fill:#5B0303;stroke:#000000;stroke-miterlimit:10;enable-background:new    ;}
	.st2{fill:#FFFFFF;stroke:#FFFFFF;stroke-width:2;stroke-miterlimit:10;}
	.st3{opacity:0.3;fill:#FFFFFF;stroke:#FFFFFF;stroke-miterlimit:10;enable-background:new    ;}
	.st4{fill:#FFFFFF;stroke:#FFFFFF;stroke-miterlimit:10;}
</style>
<rect class="st0" width="128" height="128"/>
<rect x="-7.5" y="-9.5" class="st1" width="165" height="149"/>
<g>
	<path class="st2" d="M31.9,11.7c0.8,0.2,1.6,0.4,2.4,0.6c6.4,1.9,10.7,8.4,9.7,14.8c-1,7.1-6.7,12.2-13.7,12.2
		c-6.8,0-12.7-5-13.7-11.8c-0.4-2.7,0-5.3,1.1-7.8c0.5-1.1,1.3-1.5,2.2-1.2c0.9,0.4,1.1,1.2,0.6,2.4C17.4,28,22,35.7,29.8,36.2
		c5.6,0.4,10.6-3.9,11.2-9.7c0.6-5.5-3.4-10.8-8.8-11.7c-2.8-0.5-5.4,0.1-7.9,1.5c-0.5,0.3-1.3,0.3-1.8,0c-0.4-0.2-0.5-1-0.5-1.5
		c0-0.3,0.4-0.8,0.8-0.9c1.7-0.7,3.5-1.4,5.2-2c0.2-0.1,0.4-0.1,0.6-0.2C29.8,11.7,30.8,11.7,31.9,11.7z"/>
	<path class="st2" d="M86.1,33.4c-4.6,0.3-8.9,3.8-10.5,8.4c-0.6,1.8-0.7,2-2.6,1.9c-1.6-0.1-2.6,0.2-3.1,1.9c-0.3,1-1.1,2-1.8,3.1
		c0.6,0,1,0,1.5,0c0.9,0,1.4,0.5,1.5,1.4c0.1,0.8-0.5,1.5-1.3,1.6c-0.3,0-0.7,0-1,0c-5.1,0-10.2,0-15.2,0c-1.6,0-3.3,0.3-4.8,0.6
		c-1.4,0.2-2.1,0.1-2.4-0.8c-0.3-0.8,0.1-1.5,1.3-2.1c-0.8-1.2-1.7-2.4-2.6-3.7c-0.5,0.2-1.1,0.5-1.7,0.7c-4,1.9-7.3,4.5-10.1,7.9
		c-0.2,0.2-0.4,0.5-0.6,0.7c-0.6,0.6-1.4,0.8-2.1,0.3s-0.8-1.4-0.3-2.1c0.7-1,1.5-1.9,2.3-2.7c3-3.2,6.6-5.6,10.7-7.3
		c0.6-0.3,0.8-0.5,0.7-1.2c-1.2-8.3,4.5-15.4,12.8-16c7.5-0.6,14.3,5.6,14.6,13.3c0,0.5,0,0.9,0,1.4c1.4,0.4,1.4,0.3,2-0.8
		c2.4-5.3,6.6-8.5,12.3-9.4c1.9-0.3,3.5,1.2,3.5,3.2c0,3.3,0,6.5,0,9.8c0,0.7,0.2,1.1,0.8,1.5c7.2,4.2,12,10.3,14.4,18.4
		c0.2,0.7,0.5,1,1.2,0.9c1.1-0.1,2.1,0,3.2,0c2.5,0.1,4.3,1.9,4.3,4.3c0,3.7,0,7.5,0,11.2c0,2.4-1.9,4.3-4.3,4.3c-1.6,0-3.2,0-4.8,0
		c-0.7,0-1,0.2-1.3,0.8c-0.3,0.8-0.8,1.6-1.2,2.4c-0.5,0.8-1.4,1.1-2.1,0.7s-0.9-1.2-0.5-2.1c0.5-1.1,1-2.1,1.6-3.1
		c0.6-1.1,1.5-1.6,2.8-1.6c1.7,0,3.5,0,5.2,0c1.3,0,1.7-0.5,1.7-1.8c0-3.5,0-6.9,0-10.4c0-1.2-0.5-1.7-1.7-1.7c-1.5,0-2.9,0-4.4,0
		s-1.8-0.3-2.2-1.7c-2.2-8.4-7-14.6-14.5-18.6c-0.9-0.5-1.2-1.1-1.2-2.1c0-3.4,0-6.9,0-10.3C86.1,34.2,86.1,33.8,86.1,33.4z
		 M57.5,48.8L57.5,48.8c1.7,0,3.5,0,5.2-0.1c0.5,0,1.1-0.2,1.4-0.5c2.7-2.1,4.1-4.9,4.1-8.3c0.1-5.1-3.3-9.5-8.4-10.7
		c-4.8-1.1-9.9,1.4-12.1,5.9c-2.2,4.6-0.9,10.1,3.2,13.1c0.4,0.3,1,0.5,1.4,0.5C54.1,48.8,55.8,48.8,57.5,48.8z"/>
	<path class="st2" d="M75.4,103c-7.4,0-14.9,0-22.3,0c-0.2,1.6-0.4,3.1-0.6,4.6c-0.8,4.1-4.2,6.9-8.3,6.7c-4-0.2-7.3-3.3-7.7-7.5
		c-0.3-3.4-0.6-6.8-1-10.2c0-0.4-0.3-0.9-0.6-1.2c-6.7-5.8-10.3-13.2-10.9-22c0-0.1,0-0.3-0.1-0.5c-2.7,0.1-5.3,0.3-7.4,2.1
		c-1.2,1-1.8,2.2-1.4,3.8c0.3,1,1,1.6,1.8,1.5c1-0.1,1.4-0.7,1.5-1.7c0-0.8,0.6-1.3,1.5-1.3c0.8,0,1.4,0.6,1.5,1.5
		c0.3,3.2-3.3,5.6-6.4,4.2c-2.5-1.1-3.7-4.1-2.7-7c1.1-3.1,3.6-4.7,6.6-5.4c1.6-0.4,3.3-0.6,5-0.8c0.4-2.1,0.8-4.3,1.4-6.5
		c0.4-1.4,0.9-2.7,1.5-4c0.5-1.2,1.3-1.6,2.2-1.2c0.9,0.4,1.1,1.2,0.6,2.4c-3.1,7.2-3.2,14.5-0.4,21.8c1.4,3.6,3.5,6.6,6.4,9.5
		c0.2-1.5,0.3-2.8,0.4-4.2c0.1-0.5,0.1-1.1,0.2-1.6c0.2-0.9,0.9-1.4,1.7-1.3s1.4,0.8,1.2,1.8c-0.7,4-0.7,8-0.4,12
		c0.2,2.8,0.5,5.5,0.8,8.3c0.3,2.6,2.6,4.5,5.1,4.4c2.5,0,4.7-1.9,5-4.6c0.2-1.8,0.4-3.6,0.6-5.4c0.1-1.1,0.7-1.7,1.8-1.6
		c4.6,0.1,9.3,0.1,13.9,0.2c3,0,6.1,0,9.1,0c0-1.2,0-2.3,0-3.4c0-1.2,0.5-2,1.4-2s1.5,0.6,1.6,1.8c0.3,3.3,0.6,6.7,0.9,10
		c0.3,2.9,2.4,5,5.1,5.1c2.7,0,4.8-1.9,5.1-4.9c0.4-3.4,0.6-6.8,1-10.2c0.1-0.6,0.4-1.2,0.9-1.7c1.3-1.3,2.7-2.4,4-3.6
		c0.9-0.8,1.7-0.9,2.4-0.3c0.7,0.7,0.7,1.5-0.2,2.4c-1.1,1.1-2.3,2.1-3.4,3.2c-0.3,0.3-0.6,0.8-0.7,1.3c-0.3,3.1-0.6,6.1-0.9,9.2
		c-0.5,4.5-3.9,7.6-8.1,7.6s-7.6-3.3-8.1-7.7C75.7,105.5,75.5,104.3,75.4,103z"/>
	<path class="st2" d="M93.5,60.8c0,0.6,0,1.1,0,1.7c-0.1,0.8-0.6,1.3-1.4,1.4c-0.8,0.1-1.5-0.5-1.5-1.4c-0.1-1.2-0.1-2.4,0-3.6
		c0-0.8,0.8-1.4,1.6-1.3c0.9,0.1,1.3,0.6,1.4,1.4C93.5,59.6,93.5,60.2,93.5,60.8L93.5,60.8z"/>
	<g>
		<path class="st3" d="M61.6,33h-9.2v0.3v0.8l0,0h2.9c1.5,0.3,2.6,1.3,2.7,2.5h-5.4v0.5H58c-0.2,1.5-1.8,2.7-3.7,2.7
			c-0.7,0-1,0-1.9-0.1v0.9l0,0l6.5,6.5h1.6l-6.2-6.2l0,0c2.7,0,4.8-1.6,5-3.7h2.2v-0.5h-2.2c-0.1-1-0.6-1.9-1.5-2.5h3.7
			C61.6,34.1,61.6,33,61.6,33z"/>
		<path class="st4" d="M61.7,32.7h-9.2V33v0.8l0,0h2.9c1.5,0.3,2.6,1.3,2.7,2.5h-5.4v0.5h5.4c-0.2,1.5-1.8,2.7-3.7,2.7
			c-0.7,0-1,0-1.9-0.1v0.9l0,0l6.5,6.5h1.6l-6.2-6.2l0,0c2.7,0,4.8-1.6,5-3.7h2.2v-0.5h-2.2c-0.1-1-0.6-1.9-1.5-2.5h3.7L61.7,32.7
			L61.7,32.7z"/>
	</g>
	<g>
		<path class="st3" d="M34.4,19.8h-9.2v0.3v0.8l0,0h2.9c1.5,0.3,2.6,1.3,2.7,2.5h-5.4V24h5.4c-0.2,1.5-1.8,2.6-3.7,2.6
			c-0.7,0-1,0-1.9-0.1v0.9l0,0l6.5,6.5h1.6l-6.2-6.2l0,0c2.7,0,4.8-1.6,5-3.7h2.2v-0.5h-2.2c-0.1-1-0.6-1.9-1.5-2.5h3.7
			C34.4,20.9,34.4,19.8,34.4,19.8z"/>
		<path class="st4" d="M34.5,19.5h-9.2v0.3v0.8l0,0h2.9c1.5,0.3,2.6,1.3,2.7,2.5h-5.4v0.5H31c-0.2,1.5-1.8,2.6-3.7,2.6
			c-0.7,0-1,0-1.9-0.1V27l0,0l6.5,6.5h1.6l-6.2-6.2l0,0c2.7,0,4.8-1.6,5-3.7h2.2v-0.5h-2.2c-0.1-1-0.6-1.9-1.5-2.5h3.7
			C34.5,20.6,34.5,19.5,34.5,19.5z"/>
	</g>
</g>
</svg>
