<?xml version="1.0" encoding="utf-8"?>
<!-- Generator: Adobe Illustrator 23.0.0, SVG Export Plug-In . SVG Version: 6.00 Build 0)  -->
<svg version="1.1" id="Layer_1" xmlns="http://www.w3.org/2000/svg" xmlns:xlink="http://www.w3.org/1999/xlink" x="0px" y="0px"
	 viewBox="0 0 128 128" style="enable-background:new 0 0 128 128;" xml:space="preserve">
<style type="text/css">
	.st0{fill:#FFFFFF;stroke:#FFFFFF;stroke-width:3;stroke-miterlimit:10;}
	.st1{fill:#FFFFFF;stroke:#FFFFFF;stroke-width:2;stroke-miterlimit:10;}
	.st2{fill:#FFFFFF;stroke:#FFFFFF;stroke-width:0.75;stroke-miterlimit:10;}
</style>
<g id="Layer_10">
</g>
<g id="Layer_4">
</g>
<g id="Layer_13">
	<g>
		<path class="st0" d="M30.9,70.3c2.3-0.7,4.6-1.6,7-2.1c5.7-1.2,11.3-0.6,16.4,2.1c3.8,2,7.7,2.9,11.9,2.9c3.6,0,7.2,0.2,10.8,0.3
			c4.9,0.1,8.8,2.1,11.4,6.3c0.1,0.1,0.2,0.3,0.3,0.4c4-1.9,7.9-3.7,11.9-5.6c1.5-0.7,2.9-1.4,4.4-2.1c4.6-1.9,9.9-0.3,12.5,3.9
			c0.9,1.4,0.7,2.4-0.7,3.3c-11.8,7.6-23.5,15.4-35.4,22.8c-4.2,2.6-9.2,3.3-14.1,2.6c-4.2-0.7-8.4-1.9-12.5-3.1
			c-5-1.3-10-2.8-15.1-4.2c-2-0.6-3.9-0.4-5.8,0.6c-0.6,0.3-1.2,0.7-1.8,1c-1.4,0.6-2.4,1.2-2.2,3c0.1,1.1-0.8,1.7-1.9,1.7
			c-5.3-0.1-10.6-0.2-15.9-0.4c-1.5-0.1-2.1-0.9-2.1-2.5c0.2-6.3,0.4-12.7,0.5-19c0.1-4.9,0.3-9.8,0.4-14.7c0.1-2.2,0.7-2.8,2.8-2.7
			c4.8,0.1,9.6,0.2,14.4,0.4c2.3,0.1,2.9,0.7,2.8,3C30.9,68.9,30.9,69.7,30.9,70.3z M113,77.4c-1.9-1.8-4.4-2.2-7-1
			c-5,2.3-9.9,4.7-14.9,7c-0.9,0.4-1.2,0.8-1,1.9c0.3,2-0.3,3.4-2.9,3.3C80,88.4,72.9,88.2,65.8,88c-0.6,0-1.3,0-1.9-0.1
			c-1-0.1-1.7-1-1.7-2s0.8-1.8,1.9-1.9c0.4,0,0.7,0,1.1,0c6.4,0.2,12.8,0.3,19.3,0.5c0.5,0,0.9,0,1.4,0c-0.7-3.8-4-6.7-7.8-6.9
			c-2.3-0.1-4.6-0.2-6.9-0.2c-2.9-0.1-5.8-0.1-8.7-0.3c-3.6-0.1-6.7-1.7-9.9-3.2c-7-3.3-14-2.9-20.8,0.9c-0.7,0.4-1,0.9-1,1.7
			c-0.1,6.2-0.3,12.4-0.5,18.7c0,0.2,0.1,0.4,0.1,0.8c0.6-0.3,1.2-0.6,1.7-0.9c2.8-1.6,5.8-1.9,8.9-1c4,1.1,8,2.3,12,3.3
			c4.7,1.3,9.4,2.8,14.2,3.7c4.9,0.9,9.7-0.1,13.9-2.9c6.1-4,12.3-8,18.5-12C103.9,83.3,108.4,80.4,113,77.4z M26,99.9
			c0.3-10.1,0.6-20.4,0.9-30.8c-4,0-7.9,0-11.9,0c-0.3,10.2-0.6,20.4-0.9,30.8C18.1,99.9,22,99.9,26,99.9z"/>
	</g>
	<g>
		<path class="st1" d="M50.6,42.5c6.4,3.3,13.1,5,20.2,5.8c0,0.5,0,1.1,0,1.6c0.2,1.5,1.4,2.7,2.9,2.8c0.4,0,0.8,0,1.1,0
			c2.5,0,5.1,0,7.6,0c2,0,3.4-1.3,3.4-3.4c0-0.3,0-0.7,0-1c7.1-0.8,13.8-2.6,20.2-5.8c0,0.1,0,0.2,0,0.3c0,7.1,0,14.2,0,21.4
			c0,1.4-0.9,2.3-2.3,2.3c-17,0-34,0-50.9,0c-1.4,0-2.3-0.9-2.3-2.3c0-7.1,0-14.2,0-21.4C50.6,42.7,50.6,42.6,50.6,42.5z"/>
		<path class="st1" d="M68.4,28.2c0-0.2,0-0.3,0-0.4c0-1.9,0-3.7,0-5.5c0-0.3,0-0.6,0.1-0.8c0.2-0.6,0.6-0.9,1.3-0.9
			c5.7,0,11.4,0,17.1,0c0.9,0,1.4,0.5,1.5,1.4c0,0.1,0,0.3,0,0.4c0,1.8,0,3.6,0,5.4c0,0.1,0,0.2,0,0.4c0.2,0,0.3,0,0.4,0
			c5,0,10,0,15.1,0c1.4,0,2.3,0.9,2.3,2.3c0,2.1,0,4.2,0,6.3c0,0.3-0.1,0.4-0.3,0.5C101.8,39.5,97.5,41,93,42
			c-2.2,0.5-4.5,0.9-6.8,1.2c0,0-0.1,0-0.2,0c0-0.2,0-0.5-0.1-0.7c-0.2-1.6-1.5-2.8-3.1-2.8c-2.9,0-5.9,0-8.8,0
			c-1.7,0-3.1,1.4-3.1,3.1c0,0.1,0,0.2,0,0.4c-0.7-0.1-1.4-0.2-2.1-0.3c-3.9-0.6-7.8-1.5-11.5-2.8c-2.2-0.8-4.3-1.7-6.4-2.8
			c-0.2-0.1-0.3-0.2-0.3-0.5c0-2.1,0-4.3,0-6.4c0-1.3,0.9-2.2,2.2-2.2c5,0,10.1,0,15.1,0C68.1,28.2,68.3,28.2,68.4,28.2z M71.2,28.2
			c4.8,0,9.6,0,14.4,0c0-1.2,0-2.3,0-3.5c0-0.5-0.4-0.8-0.9-0.8c-4.2,0-8.3,0-12.5,0c-0.6,0-1,0.3-1,1c0,0.3,0,0.6,0,1
			C71.2,26.6,71.2,27.4,71.2,28.2z"/>
		<path class="st2" d="M78.4,43.1c1.2,0,2.4,0,3.6,0s2.1,0.8,2.1,2.1c0,1,0,2,0,3c0,1.2-0.8,2-2,2c-2.4,0-4.8,0-7.2,0
			c-1.2,0-2.1-0.8-2.1-2.1c0-1,0-2,0-3c0-1.2,0.8-2,2-2S77.2,43.1,78.4,43.1z"/>
	</g>
</g>
</svg>
