<?xml version="1.0" encoding="utf-8"?>
<!-- Generator: Adobe Illustrator 23.0.0, SVG Export Plug-In . SVG Version: 6.00 Build 0)  -->
<svg version="1.1" id="Layer_1" xmlns="http://www.w3.org/2000/svg" xmlns:xlink="http://www.w3.org/1999/xlink" x="0px" y="0px"
	 viewBox="0 0 128 128" style="enable-background:new 0 0 128 128;" xml:space="preserve">
<style type="text/css">
	.st0{fill:#FFFFFF;stroke:#FFFFFF;stroke-width:3.2357;stroke-miterlimit:10;}
</style>
<g id="Layer_10">
</g>
<g id="Layer_4">
</g>
<g id="Layer_11">
	<g>
		<path class="st0" d="M107.2,86.9c0.9,0.3,1.7,0.8,2.4,1.2c0.8,0.4,0.8,1.1,0.3,1.8c-0.3,0.5-0.8,1-1.3,1.3
			c-0.5,0.4-1.1,0.8-1.6,1.2c-0.4,0.4-0.6,1-0.3,1.5c0.2,0.6,0.4,1.3,0.8,1.8c0.6,1.6,1.1,3.2,1.2,5c0.2,3.1-1.3,5.6-4.1,6.8
			c-1.9,0.9-4,1.1-5.9,0.9c-2.5-0.2-5-0.8-7.4-1c-1.5-0.2-3-0.2-4.5-0.2c-1.2,0-1.9,0.8-2.3,1.9c-0.3,1-0.4,1.9-0.5,2.8
			c-0.4,3.1-0.9,6.3-1.3,9.5c-0.1,0.5-0.3,0.8-1,0.8c-18.2,0-36.5,0-54.6,0c-0.2,0-0.4,0-0.6,0c0-0.1,0-0.2,0-0.2
			c0.1-0.2,0.2-0.5,0.4-0.8c5.5-10.2,6.3-21.1,3.6-32.2c-0.8-3-2.2-5.6-4.2-7.9c-1.4-1.5-2.8-3.1-4.1-4.7c-3.7-4.6-6.6-9.7-8.3-15.3
			c-2.2-6.7-2.6-13.5-1.3-20.3C15,26.5,22.8,16.2,35.9,10.2c5.1-2.3,10.5-3.5,16-4.1c8.8-1,17.7-0.3,26.2,2.5
			c6.3,2,11.8,5.3,16.3,10.1c3.6,3.8,6.4,8.1,8.6,12.7c2.9,6,4.5,12.4,5.4,19c0.2,1.3-0.1,2.4-1,3.2c-1.1,1.1-1.1,1.2-0.2,2.5
			c0.1,0.1,0.2,0.2,0.2,0.4c1.9,2.9,3.9,5.8,5.8,8.8c1.3,2.2,2.6,4.3,3.8,6.6c1.1,1.9,0.4,3.3-1.6,4.2c-0.9,0.3-1.7,0.5-2.5,0.9
			c-0.8,0.3-1.6,0.6-2.4,1.1c-0.5,0.3-0.8,0.9-0.6,1.5c0.2,0.6,0.4,1.2,0.5,1.8c0.2,0.8,0.4,1.6,0.5,2.4c0.1,1.1-0.1,1.5-1.2,1.8
			s-2.2,0.5-3.3,0.9C106.8,86.8,107,86.8,107.2,86.9z M21.1,52.9c0.5,2.7,1.9,4.7,4.5,6c0.1,0.1,0.2,0.4,0.2,0.6
			c-0.4,1.9-0.1,3.7,0.9,5.3c1.3,2.3,3.7,3.2,6.6,2.6c0.6-0.1,1.3-0.3,1.9-0.4c0.3,1.1,0.5,2.3,0.9,3.3c0.5,1.5,1.3,3,2.6,4.1
			c2.5,2.3,6.3,2.3,9.1,0c0.9-0.6,1.6-1.5,2.6-2.3c0.3,1.5,0.6,3,1,4.5c0.2,0.9,0.4,1.7,0.5,2.5c0.1,0.4,0.3,0.6,0.8,0.5
			c0.8,0,1.5,0,2.4,0c0.5,0,0.6-0.2,0.8-0.6c1.1-3.3,2.3-6.6,3.3-9.8c1.3-3.9,4.2-5.4,7.9-5.9c2.4-0.4,4.5-1.1,6.5-2.5
			c2.5-1.8,2.9-4.1,1.4-6.8c-0.1-0.1-0.1-0.3-0.2-0.5c1.2-0.1,2.3,0,3.3-0.2c3-0.4,6-1,9.1-1.6c0.9-0.2,1.8-0.6,2.6-1.2
			c1.6-1,2.3-2.7,1.8-4.5c0-0.1-0.1-0.3-0.1-0.4c3.3-0.5,5.1-2.9,4.7-6.7c-0.4-4.2-2.5-7.4-6.3-9.5c-0.1,0-0.1-0.1-0.2-0.1l-0.1-0.1
			c0.4-1.8-0.4-3.5-2.3-4.2c-0.8-0.3-1.7-0.4-2.6-0.6c-0.2,0-0.4-0.1-0.5-0.3c-1.2-2.5-3.2-3.7-5.7-4.4c-1.8-0.5-3.6-0.5-5.2,0.1
			c-0.9-0.9-1.6-1.7-2.5-2.4c-2.5-1.7-5.1-1.7-7.8-0.5c-0.5,0.2-0.9,0.2-1.3-0.1c-2.7-1.6-5.5-2-8.5-1.1c-0.8,0.2-1.4,0.6-2,1.2
			c-0.3,0.3-0.5,0.3-1.1,0.2c-2.5-0.8-4.7-0.5-6.7,1.2c-0.6,0.6-1.1,1.5-1.7,2.3c0.1,0,0,0,0,0c-2.4-1.3-5.3-0.4-7,1.6
			c-0.4,0.5-0.9,1.2-1.2,1.8c-0.2,0.3-0.3,0.4-0.8,0.5c-0.8,0.1-1.6,0.3-2.4,0.6c-1.5,0.8-2,2-1.9,3.7c0,0.4-0.1,0.6-0.5,0.9
			c-1.6,0.9-2.7,2-3.3,3.7c-0.6,1.6-0.3,3,0.5,4.4C21.1,42.1,20.1,47.3,21.1,52.9z"/>
	</g>
	<g>
		<path class="st0" d="M46.9,63.3c2.5-5.8,5-11.6,7.4-17.5c-2.5,0-5.1,0-7.6,0c0.1-0.4,0.2-0.8,0.3-1.1c1.3-3.6,2.5-7.2,3.8-10.8
			c1.1-3.2,2.3-6.4,3.3-9.6c0-0.1,0.1-0.3,0.3-0.3c3.6,0,7.1,0,10.8,0c0,0,0.1,0,0.2,0c-3.7,5.6-7.3,11.1-11,16.7c2.9,0,5.6,0,8.5,0
			C57.7,48.4,52.3,55.8,46.9,63.3L46.9,63.3z"/>
	</g>
</g>
</svg>
