<?xml version="1.0" encoding="utf-8"?>
<!-- Generator: Adobe Illustrator 23.0.0, SVG Export Plug-In . SVG Version: 6.00 Build 0)  -->
<svg version="1.1" id="Layer_1" xmlns="http://www.w3.org/2000/svg" xmlns:xlink="http://www.w3.org/1999/xlink" x="0px" y="0px"
	 viewBox="0 0 128 128" style="enable-background:new 0 0 128 128;" xml:space="preserve">
<style type="text/css">
	.st0{fill:#FFFFFF;stroke:#FFFFFF;stroke-width:5.2629;stroke-miterlimit:10;}
</style>
<g id="Layer_10">
</g>
<g id="Layer_4">
</g>
<g>
	<path class="st0" d="M82.6,116.1c-0.8-0.2-1.6-0.3-2.3-0.5c-4.3-1.1-8.6-2-12.8-3.1c-0.5-0.1-0.7,0-0.9,0.4c-0.7,2-1.5,4-2.2,6
		c-0.1,0.2-0.2,0.4-0.3,0.8c-0.2-0.5-0.4-0.9-0.5-1.4c-0.6-1.8-1.4-3.6-2-5.4c-0.2-0.5-0.4-0.6-0.9-0.4c-4.7,1.2-9.6,2.3-14.3,3.4
		c-0.2,0.1-0.4,0.1-0.7,0.1c0-0.5,0-0.9,0-1.4c0.1-1.2,0.2-2.4,0.3-3.6c0.1-0.6,0.4-0.9,0.9-1.4c3.5-2.2,6.9-4.4,10.4-6.5
		c0.6-0.4,1.2-0.8,1.8-1.3c0.4-0.3,0.6-0.7,0.5-1.3c-0.9-4.8-1.2-9.8-1.3-14.6c-0.1-2.8-0.1-5.8-0.1-8.6c0-1.3-0.5-1.7-1.8-1.5
		c-4.7,0.9-9.6,1.9-14.3,2.9c-2,0.4-3.9,1.4-5.8,2.1c-8,2.9-15.7,5.9-23.5,8.8c-0.2,0.1-0.5,0.2-0.8,0.3c0-1.8-0.1-3.5,0.4-5.2
		c0.2-0.8,0.8-1.4,1.6-1.9c7.5-5.4,14.9-10.7,22.5-16.1c6.5-4.6,13.1-9.4,19.6-14c0.3-0.2,0.5-0.5,0.5-0.9
		c0.6-8.8,0.9-17.7,1.2-26.5c0.1-5.2,1.3-10.1,3.5-14.8c0.3-0.6,0.7-1.2,1.2-1.7c0.9-1.1,2.1-1.1,3.1,0c0.6,0.7,1.2,1.5,1.5,2.3
		c1.7,3.6,2.6,7.4,2.9,11.3c0.3,3.3,0.2,6.4,0.4,9.7c0.3,6.6,0.6,13.2,1.1,19.8c0,0.3,0.2,0.6,0.4,0.7c5.1,3.6,10,7.2,15.1,10.8
		c8.9,6.4,17.8,12.8,26.7,19.2c1.5,1.1,2.1,2.3,2.3,4c0.1,1.1,0.1,2.2,0.2,3.4c-0.4-0.1-0.7-0.2-0.9-0.3
		c-9.5-3.6-18.9-7.3-28.4-10.7c-1.7-0.6-3.5-0.8-5.2-1.2c-3.2-0.6-6.4-1.3-9.6-2c-0.2,0-0.3-0.1-0.5-0.1c-0.9-0.1-1.5,0.3-1.5,1.3
		c0,1.9,0,3.8-0.1,5.8c-0.1,5.3-0.2,10.6-0.9,15.9c-0.1,0.6-0.2,1.2-0.3,1.8c-0.1,0.6,0,1.1,0.5,1.4c1.9,1.3,3.9,2.5,5.8,3.8
		c2,1.4,4.1,2.6,6.2,3.9c0.6,0.4,1.1,0.8,1.1,1.6C82.4,112.8,82.4,114.4,82.6,116.1z"/>
</g>
</svg>
