<?xml version="1.0" encoding="utf-8"?>
<!-- Generator: Adobe Illustrator 23.0.0, SVG Export Plug-In . SVG Version: 6.00 Build 0)  -->
<svg version="1.1" id="Layer_1" xmlns="http://www.w3.org/2000/svg" xmlns:xlink="http://www.w3.org/1999/xlink" x="0px" y="0px"
	 viewBox="0 0 128 128" style="enable-background:new 0 0 128 128;" xml:space="preserve">
<style type="text/css">
	.st0{fill:#FFFFFF;stroke:#FFFFFF;stroke-width:3;stroke-miterlimit:10;}
</style>
<g id="Layer_10">
</g>
<g id="Layer_4">
</g>
<g id="Layer_6">
	<g>
		<path class="st0" d="M65.5,104.8c-4.3,0.4-8.6,0.4-13-0.2c-0.1,0.9-0.1,1.9-0.2,2.7c-0.1,1.2-0.3,2.5-1,3.6
			c-0.6,0.9-1.4,1.4-2.7,1.4c-2.8,0-5.5,0-8.3,0c-1.2,0-2.1-0.4-2.6-1.4c-0.5-0.9-0.9-2-1-3c-0.3-2.8-0.4-5.6-0.6-8.5
			c0-0.6-0.3-0.9-0.8-1.3c-4.9-3.1-9-6.9-11.9-11.9c-0.6-1-1-2.1-1.7-3.2c-0.1-0.2-0.4-0.4-0.6-0.4c-1.7-0.2-3.2-0.4-4.9-0.6
			c-2.6-0.3-4.2-2.1-4.2-4.7c0-3.9,0-7.9,0-11.7c0-2.6,1.9-4.6,4.3-4.8c1.6-0.1,3.2-0.3,4.8-0.5c0.5,0,0.7-0.2,1-0.6
			c0.9-1.8,1.9-3.4,2.9-5.1c0.7-1.2,1.8-2.3,2.4-3.5C29.5,47,30,41,26.3,37c-0.7-0.8-0.4-1.7,0.6-2.1c4.3-1.4,8.4-0.7,12,2
			c1.3,0.9,2.4,2.2,3.6,3.3c0.4,0.4,0.6,0.5,1.2,0.3c9.7-3.4,19.5-3.8,29.4-1c4.7,1.3,8.8,3.6,12.6,6.6c2.4,1.8,4.5,3.8,6.2,6.1
			c3.4,4.3,5.6,9.2,6.4,14.8c0,0.3,0.1,0.6,0.1,0.9s0,0.5,0.1,1c0.8-0.6,1.6-1,2.2-1.4c-0.4-1.3-0.8-2.6-1-3.9
			c-0.1-0.8-0.1-1.9,0.1-2.7c0.4-1.9,2-2.9,3.9-2.5c0.8,0.2,1.7,0.4,2.4,0.8c1.9,0.9,2.5,2.7,1.4,4.5c-0.7,1.2-1.8,2.4-2.7,3.5
			c-0.2,0.2-0.3,0.3-0.5,0.5c0.7,1,2.1,1.3,3.2,0.9s2.1-1.1,2.8-2.1c0.8-1,1.6-2.2,2.3-3.3c0.5-0.7,1.1-0.9,1.8-0.5
			c0.6,0.3,0.7,1,0.3,1.8c-1.1,1.6-2.2,3.1-3.4,4.5c-0.5,0.6-1.2,1-2,1.4c-2.2,1.2-4.5,0.9-6.3-0.6c-0.2-0.2-0.4-0.3-0.6-0.5
			c-1.1,0.7-2.2,1.3-3.2,2.2c-0.2,0.2-0.3,0.7-0.3,1c-0.3,4.3-1.1,8.5-3,12.3C93,90.9,88.7,95.6,83,99.1c-0.5,0.3-0.8,0.7-0.8,1.3
			c-0.1,2.4-0.3,4.9-0.5,7.2c-0.1,1.7-0.6,3.1-2,4.1c-0.3,0.3-0.8,0.5-1.3,0.5c-3,0.1-6,0-8.9,0.1c-0.9,0-1.6-0.4-2.2-1.1
			c-0.9-1.1-1.2-2.5-1.3-3.9C65.6,106.5,65.6,105.7,65.5,104.8z M29.1,36.7c0,0.1,0,0.2,0,0.2c0,0.1,0,0.1,0.1,0.2
			c2.9,4.8,2.5,9.6,0.3,14.6c-0.5,1-1.2,2-1.9,2.9c-1.3,2.4-2.7,4.7-4,7c-0.3,0.5-0.7,0.8-1.3,0.9c-2,0.2-3.8,0.4-5.7,0.6
			c-1.4,0.2-2.3,1-2.3,2.5c0,3.8,0,7.8,0,11.6c0,1.6,0.8,2.4,2.3,2.5c1.9,0.2,3.7,0.4,5.6,0.6c0.7,0.1,1.1,0.4,1.4,1
			c1.1,2.9,2.8,5.5,4.9,7.9c2.6,3,5.6,5.5,9,7.5c0.5,0.3,0.8,0.6,0.9,1.2c0.2,3.2,0.4,6.4,0.6,9.6c0,0.6,0.3,1.1,0.5,1.8
			c0.2,0.5,0.5,0.7,1.1,0.7c2.4,0,4.8,0,7.1,0c1.4,0,1.9-0.3,2.1-1.8c0.1-0.3,0.1-0.7,0.1-1c0.1-1.1,0.1-2.3,0.2-3.5
			c0.1-1.6,0.5-1.9,2-1.7c4.6,0.7,9.2,0.8,13.8,0.2c1.1-0.2,1.7,0.2,1.8,1.4c0.1,1.1,0.1,2.3,0.2,3.4c0.1,0.7,0.3,1.4,0.5,2.2
			c0.2,0.5,0.5,0.7,1.1,0.7c2.4,0,4.9,0,7.2,0c1.3,0,1.6-0.2,1.9-1.4c0.1-0.3,0.2-0.6,0.2-0.9c0.2-2.9,0.4-5.7,0.6-8.6
			c0-0.6,0.3-1,0.8-1.3c1.1-0.7,2.3-1.3,3.3-2.2C94.1,88,98.8,75,94.9,62.7c-1.4-4.5-3.8-8.4-7.2-11.8c-1-1-2.2-1.9-3.3-2.8
			c-3-2.5-6.4-4.6-10.1-5.8c-10.4-3.5-20.7-3.1-30.9,0.7c-1,0.4-1.2,0.2-2-0.5c-1.2-1.3-2.4-2.7-3.8-3.7C35,36.9,32.2,36,29.1,36.7z
			 M102.6,66c0.7-0.7,1.3-1.3,1.9-2c1.6-1.9,1.2-2.8-1.1-3.2c-0.9-0.2-1.3,0-1.6,1C101.6,63.2,102,64.4,102.6,66z"/>
		<path class="st0" d="M69,25.5c-0.1,5.1-4.1,8.9-9.1,8.8c-5-0.1-8.9-4.2-8.8-9.1c0.2-5,4.3-8.9,9.3-8.8C65.3,16.6,69,20.6,69,25.5z
			 M60.1,18.5c-3.5,0-6.8,2.8-6.8,6.7c0,3.7,3,6.8,6.7,6.9s6.9-3,6.9-6.6C66.9,21.5,64.1,18.5,60.1,18.5z"/>
		<path class="st0" d="M59.4,43.9c4.3,0,7.8,0.6,11.1,2.1c0.4,0.2,0.7,0.6,0.8,1c0.1,0.2-0.3,0.8-0.6,0.9c-0.3,0.1-0.8,0.1-1.2,0
			c-1-0.3-2-0.7-2.9-0.9c-5.5-1.4-10.8-1.1-16,0.9c-0.1,0-0.2,0.1-0.3,0.1c-0.6,0.2-1.2-0.1-1.4-0.6c-0.2-0.6,0-1.1,0.7-1.3
			c2.1-0.6,4.1-1.3,6.3-1.8C57.2,44,58.6,44,59.4,43.9z"/>
		<path class="st0" d="M42.5,61.5c0,1.7-0.4,3.3-1.7,4.6c-1.1,1.1-2.7,1.2-3.9,0.2c-2.4-2.1-2.4-7.2,0-9.3c1.4-1.2,3.3-1.1,4.3,0.5
			c0.7,1.2,1,2.6,1.6,3.9C42.7,61.4,42.6,61.5,42.5,61.5z"/>
	</g>
</g>
</svg>
