<?xml version="1.0" encoding="utf-8"?>
<!-- Generator: Adobe Illustrator 23.0.0, SVG Export Plug-In . SVG Version: 6.00 Build 0)  -->
<svg version="1.1" id="Layer_1" xmlns="http://www.w3.org/2000/svg" xmlns:xlink="http://www.w3.org/1999/xlink" x="0px" y="0px"
	 viewBox="0 0 128 128" style="enable-background:new 0 0 128 128;" xml:space="preserve">
<style type="text/css">
	.st0{display:none;}
	.st1{display:inline;}
	.st2{fill:none;stroke:#000000;stroke-width:3;stroke-miterlimit:10;}
	.st3{fill:none;}
	.st4{fill:none;stroke:#000000;stroke-width:5;stroke-miterlimit:10;}
	.st5{fill:none;stroke:#000000;stroke-width:2;stroke-miterlimit:10;}
	.st6{fill:none;stroke:#000000;stroke-miterlimit:10;}
	.st7{fill:none;stroke:#000000;stroke-width:4;stroke-miterlimit:10;}
	.st8{fill:#6D5042;}
	.st9{stroke:#000000;stroke-width:2;stroke-miterlimit:10;}
</style>
<g id="Layer_9">
</g>
<g id="Layer_14">
</g>
<g id="workingcapital-w" class="st0">
	<g class="st1">
		<path class="st2" d="M97.9,96H30c-6.6,0-12-5.4-12-12V42c0-6.6,5.4-12,12-12h67.9c6.6,0,12,5.4,12,12v42
			C109.9,90.6,104.5,96,97.9,96z"/>
		<path class="st2" d="M101.3,73.3H75.9c-4.4,0-8-3.6-8-8v-4.7c0-4.4,3.6-8,8-8h25.5c4.4,0,8,3.6,8,8v4.7
			C109.3,69.8,105.7,73.3,101.3,73.3z"/>
		<ellipse cx="78.8" cy="63.3" rx="4.3" ry="4.3"/>
	</g>
</g>
<g id="vehicle-loan-small-road-transportar-w" class="st0">
	<g class="st1">
		<g>
			<path d="M75.4,75.9c10.7,0,21.4,0,32.1,0c0.4,0,0.8,0,1.1,0c0.9,0.1,1.5,0.7,1.6,1.5c0,0.8-0.6,1.4-1.5,1.6c-0.3,0-0.6,0-0.9,0
				c-21.6,0-43.2,0-64.8,0c-0.4,0-0.8,0-1.2-0.1c-0.8-0.2-1.3-0.8-1.2-1.6c0-0.8,0.5-1.3,1.3-1.4c0.4-0.1,0.9-0.1,1.3-0.1
				C53.8,75.9,64.6,75.9,75.4,75.9z"/>
			<path d="M28.7,92.3c-0.8,0-1.5-0.7-1.6-1.5c0-0.8,0.6-1.5,1.5-1.6s1.6,0.6,1.6,1.5C30.2,91.6,29.5,92.3,28.7,92.3z"/>
			<path d="M98.4,90.8c0,0.8-0.7,1.5-1.5,1.6c-0.8,0-1.5-0.6-1.6-1.5c0-0.9,0.7-1.6,1.5-1.6C97.8,89.3,98.4,89.9,98.4,90.8z"/>
			<path d="M83.6,92.3c-0.8,0-1.5-0.7-1.5-1.5c0-0.9,0.7-1.6,1.6-1.5c0.8,0,1.5,0.7,1.5,1.6C85.1,91.6,84.4,92.3,83.6,92.3z"/>
		</g>
		<g>
			<path class="st3" d="M96.9,85.7c-2.8,0-5.1,2.3-5,5.1c0,2.8,2.3,5.1,5.1,5.1c2.8,0,5.1-2.4,5.1-5.1C102,88,99.7,85.7,96.9,85.7z"
				/>
			<path class="st3" d="M83.6,85.7c-2.8,0-5.1,2.3-5,5.1c0,2.8,2.3,5.1,5.1,5.1c2.8,0,5.1-2.4,5.1-5.1
				C88.7,87.9,86.4,85.7,83.6,85.7z"/>
			<path class="st3" d="M28.7,85.7c-2.8,0-5.1,2.2-5.1,5s2.3,5.1,5.1,5.2s5.1-2.3,5.1-5.1S31.5,85.7,28.7,85.7z"/>
			<path class="st3" d="M33.7,82.6c0-9,0-17.9,0-26.9c-4,0-7.8,0-11.7,0c-0.2,0-0.5,0.2-0.6,0.4c-0.4,1-0.7,2-1,3.1c0.6,0,1,0,1.3,0
				c2.1,0,4.2,0,6.3,0c1.8,0,2.2,0.5,2.2,2.2c0,2.3,0,4.6,0,7c0,2.8-1.1,3.9-4,3.9c-3.7,0-7.4,0-11.1,0c-1,0-1.4,0.5-1.5,1.3
				c-0.1,1.3,0,2.5,0,3.8c1.3,0.3,3.2-0.4,3.2,1.6c0,2.1-1.9,1.4-3.2,1.7c0,2.3,0,4.5,0,6.8c2.4,0,4.7,0,7,0c0.2,0,0.5-0.3,0.7-0.5
				c1.7-3.1,4.4-4.5,7.9-4.5C30.7,82.6,32.2,82.6,33.7,82.6z"/>
			<path class="st3" d="M27,62.3c-1.6,0-3,0-4.5,0c-1.1,0-2.4-0.3-3.1,0.2s-0.9,1.9-1.2,3c-0.4,1.2-0.8,2.4-1.2,3.6
				c3.5,0,6.7,0,10.1,0C27,66.9,27,64.7,27,62.3z"/>
			<path class="st3" d="M36.9,82.6c1.2,0,2.3,0,3.4,0c0.9,0,1.4,0.5,1.5,1.4c0,0.9-0.5,1.4-1.3,1.6c-0.4,0.1-0.8,0.1-1.1,0.1
				c-1.3,0-2.7,0-4.1,0c0.4,0.9,0.9,1.8,1.2,2.6c0.2,0.8,0.6,0.9,1.3,0.9c5.7,0,11.4,0,17.1,0c6.5,0,13.1,0,19.6,0
				c0.4,0,0.9-0.1,1.1-0.3c0.5-1,0.9-2.1,1.3-3.2c-0.4,0-0.8,0-1.2,0c-9.2,0-18.5,0-27.7,0c-0.5,0-1.1,0.1-1.4-0.2
				c-0.5-0.3-1-0.9-1.1-1.4c-0.1-0.7,0.4-1.3,1.2-1.4c0.5-0.1,1-0.1,1.5-0.1c21.4,0,42.7,0,64.1,0c0.4,0,0.9,0,1.4,0
				c0-3.7,0-7.4,0-11H40.4V45.8c-1.2,0-2.3,0-3.5,0C36.9,58,36.9,70.2,36.9,82.6z"/>
			<path class="st3" d="M105.1,89.2c1.2,0,2.3,0,3.5,0c0-1.2,0-2.3,0-3.4c-1.7,0-3.4,0-5,0C104.1,86.9,104.6,88.1,105.1,89.2z"/>
			<path d="M113.8,82.6c-0.5,0-1,0-1.4,0c-21.4,0-42.8,0-64.2,0c-0.5,0-1,0-1.5,0.1c-0.8,0.1-1.3,0.7-1.2,1.4
				c0.1,0.5,0.6,1.1,1.1,1.4c0.3,0.2,0.9,0.2,1.4,0.2c9.3,0,18.5,0,27.8,0c0.4,0,0.8,0,1.2,0c-0.5,1.1-0.8,2.2-1.3,3.2
				c-0.1,0.2-0.7,0.3-1.1,0.3c-6.6,0-13.1,0-19.7,0c-5.7,0-11.4,0-17.2,0c-0.7,0-1.1-0.1-1.3-0.9c-0.2-0.9-0.7-1.7-1.2-2.6
				c1.4,0,2.7,0,4.1,0c0.4,0,0.8,0,1.1-0.1c0.9-0.2,1.4-0.7,1.3-1.6c0-0.9-0.6-1.4-1.5-1.4c-1.1-0.1-2.3,0-3.4,0
				c0-12.4,0-24.6,0-36.8c1.2,0,2.3,0,3.5,0v-3.2c-0.9,0-1.7,0-2.6,0c-0.2,0-0.5,0-0.7,0c-2,0.1-3.3,1.4-3.3,3.4c0,1.5,0,2.9,0,4.4
				c0,0.7,0,1.4,0,2.2c-0.5,0-0.9,0-1.3,0c-3.9,0-7.8,0-11.8,0c-0.8,0-1.6,0-2.4,0.1c-1.3,0.3-1.6,1.6-0.8,2.5
				c0.2,0.2,0.4,0.3,0.6,0.5c-1.3,3.8-2.5,7.6-3.8,11.3c-0.3,0.8-0.8,1.6-1.3,2.1c-1.1,1.1-2.1,2.2-2.6,3.7c0,5.1,0,10.3,0,15.4
				c0.8,1.9,2.2,2.6,4.2,2.5c1.9-0.1,3.8,0,5.7,0c0.1,0.5,0.1,0.8,0.2,1.2c0.5,4,3.6,6.8,7.9,7.1c3.4,0.3,7-2.3,8-5.7
				c0.2-0.7,0.5-0.9,1.2-0.9c12.3,0,24.7,0,37,0c0.7,0,1,0.2,1.2,0.9c1.6,5.2,7.8,7.4,12.3,4.4c0.8-0.5,1.5-1.2,2.2-1.9
				c2.2,2.6,5,3.8,8.4,3.1c3.4-0.8,5.4-3.1,6.4-6.4c1.2,0,2.3,0,3.4,0c2.1-0.1,3.3-1.4,3.4-3.4c0-1,0-2.1,0-3.2c0.6,0,1.2,0,1.7,0
				c2-0.1,3.3-1.4,3.3-3.4c0-3.6,0-7.1,0-10.7h-3.2C113.8,75.2,113.8,78.9,113.8,82.6z M18.2,65.5c0.4-1,0.5-2.4,1.2-3
				c0.7-0.5,2-0.2,3.1-0.2c1.5,0,3,0,4.5,0c0,2.4,0,4.5,0,6.8c-3.3,0-6.6,0-10,0C17.4,67.9,17.8,66.7,18.2,65.5z M21.3,87.1
				c-0.1,0.2-0.4,0.5-0.7,0.5c-2.3,0-4.6,0-7,0c0-2.3,0-4.5,0-6.8c1.2-0.3,3.2,0.4,3.2-1.7c0-2-1.9-1.3-3.2-1.6c0-1.3-0.1-2.6,0-3.8
				c0.1-0.8,0.5-1.3,1.5-1.3c3.7,0,7.4,0,11.1,0c2.8,0,4-1.1,4-3.9c0-2.3,0-4.6,0-7c0-1.7-0.5-2.2-2.2-2.2c-2.1,0-4.2,0-6.3,0
				c-0.4,0-0.8,0-1.3,0c0.4-1.2,0.7-2.2,1-3.1c0.1-0.2,0.4-0.4,0.6-0.4c3.9,0,7.7,0,11.7,0c0,9,0,17.9,0,26.9c-1.5,0-2.9,0-4.4,0
				C25.8,82.5,23.1,83.9,21.3,87.1z M28.6,95.9c-2.8,0-5.1-2.4-5-5.2c0-2.8,2.3-5.1,5.1-5c2.8,0,5.1,2.3,5,5.1
				C33.7,93.6,31.4,95.9,28.6,95.9z M83.6,95.9c-2.8,0-5.1-2.3-5.1-5.1c0-2.8,2.2-5.1,5-5.1s5.1,2.2,5.1,5
				C88.7,93.5,86.4,95.8,83.6,95.9z M96.9,95.9c-2.8,0-5.1-2.3-5.1-5.1c0-2.8,2.2-5.1,5-5.1s5.1,2.3,5.1,5
				C102,93.5,99.7,95.8,96.9,95.9z M108.6,89.2c-1.2,0-2.3,0-3.5,0c-0.5-1.1-1-2.2-1.5-3.4c1.7,0,3.3,0,5,0
				C108.6,86.9,108.6,88,108.6,89.2z"/>
			<path class="st4" d="M116.8,71.6"/>
			<path class="st5" d="M40.4,42.6V71H117"/>
		</g>
		<g>
			<path class="st2" d="M70.5,53.2c-2-2.4-5.1-3.9-8.5-3.9c-6.1,0-11.1,5-11.1,11.1s5,11.1,11.1,11.1c3.4,0,6.4-1.5,8.5-3.9
				c-1.7-1.9-2.7-4.5-2.7-7.2S68.9,55.2,70.5,53.2z"/>
			<path class="st2" d="M70.5,67.6c2,2.4,5.1,3.9,8.5,3.9c3.1,0,5.9-1.3,7.9-3.3"/>
			<path class="st2" d="M86.9,52.6c-2-2.1-4.8-3.3-7.9-3.3c-3.4,0-6.4,1.5-8.5,3.9"/>
			<path class="st2" d="M70.5,53.2c-1.7,1.9-2.7,4.5-2.7,7.2s1,5.2,2.7,7.2"/>
			<path class="st2" d="M94.7,49c-3.1,0.1-5.9,1.4-7.9,3.5c2,2,3.3,4.7,3.3,7.7c0,0.2,0,0.3,0,0.5c-0.1,2.8-1.2,5.4-3,7.3
				c2.1,2,4.9,3.3,8,3.2c6.1-0.1,11-5.2,10.9-11.3S100.8,48.9,94.7,49z"/>
		</g>
		<path class="st2" d="M77.7,49.3c-1.3-1.8-2.1-4.1-2.1-6.6c0-6.2,5-11.2,11.2-11.2S98,36.5,98,42.7c0,2.4-0.7,4.6-2,6.4"/>
		<path class="st2" d="M55.2,50.7c-1.3-1.8-2.1-4.1-2.1-6.6c0-6.2,5-11.2,11.2-11.2s11.2,5,11.2,11.2c0,2.4-0.7,4.6-2,6.4"/>
		<g>
			<path d="M61.8,58.2C61.6,57.5,60.9,57,60,57c-0.7,0-1.4,0-2.1,0c-0.1,0-0.2,0-0.3,0c-0.4,0-0.6-0.3-0.6-0.6s0.3-0.6,0.6-0.6h0.1
				c2,0,4,0,5.9,0c0.1,0,0.2,0,0.3,0c0.3,0.1,0.5,0.3,0.5,0.7s-0.3,0.6-0.6,0.6c-0.4,0-0.8,0-1.2,0c0.2,0.4,0.4,0.8,0.6,1.2
				c0.2,0,0.4,0,0.6,0c0.4,0,0.7,0.3,0.7,0.6s-0.3,0.6-0.7,0.6c-0.2,0-0.4,0-0.6,0c-0.6,2-2,2.7-4.1,2.5c0.1,0.1,0.1,0.2,0.2,0.2
				c1.2,1.2,2.5,2.5,3.7,3.7c0.2,0.2,0.3,0.4,0.2,0.7c-0.1,0.4-0.6,0.6-1,0.3l-0.1-0.1c-1.6-1.6-3.2-3.2-4.8-4.8
				c-0.2-0.2-0.3-0.4-0.2-0.6c0-0.3,0.3-0.5,0.7-0.5c0.8,0,1.6,0,2.4,0c0.8,0,1.4-0.4,1.7-1.1c0,0,0,0,0-0.1c-0.1,0-0.1,0-0.2,0
				c-1.3,0-2.6,0-3.9,0c-0.1,0-0.2,0-0.3,0C57.2,59.6,57,59.4,57,59s0.3-0.5,0.6-0.6c0.1,0,0.1,0,0.2,0c1.3,0,2.6,0,3.8,0
				C61.7,58.2,61.7,58.2,61.8,58.2z"/>
		</g>
		<g>
			<path d="M78.5,57.3c-0.2-0.7-0.9-1.2-1.8-1.2c-0.7,0-1.4,0-2.1,0c-0.1,0-0.2,0-0.3,0c-0.4,0-0.6-0.3-0.6-0.6s0.3-0.6,0.6-0.6h0.1
				c2,0,4,0,5.9,0c0.1,0,0.2,0,0.3,0c0.3,0.1,0.5,0.3,0.5,0.7s-0.3,0.6-0.6,0.6c-0.4,0-0.8,0-1.2,0c0.2,0.4,0.4,0.8,0.6,1.2
				c0.2,0,0.4,0,0.6,0c0.4,0,0.7,0.3,0.7,0.6s-0.3,0.6-0.7,0.6c-0.2,0-0.4,0-0.6,0c-0.6,2-2.1,2.7-4.1,2.5c0.1,0.1,0.1,0.2,0.2,0.2
				c1.2,1.2,2.4,2.5,3.7,3.7c0.2,0.2,0.3,0.4,0.2,0.7c-0.1,0.4-0.6,0.6-1,0.3c-0.1,0-0.1-0.1-0.1-0.1c-1.6-1.6-3.2-3.2-4.8-4.8
				c-0.2-0.2-0.3-0.4-0.2-0.6c0.1-0.3,0.3-0.5,0.7-0.5c0.8,0,1.6,0,2.4,0s1.4-0.4,1.7-1.1c0,0,0,0,0-0.1c-0.1,0-0.1,0-0.2,0
				c-1.3,0-2.6,0-3.9,0c-0.1,0-0.2,0-0.3,0c-0.3-0.1-0.5-0.3-0.5-0.7s0.3-0.5,0.6-0.6c0.1,0,0.1,0,0.2,0c1.3,0,2.6,0,3.8,0
				C78.3,57.3,78.4,57.3,78.5,57.3z"/>
		</g>
		<g>
			<path d="M97.9,57.3c-0.2-0.7-0.9-1.2-1.8-1.2c-0.7,0-1.4,0-2.1,0c-0.1,0-0.2,0-0.3,0c-0.4,0-0.6-0.3-0.6-0.6s0.3-0.6,0.6-0.6h0.1
				c2,0,4,0,5.9,0c0.1,0,0.2,0,0.3,0c0.3,0.1,0.5,0.3,0.5,0.7s-0.3,0.6-0.6,0.6c-0.4,0-0.8,0-1.2,0c0.2,0.4,0.4,0.8,0.6,1.2
				c0.2,0,0.4,0,0.6,0c0.4,0,0.7,0.3,0.7,0.6s-0.3,0.6-0.7,0.6c-0.2,0-0.4,0-0.6,0c-0.6,2-2.1,2.7-4.1,2.5c0.1,0.1,0.1,0.2,0.2,0.2
				c1.2,1.2,2.4,2.5,3.7,3.7c0.2,0.2,0.3,0.4,0.2,0.7c-0.1,0.4-0.6,0.6-1,0.3c-0.1,0-0.1-0.1-0.1-0.1c-1.6-1.6-3.2-3.2-4.8-4.8
				c-0.2-0.2-0.3-0.4-0.2-0.6c0.1-0.3,0.3-0.5,0.7-0.5c0.8,0,1.6,0,2.4,0s1.4-0.4,1.7-1.1c0,0,0,0,0-0.1c-0.1,0-0.1,0-0.2,0
				c-1.3,0-2.6,0-3.9,0c-0.1,0-0.2,0-0.3,0c-0.3-0.1-0.5-0.3-0.5-0.7s0.3-0.5,0.6-0.6c0.1,0,0.1,0,0.2,0c1.3,0,2.6,0,3.8,0
				C97.7,57.3,97.8,57.3,97.9,57.3z"/>
		</g>
		<g>
			<path d="M87.8,38.7c-0.2-0.7-0.9-1.2-1.8-1.2c-0.7,0-1.4,0-2.1,0c-0.1,0-0.2,0-0.3,0c-0.4,0-0.6-0.3-0.6-0.6s0.3-0.6,0.6-0.6h0.1
				c2,0,4,0,5.9,0c0.1,0,0.2,0,0.3,0c0.3,0.1,0.5,0.3,0.5,0.7s-0.3,0.6-0.6,0.6c-0.4,0-0.8,0-1.2,0c0.2,0.4,0.4,0.8,0.6,1.2
				c0.2,0,0.4,0,0.6,0c0.4,0,0.7,0.3,0.7,0.6S90.1,40,89.7,40c-0.2,0-0.4,0-0.6,0c-0.6,2-2.1,2.7-4.1,2.5c0.1,0.1,0.1,0.2,0.2,0.2
				c1.2,1.2,2.4,2.5,3.7,3.7c0.2,0.2,0.3,0.4,0.2,0.7c-0.1,0.4-0.6,0.6-1,0.3c-0.1,0-0.1-0.1-0.1-0.1c-1.6-1.6-3.2-3.2-4.8-4.8
				c-0.2-0.2-0.3-0.4-0.2-0.6c0.1-0.3,0.3-0.5,0.7-0.5c0.8,0,1.6,0,2.4,0s1.4-0.4,1.7-1.1c0,0,0,0,0-0.1c-0.1,0-0.1,0-0.2,0
				c-1.3,0-2.6,0-3.9,0c-0.1,0-0.2,0-0.3,0c-0.3-0.1-0.5-0.3-0.5-0.7s0.3-0.5,0.6-0.6c0.1,0,0.1,0,0.2,0c1.3,0,2.6,0,3.8,0
				C87.6,38.7,87.7,38.7,87.8,38.7z"/>
		</g>
		<g>
			<path d="M65.6,39.6c-0.2-0.7-0.9-1.2-1.8-1.2c-0.7,0-1.4,0-2.1,0c-0.1,0-0.2,0-0.3,0c-0.4,0-0.6-0.3-0.6-0.6s0.3-0.6,0.6-0.6h0.1
				c2,0,4,0,5.9,0c0.1,0,0.2,0,0.3,0c0.3,0.1,0.5,0.3,0.5,0.7s-0.3,0.6-0.6,0.6c-0.4,0-0.8,0-1.2,0c0.2,0.4,0.4,0.8,0.6,1.2
				c0.2,0,0.4,0,0.6,0c0.4,0,0.7,0.3,0.7,0.6s-0.3,0.6-0.7,0.6c-0.2,0-0.4,0-0.6,0c-0.6,2-2.1,2.7-4.1,2.5c0.1,0.1,0.1,0.2,0.2,0.2
				c1.2,1.2,2.5,2.5,3.7,3.7c0.2,0.2,0.3,0.4,0.2,0.7c-0.1,0.4-0.6,0.6-1,0.3c-0.1,0-0.1-0.1-0.1-0.1c-1.6-1.6-3.2-3.2-4.8-4.8
				c-0.2-0.2-0.3-0.4-0.2-0.6c0-0.3,0.3-0.5,0.7-0.5c0.8,0,1.6,0,2.4,0c0.8,0,1.4-0.4,1.7-1.1c0,0,0,0,0-0.1c-0.1,0-0.1,0-0.2,0
				c-1.3,0-2.6,0-3.9,0c-0.1,0-0.2,0-0.3,0c-0.3-0.1-0.5-0.3-0.5-0.7s0.3-0.5,0.6-0.6c0.1,0,0.1,0,0.2,0c1.3,0,2.6,0,3.9,0
				C65.5,39.6,65.6,39.6,65.6,39.6z"/>
		</g>
	</g>
</g>
<g id="treds-w" class="st0">
	<g class="st1">
		<g>
			<path d="M59.3,59.7c2.8,5,5.8,10.2,8.7,15.2c8.5-5,16.9-9.9,25.8-15.2c-1.1-1.5-2.4-3.3-3.7-5.1c0.2-0.2,0.4-0.3,0.6-0.5
				c4.4,0.7,8.8,1.5,13.6,2.3c-1.6,4.4-3.1,8.6-4.8,13.3c-1.4-2.2-2.6-4.1-3.9-6.2c-9.6,5.6-19,11.2-28.7,17
				c-3.2-5.5-6.2-10.8-9.3-16.2c-10.8,6.3-21.3,12.4-32,18.7c-0.6-1.1-1.1-2-1.5-2.8C35.7,73.4,47.3,66.7,59.3,59.7z"/>
		</g>
		<rect x="78" y="53" width="2" height="14"/>
		<rect x="64" y="36" width="2" height="29"/>
		<rect x="64" y="15" width="2" height="6"/>
		<rect x="47" y="23" width="2" height="10"/>
		<rect x="34" y="20" width="2" height="27"/>
		<rect x="78" y="24" width="2" height="14"/>
		<rect x="47" y="48" width="2" height="15"/>
		<rect x="34" y="63" width="2" height="7"/>
		<path class="st6" d="M79,53.5L79,53.5c-2.2,0-4-1.8-4-4v-7.6c0-2.2,1.8-4,4-4l0,0c2.2,0,4,1.8,4,4v7.6C83,51.7,81.2,53.5,79,53.5z
			"/>
		<path class="st6" d="M65,36.5L65,36.5c-2.2,0-4-1.8-4-4v-7.6c0-2.2,1.8-4,4-4l0,0c2.2,0,4,1.8,4,4v7.6C69,34.7,67.2,36.5,65,36.5z
			"/>
		<g>
			<path class="st3" d="M45.6,112.6c12.4,0,24.7,0,37,0c0-0.6,0-1,0-1.6c-12.4,0-24.7,0-37,0C45.6,111.5,45.6,112,45.6,112.6z"/>
			<path class="st3" d="M72.2,102.5c-5.4,0-10.8,0-16.2,0c-0.2,0-0.7,0.3-0.7,0.5c-0.3,1.5-0.6,2.9-0.9,4.4c6.5,0,13,0,19.5,0
				c-0.3-1.5-0.6-2.9-0.9-4.3C72.9,102.9,72.5,102.5,72.2,102.5z"/>
			<path class="st3" d="M15.2,92.5c0,1.1,0,2.2,0,3.2c0,2.7,0.8,3.4,3.4,3.4c30.3,0,60.7,0,91,0c0.3,0,0.7,0,1.1,0
				C112,99,113,98,113,96.7c0.1-1.4,0-2.8,0-4.3C80.4,92.5,47.8,92.5,15.2,92.5z M65.8,97.4c-0.6,0-1.2,0-1.8,0c-0.6,0-1.1,0-1.7,0
				c-0.9-0.1-1.6-0.8-1.6-1.6c0-0.9,0.7-1.7,1.7-1.7c1.2-0.1,2.3-0.1,3.5,0c0.9,0,1.6,0.8,1.6,1.6C67.5,96.7,66.8,97.4,65.8,97.4z"
				/>
			<path class="st3" d="M65,36.5c-2.2,0-4-1.8-4-4v-0.9c-14.2,0-28.4,0-42.6,0c-2.3,0-3.2,0.9-3.2,3.2c0,17.7,0,35.4,0,53
				c0,0.4,0,0.7,0,1.1c32.7,0,65.2,0,97.9,0c0-0.3,0-0.6,0-0.9c0-17.8,0-35.6,0-53.5c0-2.1-1-3-3.2-3c-13.6,0-27.3,0-40.9,0v0.9
				C69,34.7,67.2,36.5,65,36.5z"/>
			<path d="M109.9,28.3c-13.6,0-27.3,0-40.9,0v3.4c13.6,0,27.3,0,40.9,0c2.2,0,3.2,0.9,3.2,3c0,17.8,0,35.6,0,53.5
				c0,0.3,0,0.5,0,0.9c-32.6,0-65.2,0-97.9,0c0-0.3,0-0.7,0-1.1c0-17.7,0-35.4,0-53c0-2.3,0.9-3.2,3.2-3.2c14.2,0,28.4,0,42.6,0
				v-3.4c-14.2,0-28.5,0-42.7,0c-4.1,0-6.5,2.4-6.5,6.5c0,20.4,0,40.8,0,61.3c0,4.1,2.4,6.5,6.5,6.5c10.8,0,21.5,0,32.3,0
				c0.4,0,0.8,0,1.4,0c-0.3,1.5-0.6,2.9-0.8,4.3c-0.1,0.7-0.4,0.8-1,0.8c-2,0-4,0-6,0c-1.3,0-1.9,0.6-1.9,1.9c0,1.6,0,3.1,0,4.6
				c0,1.3,0.7,1.9,2,1.9c13.3,0,26.6,0,39.9,0c1.4,0,2-0.6,2-2.1c0-1.4,0-2.8,0-4.2c0-1.6-0.6-2.1-2.2-2.1c-1.9,0-3.9,0-5.8,0
				c-0.3,0-0.8-0.3-0.8-0.5c-0.3-1.5-0.6-2.9-0.9-4.6c0.6,0,1,0,1.4,0c10.7,0,21.4,0,32.2,0c4.1,0,6.5-2.4,6.5-6.5
				c0-20.4,0-40.8,0-61.2C116.4,30.7,114.1,28.3,109.9,28.3z M82.6,111c0,0.5,0,1,0,1.6c-12.3,0-24.6,0-37,0c0-0.5,0-1,0-1.6
				C58,111,70.3,111,82.6,111z M54.4,107.5c0.3-1.5,0.6-3,0.9-4.4c0-0.2,0.5-0.5,0.7-0.5c5.4,0,10.8,0,16.2,0c0.3,0,0.7,0.3,0.7,0.6
				c0.3,1.4,0.6,2.8,0.9,4.3C67.4,107.5,60.9,107.5,54.4,107.5z M113,96.7c-0.1,1.3-1,2.3-2.4,2.4c-0.3,0-0.7,0-1.1,0
				c-30.3,0-60.7,0-91,0c-2.6,0-3.4-0.8-3.4-3.4c0-1.1,0-2.1,0-3.2c32.6,0,65.2,0,97.9,0C113.1,93.9,113.1,95.3,113,96.7z"/>
			<path d="M65.9,94.1c-1.2-0.1-2.3-0.1-3.5,0c-1,0-1.7,0.8-1.7,1.7c0,0.9,0.7,1.6,1.6,1.6c0.6,0,1.1,0,1.7,0c0.6,0,1.2,0,1.8,0
				c1-0.1,1.7-0.8,1.7-1.7C67.5,94.9,66.8,94.1,65.9,94.1z"/>
		</g>
		<path class="st6" d="M48,48.5L48,48.5c-2.2,0-4-1.8-4-4v-7.6c0-2.2,1.8-4,4-4l0,0c2.2,0,4,1.8,4,4v7.6C52,46.7,50.2,48.5,48,48.5z
			"/>
		<path class="st6" d="M35,62.5L35,62.5c-2.2,0-4-1.8-4-4v-7.6c0-2.2,1.8-4,4-4l0,0c2.2,0,4,1.8,4,4v7.6C39,60.7,37.2,62.5,35,62.5z
			"/>
	</g>
</g>
<g id="top-up-loan-for-home-loan-borrowers" class="st0">
	<g class="st1">
		<g>
			<path d="M113,64.9c-1.2,1.5-2.3,3.1-3.5,4.6c-0.2,0.3-0.4,0.6-0.7,0.8c-0.9,1-2,1.1-3,0.3c-1.7-1.5-3.3-3-5-4.5
				c-1.2-1.1-2.4-2.2-3.6-3.2c-1.8-1.5-3.6-3.1-5.3-4.7c-2.2-2-4.4-4-6.6-5.9c-2.1-1.9-4.2-3.7-6.3-5.6c-2.2-2-4.4-3.9-6.6-5.9
				c-2.1-1.9-4.2-3.7-6.3-5.6c-1-0.9-1.9-1.8-2.9-2.7c-0.3,0.2-0.5,0.4-0.7,0.5c-2.6,2.3-5.3,4.7-7.9,7c-2.1,1.9-4.2,3.8-6.3,5.7
				c-3.3,2.9-6.5,5.8-9.7,8.7c-2.1,1.9-4.2,3.8-6.3,5.7c-3.3,2.9-6.5,5.8-9.8,8.8c-0.6,0.5-1.1,1.1-1.8,1.7
				c-1.2,0.9-2.3,0.9-3.2-0.3c-1.3-1.6-2.5-3.2-3.6-4.8c-0.7-1-0.6-2.2,0.3-3c1.1-1,2.2-2,3.3-3c2.8-2.4,5.5-4.9,8.3-7.3
				c2-1.7,3.9-3.5,5.8-5.2c2.3-2.1,4.7-4.2,7-6.2c2-1.8,4-3.6,6-5.4c2.3-2,4.5-4,6.8-6c2.2-2,4.6-3.8,6.6-6c2-2.1,6-2.7,8.4-1.4
				c0.7,0.4,1.3,1,2,1.5c1.3,1.1,2.5,2.2,3.7,3.3c1.8,1.6,3.7,3.2,5.5,4.8c1.5,1.4,3,2.8,4.6,4.2c0.2,0.2,0.5,0.4,0.9,0.7
				c0-0.8,0-1.4,0-2c0-3.4,0-6.9,0-10.3c0-2,0.6-2.6,2.7-2.6c3.4,0,6.9,0,10.3,0c2.2,0,2.8,0.6,2.8,2.9c0,8.4,0,16.9,0,25.3
				c0,0.7,0.2,1.2,0.7,1.7c2.4,2,4.7,4.1,7,6.2c1.8,1.6,3.6,3.2,5.4,4.9c0.4,0.4,0.7,1,1.1,1.5C113,64.1,113,64.5,113,64.9z"/>
			<path d="M71.1,106c0-8.4,0-16.7,0-25.1c-5.3,0-10.5,0-15.9,0c0,8.4,0,16.8,0,25.2c-0.5,0-0.8,0-1.1,0c-7.3,0-14.6,0-21.9,0
				c-3.1,0-4.6-1.6-4.7-4.7c0-10.1,0-20.2,0-30.3c0-1.1,0.4-1.8,1.1-2.4c1.8-1.6,3.7-3.2,5.5-4.8c3.4-3,6.7-5.9,10.1-8.9
				c2.2-1.9,4.3-3.8,6.4-5.7c3.3-2.9,6.6-5.8,9.9-8.7c0.9-0.8,1.7-1.6,2.6-2.4c0.3,0.2,0.5,0.4,0.8,0.5c2.7,2.3,5.4,4.7,8,7
				c1.9,1.7,3.8,3.4,5.8,5.1c2.4,2.1,4.8,4.2,7.2,6.3c2.1,1.8,4.1,3.6,6.1,5.5c2.3,2,4.6,4,6.8,6c0.7,0.6,1.1,1.3,1.1,2.3
				c-0.1,10.1,0,20.2,0,30.3c0,1.2-0.2,2.4-1,3.3s-1.8,1.4-3,1.4c-7.8,0-15.5,0-23.3,0C71.4,106.1,71.3,106.1,71.1,106z"/>
		</g>
	</g>
</g>
<g id="tieup" class="st0">
	<g class="st1">
		<g>
			<path d="M114.2,64.2c-0.6,2.2-2.1,3.4-4.2,4c-2,0.6-3.9,1.4-5.9,2.2c-2.9,1.1-5.2,0.1-6.5-2.7c-0.1-0.1-0.1-0.2-0.4-0.3
				c0,0.3,0,0.5,0,0.8c0.2,1.6,0,3.1-0.7,4.5c-1.2,2.5-3.6,3.6-6.2,2.9c-0.2-0.1-0.4-0.1-0.8-0.2c0.2,2.5-0.5,4.6-2.5,6.1
				c-2,1.6-4.2,1.8-6.6,1c0.1,2-0.4,3.8-1.7,5.3c-1.4,1.5-3.1,2.1-5.2,2.2c0.3,2.5-0.4,4.6-2.5,6c-2.2,1.5-4.4,1-6.6-0.3
				c-1.4,2.6-3.2,4.6-6.4,4.1c-3-0.4-4.8-2.4-5.8-5.3c-1.8,0.7-3.6,0.9-5.4,0.2c-1.8-0.7-2.9-2-3.6-3.8c-2.5,1.5-5,1.6-7.4-0.1
				s-3-4.2-2.5-7c-0.7-0.1-1.5-0.1-2.2-0.2c-4.1-0.9-6.3-5.2-4.5-9.1c0.5-1.1,1.1-2.1,1.6-3.1c0.2-0.3,0.2-0.7,0.4-1.3
				c-0.4,0.2-0.5,0.2-0.6,0.3c-1.4,1-2.9,1.2-4.5,0.7c-2.4-0.8-4.8-1.5-7.1-2.3c-2.8-0.9-4.1-3.4-3.2-6.3c2.3-7.1,4.6-14.3,6.9-21.4
				c0.9-2.8,1.8-5.5,2.7-8.3c1-3.1,3.4-4.3,6.5-3.3c2.2,0.7,4.4,1.5,6.6,2.1c2.1,0.6,3.4,1.9,3.8,4.4c1.9-0.2,3.7-0.4,5.6-0.7
				c1.8-0.3,3.6-0.7,5.5-0.8c3.7-0.3,7,0.5,10.2,2.4c0.5,0.3,0.8,0.3,1.2,0c4.8-2.8,9.7-3.1,14.9-1.2c1.9,0.7,3.7,1.5,5.6,2.2
				c1.2,0.4,2.4,0.8,3.8,0.2c-0.1-0.6-0.2-1.1-0.3-1.6c-0.2-2,0.9-3.9,2.8-4.7c2.6-1,5.3-2,7.9-3c2.5-0.8,4.9,0.5,5.9,3.1
				c2.2,5.9,4.4,11.8,6.6,17.6c1.6,4.2,3.2,8.4,4.7,12.6C114.2,63.1,114.2,63.7,114.2,64.2z M42.2,71.3c5.3-0.1,6.7,1.1,8.1,6.1
				c4.3-0.9,8.4,1.9,8.2,7c0.8,0,1.7,0,2.7,0c-0.5-0.3-0.8-0.5-1.1-0.7c-0.5-0.5-0.7-1.1-0.3-1.7c0.4-0.7,0.9-0.9,1.7-0.6
				c0.3,0.1,0.5,0.3,0.8,0.4c3.2,1.7,6.4,3.4,9.6,5.1c2.3,1.2,5,0,5.6-2.4c0.4-1.8-0.4-3.5-2.2-4.5c-2.5-1.4-5.1-2.7-7.7-4.1
				c-0.5-0.3-1-0.5-1.5-0.8c-0.6-0.4-0.8-1-0.5-1.7c0.4-0.8,1-0.9,1.7-0.7c0.3,0.1,0.5,0.3,0.8,0.4c4.2,2.2,8.3,4.5,12.5,6.7
				c1.1,0.6,2.2,0.8,3.3,0.4c1.5-0.5,2.5-1.6,2.7-3.2c0.2-1.8-0.5-3.1-2.1-3.9c-4-2.2-8.1-4.4-12.1-6.6c-1.2-0.6-1.5-1.3-1.1-2.2
				c0.4-0.8,1.2-0.9,2.3-0.3c1.7,0.9,3.4,1.9,5.1,2.8c3.7,2,7.3,4,11,5.9c2.3,1.2,4,0.3,4.5-2.3c0.4-2.2-0.4-3.9-2.2-5.1
				c-2.5-1.7-5.1-3.3-7.7-4.7c-3.5-1.9-7-3.7-10.6-5.5c-0.7-0.3-1.5-0.6-2.2-0.6c-1.6,0.2-3.3,0.4-4.8,0.9c-2.6,0.8-5.1,1.8-7.8,2.5
				c-4,1-7.6,0.2-10.5-2.9c-2.1-2.2-2.2-2.7-0.2-5c1.9-2.2,4-4.3,6.1-6.3c1.5-1.5,3-2.9,4.6-4.4c-0.2-0.1-0.3-0.2-0.4-0.3
				c-3.2-1.7-6.5-1.8-10-1.2c-2.9,0.5-5.8,1.3-8.9,1.1c-0.2,0-0.6,0.4-0.7,0.7C36.6,47.2,34,55,31.6,62.8c-0.4,1.3-0.5,2.6-0.7,4
				C36,62.9,41.5,66.1,42.2,71.3z M50.1,52.2c2.1,2.9,5.2,3.9,9,2.8c2.6-0.7,5.1-1.7,7.6-2.6c2.1-0.7,4.3-1.3,6.5-0.6
				c1.3,0.4,2.4,1.1,3.6,1.7c3.6,1.8,7.3,3.7,10.9,5.6c2.7,1.4,5.3,3,7.5,5.2c0.3,0.3,0.6,0.4,1,0.6c0-0.4,0-0.7-0.1-1.1
				c-1.8-5-3.7-10-5.6-15c-1-2.6-1.9-5.2-2.9-7.9c-2.6,0.9-4.9,0.1-7.2-0.8c-1.3-0.5-2.6-1-3.8-1.5c-5.3-2.2-10.3-1.6-14.6,2
				c-3.6,2.9-6.8,6.3-10.1,9.5C51.2,50.8,50.7,51.5,50.1,52.2z M15.8,64.1c0,1.2,0.5,1.8,1.5,2.2c2.3,0.8,4.7,1.5,7,2.3
				c1.5,0.5,2.5,0,3-1.6c3.2-9.8,6.4-19.7,9.5-29.5c0.5-1.6,0-2.5-1.5-3c-2.2-0.7-4.4-1.4-6.6-2.1c-1.8-0.6-2.7-0.2-3.3,1.7
				c-3.1,9.7-6.3,19.4-9.4,29C16,63.5,15.9,63.8,15.8,64.1z M98.1,31.6c-0.1,0-0.4,0.1-0.7,0.2c-2.3,0.8-4.6,1.7-6.9,2.6
				c-1.4,0.5-1.8,1.5-1.3,2.9c3.6,9.8,7.3,19.5,10.9,29.3c0.6,1.5,1.5,1.9,3,1.3c2.2-0.8,4.4-1.6,6.6-2.4c1.8-0.7,2.2-1.5,1.5-3.3
				c-1.8-4.9-3.6-9.7-5.4-14.6c-1.8-4.8-3.6-9.5-5.3-14.3C99.9,32.1,99.3,31.6,98.1,31.6z M35.8,85.6c0.1,1.8,1.1,3.1,2.8,3.6
				c1.6,0.5,3.3-0.2,4.2-1.8c1.5-2.7,2.9-5.3,4.3-8c1-1.9,0.3-4.1-1.5-5c-1.8-1-4-0.3-5.1,1.6c-1.4,2.6-2.8,5.2-4.1,7.7
				C36.1,84.3,36,84.9,35.8,85.6z M32.9,81.1c1,0,2.2-0.6,2.8-1.8c1.1-2,2.3-4.1,3.3-6.2c0.9-1.8,0.1-3.9-1.7-4.9
				c-1.6-0.8-3.7-0.3-4.7,1.3c-1.2,2.1-2.4,4.2-3.4,6.4C28,78.4,29.9,81.1,32.9,81.1z M49.9,92.5c0.8,0,1.9-0.5,2.5-1.7
				c1.1-1.9,2.1-3.8,3.1-5.7c0.8-1.7,0-3.8-1.6-4.7C52.2,79.5,50,80,49,81.7c-1.1,1.8-2.1,3.7-3,5.7C44.8,89.8,46.6,92.5,49.9,92.5z
				 M60,87.1c-2.6,0-5.6,3.9-5.1,6.6c0,0.1,0,0.2,0,0.3c0.4,1.6,1.9,3.1,3.3,3.3c1.8,0.2,2.7-0.9,3.4-2.3c0.6-1,1.1-2.1,1.6-3.2
				C64.3,89.3,62.7,87.1,60,87.1z M65.7,93.3c1.9,1.3,3.5,1.3,4.5-0.1c1.1-1.4,0.8-3.4-0.7-4.4s-3.1-1.7-4.7-2.6
				C67,88.4,66.7,90.8,65.7,93.3z"/>
		</g>
		<circle cx="95.5" cy="37.5" r="1.5"/>
		<circle cx="30.5" cy="39.5" r="1.5"/>
	</g>
</g>
<g id="term-finance-w" class="st0">
	<g class="st1">
		<g>
			<path d="M39.1,116c-1.7-0.2-3.4-0.4-5.1-0.7c-6.3-1.1-12.1-3.3-17-7.5c-4.7-4.1-7.3-9.3-7.9-15.4C8.2,82.6,11.6,74.3,18,67
				c2.3-2.6,4.5-5.2,6.8-7.9c0.6-0.7,1.1-1.5,1.6-2.3c-2.5-0.9-3.5-2.3-3.4-4.3s1.4-3.2,3.9-3.8c-0.3-0.5-0.6-0.9-0.9-1.3
				c-2.4-3.4-3.6-7.3-4.4-11.4c-0.2-1.2,0.8-1.9,1.9-1.4c3.7,1.7,7.5,2,11.5,2c0.1,0,0.3,0,0.6-0.1c-0.5-1.3-1-2.6-1.6-3.8
				c-0.5-1.2-0.5-1.6,0.5-2.3c0.3,0,0.7,0,1,0c0.2,0.1,0.3,0.1,0.5,0.2c5.9,1,11.8,1.5,17.8,1c2.5-0.2,5-0.7,7.5-1.1
				c0.3,0,0.7,0,1,0c1.1,0.8,0.9,1.9,0.6,2.9c-0.6,2-1.2,4-2,6c-1,2.5-2.3,5-3.4,7.5c0.3,0.3,0.6,0.8,1,1.1c0.2,0.2,0.5,0.2,0.8,0.1
				c3.6-1,7.1-2,10.7-3c2.3-0.6,4.3,0.2,5.1,2.2c0.8,2-0.1,4.3-2.1,5.2c-0.9,0.3-1.8,0.6-2.9,0.9c1.9,0.5,3.6,0.8,5.3,1.3
				c2.2,0.6,3.4,2.5,2.9,4.7c-0.4,2-2.3,3.5-4.4,3.1c-3.4-0.7-6.8-1.5-10.3-2.3c-1.7-0.4-3.3-0.8-5.1-1c0.8,1,1.6,1.9,2.4,2.9
				c2.6,3.1,5.3,6.1,7.7,9.4c3.2,4.3,5,9.3,5.6,14.7c0.5,4.6,0.2,9.1-1.6,13.4c-1.9,4.5-5,8.1-9.1,10.7c-5,3.3-10.6,5-16.5,5.6
				c-0.9,0.1-1.8,0.2-2.7,0.3C42.6,116,40.8,116,39.1,116z M51.3,51.3c-0.2,0-0.3,0-0.4,0c-7.8,0-15.7,0-23.5,0
				c-0.3,0-0.6,0-0.9,0.2c-0.6,0.2-0.9,0.7-0.9,1.4s0.4,1.2,1.1,1.3c0.3,0.1,0.6,0,0.9,0c1.6,0,3.1,0,4.7,0c0.8,0,1.4,0.6,1.4,1.3
				s-0.5,1.2-1.4,1.2c-0.7,0-1.5,0-2.2,0c-0.5,0-0.9,0.1-1.1,0.6c-0.4,0.8-0.8,1.5-1.4,2.2c-2.6,3.1-5.2,6.2-7.8,9.3
				c-4.8,5.6-7.9,11.9-8.2,19.5c-0.3,5.3,0.9,10.1,4.1,14.4c3,4,7.1,6.6,11.8,8.3c5.7,2.2,11.7,2.8,17.7,2.4c5.7-0.4,11-1.8,16-4.7
				c4.4-2.6,7.8-6.2,9.6-11c1.8-4.6,1.7-9.4,0.7-14.2c-1.1-5.7-4-10.4-7.7-14.8c-2.5-3-5-6-7.6-8.9c-0.2-0.2-0.6-0.4-0.9-0.4
				c-1.5-0.1-2.7-0.8-3.5-2.1c-0.3-0.5-0.5-0.6-1-0.6c-3.9,0-7.8,0-11.6,0c-0.3,0-0.7,0-1-0.1c-0.6-0.1-0.9-0.5-1-1.1
				c0-0.6,0.2-1,0.8-1.2c0.3-0.1,0.7-0.1,1.1-0.1c3.8,0,7.5,0,11.3,0c0.3,0,0.6,0,0.9,0C51.3,53.2,51.3,52.3,51.3,51.3z M60.6,33.2
				c-7.9,1.5-15.6,1.3-23.3,0.2c0.3,1.1,0.6,2.1,0.8,3.1c0.2,0,0.4,0,0.6,0c1.3-0.2,2.6-0.4,4-0.6c1-0.2,1.7,0.3,1.7,1.3
				c0.1,3.2,1.2,6.1,2.4,9c0.4,0.9,0.6,2.1,1.3,2.5s1.9,0.2,2.9,0.1c0.3,0,0.6-0.2,0.7-0.5c0.6-1,1.5-1.8,2.7-2.1
				c0.3-0.1,0.7-0.4,0.9-0.7c1-2,2-4,2.9-6C59.1,37.5,59.8,35.4,60.6,33.2z M41.9,38.5c-5.9,0.9-11.6,1-17.3-0.8
				c0,0.3,0.1,0.4,0.1,0.5c0.9,3.8,2.6,7.1,5.2,10.1c0.2,0.2,0.6,0.4,1,0.4c4.5,0,9,0,13.5,0c0.2,0,0.4,0,0.7,0
				C43.7,45.4,42.4,42.2,41.9,38.5z M59.3,56.3c4.9,1.1,9.8,2.3,14.8,3.4c0.2,0,0.5,0.1,0.8,0c0.9-0.1,1.6-1.1,1.1-1.9
				c-0.3-0.5-0.9-0.8-1.4-1c-3.1-0.8-6.2-1.5-9.3-2.2c-1.9-0.4-3.9-0.9-5.9-1.3C59.3,54.3,59.3,55.3,59.3,56.3z M59.4,50.6
				L59.4,50.6c1.7,0.5,3.5,0.9,5.2,1.3c0.2,0,0.3,0.1,0.5,0c2.3-0.6,4.6-1.3,6.9-2c0.8-0.2,1.1-1,0.8-1.8c-0.2-0.7-0.9-1-1.7-0.9
				c-0.2,0-0.4,0.1-0.7,0.2c-3.1,0.9-6.1,1.7-9.2,2.6C60.7,50.2,60,50.4,59.4,50.6z M56.7,52.8L56.7,52.8c0-0.8,0-1.6,0-2.4
				c0-0.1,0-0.1,0-0.2c-0.1-1-0.6-1.5-1.4-1.6c-0.8,0-1.4,0.6-1.4,1.5c0,1.7,0,3.5,0,5.2c0,1,0.6,1.5,1.4,1.5c0.8,0,1.4-0.6,1.4-1.5
				C56.7,54.5,56.7,53.6,56.7,52.8z"/>
		</g>
		<g>
			<path d="M45.2,75.2c-0.6-2.1-2.8-3.7-5.2-3.7c-2.1,0-4.2,0-6.3,0c-0.3,0-0.7,0-1,0c-1.1,0-1.9-0.8-1.9-1.9c0-1,0.8-1.8,1.9-1.8
				c0.1,0,0.2,0,0.3,0c5.9,0,11.8,0,17.8,0c0.3,0,0.5,0,0.8,0c0.9,0.2,1.6,1,1.5,2c-0.1,0.9-0.8,1.7-1.8,1.7c-1.2,0-2.4,0-3.6,0
				c0.6,1.2,1.1,2.4,1.7,3.7c0.5,0,1.2,0,1.8,0c1.1,0,2,0.8,2,1.9s-0.8,1.8-2,1.8c-0.6,0-1.3,0-1.9,0c-1.8,6.1-6.1,7.9-12.1,7.4
				c0.3,0.3,0.4,0.4,0.5,0.6c3.7,3.7,7.3,7.3,11,11c0.6,0.6,0.9,1.2,0.6,2c-0.4,1.2-1.8,1.7-2.9,0.9c-0.2-0.1-0.3-0.3-0.4-0.4
				c-4.8-4.8-9.6-9.6-14.4-14.4c-0.5-0.5-0.8-1.1-0.7-1.8c0.2-0.9,0.9-1.6,2-1.6c2.4,0,4.8,0,7.2,0s4.2-1.2,5.2-3.4
				c0-0.1,0-0.1,0.1-0.3c-0.2,0-0.4,0-0.6,0c-3.9,0-7.7,0-11.6,0c-0.3,0-0.5,0-0.8,0c-0.9-0.2-1.5-1-1.5-1.9
				c0.1-0.9,0.8-1.7,1.7-1.7c0.2,0,0.4,0,0.6,0c3.8,0,7.7,0,11.5,0C44.7,75.2,44.9,75.2,45.2,75.2z"/>
		</g>
		<circle class="st7" cx="92.9" cy="84.2" r="19.6"/>
		<rect x="73.7" y="83.2" class="st7" width="38.8" height="0.9"/>
		<rect x="91.7" y="65.2" class="st7" width="0.9" height="38.8"/>
		<g>
			<path d="M95.1,19.8c0,0.2,0,0.3,0,0.4c0,8.5,0,17,0,25.5c0,0.5-0.1,1-0.5,1.4c-0.5,0.5-1.3,0.7-1.9,0.5s-1.1-0.9-1.2-1.7
				c0-0.1,0-0.1,0-0.2c0-8.5,0-17.1,0-25.6c0-0.1,0-0.2,0-0.3c-0.3,0.4-0.6,0.7-0.9,1.1c-1.2,1.3-2.3,2.6-3.5,4
				c-0.6,0.6-1.4,0.8-2.1,0.5c-1.1-0.5-1.4-1.9-0.6-2.8c1.2-1.4,2.4-2.7,3.6-4.1c1.3-1.5,2.6-2.9,3.9-4.4c0.8-0.9,2-0.9,2.8,0
				c2.5,2.9,5,5.7,7.5,8.6c0.5,0.5,0.6,1.1,0.3,1.8c-0.2,0.7-0.7,1.1-1.4,1.1c-0.7,0.1-1.2-0.1-1.6-0.6c-1.4-1.6-2.8-3.2-4.2-4.8
				C95.3,19.9,95.2,19.9,95.1,19.8z"/>
		</g>
		<g>
			<path d="M107,55.4c0-0.2,0-0.3,0-0.4c0-8.5,0-17,0-25.5c0-0.5,0.1-1,0.5-1.4c0.5-0.5,1.3-0.7,1.9-0.5c0.7,0.3,1.1,0.9,1.2,1.7
				c0,0.1,0,0.1,0,0.2c0,8.5,0,17.1,0,25.6c0,0.1,0,0.2,0,0.3c0.3-0.4,0.6-0.7,0.9-1.1c1.2-1.3,2.3-2.6,3.5-4
				c0.6-0.6,1.4-0.8,2.1-0.5c1.1,0.5,1.4,1.9,0.6,2.8c-1.2,1.4-2.4,2.7-3.6,4.1c-1.3,1.5-2.6,3-3.9,4.4c-0.8,0.9-2,0.9-2.8,0
				c-2.5-2.8-5-5.7-7.5-8.5c-0.5-0.5-0.6-1.2-0.3-1.8c0.2-0.7,0.7-1.1,1.4-1.2c0.7-0.1,1.2,0.2,1.6,0.6c1.4,1.6,2.8,3.2,4.2,4.8
				C106.9,55.3,106.9,55.3,107,55.4z"/>
		</g>
	</g>
</g>
<g id="term-finance1-w" class="st0">
	<g class="st1">
		<path class="st3" d="M62.8,78.7c-8.8,0-16.2,6.5-17.5,15.1c3.1,1.6,6.5,2.8,10,3.4c0.2-0.5,0.7-0.8,1.3-0.8c1.6,0,3.3,0,4.9,0
			c1.7,0,2.8-0.8,3.5-2.3c0-0.1,0-0.1,0.1-0.2c-0.2,0-0.3,0-0.4,0c-2.6,0-5.3,0-7.9,0c-0.2,0-0.3,0-0.5,0c-0.6-0.1-1-0.7-1-1.3
			c0-0.6,0.5-1.1,1.2-1.2c0.1,0,0.3,0,0.4,0c2.6,0,5.2,0,7.8,0c0.1,0,0.3,0,0.4,0c-0.4-1.5-1.9-2.5-3.6-2.5c-1.5,0-3,0-4.5,0
			c-0.2,0-0.4,0-0.5,0c-0.7,0-1.3-0.6-1.3-1.3c0-0.7,0.5-1.2,1.3-1.3c0.1,0,0.2,0,0.3,0c4,0,8,0,12.1,0c0.2,0,0.3,0,0.5,0
			c0.6,0.1,1.1,0.7,1,1.3c-0.1,0.6-0.6,1.1-1.2,1.2c-0.8,0-1.7,0-2.5,0c0.4,0.8,0.8,1.7,1.2,2.5c0.3,0,0.8,0,1.2,0
			c0.8,0,1.3,0.5,1.3,1.3s-0.6,1.3-1.3,1.3c-0.4,0-0.9,0-1.3,0c-0.6,1.9-1.5,3.2-2.7,4c5.4-0.3,10.6-1.8,15.2-4.2
			C78.9,85.2,71.6,78.7,62.8,78.7z"/>
		<path class="st3" d="M59.3,76.5c0.8-0.1,1.5-0.2,2.3-0.3c0.8,0,1.6,0,2.4,0c0.7,0.1,1.4,0.2,2,0.3c4.2,0.7,7.9,2.5,10.9,5.6
			c3,3,4.9,6.5,5.7,10.3c11.1-6.8,18.5-19,18.5-32.9c0-21.2-17.3-38.5-38.5-38.5S24.2,38.3,24.1,59.4c0,14,7.6,26.3,18.8,33.1
			c0.7-3.6,2.3-6.8,4.8-9.6C50.8,79.4,54.7,77.3,59.3,76.5z M59.7,31.3c0-2.2,1.7-3.6,3.7-3.1c1.4,0.3,2.2,1.5,2.2,3
			c0,4.2,0,8.4,0,12.7c0,3.8,0,7.5,0,11.3c0,0.3,0,0.6,0,1.1c0.5,0,0.8,0,1.1,0c5.8,0,11.6,0,17.4,0c1.8,0,3,0.8,3.3,2.3
			c0.4,1.6-0.7,3.3-2.3,3.5c-0.3,0.1-0.7,0.1-1,0.1c-7.9,0-15.8,0-23.7,0c-0.2,0-0.5,0-0.7,0c0-0.3-0.1-0.5-0.1-0.7
			C59.7,51.4,59.6,41.3,59.7,31.3z"/>
		<path class="st3" d="M67.3,106.7c0.4,0.4,0.6,0.8,0.4,1.4c-0.3,0.8-1.2,1.2-1.9,0.6c-0.1-0.1-0.2-0.2-0.3-0.3
			c-1.6-1.6-3.1-3.1-4.7-4.7c-2.4-0.1-4.8-0.4-7.3-0.9c-2.8-0.6-5.4-1.4-7.9-2.4c1.8,7.8,8.8,13.6,17.2,13.6s15.5-5.9,17.3-13.8
			c-5,2.2-10.2,3.4-15.6,3.5C65.4,104.8,66.3,105.7,67.3,106.7z"/>
		<path d="M106.3,51.8c-1.8-10.1-6.6-18.6-14.2-25.4C85,20,76.6,16.4,67,15.3c-0.6-0.1-1.3-0.1-1.9-0.2c-1.7,0-3.5,0-5.2,0
			c-1.7,0.2-3.4,0.4-5,0.7c-10.2,1.8-18.8,6.6-25.6,14.4C23,37.3,19.4,45.6,18.4,55c-1.1,11.6,1.8,22.1,8.8,31.3
			c4.3,5.6,9.5,10,15.5,12.9c-0.1-0.5-0.1-1.1-0.2-1.6c0-0.8,0-1.6,0-2.4c0-0.3,0.1-0.6,0.1-0.8c0.1-0.6,0.2-1.3,0.3-1.9
			C31.6,85.8,24,73.4,24.1,59.4c0-21.2,17.3-38.4,38.4-38.5S101,38.2,101,59.4c0,13.9-7.4,26.1-18.5,32.9c0.4,1.9,0.5,4,0.3,6.1
			c0,0.2-0.1,0.3-0.1,0.5c2.3-1.2,4.5-2.6,6.6-4.2c8.8-6.6,14.3-15.4,16.6-26.2c0.4-1.8,0.5-3.7,0.8-5.6c0-0.3,0.1-0.6,0.2-0.9
			c0-1.7,0-3.5,0-5.2C106.8,55.1,106.6,53.4,106.3,51.8z"/>
		<path d="M60.4,62.1c7.9,0,15.8,0,23.7,0c0.3,0,0.7,0,1-0.1c1.7-0.3,2.7-1.9,2.3-3.5c-0.4-1.5-1.5-2.3-3.3-2.3
			c-5.8,0-11.6,0-17.4,0c-0.3,0-0.7,0-1.1,0c0-0.5,0-0.8,0-1.1c0-3.8,0-7.5,0-11.3c0-4.2,0-8.4,0-12.6c0-1.5-0.9-2.7-2.2-3
			c-2-0.5-3.7,0.9-3.7,3.1c0,10,0,20,0,30.1c0,0.2,0,0.4,0.1,0.7C60,62.1,60.2,62.1,60.4,62.1z"/>
		<path d="M62.8,78.7c8.8,0,16.1,6.5,17.4,14.9c0.8-0.4,1.6-0.8,2.3-1.3c-0.8-3.8-2.7-7.3-5.7-10.3s-6.7-4.8-10.9-5.6
			c-0.7-0.1-1.3-0.2-2-0.3c-0.8,0-1.6,0-2.4,0c-0.8,0.1-1.5,0.2-2.3,0.3c-4.6,0.8-8.5,3-11.6,6.4c-2.5,2.8-4.1,6-4.8,9.6
			c0.8,0.4,1.5,0.9,2.3,1.3C46.5,85.2,53.9,78.7,62.8,78.7z"/>
		<path d="M62.7,114.1c-8.3,0-15.3-5.8-17.2-13.6c-1-0.4-1.9-0.8-2.8-1.3c0,0.2,0.1,0.4,0.1,0.7c1.1,6.1,4.3,10.7,9.6,13.9
			c3.4,2.1,7.1,3,11.1,2.8c5.7-0.3,10.5-2.5,14.3-6.8c2.8-3.1,4.5-6.8,4.9-10.9c-0.9,0.5-1.8,0.9-2.8,1.3
			C78.2,108.2,71.1,114.1,62.7,114.1z"/>
		<path d="M45.1,96.3c0-0.9,0.1-1.8,0.2-2.6c-0.8-0.4-1.6-0.8-2.3-1.3c-0.1,0.6-0.2,1.2-0.3,1.9c0,0.3-0.1,0.6-0.1,0.8
			c0,0.8,0,1.6,0,2.4c0.1,0.5,0.1,1.1,0.2,1.6c0.9,0.4,1.8,0.9,2.8,1.3C45.2,99.1,45.1,97.8,45.1,96.3z"/>
		<path d="M82.6,92.3c-0.8,0.5-1.6,0.9-2.3,1.3c0.1,0.9,0.2,1.8,0.2,2.8c0,1.3-0.2,2.6-0.4,3.9c0.9-0.4,1.9-0.9,2.8-1.3
			c0-0.2,0.1-0.3,0.1-0.5C83.1,96.3,83,94.2,82.6,92.3z"/>
		<path d="M65,97.8c1.2-0.8,2.1-2.1,2.7-4c0.4,0,0.8,0,1.3,0c0.8,0,1.3-0.5,1.3-1.3s-0.6-1.3-1.3-1.3c-0.4,0-0.9,0-1.2,0
			c-0.4-0.9-0.8-1.7-1.2-2.5c0.8,0,1.6,0,2.5,0c0.7,0,1.2-0.5,1.2-1.2s-0.4-1.2-1-1.3c-0.2,0-0.3,0-0.5,0c-4,0-8,0-12.1,0
			c-0.1,0-0.2,0-0.3,0c-0.7,0-1.3,0.6-1.3,1.3s0.5,1.2,1.3,1.3c0.2,0,0.4,0,0.5,0c1.5,0,3,0,4.5,0c1.7,0,3.2,1.1,3.6,2.5
			c-0.2,0-0.3,0-0.4,0c-2.6,0-5.2,0-7.8,0c-0.1,0-0.3,0-0.4,0c-0.6,0.1-1.1,0.5-1.2,1.2s0.4,1.2,1,1.3c0.2,0,0.3,0,0.5,0
			c2.6,0,5.3,0,7.9,0c0.1,0,0.3,0,0.4,0c0,0.1,0,0.1-0.1,0.2c-0.7,1.5-1.9,2.3-3.5,2.3s-3.3,0-4.9,0c-0.6,0-1.1,0.3-1.3,0.8
			c2.4,0.5,4.8,0.7,7.3,0.7C63.4,97.9,64.2,97.8,65,97.8z"/>
		<path d="M60.8,103.8c1.6,1.6,3.1,3.1,4.7,4.7c0.1,0.1,0.2,0.2,0.3,0.3c0.7,0.5,1.7,0.2,1.9-0.6c0.2-0.6,0-1-0.4-1.4
			c-1-1-2-2-2.9-2.9C63.2,103.8,62,103.8,60.8,103.8z"/>
		<path d="M55.7,98.7c1.7,1.7,3.4,3.4,5.1,5.1c1.2,0.1,2.4,0.1,3.6,0c-1.5-1.5-3-3-4.5-4.6c-0.1-0.1-0.2-0.2-0.4-0.4
			c2.2,0.2,4.1-0.1,5.6-1c-0.8,0.1-1.6,0.1-2.4,0.1c-2.5,0-5-0.3-7.3-0.7c0,0.1,0,0.2-0.1,0.3C55.1,97.9,55.3,98.3,55.7,98.7z"/>
	</g>
</g>
<g id="term-deposit" class="st0">
	<g class="st1">
		<g>
			<path d="M23,86.4c0.4-0.5,0.8-0.8,1.5-0.8c1.8-0.2,3.3-1.1,4.2-2.6c-0.2-0.1-0.5-0.1-0.7-0.2c-0.7-0.3-1.4-0.5-2.1-0.8
				c-2-1-2.5-2.8-1.4-4.5c1.2-1.9,3.2-2.4,5-1.1c1.4,1,2.1,2.4,2.3,4.1c0,0.2,0,0.4,0.3,0.6c0.1-0.2,0.2-0.4,0.2-0.7
				c1.2-6.9,4.9-12.1,10.9-15.7c0.8-0.5,1.5-0.3,1.8,0.3c0.4,0.6,0.2,1.3-0.7,1.7c-4,2.4-7,5.6-8.6,10c-2.3,6.4-2.2,12.8,0.9,19
				c1.8,3.6,4.6,6.3,8.2,8.3c1.1,0.6,1.7,1.4,1.9,2.7c0.4,2.4,0.9,4.7,1.3,7.1c0.1,0.6,0.4,0.8,0.9,0.8c1.6,0,3.2,0,4.8,0
				c0.6,0,0.9-0.3,1-0.8c0.2-1.3,0.5-2.6,0.7-3.8c0.3-1.5,0.9-2,2.4-1.9c4.1,0.4,8.1,0.3,12.2-0.3c1.2-0.2,1.9,0.5,2.2,1.7
				c0.3,1.4,0.6,2.8,0.8,4.2c0.1,0.7,0.4,0.9,1.1,0.9c1.5,0,3.1-0.1,4.6,0c0.7,0,0.9-0.3,1.1-0.9c0.5-2.7,1-5.5,1.5-8.2
				c0.1-0.8,0.5-1.3,1.2-1.7c3.9-2.1,7.2-4.9,9.5-8.8c0.5-0.8,1.3-1.3,2.2-1.6c1.5-0.5,3.1-1,4.6-1.5c1.4-0.4,1.8-1,1.8-2.5
				c0-1.6,0-3.2,0-4.8c0-1.2-0.5-1.8-1.6-2.2c-0.9-0.3-1.9-0.6-2.8-0.9c-1.4-0.4-2.3-1.3-2.8-2.7c-0.7-2.1-1.7-4-3.1-5.8
				c-0.1-0.2-0.3-0.3-0.4-0.5c0,0-0.1,0-0.2-0.1c-0.1,0.2-0.2,0.4-0.3,0.7c-1.1,2.8-3.2,3.9-6.1,3.9c-5.3,0-9.2-3.8-9.3-9.1
				c0-1.4,0.2-2.8,0.3-4.3c-0.5-0.1-1.2-0.3-1.8-0.4c-0.1,0-0.3,0.1-0.4,0.2c-0.7,0.8-1.3,1.7-2.1,2.4c-0.7,0.7-1.6,1.3-2.4,2.1
				c0.6,0.2,1.2,0.4,1.8,0.6c0.8,0.3,1.2,0.8,0.9,1.5c-0.2,0.7-0.8,0.9-1.7,0.7c-3.1-1-6.3-1.5-9.5-1.5s-6.3,0.4-9.3,1.4
				c-0.3,0.1-0.5,0.2-0.8,0.2c-0.7,0.1-1.1-0.1-1.4-0.7c-0.2-0.6,0.1-1.2,0.7-1.5c0.7-0.3,1.3-0.4,2.1-0.7c-0.2-0.2-0.4-0.3-0.5-0.4
				C44.6,63.7,42,57.2,43.4,51c1.5-6.4,6.6-11.2,13.1-12.2s13.2,2.2,16.3,8.1c0.5,1,0.4,1.7-0.3,2c-0.7,0.3-1.2,0.1-1.8-0.9
				c-2.8-4.8-6.9-7.2-12.4-7.1C52.1,41,46.6,45.8,45.5,52c-1,6.4,2.5,12.7,8.3,15c0.4,0.1,0.8,0.2,1.2,0.1c2.7-0.3,5.3-0.3,7.9,0
				c0.5,0.1,1,0,1.4-0.2c4.9-2.3,7.6-6.1,8.1-11.4c0.1-0.7,0.2-1.3,0.9-1.4c0.8-0.2,1.4,0.4,1.4,1.2c0,1.8-0.5,3.5-1.1,5.2
				c-0.1,0.2-0.1,0.3-0.2,0.6c1.1,0.2,2.1,0.7,3.3,0.1c3-1.5,6.1-2.7,9.3-3.4c0.3,0,0.5-0.1,0.8-0.1c2.6-0.3,3.7,0.5,4.1,3.1
				c0.4,2.8,0.2,5.6-0.3,8.4c-0.1,0.3,0.1,0.8,0.3,1c2.1,2.3,3.7,4.9,4.6,7.9c0.2,0.7,0.6,1.1,1.3,1.3c1,0.3,2,0.6,3,0.9
				c1.9,0.7,3,2.2,3,4.2c0,1.8,0,3.6,0,5.4c0,2-1.2,3.5-3,4.2c-1.7,0.6-3.3,1-5,1.6c-0.4,0.2-0.9,0.5-1.1,0.9
				c-2.4,3.9-5.7,6.8-9.7,9.1c-0.4,0.3-0.7,0.5-0.8,1.1c-0.5,2.6-1,5.2-1.5,7.8c-0.3,1.7-1.4,2.5-3.1,2.5s-3.4,0-5.1,0
				c-1.6,0-2.7-0.9-3-2.4c-0.3-1.4-0.6-2.8-0.8-4.3c-2.1,0.1-4.1,0.3-6.2,0.3c-2,0.1-4,0-6.2,0c-0.2,1.1-0.5,2.4-0.7,3.7
				c-0.3,1.8-1.4,2.7-3.2,2.7c-1.6,0-3.2,0-4.8,0c-1.9,0-3-0.9-3.3-2.7c-0.5-2.4-0.9-4.8-1.4-7.3c-0.1-0.3-0.3-0.7-0.6-0.8
				C37,102.6,33,97.3,31.8,90c-0.3-2.1-0.4-4.2-0.5-6.4c-0.3-0.2-0.5,0.1-0.7,0.4c-1.2,1.9-2.8,3.4-5.1,4c-0.1,0-0.5,0-0.9,0
				c-0.7,0.1-1.3-0.2-1.6-0.8C23,87,23,86.7,23,86.4z M89,63.8c-0.1-0.9-0.1-1.9-0.3-2.8c-0.2-1.1-0.4-1.3-1.5-1
				c-3.4,0.7-6.6,2-9.7,3.5c-0.4,0.2-0.7,0.7-0.8,1.1c-0.2,1.4-0.4,2.7-0.3,4.1c0.2,3.1,2.2,5.4,5.2,6c4,0.8,5-0.3,6-3.3
				C88.5,68.9,88.9,66.4,89,63.8z M29.5,80.9c-0.3-1.3-0.6-2.3-1.7-2.8c-0.7-0.3-1,0.2-1.3,0.7s0,0.9,0.4,1.1
				C27.6,80.3,28.4,80.5,29.5,80.9z"/>
			<path d="M86.3,85.1c-2,0-3.6-1.5-3.8-3.4c-0.1-0.8,0.3-1.4,0.9-1.5c0.7-0.1,1.2,0.3,1.4,1.1c0.2,0.9,0.7,1.4,1.4,1.4
				c0.8,0,1.3-0.5,1.5-1.5c0.1-0.8,0.6-1.2,1.3-1.1c0.7,0.1,1.1,0.6,1,1.4C90,83.6,88.3,85.1,86.3,85.1z"/>
		</g>
		<g>
			<path d="M60.3,52.8c-0.5,0-1.1,0-1.6,0c-1.1,0-2.3,0-3.4,0c-0.6,0-0.9-0.5-0.7-1c0.1-0.3,0.4-0.5,0.8-0.5c1.5,0,3.1,0,4.6,0
				c0.1,0,0.2,0,0.4,0c-0.3-0.8-0.9-1.3-1.7-1.5c-0.2,0-0.4,0-0.7,0c-0.9,0-1.8,0-2.7,0c-0.6,0-0.9-0.5-0.7-1
				c0.1-0.3,0.4-0.5,0.7-0.5c0.7,0,1.3,0,2,0c1.8,0,3.5,0,5.3,0c0.6,0,1,0.5,0.8,1c-0.1,0.3-0.4,0.5-0.7,0.5c-0.5,0-1,0-1.4,0
				c0.2,0.5,0.5,1,0.7,1.5c0.2,0,0.5,0,0.7,0c0.5,0,0.8,0.3,0.8,0.7s-0.3,0.7-0.8,0.7c-0.3,0-0.5,0-0.8,0c-0.7,2.4-2.5,3.2-4.8,3
				c0,0,0,0,0,0.1c0.1,0.1,0.1,0.1,0.2,0.2c1.5,1.5,2.9,2.9,4.4,4.4c0.2,0.2,0.3,0.5,0.3,0.8c-0.2,0.5-0.7,0.7-1.2,0.4
				c-0.1,0-0.1-0.1-0.2-0.2c-1.9-1.9-3.9-3.9-5.8-5.8c-0.2-0.2-0.3-0.4-0.3-0.7c0.1-0.4,0.4-0.6,0.8-0.6c1,0,1.9,0,2.9,0
				s1.7-0.5,2.1-1.4C60.3,52.9,60.3,52.9,60.3,52.8z"/>
		</g>
		<g>
			<path d="M86.1,37.6c-0.6,0-1.1,0-1.6,0c-1.1,0-2.3,0-3.4,0c-0.6,0-0.9-0.5-0.7-1c0.1-0.3,0.4-0.5,0.8-0.5c1.5,0,3.1,0,4.6,0
				c0.1,0,0.2,0,0.4,0c-0.3-0.8-0.9-1.3-1.7-1.5c-0.2,0-0.4,0-0.7,0c-0.9,0-1.8,0-2.7,0c-0.6,0-0.9-0.5-0.7-1
				c0.1-0.3,0.4-0.5,0.7-0.5c0.7,0,1.3,0,2,0c1.8,0,3.5,0,5.3,0c0.6,0,1,0.5,0.8,1c-0.1,0.3-0.4,0.5-0.7,0.5c-0.5,0-1,0-1.4,0
				c0.2,0.5,0.4,1,0.7,1.5c0.2,0,0.5,0,0.7,0c0.5,0,0.8,0.3,0.8,0.7s-0.3,0.7-0.8,0.7c-0.3,0-0.5,0-0.8,0c-0.7,2.4-2.5,3.2-4.8,3
				c0,0,0,0,0,0.1c0.1,0.1,0.1,0.1,0.2,0.2c1.5,1.5,2.9,2.9,4.4,4.4c0.2,0.2,0.3,0.5,0.3,0.8c-0.2,0.5-0.7,0.7-1.2,0.4
				c-0.1,0-0.1-0.1-0.2-0.2c-1.9-1.9-3.9-3.9-5.8-5.8c-0.2-0.2-0.3-0.4-0.3-0.7c0.1-0.4,0.4-0.6,0.8-0.6c1,0,1.9,0,2.9,0
				s1.7-0.5,2.1-1.4C86.1,37.7,86.1,37.6,86.1,37.6z"/>
		</g>
		<g>
			<path d="M62.2,23.2c-0.5,0-1.1,0-1.6,0c-1.1,0-2.3,0-3.4,0c-0.6,0-0.9-0.5-0.7-1c0.1-0.3,0.4-0.5,0.8-0.5c1.5,0,3.1,0,4.6,0
				c0.1,0,0.2,0,0.4,0c-0.3-0.8-0.9-1.3-1.7-1.5c-0.2,0-0.4,0-0.7,0c-0.9,0-1.8,0-2.7,0c-0.6,0-0.9-0.5-0.7-1
				c0.1-0.3,0.4-0.5,0.7-0.5c0.7,0,1.3,0,2,0c1.8,0,3.5,0,5.3,0c0.6,0,1,0.5,0.8,1c-0.1,0.3-0.4,0.5-0.7,0.5c-0.5,0-1,0-1.4,0
				c0.2,0.5,0.5,1,0.7,1.5c0.2,0,0.5,0,0.7,0c0.5,0,0.8,0.3,0.8,0.7s-0.3,0.7-0.8,0.7c-0.3,0-0.5,0-0.8,0c-0.7,2.4-2.5,3.2-4.8,3
				c0,0,0,0,0,0.1c0.1,0.1,0.1,0.1,0.2,0.2c1.5,1.5,2.9,2.9,4.4,4.4c0.2,0.2,0.3,0.5,0.3,0.8c-0.2,0.5-0.7,0.7-1.2,0.4
				c-0.1,0-0.1-0.1-0.2-0.2c-1.9-1.9-3.9-3.9-5.8-5.8c-0.2-0.2-0.3-0.4-0.3-0.7c0.1-0.4,0.4-0.6,0.8-0.6c1,0,1.9,0,2.9,0
				s1.7-0.5,2.1-1.4C62.2,23.3,62.2,23.3,62.2,23.2z"/>
		</g>
		<circle class="st5" cx="86" cy="39.7" r="14.3"/>
		<circle class="st5" cx="61.2" cy="25.3" r="14.3"/>
	</g>
</g>
<g id="takeover-of-accounts-w" class="st0">
	<g class="st1">
		<g>
			<path d="M66.5,118.1c-7-1.9-14-3.8-21.1-5.7c-2.5-0.7-5-1.4-7.5-2.1c-2-0.6-3.8-0.3-5.6,0.6c-0.7,0.4-1.4,0.8-2.2,1.2
				c-1.3,0.6-2.3,1.2-2.1,2.9c0.1,1.2-0.9,1.9-2,1.8c-5.4-0.1-10.9-0.2-16.3-0.4c-1.6-0.1-2.2-0.9-2.2-2.5
				c0.3-9.7,0.5-19.5,0.8-29.2c0.1-2,0.1-4,0.1-6.1c0.1-1.8,0.8-2.5,2.6-2.5c5.1,0.1,10.1,0.2,15.2,0.4c2.3,0.1,2.9,0.8,2.8,3.1
				c0,0.8,0,1.6,0,2.3c1.8-0.6,3.5-1.4,5.3-1.8c6.5-1.8,12.9-1.3,18.9,1.8c3.8,2,7.8,3,12.1,3c3.8,0,7.6,0.2,11.4,0.3
				c5.1,0.1,8.9,2.2,11.7,6.5c0.1,0.1,0.2,0.3,0.3,0.5c1.1-0.5,2.2-1,3.3-1.6c4.4-2.1,8.8-4.2,13.3-6.3c4.7-2.1,10.2-0.6,13,3.7
				c1.1,1.7,0.9,2.7-0.7,3.8c-12,7.8-24,15.6-36,23.3c-2.6,1.7-5.6,2.3-8.6,2.8c-0.4,0.1-0.8,0.2-1.2,0.3
				C69.9,118.1,68.2,118.1,66.5,118.1z M85.8,96.6c-0.8-4-4.2-7-8.1-7.2c-2.6-0.1-5.3-0.2-7.9-0.3c-3-0.1-6-0.1-9-0.3
				c-3.5-0.2-6.4-1.8-9.5-3.3c-7.2-3.3-14.4-3-21.3,0.9c-0.8,0.4-1.1,0.9-1.1,1.8c-0.1,6.4-0.4,12.9-0.5,19.3c0,0.2,0,0.4,0.1,0.7
				c0.5-0.2,0.9-0.4,1.3-0.6c3.2-1.9,6.6-2.2,10.2-1.2c4,1.2,7.9,2.3,11.9,3.4c4.9,1.3,9.7,2.9,14.7,3.8c4.6,0.8,9.3,0.2,13.3-2.4
				c11.1-7,22-14.2,33-21.3c0.4-0.2,0.7-0.5,1.1-0.7c-2.1-1.9-4.6-2.2-7.1-1c-4.7,2.2-9.3,4.4-14,6.6c-0.9,0.4-1.8,0.9-2.7,1.3
				c0.1,0.8,0.2,1.5,0.2,2.2c0,1.7-0.8,2.5-2.4,2.4c-8-0.2-16.1-0.4-24.1-0.7c-1.5-0.1-2.4-0.9-2.4-2.1s1-2,2.5-2
				c2.6,0.1,5.2,0.1,7.8,0.2C76.3,96.3,81,96.5,85.8,96.6z M12.5,80.6c-0.3,10.5-0.6,21.1-0.9,31.9c4.2,0,8.2,0,12.3,0
				c0.3-10.5,0.6-21.1,0.9-31.9C20.7,80.6,16.7,80.6,12.5,80.6z"/>
		</g>
		<g>
			<path class="st3" d="M81.2,15.9c-2.3,0-4.5-0.4-6.7-1.1c0.7,3.2,2.1,6,4.2,8.4c0.1,0.2,0.4,0.2,0.7,0.2c2.1,0,4.1,0,6.2,0
				c1.7,0,3.3,0,5.1,0c-1.2-2.6-2.2-5.2-2.6-7.9C85.7,15.7,83.4,15.9,81.2,15.9z"/>
			<path class="st3" d="M99.6,26.6c0-0.6,0-1.3,0-1.9v-0.1c-0.1-0.8-0.5-1.2-1.1-1.2s-1.1,0.5-1.1,1.2c0,1.4,0,2.7,0,4.1
				c0,0.8,0.5,1.2,1.1,1.2c0.7,0,1.1-0.4,1.1-1.2C99.7,27.9,99.6,27.3,99.6,26.6L99.6,26.6z"/>
			<path class="st3" d="M71.8,70c1.8,1.2,3.8,2.1,5.9,2.8c4.6,1.5,9.3,1.9,14,1.3c4.4-0.5,8.6-1.7,12.3-4.2c3.6-2.3,6-5.5,7.1-9.7
				c0.9-3.4,0.7-6.8-0.1-10.2c-0.8-3.6-2.5-6.7-4.8-9.6c-2.3-2.9-4.8-5.7-7.2-8.5c-0.1-0.1-0.4-0.2-0.6-0.2c-1.2,0-2.2-0.5-2.7-1.6
				c-0.2-0.4-0.5-0.5-0.9-0.5c-3,0-6,0-9,0c-0.2,0-0.5,0-0.7,0c-0.5-0.1-0.8-0.4-0.9-0.9s0.2-0.9,0.8-1c0.2,0,0.5-0.1,0.7-0.1
				c3,0,5.9,0,8.9,0c0.2,0,0.5,0,0.7,0c0-0.8,0-1.5,0-2.2c-0.2,0-0.3,0-0.4,0c-6.1,0-12.3,0-18.4,0c-0.2,0-0.5,0-0.7,0.1
				c-0.5,0.2-0.7,0.6-0.7,1.1c0.1,0.5,0.3,0.9,0.9,1c0.2,0,0.5,0,0.7,0c1.2,0,2.4,0,3.6,0c0.8,0,1.2,0.4,1.2,1s-0.4,0.9-1.2,1
				c-0.6,0-1.2,0-1.8,0c-0.2,0-0.5,0.2-0.7,0.4c-0.4,0.6-0.7,1.3-1.2,1.8c-2,2.4-4.1,4.9-6.1,7.3c-1.7,2-3.2,4.2-4.3,6.5h5.5
				L71.8,70L71.8,70z"/>
			<path class="st3" d="M98.8,20.4c1.5-2.9,2.9-5.9,3.8-9.2c-6.1,1.1-12.1,1-18.2,0.1c0.2,0.9,0.4,1.6,0.7,2.5
				c1.2-0.2,2.4-0.4,3.6-0.5c0.8-0.1,1.3,0.3,1.3,1.1c0.1,2.6,1.1,5,2,7.4c0.5,1.4,1.2,2.1,2.8,1.8c0.1,0,0.3,0,0.4,0
				c0.2-0.1,0.5-0.2,0.6-0.4c0.4-0.7,0.9-1.3,1.8-1.5C98.2,21.4,98.5,21,98.8,20.4z"/>
			<path class="st3" d="M105.8,25.9c0.2,0,0.4,0,0.6,0c1.7-0.5,3.4-0.9,5.1-1.4c0.8-0.2,1.1-0.8,0.9-1.4s-0.8-0.9-1.5-0.7
				c-2.1,0.6-4.1,1.1-6.1,1.7c-1,0.3-1.9,0.5-2.9,0.8V25C103.1,25.3,104.5,25.6,105.8,25.9z"/>
			<path class="st3" d="M113.6,29.8c-3.4-0.8-6.8-1.6-10.2-2.4c-0.6-0.1-1.1-0.2-1.8-0.4c0,0.8,0,1.5,0,2.3c0.2,0,0.4,0.1,0.6,0.2
				c3.1,0.7,6.3,1.4,9.4,2.1c0.7,0.1,1.4,0.4,2.1,0.4c0.9,0.1,1.5-0.9,1-1.6C114.4,30.1,114,29.9,113.6,29.8z"/>
			<path d="M114.4,27.9c-1.3-0.4-2.7-0.6-4.2-1c0.9-0.3,1.6-0.5,2.3-0.7c1.6-0.6,2.3-2.5,1.6-4.1c-0.7-1.5-2.2-2.2-4-1.7
				c-2.8,0.8-5.6,1.6-8.4,2.3c-0.2,0-0.5,0-0.6-0.1c-0.3-0.3-0.5-0.6-0.8-0.9c0.1-0.2,0.2-0.4,0.3-0.5c0.9-1.8,1.8-3.6,2.6-5.5
				c0.8-1.8,1.4-3.5,1.7-5.4c0.1-1.1-0.4-1.5-1.4-1.3c-2.6,0.3-5.2,0.8-7.8,0.9c-4.1,0.2-8.2-0.2-12.3-0.9c-0.5-0.1-1-0.1-1.4,0.3
				c-0.4,0.5-0.1,0.9,0.1,1.4c0.4,1,0.8,2,1.2,3c-0.3,0-0.4,0.1-0.5,0.1c-3.1,0.1-6.2-0.2-9.1-1.6c-0.9-0.4-1.7,0.2-1.5,1.1
				c0.6,3.2,1.6,6.3,3.5,9c0.2,0.3,0.4,0.6,0.7,1c-1.9,0.4-3,1.4-3.1,2.9c-0.1,1.6,0.7,2.6,2.7,3.4c-0.5,0.6-0.9,1.3-1.4,1.9
				c-1.7,2-3.4,4-5.2,6c-2.2,2.5-3.9,5.2-5.1,8h2.2c1.1-2.3,2.5-4.5,4.3-6.5c2.1-2.4,4.1-4.8,6.1-7.3c0.5-0.5,0.8-1.2,1.2-1.8
				c0.1-0.2,0.4-0.4,0.7-0.4c0.6,0,1.2,0,1.8,0c0.8,0,1.2-0.4,1.2-1s-0.4-1-1.2-1c-1.2,0-2.4,0-3.6,0c-0.2,0-0.5,0-0.7,0
				c-0.5-0.1-0.8-0.5-0.9-1c0-0.5,0.2-0.9,0.7-1.1c0.2-0.1,0.5-0.1,0.7-0.1c6.1,0,12.3,0,18.4,0c0.1,0,0.3,0,0.4,0
				c0,0.7,0,1.4,0,2.2c-0.2,0-0.5,0-0.7,0c-3,0-5.9,0-8.9,0c-0.2,0-0.5,0-0.7,0.1c-0.5,0.1-0.8,0.5-0.8,1s0.3,0.9,0.9,0.9
				c0.2,0,0.5,0,0.7,0c3,0,6,0,9,0c0.4,0,0.7,0.1,0.9,0.5c0.6,1.1,1.5,1.6,2.7,1.6c0.2,0,0.5,0.1,0.6,0.2c2.4,2.8,4.8,5.6,7.2,8.5
				c2.3,2.8,3.9,6,4.8,9.6c0.8,3.4,1,6.8,0.1,10.1c-1.1,4.2-3.5,7.3-7.1,9.7c-3.7,2.5-7.9,3.7-12.3,4.2c-4.8,0.5-9.4,0.1-14-1.3
				c-2.1-0.7-4.1-1.6-5.9-2.8v2.3c3,1.8,6.4,2.8,9.9,3.5c1.3,0.2,2.7,0.4,4,0.5c1.4,0,2.8,0,4.2,0c0.7-0.1,1.4-0.2,2.2-0.3
				c4.7-0.5,9-1.8,13-4.4c3.1-2,5.5-4.7,7-8.1c1.6-3.5,1.8-7.2,1.4-10.9c-0.5-4.2-1.9-8.1-4.4-11.5c-1.9-2.6-4.1-5-6.1-7.4
				c-0.6-0.8-1.3-1.5-1.9-2.3c1.4,0.2,2.7,0.5,4.1,0.8c2.7,0.6,5.4,1.3,8.1,1.8c1.6,0.3,3.1-0.8,3.4-2.4
				C117.1,29.9,116.1,28.4,114.4,27.9z M85.5,23.5c-2.1,0-4.1,0-6.2,0c-0.2,0-0.5-0.1-0.7-0.2c-2.1-2.4-3.5-5.2-4.2-8.4
				c2.2,0.7,4.5,1.1,6.7,1.1s4.5-0.2,6.9-0.3c0.3,2.7,1.3,5.3,2.6,7.9C88.8,23.5,87.2,23.5,85.5,23.5z M95.7,23.1
				c-0.1,0.2-0.4,0.3-0.6,0.4c-0.1,0-0.3,0-0.4,0c-1.5,0.3-2.2-0.4-2.8-1.8c-0.9-2.4-1.9-4.8-2-7.4c0-0.8-0.5-1.2-1.3-1.1
				c-1.2,0.2-2.4,0.4-3.6,0.5c-0.2-0.9-0.4-1.6-0.7-2.5c6.1,0.9,12.1,1,18.2-0.1c-0.9,3.3-2.3,6.3-3.8,9.2c-0.3,0.6-0.6,1-1.3,1.2
				C96.7,21.7,96.2,22.4,95.7,23.1z M99.6,28.6c0,0.8-0.4,1.2-1.1,1.2s-1.1-0.4-1.1-1.2c0-1.4,0-2.7,0-4.1c0-0.8,0.5-1.2,1.1-1.2
				s1.1,0.5,1.1,1.2v0.1c0,0.6,0,1.3,0,1.9l0,0C99.6,27.3,99.7,27.9,99.6,28.6z M104.7,24.1c2-0.6,4.1-1.1,6.1-1.7
				c0.8-0.2,1.4,0.1,1.5,0.7c0.2,0.6-0.2,1.2-0.9,1.4c-1.7,0.5-3.4,1-5.1,1.4c-0.2,0-0.4,0-0.6,0c-1.3-0.3-2.7-0.6-4-0.9v-0.1
				C102.7,24.6,103.7,24.3,104.7,24.1z M113.7,32c-0.7-0.1-1.4-0.3-2.1-0.4c-3.1-0.7-6.3-1.4-9.4-2.1c-0.2,0-0.4-0.1-0.6-0.2
				c0-0.8,0-1.5,0-2.3c0.6,0.1,1.2,0.2,1.8,0.4c3.4,0.8,6.8,1.5,10.2,2.4c0.4,0.1,0.8,0.3,1.1,0.7C115.2,31.2,114.6,32.1,113.7,32z"
				/>
		</g>
		<path class="st5" d="M34.3,81.8V46.5H71v40.8c0,0-5.6,2.1-13.3-1.6C49.4,81.8,36.2,80.3,34.3,81.8z"/>
		<rect x="40.8" y="54" width="26" height="2"/>
		<rect x="40.8" y="62" width="26" height="2"/>
		<rect x="40.8" y="70" width="26" height="2"/>
		<rect x="37.4" y="54" width="1.8" height="2"/>
		<rect x="37.4" y="62" width="1.8" height="2"/>
		<rect x="37.4" y="70" width="1.8" height="2"/>
		<g>
			<path d="M95.1,49.5c-0.6,2.3-1.8,4.1-3.8,5.3S87,56,84.6,55.9c0.2,0.2,0.3,0.3,0.4,0.5c3.2,3.2,6.4,6.4,9.6,9.6
				c0.5,0.5,0.8,1.1,0.6,1.8c-0.3,1.1-1.6,1.5-2.5,0.8c-0.1-0.1-0.3-0.2-0.4-0.3C88.2,64,84,59.8,79.8,55.6
				c-0.4-0.4-0.7-0.9-0.6-1.6c0.1-0.8,0.8-1.4,1.7-1.4c2.1,0,4.1,0,6.2,0s3.7-1,4.6-2.9c0-0.1,0.1-0.2,0.1-0.3c-0.2,0-0.4,0-0.6,0
				c-3.4,0-6.8,0-10.3,0c-1.3,0-2.1-1.1-1.6-2.2c0.3-0.7,0.8-1,1.6-1c3,0,6,0,9,0c0.6,0,1.2,0,1.9,0c-0.7-1.7-1.9-2.8-3.7-3.1
				C87.7,43,87.3,43,86.9,43c-2,0-4.1,0-6.1,0c-1.2,0-2-1.1-1.5-2.2c0.3-0.7,0.8-1,1.5-1c1,0,2.1,0,3.1,0c4.2,0,8.4,0,12.6,0
				c0.2,0,0.5,0,0.7,0c0.8,0.2,1.3,0.9,1.3,1.7c-0.1,0.8-0.7,1.5-1.6,1.5c-1.1,0-2.1,0-3.2,0c0.5,1.1,1,2.1,1.5,3.2c0.4,0,1,0,1.5,0
				c1,0,1.7,0.7,1.7,1.6c0,0.9-0.7,1.6-1.7,1.6C96.3,49.5,95.7,49.5,95.1,49.5z"/>
		</g>
		<g>
			<path d="M66.4,18.1c-4.9-0.9-9.8-1.8-14.8-2.7c1.1,1.9,2.1,3.8,3.1,5.6c-5.8,3.4-9.4,8-10.6,13.8c-0.7,3.1-0.4,6,0.9,8.7
				c-0.2-4.7,2.4-8.5,6.1-12.1c1.8-1.7,3.9-3.1,6-4.4c0.2-0.1,0.4-0.2,0.7-0.4c1,1.9,2,3.7,3.1,5.5c0.1,0,0.2,0,0.3,0
				c0-0.2,0-0.5,0.1-0.7c1.7-4.3,3.3-8.5,5-12.8C66.4,18.5,66.5,18.3,66.4,18.1C66.5,18.2,66.5,18.2,66.4,18.1z"/>
		</g>
	</g>
</g>
<g id="sukanya_x5F_samriddhi_x5F_yojana_x5F_wn" class="st0">
	<g class="st1">
		<path class="st3" d="M63.5,22C41.1,22,23,40.1,23,62.5S41.1,103,63.5,103S104,84.9,104,62.5S85.9,22,63.5,22z M80.5,75.9
			c-1.1,3.4-2.2,6.8-3.2,10.2c-0.9,2.7-1.7,5.4-2.6,8.2c-0.2,0.6-0.5,0.8-1.1,0.7c-3.7-0.2-7.3,0.5-10.4,2.6c-0.5,0.3-1,0.7-1.5,1
			c-0.2,0.1-0.7,0.2-0.8,0c-1.8-1.4-3.9-2.5-6.2-3.1c-1.9-0.5-3.9-0.8-5.9-0.5c-0.5,0.1-0.8-0.1-0.9-0.6c-1-3.3-2.1-6.6-3.2-9.9
			c-0.7-2.3-1.5-4.5-2.2-6.8c-0.4-1.2-0.7-2.4-1.1-3.7c0.5,0.1,0.8,0.2,1.2,0.3c3.6,1,7.1,2,10.7,3c1.6,0.5,3.1,1.1,4.4,2.3
			c1.4,1.2,2.1,2.7,2.6,4.4c0.2,0.9,0.4,1.7,0.5,2.6c0.1,0.3,0.2,0.5,0.3,0.8c0.1,0,0.2,0,0.3,0c0.1-0.5,0.3-1,0.4-1.5
			c0.3-1.7,0.8-3.3,1.7-4.8c1.5-2.2,3.6-3.4,6.2-4c2.3-0.5,4.6-1,6.9-1.7c1.6-0.5,3.2-1.3,4.8-2C81,74.2,80.8,75,80.5,75.9z
			 M71.1,59.5c-1.3,0-2.4-1-2.4-2.4c0-1.3,1.1-2.4,2.4-2.4s2.3,1.1,2.4,2.4C73.5,58.4,72.4,59.5,71.1,59.5z M77.1,69.9
			c0.1,0,0.1,0,0.3-0.1C77,70.9,76.8,72,76.3,73c-0.2,0.4-0.9,0.6-1.4,0.7c-1.6,0.4-3.3,0.8-4.9,1.1c-2.6,0.5-4.7,1.9-6.6,3.6
			c-0.4,0.4-0.8,0.8-1.3,1.4c0.1-0.5,0.1-0.8,0.2-1.1c1.1-3.3,3.1-5.6,6.7-6.2C71.8,72.1,74.6,71.5,77.1,69.9z M69,63.3
			c0,0.5,0,0.7-0.1,0.9c-0.3,1.3-1.2,2.2-2.3,2.8c-3.1,1.8-6.3,1.9-9.5,0.2c-1.2-0.7-2.3-1.5-2.6-3c0-0.2,0-0.4,0-0.8
			C59.4,66.4,64.2,66.5,69,63.3z M52.8,59.5c-1.4,0-2.4-1.1-2.4-2.5c0-1.2,1.2-2.4,2.4-2.3c1.5,0.1,2.4,1.1,2.4,2.4
			C55.1,58.5,54.1,59.5,52.8,59.5z M53.7,72.7c1.4,0.4,2.6,1.2,3.6,2.2c0.8,0.8,1.4,1.6,2.1,2.5c0.3,0.4,0.3,0.9,0.5,1.4
			c-0.1,0-0.1,0.1-0.2,0.1c-0.3-0.4-0.6-0.8-0.9-1.1c-1.2-1.3-2.8-2-4.5-2.4c-2.5-0.8-5.1-1.4-7.6-2.1c-0.6-0.2-1-0.4-1.1-1.1
			c-0.1-0.6-0.3-1.2-0.6-1.9c1.6,0.5,3,0.9,4.4,1.3C50.9,72,52.3,72.3,53.7,72.7z M95.4,74.4c0.2,0.2,0.2,0.4,0.3,0.6
			c-0.2,0.1-0.4,0.3-0.7,0.3c-1.4-0.2-2.8-0.3-4.1-0.7c-2.8-0.7-5.5-1.8-7.9-3.5c-1.7-1.3-2.7-2.9-2.9-5.1c0-0.1,0-0.2-0.1-0.5
			c-1.8,2.1-4.1,2.9-6.6,3.7c5.5-4.1,8.7-9.5,9.3-16.5c-5,0.3-9.5-0.8-13.4-3.7c-4-2.9-6.4-6.8-7.6-11.6c-1.1,4.8-3.7,8.5-7.6,11.3
			s-8.4,3.9-13.3,3.2c0.1,3.7,1,7.1,2.9,10.3c1.8,3.1,4.3,5.6,7.4,7.5c0,0.1,0,0.1-0.1,0.2c-0.7-0.2-1.4-0.4-2-0.6s-1.1-0.4-1.7-0.5
			c-1.4-0.3-2.1-1.4-2.9-2.4c-0.3-0.4-0.7-0.8-1-1.3c0,0.2-0.1,0.4-0.1,0.5c0.1,2.4-1.1,4.1-2.9,5.4c-3.3,2.4-7.1,3.6-11.1,4.2
			c-0.3,0.1-0.7,0-1,0c-0.6-0.1-0.6-0.3-0.3-0.8c0.5-0.7,1.1-1.4,1.5-2.2c0.9-1.5,1.2-3.1,1.5-4.8c0.4-2,1-3.9,1.9-5.8
			c1.3-2.5,4.4-3.5,6.8-2.3c0.2,0.1,0.3,0.2,0.6,0.3c-0.3-1.1-0.6-2-0.8-3c-1.7-8,0.1-15,5.8-20.9c5.4-5.7,12.1-8,19.9-6.9
			c8.7,1.3,14.6,6.2,18.1,14.3c1.1,2.7,1.8,5.4,1.8,8.3c0,1.6-0.4,3.3-0.7,4.9c-0.2,1-0.5,1.9-0.8,3c0.3-0.1,0.5-0.1,0.8-0.2
			c2.5-0.7,5,0.3,6.2,2.7c1.2,2.4,1.9,5,2.4,7.7C93.3,71.4,94.1,73,95.4,74.4z"/>
		<path class="st3" d="M34.8,62.4c-0.5,1-1,2.1-1.3,3.2c-0.6,2-1,4-1.6,5.9c-0.1,0.4-0.3,0.8-0.5,1.4c0.7-0.2,1.3-0.4,1.8-0.5
			c0.4-0.1,0.6-0.3,0.7-0.7c0.2-0.7,0.4-1.4,0.6-2.2c0.5-2.1,1-4.2,1.9-6.2c0.4-0.7,0.9-1.3,1.7-1.6c0.3-0.1,0.7-0.2,1-0.4
			C37.8,60.2,35.4,61.1,34.8,62.4z"/>
		<path class="st3" d="M52.7,56.4c0,0.2,0.3,0.5,0.5,0.5s0.4-0.3,0.8-0.5c-0.3-0.3-0.5-0.6-0.7-0.5C53,55.9,52.7,56.2,52.7,56.4z"/>
		<path class="st3" d="M71.3,56.4c0,0.2,0.3,0.6,0.5,0.5c0.2,0,0.4-0.3,0.8-0.6c-0.4-0.3-0.6-0.5-0.8-0.5
			C71.6,55.9,71.3,56.2,71.3,56.4z"/>
		<path class="st3" d="M79.6,40.4c-3.6-5.3-8.5-8.5-14.8-9.6c-1.4-0.3-1.5-0.2-1.5,1.2c9.8,1.5,16.1,6.9,19.2,16.2
			c0-0.2,0-0.4-0.1-0.7C82,45,81.1,42.6,79.6,40.4z"/>
		<path class="st3" d="M86.4,70.2c-2.4-1.7-2.9-4.7-1.3-7.1c0.6-0.8,1.3-1.4,2.4-1.7c-0.9-0.8-2.5-0.8-3.5,0c-2.1,1.7-2.6,4.7-1,6.9
			c1,1.4,2.6,2.2,4.1,2.9c0.8,0.4,1.6,0.7,2.4,1c0-0.1,0-0.1,0.1-0.2c-0.2-0.1-0.3-0.2-0.5-0.3C88.2,71.2,87.3,70.8,86.4,70.2z"/>
		<path class="st3" d="M59.4,30.6c-4.2,0.5-8,2.2-11.2,5c-4,3.5-6.4,7.9-7.1,13.2c-0.2,1.3-0.2,1.3,1,1.3c0.7,0,0.7,0,0.8-0.7
			c0.1-0.8,0.2-1.6,0.4-2.3c1.3-5.3,4.3-9.4,8.8-12.5c2.3-1.6,4.8-2.6,7.5-3.1c0.3-0.1,0.5-0.2,0.4-0.5
			C59.9,30.6,59.7,30.6,59.4,30.6z"/>
		<path d="M84.3,59.2c-0.2,0.1-0.5,0.1-0.8,0.2c0.3-1.1,0.6-2,0.8-3c0.3-1.6,0.7-3.3,0.7-4.9c0-2.9-0.7-5.7-1.8-8.3
			c-3.4-8-9.4-13-18.1-14.3c-7.7-1.2-14.5,1.2-19.8,6.9c-5.6,5.9-7.4,13-5.8,20.9c0.2,1,0.5,2,0.8,3c-0.2-0.1-0.4-0.2-0.6-0.3
			c-2.5-1.2-5.6-0.2-6.8,2.3c-0.9,1.8-1.5,3.8-1.9,5.8c-0.4,1.6-0.6,3.3-1.5,4.8c-0.5,0.8-1,1.4-1.5,2.2c-0.4,0.5-0.3,0.7,0.3,0.8
			c0.3,0.1,0.7,0.1,1,0c4-0.6,7.8-1.8,11.1-4.2c1.8-1.3,3-3.1,2.9-5.4c0-0.1,0-0.3,0.1-0.5c0.4,0.5,0.7,0.9,1,1.3
			c0.9,0.9,1.5,2.1,2.9,2.4c0.6,0.1,1.2,0.3,1.7,0.5c0.7,0.2,1.4,0.4,2,0.6c0-0.1,0-0.1,0.1-0.2c-3.1-1.9-5.6-4.3-7.4-7.5
			c-1.8-3.2-2.8-6.5-2.9-10.3c4.9,0.7,9.3-0.4,13.3-3.2s6.5-6.6,7.6-11.3c1.2,4.8,3.6,8.7,7.6,11.6s8.5,4,13.4,3.7
			c-0.6,7-3.8,12.4-9.3,16.5c2.4-0.7,4.8-1.5,6.6-3.7c0,0.3,0.1,0.4,0.1,0.5c0.2,2.1,1.2,3.8,2.9,5.1c2.4,1.8,5.1,2.8,7.9,3.5
			c1.3,0.3,2.7,0.5,4.1,0.7c0.2,0,0.4-0.2,0.7-0.3c-0.1-0.2-0.2-0.5-0.3-0.6c-1.3-1.4-2.1-3-2.5-4.9c-0.5-2.6-1.2-5.3-2.4-7.7
			C89.3,59.5,86.8,58.5,84.3,59.2z M38.1,61.7c-0.8,0.3-1.3,0.8-1.7,1.6c-1,2-1.5,4.1-1.9,6.2c-0.2,0.7-0.4,1.4-0.6,2.2
			c-0.1,0.4-0.3,0.6-0.7,0.7c-0.5,0.1-1.1,0.3-1.8,0.5c0.2-0.6,0.4-1,0.5-1.4c0.5-2,1-4,1.6-5.9c0.3-1.1,0.8-2.2,1.3-3.2
			c0.6-1.2,3.1-2.2,4.3-1C38.8,61.5,38.4,61.6,38.1,61.7z M59.5,31.5c-2.7,0.6-5.2,1.6-7.5,3.1c-4.5,3.1-7.4,7.2-8.8,12.5
			c-0.2,0.8-0.3,1.5-0.4,2.3c-0.1,0.7-0.1,0.7-0.8,0.7c-1.2-0.1-1.2-0.1-1-1.3c0.7-5.3,3.1-9.7,7.1-13.2c3.2-2.8,7-4.4,11.2-5
			c0.3,0,0.5-0.1,0.6,0.3C60,31.3,59.8,31.4,59.5,31.5z M63.4,32C63.4,32,63.4,32.1,63.4,32C63.4,32.1,63.4,32.1,63.4,32
			C63.3,32,63.4,32,63.4,32c0-1.4,0-1.5,1.5-1.2c6.3,1.1,11.2,4.3,14.8,9.6c1.5,2.2,2.4,4.5,2.9,7.1c0,0.2,0.1,0.4,0.1,0.7
			C79.5,38.9,73.2,33.5,63.4,32z M89.6,72.2c-0.8-0.3-1.6-0.6-2.4-1c-1.5-0.7-3.1-1.5-4.1-2.9c-1.6-2.2-1.2-5.2,1-6.9
			c1-0.8,2.5-0.8,3.5,0c-1,0.3-1.8,0.8-2.4,1.7c-1.6,2.4-1.1,5.4,1.3,7.1c0.9,0.6,1.8,1.1,2.7,1.6C89.4,71.9,89.5,72,89.6,72.2
			C89.6,72.1,89.6,72.2,89.6,72.2z"/>
		<path d="M63.4,32.1L63.4,32.1L63.4,32.1L63.4,32.1z"/>
		<path d="M69.6,77.1c-2.6,0.6-4.7,1.8-6.2,4c-1,1.4-1.4,3.1-1.7,4.8c-0.1,0.5-0.3,1-0.4,1.5c-0.1,0-0.2,0-0.3,0
			c-0.1-0.3-0.2-0.5-0.3-0.8c-0.2-0.9-0.3-1.8-0.5-2.6c-0.5-1.7-1.2-3.2-2.6-4.4c-1.3-1.1-2.8-1.8-4.4-2.3c-3.6-1-7.1-2-10.7-3
			c-0.4-0.1-0.7-0.2-1.2-0.3c0.4,1.3,0.7,2.5,1.1,3.7c0.7,2.3,1.5,4.5,2.2,6.8c1.1,3.3,2.1,6.6,3.2,9.9c0.2,0.5,0.4,0.7,0.9,0.6
			c2-0.3,4,0,5.9,0.5c2.3,0.6,4.3,1.6,6.2,3.1c0.2,0.1,0.6,0.1,0.8,0c0.5-0.3,1-0.7,1.5-1c3.2-2.1,6.7-2.8,10.4-2.6
			c0.7,0,0.9-0.1,1.1-0.7c0.8-2.7,1.7-5.4,2.6-8.2c1.1-3.4,2.2-6.8,3.2-10.2c0.3-0.8,0.5-1.7,0.7-2.4c-1.6,0.7-3.1,1.5-4.8,2
			C74.3,76.1,71.9,76.6,69.6,77.1z"/>
		<path d="M62.3,78.8c-0.1,0.3-0.1,0.6-0.2,1.1c0.5-0.6,0.9-1,1.3-1.4c1.9-1.8,4-3.2,6.6-3.6c1.7-0.3,3.3-0.7,4.9-1.1
			c0.5-0.1,1.2-0.3,1.4-0.7c0.5-1,0.7-2,1.1-3.2c-0.2,0-0.3,0-0.3,0.1c-2.5,1.6-5.3,2.2-8.1,2.7C65.3,73.2,63.4,75.5,62.3,78.8z"/>
		<path d="M54.6,63.5c0,0.4,0,0.6,0,0.8c0.3,1.5,1.4,2.3,2.6,3c3.2,1.7,6.4,1.6,9.5-0.2c1.1-0.6,2-1.5,2.3-2.8c0.1-0.2,0-0.5,0.1-1
			C64.2,66.5,59.4,66.4,54.6,63.5z"/>
		<path d="M45,70.2c0.2,0.8,0.5,1.3,0.6,1.9c0.1,0.7,0.5,0.9,1.1,1.1c2.5,0.7,5.1,1.3,7.6,2.1c1.6,0.5,3.2,1.1,4.5,2.4
			c0.3,0.3,0.6,0.8,0.9,1.1c0.1,0,0.1-0.1,0.2-0.1c-0.2-0.5-0.2-1-0.5-1.4c-0.6-0.9-1.3-1.7-2.1-2.5c-1-1-2.2-1.8-3.6-2.2
			c-1.4-0.4-2.9-0.8-4.3-1.2C48,71.1,46.6,70.7,45,70.2z"/>
		<path d="M52.8,54.7c-1.2-0.1-2.3,1.1-2.4,2.3c0,1.4,1,2.5,2.4,2.5c1.3,0,2.4-1,2.4-2.4C55.2,55.8,54.2,54.7,52.8,54.7z M53.2,56.9
			c-0.2,0-0.5-0.3-0.5-0.5s0.3-0.5,0.5-0.5s0.4,0.3,0.7,0.5C53.6,56.7,53.4,56.9,53.2,56.9z"/>
		<path d="M71.1,54.7c-1.3,0-2.4,1.2-2.4,2.4c0,1.3,1.1,2.4,2.4,2.4s2.4-1,2.3-2.4C73.4,55.7,72.4,54.6,71.1,54.7z M71.8,56.9
			c-0.2,0-0.5-0.3-0.5-0.5s0.3-0.5,0.5-0.5s0.4,0.3,0.8,0.5C72.3,56.6,72,56.9,71.8,56.9z"/>
		<path d="M63,3C30.4,3,4,29.4,4,62s26.4,59,59,59s59-26.4,59-59S95.6,3,63,3z M12.4,66c-1.3,0-2.4-1.1-2.4-2.5s1.1-2.5,2.5-2.5
			s2.5,1.1,2.5,2.5C14.9,64.9,13.8,66,12.4,66z M77.1,18.3c0.5,0.6,1.4,0.5,1.7-0.1C79,18,79,17.7,79,17.5c0-0.1-0.4-0.1-0.6-0.1
			c-0.3-0.1-0.7,0-0.9-0.2c-0.2-0.2-0.2-0.6-0.2-0.9c0.3,0,0.5-0.1,0.8-0.1s0.7,0,1-0.1c0.2,0,0.3-0.2,0.4-0.4s-0.2-0.4-0.3-0.4
			c-0.4-0.1-0.8-0.2-1.2-0.2c-0.7,0-0.6-0.5-0.6-0.9c-0.1-0.5,0.3-0.4,0.6-0.4c1.3,0,2,0.6,2.3,1.7c0.2,0.6,0.1,0.9-0.5,1.8
			c0.4,0.1,0.7,0.3,1,0.3c0.2,0,0.4-0.4,0.6-0.7c0.2-0.4,0.3-0.7-0.3-1c-0.3-0.1-0.3-0.7-0.5-1.2c1.9,0.3,3.4,1.1,5,1.9
			c0.1-0.9,0.2-1.8-0.5-2.4c-0.4-0.4-0.3-0.8,0.2-1.4c0.9,0.4,1,1.3,1,2.2c0,0.5-0.1,0.9-0.1,1.4c0,0.2,0.1,0.5,0.2,0.5
			c0.8,0.3,0.6,0.9,0.6,1.5c-0.2,0-0.4-0.1-0.5-0.1c-0.8-0.3-0.7-0.3-1.1,0.5c-0.6,1.2-1.1,2.4-1.7,3.5c-0.1,0.1-0.2,0.3-0.3,0.5
			c-0.8-0.8-0.9-1-0.5-1.9s0.8-1.8,1.2-2.6c0.3-0.6,0.3-0.9-0.3-1.2c-0.8-0.5-1-0.5-1.3,0.4c-0.4,1.2-0.8,2.4-1.2,3.6
			c-0.1,0.2-0.2,0.4-0.2,0.6c-0.9-0.6-1.1-1-0.7-2c0.3-0.6,0.1-0.9-0.5-1.1h-0.1c-0.2,0.8-0.6,1.4-1.5,1.4c-1,0-1.6-0.5-2-1.4
			c-0.2-0.5-0.3-1-0.4-1.5c0-0.1,0.2-0.4,0.3-0.5c0.1,0.1,0.3,0.3,0.3,0.4C76.7,17.3,76.8,17.9,77.1,18.3z M60.7,11.8
			c4.6-0.2,9.2,0.1,13.8,1.1c0.2,0,0.4,0.1,0.6,0.1c1,0.2,1.1,0.2,1.2,1.3l-0.1,0.1c-1.2-0.1-1.2-0.1-1.4,1.1
			c-0.2,1.1-0.4,2.1-0.7,3.2c0,0.2-0.1,0.4-0.2,0.6c-0.9-0.4-1.1-0.8-0.9-1.7c0.2-1,0.4-1.9,0.6-2.9c0.2-0.9,0.2-0.9-0.7-1.1
			c-0.6-0.2-0.8,0-0.8,0.6c-0.2,1.3-0.4,2.6-0.6,3.9c0,0.2-0.1,0.4-0.2,0.7c-0.6-0.4-1.2-0.7-1.1-1.6c-0.2,0.1-0.4,0.1-0.6,0.1
			c-1.3,0.3-2.7-0.8-2.7-2.1c0-0.2-0.1-0.4-0.2-0.5c-0.6-0.3-0.6-0.3-0.8-1.1c0.2,0,0.4-0.1,0.6-0.1c0.8,0.1,1.6,0.1,2.3,0.2
			c0.8,0.1,1,0.3,1.2,1.2c-0.2,0-0.4,0-0.7,0s-0.6,0-0.7,0.1c-0.3,0.3-0.4,0.7-0.6,1.1c0.3,0,0.7,0.2,1,0.1c1.4-0.4,1.9-1.1,1.8-2.6
			c0-0.2-0.4-0.4-0.6-0.4c-1.3-0.1-2.5-0.2-3.8-0.3c-0.6-0.1-1.2-0.1-1.9-0.1c0,1.9,0,3.6,0,5.4C63.6,18,63,17.7,63,16.8
			c-0.4,0.1-0.8,0.3-1.2,0.4c-0.8,0.2-1.5-0.1-2-0.7s-0.7-1.2-0.4-2c0.4-1.1,1.8-1.5,2.9-0.9c0.2,0.1,0.4,0.3,0.7,0.4
			c0.3-1.1,0.2-1.3-0.8-1.2c-0.8,0.1-1.7,0.1-2.5,0.2c-0.8,0.1-1-0.1-1.3-1.1C59.1,11.9,59.9,11.9,60.7,11.8z M41.9,14.3
			c-0.2,0-0.5,0-0.6-0.1c-0.2-0.2-0.3-0.5-0.4-0.8c0.3-0.1,0.7-0.3,0.9-0.2c0.7,0.4,1.4,0.8,1.9,1.4c0.5,0.6,0.9,0.6,1.7,0.4
			c2.1-0.7,4.2-1.3,6.4-1.9c0.5-0.1,0.7-0.3,0.4-0.7c-0.2-0.3-0.5-0.7-0.8-1C51,11,50.6,11,50.1,11.3c-0.4,0.3-0.4,0.7-0.3,1.2
			c0.1,0.2,0.1,0.4,0.2,0.7c-0.3-0.1-0.5-0.2-0.6-0.3c-0.7-0.7-0.7-2-0.1-2.5c0.6-0.6,1.7-0.5,2.4,0.3c0.4,0.5,0.7,1.1,1.1,1.7
			c0.1,0.2,0.4,0.3,0.6,0.3c0.8-0.1,0.9,0,1.3,0.8c-0.2,0.1-0.3,0.2-0.4,0.2c-0.7,0-0.7,0.4-0.5,0.9c0.3,1.4,0.6,2.9,0.9,4.4
			c-0.9,0.1-1.4-0.2-1.5-1c-0.2-1.1-0.5-2.2-0.7-3.3c-0.1-0.4-0.3-0.6-0.7-0.5c-0.2,0.1-0.5,0.1-0.7,0.1c-1,0.3-1,0.3-0.8,1.3
			c0,0.3-0.2,0.7-0.4,0.9c-0.3,0.4-0.8,0.7-1.2,1c-0.3,0.2-0.6,0.5-0.4,0.9c0.2,0.5,0.6,0.7,1.1,0.6c0.5-0.2,1-0.5,1.4-0.8
			c0.2-0.1,0.3-0.4,0.5-0.5c1,0.5,1.1,0.9,0.2,1.6c-1,0.8-2.3,0.9-3.3,0.2c-1.3-0.8-1.3-2.4,0-3.2c0.4-0.3,1-0.4,0.7-1
			c-0.3-0.5-0.8-0.1-1.1,0c-0.7,0.2-1.4,0.5-2.1,0.7c-0.5,0.1-0.5,0.4-0.3,0.8c0.6,1.5,1.2,2.9,1.8,4.4c-0.8,0.2-1.3,0-1.8-0.8
			c-0.9,1.1-2,1.7-3.4,0.8c-0.7-0.5-1-1.4-0.7-2c0.7-1.4,1.8-1.5,3.2-1.1c0-0.1,0-0.1,0-0.2c-0.4-1.1-0.4-1.1-1.5-0.6
			c-0.7,0.3-1.4,0.7-2.1,1c-0.8,0.4-0.9,0.3-1.6-0.5c1.6-0.8,3.2-1.5,4.8-2.3C43.3,14.9,42.8,14.3,41.9,14.3z M58.6,111.1
			c-0.8-0.1-0.8-0.1-1,0.8c-0.2,1.3-0.4,2.6-0.6,3.9c0,0.1-0.1,0.3-0.1,0.4c-0.8-0.1-1.2-0.7-1.1-1.4c0.2-1.1,0.4-2.2,0.6-3.3
			c0-0.2,0-0.4,0.1-0.6c-0.5-0.1-1-0.3-1.5-0.4c-0.2,0-0.5,0.2-0.5,0.3c-0.1,0.8-0.7,1.1-1.4,1.2c-0.4,0-0.7,0.1-1.1,0.1
			c-0.4,0-0.8,0.2-0.9,0.6c-0.1,0.5,0.2,1,0.7,1.1s1.1,0.1,1.7,0c0.2,0,0.4-0.1,0.6-0.2c0.1,0.3,0.2,0.6,0.2,0.9
			c0,0.1-0.2,0.3-0.3,0.4c-1.5,0.7-3.5-0.4-3.8-2.1c-0.2-1,0.6-1.9,1.7-2c0.3,0,0.6,0.1,0.9-0.1c0.2-0.1,0.3-0.3,0.5-0.5
			c-0.2-0.1-0.3-0.3-0.5-0.4c-0.8-0.3-1.7-0.5-2.5-0.8c-0.4-0.1-0.5,0.1-0.6,0.4c-0.5,1.3-1,2.6-1.5,3.9c-0.1,0.2-0.2,0.4-0.3,0.6
			c-0.8-0.6-0.9-0.9-0.7-1.8c-0.7-0.2-1.5-0.2-2.1-0.5c-0.7-0.3-1-1-1-1.8c0-0.7,0.3-1.3,1-1.7c0.8-0.4,2.1,0.1,2.7,1.1
			c0.1,0.2,0.2,0.4,0.3,0.7c0.1-0.3,0.2-0.6,0.3-0.8c0.2-0.3,0.1-0.5-0.3-0.7c-0.8-0.4-1.6-0.8-2.4-1.1c-0.8-0.4-0.9-0.5-0.7-1.6
			c1.4,0.6,2.8,1.3,4.3,2c0-0.9,0-1.7-0.7-2.1c-0.6-0.4-0.5-0.9-0.2-1.5c0.7,0.1,1,0.6,1.2,1.2c0.1,0.6,0.2,1.3,0.3,1.9
			c0,0.5,0.2,0.8,0.7,1c1.9,0.5,3.9,1.1,5.8,1.6c0.5,0.1,0.7,0,0.6-0.6c-0.1-0.7-0.2-1.4-0.9-1.6c-0.8-0.3-1.2,0.1-1.3,0.8
			c0,0.2,0,0.4-0.1,0.8c-0.2-0.3-0.5-0.4-0.5-0.6c0-0.5,0-1.1,0.1-1.6s0.5-0.8,1.1-0.8c0.7,0,1.3,0.3,1.5,0.9
			c0.3,0.7,0.4,1.4,0.6,2.1c0.1,0.5,0.2,0.8,0.7,0.8c0.7,0.1,0.6,0.7,0.8,1.2C58.9,111,58.8,111.1,58.6,111.1z M72.6,118
			c-0.4-0.4-0.8-0.7-0.8-1c0-0.2,0.4-0.7,0.7-0.7c0.3,0,0.7,0.4,0.8,0.7C73.3,117.2,72.9,117.6,72.6,118z M75.6,113.7
			c-0.4-1.2-0.8-2.5-1.1-3.8c-0.5,0.1-1,0.2-1.4,0.3c-0.4,0.1-0.5,0.3-0.4,0.7c0.2,1.2,0.2,1.2-1,1.4c-0.2,0.1-0.5,0.1-0.7,0.2
			c-0.6,0.1-0.8,0.5-0.8,1.1c0,0.7,0.4,1.1,1.2,1.1c0-0.1,0-0.2-0.1-0.3c-0.3-1,0-1.7,0.8-1.8c0.8-0.2,1.6,0.4,1.8,1.3
			c0.2,1-0.5,1.9-1.6,2c-1.4,0.1-3-1.3-3.1-2.6c-0.1-0.9,0.4-1.6,1.3-1.8c0.2-0.1,0.4,0,0.6-0.1c0.1-0.1,0.2-0.3,0.3-0.4
			c-0.1-0.1-0.3-0.3-0.4-0.2c-0.7,0.1-1.3,0.3-2,0.4c-1.3,0.2-1.3,0.2-1.2,1.5c0.1,1.1,0.2,2.3,0.3,3.4c0,0.2,0,0.4,0,0.6
			c-1-0.2-1.5-0.8-1.4-1.9c-0.9,0.4-1.7,0.5-2.5,0c-0.5-0.3-0.8-0.7-0.8-1.3c0-0.6-0.1-1.2-0.1-1.8c-0.7,0-0.9-0.5-1.1-1.1
			c0.3,0,0.5-0.1,0.8-0.1c3.3,0,6.5-0.3,9.7-1.1c0.9-0.2,1.8-0.5,2.7-0.8c0.8-0.2,1-0.2,1.4,0.6c-0.1,0.1-0.1,0.2-0.2,0.2
			c-1.1,0.3-0.8,0.5-0.6,1.3c0.3,1.2,0.7,2.3,1.1,3.5c0.1,0.2,0.1,0.3,0.1,0.5C76.3,114.7,75.8,114.4,75.6,113.7z M86.1,108.8
			c-0.6-1-1.3-2-1.9-3.1c-0.2,0.1-0.3,0.2-0.4,0.3c-0.9,0.5-0.9,0.5-0.5,1.5c0.5,1.1,1,2.3,1.5,3.4c0.1,0.1,0.1,0.3,0.1,0.4
			c-0.9,0.2-1.4,0-1.7-0.8c-0.3-0.8-0.4-0.9-1.2-0.6c0.4,0.7,0.5,1.4-0.2,2.1c-0.6,0.5-1.2,0.7-1.9,0.5c-0.6-0.2-1.2-0.6-1.7-0.9
			c-0.2-0.1-0.2-0.4-0.3-0.6c0.2,0.1,0.5,0,0.7,0.2c0.5,0.4,1,0.7,1.5,0.5c0.4-0.2,0.8-0.5,1-0.9s-0.1-0.8-0.5-1
			c-0.3,0.2-0.5,0.5-0.7,0.7c-0.2,0.1-0.5,0.2-0.7,0.1c-0.7-0.3-0.7-0.4-0.1-1c0.2-0.2,0.5-0.4,0.7-0.7c0.1-0.1,0.1-0.4,0-0.6
			c0-0.1-0.4-0.1-0.5-0.1c-0.3,0.2-0.7,0.3-1,0.6c-0.5,0.5-0.8,0-1-0.2c-0.4-0.3,0-0.5,0.2-0.7c0.9-0.9,2.2-1,3.1-0.2
			c0.2,0.2,0.4,0.6,0.5,0.9s0.1,0.7,0.6,0.5c0.4-0.1,0.8-0.3,0.7-0.8c-0.1-0.3-0.2-0.6-0.4-0.8c-0.1-0.1-0.3-0.2-0.4-0.2
			c-0.7,0.3-0.9-0.2-1.3-0.6c1.2-0.7,2.4-1.3,3.6-2c0-0.1,0-0.1,0-0.2c-0.6-0.3-1.2-0.8-1.9-0.6s-1.1-0.1-1.5-0.6
			c0.4-0.5,1-0.6,1.5-0.4c0.7,0.3,1.3,0.7,2,1.1c0.3,0.2,0.6,0.3,0.9,0c0.6-0.4,0.9-0.3,1.5,0.4c-0.1,0-0.2,0.1-0.2,0.1
			c-0.8,0.6-0.8,0.6-0.2,1.5c0.7,1,1.3,2.1,2,3.2c0.1,0.1,0.1,0.3,0.2,0.4C86.9,109.8,86.6,109.6,86.1,108.8z M63.5,103
			C41.1,103,23,84.9,23,62.5S41.1,22,63.5,22S104,40.1,104,62.5S85.9,103,63.5,103z M112.4,67c-1.3,0-2.4-1.1-2.4-2.4
			c0-1.4,1.1-2.5,2.5-2.5s2.5,1.1,2.5,2.5C114.9,65.9,113.8,67,112.4,67z"/>
		<path d="M72.9,113.9c0,0-0.2-0.4-0.3-0.4c-0.3-0.1-0.7,0.3-0.8,0.9c0.1,0.1,0.2,0.2,0.3,0.3C72.3,114.4,72.6,114.2,72.9,113.9z"/>
		<path d="M65.6,111.3c-1.1,0-1.1,0-1.1,1.1c0,0.1,0,0.2,0,0.3l0,0c0,0.3,0,0.6,0,0.9c0,0.5,0.3,0.5,0.7,0.4c1-0.4,1.2-0.8,1.1-2
			C66.3,111.5,66.2,111.3,65.6,111.3z"/>
		<path d="M43,18.8c0,0.1,0,0.1,0,0.2c0.3,0.2,0.6,0.4,0.9,0.6c0.3,0.2,0.5,0.2,0.6-0.2c0.1-0.3,0.1-0.5,0.2-0.8
			c-0.3,0-0.5-0.1-0.8-0.1C43.5,18.6,43.2,18.8,43,18.8z"/>
		<path d="M46.6,109.1c0,0.6,0,0.9,0,1.3c0,0.1,0.2,0.3,0.3,0.3c0.3-0.1,0.6-0.2,0.8-0.3c-0.1-0.2-0.2-0.5-0.4-0.7
			C47.2,109.6,47,109.4,46.6,109.1z"/>
		<path d="M45.3,109.2c-0.2,0.2-0.5,0.4-0.5,0.7c0,0.5,0.3,0.7,1,0.8c0-0.5,0-0.9,0-1.3C45.7,109.4,45.3,109.2,45.3,109.2z"/>
		<path d="M61.3,14.4c0.3,0.5,0.5,0.8,0.7,1.1s0.4,0.3,0.6,0.1c0.2-0.2,0.3-0.4,0.5-0.6c-0.2-0.1-0.4-0.3-0.6-0.4
			C62.1,14.4,61.8,14.4,61.3,14.4z"/>
		<path d="M60.2,16c0.3,0.4,0.7,0.4,1.2,0.1c-0.3-0.5-0.5-0.9-0.9-1.4C60.2,15.2,59.9,15.6,60.2,16z"/>
		<path d="M42.4,20.8c0.4,0.3,0.8,0.1,1.2-0.3c-0.5-0.3-0.9-0.6-1.3-0.9C42,20.1,42,20.5,42.4,20.8z"/>
		<path d="M72.5,116.3c-0.3,0-0.7,0.5-0.7,0.7c0,0.3,0.5,0.6,0.8,1c0.3-0.4,0.7-0.8,0.6-1C73.2,116.7,72.8,116.3,72.5,116.3z"/>
	</g>
</g>
<g id="sukanya_x5F_samriddhi_x5F_yojana_x5F_w" class="st0">
	<g class="st1">
		<g>
			<path d="M55,116c-2.2-0.6-3.8-1.9-4.3-4.2c-0.2-0.7-0.2-1.4-0.2-2.1c0-7.4,0-14.8,0-22.1c0-0.4,0-0.8,0-1.3c-1.1,0-2.1,0-3.1,0
				c-2.8,0-4.2-1.9-3.4-4.6c2-6.9,4.1-13.9,6.1-20.8c0.3-1.1,0.3-2.3,0.4-3.4c-0.1,0-0.2,0-0.3-0.1c-0.1,0.3-0.2,0.5-0.3,0.8
				c-1.6,4.5-3.2,9.1-4.8,13.6c-0.7,1.9-2.4,3.1-4.4,3c-1.9-0.1-3.5-1.3-4-3.1c-0.4-1.2-0.2-2.3,0.2-3.5c2-5.6,3.9-11.2,5.9-16.8
				c1.4-4.1,2.9-8.2,4.3-12.4c0.8-2.3,2.2-3.5,4.6-3.5c1.3,0,2.6,0,3.8,0c5.9,0,11.8,0,17.7,0c0.4,0,0.9,0,1.3,0
				c2.3,0.1,3.8,1.3,4.5,3.5c2.9,8.5,5.9,17,8.9,25.5c0.5,1.4,1,2.7,1.4,4.1c0.8,2.6-0.3,5-2.7,5.9c-2.4,0.8-4.9-0.4-5.8-3
				c-1.6-4.4-3.1-8.9-4.7-13.3c-0.1-0.3-0.2-0.5-0.3-0.7c-0.1,0-0.2,0-0.3,0c0.1,1.1,0,2.2,0.3,3.2c2,7,4.1,14,6.1,21
				c0.8,2.7-0.6,4.6-3.5,4.6c-1,0-1.9,0-3,0c0,0.5,0,0.9,0,1.3c0,7.2-0.1,14.3,0,21.5c0.1,3.4-1,5.8-4.3,6.9c-0.7,0-1.3,0-2,0
				c-3.5-1.5-4.4-2.9-4.4-6.8c0-6.8,0-13.5,0-20.3c0-0.4,0-0.8-0.1-1.1c-0.2-0.9-0.9-1.5-1.8-1.5c-0.9,0-1.7,0.6-1.8,1.6
				c-0.1,0.4,0,0.7,0,1.1c0,7,0,14,0,21c0,0.8-0.1,1.6-0.3,2.3c-0.6,2.1-2.2,3.1-4.1,3.8C56.2,116,55.6,116,55,116z"/>
			<path d="M63.1,32c-5.3,0-9.8-4.5-9.7-9.8c0-5.3,4.5-9.7,9.8-9.7s9.7,4.4,9.7,9.7C72.9,27.6,68.5,32,63.1,32z"/>
		</g>
		<path d="M72.8,20.5c0,0,6.4-1.1,7.7,6.9c-3.4,0.4-4.2-5.9-8.4-5.9"/>
		<path d="M53.6,21c0,0-6.4-1.1-7.7,6.9c3.2,0.4,4.1-5.9,8.4-5.9"/>
	</g>
</g>
<g id="stand-up-india-2" class="st0">
	<g class="st1">
		<g>
			<path d="M24.8,110.3c0-7.2,0-14.2,0-21.4c-0.3,0-0.6,0-0.9-0.1c-1.5-0.1-2.6-1.2-2.7-2.7c-0.1-1.6-0.1-3.3,0-4.9
				c0-1.6,1.2-2.6,2.8-2.7c0.3,0,0.6,0,1,0c0-10.6,0-21.2,0-31.9c-0.9,0-1.8,0-2.6,0c-2.3,0-3.6-1.3-3.6-3.6c0-1.5,0-3,0-4.5
				c0-2.3,1.4-3.6,3.7-3.6c1.2,0,2.5,0,3.8,0c0-1.4,0.1-2.8,0-4.1c-0.2-3.5,2.2-5.6,5.5-5.5c2.7,0.1,5.3,0,8,0
				c0.6,0,0.9-0.2,1.2-0.7c1-2,2.1-3.9,3.2-5.8c0.9-1.7,2.3-2.6,4.3-2.6c10.5,0,20.9,0,31.4,0c2.1,0,3.6,1,4.6,2.8
				c1.1,1.9,2.1,3.7,3.1,5.6c0.3,0.5,0.6,0.7,1.2,0.7c2.8,0,5.5,0,8.3,0c3.3,0,5.1,1.9,5.2,5.1c0,1.4,0,2.9,0,4.4c1.3,0,2.4,0,3.6,0
				c2.5,0,3.8,1.3,3.8,3.9c0,1.5,0,2.9,0,4.4c0,2.2-1.3,3.4-3.5,3.5c-0.9,0-1.8,0-2.8,0c0,10.6,0,21.2,0,31.8c0.3,0,0.5,0.1,0.8,0.1
				c1.6,0.1,2.7,1.1,2.8,2.7c0.1,1.6,0.1,3.3,0,4.9c-0.1,1.5-1.1,2.5-2.6,2.7c-0.3,0-0.6,0.1-1,0.1c0,7.1,0,14.2,0,21.4
				c1.2,0,2.4,0,3.7,0c0.9,0,1.8,0,2.7,0.1c0.8,0.1,1.3,0.6,1.3,1.4s-0.5,1.3-1.3,1.4c-0.3,0-0.6,0-0.9,0c-29.8,0-59.7,0-89.5,0
				c-1.4,0-2.2-0.5-2.2-1.4c0-1,0.7-1.5,2.2-1.5C21.1,110.3,22.9,110.3,24.8,110.3z M100.1,78.6c0-10.6,0-21.2,0-31.8
				c-24.1,0-48.2,0-72.2,0c0,10.7,0,21.3,0,31.9c6.4,0,12.8,0,19.3,0c0-0.7,0-1.3,0-1.9c0.1-1.5,0-2.9,0.2-4.4
				c1.3-7.8,7.1-13.2,14.9-14.1c9.1-1.2,17.9,6,18.5,15.2c0.1,1.7,0,3.3,0,5.1C87.4,78.6,93.7,78.6,100.1,78.6z M77.8,78.8
				c0-2,0.2-3.9,0-5.7c-0.9-6.5-6.3-11.4-12.9-11.8c-6.3-0.5-12.3,3.7-14.2,9.9c-0.8,2.5-0.6,5-0.6,7.6c0.4,0,0.7,0,1,0
				c1.6,0.1,2.7,1.2,2.8,2.7c0,1.6,0,3.3,0,4.9c0,1.4-1.1,2.5-2.5,2.6c-0.4,0-0.8,0.1-1.2,0.1c0,7.2,0,14.2,0,21.3
				c9.3,0,18.5,0,27.7,0c0-7.1,0-14.1,0-21.2c-0.3,0-0.5,0-0.8-0.1c-1.9-0.1-3-1.1-3-3.1c0-1.5,0-2.9,0-4.4s1.1-2.6,2.6-2.8
				C77.1,78.8,77.5,78.8,77.8,78.8z M64.1,38c-1.5,0-3,0-4.5,0c-12.2,0-24.4,0-36.6,0c-1.4,0-1.4,0-1.4,1.5c0,1,0,2,0,2.9
				c0,1.5,0,1.5,1.5,1.5c27.4,0,54.7,0,82.1,0c0.2,0,0.4,0,0.6,0c0.7,0.1,0.9-0.3,0.9-0.9c0-1.2,0-2.3,0-3.5c0-1.5,0-1.5-1.4-1.5
				C91.5,38,77.8,38,64.1,38z M29.1,35c23.4,0,46.6,0,69.8,0c0-1.7,0-3.3,0-4.9c0-0.9-0.5-1.4-1.4-1.5c-0.3-0.1-0.7-0.1-1.1-0.1
				c-21.7,0-43.3,0-65,0c-0.4,0-0.8,0-1.2,0.1c-0.7,0.2-1.2,0.7-1.2,1.5C29.1,31.6,29.1,33.3,29.1,35z M47.1,110.3
				c0-7.2,0-14.2,0-21.3c-6.5,0-12.9,0-19.2,0c0,7.1,0,14.2,0,21.3C34.3,110.3,40.7,110.3,47.1,110.3z M100.3,89
				c-6.5,0-12.8,0-19.3,0c0,7.1,0,14.2,0,21.3c6.5,0,12.8,0,19.3,0C100.3,103.2,100.3,96.1,100.3,89z M43.8,25.4
				c13.6,0,26.9,0,40.5,0c-0.9-1.7-1.8-3.2-2.7-4.9c-0.5-1-1.1-1.3-2.2-1.3c-6.9,0-13.8,0-20.7,0c-3.5,0-7,0-10.4,0
				c-0.5,0-1.3,0.2-1.5,0.6C45.8,21.7,44.9,23.5,43.8,25.4z M77.1,85.8c8.9,0,17.8,0,26.6,0c0-1.4,0-2.8,0-4.1c-8.9,0-17.8,0-26.6,0
				C77.1,83.1,77.1,84.4,77.1,85.8z M24.3,81.8c0,1.4,0,2.7,0,4.1c9,0,17.9,0,26.8,0c0-1.4,0-2.7,0-4.1
				C42.1,81.8,33.2,81.8,24.3,81.8z"/>
			<path d="M37.9,50.8c3.5,0,6.3,2.7,6.3,6.3c0,3.5-2.7,6.3-6.3,6.3c-3.5,0-6.3-2.7-6.3-6.3C31.6,53.5,34.3,50.8,37.9,50.8z
				 M41.4,57c0-1.9-1.5-3.3-3.5-3.3c-1.9,0-3.3,1.5-3.3,3.4s1.5,3.3,3.3,3.3C39.9,60.4,41.4,58.9,41.4,57z"/>
			<path d="M96.5,57.1c0,3.5-2.8,6.3-6.3,6.3s-6.3-2.8-6.3-6.3s2.8-6.3,6.3-6.3C93.8,50.8,96.5,53.5,96.5,57.1z M86.8,57
				c0,1.9,1.4,3.4,3.3,3.4s3.4-1.4,3.4-3.3c0-1.9-1.4-3.3-3.3-3.4C88.3,53.7,86.8,55.1,86.8,57z"/>
		</g>
	</g>
</g>
<g id="stand-up-india" class="st0">
	<g class="st1">
		<path d="M53.4,113.1c-1,0.1-1.8,0.5-2.7,0.8c-0.5,0.2-0.5,0.6-0.6,1c-0.3,1.8-2.3,2.8-3.8,1.7c-1.7-1.2-2.8-2.7-3.3-4.8
			c-0.7-3.2-1.9-6.3-3.9-9c-1.2-1.5-1.5-3.4-1.9-5.3c-0.4-1.8-1.2-3.5-2.1-5.1c-1.1-1.9-2.2-3.9-2.3-6.1c-0.1-2-0.7-3.8-1.1-5.7
			c-0.1-0.6-0.5-1.2,0.1-1.7c0,0,0.5-0.8-0.4-0.5c-0.1,0.1-0.1-0.1-0.1-0.2c0-1.4-0.6-2.9,0.2-4.3c0.5-0.8,0.4-1.6,0-2.3
			c-0.5-1-0.5-1.8,0.5-2.7c-1.7-0.2-0.5-1.9-1.5-2.4c-0.4,0.6-0.4,1.4-0.5,2.1c-0.1,1.2-0.6,1.9-1.7,2.4s-2.2,0.9-3.4,1.1
			c-0.6,0.1-1.2-0.3-1.6-0.7c-1.7-1.6-3.1-3.5-4.5-5.4c-0.1-0.2-0.3-0.4-0.1-0.6c0.2-0.3,0.4,0.1,0.6,0.1c1.4,0.3,2.6,0,3.7-0.8
			c0.4-0.3,0.8-0.8,1.2-1.3c-2.8,1.3-5,0.6-6.7-1.7c-0.2-0.2-0.4-0.3-0.3-0.6c0.1-0.5,0-0.4-0.4-0.4c-0.5,0-0.3-0.3-0.3-0.6
			c0.1-0.4,0.2-0.7,0.7-0.6c0.3,0,0.7,0.2,0.9-0.1c0.8-1.3,2.1-0.6,3.1-0.6c0.9,0,1.6,0.2,2.5-0.2c0.4-0.2,0.8-0.3,1.2,0.1
			c0.5,0.5,1,0,1.5-0.2c0.6-0.2,0-0.5,0.1-0.8c0-1.4-0.9-2.7-1-4c0-0.3-0.3-0.4-0.6-0.4c-1-0.2-1.3-0.8-1.1-1.7
			c0.1-0.3,0.1-0.7,0.2-1c0.1-0.5,0.1-0.8-0.6-0.8c-0.6,0-1.3-0.3-1.5-1s0.2-1.2,0.6-1.6c0.6-0.6,1.2-1.2,1.7-1.9
			c0.7-0.8,1.2-0.8,1.8,0.1c0.1,0.2,0.3,0.5,0.6,0.5c1.6-0.4,3.6-0.2,4.5-2.1c0.6-1.3,2.1-1.8,2.9-3c0.4-0.6,0.9-1.2,1.2-2
			c0.1-0.5,0.4-0.8,0.9-1c0.7-0.3,1.1-0.8,1.4-1.5c0.3-0.8,0.9-1.5,1.5-2c0.9-0.6,0.4-1.4,0.5-2c0.1-1.3,0.2-1.6,1.4-2
			c0.2-0.1,0.5-0.1,0.7-0.2c0.5-0.3,0.6-0.7,0-1c-0.7-0.4-1.7-0.5-1.7-1.6c-0.9-0.1-1.6-0.7-2.5-1c-0.6-0.2-0.8-0.5-0.8-1
			C36,23.8,36,22.4,35.8,21c-0.1-0.7,0.6-0.8,0.9-1.1c0.3-0.3,0.7-0.6,1-0.9c0.2-0.2,0.4-0.5,0.1-0.8c-0.5-0.3-0.9-1.1-1.1-1.2
			c-1.1-0.3-1.5-1.5-2.8-1.6c-0.7,0-0.9-0.9-0.4-1.5s1.1-1.1,1.7-1.7c0.4-0.3,0.8-0.3,1.3-0.2c0.4,0.1,0.8,0.4,1-0.3
			c0.2-0.2,0.5,0,0.6-0.2c1.1-1,2.5-0.3,3.7-0.6c0.2-0.1,0.3,0.3,0.4,0.4c0.8,0.9,1.7,1.8,2.8,2.5c0.4,0.2,0.7,0.5,0.9,0.9
			c0.5,0.8,1,1.4,2,1.5c0.1,0,0.3,0.1,0.3,0.2c0.4,1.3,1.4,0.7,2,0.5c1.1-0.5,2.2-0.9,3.4-1.2c1.4-0.3,2.3,0.3,3.3,0.9
			c0.3,0.2,0.5,0.5,0.4,0.9c-0.3,1.3-0.7,2.5-1.8,3.4c-0.1,0.1-0.4,0.1-0.4,0.2c-0.2,0.9-0.5,1.6-1.7,1.4c0,0-0.1,0-0.2,0.1
			c-0.4,0.3-0.2,2.5,0.3,2.6c1.2,0.4,0.8,1.7,1.4,2.4c0.1,0.2-0.1,0.4-0.4,0.5c-0.3,0-0.5,0.2-0.7,0.4c-0.6,0.5-1.1,0.7-1.4-0.3
			c-0.1-0.3-0.3-0.4-0.5-0.2c-0.3,0.2-0.6,0.4-0.5,0.8c0.1,0.3,0.2,0.6,0.3,0.9c0.4,0.7,0.5,1.5,0.6,2.3c0.1,0.4-0.3,1.7,1,0.9
			c0.3-0.2,0.4,0.2,0.5,0.3c0.4,0.7,1.1,1.1,1.8,1.4c0.5,0.2,1.1,0.4,1.4,1c0.2,0.4,0.7,0.6,1.2,0.8s0.9,0.3,1.4,0.7
			c-1.8,1-2.4,2.8-2.9,4.6c-0.1,0.4,0,0.7,0.4,0.9c0.5,0.3,1,0.5,1.5,0.7c0.9,0.5,1.9,0.9,2.7,1.7c0.9,0.9,2.3,0.9,3.4,1.4
			c0.4,0.2,0.7,0.3,1,0.6c0.6,0.6,1.4,0.5,2.2,0.3c1-0.2,2-0.5,3,0.1c0.2,0.1,0.4,0.1,0.5,0.4c0.3,0.8,1.1,1.2,1.8,1.4
			c1.9,0.4,3.6,1.5,5.7,1.1c0.6-0.1,1.6,0.3,2.4,0.3c0.7,0,1.2-0.2,1-1.1c-0.2-1.5-0.1-3,0.1-4.5c0.1-0.7,0.9-0.7,1.4-0.9
			c0.4-0.1,0.7,0.4,0.7,0.9c0,0.4-0.2,0.7-0.1,1.1c0.3,2.2,1,2.8,3.7,2.4c1.7-0.2,3.3,0,5-0.5c0.5-0.1,1-0.5,1.6-0.3
			c0.1,0.1,0.2,0,0.3-0.2c0.2-0.5-0.5-2-1.1-2.3c-0.3-0.1-0.8-0.2-0.7-0.7c0-0.1,0-0.3,0.2-0.3c1.4,0.1,2.3-0.6,3.3-1.6
			c0.8-0.9,1.4-2.1,2.8-2.5c0.9-0.2,1.3-1.3,2-2c0.3-0.3,0.6-0.5,1.1-0.2c1.1,0.7,1.7,0.5,2.7-0.4c0.5-0.5,1-1,1.7-0.2
			c0.4,0.5-0.5,0.7-0.1,1.1c0.8-0.3,1.3,0.2,1.1,0.9c-0.2,0.4-0.5,0.7-0.5,1.3c0.8-0.4,1.6-0.1,2.3,0c0.9,0.1,1.3,0.9,0.7,1.5
			c-1,0.9-1,1.8,0,2.8c-0.3,0-0.4,0-0.4,0c-1.1-1-2-0.4-2.8,0.3c-0.9,0.8-1.8,1.6-2.7,2.4c-0.3,0.2-0.3,0.5-0.2,0.8
			c0.2,1.4,0.3,2.8-0.8,3.9c-0.2,0.2-0.2,0.5-0.2,0.6c0.5,1.7-0.7,2.9-0.9,4.4c-0.1,0.5-0.4,0.6-0.8,0.5c-0.6,0-1.3-0.1-2-0.2
			c0.5,1.2,0.8,2.7,0.3,3.5c-0.7,1.2-0.3,2.1-0.4,3.2c0,0.3,0,0.7-0.1,1S99.3,66.1,99,66c-0.3-0.1-0.8-0.1-0.9-0.7
			c-0.3-1.8-0.8-3.6-1.3-5.4c-0.1-0.3-0.1-0.8-0.5-0.8c-0.5,0-0.6,0.4-0.7,0.8c-0.2,0.5-0.4,1-0.3,1.6c0,0.3-0.1,0.5-0.3,0.6
			c-0.3,0.1-0.4-0.1-0.5-0.3c-0.2-0.5-0.9-0.7-1.1-1.3c-0.4-1.3-0.1-2.1,1.1-2.7c1.1-0.6,1.7-1.4,1.9-2.7c0.2-1-0.3-0.9-0.9-0.9
			c-1.5,0-3.1,0-4.6,0c-0.5,0-1-0.1-1.5-0.1c-0.8,0-1.1-0.4-1.1-1.2c0-0.5-0.2-1.1-0.3-1.6c-0.1-0.2-0.1-0.5-0.3-0.6
			c-0.3,0-0.3,0.3-0.4,0.5c-0.4,0.6-0.7,0-0.9-0.1c-0.4-0.2-0.5-0.9-1.1-0.9h-0.1v0.1c-0.3,0.5-0.7,0.4-1,0
			c-0.4-0.3-0.4-0.3-0.7,0.2c0,0,0,0-0.1,0.1c-1.1,1.8-1,2,0.9,3c0.1,0.1,0.3,0.1,0.4,0.3c0.2,0.3,0.6,0.3,0.6,0.6
			c-0.1,0.3-0.4,0.2-0.7,0.3c-0.8,0.3-1.2,1-1.8,1.6c-0.2,0.2-0.1,0.5,0.1,0.8c0.3,0.4,0.7,0.7,1.2,0.8c0.9,0.2,0.9,0.8,0.5,1.5
			c-0.3,0.4-0.3,0.8-0.1,1.2c0.7,1,1.2,2.1,1.3,3.4c0.1,0.7,0.3,1.4,0.5,2.1c0.1,0.6,0.1,1.1-0.7,1c-0.3,0-0.5,0.1-0.7,0.3
			c-0.7,0.5-1.1,0.3-1.2-0.6c-0.5,1.5-1.7,1.7-2.8,2.2c-0.9,0.4-1.4,0.9-0.9,2c0.4,1-0.3,1.8-0.8,2.5c-0.7,1-1.9,1.5-3.1,1.9
			c-0.1,0-0.3,0.1-0.4,0c-0.8-0.9-0.9,0-1.2,0.4c0.1,0.6-0.3,0.9-0.7,1.2c-0.9,0.8-1.4,2-2.2,2.8c-1.2,1.2-2.6,2.2-3.6,3.6
			c-0.4,0.7-1.4,0.8-2,1.3c-0.5,0.4-0.9,0.9-0.8,1.6c0.1,0.6-0.2,0.8-0.7,1c-0.7,0.3-1.3,0.8-2.2,0.5c-0.5-0.1-0.8,0.3-1.1,0.7
			c-0.3,0.4-0.5,0.8-0.7,1.2c-0.1,0.2-0.3,0.5-0.6,0.3c-1-0.6-1.6-0.1-2.1,0.6c-0.5,0.6-0.8,1.4-0.7,2.2c0.3,1.3-0.2,2.7,0.5,4
			c0.1,0.1,0,0.3,0.1,0.4c0.1,0.4-0.8,0-0.5,0.6c0.2,0.3,0.6,0.3,0.7,0.7c0.2,0.7,0,1.4-0.3,2c-0.3,0.7-0.5,1.5-0.9,2.1
			c-0.5,0.6-0.7,1.3-0.7,2.1c0,1.3,0,2.6,0.2,3.9c0.1,0.7-0.1,0.9-0.7,0.9c-0.4,0-1-0.2-1.3,0.3c-0.4,0.9-1.2,1.7-1.4,2.7
			c0,0.3,0.1,0.4,0.3,0.5c0,0,0.1,0.1,0.2,0.1C53.5,113,53.5,113,53.4,113.1z"/>
		<path class="st8" d="M38.2,11.6c-0.2,0.3-0.4,0.1-0.6,0.2c-0.2,0-0.2-0.1-0.2-0.3s0.2-0.1,0.3,0C37.8,11.5,38,11.6,38.2,11.6z"/>
	</g>
</g>
<g id="standby-line-of-credit-w" class="st0">
	<g class="st1">
		<rect x="110.3" y="54.1" width="8.8" height="49.9"/>
		<rect x="94.5" y="60.3" width="8.8" height="43.8"/>
		<rect x="78.8" y="71.6" width="8.8" height="32.4"/>
		<rect x="10.5" y="102.3" width="108.5" height="1.8"/>
		<path class="st5" d="M60.5,103.1H11.3c-2.3,0-4.3-1.9-4.3-4.3l0,0c0-2.3,1.9-4.3,4.3-4.3h49.2c2.3,0,4.3,1.9,4.3,4.3l0,0
			C64.8,101.2,62.8,103.1,60.5,103.1z"/>
		<path class="st5" d="M64,94.4H14.8c-2.3,0-4.3-1.9-4.3-4.3l0,0c0-2.3,1.9-4.3,4.3-4.3H64c2.3,0,4.3,1.9,4.3,4.3l0,0
			C68.3,92.5,66.3,94.4,64,94.4z"/>
		<rect x="17.1" y="86.1" class="st6" width="0.9" height="7.9"/>
		<rect x="24.1" y="86.1" class="st6" width="0.9" height="7.9"/>
		<rect x="31.1" y="86.1" class="st6" width="0.9" height="7.9"/>
		<rect x="38.1" y="86.1" class="st6" width="0.9" height="7.9"/>
		<rect x="45.1" y="86.1" class="st6" width="0.9" height="7.9"/>
		<rect x="52.9" y="86.1" class="st6" width="0.9" height="7.9"/>
		<rect x="59.9" y="86.1" class="st6" width="0.9" height="7.9"/>
		<rect x="13.6" y="94.8" class="st6" width="0.9" height="7.9"/>
		<rect x="20.6" y="94.8" class="st6" width="0.9" height="7.9"/>
		<rect x="27.6" y="94.8" class="st6" width="0.9" height="7.9"/>
		<rect x="34.6" y="94.8" class="st6" width="0.9" height="7.9"/>
		<rect x="41.6" y="94.8" class="st6" width="0.9" height="7.9"/>
		<rect x="49.4" y="94.8" class="st6" width="0.9" height="7.9"/>
		<rect x="56.4" y="94.8" class="st6" width="0.9" height="7.9"/>
		<path d="M14.4,85.6h2.5c-1.1-0.8-2.2-1.8-3.1-3c-2-2.7-2.8-5.8-2.6-9.1c0.2-4.7,2.1-8.7,5.1-12.2c1.7-2,3.3-3.9,4.9-5.9
			c0.4-0.4,0.6-1,0.9-1.5c0.1-0.1,0.3-0.3,0.5-0.3c0.5,0,1,0,1.5,0c0.6,0,0.9-0.3,0.9-0.8S24.7,52,24.1,52c-1,0-1.9,0-2.9,0
			c-0.2,0-0.4,0-0.6,0c-0.4-0.1-0.6-0.4-0.7-0.8c0-0.4,0.1-0.7,0.5-0.9c0.2-0.1,0.4-0.1,0.6-0.1c4.9,0,9.8,0,14.7,0
			c0.1,0,0.2,0,0.4,0c0,0.6,0,1.2,0,1.8c-0.2,0-0.4,0-0.6,0c-2.3,0-4.7,0-7,0c-0.2,0-0.4,0-0.6,0.1c-0.4,0.1-0.6,0.4-0.6,0.8
			c0,0.4,0.3,0.6,0.7,0.7c0.2,0,0.4,0,0.6,0c2.4,0,4.8,0,7.2,0c0.4,0,0.6,0.1,0.8,0.4c0.5,0.8,1.2,1.2,2.2,1.3
			c0.2,0,0.4,0.1,0.5,0.2c1.6,1.9,3.2,3.8,4.8,5.7c2.3,2.7,4.1,5.7,4.8,9.2c0.6,3,0.7,6-0.5,8.9c-1,2.6-2.7,4.6-4.8,6.1h2.5
			c1.5-1.4,2.7-3.1,3.6-5.1c1.2-2.7,1.3-5.6,1-8.4c-0.4-3.4-1.5-6.5-3.5-9.3c-1.5-2-3.2-3.9-4.8-5.9c-0.5-0.6-1-1.2-1.5-1.8
			c1,0.1,1.9,0.3,2.8,0.5c2.3,0.5,4.6,1.1,6.9,1.5c1.3,0.3,2.5-0.6,2.8-1.9c0.3-1.3-0.5-2.6-1.8-2.9c-1.1-0.3-2.2-0.5-3.4-0.8
			c0.7-0.2,1.3-0.4,1.8-0.6c1.3-0.5,1.8-2,1.3-3.2s-1.8-1.8-3.2-1.4c-2.2,0.6-4.5,1.3-6.7,1.9c-0.2,0-0.4,0-0.5-0.1
			c-0.2-0.2-0.4-0.5-0.6-0.7c0.7-1.6,1.5-3.1,2.2-4.7c0.5-1.2,0.9-2.5,1.3-3.8c0.2-0.6,0.3-1.3-0.3-1.8c-0.2,0-0.4,0-0.6,0
			c-1.6,0.2-3.1,0.6-4.7,0.7c-3.8,0.3-7.5,0.1-11.2-0.6c-0.1,0-0.2-0.1-0.3-0.1c-0.2,0-0.4,0-0.6,0c-0.7,0.5-0.7,0.7-0.4,1.5
			c0.4,0.8,0.6,1.6,1,2.4c-0.2,0-0.3,0.1-0.4,0.1c-2.5,0-4.9-0.2-7.2-1.3c-0.7-0.3-1.3,0.1-1.2,0.9c0.5,2.6,1.2,5,2.7,7.2
			c0.2,0.3,0.4,0.5,0.6,0.8c-1.6,0.3-2.4,1.1-2.5,2.3c-0.1,1.3,0.6,2.1,2.1,2.7c-0.3,0.4-0.5,0.9-0.9,1.3c-1.5,1.7-2.9,3.4-4.4,5.1
			C12,64,9.8,68.6,9.8,74c0,4,1.2,7.6,3.9,10.6C13.8,85.1,14.1,85.4,14.4,85.6z M43.7,49.2c1.6-0.5,3.3-0.9,4.9-1.4
			c0.6-0.2,1.1,0.1,1.2,0.6c0.1,0.5-0.1,1-0.7,1.2c-1.3,0.4-2.7,0.8-4,1.1c-0.2,0-0.3,0-0.5,0c-1.1-0.2-2.2-0.5-3.2-0.7v-0.1
			C42.1,49.7,42.9,49.5,43.7,49.2z M41.2,51.6c0.8,0.2,1.6,0.3,2.3,0.5c2.4,0.5,4.8,1.1,7.3,1.7c0.3,0.1,0.5,0.2,0.7,0.3
			c0.3,0.2,0.4,0.6,0.2,1s-0.5,0.6-0.9,0.5c-0.7-0.1-1.4-0.3-2-0.4c-2.5-0.6-5-1.2-7.5-1.7C41.2,52.8,41.2,52.3,41.2,51.6z
			 M39.6,52.9c0,0.6-0.4,0.9-0.9,0.9s-0.9-0.3-0.9-0.9c0-1.1,0-2.2,0-3.4c0-0.6,0.4-0.9,0.9-0.9s0.9,0.4,0.9,1c0,0.5,0,1.1,0,1.6
			C39.6,51.8,39.7,52.3,39.6,52.9z M42.1,38.9c-0.5,1.3-0.9,2.5-1.4,3.7c-0.6,1.4-1.3,2.8-2,4.2c-0.1,0.2-0.3,0.3-0.5,0.3
			c-0.8,0.2-1.3,0.7-1.7,1.3c-0.1,0.1-0.3,0.3-0.5,0.3c-0.6,0-1.4,0.2-1.8-0.1c-0.4-0.3-0.6-1-0.8-1.6c-0.8-1.8-1.4-3.7-1.5-5.7
			c0-0.6-0.4-0.9-1.1-0.8c-0.8,0.1-1.7,0.2-2.5,0.3c-0.1,0-0.2,0-0.4,0c-0.2-0.6-0.3-1.2-0.5-1.9C32.3,39.7,37.2,39.9,42.1,38.9z
			 M19.5,41.8c3.6,1.1,7.2,1,10.9,0.5c0.3,2.3,1.1,4.3,2.1,6.5c-0.9,0-1.7,0-2.5,0c-2.2,0-4.3,0-6.5,0c-0.2,0-0.4-0.1-0.5-0.2
			C21.3,46.9,20,44.2,19.5,41.8z"/>
		<g>
			<path d="M80.9,38.3c3.6,3.6,7.3,7.4,10.9,11.1c6.2-6.2,12.3-12.3,18.7-18.9c-1.3-1-2.8-2.3-4.4-3.6c0.1-0.2,0.3-0.4,0.4-0.6
				c3.9-0.4,7.9-0.7,12.2-1.1c-0.4,4.1-0.7,8.1-1.1,12.5c-1.7-1.6-3.1-2.9-4.7-4.4c-6.9,7-13.8,13.9-20.8,21
				c-3.9-4-7.7-7.8-11.6-11.8C72.6,50.4,65,58,57.2,65.8c-0.8-0.8-1.4-1.4-2-2C63.8,55.3,72.2,46.9,80.9,38.3z"/>
		</g>
		<g>
			<path d="M34.5,69c-0.3,1.3-1,2.3-2.2,3c-1.1,0.7-2.4,0.7-3.8,0.6c0.1,0.1,0.2,0.2,0.3,0.3c1.8,1.8,3.6,3.6,5.4,5.4
				c0.3,0.3,0.4,0.6,0.3,1c-0.2,0.6-0.9,0.8-1.4,0.5c-0.1-0.1-0.1-0.1-0.2-0.2c-2.4-2.4-4.8-4.8-7.1-7.1c-0.3-0.3-0.4-0.5-0.4-0.9
				c0.1-0.5,0.5-0.8,1-0.8c1.2,0,2.3,0,3.5,0s2.1-0.6,2.6-1.7c0-0.1,0-0.1,0.1-0.2c-0.1,0-0.2,0-0.3,0c-1.9,0-3.9,0-5.8,0
				c-0.7,0-1.2-0.6-0.9-1.3c0.1-0.4,0.5-0.6,0.9-0.6c1.7,0,3.4,0,5.1,0c0.3,0,0.7,0,1.1,0c-0.4-1-1.1-1.6-2.1-1.8
				c-0.2-0.1-0.5-0.1-0.7-0.1c-1.2,0-2.3,0-3.5,0c-0.7,0-1.1-0.6-0.9-1.3c0.2-0.4,0.5-0.6,0.9-0.6c0.6,0,1.2,0,1.8,0
				c2.4,0,4.8,0,7.2,0c0.1,0,0.3,0,0.4,0c0.5,0.1,0.8,0.5,0.7,1c0,0.5-0.4,0.8-0.9,0.8c-0.6,0-1.2,0-1.8,0c0.3,0.6,0.5,1.2,0.8,1.8
				c0.3,0,0.6,0,0.9,0c0.6,0,1,0.4,1,0.9s-0.4,0.9-1,0.9C35.1,69,34.8,69,34.5,69z"/>
		</g>
	</g>
	<g id="Layer_24" class="st1">
	</g>
</g>
<g id="sovereign_x5F_gold_x5F_bond_x5F_scheme_x5F_w" class="st0">
	<g class="st1">
		<g>
			<path d="M9.9,105.7c1.1-3.7,2.2-7.4,3.3-11.1c0.3-0.9,0.6-1.1,1.4-1.1c7.3,0,14.6,0,22,0c0.8,0,1.1,0.2,1.4,1.1
				c1,3.8,2.2,7.5,3.3,11.4c-0.3,0-0.5,0.1-0.7,0.1c-10,0-20,0-30,0c-0.2,0-0.3,0-0.5,0C9.9,105.9,9.9,105.8,9.9,105.7z"/>
			<path d="M56.3,77c1.2,4.1,2.4,8.2,3.6,12.4c-10.5,0-20.8,0-31.3,0c0.1-0.6,0.3-1.1,0.4-1.6c1-3.4,2-6.7,2.9-10.1
				c0.2-0.6,0.3-0.9,1-0.9c7.7,0,15.3,0,23,0C56,76.9,56.2,76.9,56.3,77z"/>
			<path d="M66.1,89.4c1-3.3,1.9-6.6,2.8-9.8c0.8-2.7,0.8-2.7,3.4-2.7c6.8,0,13.7,0,20.5,0c0.5,0,1-0.1,1.2,0.7
				c1,3.8,2.2,7.5,3.2,11.3c0,0.1,0,0.3,0.1,0.5C86.9,89.4,76.5,89.4,66.1,89.4z"/>
			<path d="M84.7,105.9c1.2-4,2.3-8,3.5-11.9c0.1-0.3,0.7-0.5,1-0.5c4.8,0,9.5,0,14.3,0c2.7,0,5.4,0,8.1,0c0.3,0,0.8,0.3,0.9,0.5
				c1.2,3.9,2.3,7.8,3.5,11.9C105.6,105.9,95.2,105.9,84.7,105.9z"/>
			<path d="M47.4,105.9c0.8-2.9,1.6-5.7,2.4-8.4c0.4-1.3,0.5-3.1,1.3-3.8c0.8-0.7,2.4-0.2,3.6-0.2c6.4,0,12.8,0,19.3,0
				c0.7,0,1.1,0.2,1.3,1c0.9,3.5,2,6.9,3,10.4c0.1,0.3,0.2,0.6,0.3,1C68.2,105.9,57.8,105.9,47.4,105.9z"/>
			<path d="M78.6,72.8c-10.5,0-20.8,0-31.2,0c0.1-0.3,0.1-0.6,0.2-0.9c1-3.6,2.1-7.2,3.1-10.7c0.2-0.6,0.4-0.8,1-0.8
				c7.5,0,15,0,22.6,0c0.3,0,0.8,0.2,0.9,0.5C76.3,64.8,77.4,68.7,78.6,72.8z"/>
		</g>
		<path d="M37.2,56.7L37.2,56.7c-0.6,0.4-1.4,0.3-1.8-0.2l-14.5-17c-0.4-0.5-0.3-1.2,0.3-1.6l0,0c0.6-0.4,1.4-0.3,1.9,0.2l14.5,17
			C37.9,55.6,37.8,56.3,37.2,56.7z"/>
		<path d="M51.1,49.7L51.1,49.7c-0.7,0.2-1.5,0-1.7-0.6l-9.1-19.7c-0.3-0.7,0-1.4,0.7-1.6l0,0c0.7-0.2,1.5,0,1.7,0.6l9.1,19.7
			C52.1,48.7,51.8,49.4,51.1,49.7z"/>
		<path d="M63.2,46.1L63.2,46.1c-0.7,0-1.3-0.6-1.3-1.2l-0.3-21.4c0-0.6,0.6-1.1,1.3-1.1l0,0c0.7,0,1.3,0.6,1.3,1.2L64.5,45
			C64.5,45.6,63.9,46.1,63.2,46.1z"/>
		<path d="M88.8,56.7L88.8,56.7c0.6,0.4,1.4,0.3,1.8-0.2l14.6-17c0.4-0.5,0.3-1.2-0.3-1.6l0,0c-0.6-0.4-1.4-0.3-1.8,0.2l-14.5,17
			C88.1,55.6,88.3,56.3,88.8,56.7z"/>
		<path d="M74.9,49.7L74.9,49.7c0.7,0.2,1.4,0,1.7-0.6l9.1-19.7c0.3-0.6-0.1-1.3-0.7-1.5l0,0c-0.7-0.2-1.4,0-1.7,0.6l-9.1,19.7
			C73.9,48.7,74.2,49.4,74.9,49.7z"/>
	</g>
</g>
<g id="scheme-for-financing-farmers-for-purchase-of-vehicles-two_x2C_three-wheelers1" class="st0">
	<g class="st1">
		<path d="M5.7,86.8c0-1.3,0-2.7,0-4.1c0.1-0.3,0.2-0.6,0.2-0.9c1.5-9.6,9.4-16.9,18.9-17.3c9.8-0.5,18.4,5.8,20.7,15.3
			c0.4,1.6,0.5,3.2,0.8,4.8c2.3,0,4.5,0,7,0c-0.3-2-0.4-4-0.9-5.9C49.5,67.8,42.5,61,31.6,58.3c-3.2-0.8-6.4-0.5-9.6-0.7
			c-6.6-0.4-11.5-3.5-14.5-9.4c-0.9-1.7-1.2-3.7-1.8-5.6c0-0.9,0-1.8,0-2.7c0.9-2,2.4-2.5,4.5-2.5c8.4,0.1,16.7,0,25.1,0
			c1.3,0,2.5,0.3,3.6,1c1.5,1,3.1,1.9,4.7,2.8c0.4-0.5,0.7-0.9,1-1.4c5.6-7.5,15.8-10.9,24.8-8.4C74,32.8,77.8,35,81,38.3
			c0.3,0.3,0.7,0.6,1,0.5c1.8-0.5,3.5-1,5.3-1.6c0-2.1,0-4.2,0-6.6c-2.3,0-4.5,0-6.8,0c-1.9,0-3.3-1.5-3.3-3.3s1.4-3.4,3.2-3.4
			c3.2,0.1,6.5,0,9.6,0.6c13.9,2.5,24.3,15,24.3,29.2c0,4.3-1.6,7.8-5.7,9.7c-1.4,0.7-3.1,0.9-4.7,1c-4.2,0.2-8.1,1.1-11.8,3.3
			c1.4,1.8,2.9,3.6,4.3,5.3c0.4-0.2,0.6-0.2,0.8-0.3c8.5-3.7,18.2-0.2,22.1,8.3c0.8,1.7,1.1,3.6,1.6,5.3c0,1.2,0,2.4,0,3.6
			c-0.1,0.3-0.2,0.5-0.2,0.7c-1.6,9.3-9.8,15.4-19.2,14.1c-9.3-1.3-16-10.8-14-20c0.6-2.8,1.8-5.2,3.6-7.5c-1.4-1.8-2.8-3.5-4.2-5.3
			c-0.2,0.1-0.3,0.1-0.3,0.2c-0.1,0.1-0.2,0.2-0.3,0.3c-3.8,4.3-5.6,9.3-5.8,15c-0.1,2.8-1.3,4-4.1,4c-10,0-20,0-30,0
			c-0.9,0-1.3,0.3-1.7,1.2c-3.1,7.6-10.8,12.6-19,12.4c-8.4-0.2-15.8-5.4-18.6-13.2C6.5,90.2,6.2,88.5,5.7,86.8z M73.8,84.7
			c0.1-0.2,0.1-0.3,0.1-0.3c0.1-0.4,0.1-0.8,0.2-1.2c0.8-4.9,2.6-9.4,5.7-13.3C85.9,61.9,94,58,104,57.7c2.3,0,3.6-1.4,3.5-3.6
			c-0.1-6.9-2.6-12.9-7.8-17.5C98,35.1,96.2,33.8,94,33c0,2.7,0,5.2,0,7.8c0,2.1-1.4,3.4-3.5,3.5c-0.3,0-0.7,0-1,0
			c-4.1-0.1-7.2,1.6-9.5,5c-2.9,4.4-6,8.7-8.9,13.1c-1,1.5-2.2,2.1-4,2.2c-3.9,0.2-7.2,1.7-10,4.6c-0.5,0.6-0.6,1-0.3,1.7
			c1.4,2.9,2.3,6,2.7,9.2c0.2,1.6,0.3,3.1,0.5,4.7c4.4,0,8.8,0,13.2,0C73.5,84.7,73.7,84.7,73.8,84.7z M39.4,84.7
			c0.3-6.7-5.3-12.8-12.3-13.5c-7.2-0.7-13.4,4.4-14.6,11.9c-1,6.6,3.9,13.4,10.7,14.8c5.6,1.2,13-2.2,14.1-6.5c-2.6,0-5.1,0-7.7,0
			c-5.8-0.1-10-4-10.5-9.6c-0.1-1.7,0.7-3,2.1-3.6c2.2-0.9,4.4,0.6,4.6,3.1c0.2,1.9,1.4,3.3,3.1,3.4C32.5,84.8,36,84.7,39.4,84.7z
			 M66.1,57.7C66,57.5,66,57.4,66,57.4c-0.2,0-0.4-0.1-0.7-0.1c-7.4-1-14.3-3.6-20.7-7.5c-2.8-1.7-5.6-3.4-8.5-5.1
			c-0.5-0.3-1.1-0.5-1.7-0.5c-6.8,0-13.6,0-20.4,0c-0.3,0-0.6,0-1.1,0c1.1,2.7,2.8,4.6,5.3,5.8c2.3,1.1,4.8,0.9,7.3,0.9
			c9.2,0.1,17.1,3.2,23.8,9.5c1.1,1,2.1,2.2,3.2,3.4C56.5,60.3,61,58.3,66.1,57.7z M49.6,44.7c0,0.1,0.1,0.1,0.1,0.2
			c6.3,3.7,13.1,5.6,20.4,6c0.3,0,0.7-0.2,0.8-0.4c1.7-2.4,3.4-4.9,5.1-7.4C69.3,35.2,55.7,35.5,49.6,44.7z M95.6,82.9
			c-2.6,3.6-1.8,9.5,1.6,12.6c4,3.7,9.7,3.7,13.8,0.1c3.6-3.2,4.3-9.1,1.5-13.1c-2.6-3.8-8.1-5.6-11.5-3.8c0.1,0.2,0.3,0.4,0.4,0.5
			c1.7,2.2,3.5,4.3,5.2,6.5c1.4,1.8,1.2,3.8-0.3,5c-1.6,1.3-3.5,0.9-4.9-0.8c-0.7-0.8-1.4-1.7-2-2.6C98,85.9,96.8,84.4,95.6,82.9z"
			/>
	</g>
</g>
<g id="scheme-for-financing-farmers-for-purchase-of-vehicles-four-wheelers-white" class="st0">
	<g class="st1">
		<path d="M118,91.3c-0.4,1.6-0.7,3.3-1.3,4.8c-2.7,7.5-10.2,12.6-18.3,12.6c-8.1-0.1-15.4-5.4-18-12.9c-0.2-0.5-0.3-0.9-0.4-1.4
			c-0.5-1.8-0.5-1.8-2.2-1.8c-3.9,0-7.7,0-11.7,0c0-0.4,0-0.8,0-1.2c-0.1-3.8,0.1-7.5-0.2-11.3C65,71,61,63.5,53.8,57.8
			c-7.5-5.9-16-8-25.4-6.5c-5,0.8-9.6,2.8-13.7,5.8c-0.4,0.3-0.9,0.7-1.4,1c-1.4-1.7-2.7-3.3-4.1-4.9c4.4-3.7,9.4-6.1,14.9-7.6
			c0-6.8,0-13.6,0-20.5c-2.1,0-4.2,0-6.4,0c0-2.2,0-4.2,0-6.4c17.1,0,34.2,0,51.4,0c0,2.1,0,4.2,0,6.3c-1.7,0-3.4,0-5.3,0
			c2.6,8.7,5.2,17.2,7.7,25.8c4.7,0,9.4,0,14.2,0c0-0.4,0-0.8,0-1.2c0-4.9,0-9.7,0-14.6c0-4.7,2.7-8.3,7.2-9.6
			c0.7-0.2,1.5-0.3,2.4-0.4c0,2.2,0,4.3,0,6.3c-0.7,0.4-1.6,0.6-2.1,1.1c-0.5,0.6-1,1.5-1,2.3c-0.1,5.3-0.1,10.7-0.1,16.2
			c0.5,0,1,0,1.5,0c2.7,0.1,5.5-0.1,8.1,0.5c5.6,1.2,9.6,6.3,9.7,12c0.1,3.6,0,7.2,0.1,10.8c0,0.5,0.3,1.2,0.7,1.6
			c3,3.1,4.9,6.7,5.5,10.9c0.1,0.3,0.2,0.6,0.2,0.9C118,88.8,118,90.1,118,91.3z M30.6,44.4c0.3,0,0.6,0,0.8,0
			c7.4-0.4,14.5,1,20.9,4.8c2.2,1.3,4.3,1.7,6.7,1.6c1.9-0.1,3.8,0,5.9,0C62.3,42,59.7,33.5,57.2,25c-8.9,0-17.7,0-26.6,0
			C30.6,31.5,30.6,37.9,30.6,44.4z M98.7,102.3c7.1,0,12.9-5.8,12.9-12.9s-5.8-12.8-12.8-12.8c-7.1,0-12.9,5.8-12.9,12.9
			C85.8,96.5,91.6,102.3,98.7,102.3z M105.1,71.2c0-2.5,0-4.8,0-7.2c0-4.1-2.7-6.8-6.9-6.9c-11.6,0-23.1,0-34.7,0
			c-0.3,0-0.5,0-0.9,0.1c3.1,3.6,5.5,7.4,7.1,11.7c0.3,0.8,0.7,1.1,1.6,1.1c7.9,0,15.9,0,23.8,0C98.5,70.1,101.8,70,105.1,71.2z
			 M72.1,76.6c0.2,3.2,0.3,6.4,0.5,9.6c2.2,0,4.3,0,6.5,0c0.2,0,0.6-0.4,0.7-0.7c0.7-3.1,2.1-5.9,4.1-8.4c0.1-0.1,0.2-0.3,0.3-0.5
			C80,76.6,76,76.6,72.1,76.6z"/>
		<path d="M8,80.8c0.6-2.3,0.9-4.7,1.7-6.9c4.1-11.3,16.2-18.4,28.1-16.3c10.8,1.8,18.9,9.6,21.2,20.2c3,14.1-6.8,28.4-21,30.6
			c-12.9,2-24.6-5.1-28.7-17.5C8.7,89,8.4,87,8,85.1C8,83.7,8,82.3,8,80.8z M33.8,63.6c-10.6,0-19.3,8.7-19.4,19.3
			c0,10.6,8.7,19.3,19.3,19.4c10.6,0,19.3-8.7,19.4-19.3C53.1,72.4,44.4,63.7,33.8,63.6z"/>
		<path d="M101.9,89.4c0,1.8-1.4,3.2-3.2,3.2c-1.8,0-3.2-1.4-3.2-3.2c0-1.8,1.4-3.2,3.2-3.2C100.4,86.2,101.9,87.6,101.9,89.4z"/>
		<path d="M24.1,82.8c0.2-5.3,4.6-9.6,9.8-9.5c5.4,0.1,9.7,4.7,9.5,9.9c-0.2,5.4-4.7,9.6-9.8,9.4C28.2,92.4,24,88,24.1,82.8z
			 M33.8,79.8c-1.8,0-3.2,1.5-3.2,3.2s1.5,3.2,3.2,3.2c1.8,0,3.2-1.5,3.2-3.2C37,81.2,35.5,79.7,33.8,79.8z"/>
	</g>
</g>
<g id="scheme-for-financing-farmers-for-purchase-of-land-by-small-and-marginal-farmers-white" class="st0">
	<g class="st1">
		<path d="M71.9,112.6c0.3,0.8,0.4,1.3,0.6,1.9c-0.5,0.2-0.9,0.4-1.4,0.7c-2-4.3-4-8.5-6-12.7c-6.1-13-12.2-26-18.2-39
			c-0.7-1.4-1.5-1.7-3-1.2c6.5,17.4,12.9,34.8,19.4,52.2c-0.5,0.2-1,0.4-1.5,0.6c-0.2-0.4-0.3-0.7-0.5-0.9c-6-16.2-12-32.3-18-48.5
			c-0.3-0.7-0.6-1.3-0.7-2c-0.3-1.5-1.2-2-2.9-1.4c5,17.4,10,34.8,15,52.4c-0.6,0.2-1,0.3-1.5,0.4c-0.2-0.3-0.3-0.5-0.4-0.8
			c-3.3-11.5-6.6-22.9-9.9-34.4c-1.6-5.5-3.2-10.9-4.7-16.4c-0.5-1.8-1.6-1.6-3-1.3c3.5,17.5,6.9,34.9,10.4,52.5
			c-0.6,0.1-1,0.2-1.5,0.3c-0.1-0.3-0.2-0.5-0.3-0.7C41,99,38,83.7,34.9,68.4c-0.3-1.8-0.7-3.6-1.1-5.3c-0.1-0.4-0.6-0.7-1-1.1
			c-0.2,0.1-0.3,0.2-0.5,0.3c1.9,17.4,3.8,34.9,5.8,52.5c-0.6,0.1-1,0.1-1.6,0.2c-0.4-3.8-0.9-7.6-1.3-11.3C34.1,93.7,33,83.9,32,74
			c-0.4-3.5-0.7-7-1.1-10.5c-0.1-0.8-0.1-1.8-1.7-1.3c0.5,17.4,1,34.9,1.5,52.5c-0.6,0-1.1,0-1.7,0c-0.5-17.5-1-35-1.5-52.6
			c-0.6,0-1.1,0-1.7,0c-0.1,2.1-0.3,4.2-0.4,6.3c-0.8,14.9-1.6,29.9-2.4,44.8c0,1,0,2-1.8,1.4c0.9-17.4,1.9-34.9,2.8-52.3
			c-2.8-0.8-3.1-0.6-3.4,2.1c-2.2,16.4-4.4,32.8-6.5,49.2c-0.1,1.1-0.5,1.5-1.8,1c2.3-17.4,4.6-34.8,6.9-52.5c-3.7,0-7.3,0-11.4,0
			c4.5-5.3,8.7-10.3,12.9-15.2c2.4,1.4,4.7,2.7,7,4.1c2.7-3.2,5.4-6.5,8.2-9.8c3.4,3.2,6.8,6.3,10,9.5c1.1,1.1,1.8,1.1,3,0.2
			c2.5-1.8,5.2-3.5,7.8-5.2c2,2.3,3.9,4.4,5.8,6.6c1.7-1.3,3.2-2.5,4.9-3.8c1.7,1.8,3.3,3.5,5,5.3c1.6,1.7,3.3,3.3,4.7,5.1
			c1.4,1.8,3,2,5,1.5c0-1.7,0-3.5,0-5.1c-1.4-0.6-2.8-1-4-1.8c-5-3.3-6.1-10.7-2.6-15.8C76,37,76,36,76.3,35.2c0.1-0.3-0.1-0.7,0-1
			c0.6-3.2,1.7-6.2,2.4-9.3c0.5-2.4,3.3-3.5,5.6-2.8c2.3,0.6,4,3.2,3.8,5.9c0,0.7,0.3,1.5,0.5,2.3c0.4,1.1,1.2,2.3,1.1,3.4
			c-0.1,2.2,0.7,3.9,1.6,5.8c3.3,6.6-0.4,14.4-6.6,15.6c-0.3,0.1-0.8,0.6-0.8,0.9c-0.1,1.1-0.1,2.2,0,3.3c0,0.4,0.1,0.8,0.1,1.5
			c2.2,0,4.4,0,6.6,0c0.4,0,0.9-0.6,1.2-1c3-3.6,6-7.3,9.1-11c5.6,4.5,11.2,8.9,17.1,13.6c-23.4,0-46.5,0-69.5,0c0.2,3,1.2,4,3.8,4
			c20.6,0,41.1,0,61.7,0c0.5,0,1-0.1,1.5,0c0.3,0.1,0.6,0.6,0.9,0.8c-0.3,0.3-0.5,0.6-0.8,0.7c-0.5,0.1-1,0-1.5,0
			c-20.3,0-40.7,0-61,0c-0.6,0-1.3,0-2.3,0c0.9,2,1.7,3.7,2.6,5.3c0.2,0.3,0.9,0.5,1.4,0.5c20,0,39.9,0,59.9,0c1,0,2.3-0.4,1.8,1.7
			c-20.6,0-41.2,0-62.1,0c0.9,1.9,1.6,3.6,2.5,5.3c0.2,0.4,1,0.6,1.5,0.6c3.3,0.1,6.6,0,9.9,0c15.6,0,31.1,0,46.7,0
			c0.5,0,1,0,1.6,0.1c0,0.5,0.1,0.9,0.1,1.6c-19.6,0-39,0-58.8,0c0.9,2,1.6,3.7,2.6,5.4c0.2,0.4,1.1,0.5,1.7,0.5
			c14.2,0,28.3,0,42.4,0c3.9,0,7.9,0,11.9,0c0,0.6,0.1,1,0.1,1.6c-18.4,0-36.7,0-55.2,0c0.9,1.9,1.6,3.6,2.5,5.2
			c0.3,0.4,1.2,0.6,1.8,0.6c16.2,0,32.5,0,48.7,0c0.7,0,1.3,0,2.1,0c0,0.5,0.1,1,0.1,1.6c-17.2,0-34.3,0-51.7,0
			c0.9,2,1.7,3.8,2.6,5.5c0.2,0.3,1.1,0.4,1.6,0.4c11.2,0,22.5,0,33.7,0c3.9,0,7.9,0,11.8,0c0.6,0,1.2,0,1.8,0c0,0.6,0,1,0,1.6
			c-15.9,0-31.9,0-48.1,0c0.9,2,1.7,3.7,2.6,5.4c0.2,0.4,1.1,0.5,1.7,0.5c13.9,0,27.8,0,41.8,0c0.7,0,1.3,0,2,0c0,0.6,0.1,1,0.1,1.6
			C101.6,112.6,86.9,112.6,71.9,112.6z M36.1,43.6c-2.7,3.3-5.4,6.4-8,9.6c-2.4-1.4-4.7-2.7-7-4.1c-3.1,3.7-6.2,7.4-9.5,11.3
			c21.7,0,43.1,0,64.8,0c-3.1-3.4-6-6.5-9-9.6c-1.7,1.3-3.2,2.5-4.9,3.8c-2-2.2-4-4.4-6-6.7c-3.1,2.1-6.2,4.1-9.3,6.2
			C43.6,50.6,40,47.2,36.1,43.6z M84.4,53.2c1-0.5,2.2-1,3.2-1.7c4-3.2,4.5-9.6,1.1-13.6c-0.6-0.7-0.9-1.3-0.6-2.3
			c0.4-1.8,0.1-3.5-1.1-5c-0.7-0.9-0.9-1.7-0.7-2.8c0.4-2.1-1-4.2-2.9-4.4c-2-0.2-3.6,1.4-3.7,3.7c0,0.4,0.2,0.9,0.1,1.3
			c-0.1,0.6-0.1,1.3-0.5,1.7c-1.3,1.7-1.6,3.6-1.3,5.7c0.1,0.5-0.1,1.3-0.4,1.7c-2.2,2.6-2.8,5.5-2.2,8.8c0.7,3.7,3.7,6.6,6.6,6.6
			c1.4-4.1-1.1-7-3.2-10c0.6-0.3,1-0.6,1.4-0.9c0.6,0.9,1.2,1.7,1.8,2.5c1.5-4-1.4-6.4-3.1-9.4c0.5-0.3,0.9-0.6,1.3-0.9
			c0.6,0.9,1.2,1.7,2.1,2.9c0-2,0-3.6,0-5.1c0-1.3,0.5-1.5,1.7-1c0,0.9,0,1.8,0,2.8s0,1.9,0,3.3c0.9-1.1,1.5-1.9,2.2-2.9
			c0.4,0.3,0.8,0.7,1.2,1c-1.1,1.7-2.4,3.1-3,4.7c-0.6,1.6-0.3,3.4-0.5,5.1c0.2,0,0.3,0,0.4,0.1c0.9-1,1.9-2.1,2.9-3.2
			c0.4,0.5,0.8,0.8,1.1,1.2C86,46.2,82.3,48.4,84.4,53.2z M101.2,50.7c-2.6,3.2-5.2,6.3-7.9,9.6c6.7,0,13.1,0,19.8,0
			C109,57,105.2,53.9,101.2,50.7z"/>
		<path d="M45.1,12.5c7.8,0,13.9,6.1,13.9,13.8c0,7.6-6.2,13.8-13.8,13.8c-7.7,0-14-6.1-14-13.8C31.1,18.6,37.3,12.5,45.1,12.5z
			 M57.3,26.3c0-6.8-5.4-12.2-12.2-12.2s-12.2,5.4-12.2,12c0,6.8,5.4,12.3,12.2,12.3C51.8,38.5,57.3,33.1,57.3,26.3z"/>
		<path d="M14.3,30.5c0-0.6,0-1,0-1.5c4.7,0,9.2,0,13.9,0c0,0.5,0,0.9,0,1.5C23.6,30.5,19.1,30.5,14.3,30.5z"/>
		<path d="M61.8,36.3c0-0.6,0-1.1,0-1.7c4.2,0,8.4,0,12.5,0c0.3,0,0.6,0.6,0.8,0.9c-0.3,0.3-0.6,0.7-0.8,0.7
			C70.2,36.4,66.1,36.3,61.8,36.3z"/>
		<path d="M62.2,25.7c0-0.6,0-1,0-1.5c3.4,0,6.7,0,10.1,0c0,0.5,0.1,0.9,0.1,1.5C69,25.7,65.7,25.7,62.2,25.7z"/>
		<path d="M24.8,36.6c2,0,4,0,6,0c0.3,1.1,0.2,1.7-1.1,1.6c-1.3-0.1-2.5-0.1-3.8,0C24.8,38.3,24.5,37.8,24.8,36.6z"/>
	</g>
</g>
<g id="scheme-for-financing-against-warehouse-receipts-to-farmers-white">
	<g>
		<path class="st9" d="M116,65c-4.8,0-9.7,0-14.6,0c0,15.7,0,31.2,0,46.8c-26.1,0-52.1,0-78.3,0c0-15.6,0-31.1,0-46.8
			c-4.7,0-9.2,0-14,0c0.3-0.7,0.4-1.1,0.6-1.5c3.9-8.6,7.8-17.2,11.8-25.8c0.3-0.7,1-1.4,1.7-1.8C36,29.7,48.7,23.6,61.5,17.5
			c0.6-0.3,1.6-0.3,2.2,0c12.3,5.5,24.7,11,37,16.5c0.7,0.3,1.4,1,1.7,1.8c4.3,9,8.5,18.1,12.7,27.2c0.3,0.6,0.6,1.1,0.9,1.7
			C116,64.8,116,64.9,116,65z M99.6,65.1c-25,0-49.9,0-74.8,0c0,15.1,0,30,0,45.1c5.5,0,11,0,16.6,0c0-12.1,0-24.1,0-36.2
			c13.9,0,27.7,0,41.6,0c0,12.1,0,24.1,0,36.2c5.6,0,11,0,16.6,0C99.6,95.2,99.6,80.2,99.6,65.1z M75.5,50.8c8.7,0,17.2,0,25.9,0
			c0,4.3,0,8.3,0,12.5c4,0,7.9,0,11.8,0c-0.1-0.3-0.1-0.4-0.1-0.6C109,54,105,45.2,100.9,36.5c-0.2-0.5-0.8-1-1.4-1.2
			c-11.9-5.3-23.8-10.7-35.7-16c-0.6-0.3-1.6-0.3-2.3,0c-12.5,6-24.9,12-37.3,18c-0.5,0.2-1,0.7-1.2,1.2
			c-3.6,7.9-7.2,15.8-10.8,23.8c-0.1,0.3-0.2,0.6-0.3,0.9c3.8,0,7.5,0,11.4,0c0-4.2,0-8.3,0-12.5c8.8,0,17.4,0,26.2,0
			c0-4.2,0-8.1,0-12.1c8.8,0,17.4,0,26.1,0C75.5,42.7,75.5,46.6,75.5,50.8z M51,63.2c7.7,0,15.2,0,22.7,0c0-7.8,0-15.4,0-23
			c-7.6,0-15.1,0-22.7,0C51,47.9,51,55.5,51,63.2z M49.2,52.5c-8.2,0-16.3,0-24.4,0c0,3.6,0,7.2,0,10.7c8.2,0,16.3,0,24.4,0
			C49.2,59.6,49.2,56.2,49.2,52.5z M99.6,52.5c-8.1,0-16.1,0-24.1,0c0,3.6,0,7.2,0,10.7c8.1,0,16,0,24.1,0
			C99.6,59.7,99.6,56.1,99.6,52.5z M52.2,94.2c-3,5.5-5.9,10.7-8.8,16c5.9,0,11.6,0,17.5,0C58,104.8,55.2,99.6,52.2,94.2z
			 M80.9,75.7c-6,0-11.7,0-17.6,0c3,5.4,5.8,10.6,8.8,16C75.1,86.3,77.9,81.1,80.9,75.7z M72.1,95.2c-2.8,5.2-5.5,10-8.2,15
			c5.6,0,10.9,0,16.5,0C77.6,105.1,74.9,100.3,72.1,95.2z M43.9,75.7c2.8,5.1,5.5,9.9,8.3,15c2.8-5.2,5.5-10,8.3-15
			C54.8,75.7,49.5,75.7,43.9,75.7z M81.3,79.1C81.2,79,81.1,79,81,79c-2.5,4.6-5.1,9.2-7.6,13.9c-0.2,0.4,0,1.2,0.3,1.8
			c2.2,4,4.4,8,6.6,12c0.2,0.4,0.5,0.9,1,1.6C81.3,98.2,81.3,88.7,81.3,79.1z M61.3,78.6c-0.2,0-0.3,0-0.5-0.1
			c-2.4,4.4-4.8,8.8-7.2,13.2c-0.2,0.4-0.1,1.3,0.2,1.8c2.3,4.3,4.6,8.5,6.9,12.8c0.1,0.3,0.3,0.5,0.5,0.8
			C61.3,97.5,61.3,88,61.3,78.6z M43.4,78.3c-0.1,0-0.2,0.1-0.3,0.1c0,9.4,0,18.8,0,28.4c0.2-0.2,0.4-0.3,0.5-0.4
			c2.4-4.4,4.8-8.8,7.2-13.2c0.2-0.4,0.2-1,0-1.3C48.4,87.3,45.9,82.8,43.4,78.3z M63.1,107.6c0.5-0.5,0.6-0.6,0.7-0.8
			c2.3-4.2,4.6-8.4,6.9-12.6c0.2-0.4,0.1-1.3-0.1-1.7c-1.6-3.1-3.4-6.2-5.1-9.3c-0.7-1.3-1.5-2.7-2.4-4.2
			C63.1,88.6,63.1,97.8,63.1,107.6z"/>
		<path class="st9" d="M35.8,38.8c-0.2-0.5-0.4-0.9-0.7-1.4c2.1-0.9,4-1.8,6-2.7c6.7-3,13.5-6.1,20.2-9.1c1.6-0.7,3-0.8,4.7,0.1
			c6.8,3.5,13.7,6.8,20.6,10.2c0.5,0.2,1,0.5,1.6,0.8c-0.2,0.5-0.4,0.9-0.6,1.4c-0.3-0.1-0.6-0.2-0.8-0.3c-7.2-3.5-14.5-7-21.7-10.6
			c-1-0.5-1.8-0.5-2.9-0.1C54,30.7,45.9,34.4,37.7,38C37.1,38.3,36.5,38.6,35.8,38.8z"/>
	</g>
</g>
<g id="Layer_23" class="st0">
</g>
<g id="Layer_25">
</g>
</svg>
