<?xml version="1.0" encoding="utf-8"?>
<!-- Generator: Adobe Illustrator 23.0.0, SVG Export Plug-In . SVG Version: 6.00 Build 0)  -->
<svg version="1.1" id="Layer_1" xmlns="http://www.w3.org/2000/svg" xmlns:xlink="http://www.w3.org/1999/xlink" x="0px" y="0px"
	 viewBox="0 0 128 128" style="enable-background:new 0 0 128 128;" xml:space="preserve">
<style type="text/css">
	.st0{fill:#FFFFFF;stroke:#FFFFFF;stroke-width:2;stroke-miterlimit:10;}
</style>
<g id="Layer_10">
</g>
<g id="Layer_4">
</g>
<g id="Layer_5">
	<g>
		<path class="st0" d="M10.1,114.4c0-1.3,0-2.3,0-3.6c1.7,0,3.4,0,5.4,0c0-1.4,0-2.5,0-3.6c-5.5-1-5.5-1-5.5-5.8
			c0-3.4,0-3.4,5.6-4.4c0-1,0-2,0-3.2c-1.7-0.3-4.4-0.3-4.9-1.3c-0.9-1.8-0.7-4.2-0.6-6.4c0.2-3.8,3.4-1.5,5.6-2.6
			c-1.6-6.4,2.4-9.6,7.9-10.8c1.8-0.3,4.9,1.9,6.3,3.9c1.3,1.7,1.1,4.6,1.7,7.2c1.5,0,3.3,0,5.2,0c0.6-3.1-1.1-6.6,3-8.7
			c2.8-1.4,5.1-4.3,8.5-0.5c0-8,0-15.3,0-22.7c-5.7,1.3-5.5,1.3-5.7-4.6c-0.2-3.9,1-5.8,4.7-7.2c10.6-4.1,21.1-8.7,31.5-13.2
			c1.8-0.8,3.2-0.7,4.9,0c2.8,1.4,5.8,2.5,9.1,3.9c0-2.3,0.1-4,0-5.7c-0.1-1.9,0.7-3,2.7-2.8c2.7,0,5.5,0,8.2,0
			c1.7,0,2.5,0.9,2.4,2.5c0,3.1,0.1,6.3,0,9.3c-0.1,1.9,0.7,2.7,2.4,3.4c3.1,1.1,6,2.5,9.1,3.8c1.6,0.6,2.4,1.6,2.2,3.3
			c-0.1,1.6,0,3.3,0,4.9c0,3.4-0.8,4-3.9,2.8c-0.5-0.2-1-0.3-1.9-0.7c0,1.8,0,3.4,0,5c0,4.9,0,9.9,0,14.8c0,2,0,3.9,1.5,5.8
			c1.1,1.5,0.6,4.2,0.8,6.3c1.7,0.5,4.2,0.3,4.9,1.4c0.9,1.5,0.5,3.9,0.6,5.8c0.1,4.2-3.4,2-5.5,3c0,1,0,2.2,0,3.3
			c5.7,1.3,5.7,1.3,5.5,7.2c-0.1,2.3-0.1,2.3-5.6,3.1c0,0.3-0.1,0.7-0.1,1c0,0.7,0,1.5,0,2.5c1.8,0,3.5,0,5.5,0c0,1.4,0,2.5,0,3.8
			C84.2,114.4,47.4,114.4,10.1,114.4z M57.8,83.6c0.1-0.8,0.3-1.4,0.2-1.9c-0.8-4,1.4-6.3,4.6-7.9c0.7-0.3,1.1-0.9,1.8-1.1
			c0.6-0.2,1.4-0.5,1.8-0.2c2.2,1.4,4.6,2.5,6.3,4.3c0.9,0.9,0.6,3.1,0.7,4.7c0.1,0.7,0.1,1.4,0.2,2.2c1.9,0,3.6,0,5,0
			c0.6-2.6,0.5-5.4,1.7-7.2c1.4-1.9,4.4-4.2,6.3-3.9c5.6,1,9.4,4.4,7.9,11c2.3,0,4.1,0,5.6,0c1.1-2.7-1.3-6,2.2-7.9
			c2.5-1.4,4.3-4.1,7.7-3.2c0-7.3,0.1-14.2-0.1-21.3c0-0.8-1-1.8-1.8-2.2c-8.4-3.6-17-7.2-25.4-10.7c-0.9-0.3-2.3-0.3-3.3,0
			c-8.3,3.4-16.6,6.9-24.9,10.4c-1.7,0.7-2.3,1.6-2.3,3.4c0.1,8.2,0,16.4,0,24.6c0,2.3,0,4.4,0,6.8C54.3,83.6,56,83.6,57.8,83.6z
			 M69.6,110.6c0-10.1,0-19.9,0-29.7c0-1.6-2.4-4.2-3.9-4.2c-1.4-0.1-4,2.7-4,4.3c0,8.8,0,17.4,0,26.2c0,1.1,0,2.3,0,3.4
			C64.6,110.6,66.9,110.6,69.6,110.6z M23.3,76.6c-3.3,1-4.1,3.3-4,6.5c0.3,4.1,0.1,8.2,0.1,12.3c0,5,0,10,0,15.1c2.6,0,5,0,7.7,0
			c0-1.1,0-2.2,0-3.1c0-8.1-0.1-16.3,0.1-24.4C27.3,79.9,26.6,77.6,23.3,76.6z M111.9,110.6c0-1.6,0-3,0-4.2c0-8.4,0-16.7,0-25.2
			c0-1.8-2-4.4-3.6-4.7c-1.6-0.1-4,2.6-4,4.6c0,9.2,0,18.4,0,27.5c0,0.6,0.1,1.1,0.2,1.8C106.9,110.6,109.2,110.6,111.9,110.6z
			 M90.5,110.5c0-1,0.1-1.8,0.1-2.6c0-8.4-0.1-16.7,0.1-25.2c0.1-3.3-1-5.2-4-6.3c-3,1.1-4.3,3.1-3.9,6.3c0.3,2.8,0.1,5.8,0.1,8.8
			c0,6.3,0,12.5,0,18.9C85.6,110.5,87.9,110.5,90.5,110.5z M48.4,110.5c0-9.4-0.2-18.6,0.1-27.5c0.1-3.3-0.9-5.4-3.9-6.4
			c-3.2,1-4.2,3.1-4,6.4c0.2,6.7,0.1,13.4,0.1,20.3c0,2.4,0,4.9,0,7.4C43.4,110.5,45.7,110.5,48.4,110.5z M46.7,47.9
			c0.9-0.3,1.7-0.7,2.5-1c9.8-4.1,19.6-8.3,29.5-12.3c1.4-0.6,3.4-0.6,4.9,0c4.7,1.7,9.1,3.8,13.5,5.7c6.1,2.6,12.2,5.1,18.6,7.7
			c0.1-1.9,0.5-3.4-1.8-4.4c-10.1-4.1-20.1-8.3-30.2-12.6c-1.7-0.7-3.2-0.8-4.9-0.1c-10,4.3-20.1,8.5-30.2,12.6
			C46.5,44.5,46,45.7,46.7,47.9z M102,34.3c0-2.7,0-5.5,0-8.3c-1.9,0-3.5,0-5.2,0C96,32.9,95.6,32.4,102,34.3z M36.7,97.1
			c0-1.5,0-2.5,0-3.6c-1.9,0-3.8,0-5.5,0c0,1.4,0,2.5,0,3.6C33.1,97.1,34.8,97.1,36.7,97.1z M100.3,93.4c-2,0-3.8,0-5.6,0
			c0,1.3,0,2.4,0,3.6c1.9,0,3.8,0,5.6,0C100.3,95.8,100.3,94.7,100.3,93.4z M79,97.1c0-1.3,0-2.4,0-3.6c-1.9,0-3.6,0-5.6,0
			c0,1.3,0,2.4,0,3.6C75.4,97.1,77.1,97.1,79,97.1z M31.1,110.5c2,0,3.8,0,5.7,0c0-1.3,0-2.4,0-3.5c-2,0-3.8,0-5.7,0
			C31.1,108.2,31.1,109.3,31.1,110.5z M100.3,107c-1.9,0-3.8,0-5.6,0c0,1.4,0,2.4,0,3.5c2,0,3.8,0,5.6,0
			C100.3,109.3,100.3,108.1,100.3,107z M57.8,93.4c-2,0-3.8,0-5.5,0c0,1.4,0,2.5,0,3.6c1.9,0,3.5,0,5.5,0
			C57.8,95.8,57.8,94.7,57.8,93.4z M58,107c-1.9,0-3.8,0-5.5,0c0,1.4,0,2.4,0,3.5c1.9,0,3.6,0,5.5,0C58,109.4,58,108.2,58,107z
			 M73.5,107c0,1.4,0,2.5,0,3.6c1.9,0,3.6,0,5.5,0c0-1.3,0-2.4,0-3.6C77.1,107,75.4,107,73.5,107z M34,100.9L34,100.9
			c-0.5,0-0.9-0.1-1.4,0c-0.6,0.2-1.1,0.7-1.7,1c0.6,0.3,1.1,0.8,1.8,0.9c0.9,0.1,1.8,0.1,2.6,0c0.5-0.1,0.9-0.6,1.4-0.9
			c-0.5-0.3-0.9-0.8-1.5-1C35.1,100.8,34.5,100.9,34,100.9z M97.6,100.9c-0.5,0-0.9-0.1-1.4,0c-0.7,0.2-1.1,0.7-1.8,1
			c0.6,0.3,1.3,0.8,1.8,0.9c0.9,0.1,1.8,0.1,2.7,0c0.5-0.1,0.9-0.6,1.4-0.9c-0.3-0.3-0.7-0.9-1.1-1.1
			C98.7,100.8,98.1,100.9,97.6,100.9z M55.3,100.9c-0.1-0.1-0.1-0.3-0.2-0.5c-0.9,0.6-1.9,1-2.8,1.6c1,0.3,1.9,0.7,3,0.9
			c0.5,0.1,0.9,0.1,1.4,0c0.6-0.2,1-0.7,1.5-1c-0.5-0.3-0.9-0.7-1.4-0.9C56.2,100.8,55.8,100.9,55.3,100.9z M76.3,103L76.3,103
			c0.3,0,0.8,0.1,1,0c0.7-0.2,1.3-0.7,1.8-1c-0.6-0.3-1.1-0.9-1.8-1c-0.9-0.2-2-0.1-3,0c-0.3,0.1-0.9,0.7-0.9,1s0.6,0.9,0.9,0.9
			C74.9,103.1,75.6,103,76.3,103z M33.7,89.4c0.1,0.2,0.1,0.3,0.2,0.5c0.9-0.5,1.9-1,2.8-1.5c-1-0.3-2-0.7-3.1-0.9
			c-0.6-0.1-1.3-0.1-1.8,0c-0.3,0.1-0.8,0.7-0.9,1c0,0.2,0.5,0.7,0.8,0.8C32.5,89.6,33.1,89.4,33.7,89.4z M55.2,89.4
			c0,0.1,0.1,0.2,0.1,0.3c0.9-0.3,1.8-0.8,2.7-1.1c-0.9-0.3-1.8-0.8-2.8-1.1c-0.6-0.1-1.3-0.1-1.9,0c-0.3,0.1-0.7,0.6-1,0.9
			c0.3,0.3,0.7,0.8,1,0.9C54,89.6,54.5,89.4,55.2,89.4z M76.1,89.4L76.1,89.4c0.3,0,0.8,0.1,1,0c0.7-0.2,1.3-0.6,1.9-0.9
			c-0.7-0.3-1.4-0.9-2-1c-0.7-0.2-1.5-0.1-2.2,0c-0.6,0.1-1,0.7-1.5,1c0.5,0.3,0.9,0.7,1.4,0.9C75.1,89.6,75.6,89.4,76.1,89.4z
			 M97.3,89.4c0,0.1,0.1,0.2,0.1,0.3c0.9-0.5,1.8-0.9,2.8-1.4c-0.9-0.3-1.9-0.7-2.8-1c-0.2-0.1-0.6-0.1-0.8,0
			c-0.8,0.2-1.5,0.6-2.2,0.9c0.7,0.3,1.4,0.7,2,0.9C96.8,89.6,97.1,89.4,97.3,89.4z"/>
		<path class="st0" d="M121.2,118.5c0,1.4,0,2.3,0,3.5c-37,0-74,0-111.1,0c0-1.1,0-2.2,0-3.5C47.1,118.5,84.1,118.5,121.2,118.5z"/>
		<path class="st0" d="M38.6,25.9c0,6.5-5.1,11.6-11.6,11.6c-6.1,0-11.3-5.1-11.4-11.3c-0.1-6.4,5.2-11.7,11.5-11.7
			C33.5,14.4,38.6,19.5,38.6,25.9z M34.8,25.8c0-4.2-3.5-7.5-7.7-7.5s-7.7,3.6-7.7,7.9c0.1,4.2,3.5,7.6,7.7,7.5
			C31.5,33.7,35,30.1,34.8,25.8z"/>
		<path class="st0" d="M25.6,6.8c1.1,0,2.2,0,3.3,0c0,1.3,0,2.4,0,3.6c-1.1,0-2.3,0-3.3,0C25.6,9.2,25.6,8.1,25.6,6.8z"/>
		<path class="st0" d="M36.8,13.6c1-0.9,1.8-1.7,2.8-2.6c0.8,0.8,1.6,1.6,2.7,2.7c-1.1,0.8-2,1.5-3.2,2.4
			C38.5,15.6,37.8,14.8,36.8,13.6z"/>
		<path class="st0" d="M11.6,27.7c-1.3,0-2.4,0-3.5,0c0-1.1,0-2.3,0-3.4c1.1,0,2.3,0,3.5,0C11.6,25.5,11.6,26.5,11.6,27.7z"/>
		<path class="st0" d="M17.3,38.7c-0.7,0.6-1.4,1.3-2.4,2.2c-0.8-0.8-1.7-1.5-2.5-2.3c0.9-0.9,1.6-1.7,2.7-2.8
			C15.8,36.5,16.5,37.5,17.3,38.7z"/>
		<path class="st0" d="M46.2,24.1c0,1.4,0,2.4,0,3.4c-3.6,0.8-3.8,0.6-3.4-3.2C43.8,24.2,44.9,24.2,46.2,24.1z"/>
		<path class="st0" d="M25.5,41.5c1.3,0,2.2,0,3.3,0c0,1.1,0,2.2,0,3.4c-1.1,0-2.2,0-3.3,0C25.5,43.9,25.5,42.9,25.5,41.5z"/>
		<path class="st0" d="M15,11c0.9,0.9,1.7,1.7,2.6,2.6c-0.9,0.9-1.7,1.7-2.6,2.7c-0.9-0.9-1.7-1.6-2.7-2.5
			C13.2,12.9,13.9,12.2,15,11z"/>
		<path class="st0" d="M39.6,40.7c-1-0.9-1.8-1.7-2.8-2.6c0.9-0.9,1.7-1.6,2.6-2.5c0.8,0.9,1.6,1.7,2.6,2.8
			C41.2,39.2,40.5,39.9,39.6,40.7z"/>
		<path class="st0" d="M98.2,64.4c-1.6,0-3.3,0-4.9,0c-1.8,0-2.6-0.9-2.6-2.6c0-2.7,0-5.5,0-8.2c0-1.6,0.7-2.6,2.5-2.5
			c3.4,0,6.9,0,10.4,0c1.7,0,2.5,0.8,2.5,2.5c0,2.7-0.1,5.5,0,8.2c0.1,1.8-0.8,2.6-2.6,2.6C101.7,64.3,100,64.4,98.2,64.4L98.2,64.4
			z M94.7,55c0,1.8,0,3.6,0,5.6c2.5,0,4.9,0,7.3,0c0-1.9,0-3.8,0-5.6C99.5,55,97.2,55,94.7,55z"/>
		<path class="st0" d="M63.9,51.1c8.8,0,7.5-1,7.6,7.7c0,5.7,0,5.7-5.7,5.6c-2.4,0-4.8-0.1-7.2,0c-1.7,0-2.6-0.7-2.5-2.4
			c0-2.8,0-5.7,0-8.5c0-1.7,0.8-2.5,2.5-2.4C60.3,51.1,62,51.1,63.9,51.1z M67.4,60.5c0-2,0-3.9,0-5.6c-2.5,0-4.9,0-7.3,0
			c0,1.9,0,3.6,0,5.6C62.6,60.5,64.9,60.5,67.4,60.5z"/>
	</g>
</g>
</svg>
