<?xml version="1.0" encoding="utf-8"?>
<!-- Generator: Adobe Illustrator 23.0.0, SVG Export Plug-In . SVG Version: 6.00 Build 0)  -->
<svg version="1.1" id="Layer_1" xmlns="http://www.w3.org/2000/svg" xmlns:xlink="http://www.w3.org/1999/xlink" x="0px" y="0px"
	 viewBox="0 0 128 128" style="enable-background:new 0 0 128 128;" xml:space="preserve">
<style type="text/css">
	.st0{fill:#FFFFFF;stroke:#FFFFFF;stroke-width:3;stroke-miterlimit:10;}
</style>
<g id="Layer_10">
</g>
<g id="Layer_4">
</g>
<g id="Layer_3">
	<g>
		<path class="st0" d="M63.5,117.8c-15.7,0-31.4,0-47.1,0c-3.7,0-3.6-0.2-3.9-4c-1.1-17.2,12.6-33.9,31.2-36.7c3-0.4,5.3-0.2,7.3,3
			c6,9.7,19.8,9.4,25.7-0.3c1.5-2.4,3.2-3.1,5.9-2.8c18.9,1.9,33.3,18.7,32.4,37.7c-0.1,2.3-0.9,3.2-3.3,3.1
			C95.7,117.8,79.6,117.8,63.5,117.8z M109.9,112.9c0.1-0.7,0.1-1.1,0.1-1.5c-0.3-14.5-12.2-27.6-26.6-29.3
			c-1.4-0.2-2.1,0.3-2.8,1.5c-3.8,6.7-7.7,13.4-11.6,20c-1.1,1.8-2.2,3.7-3.5,5.4c-1.1,1.5-2.5,1.4-3.7,0c-0.7-0.8-1.2-1.7-1.8-2.5
			c-4.4-7.5-8.8-14.9-13-22.4c-0.9-1.5-1.8-2.3-3.6-1.9c-12.7,2-22.6,11.3-25.4,23.9c-0.5,2.2-0.6,4.5-0.8,6.8
			C48.4,112.9,79.1,112.9,109.9,112.9z M57.3,91.8c2.1,3.5,4.2,7.1,6.5,11c2.3-4,4.4-7.5,6.4-11C65.7,91.8,61.6,91.8,57.3,91.8z"/>
		<path class="st0" d="M63.8,77c-11,0.4-22.5-10.5-23-21.3c0-1-0.2-2.1-0.2-3.1c0.2-2.7-0.2-4.9-2.8-6.8c-2.8-2-2.9-5.7-1.4-8.7
			c0.9-1.8,1.6-3.8,2-5.7c2-11.9,13.2-21.6,25.1-21.5c12.6,0.1,23.8,9.7,25.6,21.8c0.3,1.8,0.9,3.6,1.8,5.2c1.8,3.4,1.3,7.2-1.9,9.4
			c-1.9,1.4-2.2,2.9-2.1,5c0.2,11.1-4.7,19.1-14.9,23.6C69.4,76.2,66.5,76.4,63.8,77z M81.7,48.7c-12.1,0-24,0-35.9,0
			c-0.5,8,0.6,15.3,7.9,20c6.3,4.1,13.1,4.2,19.5,0.4C80.8,64.6,82.4,57.1,81.7,48.7z M43.2,33c13.8,0,27.3,0,41,0
			c-1.3-6.5-3.9-11.7-10.2-15.1c0,1.6,0.1,2.8,0,4c-0.1,1.7-0.6,3.4-2.7,3.3c-2-0.1-2.3-1.6-2.4-3.3c-0.4-7.2-0.4-7.2-7.7-6.7
			c-0.1,0-0.2,0-0.3,0c-1.6,0-2.4,0.6-2.3,2.3c0.1,1.5,0,2.9,0,4.4c0,1.8-0.6,3.4-2.7,3.4c-1.9,0-2.5-1.6-2.5-3.3c0-1.2,0-2.5,0-4.3
			C47.3,21.5,44.4,26.5,43.2,33z M63.8,43.2L63.8,43.2c6.9,0,13.7,0,20.6,0c1.4,0,2.5-0.5,2.5-2.2c-0.1-1.6-0.8-2.6-2.5-2.6
			c-13.7,0-27.5,0-41.2,0c-1.8,0-2.5,1-2.6,2.8c0,1.9,1.4,2,2.7,2C50.1,43.2,57,43.2,63.8,43.2z"/>
	</g>
</g>
</svg>
