<?xml version="1.0" encoding="utf-8"?>
<!-- Generator: Adobe Illustrator 23.0.0, SVG Export Plug-In . SVG Version: 6.00 Build 0)  -->
<svg version="1.1" id="Layer_1" xmlns="http://www.w3.org/2000/svg" xmlns:xlink="http://www.w3.org/1999/xlink" x="0px" y="0px"
	 viewBox="0 0 128 128" style="enable-background:new 0 0 128 128;" xml:space="preserve">
<style type="text/css">
	.st0{fill:#FFFFFF;stroke:#FFFFFF;stroke-width:3.4566;stroke-miterlimit:10;}
</style>
<g id="Layer_9">
</g>
<g id="Layer_14">
</g>
<g id="scheme-for-financing-farmers-for-purchase-of-vehicles-two_x2C_three-wheelers1">
	<g>
		<path class="st0" d="M2.7,87.9c0-1.4,0-2.8,0-4.3C2.8,83.3,3,83,3,82.7c1.6-10.1,9.9-17.8,19.9-18.2c10.3-0.5,19.3,6.1,21.8,16.1
			c0.4,1.7,0.5,3.4,0.8,5c2.4,0,4.7,0,7.4,0c-0.3-2.1-0.4-4.2-0.9-6.2C48.8,68,41.4,60.8,30,58c-3.4-0.8-6.7-0.5-10.1-0.7
			C13,56.9,7.8,53.6,4.7,47.4c-0.9-1.8-1.3-3.9-1.9-5.9c0-0.9,0-1.9,0-2.8C3.7,36.5,5.3,36,7.5,36c8.8,0.1,17.6,0,26.4,0
			c1.4,0,2.6,0.3,3.8,1.1c1.6,1.1,3.3,2,4.9,2.9c0.4-0.5,0.7-0.9,1.1-1.5c5.9-7.9,16.6-11.5,26.1-8.8c4.8,1.5,8.8,3.8,12.2,7.3
			c0.3,0.3,0.7,0.6,1.1,0.5c1.9-0.5,3.7-1.1,5.6-1.7c0-2.2,0-4.4,0-6.9c-2.4,0-4.7,0-7.1,0c-2,0-3.5-1.6-3.5-3.5s1.5-3.6,3.4-3.6
			c3.4,0.1,6.8,0,10.1,0.6c14.6,2.6,25.5,15.8,25.5,30.7c0,4.5-1.7,8.2-6,10.2c-1.5,0.7-3.3,0.9-4.9,1.1c-4.4,0.2-8.5,1.2-12.4,3.5
			c1.5,1.9,3,3.8,4.5,5.6c0.4-0.2,0.6-0.2,0.8-0.3c8.9-3.9,19.1-0.2,23.2,8.7c0.8,1.8,1.2,3.8,1.7,5.6c0,1.3,0,2.5,0,3.8
			c-0.1,0.3-0.2,0.5-0.2,0.7c-1.7,9.8-10.3,16.2-20.2,14.8c-9.8-1.4-16.8-11.4-14.7-21c0.6-2.9,1.9-5.5,3.8-7.9
			c-1.5-1.9-2.9-3.7-4.4-5.6c-0.2,0.1-0.3,0.1-0.3,0.2c-0.1,0.1-0.2,0.2-0.3,0.3c-4,4.5-5.9,9.8-6.1,15.8c-0.1,2.9-1.4,4.2-4.3,4.2
			c-10.5,0-21,0-31.5,0c-0.9,0-1.4,0.3-1.8,1.3c-3.3,8-11.4,13.2-20,13c-8.8-0.2-16.6-5.7-19.6-13.9C3.6,91.5,3.3,89.7,2.7,87.9z
			 M74.3,85.7c0.1-0.2,0.1-0.3,0.1-0.3c0.1-0.4,0.1-0.8,0.2-1.3c0.8-5.2,2.7-9.9,6-14C87,61.7,95.5,57.6,106,57.3
			c2.4,0,3.8-1.5,3.7-3.8c-0.1-7.3-2.7-13.6-8.2-18.4c-1.8-1.6-3.7-2.9-6-3.8c0,2.8,0,5.5,0,8.2c0,2.2-1.5,3.6-3.7,3.7
			c-0.3,0-0.7,0-1.1,0c-4.3-0.1-7.6,1.7-10,5.3c-3,4.6-6.3,9.1-9.4,13.8c-1.1,1.6-2.3,2.2-4.2,2.3c-4.1,0.2-7.6,1.8-10.5,4.8
			c-0.5,0.6-0.6,1.1-0.3,1.8c1.5,3,2.4,6.3,2.8,9.7c0.2,1.7,0.3,3.3,0.5,4.9c4.6,0,9.3,0,13.9,0C74,85.7,74.2,85.7,74.3,85.7z
			 M38.2,85.7c0.3-7-5.6-13.5-12.9-14.2C17.7,70.8,11.2,76.1,10,84c-1.2,7,4,14.1,11.1,15.6c5.9,1.3,13.7-2.3,14.8-6.8
			c-2.7,0-5.4,0-8.1,0c-6.1-0.1-10.5-4.2-11-10.1c-0.1-1.8,0.7-3.2,2.2-3.8c2.3-0.9,4.6,0.6,4.8,3.3c0.2,2,1.5,3.5,3.3,3.6
			C30.9,85.8,34.6,85.7,38.2,85.7z M66.2,57.4c-0.1-0.2-0.1-0.3-0.1-0.3c-0.2,0-0.4-0.1-0.7-0.1c-7.8-1.1-15-3.8-21.8-7.9
			c-2.9-1.8-5.9-3.6-8.9-5.4c-0.5-0.3-1.2-0.5-1.8-0.5c-7.1,0-14.3,0-21.4,0c-0.3,0-0.6,0-1.2,0c1.2,2.8,2.9,4.8,5.6,6.1
			c2.4,1.2,5,0.9,7.7,0.9c9.7,0.1,18,3.4,25,10c1.2,1.1,2.2,2.3,3.4,3.6C56.2,60.1,60.9,58,66.2,57.4z M48.9,43.7
			c0,0.1,0.1,0.1,0.1,0.2c6.6,3.9,13.8,5.9,21.4,6.3c0.3,0,0.7-0.2,0.8-0.4c1.8-2.5,3.6-5.2,5.4-7.8C69.6,33.7,55.3,34,48.9,43.7z
			 M97.3,83.8c-2.7,3.8-1.9,10,1.7,13.2c4.2,3.9,10.2,3.9,14.5,0.1c3.8-3.4,4.5-9.6,1.6-13.8c-2.7-4-8.5-5.9-12.1-4
			c0.1,0.2,0.3,0.4,0.4,0.5c1.8,2.3,3.7,4.5,5.5,6.8c1.5,1.9,1.3,4-0.3,5.3c-1.7,1.4-3.7,0.9-5.2-0.8c-0.7-0.8-1.5-1.8-2.1-2.7
			C99.8,87,98.5,85.4,97.3,83.8z"/>
	</g>
</g>
<g id="Layer_25">
</g>
</svg>
