<?xml version="1.0" encoding="utf-8"?>
<!-- Generator: Adobe Illustrator 23.0.0, SVG Export Plug-In . SVG Version: 6.00 Build 0)  -->
<svg version="1.1" id="Layer_1" xmlns="http://www.w3.org/2000/svg" xmlns:xlink="http://www.w3.org/1999/xlink" x="0px" y="0px"
	 viewBox="0 0 128 128" style="enable-background:new 0 0 128 128;" xml:space="preserve">
<style type="text/css">
	.st0{fill:#FFFFFF;stroke:#FFFFFF;stroke-width:3;stroke-miterlimit:10;}
</style>
<g id="Layer_9">
</g>
<g id="Layer_14">
</g>
<g id="sovereign_x5F_gold_x5F_bond_x5F_scheme_x5F_w">
	<g>
		<g>
			<path class="st0" d="M3.3,110.8c1.2-4.2,2.5-8.3,3.7-12.5c0.3-1,0.7-1.2,1.6-1.2c8.2,0,16.4,0,24.7,0c0.9,0,1.2,0.2,1.6,1.2
				c1.1,4.3,2.5,8.4,3.7,12.8c-0.3,0-0.6,0.1-0.8,0.1c-11.2,0-22.5,0-33.7,0c-0.2,0-0.3,0-0.6,0C3.3,111.1,3.3,110.9,3.3,110.8z"/>
			<path class="st0" d="M55.5,78.6c1.3,4.6,2.7,9.2,4,13.9c-11.8,0-23.4,0-35.2,0c0.1-0.7,0.3-1.2,0.4-1.8c1.1-3.8,2.2-7.5,3.3-11.4
				c0.2-0.7,0.3-1,1.1-1c8.7,0,17.2,0,25.8,0C55.1,78.5,55.4,78.5,55.5,78.6z"/>
			<path class="st0" d="M66.5,92.5c1.1-3.7,2.1-7.4,3.1-11c0.9-3,0.9-3,3.8-3c7.6,0,15.4,0,23,0c0.6,0,1.1-0.1,1.3,0.8
				c1.1,4.3,2.5,8.4,3.6,12.7c0,0.1,0,0.3,0.1,0.6C89.9,92.5,78.2,92.5,66.5,92.5z"/>
			<path class="st0" d="M87.4,111.1c1.3-4.5,2.6-9,3.9-13.4c0.1-0.3,0.8-0.6,1.1-0.6c5.4,0,10.7,0,16.1,0c3,0,6.1,0,9.1,0
				c0.3,0,0.9,0.3,1,0.6c1.3,4.4,2.6,8.8,3.9,13.4C110.9,111.1,99.2,111.1,87.4,111.1z"/>
			<path class="st0" d="M45.5,111.1c0.9-3.3,1.8-6.4,2.7-9.4c0.4-1.5,0.6-3.5,1.5-4.3s2.7-0.2,4-0.2c7.2,0,14.4,0,21.7,0
				c0.8,0,1.2,0.2,1.5,1.1c1,3.9,2.2,7.8,3.4,11.7c0.1,0.3,0.2,0.7,0.3,1.1C68.9,111.1,57.2,111.1,45.5,111.1z"/>
			<path class="st0" d="M80.5,73.9c-11.8,0-23.4,0-35.1,0c0.1-0.3,0.1-0.7,0.2-1c1.1-4,2.4-8.1,3.5-12c0.2-0.7,0.4-0.9,1.1-0.9
				c8.4,0,16.9,0,25.4,0c0.3,0,0.9,0.2,1,0.6C78,64.9,79.2,69.3,80.5,73.9z"/>
		</g>
		<path class="st0" d="M34,55.8L34,55.8c-0.7,0.4-1.6,0.3-2-0.2L15.7,36.4c-0.4-0.6-0.3-1.3,0.3-1.8l0,0c0.7-0.4,1.6-0.3,2.1,0.2
			L34.5,54C34.8,54.5,34.7,55.3,34,55.8z"/>
		<path class="st0" d="M49.6,47.9L49.6,47.9c-0.8,0.2-1.7,0-1.9-0.7L37.5,25.1c-0.3-0.8,0-1.6,0.8-1.8l0,0c0.8-0.2,1.7,0,1.9,0.7
			l10.2,22.1C50.8,46.8,50.4,47.6,49.6,47.9z"/>
		<path class="st0" d="M63.2,43.9L63.2,43.9c-0.8,0-1.5-0.7-1.5-1.3l-0.3-24.1c0-0.7,0.7-1.2,1.5-1.2l0,0c0.8,0,1.5,0.7,1.5,1.3
			l0.3,24.1C64.7,43.3,64,43.9,63.2,43.9z"/>
		<path class="st0" d="M92,55.8L92,55.8c0.7,0.4,1.6,0.3,2-0.2l16.4-19.1c0.4-0.6,0.3-1.3-0.3-1.8l0,0c-0.7-0.4-1.6-0.3-2,0.2
			L91.8,54C91.2,54.5,91.4,55.3,92,55.8z"/>
		<path class="st0" d="M76.4,47.9L76.4,47.9c0.8,0.2,1.6,0,1.9-0.7l10.2-22.1c0.3-0.7-0.1-1.5-0.8-1.7l0,0c-0.8-0.2-1.6,0-1.9,0.7
			L75.6,46.2C75.3,46.8,75.6,47.6,76.4,47.9z"/>
	</g>
</g>
<g id="Layer_25">
</g>
</svg>
