<?xml version="1.0" encoding="utf-8"?>
<!-- Generator: Adobe Illustrator 23.0.0, SVG Export Plug-In . SVG Version: 6.00 Build 0)  -->
<svg version="1.1" id="Layer_1" xmlns="http://www.w3.org/2000/svg" xmlns:xlink="http://www.w3.org/1999/xlink" x="0px" y="0px"
	 viewBox="0 0 128 128" style="enable-background:new 0 0 128 128;" xml:space="preserve">
<style type="text/css">
	.st0{fill:#FFFFFF;stroke:#FFFFFF;stroke-width:3;stroke-miterlimit:10;}
	.st1{fill:#FFFFFF;stroke:#FFFFFF;stroke-miterlimit:10;}
</style>
<g id="Layer_9">
</g>
<g id="Layer_14">
</g>
<g id="standby-line-of-credit-w">
	<g>
		<rect x="110.3" y="54.1" class="st0" width="8.8" height="49.9"/>
		<rect x="94.5" y="60.3" class="st0" width="8.8" height="43.8"/>
		<rect x="78.8" y="71.6" class="st0" width="8.8" height="32.4"/>
		<rect x="10.5" y="102.3" class="st0" width="108.5" height="1.8"/>
		<path class="st0" d="M14.4,85.6h2.5c-1.1-0.8-2.2-1.8-3.1-3c-2-2.7-2.8-5.8-2.6-9.1c0.2-4.7,2.1-8.7,5.1-12.2
			c1.7-2,3.3-3.9,4.9-5.9c0.4-0.4,0.6-1,0.9-1.5c0.1-0.1,0.3-0.3,0.5-0.3c0.5,0,1,0,1.5,0c0.6,0,0.9-0.3,0.9-0.8S24.7,52,24.1,52
			c-1,0-1.9,0-2.9,0c-0.2,0-0.4,0-0.6,0c-0.4-0.1-0.6-0.4-0.7-0.8c0-0.4,0.1-0.7,0.5-0.9c0.2-0.1,0.4-0.1,0.6-0.1
			c4.9,0,9.8,0,14.7,0c0.1,0,0.2,0,0.4,0c0,0.6,0,1.2,0,1.8c-0.2,0-0.4,0-0.6,0c-2.3,0-4.7,0-7,0c-0.2,0-0.4,0-0.6,0.1
			c-0.4,0.1-0.6,0.4-0.6,0.8c0,0.4,0.3,0.6,0.7,0.7c0.2,0,0.4,0,0.6,0c2.4,0,4.8,0,7.2,0c0.4,0,0.6,0.1,0.8,0.4
			c0.5,0.8,1.2,1.2,2.2,1.3c0.2,0,0.4,0.1,0.5,0.2c1.6,1.9,3.2,3.8,4.8,5.7c2.3,2.7,4.1,5.7,4.8,9.2c0.6,3,0.7,6-0.5,8.9
			c-1,2.6-2.7,4.6-4.8,6.1h2.5c1.5-1.4,2.7-3.1,3.6-5.1c1.2-2.7,1.3-5.6,1-8.4c-0.4-3.4-1.5-6.5-3.5-9.3c-1.5-2-3.2-3.9-4.8-5.9
			c-0.5-0.6-1-1.2-1.5-1.8c1,0.1,1.9,0.3,2.8,0.5c2.3,0.5,4.6,1.1,6.9,1.5c1.3,0.3,2.5-0.6,2.8-1.9c0.3-1.3-0.5-2.6-1.8-2.9
			c-1.1-0.3-2.2-0.5-3.4-0.8c0.7-0.2,1.3-0.4,1.8-0.6c1.3-0.5,1.8-2,1.3-3.2s-1.8-1.8-3.2-1.4c-2.2,0.6-4.5,1.3-6.7,1.9
			c-0.2,0-0.4,0-0.5-0.1c-0.2-0.2-0.4-0.5-0.6-0.7c0.7-1.6,1.5-3.1,2.2-4.7c0.5-1.2,0.9-2.5,1.3-3.8c0.2-0.6,0.3-1.3-0.3-1.8
			c-0.2,0-0.4,0-0.6,0c-1.6,0.2-3.1,0.6-4.7,0.7c-3.8,0.3-7.5,0.1-11.2-0.6c-0.1,0-0.2-0.1-0.3-0.1c-0.2,0-0.4,0-0.6,0
			c-0.7,0.5-0.7,0.7-0.4,1.5c0.4,0.8,0.6,1.6,1,2.4c-0.2,0-0.3,0.1-0.4,0.1c-2.5,0-4.9-0.2-7.2-1.3c-0.7-0.3-1.3,0.1-1.2,0.9
			c0.5,2.6,1.2,5,2.7,7.2c0.2,0.3,0.4,0.5,0.6,0.8c-1.6,0.3-2.4,1.1-2.5,2.3c-0.1,1.3,0.6,2.1,2.1,2.7c-0.3,0.4-0.5,0.9-0.9,1.3
			c-1.5,1.7-2.9,3.4-4.4,5.1C12,64,9.8,68.6,9.8,74c0,4,1.2,7.6,3.9,10.6C13.8,85.1,14.1,85.4,14.4,85.6z M43.7,49.2
			c1.6-0.5,3.3-0.9,4.9-1.4c0.6-0.2,1.1,0.1,1.2,0.6c0.1,0.5-0.1,1-0.7,1.2c-1.3,0.4-2.7,0.8-4,1.1c-0.2,0-0.3,0-0.5,0
			c-1.1-0.2-2.2-0.5-3.2-0.7v-0.1C42.1,49.7,42.9,49.5,43.7,49.2z M41.2,51.6c0.8,0.2,1.6,0.3,2.3,0.5c2.4,0.5,4.8,1.1,7.3,1.7
			c0.3,0.1,0.5,0.2,0.7,0.3c0.3,0.2,0.4,0.6,0.2,1s-0.5,0.6-0.9,0.5c-0.7-0.1-1.4-0.3-2-0.4c-2.5-0.6-5-1.2-7.5-1.7
			C41.2,52.8,41.2,52.3,41.2,51.6z M39.6,52.9c0,0.6-0.4,0.9-0.9,0.9s-0.9-0.3-0.9-0.9c0-1.1,0-2.2,0-3.4c0-0.6,0.4-0.9,0.9-0.9
			s0.9,0.4,0.9,1c0,0.5,0,1.1,0,1.6C39.6,51.8,39.7,52.3,39.6,52.9z M42.1,38.9c-0.5,1.3-0.9,2.5-1.4,3.7c-0.6,1.4-1.3,2.8-2,4.2
			c-0.1,0.2-0.3,0.3-0.5,0.3c-0.8,0.2-1.3,0.7-1.7,1.3c-0.1,0.1-0.3,0.3-0.5,0.3c-0.6,0-1.4,0.2-1.8-0.1c-0.4-0.3-0.6-1-0.8-1.6
			c-0.8-1.8-1.4-3.7-1.5-5.7c0-0.6-0.4-0.9-1.1-0.8c-0.8,0.1-1.7,0.2-2.5,0.3c-0.1,0-0.2,0-0.4,0c-0.2-0.6-0.3-1.2-0.5-1.9
			C32.3,39.7,37.2,39.9,42.1,38.9z M19.5,41.8c3.6,1.1,7.2,1,10.9,0.5c0.3,2.3,1.1,4.3,2.1,6.5c-0.9,0-1.7,0-2.5,0
			c-2.2,0-4.3,0-6.5,0c-0.2,0-0.4-0.1-0.5-0.2C21.3,46.9,20,44.2,19.5,41.8z"/>
		<g>
			<path class="st0" d="M80.9,38.3c3.6,3.6,7.3,7.4,10.9,11.1c6.2-6.2,12.3-12.3,18.7-18.9c-1.3-1-2.8-2.3-4.4-3.6
				c0.1-0.2,0.3-0.4,0.4-0.6c3.9-0.4,7.9-0.7,12.2-1.1c-0.4,4.1-0.7,8.1-1.1,12.5c-1.7-1.6-3.1-2.9-4.7-4.4
				c-6.9,7-13.8,13.9-20.8,21c-3.9-4-7.7-7.8-11.6-11.8C72.6,50.4,65,58,57.2,65.8c-0.8-0.8-1.4-1.4-2-2
				C63.8,55.3,72.2,46.9,80.9,38.3z"/>
		</g>
		<g>
			<path class="st1" d="M34.5,69c-0.3,1.3-1,2.3-2.2,3c-1.1,0.7-2.4,0.7-3.8,0.6c0.1,0.1,0.2,0.2,0.3,0.3c1.8,1.8,3.6,3.6,5.4,5.4
				c0.3,0.3,0.4,0.6,0.3,1c-0.2,0.6-0.9,0.8-1.4,0.5c-0.1-0.1-0.1-0.1-0.2-0.2c-2.4-2.4-4.8-4.8-7.1-7.1c-0.3-0.3-0.4-0.5-0.4-0.9
				c0.1-0.5,0.5-0.8,1-0.8c1.2,0,2.3,0,3.5,0s2.1-0.6,2.6-1.7c0-0.1,0-0.1,0.1-0.2c-0.1,0-0.2,0-0.3,0c-1.9,0-3.9,0-5.8,0
				c-0.7,0-1.2-0.6-0.9-1.3c0.1-0.4,0.5-0.6,0.9-0.6c1.7,0,3.4,0,5.1,0c0.3,0,0.7,0,1.1,0c-0.4-1-1.1-1.6-2.1-1.8
				c-0.2-0.1-0.5-0.1-0.7-0.1c-1.2,0-2.3,0-3.5,0c-0.7,0-1.1-0.6-0.9-1.3c0.2-0.4,0.5-0.6,0.9-0.6c0.6,0,1.2,0,1.8,0
				c2.4,0,4.8,0,7.2,0c0.1,0,0.3,0,0.4,0c0.5,0.1,0.8,0.5,0.7,1c0,0.5-0.4,0.8-0.9,0.8c-0.6,0-1.2,0-1.8,0c0.3,0.6,0.5,1.2,0.8,1.8
				c0.3,0,0.6,0,0.9,0c0.6,0,1,0.4,1,0.9s-0.4,0.9-1,0.9C35.1,69,34.8,69,34.5,69z"/>
		</g>
		<g>
			<path class="st1" d="M47.3,93.6c0-2.1,0-4.2,0-6.4c1.9,0,3.8,0,5.7,0c0,2.1,0,4.2,0,6.4C51.1,93.6,49.2,93.6,47.3,93.6z"/>
			<path class="st1" d="M49.4,102.3c-1.9,0-3.8,0-5.7,0c0-2.2,0-4.3,0-6.5c1.9,0,3.8,0,5.7,0C49.4,98,49.4,100.1,49.4,102.3z"/>
			<path class="st1" d="M58.5,102.3c0-2.2,0-4.3,0-6.5c1.1,0,2.2-0.1,3.2,0c1.5,0.2,2.7,1.7,2.7,3.2c0,1.6-1.2,3-2.8,3.2
				C60.7,102.4,59.7,102.3,58.5,102.3z"/>
			<path class="st1" d="M45.2,93.6c-1.7,0-3.3,0-4.9,0c0-2.2,0-4.3,0-6.5c1.6,0,3.2,0,4.9,0C45.2,89.2,45.2,91.4,45.2,93.6z"/>
			<path class="st1" d="M27.7,102.3c-1.7,0-3.3,0-4.9,0c0-2.2,0-4.3,0-6.5c1.6,0,3.3,0,4.9,0C27.7,97.9,27.7,100.1,27.7,102.3z"/>
			<path class="st1" d="M29.8,95.8c1.7,0,3.2,0,4.9,0c0,2.2,0,4.3,0,6.5c-1.6,0-3.2,0-4.9,0C29.8,100.2,29.8,98,29.8,95.8z"/>
			<path class="st1" d="M51.5,95.8c1.7,0,3.3,0,5,0c0,2.2,0,4.3,0,6.5c-1.7,0-3.3,0-5,0C51.5,100.1,51.5,98,51.5,95.8z"/>
			<path class="st1" d="M62,93.6c0-2.2,0-4.3,0-6.6c1.2,0.1,2.3,0,3.4,0.2C67,87.4,68,89,68,90.5c-0.1,1.6-1.4,3-3,3.1
				C64,93.7,63.1,93.6,62,93.6z"/>
			<path class="st1" d="M19.3,87.1c1.6,0,3.2,0,4.9,0c0,2.2,0,4.3,0,6.5c-1.6,0-3.2,0-4.9,0C19.3,91.4,19.3,89.3,19.3,87.1z"/>
			<path class="st1" d="M26.2,93.6c0-2.2,0-4.3,0-6.5c1.6,0,3.3,0,4.9,0c0,2.2,0,4.3,0,6.5C29.5,93.6,27.9,93.6,26.2,93.6z"/>
			<path class="st1" d="M38.2,87.1c0,2.2,0,4.3,0,6.5c-1.7,0-3.3,0-5,0c0-2.2,0-4.3,0-6.5C34.9,87.1,36.5,87.1,38.2,87.1z"/>
			<path class="st1" d="M60,93.6c-1.6,0-3.2,0-4.9,0c0-2.1,0-4.3,0-6.5c1.6,0,3.2,0,4.9,0C60,89.3,60,91.4,60,93.6z"/>
			<path class="st1" d="M15.7,95.8c1.7,0,3.2,0,4.9,0c0,2.2,0,4.3,0,6.5c-1.6,0-3.2,0-4.9,0C15.7,100.1,15.7,98,15.7,95.8z"/>
			<path class="st1" d="M36.8,102.3c0-2.2,0-4.3,0-6.5c1.6,0,3.2,0,4.9,0c0,2.1,0,4.2,0,6.5C40.1,102.3,38.4,102.3,36.8,102.3z"/>
			<path class="st1" d="M17.2,93.6c-1.8,0.2-3.4,0.2-4.5-1.5C12,91,12,89.6,12.8,88.5c1.1-1.6,2.7-1.6,4.4-1.4
				C17.2,89.3,17.2,91.4,17.2,93.6z"/>
			<path class="st1" d="M13.7,95.8c0,2.2,0,4.3,0,6.5c-1.7,0.2-3.2,0.2-4.4-1.3c-0.8-1.1-0.9-2.3-0.3-3.5
				C10.1,95.7,11.8,95.6,13.7,95.8z"/>
		</g>
	</g>
	<g id="Layer_24">
	</g>
</g>
<g id="Layer_25">
</g>
</svg>
