<?xml version="1.0" encoding="utf-8"?>
<!-- Generator: Adobe Illustrator 23.0.0, SVG Export Plug-In . SVG Version: 6.00 Build 0)  -->
<svg version="1.1" id="Layer_1" xmlns="http://www.w3.org/2000/svg" xmlns:xlink="http://www.w3.org/1999/xlink" x="0px" y="0px"
	 viewBox="0 0 128 128" style="enable-background:new 0 0 128 128;" xml:space="preserve">
<style type="text/css">
	.st0{fill:#FFFFFF;stroke:#FFFFFF;stroke-miterlimit:10;}
</style>
<g id="Layer_9">
</g>
<g id="Layer_14">
</g>
<g id="sukanya_x5F_samriddhi_x5F_yojana_x5F_wn">
	<g>
		<path class="st0" d="M34.8,62.4c-0.5,1-1,2.1-1.3,3.2c-0.6,2-1,4-1.6,5.9c-0.1,0.4-0.3,0.8-0.5,1.4c0.7-0.2,1.3-0.4,1.8-0.5
			c0.4-0.1,0.6-0.3,0.7-0.7c0.2-0.7,0.4-1.4,0.6-2.2c0.5-2.1,1-4.2,1.9-6.2c0.4-0.7,0.9-1.3,1.7-1.6c0.3-0.1,0.7-0.2,1-0.4
			C37.8,60.2,35.4,61.1,34.8,62.4z"/>
		<path class="st0" d="M52.7,56.4c0,0.2,0.3,0.5,0.5,0.5s0.4-0.3,0.8-0.5c-0.3-0.3-0.5-0.6-0.7-0.5C53,55.9,52.7,56.2,52.7,56.4z"/>
		<path class="st0" d="M71.3,56.4c0,0.2,0.3,0.6,0.5,0.5c0.2,0,0.4-0.3,0.8-0.6c-0.4-0.3-0.6-0.5-0.8-0.5
			C71.6,55.9,71.3,56.2,71.3,56.4z"/>
		<path class="st0" d="M79.6,40.4c-3.6-5.3-8.5-8.5-14.8-9.6c-1.4-0.3-1.5-0.2-1.5,1.2c9.8,1.5,16.1,6.9,19.2,16.2
			c0-0.2,0-0.4-0.1-0.7C82,45,81.1,42.6,79.6,40.4z"/>
		<path class="st0" d="M86.4,70.2c-2.4-1.7-2.9-4.7-1.3-7.1c0.6-0.8,1.3-1.4,2.4-1.7c-0.9-0.8-2.5-0.8-3.5,0c-2.1,1.7-2.6,4.7-1,6.9
			c1,1.4,2.6,2.2,4.1,2.9c0.8,0.4,1.6,0.7,2.4,1c0-0.1,0-0.1,0.1-0.2c-0.2-0.1-0.3-0.2-0.5-0.3C88.2,71.2,87.3,70.8,86.4,70.2z"/>
		<path class="st0" d="M59.4,30.6c-4.2,0.5-8,2.2-11.2,5c-4,3.5-6.4,7.9-7.1,13.2c-0.2,1.3-0.2,1.3,1,1.3c0.7,0,0.7,0,0.8-0.7
			c0.1-0.8,0.2-1.6,0.4-2.3c1.3-5.3,4.3-9.4,8.8-12.5c2.3-1.6,4.8-2.6,7.5-3.1c0.3-0.1,0.5-0.2,0.4-0.5
			C59.9,30.6,59.7,30.6,59.4,30.6z"/>
		<path class="st0" d="M84.3,59.2c-0.2,0.1-0.5,0.1-0.8,0.2c0.3-1.1,0.6-2,0.8-3c0.3-1.6,0.7-3.3,0.7-4.9c0-2.9-0.7-5.7-1.8-8.3
			c-3.4-8-9.4-13-18.1-14.3c-7.7-1.2-14.5,1.2-19.8,6.9c-5.6,5.9-7.4,13-5.8,20.9c0.2,1,0.5,2,0.8,3c-0.2-0.1-0.4-0.2-0.6-0.3
			c-2.5-1.2-5.6-0.2-6.8,2.3c-0.9,1.8-1.5,3.8-1.9,5.8c-0.4,1.6-0.6,3.3-1.5,4.8c-0.5,0.8-1,1.4-1.5,2.2c-0.4,0.5-0.3,0.7,0.3,0.8
			c0.3,0.1,0.7,0.1,1,0c4-0.6,7.8-1.8,11.1-4.2c1.8-1.3,3-3.1,2.9-5.4c0-0.1,0-0.3,0.1-0.5c0.4,0.5,0.7,0.9,1,1.3
			c0.9,0.9,1.5,2.1,2.9,2.4c0.6,0.1,1.2,0.3,1.7,0.5c0.7,0.2,1.4,0.4,2,0.6c0-0.1,0-0.1,0.1-0.2c-3.1-1.9-5.6-4.3-7.4-7.5
			c-1.8-3.2-2.8-6.5-2.9-10.3c4.9,0.7,9.3-0.4,13.3-3.2s6.5-6.6,7.6-11.3c1.2,4.8,3.6,8.7,7.6,11.6s8.5,4,13.4,3.7
			c-0.6,7-3.8,12.4-9.3,16.5c2.4-0.7,4.8-1.5,6.6-3.7c0,0.3,0.1,0.4,0.1,0.5c0.2,2.1,1.2,3.8,2.9,5.1c2.4,1.8,5.1,2.8,7.9,3.5
			c1.3,0.3,2.7,0.5,4.1,0.7c0.2,0,0.4-0.2,0.7-0.3c-0.1-0.2-0.2-0.5-0.3-0.6c-1.3-1.4-2.1-3-2.5-4.9c-0.5-2.6-1.2-5.3-2.4-7.7
			C89.3,59.5,86.8,58.5,84.3,59.2z M38.1,61.7c-0.8,0.3-1.3,0.8-1.7,1.6c-1,2-1.5,4.1-1.9,6.2c-0.2,0.7-0.4,1.4-0.6,2.2
			c-0.1,0.4-0.3,0.6-0.7,0.7c-0.5,0.1-1.1,0.3-1.8,0.5c0.2-0.6,0.4-1,0.5-1.4c0.5-2,1-4,1.6-5.9c0.3-1.1,0.8-2.2,1.3-3.2
			c0.6-1.2,3.1-2.2,4.3-1C38.8,61.5,38.4,61.6,38.1,61.7z M59.5,31.5c-2.7,0.6-5.2,1.6-7.5,3.1c-4.5,3.1-7.4,7.2-8.8,12.5
			c-0.2,0.8-0.3,1.5-0.4,2.3c-0.1,0.7-0.1,0.7-0.8,0.7c-1.2-0.1-1.2-0.1-1-1.3c0.7-5.3,3.1-9.7,7.1-13.2c3.2-2.8,7-4.4,11.2-5
			c0.3,0,0.5-0.1,0.6,0.3C60,31.3,59.8,31.4,59.5,31.5z M63.4,32C63.4,32,63.4,32.1,63.4,32C63.4,32.1,63.4,32.1,63.4,32
			C63.3,32,63.4,32,63.4,32c0-1.4,0-1.5,1.5-1.2c6.3,1.1,11.2,4.3,14.8,9.6c1.5,2.2,2.4,4.5,2.9,7.1c0,0.2,0.1,0.4,0.1,0.7
			C79.5,38.9,73.2,33.5,63.4,32z M89.6,72.2c-0.8-0.3-1.6-0.6-2.4-1c-1.5-0.7-3.1-1.5-4.1-2.9c-1.6-2.2-1.2-5.2,1-6.9
			c1-0.8,2.5-0.8,3.5,0c-1,0.3-1.8,0.8-2.4,1.7c-1.6,2.4-1.1,5.4,1.3,7.1c0.9,0.6,1.8,1.1,2.7,1.6C89.4,71.9,89.5,72,89.6,72.2
			C89.6,72.1,89.6,72.2,89.6,72.2z"/>
		<path class="st0" d="M63.4,32.1L63.4,32.1L63.4,32.1L63.4,32.1z"/>
		<path class="st0" d="M69.6,77.1c-2.6,0.6-4.7,1.8-6.2,4c-1,1.4-1.4,3.1-1.7,4.8c-0.1,0.5-0.3,1-0.4,1.5c-0.1,0-0.2,0-0.3,0
			c-0.1-0.3-0.2-0.5-0.3-0.8c-0.2-0.9-0.3-1.8-0.5-2.6c-0.5-1.7-1.2-3.2-2.6-4.4c-1.3-1.1-2.8-1.8-4.4-2.3c-3.6-1-7.1-2-10.7-3
			c-0.4-0.1-0.7-0.2-1.2-0.3c0.4,1.3,0.7,2.5,1.1,3.7c0.7,2.3,1.5,4.5,2.2,6.8c1.1,3.3,2.1,6.6,3.2,9.9c0.2,0.5,0.4,0.7,0.9,0.6
			c2-0.3,4,0,5.9,0.5c2.3,0.6,4.3,1.6,6.2,3.1c0.2,0.1,0.6,0.1,0.8,0c0.5-0.3,1-0.7,1.5-1c3.2-2.1,6.7-2.8,10.4-2.6
			c0.7,0,0.9-0.1,1.1-0.7c0.8-2.7,1.7-5.4,2.6-8.2c1.1-3.4,2.2-6.8,3.2-10.2c0.3-0.8,0.5-1.7,0.7-2.4c-1.6,0.7-3.1,1.5-4.8,2
			C74.3,76.1,71.9,76.6,69.6,77.1z"/>
		<path class="st0" d="M62.3,78.8c-0.1,0.3-0.1,0.6-0.2,1.1c0.5-0.6,0.9-1,1.3-1.4c1.9-1.8,4-3.2,6.6-3.6c1.7-0.3,3.3-0.7,4.9-1.1
			c0.5-0.1,1.2-0.3,1.4-0.7c0.5-1,0.7-2,1.1-3.2c-0.2,0-0.3,0-0.3,0.1c-2.5,1.6-5.3,2.2-8.1,2.7C65.3,73.2,63.4,75.5,62.3,78.8z"/>
		<path class="st0" d="M54.6,63.5c0,0.4,0,0.6,0,0.8c0.3,1.5,1.4,2.3,2.6,3c3.2,1.7,6.4,1.6,9.5-0.2c1.1-0.6,2-1.5,2.3-2.8
			c0.1-0.2,0-0.5,0.1-1C64.2,66.5,59.4,66.4,54.6,63.5z"/>
		<path class="st0" d="M45,70.2c0.2,0.8,0.5,1.3,0.6,1.9c0.1,0.7,0.5,0.9,1.1,1.1c2.5,0.7,5.1,1.3,7.6,2.1c1.6,0.5,3.2,1.1,4.5,2.4
			c0.3,0.3,0.6,0.8,0.9,1.1c0.1,0,0.1-0.1,0.2-0.1c-0.2-0.5-0.2-1-0.5-1.4c-0.6-0.9-1.3-1.7-2.1-2.5c-1-1-2.2-1.8-3.6-2.2
			c-1.4-0.4-2.9-0.8-4.3-1.2C48,71.1,46.6,70.7,45,70.2z"/>
		<path class="st0" d="M52.8,54.7c-1.2-0.1-2.3,1.1-2.4,2.3c0,1.4,1,2.5,2.4,2.5c1.3,0,2.4-1,2.4-2.4C55.2,55.8,54.2,54.7,52.8,54.7
			z M53.2,56.9c-0.2,0-0.5-0.3-0.5-0.5s0.3-0.5,0.5-0.5s0.4,0.3,0.7,0.5C53.6,56.7,53.4,56.9,53.2,56.9z"/>
		<path class="st0" d="M71.1,54.7c-1.3,0-2.4,1.2-2.4,2.4c0,1.3,1.1,2.4,2.4,2.4s2.4-1,2.3-2.4C73.4,55.7,72.4,54.6,71.1,54.7z
			 M71.8,56.9c-0.2,0-0.5-0.3-0.5-0.5s0.3-0.5,0.5-0.5s0.4,0.3,0.8,0.5C72.3,56.6,72,56.9,71.8,56.9z"/>
		<path class="st0" d="M63,3C30.4,3,4,29.4,4,62s26.4,59,59,59s59-26.4,59-59S95.6,3,63,3z M12.4,66c-1.3,0-2.4-1.1-2.4-2.5
			s1.1-2.5,2.5-2.5s2.5,1.1,2.5,2.5C14.9,64.9,13.8,66,12.4,66z M77.1,18.3c0.5,0.6,1.4,0.5,1.7-0.1C79,18,79,17.7,79,17.5
			c0-0.1-0.4-0.1-0.6-0.1c-0.3-0.1-0.7,0-0.9-0.2c-0.2-0.2-0.2-0.6-0.2-0.9c0.3,0,0.5-0.1,0.8-0.1s0.7,0,1-0.1
			c0.2,0,0.3-0.2,0.4-0.4s-0.2-0.4-0.3-0.4c-0.4-0.1-0.8-0.2-1.2-0.2c-0.7,0-0.6-0.5-0.6-0.9c-0.1-0.5,0.3-0.4,0.6-0.4
			c1.3,0,2,0.6,2.3,1.7c0.2,0.6,0.1,0.9-0.5,1.8c0.4,0.1,0.7,0.3,1,0.3c0.2,0,0.4-0.4,0.6-0.7c0.2-0.4,0.3-0.7-0.3-1
			c-0.3-0.1-0.3-0.7-0.5-1.2c1.9,0.3,3.4,1.1,5,1.9c0.1-0.9,0.2-1.8-0.5-2.4c-0.4-0.4-0.3-0.8,0.2-1.4c0.9,0.4,1,1.3,1,2.2
			c0,0.5-0.1,0.9-0.1,1.4c0,0.2,0.1,0.5,0.2,0.5c0.8,0.3,0.6,0.9,0.6,1.5c-0.2,0-0.4-0.1-0.5-0.1c-0.8-0.3-0.7-0.3-1.1,0.5
			c-0.6,1.2-1.1,2.4-1.7,3.5c-0.1,0.1-0.2,0.3-0.3,0.5c-0.8-0.8-0.9-1-0.5-1.9s0.8-1.8,1.2-2.6c0.3-0.6,0.3-0.9-0.3-1.2
			c-0.8-0.5-1-0.5-1.3,0.4c-0.4,1.2-0.8,2.4-1.2,3.6c-0.1,0.2-0.2,0.4-0.2,0.6c-0.9-0.6-1.1-1-0.7-2c0.3-0.6,0.1-0.9-0.5-1.1h-0.1
			c-0.2,0.8-0.6,1.4-1.5,1.4c-1,0-1.6-0.5-2-1.4c-0.2-0.5-0.3-1-0.4-1.5c0-0.1,0.2-0.4,0.3-0.5c0.1,0.1,0.3,0.3,0.3,0.4
			C76.7,17.3,76.8,17.9,77.1,18.3z M60.7,11.8c4.6-0.2,9.2,0.1,13.8,1.1c0.2,0,0.4,0.1,0.6,0.1c1,0.2,1.1,0.2,1.2,1.3l-0.1,0.1
			c-1.2-0.1-1.2-0.1-1.4,1.1c-0.2,1.1-0.4,2.1-0.7,3.2c0,0.2-0.1,0.4-0.2,0.6c-0.9-0.4-1.1-0.8-0.9-1.7c0.2-1,0.4-1.9,0.6-2.9
			c0.2-0.9,0.2-0.9-0.7-1.1c-0.6-0.2-0.8,0-0.8,0.6c-0.2,1.3-0.4,2.6-0.6,3.9c0,0.2-0.1,0.4-0.2,0.7c-0.6-0.4-1.2-0.7-1.1-1.6
			c-0.2,0.1-0.4,0.1-0.6,0.1c-1.3,0.3-2.7-0.8-2.7-2.1c0-0.2-0.1-0.4-0.2-0.5c-0.6-0.3-0.6-0.3-0.8-1.1c0.2,0,0.4-0.1,0.6-0.1
			c0.8,0.1,1.6,0.1,2.3,0.2c0.8,0.1,1,0.3,1.2,1.2c-0.2,0-0.4,0-0.7,0s-0.6,0-0.7,0.1c-0.3,0.3-0.4,0.7-0.6,1.1c0.3,0,0.7,0.2,1,0.1
			c1.4-0.4,1.9-1.1,1.8-2.6c0-0.2-0.4-0.4-0.6-0.4c-1.3-0.1-2.5-0.2-3.8-0.3c-0.6-0.1-1.2-0.1-1.9-0.1c0,1.9,0,3.6,0,5.4
			C63.6,18,63,17.7,63,16.8c-0.4,0.1-0.8,0.3-1.2,0.4c-0.8,0.2-1.5-0.1-2-0.7s-0.7-1.2-0.4-2c0.4-1.1,1.8-1.5,2.9-0.9
			c0.2,0.1,0.4,0.3,0.7,0.4c0.3-1.1,0.2-1.3-0.8-1.2c-0.8,0.1-1.7,0.1-2.5,0.2c-0.8,0.1-1-0.1-1.3-1.1
			C59.1,11.9,59.9,11.9,60.7,11.8z M41.9,14.3c-0.2,0-0.5,0-0.6-0.1c-0.2-0.2-0.3-0.5-0.4-0.8c0.3-0.1,0.7-0.3,0.9-0.2
			c0.7,0.4,1.4,0.8,1.9,1.4c0.5,0.6,0.9,0.6,1.7,0.4c2.1-0.7,4.2-1.3,6.4-1.9c0.5-0.1,0.7-0.3,0.4-0.7c-0.2-0.3-0.5-0.7-0.8-1
			C51,11,50.6,11,50.1,11.3c-0.4,0.3-0.4,0.7-0.3,1.2c0.1,0.2,0.1,0.4,0.2,0.7c-0.3-0.1-0.5-0.2-0.6-0.3c-0.7-0.7-0.7-2-0.1-2.5
			c0.6-0.6,1.7-0.5,2.4,0.3c0.4,0.5,0.7,1.1,1.1,1.7c0.1,0.2,0.4,0.3,0.6,0.3c0.8-0.1,0.9,0,1.3,0.8c-0.2,0.1-0.3,0.2-0.4,0.2
			c-0.7,0-0.7,0.4-0.5,0.9c0.3,1.4,0.6,2.9,0.9,4.4c-0.9,0.1-1.4-0.2-1.5-1c-0.2-1.1-0.5-2.2-0.7-3.3c-0.1-0.4-0.3-0.6-0.7-0.5
			c-0.2,0.1-0.5,0.1-0.7,0.1c-1,0.3-1,0.3-0.8,1.3c0,0.3-0.2,0.7-0.4,0.9c-0.3,0.4-0.8,0.7-1.2,1c-0.3,0.2-0.6,0.5-0.4,0.9
			c0.2,0.5,0.6,0.7,1.1,0.6c0.5-0.2,1-0.5,1.4-0.8c0.2-0.1,0.3-0.4,0.5-0.5c1,0.5,1.1,0.9,0.2,1.6c-1,0.8-2.3,0.9-3.3,0.2
			c-1.3-0.8-1.3-2.4,0-3.2c0.4-0.3,1-0.4,0.7-1c-0.3-0.5-0.8-0.1-1.1,0c-0.7,0.2-1.4,0.5-2.1,0.7c-0.5,0.1-0.5,0.4-0.3,0.8
			c0.6,1.5,1.2,2.9,1.8,4.4c-0.8,0.2-1.3,0-1.8-0.8c-0.9,1.1-2,1.7-3.4,0.8c-0.7-0.5-1-1.4-0.7-2c0.7-1.4,1.8-1.5,3.2-1.1
			c0-0.1,0-0.1,0-0.2c-0.4-1.1-0.4-1.1-1.5-0.6c-0.7,0.3-1.4,0.7-2.1,1c-0.8,0.4-0.9,0.3-1.6-0.5c1.6-0.8,3.2-1.5,4.8-2.3
			C43.3,14.9,42.8,14.3,41.9,14.3z M58.6,111.1c-0.8-0.1-0.8-0.1-1,0.8c-0.2,1.3-0.4,2.6-0.6,3.9c0,0.1-0.1,0.3-0.1,0.4
			c-0.8-0.1-1.2-0.7-1.1-1.4c0.2-1.1,0.4-2.2,0.6-3.3c0-0.2,0-0.4,0.1-0.6c-0.5-0.1-1-0.3-1.5-0.4c-0.2,0-0.5,0.2-0.5,0.3
			c-0.1,0.8-0.7,1.1-1.4,1.2c-0.4,0-0.7,0.1-1.1,0.1c-0.4,0-0.8,0.2-0.9,0.6c-0.1,0.5,0.2,1,0.7,1.1s1.1,0.1,1.7,0
			c0.2,0,0.4-0.1,0.6-0.2c0.1,0.3,0.2,0.6,0.2,0.9c0,0.1-0.2,0.3-0.3,0.4c-1.5,0.7-3.5-0.4-3.8-2.1c-0.2-1,0.6-1.9,1.7-2
			c0.3,0,0.6,0.1,0.9-0.1c0.2-0.1,0.3-0.3,0.5-0.5c-0.2-0.1-0.3-0.3-0.5-0.4c-0.8-0.3-1.7-0.5-2.5-0.8c-0.4-0.1-0.5,0.1-0.6,0.4
			c-0.5,1.3-1,2.6-1.5,3.9c-0.1,0.2-0.2,0.4-0.3,0.6c-0.8-0.6-0.9-0.9-0.7-1.8c-0.7-0.2-1.5-0.2-2.1-0.5c-0.7-0.3-1-1-1-1.8
			c0-0.7,0.3-1.3,1-1.7c0.8-0.4,2.1,0.1,2.7,1.1c0.1,0.2,0.2,0.4,0.3,0.7c0.1-0.3,0.2-0.6,0.3-0.8c0.2-0.3,0.1-0.5-0.3-0.7
			c-0.8-0.4-1.6-0.8-2.4-1.1c-0.8-0.4-0.9-0.5-0.7-1.6c1.4,0.6,2.8,1.3,4.3,2c0-0.9,0-1.7-0.7-2.1c-0.6-0.4-0.5-0.9-0.2-1.5
			c0.7,0.1,1,0.6,1.2,1.2c0.1,0.6,0.2,1.3,0.3,1.9c0,0.5,0.2,0.8,0.7,1c1.9,0.5,3.9,1.1,5.8,1.6c0.5,0.1,0.7,0,0.6-0.6
			c-0.1-0.7-0.2-1.4-0.9-1.6c-0.8-0.3-1.2,0.1-1.3,0.8c0,0.2,0,0.4-0.1,0.8c-0.2-0.3-0.5-0.4-0.5-0.6c0-0.5,0-1.1,0.1-1.6
			s0.5-0.8,1.1-0.8c0.7,0,1.3,0.3,1.5,0.9c0.3,0.7,0.4,1.4,0.6,2.1c0.1,0.5,0.2,0.8,0.7,0.8c0.7,0.1,0.6,0.7,0.8,1.2
			C58.9,111,58.8,111.1,58.6,111.1z M72.6,118c-0.4-0.4-0.8-0.7-0.8-1c0-0.2,0.4-0.7,0.7-0.7c0.3,0,0.7,0.4,0.8,0.7
			C73.3,117.2,72.9,117.6,72.6,118z M75.6,113.7c-0.4-1.2-0.8-2.5-1.1-3.8c-0.5,0.1-1,0.2-1.4,0.3c-0.4,0.1-0.5,0.3-0.4,0.7
			c0.2,1.2,0.2,1.2-1,1.4c-0.2,0.1-0.5,0.1-0.7,0.2c-0.6,0.1-0.8,0.5-0.8,1.1c0,0.7,0.4,1.1,1.2,1.1c0-0.1,0-0.2-0.1-0.3
			c-0.3-1,0-1.7,0.8-1.8c0.8-0.2,1.6,0.4,1.8,1.3c0.2,1-0.5,1.9-1.6,2c-1.4,0.1-3-1.3-3.1-2.6c-0.1-0.9,0.4-1.6,1.3-1.8
			c0.2-0.1,0.4,0,0.6-0.1c0.1-0.1,0.2-0.3,0.3-0.4c-0.1-0.1-0.3-0.3-0.4-0.2c-0.7,0.1-1.3,0.3-2,0.4c-1.3,0.2-1.3,0.2-1.2,1.5
			c0.1,1.1,0.2,2.3,0.3,3.4c0,0.2,0,0.4,0,0.6c-1-0.2-1.5-0.8-1.4-1.9c-0.9,0.4-1.7,0.5-2.5,0c-0.5-0.3-0.8-0.7-0.8-1.3
			c0-0.6-0.1-1.2-0.1-1.8c-0.7,0-0.9-0.5-1.1-1.1c0.3,0,0.5-0.1,0.8-0.1c3.3,0,6.5-0.3,9.7-1.1c0.9-0.2,1.8-0.5,2.7-0.8
			c0.8-0.2,1-0.2,1.4,0.6c-0.1,0.1-0.1,0.2-0.2,0.2c-1.1,0.3-0.8,0.5-0.6,1.3c0.3,1.2,0.7,2.3,1.1,3.5c0.1,0.2,0.1,0.3,0.1,0.5
			C76.3,114.7,75.8,114.4,75.6,113.7z M86.1,108.8c-0.6-1-1.3-2-1.9-3.1c-0.2,0.1-0.3,0.2-0.4,0.3c-0.9,0.5-0.9,0.5-0.5,1.5
			c0.5,1.1,1,2.3,1.5,3.4c0.1,0.1,0.1,0.3,0.1,0.4c-0.9,0.2-1.4,0-1.7-0.8c-0.3-0.8-0.4-0.9-1.2-0.6c0.4,0.7,0.5,1.4-0.2,2.1
			c-0.6,0.5-1.2,0.7-1.9,0.5c-0.6-0.2-1.2-0.6-1.7-0.9c-0.2-0.1-0.2-0.4-0.3-0.6c0.2,0.1,0.5,0,0.7,0.2c0.5,0.4,1,0.7,1.5,0.5
			c0.4-0.2,0.8-0.5,1-0.9s-0.1-0.8-0.5-1c-0.3,0.2-0.5,0.5-0.7,0.7c-0.2,0.1-0.5,0.2-0.7,0.1c-0.7-0.3-0.7-0.4-0.1-1
			c0.2-0.2,0.5-0.4,0.7-0.7c0.1-0.1,0.1-0.4,0-0.6c0-0.1-0.4-0.1-0.5-0.1c-0.3,0.2-0.7,0.3-1,0.6c-0.5,0.5-0.8,0-1-0.2
			c-0.4-0.3,0-0.5,0.2-0.7c0.9-0.9,2.2-1,3.1-0.2c0.2,0.2,0.4,0.6,0.5,0.9s0.1,0.7,0.6,0.5c0.4-0.1,0.8-0.3,0.7-0.8
			c-0.1-0.3-0.2-0.6-0.4-0.8c-0.1-0.1-0.3-0.2-0.4-0.2c-0.7,0.3-0.9-0.2-1.3-0.6c1.2-0.7,2.4-1.3,3.6-2c0-0.1,0-0.1,0-0.2
			c-0.6-0.3-1.2-0.8-1.9-0.6s-1.1-0.1-1.5-0.6c0.4-0.5,1-0.6,1.5-0.4c0.7,0.3,1.3,0.7,2,1.1c0.3,0.2,0.6,0.3,0.9,0
			c0.6-0.4,0.9-0.3,1.5,0.4c-0.1,0-0.2,0.1-0.2,0.1c-0.8,0.6-0.8,0.6-0.2,1.5c0.7,1,1.3,2.1,2,3.2c0.1,0.1,0.1,0.3,0.2,0.4
			C86.9,109.8,86.6,109.6,86.1,108.8z M63.5,103C41.1,103,23,84.9,23,62.5S41.1,22,63.5,22S104,40.1,104,62.5S85.9,103,63.5,103z
			 M112.4,67c-1.3,0-2.4-1.1-2.4-2.4c0-1.4,1.1-2.5,2.5-2.5s2.5,1.1,2.5,2.5C114.9,65.9,113.8,67,112.4,67z"/>
		<path class="st0" d="M72.9,113.9c0,0-0.2-0.4-0.3-0.4c-0.3-0.1-0.7,0.3-0.8,0.9c0.1,0.1,0.2,0.2,0.3,0.3
			C72.3,114.4,72.6,114.2,72.9,113.9z"/>
		<path class="st0" d="M65.6,111.3c-1.1,0-1.1,0-1.1,1.1c0,0.1,0,0.2,0,0.3l0,0c0,0.3,0,0.6,0,0.9c0,0.5,0.3,0.5,0.7,0.4
			c1-0.4,1.2-0.8,1.1-2C66.3,111.5,66.2,111.3,65.6,111.3z"/>
		<path class="st0" d="M43,18.8c0,0.1,0,0.1,0,0.2c0.3,0.2,0.6,0.4,0.9,0.6c0.3,0.2,0.5,0.2,0.6-0.2c0.1-0.3,0.1-0.5,0.2-0.8
			c-0.3,0-0.5-0.1-0.8-0.1C43.5,18.6,43.2,18.8,43,18.8z"/>
		<path class="st0" d="M46.6,109.1c0,0.6,0,0.9,0,1.3c0,0.1,0.2,0.3,0.3,0.3c0.3-0.1,0.6-0.2,0.8-0.3c-0.1-0.2-0.2-0.5-0.4-0.7
			C47.2,109.6,47,109.4,46.6,109.1z"/>
		<path class="st0" d="M45.3,109.2c-0.2,0.2-0.5,0.4-0.5,0.7c0,0.5,0.3,0.7,1,0.8c0-0.5,0-0.9,0-1.3
			C45.7,109.4,45.3,109.2,45.3,109.2z"/>
		<path class="st0" d="M61.3,14.4c0.3,0.5,0.5,0.8,0.7,1.1s0.4,0.3,0.6,0.1c0.2-0.2,0.3-0.4,0.5-0.6c-0.2-0.1-0.4-0.3-0.6-0.4
			C62.1,14.4,61.8,14.4,61.3,14.4z"/>
		<path class="st0" d="M60.2,16c0.3,0.4,0.7,0.4,1.2,0.1c-0.3-0.5-0.5-0.9-0.9-1.4C60.2,15.2,59.9,15.6,60.2,16z"/>
		<path class="st0" d="M42.4,20.8c0.4,0.3,0.8,0.1,1.2-0.3c-0.5-0.3-0.9-0.6-1.3-0.9C42,20.1,42,20.5,42.4,20.8z"/>
		<path class="st0" d="M72.5,116.3c-0.3,0-0.7,0.5-0.7,0.7c0,0.3,0.5,0.6,0.8,1c0.3-0.4,0.7-0.8,0.6-1
			C73.2,116.7,72.8,116.3,72.5,116.3z"/>
	</g>
</g>
<g id="Layer_25">
</g>
</svg>
