<?xml version="1.0" encoding="utf-8"?>
<!-- Generator: Adobe Illustrator 23.0.0, SVG Export Plug-In . SVG Version: 6.00 Build 0)  -->
<svg version="1.1" id="Layer_1" xmlns="http://www.w3.org/2000/svg" xmlns:xlink="http://www.w3.org/1999/xlink" x="0px" y="0px"
	 viewBox="0 0 128 128" style="enable-background:new 0 0 128 128;" xml:space="preserve">
<style type="text/css">
	.st0{fill:none;stroke:#FFFFFF;stroke-width:3;stroke-miterlimit:10;}
	.st1{fill:none;stroke:#FFFFFF;stroke-width:2;stroke-miterlimit:10;}
</style>
<g id="Layer_9">
</g>
<g id="Layer_14">
</g>
<g id="takeover-of-accounts-w">
	<g>
		<g>
			<path class="st0" d="M66.5,118.1c-7-1.9-14-3.8-21.1-5.7c-2.5-0.7-5-1.4-7.5-2.1c-2-0.6-3.8-0.3-5.6,0.6
				c-0.7,0.4-1.4,0.8-2.2,1.2c-1.3,0.6-2.3,1.2-2.1,2.9c0.1,1.2-0.9,1.9-2,1.8c-5.4-0.1-10.9-0.2-16.3-0.4c-1.6-0.1-2.2-0.9-2.2-2.5
				c0.3-9.7,0.5-19.5,0.8-29.2c0.1-2,0.1-4,0.1-6.1c0.1-1.8,0.8-2.5,2.6-2.5c5.1,0.1,10.1,0.2,15.2,0.4c2.3,0.1,2.9,0.8,2.8,3.1
				c0,0.8,0,1.6,0,2.3c1.8-0.6,3.5-1.4,5.3-1.8c6.5-1.8,12.9-1.3,18.9,1.8c3.8,2,7.8,3,12.1,3c3.8,0,7.6,0.2,11.4,0.3
				c5.1,0.1,8.9,2.2,11.7,6.5c0.1,0.1,0.2,0.3,0.3,0.5c1.1-0.5,2.2-1,3.3-1.6c4.4-2.1,8.8-4.2,13.3-6.3c4.7-2.1,10.2-0.6,13,3.7
				c1.1,1.7,0.9,2.7-0.7,3.8c-12,7.8-24,15.6-36,23.3c-2.6,1.7-5.6,2.3-8.6,2.8c-0.4,0.1-0.8,0.2-1.2,0.3
				C69.9,118.1,68.2,118.1,66.5,118.1z M85.8,96.6c-0.8-4-4.2-7-8.1-7.2c-2.6-0.1-5.3-0.2-7.9-0.3c-3-0.1-6-0.1-9-0.3
				c-3.5-0.2-6.4-1.8-9.5-3.3c-7.2-3.3-14.4-3-21.3,0.9c-0.8,0.4-1.1,0.9-1.1,1.8c-0.1,6.4-0.4,12.9-0.5,19.3c0,0.2,0,0.4,0.1,0.7
				c0.5-0.2,0.9-0.4,1.3-0.6c3.2-1.9,6.6-2.2,10.2-1.2c4,1.2,7.9,2.3,11.9,3.4c4.9,1.3,9.7,2.9,14.7,3.8c4.6,0.8,9.3,0.2,13.3-2.4
				c11.1-7,22-14.2,33-21.3c0.4-0.2,0.7-0.5,1.1-0.7c-2.1-1.9-4.6-2.2-7.1-1c-4.7,2.2-9.3,4.4-14,6.6c-0.9,0.4-1.8,0.9-2.7,1.3
				c0.1,0.8,0.2,1.5,0.2,2.2c0,1.7-0.8,2.5-2.4,2.4c-8-0.2-16.1-0.4-24.1-0.7c-1.5-0.1-2.4-0.9-2.4-2.1s1-2,2.5-2
				c2.6,0.1,5.2,0.1,7.8,0.2C76.3,96.3,81,96.5,85.8,96.6z M12.5,80.6c-0.3,10.5-0.6,21.1-0.9,31.9c4.2,0,8.2,0,12.3,0
				c0.3-10.5,0.6-21.1,0.9-31.9C20.7,80.6,16.7,80.6,12.5,80.6z"/>
		</g>
		<g>
			<path class="st0" d="M81.2,15.9c-2.3,0-4.5-0.4-6.7-1.1c0.7,3.2,2.1,6,4.2,8.4c0.1,0.2,0.4,0.2,0.7,0.2c2.1,0,4.1,0,6.2,0
				c1.7,0,3.3,0,5.1,0c-1.2-2.6-2.2-5.2-2.6-7.9C85.7,15.7,83.4,15.9,81.2,15.9z"/>
			<path class="st0" d="M99.6,26.6c0-0.6,0-1.3,0-1.9v-0.1c-0.1-0.8-0.5-1.2-1.1-1.2s-1.1,0.5-1.1,1.2c0,1.4,0,2.7,0,4.1
				c0,0.8,0.5,1.2,1.1,1.2c0.7,0,1.1-0.4,1.1-1.2C99.7,27.9,99.6,27.3,99.6,26.6L99.6,26.6z"/>
			<path class="st0" d="M71.8,70c1.8,1.2,3.8,2.1,5.9,2.8c4.6,1.5,9.3,1.9,14,1.3c4.4-0.5,8.6-1.7,12.3-4.2c3.6-2.3,6-5.5,7.1-9.7
				c0.9-3.4,0.7-6.8-0.1-10.2c-0.8-3.6-2.5-6.7-4.8-9.6c-2.3-2.9-4.8-5.7-7.2-8.5c-0.1-0.1-0.4-0.2-0.6-0.2c-1.2,0-2.2-0.5-2.7-1.6
				c-0.2-0.4-0.5-0.5-0.9-0.5c-3,0-6,0-9,0c-0.2,0-0.5,0-0.7,0c-0.5-0.1-0.8-0.4-0.9-0.9s0.2-0.9,0.8-1c0.2,0,0.5-0.1,0.7-0.1
				c3,0,5.9,0,8.9,0c0.2,0,0.5,0,0.7,0c0-0.8,0-1.5,0-2.2c-0.2,0-0.3,0-0.4,0c-6.1,0-12.3,0-18.4,0c-0.2,0-0.5,0-0.7,0.1
				c-0.5,0.2-0.7,0.6-0.7,1.1c0.1,0.5,0.3,0.9,0.9,1c0.2,0,0.5,0,0.7,0c1.2,0,2.4,0,3.6,0c0.8,0,1.2,0.4,1.2,1s-0.4,0.9-1.2,1
				c-0.6,0-1.2,0-1.8,0c-0.2,0-0.5,0.2-0.7,0.4c-0.4,0.6-0.7,1.3-1.2,1.8c-2,2.4-4.1,4.9-6.1,7.3c-1.7,2-3.2,4.2-4.3,6.5h5.5
				L71.8,70L71.8,70z"/>
			<path class="st0" d="M98.8,20.4c1.5-2.9,2.9-5.9,3.8-9.2c-6.1,1.1-12.1,1-18.2,0.1c0.2,0.9,0.4,1.6,0.7,2.5
				c1.2-0.2,2.4-0.4,3.6-0.5c0.8-0.1,1.3,0.3,1.3,1.1c0.1,2.6,1.1,5,2,7.4c0.5,1.4,1.2,2.1,2.8,1.8c0.1,0,0.3,0,0.4,0
				c0.2-0.1,0.5-0.2,0.6-0.4c0.4-0.7,0.9-1.3,1.8-1.5C98.2,21.4,98.5,21,98.8,20.4z"/>
			<path class="st0" d="M105.8,25.9c0.2,0,0.4,0,0.6,0c1.7-0.5,3.4-0.9,5.1-1.4c0.8-0.2,1.1-0.8,0.9-1.4s-0.8-0.9-1.5-0.7
				c-2.1,0.6-4.1,1.1-6.1,1.7c-1,0.3-1.9,0.5-2.9,0.8V25C103.1,25.3,104.5,25.6,105.8,25.9z"/>
			<path class="st0" d="M113.6,29.8c-3.4-0.8-6.8-1.6-10.2-2.4c-0.6-0.1-1.1-0.2-1.8-0.4c0,0.8,0,1.5,0,2.3c0.2,0,0.4,0.1,0.6,0.2
				c3.1,0.7,6.3,1.4,9.4,2.1c0.7,0.1,1.4,0.4,2.1,0.4c0.9,0.1,1.5-0.9,1-1.6C114.4,30.1,114,29.9,113.6,29.8z"/>
			<path class="st0" d="M114.4,27.9c-1.3-0.4-2.7-0.6-4.2-1c0.9-0.3,1.6-0.5,2.3-0.7c1.6-0.6,2.3-2.5,1.6-4.1
				c-0.7-1.5-2.2-2.2-4-1.7c-2.8,0.8-5.6,1.6-8.4,2.3c-0.2,0-0.5,0-0.6-0.1c-0.3-0.3-0.5-0.6-0.8-0.9c0.1-0.2,0.2-0.4,0.3-0.5
				c0.9-1.8,1.8-3.6,2.6-5.5c0.8-1.8,1.4-3.5,1.7-5.4c0.1-1.1-0.4-1.5-1.4-1.3c-2.6,0.3-5.2,0.8-7.8,0.9c-4.1,0.2-8.2-0.2-12.3-0.9
				c-0.5-0.1-1-0.1-1.4,0.3c-0.4,0.5-0.1,0.9,0.1,1.4c0.4,1,0.8,2,1.2,3c-0.3,0-0.4,0.1-0.5,0.1c-3.1,0.1-6.2-0.2-9.1-1.6
				c-0.9-0.4-1.7,0.2-1.5,1.1c0.6,3.2,1.6,6.3,3.5,9c0.2,0.3,0.4,0.6,0.7,1c-1.9,0.4-3,1.4-3.1,2.9c-0.1,1.6,0.7,2.6,2.7,3.4
				c-0.5,0.6-0.9,1.3-1.4,1.9c-1.7,2-3.4,4-5.2,6c-2.2,2.5-3.9,5.2-5.1,8h2.2c1.1-2.3,2.5-4.5,4.3-6.5c2.1-2.4,4.1-4.8,6.1-7.3
				c0.5-0.5,0.8-1.2,1.2-1.8c0.1-0.2,0.4-0.4,0.7-0.4c0.6,0,1.2,0,1.8,0c0.8,0,1.2-0.4,1.2-1s-0.4-1-1.2-1c-1.2,0-2.4,0-3.6,0
				c-0.2,0-0.5,0-0.7,0c-0.5-0.1-0.8-0.5-0.9-1c0-0.5,0.2-0.9,0.7-1.1c0.2-0.1,0.5-0.1,0.7-0.1c6.1,0,12.3,0,18.4,0
				c0.1,0,0.3,0,0.4,0c0,0.7,0,1.4,0,2.2c-0.2,0-0.5,0-0.7,0c-3,0-5.9,0-8.9,0c-0.2,0-0.5,0-0.7,0.1c-0.5,0.1-0.8,0.5-0.8,1
				s0.3,0.9,0.9,0.9c0.2,0,0.5,0,0.7,0c3,0,6,0,9,0c0.4,0,0.7,0.1,0.9,0.5c0.6,1.1,1.5,1.6,2.7,1.6c0.2,0,0.5,0.1,0.6,0.2
				c2.4,2.8,4.8,5.6,7.2,8.5c2.3,2.8,3.9,6,4.8,9.6c0.8,3.4,1,6.8,0.1,10.1c-1.1,4.2-3.5,7.3-7.1,9.7c-3.7,2.5-7.9,3.7-12.3,4.2
				c-4.8,0.5-9.4,0.1-14-1.3c-2.1-0.7-4.1-1.6-5.9-2.8v2.3c3,1.8,6.4,2.8,9.9,3.5c1.3,0.2,2.7,0.4,4,0.5c1.4,0,2.8,0,4.2,0
				c0.7-0.1,1.4-0.2,2.2-0.3c4.7-0.5,9-1.8,13-4.4c3.1-2,5.5-4.7,7-8.1c1.6-3.5,1.8-7.2,1.4-10.9c-0.5-4.2-1.9-8.1-4.4-11.5
				c-1.9-2.6-4.1-5-6.1-7.4c-0.6-0.8-1.3-1.5-1.9-2.3c1.4,0.2,2.7,0.5,4.1,0.8c2.7,0.6,5.4,1.3,8.1,1.8c1.6,0.3,3.1-0.8,3.4-2.4
				C117.1,29.9,116.1,28.4,114.4,27.9z M85.5,23.5c-2.1,0-4.1,0-6.2,0c-0.2,0-0.5-0.1-0.7-0.2c-2.1-2.4-3.5-5.2-4.2-8.4
				c2.2,0.7,4.5,1.1,6.7,1.1s4.5-0.2,6.9-0.3c0.3,2.7,1.3,5.3,2.6,7.9C88.8,23.5,87.2,23.5,85.5,23.5z M95.7,23.1
				c-0.1,0.2-0.4,0.3-0.6,0.4c-0.1,0-0.3,0-0.4,0c-1.5,0.3-2.2-0.4-2.8-1.8c-0.9-2.4-1.9-4.8-2-7.4c0-0.8-0.5-1.2-1.3-1.1
				c-1.2,0.2-2.4,0.4-3.6,0.5c-0.2-0.9-0.4-1.6-0.7-2.5c6.1,0.9,12.1,1,18.2-0.1c-0.9,3.3-2.3,6.3-3.8,9.2c-0.3,0.6-0.6,1-1.3,1.2
				C96.7,21.7,96.2,22.4,95.7,23.1z M99.6,28.6c0,0.8-0.4,1.2-1.1,1.2s-1.1-0.4-1.1-1.2c0-1.4,0-2.7,0-4.1c0-0.8,0.5-1.2,1.1-1.2
				s1.1,0.5,1.1,1.2v0.1c0,0.6,0,1.3,0,1.9l0,0C99.6,27.3,99.7,27.9,99.6,28.6z M104.7,24.1c2-0.6,4.1-1.1,6.1-1.7
				c0.8-0.2,1.4,0.1,1.5,0.7c0.2,0.6-0.2,1.2-0.9,1.4c-1.7,0.5-3.4,1-5.1,1.4c-0.2,0-0.4,0-0.6,0c-1.3-0.3-2.7-0.6-4-0.9v-0.1
				C102.7,24.6,103.7,24.3,104.7,24.1z M113.7,32c-0.7-0.1-1.4-0.3-2.1-0.4c-3.1-0.7-6.3-1.4-9.4-2.1c-0.2,0-0.4-0.1-0.6-0.2
				c0-0.8,0-1.5,0-2.3c0.6,0.1,1.2,0.2,1.8,0.4c3.4,0.8,6.8,1.5,10.2,2.4c0.4,0.1,0.8,0.3,1.1,0.7C115.2,31.2,114.6,32.1,113.7,32z"
				/>
		</g>
		<path class="st0" d="M34.3,80.3V46.5H71v38.6"/>
		<rect x="40.8" y="54" class="st0" width="26" height="2"/>
		<rect x="40.8" y="62" class="st0" width="26" height="2"/>
		<rect x="40.8" y="70" class="st0" width="26" height="2"/>
		<rect x="37.4" y="54" class="st0" width="1.8" height="2"/>
		<rect x="37.4" y="62" class="st0" width="1.8" height="2"/>
		<rect x="37.4" y="70" class="st0" width="1.8" height="2"/>
		<g>
			<path class="st0" d="M66.4,18.1c-4.9-0.9-9.8-1.8-14.8-2.7c1.1,1.9,2.1,3.8,3.1,5.6c-5.8,3.4-9.4,8-10.6,13.8
				c-0.7,3.1-0.4,6,0.9,8.7c-0.2-4.7,2.4-8.5,6.1-12.1c1.8-1.7,3.9-3.1,6-4.4c0.2-0.1,0.4-0.2,0.7-0.4c1,1.9,2,3.7,3.1,5.5
				c0.1,0,0.2,0,0.3,0c0-0.2,0-0.5,0.1-0.7c1.7-4.3,3.3-8.5,5-12.8C66.4,18.5,66.5,18.3,66.4,18.1C66.5,18.2,66.5,18.2,66.4,18.1z"
				/>
		</g>
		<g>
			<path class="st1" d="M95.2,48.9c-0.6,2.3-1.8,4.1-3.8,5.3s-4.3,1.2-6.7,1.1c0.2,0.2,0.3,0.3,0.4,0.5c3.2,3.2,6.4,6.4,9.6,9.6
				c0.5,0.5,0.8,1.1,0.6,1.8c-0.3,1.1-1.6,1.5-2.5,0.8c-0.1-0.1-0.3-0.2-0.4-0.3c-4.1-4.3-8.3-8.5-12.5-12.7
				c-0.4-0.4-0.7-0.9-0.6-1.6c0.1-0.8,0.8-1.4,1.7-1.4c2.1,0,4.1,0,6.2,0s3.7-1,4.6-2.9c0-0.1,0.1-0.2,0.1-0.3c-0.2,0-0.4,0-0.6,0
				c-3.4,0-6.8,0-10.3,0c-1.3,0-2.1-1.1-1.6-2.2c0.3-0.7,0.8-1,1.6-1c3,0,6,0,9,0c0.6,0,1.2,0,1.9,0c-0.7-1.7-1.9-2.8-3.7-3.1
				c-0.4-0.1-0.8-0.1-1.2-0.1c-2,0-4.1,0-6.1,0c-1.2,0-2-1.1-1.5-2.2c0.3-0.7,0.8-1,1.5-1c1,0,2.1,0,3.1,0c4.2,0,8.4,0,12.6,0
				c0.2,0,0.5,0,0.7,0c0.8,0.2,1.3,0.9,1.3,1.7c-0.1,0.8-0.7,1.5-1.6,1.5c-1.1,0-2.1,0-3.2,0c0.5,1.1,1,2.1,1.5,3.2c0.4,0,1,0,1.5,0
				c1,0,1.7,0.7,1.7,1.6c0,0.9-0.7,1.6-1.7,1.6C96.4,48.9,95.8,48.9,95.2,48.9z"/>
		</g>
	</g>
</g>
<g id="Layer_25">
</g>
</svg>
