<?xml version="1.0" encoding="utf-8"?>
<!-- Generator: Adobe Illustrator 23.0.0, SVG Export Plug-In . SVG Version: 6.00 Build 0)  -->
<svg version="1.1" id="Layer_1" xmlns="http://www.w3.org/2000/svg" xmlns:xlink="http://www.w3.org/1999/xlink" x="0px" y="0px"
	 viewBox="0 0 128 128" style="enable-background:new 0 0 128 128;" xml:space="preserve">
<style type="text/css">
	.st0{fill:none;}
	.st1{fill:#FFFFFF;stroke:#FFFFFF;stroke-width:4.7162;stroke-miterlimit:10;}
	.st2{fill:#FFFFFF;stroke:#FFFFFF;stroke-width:2.3581;stroke-miterlimit:10;}
	.st3{fill:#FFFFFF;}
</style>
<g id="Layer_9">
</g>
<g id="Layer_14">
</g>
<g id="term-finance1-w">
	<g>
		<path class="st0" d="M66.7,80.4c-10.4,0-19.1,7.7-20.6,17.8c3.7,1.9,7.7,3.3,11.8,4c0.2-0.6,0.8-0.9,1.5-0.9c1.9,0,3.9,0,5.8,0
			c2,0,3.3-0.9,4.1-2.7c0-0.1,0-0.1,0.1-0.2c-0.2,0-0.4,0-0.5,0c-3.1,0-6.2,0-9.3,0c-0.2,0-0.4,0-0.6,0c-0.7-0.1-1.2-0.8-1.2-1.5
			s0.6-1.3,1.4-1.4c0.1,0,0.4,0,0.5,0c3.1,0,6.1,0,9.2,0c0.1,0,0.4,0,0.5,0c-0.5-1.8-2.2-2.9-4.2-2.9c-1.8,0-3.5,0-5.3,0
			c-0.2,0-0.5,0-0.6,0c-0.8,0-1.5-0.7-1.5-1.5s0.6-1.4,1.5-1.5c0.1,0,0.2,0,0.4,0c4.7,0,9.4,0,14.3,0c0.2,0,0.4,0,0.6,0
			c0.7,0.1,1.3,0.8,1.2,1.5c-0.1,0.7-0.7,1.3-1.4,1.4c-0.9,0-2,0-2.9,0c0.5,0.9,0.9,2,1.4,2.9c0.4,0,0.9,0,1.4,0
			c0.9,0,1.5,0.6,1.5,1.5s-0.7,1.5-1.5,1.5c-0.5,0-1.1,0-1.5,0c-0.7,2.2-1.8,3.8-3.2,4.7c6.4-0.4,12.5-2.1,17.9-5
			C85.7,88.1,77.1,80.4,66.7,80.4z"/>
		<path class="st0" d="M62.6,77.8c0.9-0.1,1.8-0.2,2.7-0.4c0.9,0,1.9,0,2.8,0c0.8,0.1,1.7,0.2,2.4,0.4c5,0.8,9.3,2.9,12.9,6.6
			c3.5,3.5,5.8,7.7,6.7,12.1c13.1-8,21.8-22.4,21.8-38.8c0-25-20.4-45.4-45.4-45.4S21.2,32.8,21.1,57.7c0,16.5,9,31,22.2,39
			c0.8-4.2,2.7-8,5.7-11.3C52.6,81.2,57.2,78.8,62.6,77.8z M63.1,24.5c0-2.6,2-4.2,4.4-3.7c1.7,0.4,2.6,1.8,2.6,3.5c0,5,0,9.9,0,15
			c0,4.5,0,8.8,0,13.3c0,0.4,0,0.7,0,1.3c0.6,0,0.9,0,1.3,0c6.8,0,13.7,0,20.5,0c2.1,0,3.5,0.9,3.9,2.7c0.5,1.9-0.8,3.9-2.7,4.1
			C92.7,61,92.2,61,91.8,61c-9.3,0-18.6,0-27.9,0c-0.2,0-0.6,0-0.8,0c0-0.4-0.1-0.6-0.1-0.8C63.1,48.2,63,36.3,63.1,24.5z"/>
		<path class="st0" d="M72,113.4c0.5,0.5,0.7,0.9,0.5,1.7c-0.4,0.9-1.4,1.4-2.2,0.7c-0.1-0.1-0.2-0.2-0.4-0.4
			c-1.9-1.9-3.7-3.7-5.5-5.5c-2.8-0.1-5.7-0.5-8.6-1.1c-3.3-0.7-6.4-1.7-9.3-2.8c2.1,9.2,10.4,16,20.3,16s18.3-7,20.4-16.3
			c-5.9,2.6-12,4-18.4,4.1C69.8,111.2,70.9,112.3,72,113.4z"/>
		<path class="st1" d="M118,48.7c-2.1-11.9-7.8-21.9-16.7-29.9C92.9,11.2,83,7,71.7,5.7c-0.7-0.1-1.5-0.1-2.2-0.2c-2,0-4.1,0-6.1,0
			c-2,0.2-4,0.5-5.9,0.8c-12,2.1-22.2,7.8-30.2,17c-7.4,8.4-11.7,18.2-12.9,29.2c-1.3,13.7,2.1,26.1,10.4,36.9
			c5,6.6,11.2,11.8,18.2,15.2c-0.1-0.6-0.1-1.3-0.2-1.9c0-0.9,0-1.9,0-2.8c0-0.4,0.1-0.7,0.1-0.9c0.1-0.7,0.2-1.5,0.4-2.2
			C30,88.9,21,74.3,21.1,57.8c0-25,20.4-45.3,45.3-45.4s45.4,20.4,45.4,45.4c0,16.4-8.7,30.8-21.8,38.8c0.5,2.2,0.6,4.7,0.4,7.2
			c0,0.2-0.1,0.4-0.1,0.6c2.7-1.4,5.3-3.1,7.8-5c10.4-7.8,16.9-18.2,19.6-30.9c0.5-2.1,0.6-4.4,0.9-6.6c0-0.4,0.1-0.7,0.2-1.1
			c0-2,0-4.1,0-6.1C118.6,52.6,118.4,50.6,118,48.7z"/>
		<path class="st2" d="M58.3,66.4c9.3,0,18.6,0,27.9,0c0.4,0,0.8,0,1.2-0.1c2-0.4,3.2-2.2,2.7-4.1c-0.5-1.8-1.8-2.7-3.9-2.7
			c-6.8,0-13.7,0-20.5,0c-0.4,0-0.8,0-1.3,0c0-0.6,0-0.9,0-1.3c0-4.5,0-8.8,0-13.3c0-5,0-9.9,0-14.9c0-1.8-1.1-3.2-2.6-3.5
			c-2.4-0.6-4.4,1.1-4.4,3.7c0,11.8,0,23.6,0,35.5c0,0.2,0,0.5,0.1,0.8C57.9,66.4,58.1,66.4,58.3,66.4z"/>
		<path class="st2" d="M66.7,80.4c10.4,0,19,7.7,20.5,17.6c0.9-0.5,1.9-0.9,2.7-1.5c-0.9-4.5-3.2-8.6-6.7-12.1s-7.9-5.7-12.9-6.6
			c-0.8-0.1-1.5-0.2-2.4-0.4c-0.9,0-1.9,0-2.8,0c-0.9,0.1-1.8,0.2-2.7,0.4c-5.4,0.9-10,3.5-13.7,7.5c-2.9,3.3-4.8,7.1-5.7,11.3
			c0.9,0.5,1.8,1.1,2.7,1.5C47.5,88.1,56.2,80.4,66.7,80.4z"/>
		<path class="st2" d="M66.9,120.9c-9.8,0-20.4-10.9-21.3-20.4c-1.2-0.5-1.5,4.6-2.6,4.1c0,0.2,0.1,0.5,0.1,0.8
			c1.3,7.2,5.1,12.6,11.3,16.4c4,2.5,8.4,3.5,13.1,3.3c6.7-0.4,12.8-3,17.2-8c3.3-3.7,4.9-8,5.4-12.8c-1.1,0.6-1.5-4.6-2.7-4.1
			C86.2,111.5,76.9,120.9,66.9,120.9z"/>
		<path class="st3" d="M45.9,101.2c0-1.1,0.1-2.1,0.2-3.1c-0.9-0.5-1.9-0.9-2.7-1.5c-0.1,0.7-0.2,1.4-0.4,2.2c0,0.4-0.1,0.7-0.1,0.9
			c0,0.9,0,1.9,0,2.8c0.1,0.6,0.1,1.3,0.2,1.9c1.1,0.5,2.1,1.1,3.3,1.5C46,104.5,45.9,102.9,45.9,101.2z"/>
		<path class="st3" d="M90.1,96.5c-0.9,0.6-1.9,1.1-2.7,1.5c0.1,1.1,0.2,2.1,0.2,3.3c0,1.5-0.2,3.1-0.5,4.6c1.1-0.5,2.2-1.1,3.3-1.5
			c0-0.2,0.1-0.4,0.1-0.6C90.7,101.2,90.5,98.7,90.1,96.5z"/>
		<path class="st3" d="M69.3,102.9c1.4-0.9,2.5-2.5,3.2-4.7c0.5,0,0.9,0,1.5,0c0.9,0,1.5-0.6,1.5-1.5s-0.7-1.5-1.5-1.5
			c-0.5,0-1.1,0-1.4,0c-0.5-1.1-0.9-2-1.4-2.9c0.9,0,1.9,0,2.9,0c0.8,0,1.4-0.6,1.4-1.4s-0.5-1.4-1.2-1.5c-0.2,0-0.4,0-0.6,0
			c-4.7,0-9.4,0-14.3,0c-0.1,0-0.2,0-0.4,0c-0.8,0-1.5,0.7-1.5,1.5s0.6,1.4,1.5,1.5c0.2,0,0.5,0,0.6,0c1.8,0,3.5,0,5.3,0
			c2,0,3.8,1.3,4.2,2.9c-0.2,0-0.4,0-0.5,0c-3.1,0-6.1,0-9.2,0c-0.1,0-0.4,0-0.5,0c-0.7,0.1-1.3,0.6-1.4,1.4
			c-0.1,0.8,0.5,1.4,1.2,1.5c0.2,0,0.4,0,0.6,0c3.1,0,6.2,0,9.3,0c0.1,0,0.4,0,0.5,0c0,0.1,0,0.1-0.1,0.2c-0.8,1.8-2.2,2.7-4.1,2.7
			s-3.9,0-5.8,0c-0.7,0-1.3,0.4-1.5,0.9c2.8,0.6,5.7,0.8,8.6,0.8C67.4,103.1,68.4,102.9,69.3,102.9z"/>
		<path class="st3" d="M64.4,110c1.9,1.9,3.7,3.7,5.5,5.5c0.1,0.1,0.2,0.2,0.4,0.4c0.8,0.6,2,0.2,2.2-0.7c0.2-0.7,0-1.2-0.5-1.7
			c-1.2-1.2-2.4-2.4-3.4-3.4C67.2,110,65.8,110,64.4,110z"/>
		<path class="st3" d="M58.1,103.9c2.1,2.1,4.3,4.2,6.4,6.3c1.5,0.4,2.8,0.3,4.2,0c-1.8-1.8-3.6-3.7-5.4-5.7
			c-0.1-0.1-0.2-0.2-0.5-0.5c2.7,0.2,5-0.1,6.8-1.2c-1,0.1-2,0.2-2.9,0.1c-3.1-0.4-5.7-0.8-8.8-0.9c-0.1,0.1-0.2,0.2-0.2,0.4
			C57.4,102.9,57.6,103.4,58.1,103.9z"/>
	</g>
</g>
<g id="Layer_25">
</g>
</svg>
