<?xml version="1.0" encoding="utf-8"?>
<!-- Generator: Adobe Illustrator 23.0.0, SVG Export Plug-In . SVG Version: 6.00 Build 0)  -->
<svg version="1.1" id="Layer_1" xmlns="http://www.w3.org/2000/svg" xmlns:xlink="http://www.w3.org/1999/xlink" x="0px" y="0px"
	 viewBox="0 0 128 128" style="enable-background:new 0 0 128 128;" xml:space="preserve">
<style type="text/css">
	.st0{fill:#FFFFFF;stroke:#FFFFFF;stroke-width:2;stroke-miterlimit:10;}
	.st1{fill:#FFFFFF;stroke:#FFFFFF;stroke-miterlimit:10;}
</style>
<g id="Layer_9">
</g>
<g id="Layer_14">
</g>
<g id="term-deposit">
	<g>
		<g>
			<path class="st0" d="M23,86.4c0.4-0.5,0.8-0.8,1.5-0.8c1.8-0.2,3.3-1.1,4.2-2.6c-0.2-0.1-0.5-0.1-0.7-0.2
				c-0.7-0.3-1.4-0.5-2.1-0.8c-2-1-2.5-2.8-1.4-4.5c1.2-1.9,3.2-2.4,5-1.1c1.4,1,2.1,2.4,2.3,4.1c0,0.2,0,0.4,0.3,0.6
				c0.1-0.2,0.2-0.4,0.2-0.7c1.2-6.9,4.9-12.1,10.9-15.7c0.8-0.5,1.5-0.3,1.8,0.3c0.4,0.6,0.2,1.3-0.7,1.7c-4,2.4-7,5.6-8.6,10
				c-2.3,6.4-2.2,12.8,0.9,19c1.8,3.6,4.6,6.3,8.2,8.3c1.1,0.6,1.7,1.4,1.9,2.7c0.4,2.4,0.9,4.7,1.3,7.1c0.1,0.6,0.4,0.8,0.9,0.8
				c1.6,0,3.2,0,4.8,0c0.6,0,0.9-0.3,1-0.8c0.2-1.3,0.5-2.6,0.7-3.8c0.3-1.5,0.9-2,2.4-1.9c4.1,0.4,8.1,0.3,12.2-0.3
				c1.2-0.2,1.9,0.5,2.2,1.7c0.3,1.4,0.6,2.8,0.8,4.2c0.1,0.7,0.4,0.9,1.1,0.9c1.5,0,3.1-0.1,4.6,0c0.7,0,0.9-0.3,1.1-0.9
				c0.5-2.7,1-5.5,1.5-8.2c0.1-0.8,0.5-1.3,1.2-1.7c3.9-2.1,7.2-4.9,9.5-8.8c0.5-0.8,1.3-1.3,2.2-1.6c1.5-0.5,3.1-1,4.6-1.5
				c1.4-0.4,1.8-1,1.8-2.5c0-1.6,0-3.2,0-4.8c0-1.2-0.5-1.8-1.6-2.2c-0.9-0.3-1.9-0.6-2.8-0.9c-1.4-0.4-2.3-1.3-2.8-2.7
				c-0.7-2.1-1.7-4-3.1-5.8c-0.1-0.2-0.3-0.3-0.4-0.5c0,0-0.1,0-0.2-0.1c-0.1,0.2-0.2,0.4-0.3,0.7c-1.1,2.8-3.2,3.9-6.1,3.9
				c-5.3,0-9.2-3.8-9.3-9.1c0-1.4,0.2-2.8,0.3-4.3c-0.5-0.1-1.2-0.3-1.8-0.4c-0.1,0-0.3,0.1-0.4,0.2c-0.7,0.8-1.3,1.7-2.1,2.4
				c-0.7,0.7-1.6,1.3-2.4,2.1c0.6,0.2,1.2,0.4,1.8,0.6c0.8,0.3,1.2,0.8,0.9,1.5c-0.2,0.7-0.8,0.9-1.7,0.7c-3.1-1-6.3-1.5-9.5-1.5
				s-6.3,0.4-9.3,1.4c-0.3,0.1-0.5,0.2-0.8,0.2c-0.7,0.1-1.1-0.1-1.4-0.7c-0.2-0.6,0.1-1.2,0.7-1.5c0.7-0.3,1.3-0.4,2.1-0.7
				c-0.2-0.2-0.4-0.3-0.5-0.4C44.6,63.7,42,57.2,43.4,51c1.5-6.4,6.6-11.2,13.1-12.2s13.2,2.2,16.3,8.1c0.5,1,0.4,1.7-0.3,2
				c-0.7,0.3-1.2,0.1-1.8-0.9c-2.8-4.8-6.9-7.2-12.4-7.1C52.1,41,46.6,45.8,45.5,52c-1,6.4,2.5,12.7,8.3,15c0.4,0.1,0.8,0.2,1.2,0.1
				c2.7-0.3,5.3-0.3,7.9,0c0.5,0.1,1,0,1.4-0.2c4.9-2.3,7.6-6.1,8.1-11.4c0.1-0.7,0.2-1.3,0.9-1.4c0.8-0.2,1.4,0.4,1.4,1.2
				c0,1.8-0.5,3.5-1.1,5.2c-0.1,0.2-0.1,0.3-0.2,0.6c1.1,0.2,2.1,0.7,3.3,0.1c3-1.5,6.1-2.7,9.3-3.4c0.3,0,0.5-0.1,0.8-0.1
				c2.6-0.3,3.7,0.5,4.1,3.1c0.4,2.8,0.2,5.6-0.3,8.4c-0.1,0.3,0.1,0.8,0.3,1c2.1,2.3,3.7,4.9,4.6,7.9c0.2,0.7,0.6,1.1,1.3,1.3
				c1,0.3,2,0.6,3,0.9c1.9,0.7,3,2.2,3,4.2c0,1.8,0,3.6,0,5.4c0,2-1.2,3.5-3,4.2c-1.7,0.6-3.3,1-5,1.6c-0.4,0.2-0.9,0.5-1.1,0.9
				c-2.4,3.9-5.7,6.8-9.7,9.1c-0.4,0.3-0.7,0.5-0.8,1.1c-0.5,2.6-1,5.2-1.5,7.8c-0.3,1.7-1.4,2.5-3.1,2.5s-3.4,0-5.1,0
				c-1.6,0-2.7-0.9-3-2.4c-0.3-1.4-0.6-2.8-0.8-4.3c-2.1,0.1-4.1,0.3-6.2,0.3c-2,0.1-4,0-6.2,0c-0.2,1.1-0.5,2.4-0.7,3.7
				c-0.3,1.8-1.4,2.7-3.2,2.7c-1.6,0-3.2,0-4.8,0c-1.9,0-3-0.9-3.3-2.7c-0.5-2.4-0.9-4.8-1.4-7.3c-0.1-0.3-0.3-0.7-0.6-0.8
				C37,102.6,33,97.3,31.8,90c-0.3-2.1-0.4-4.2-0.5-6.4c-0.3-0.2-0.5,0.1-0.7,0.4c-1.2,1.9-2.8,3.4-5.1,4c-0.1,0-0.5,0-0.9,0
				c-0.7,0.1-1.3-0.2-1.6-0.8C23,87,23,86.7,23,86.4z M89,63.8c-0.1-0.9-0.1-1.9-0.3-2.8c-0.2-1.1-0.4-1.3-1.5-1
				c-3.4,0.7-6.6,2-9.7,3.5c-0.4,0.2-0.7,0.7-0.8,1.1c-0.2,1.4-0.4,2.7-0.3,4.1c0.2,3.1,2.2,5.4,5.2,6c4,0.8,5-0.3,6-3.3
				C88.5,68.9,88.9,66.4,89,63.8z M29.5,80.9c-0.3-1.3-0.6-2.3-1.7-2.8c-0.7-0.3-1,0.2-1.3,0.7s0,0.9,0.4,1.1
				C27.6,80.3,28.4,80.5,29.5,80.9z"/>
			<path class="st0" d="M86.3,85.1c-2,0-3.6-1.5-3.8-3.4c-0.1-0.8,0.3-1.4,0.9-1.5c0.7-0.1,1.2,0.3,1.4,1.1c0.2,0.9,0.7,1.4,1.4,1.4
				c0.8,0,1.3-0.5,1.5-1.5c0.1-0.8,0.6-1.2,1.3-1.1c0.7,0.1,1.1,0.6,1,1.4C90,83.6,88.3,85.1,86.3,85.1z"/>
		</g>
		<g>
			<path class="st1" d="M60.3,52.8c-0.5,0-1.1,0-1.6,0c-1.1,0-2.3,0-3.4,0c-0.6,0-0.9-0.5-0.7-1c0.1-0.3,0.4-0.5,0.8-0.5
				c1.5,0,3.1,0,4.6,0c0.1,0,0.2,0,0.4,0c-0.3-0.8-0.9-1.3-1.7-1.5c-0.2,0-0.4,0-0.7,0c-0.9,0-1.8,0-2.7,0c-0.6,0-0.9-0.5-0.7-1
				c0.1-0.3,0.4-0.5,0.7-0.5c0.7,0,1.3,0,2,0c1.8,0,3.5,0,5.3,0c0.6,0,1,0.5,0.8,1c-0.1,0.3-0.4,0.5-0.7,0.5c-0.5,0-1,0-1.4,0
				c0.2,0.5,0.5,1,0.7,1.5c0.2,0,0.5,0,0.7,0c0.5,0,0.8,0.3,0.8,0.7s-0.3,0.7-0.8,0.7c-0.3,0-0.5,0-0.8,0c-0.7,2.4-2.5,3.2-4.8,3
				c0,0,0,0,0,0.1c0.1,0.1,0.1,0.1,0.2,0.2c1.5,1.5,2.9,2.9,4.4,4.4c0.2,0.2,0.3,0.5,0.3,0.8c-0.2,0.5-0.7,0.7-1.2,0.4
				c-0.1,0-0.1-0.1-0.2-0.2c-1.9-1.9-3.9-3.9-5.8-5.8c-0.2-0.2-0.3-0.4-0.3-0.7c0.1-0.4,0.4-0.6,0.8-0.6c1,0,1.9,0,2.9,0
				s1.7-0.5,2.1-1.4C60.3,52.9,60.3,52.9,60.3,52.8z"/>
		</g>
		<g>
			<path class="st1" d="M86.1,37.6c-0.6,0-1.1,0-1.6,0c-1.1,0-2.3,0-3.4,0c-0.6,0-0.9-0.5-0.7-1c0.1-0.3,0.4-0.5,0.8-0.5
				c1.5,0,3.1,0,4.6,0c0.1,0,0.2,0,0.4,0c-0.3-0.8-0.9-1.3-1.7-1.5c-0.2,0-0.4,0-0.7,0c-0.9,0-1.8,0-2.7,0c-0.6,0-0.9-0.5-0.7-1
				c0.1-0.3,0.4-0.5,0.7-0.5c0.7,0,1.3,0,2,0c1.8,0,3.5,0,5.3,0c0.6,0,1,0.5,0.8,1c-0.1,0.3-0.4,0.5-0.7,0.5c-0.5,0-1,0-1.4,0
				c0.2,0.5,0.4,1,0.7,1.5c0.2,0,0.5,0,0.7,0c0.5,0,0.8,0.3,0.8,0.7s-0.3,0.7-0.8,0.7c-0.3,0-0.5,0-0.8,0c-0.7,2.4-2.5,3.2-4.8,3
				c0,0,0,0,0,0.1c0.1,0.1,0.1,0.1,0.2,0.2c1.5,1.5,2.9,2.9,4.4,4.4c0.2,0.2,0.3,0.5,0.3,0.8c-0.2,0.5-0.7,0.7-1.2,0.4
				c-0.1,0-0.1-0.1-0.2-0.2c-1.9-1.9-3.9-3.9-5.8-5.8c-0.2-0.2-0.3-0.4-0.3-0.7c0.1-0.4,0.4-0.6,0.8-0.6c1,0,1.9,0,2.9,0
				s1.7-0.5,2.1-1.4C86.1,37.7,86.1,37.6,86.1,37.6z"/>
		</g>
		<g>
			<path class="st1" d="M62.2,23.2c-0.5,0-1.1,0-1.6,0c-1.1,0-2.3,0-3.4,0c-0.6,0-0.9-0.5-0.7-1c0.1-0.3,0.4-0.5,0.8-0.5
				c1.5,0,3.1,0,4.6,0c0.1,0,0.2,0,0.4,0c-0.3-0.8-0.9-1.3-1.7-1.5c-0.2,0-0.4,0-0.7,0c-0.9,0-1.8,0-2.7,0c-0.6,0-0.9-0.5-0.7-1
				c0.1-0.3,0.4-0.5,0.7-0.5c0.7,0,1.3,0,2,0c1.8,0,3.5,0,5.3,0c0.6,0,1,0.5,0.8,1c-0.1,0.3-0.4,0.5-0.7,0.5c-0.5,0-1,0-1.4,0
				c0.2,0.5,0.5,1,0.7,1.5c0.2,0,0.5,0,0.7,0c0.5,0,0.8,0.3,0.8,0.7s-0.3,0.7-0.8,0.7c-0.3,0-0.5,0-0.8,0c-0.7,2.4-2.5,3.2-4.8,3
				c0,0,0,0,0,0.1c0.1,0.1,0.1,0.1,0.2,0.2c1.5,1.5,2.9,2.9,4.4,4.4c0.2,0.2,0.3,0.5,0.3,0.8c-0.2,0.5-0.7,0.7-1.2,0.4
				c-0.1,0-0.1-0.1-0.2-0.2c-1.9-1.9-3.9-3.9-5.8-5.8c-0.2-0.2-0.3-0.4-0.3-0.7c0.1-0.4,0.4-0.6,0.8-0.6c1,0,1.9,0,2.9,0
				s1.7-0.5,2.1-1.4C62.2,23.3,62.2,23.3,62.2,23.2z"/>
		</g>
		<path class="st0" d="M61,10.3c-7.9,0-14.3,6.4-14.3,14.3S53.1,38.9,61,38.9s14.3-6.4,14.3-14.3S68.9,10.3,61,10.3z M61,37.3
			c-7,0-12.7-5.7-12.7-12.7S54,11.8,61,11.8s12.7,5.7,12.7,12.7S68,37.3,61,37.3z"/>
		<path class="st0" d="M84.4,24.6c-7.9,0-14.3,6.4-14.3,14.3s6.4,14.3,14.3,14.3s14.3-6.4,14.3-14.3C98.7,31,92.3,24.6,84.4,24.6z
			 M84.4,51.6c-7,0-12.7-5.7-12.7-12.7s5.7-12.7,12.7-12.7s12.7,5.7,12.7,12.7S91.4,51.6,84.4,51.6z"/>
	</g>
</g>
<g id="Layer_25">
</g>
</svg>
