<?xml version="1.0" encoding="utf-8"?>
<!-- Generator: Adobe Illustrator 23.0.0, SVG Export Plug-In . SVG Version: 6.00 Build 0)  -->
<svg version="1.1" id="Layer_1" xmlns="http://www.w3.org/2000/svg" xmlns:xlink="http://www.w3.org/1999/xlink" x="0px" y="0px"
	 viewBox="0 0 128 128" style="enable-background:new 0 0 128 128;" xml:space="preserve">
<style type="text/css">
	.st0{fill:#FFFFFF;}
	.st1{fill:none;stroke:#FFFFFF;stroke-width:3.2837;stroke-miterlimit:10;}
	.st2{fill:#FFFFFF;stroke:#FFFFFF;stroke-width:1.0946;stroke-miterlimit:10;}
</style>
<g id="Layer_9">
</g>
<g id="Layer_14">
</g>
<g id="vehicle-loan-small-road-transportar-w">
	<g>
		<g>
			<path class="st0" d="M78.5,76.9c11.7,0,23.4,0,35.1,0c0.4,0,0.9,0,1.2,0c1,0.1,1.6,0.8,1.8,1.6c0,0.9-0.7,1.5-1.6,1.8
				c-0.3,0-0.7,0-1,0c-23.6,0-47.3,0-70.9,0c-0.4,0-0.9,0-1.3-0.1c-0.9-0.2-1.4-0.9-1.3-1.8c0-0.9,0.5-1.4,1.4-1.5
				c0.4-0.1,1-0.1,1.4-0.1C54.9,76.9,66.7,76.9,78.5,76.9z"/>
			<path class="st0" d="M27.4,94.9c-0.9,0-1.6-0.8-1.8-1.6c0-0.9,0.7-1.6,1.6-1.8c1-0.1,1.8,0.7,1.8,1.6
				C29.1,94.1,28.3,94.9,27.4,94.9z"/>
			<path class="st0" d="M103.7,93.2c0,0.9-0.8,1.6-1.6,1.8c-0.9,0-1.6-0.7-1.8-1.6c0-1,0.8-1.8,1.6-1.8
				C103.1,91.6,103.7,92.2,103.7,93.2z"/>
			<path class="st0" d="M87.5,94.9c-0.9,0-1.6-0.8-1.6-1.6c0-1,0.8-1.8,1.8-1.6c0.9,0,1.6,0.8,1.6,1.8
				C89.2,94.1,88.4,94.9,87.5,94.9z"/>
		</g>
		<g>
			<path class="st1" d="M36.4,84.2c1.3,0,2.5,0,3.7,0c1,0,1.5,0.5,1.6,1.5c0,1-0.5,1.5-1.4,1.8c-0.4,0.1-0.9,0.1-1.2,0.1
				c-1.4,0-3,0-4.5,0c0.4,1,1,2,1.3,2.8c0.2,0.9,0.7,1,1.4,1c6.2,0,12.5,0,18.7,0c7.1,0,14.3,0,21.5,0c0.4,0,1-0.1,1.2-0.3
				c0.5-1.1,1-2.3,1.4-3.5c-0.4,0-0.9,0-1.3,0c-10.1,0-20.2,0-30.3,0c-0.5,0-1.2,0.1-1.5-0.2c-0.5-0.3-1.1-1-1.2-1.5
				c-0.1-0.8,0.4-1.4,1.3-1.5c0.5-0.1,1.1-0.1,1.6-0.1c23.4,0,46.7,0,70.2,0c0.4,0,1,0,1.5,0c0-4,0-8.1,0-12H40.2V44
				c-1.3,0-2.5,0-3.8,0C36.4,57.3,36.4,70.7,36.4,84.2z"/>
			<path class="st0" d="M120.6,84.2c-0.5,0-1.1,0-1.5,0c-23.4,0-46.8,0-70.3,0c-0.5,0-1.1,0-1.6,0.1c-0.9,0.1-1.4,0.8-1.3,1.5
				c0.1,0.5,0.7,1.2,1.2,1.5c0.3,0.2,1,0.2,1.5,0.2c10.2,0,20.2,0,30.4,0c0.4,0,0.9,0,1.3,0c-0.5,1.2-0.9,2.4-1.4,3.5
				c-0.1,0.2-0.8,0.3-1.2,0.3c-7.2,0-14.3,0-21.6,0c-6.2,0-12.5,0-18.8,0c-0.8,0-1.2-0.1-1.4-1c-0.2-1-0.8-1.9-1.3-2.8
				c1.5,0,3,0,4.5,0c0.4,0,0.9,0,1.2-0.1c1-0.2,1.5-0.8,1.4-1.8c0-1-0.7-1.5-1.6-1.5c-1.2-0.1-2.5,0-3.7,0c0-13.6,0-26.9,0-40.3
				c1.3,0,2.5,0,3.8,0v-3.5c-1,0-1.9,0-2.8,0c-0.2,0-0.5,0-0.8,0C34.4,40.4,33,41.8,33,44c0,1.6,0,3.2,0,4.8c0,0.8,0,1.5,0,2.4
				c-0.5,0-1,0-1.4,0c-4.3,0-8.5,0-12.9,0c-0.9,0-1.8,0-2.6,0.1c-1.4,0.3-1.8,1.8-0.9,2.7c0.2,0.2,0.4,0.3,0.7,0.5
				c-1.4,4.2-2.7,8.3-4.2,12.4c-0.3,0.9-0.9,1.8-1.4,2.3c-1.2,1.2-2.3,2.4-2.8,4c0,5.6,0,11.3,0,16.9c0.9,2.1,2.4,2.8,4.6,2.7
				c2.1-0.1,4.2,0,6.2,0c0.1,0.5,0.1,0.9,0.2,1.3c0.5,4.4,3.9,7.4,8.6,7.8c3.7,0.3,7.7-2.5,8.8-6.2c0.2-0.8,0.5-1,1.3-1
				c13.5,0,27,0,40.5,0c0.8,0,1.1,0.2,1.3,1c1.8,5.7,8.5,8.1,13.5,4.8c0.9-0.5,1.6-1.3,2.4-2.1c2.4,2.8,5.5,4.2,9.2,3.4
				c3.7-0.9,5.9-3.4,7-7c1.3,0,2.5,0,3.7,0c2.3-0.1,3.6-1.5,3.7-3.7c0-1.1,0-2.3,0-3.5c0.7,0,1.3,0,1.9,0c2.2-0.1,3.6-1.5,3.6-3.7
				c0-3.9,0-7.8,0-11.7h-3.5C120.6,76.1,120.6,80.2,120.6,84.2z M15.9,65.5c0.4-1.1,0.5-2.6,1.3-3.3c0.8-0.5,2.2-0.2,3.4-0.2
				c1.6,0,3.3,0,4.9,0c0,2.6,0,4.9,0,7.4c-3.6,0-7.2,0-10.9,0C15.1,68.1,15.5,66.8,15.9,65.5z M19.3,89.2c-0.1,0.2-0.4,0.5-0.8,0.5
				c-2.5,0-5,0-7.7,0c0-2.5,0-4.9,0-7.4c1.3-0.3,3.5,0.4,3.5-1.9c0-2.2-2.1-1.4-3.5-1.8c0-1.4-0.1-2.8,0-4.2
				c0.1-0.9,0.5-1.4,1.6-1.4c4,0,8.1,0,12.1,0c3.1,0,4.4-1.2,4.4-4.3c0-2.5,0-5,0-7.7c0-1.9-0.5-2.4-2.4-2.4c-2.3,0-4.6,0-6.9,0
				c-0.4,0-0.9,0-1.4,0c0.4-1.3,0.8-2.4,1.1-3.4c0.1-0.2,0.4-0.4,0.7-0.4c4.3,0,8.4,0,12.8,0c0,9.9,0,19.6,0,29.4
				c-1.6,0-3.2,0-4.8,0C24.3,84.1,21.3,85.7,19.3,89.2z M27.3,98.8c-3.1,0-5.6-2.6-5.5-5.7c0-3.1,2.5-5.6,5.6-5.5
				c3.1,0,5.6,2.5,5.5,5.6C32.9,96.3,30.4,98.8,27.3,98.8z M87.5,98.8c-3.1,0-5.6-2.5-5.6-5.6s2.4-5.6,5.5-5.6S93,90,93,93.1
				C93.1,96.2,90.6,98.7,87.5,98.8z M102.1,98.8c-3.1,0-5.6-2.5-5.6-5.6s2.4-5.6,5.5-5.6s5.6,2.5,5.6,5.5
				C107.7,96.2,105.1,98.7,102.1,98.8z M114.9,91.5c-1.3,0-2.5,0-3.8,0c-0.5-1.2-1.1-2.4-1.6-3.7c1.9,0,3.6,0,5.5,0
				C114.9,88.9,114.9,90.1,114.9,91.5z"/>
			<path class="st0" d="M123.9,72.2"/>
		</g>
		<g>
			<path class="st1" d="M73.2,52.1c-2.2-2.6-5.6-4.3-9.3-4.3c-6.7,0-12.1,5.5-12.1,12.1S57.3,72,63.9,72c3.7,0,7-1.6,9.3-4.3
				c-1.9-2.1-3-4.9-3-7.9S71.4,54.2,73.2,52.1z"/>
			<path class="st1" d="M73.2,67.8c2.2,2.6,5.6,4.3,9.3,4.3c3.4,0,6.5-1.4,8.6-3.6"/>
			<path class="st1" d="M91.1,51.4c-2.2-2.3-5.3-3.6-8.6-3.6c-3.7,0-7,1.6-9.3,4.3"/>
			<path class="st1" d="M73.2,52.1c-1.9,2.1-3,4.9-3,7.9s1.1,5.7,3,7.9"/>
			<path class="st1" d="M99.7,47.5c-3.4,0.1-6.5,1.5-8.6,3.8c2.2,2.2,3.6,5.1,3.6,8.4c0,0.2,0,0.3,0,0.5c-0.1,3.1-1.3,5.9-3.3,8
				c2.3,2.2,5.4,3.6,8.8,3.5c6.7-0.1,12-5.7,11.9-12.4S106.3,47.3,99.7,47.5z"/>
		</g>
		<path class="st1" d="M81.1,47.8c-1.4-2-2.3-4.5-2.3-7.2c0-6.8,5.5-12.3,12.3-12.3s12.3,5.5,12.3,12.3c0,2.6-0.8,5-2.2,7"/>
		<path class="st1" d="M56.4,49.3c-1.4-2-2.3-4.5-2.3-7.2c0-6.8,5.5-12.3,12.3-12.3s12.3,5.5,12.3,12.3c0,2.6-0.8,5-2.2,7"/>
		<g>
			<path class="st2" d="M63.7,57.5c-0.2-0.8-1-1.3-2-1.3c-0.8,0-1.5,0-2.3,0c-0.1,0-0.2,0-0.3,0c-0.4,0-0.7-0.3-0.7-0.7
				s0.3-0.7,0.7-0.7h0.1c2.2,0,4.4,0,6.5,0c0.1,0,0.2,0,0.3,0c0.3,0.1,0.5,0.3,0.5,0.8s-0.3,0.7-0.7,0.7c-0.4,0-0.9,0-1.3,0
				c0.2,0.4,0.4,0.9,0.7,1.3c0.2,0,0.4,0,0.7,0c0.4,0,0.8,0.3,0.8,0.7S66.3,59,65.8,59c-0.2,0-0.4,0-0.7,0c-0.7,2.2-2.2,3-4.5,2.7
				c0.1,0.1,0.1,0.2,0.2,0.2c1.3,1.3,2.7,2.7,4,4c0.2,0.2,0.3,0.4,0.2,0.8c-0.1,0.4-0.7,0.7-1.1,0.3l0.1-0.1
				c-1.8-1.8-3.5-3.5-5.3-5.3c-0.2-0.2-0.3-0.4-0.2-0.7c0-0.3,0.3-0.5,0.8-0.5c0.9,0,1.8,0,2.6,0s1.5-0.4,1.9-1.2c0,0,0,0,0-0.1
				c-0.1,0-0.1,0-0.2,0c-1.4,0-2.8,0-4.3,0c-0.1,0-0.2,0-0.3,0c-0.3-0.1-0.5-0.3-0.5-0.8s0.3-0.5,0.7-0.7c0.1,0,0.1,0,0.2,0
				c1.4,0,2.8,0,4.2,0C63.5,57.5,63.5,57.5,63.7,57.5z"/>
		</g>
		<g>
			<path class="st2" d="M81.9,56.5c-0.2-0.8-1-1.3-2-1.3c-0.8,0-1.5,0-2.3,0c-0.1,0-0.2,0-0.3,0c-0.4,0-0.7-0.3-0.7-0.7
				s0.3-0.7,0.7-0.7h0.1c2.2,0,4.4,0,6.5,0c0.1,0,0.2,0,0.3,0c0.3,0.1,0.5,0.3,0.5,0.8s-0.3,0.7-0.7,0.7c-0.4,0-0.9,0-1.3,0
				c0.2,0.4,0.4,0.9,0.7,1.3c0.2,0,0.4,0,0.7,0c0.4,0,0.8,0.3,0.8,0.7c0,0.3-0.3,0.7-0.8,0.7c-0.2,0-0.4,0-0.7,0
				c-0.7,2.2-2.3,3-4.5,2.7c0.1,0.1,0.1,0.2,0.2,0.2c1.3,1.3,2.6,2.7,4,4c0.2,0.2,0.3,0.4,0.2,0.8c-0.1,0.4-0.7,0.7-1.1,0.3
				c-0.1,0-0.1-0.1-0.1-0.1c-1.8-1.8-3.5-3.5-5.3-5.3c-0.2-0.2-0.3-0.4-0.2-0.7c0.1-0.3,0.3-0.5,0.8-0.5c0.9,0,1.8,0,2.6,0
				s1.5-0.4,1.9-1.2c0,0,0,0,0-0.1c-0.1,0-0.1,0-0.2,0c-1.4,0-2.8,0-4.3,0c-0.1,0-0.2,0-0.3,0c-0.3-0.1-0.5-0.3-0.5-0.8
				s0.3-0.5,0.7-0.7c0.1,0,0.1,0,0.2,0c1.4,0,2.8,0,4.2,0C81.7,56.5,81.8,56.5,81.9,56.5z"/>
		</g>
		<g>
			<path class="st2" d="M103.2,56.5c-0.2-0.8-1-1.3-2-1.3c-0.8,0-1.5,0-2.3,0c-0.1,0-0.2,0-0.3,0c-0.4,0-0.7-0.3-0.7-0.7
				s0.3-0.7,0.7-0.7h0.1c2.2,0,4.4,0,6.5,0c0.1,0,0.2,0,0.3,0c0.3,0.1,0.5,0.3,0.5,0.8s-0.3,0.7-0.7,0.7c-0.4,0-0.9,0-1.3,0
				c0.2,0.4,0.4,0.9,0.7,1.3c0.2,0,0.4,0,0.7,0c0.4,0,0.8,0.3,0.8,0.7c0,0.3-0.3,0.7-0.8,0.7c-0.2,0-0.4,0-0.7,0
				c-0.7,2.2-2.3,3-4.5,2.7c0.1,0.1,0.1,0.2,0.2,0.2c1.3,1.3,2.6,2.7,4,4c0.2,0.2,0.3,0.4,0.2,0.8c-0.1,0.4-0.7,0.7-1.1,0.3
				c-0.1,0-0.1-0.1-0.1-0.1c-1.8-1.8-3.5-3.5-5.3-5.3C98,60.5,97.9,60.3,98,60s0.3-0.5,0.8-0.5c0.9,0,1.8,0,2.6,0s1.5-0.4,1.9-1.2
				c0,0,0,0,0-0.1c-0.1,0-0.1,0-0.2,0c-1.4,0-2.8,0-4.3,0c-0.1,0-0.2,0-0.3,0c-0.3-0.1-0.5-0.3-0.5-0.8s0.3-0.5,0.7-0.7
				c0.1,0,0.1,0,0.2,0c1.4,0,2.8,0,4.2,0C103,56.5,103.1,56.5,103.2,56.5z"/>
		</g>
		<g>
			<path class="st2" d="M92.1,36.2c-0.2-0.8-1-1.3-2-1.3c-0.8,0-1.5,0-2.3,0c-0.1,0-0.2,0-0.3,0c-0.4,0-0.7-0.3-0.7-0.7
				s0.3-0.7,0.7-0.7h0.1c2.2,0,4.4,0,6.5,0c0.1,0,0.2,0,0.3,0c0.3,0.1,0.5,0.3,0.5,0.8S94.6,35,94.3,35c-0.4,0-0.9,0-1.3,0
				c0.2,0.4,0.4,0.9,0.7,1.3c0.2,0,0.4,0,0.7,0c0.4,0,0.8,0.3,0.8,0.7s-0.4,0.7-0.9,0.7c-0.2,0-0.4,0-0.7,0c-0.7,2.2-2.3,3-4.5,2.7
				c0.1,0.1,0.1,0.2,0.2,0.2c1.3,1.3,2.6,2.7,4,4c0.2,0.2,0.3,0.4,0.2,0.8c-0.1,0.4-0.7,0.7-1.1,0.3c-0.1,0-0.1-0.1-0.1-0.1
				c-1.8-1.8-3.5-3.5-5.3-5.3c-0.2-0.2-0.3-0.4-0.2-0.7c0.1-0.3,0.3-0.5,0.8-0.5c0.9,0,1.8,0,2.6,0s1.5-0.4,1.9-1.2c0,0,0,0,0-0.1
				c-0.1,0-0.1,0-0.2,0c-1.4,0-2.8,0-4.3,0c-0.1,0-0.2,0-0.3,0c-0.3-0.1-0.5-0.3-0.5-0.8s0.3-0.5,0.7-0.7c0.1,0,0.1,0,0.2,0
				c1.4,0,2.8,0,4.2,0C91.9,36.2,92,36.2,92.1,36.2z"/>
		</g>
		<g>
			<path class="st2" d="M67.8,37.2c-0.2-0.8-1-1.3-2-1.3c-0.8,0-1.5,0-2.3,0c-0.1,0-0.2,0-0.3,0c-0.4,0-0.7-0.3-0.7-0.7
				s0.3-0.7,0.7-0.7h0.1c2.2,0,4.4,0,6.5,0c0.1,0,0.2,0,0.3,0c0.3,0.1,0.5,0.3,0.5,0.8c0,0.4-0.3,0.7-0.7,0.7c-0.4,0-0.9,0-1.3,0
				c0.2,0.4,0.4,0.9,0.7,1.3c0.2,0,0.4,0,0.7,0c0.4,0,0.8,0.3,0.8,0.7s-0.3,0.7-0.8,0.7c-0.2,0-0.4,0-0.7,0c-0.7,2.2-2.3,3-4.5,2.7
				c0.1,0.1,0.1,0.2,0.2,0.2c1.3,1.3,2.7,2.7,4,4c0.2,0.2,0.3,0.4,0.2,0.8c-0.1,0.4-0.7,0.7-1.1,0.3c-0.1,0-0.1-0.1-0.1-0.1
				c-1.8-1.8-3.5-3.5-5.3-5.3c-0.2-0.2-0.3-0.4-0.2-0.7c0-0.3,0.3-0.5,0.8-0.5c0.9,0,1.8,0,2.6,0s1.5-0.4,1.9-1.2c0,0,0,0,0-0.1
				c-0.1,0-0.1,0-0.2,0c-1.4,0-2.8,0-4.3,0c-0.1,0-0.2,0-0.3,0c-0.3-0.1-0.5-0.3-0.5-0.8s0.3-0.5,0.7-0.7c0.1,0,0.1,0,0.2,0
				c1.4,0,2.8,0,4.3,0C67.7,37.2,67.8,37.2,67.8,37.2z"/>
		</g>
	</g>
</g>
<g id="Layer_25">
</g>
</svg>
