<?xml version="1.0" encoding="utf-8"?>
<!-- Generator: Adobe Illustrator 23.0.0, SVG Export Plug-In . SVG Version: 6.00 Build 0)  -->
<svg version="1.1" id="Layer_1" xmlns="http://www.w3.org/2000/svg" xmlns:xlink="http://www.w3.org/1999/xlink" x="0px" y="0px"
	 viewBox="0 0 43 43" style="enable-background:new 0 0 43 43;" xml:space="preserve">
<style type="text/css">
	.st0{fill:#256EA0;}
</style>
<g>
	<path class="st0" d="M8.41,17.85c0.06-1.4,0.62-2.53,1.69-3.41c0.39-0.32,0.83-0.35,1.3-0.28c0.1,0.02,0.21,0.04,0.31,0.03
		c0.46-0.05,0.7,0.21,0.83,0.61c0.21,0.6,0.42,1.2,0.63,1.8c0.14,0.39,0.28,0.79,0.42,1.18c0.09,0.25,0.11,0.5-0.06,0.71
		c-0.32,0.4-0.64,0.8-1,1.17c-0.31,0.33-0.36,0.47-0.15,0.87c1.06,1.99,2.54,3.55,4.58,4.55c0.82,0.4,0.82,0.42,1.45-0.24
		c0.32-0.33,0.63-0.67,0.93-1.02c0.29-0.34,0.45-0.41,0.86-0.2c0.74,0.38,1.46,0.78,2.19,1.18c0.25,0.13,0.49,0.28,0.74,0.42
		c0.4,0.23,0.43,0.33,0.39,0.81c-0.13,1.34-0.87,2.2-2.1,2.66c-0.9,0.34-1.82,0.46-2.76,0.13c-1.82-0.64-3.6-1.36-5.1-2.62
		c-1.41-1.19-2.56-2.6-3.53-4.16c-0.56-0.89-1.11-1.78-1.37-2.81C8.54,18.77,8.49,18.31,8.41,17.85z"/>
	<g>
		<path class="st0" d="M32.09,23.3c-3.37,0-6.74,0-10.11,0c-0.42,0-0.55-0.12-0.55-0.55c0-0.79,0-1.57,0-2.36
			c0-0.24,0.1-0.38,0.32-0.47c3.37-1.4,6.74-2.81,10.12-4.21c0.13-0.05,0.32-0.05,0.46,0c3.37,1.39,6.73,2.8,10.1,4.2
			c0.27,0.11,0.33,0.21,0.33,0.5c0,0.79,0,1.59,0,2.38c0,0.37-0.14,0.5-0.51,0.5C38.86,23.3,35.48,23.3,32.09,23.3z M41.94,22.46
			c0-0.58,0-1.13,0-1.68c0-0.13-0.04-0.2-0.17-0.25c-3.18-1.32-6.36-2.65-9.55-3.97c-0.08-0.03-0.21-0.03-0.29,0.01
			c-1,0.41-2,0.83-3,1.25c-2.17,0.91-4.35,1.81-6.52,2.72c-0.12,0.05-0.18,0.11-0.17,0.25c0.01,0.23,0,0.45,0,0.68
			c0,0.33,0,0.66,0,1.01C28.82,22.46,35.37,22.46,41.94,22.46z"/>
		<path class="st0" d="M32.1,33.59c3.37,0,6.74,0,10.11,0c0.42,0,0.54,0.11,0.54,0.53c0,0.79,0,1.57,0,2.36
			c0,0.35-0.13,0.48-0.49,0.48c-6.78,0-13.56,0-20.34,0c-0.35,0-0.49-0.13-0.49-0.48c0-0.8,0-1.6,0-2.4c0-0.36,0.13-0.49,0.5-0.49
			C25.32,33.59,28.71,33.59,32.1,33.59z M22.26,36.14c6.56,0,13.11,0,19.67,0c0-0.58,0-1.15,0-1.73c-6.56,0-13.11,0-19.67,0
			C22.26,34.99,22.26,35.55,22.26,36.14z"/>
		<path class="st0" d="M29.97,28.44c0-1.24,0-2.48,0-3.72c0-0.39,0.14-0.53,0.52-0.53c1.07,0,2.13,0,3.2,0
			c0.37,0,0.51,0.14,0.51,0.5c0,2.5,0,5,0,7.5c0,0.35-0.15,0.51-0.49,0.51c-1.09,0-2.17,0-3.26,0c-0.33,0-0.48-0.16-0.48-0.5
			C29.97,30.95,29.97,29.7,29.97,28.44z M33.38,25.03c-0.87,0-1.71,0-2.57,0c0,2.28,0,4.56,0,6.84c0.86,0,1.71,0,2.57,0
			C33.38,29.58,33.38,27.31,33.38,25.03z"/>
		<path class="st0" d="M24,28.43c0-1.25,0-2.5,0-3.74c0-0.37,0.14-0.5,0.51-0.5c1.07,0,2.15,0,3.22,0c0.35,0,0.5,0.15,0.5,0.5
			c0,2.5,0,5.01,0,7.51c0,0.36-0.16,0.51-0.52,0.51c-1.07,0-2.14,0-3.2,0c-0.38,0-0.51-0.14-0.51-0.52C24,30.93,24,29.68,24,28.43z
			 M24.82,25.02c0,2.3,0,4.57,0,6.84c0.87,0,1.72,0,2.58,0c0-2.28,0-4.56,0-6.84C26.54,25.02,25.69,25.02,24.82,25.02z"/>
		<path class="st0" d="M40.19,28.45c0,1.25,0,2.5,0,3.74c0,0.35-0.14,0.5-0.49,0.5c-1.08,0-2.16,0-3.24,0
			c-0.35,0-0.49-0.16-0.49-0.51c0-2.5,0-5.01,0-7.51c0-0.35,0.15-0.5,0.5-0.5c1.08,0,2.16,0,3.24,0c0.34,0,0.49,0.14,0.49,0.48
			C40.19,25.93,40.19,27.19,40.19,28.45z M39.36,31.87c0-2.29,0-4.56,0-6.85c-0.86,0-1.72,0-2.57,0c0,2.29,0,4.56,0,6.85
			C37.65,31.87,38.5,31.87,39.36,31.87z"/>
	</g>
	<path class="st0" d="M19.96,34.24c0-0.03,0.02-0.29-0.03-0.33c-0.05-0.03-0.12-0.03-0.18-0.01c-3.85,1.17-7.51,0.67-10.94-1.44
		c-0.17-0.1-0.31-0.09-0.48-0.06c-1.27,0.24-2.55,0.48-3.82,0.72l0,0c-0.05,0.01-0.1-0.04-0.09-0.09c0.1-0.51,0.2-1,0.3-1.49
		c0.15-0.74,0.32-1.48,0.45-2.22c0.02-0.12-0.02-0.29-0.1-0.39c-1.67-2.4-2.48-5.07-2.34-7.99c0.19-3.8,1.78-6.94,4.68-9.4
		c1.94-1.64,4.2-2.6,6.72-2.94c5.15-0.69,10.11,1.8,12.77,5.97c0.12,0.19,0.34,0.31,0.57,0.31h1.58c0.4,0,0.65-0.42,0.46-0.77
		c-3.23-5.91-10.03-9.15-16.85-7.75C5.78,7.77,0.72,13.56,0.28,20.58C0.09,23.57,0.74,26.39,2.21,29c0.19,0.34,0.3,0.65,0.18,1.04
		c-0.06,0.21-0.08,0.43-0.12,0.64c-0.32,1.78-0.64,3.57-0.96,5.37c-0.01,0.05,0.03,0.09,0.08,0.09c0.02,0,0.04,0,0.06,0
		c2.14-0.34,4.27-0.69,6.41-1.04c0.29-0.05,0.53-0.03,0.8,0.11c1.85,0.97,3.83,1.54,5.92,1.7c1.61,0.13,3.18,0.02,4.72-0.33
		c0.39-0.09,0.68-0.44,0.68-0.84V34.24z"/>
</g>
</svg>
