<?xml version="1.0" encoding="utf-8"?>
<!-- Generator: Adobe Illustrator 23.0.0, SVG Export Plug-In . SVG Version: 6.00 Build 0)  -->
<svg version="1.1" id="Layer_1" xmlns="http://www.w3.org/2000/svg" xmlns:xlink="http://www.w3.org/1999/xlink" x="0px" y="0px"
	 viewBox="0 0 128 128" style="enable-background:new 0 0 128 128;" xml:space="preserve">
<style type="text/css">
	.st0{fill:none;stroke:#FFFFFF;stroke-width:4;stroke-miterlimit:10;}
	.st1{fill:#FFFFFF;}
	.st2{fill:none;stroke:#000000;stroke-width:5;stroke-miterlimit:10;}
	.st3{fill:none;stroke:#FFFFFF;stroke-width:5;stroke-miterlimit:10;}
	.st4{fill:#FFFFFF;stroke:#FFFFFF;stroke-width:2;stroke-miterlimit:10;}
	.st5{fill:#FFFFFF;stroke:#FFFFFF;stroke-miterlimit:10;}
</style>
<g id="Layer_6">
</g>
<g id="Layer_10">
</g>
<g id="Layer_3">
</g>
<g id="Layer_4">
	<path class="st0" d="M118.8,25.3l-16.1-15.2c-0.3-0.3-0.3-0.8,0-1.1v0c0.3-0.3,0.8-0.3,1.1,0l16.1,15.1c0.3,0.3,0.3,0.8,0,1.1l0,0
		C119.5,25.6,119.1,25.6,118.8,25.3z"/>
</g>
<g id="Layer_5">
	<rect x="76.3" y="105.4" class="st1" width="38.1" height="4.6"/>
	<rect x="76.3" y="79" class="st1" width="5" height="23.6"/>
	<rect x="84.5" y="62" class="st1" width="5" height="40.6"/>
	<rect x="92.5" y="70" class="st1" width="5" height="32.6"/>
	<rect x="74.8" y="34.5" class="st1" width="5.4" height="5.5"/>
	<rect x="108.8" y="54.5" class="st1" width="5.4" height="5.5"/>
	<g>
		<path class="st2" d="M29.2,32.3"/>
		<polyline class="st3" points="29.2,116 69.5,116 119,116 119,26.3 101.8,26.3 101.8,10.1 29.2,10.1 29.2,19 		"/>
		<rect x="15.3" y="19" class="st1" width="56.9" height="5.5"/>
		<rect x="15.3" y="34.5" class="st1" width="13.9" height="5.5"/>
		<rect x="29.2" y="34.5" class="st1" width="39.1" height="5.5"/>
		<rect x="15.3" y="42.5" class="st1" width="10.7" height="5.5"/>
		<rect x="26" y="42.5" class="st1" width="33.2" height="5.5"/>
		<rect x="15.3" y="26.8" class="st1" width="13.9" height="5.5"/>
		<rect x="29.2" y="26.8" class="st1" width="22.4" height="5.5"/>
	</g>
	<rect x="56" y="26.8" class="st1" width="16.5" height="5.5"/>
	<rect x="101.1" y="63" class="st1" width="5" height="39.6"/>
	<rect x="109.3" y="62" class="st1" width="5" height="40.6"/>
</g>
<g id="Layer_7">
</g>
<g id="Layer_8">
	<g>
		<path class="st4" d="M89.2,50.5c2.4,2.1,4.8,4.3,7.3,6.5c4.1-3.6,8.1-7.2,12.4-11c-0.8-0.6-1.9-1.3-2.9-2.1
			c0.1-0.1,0.2-0.2,0.3-0.3c2.6-0.2,5.2-0.4,8.1-0.6c-0.2,2.4-0.5,4.7-0.7,7.3c-1.1-0.9-2.1-1.7-3.1-2.6c-4.6,4.1-9.2,8.1-13.8,12.2
			c-2.6-2.3-5.1-4.6-7.7-6.9c-5.2,4.5-10.3,9-15.4,13.5c-0.5-0.4-0.9-0.8-1.3-1.2C77.9,60.4,83.5,55.5,89.2,50.5z"/>
	</g>
</g>
<g id="Layer_9">
</g>
<g id="Layer_12">
	<rect x="19.8" y="91.4" class="st3" width="39.5" height="8.2"/>
	<rect x="29.3" y="99.6" class="st3" width="39.5" height="8.2"/>
	<rect x="18.4" y="107.8" class="st3" width="39.5" height="8.2"/>
</g>
<g id="XMLID_1_">
	<rect x="27.9" y="91.9" class="st1" width="1.4" height="7.8"/>
	<rect x="39.5" y="92.1" class="st1" width="1.4" height="7.5"/>
	<rect x="47.7" y="91.9" class="st1" width="1.4" height="7.4"/>
	<rect x="40.2" y="100.3" class="st1" width="1.4" height="7.9"/>
	<rect x="51.8" y="100.3" class="st1" width="1.4" height="8.2"/>
	<rect x="26.6" y="107.6" class="st1" width="1.4" height="8"/>
	<rect x="38.2" y="108.5" class="st1" width="1.4" height="7.1"/>
	<rect x="46.3" y="108" class="st1" width="1.4" height="7.3"/>
</g>
<g id="Layer_14">
	<g>
		<path class="st4" d="M47.1,70.8c0,0.6,0,1.2,0,1.8c0,0.1,0,0.2-0.1,0.3c-0.1,0.7-0.2,1.4-0.3,2c-0.8,3.8-2.8,6.9-5.8,9.2
			C37.1,87,32.8,88,28.1,87c-3.8-0.8-6.8-2.7-9.1-5.8c-2.5-3.3-3.6-7-3.2-11.1c0.3-3.3,1.6-6.3,3.8-8.8c2.4-2.7,5.5-4.5,9.1-5.1
			c0.6-0.1,1.2-0.2,1.8-0.2c0.6,0,1.2,0,1.8,0c0.1,0,0.2,0,0.2,0.1c2.4,0.2,4.7,0.9,6.8,2.1c4.1,2.5,6.6,6.1,7.5,10.8
			C47,69.6,47,70.2,47.1,70.8z M45.1,71.7c0-7.6-6.2-13.7-13.7-13.7c-7.6,0-13.7,6.2-13.7,13.7c0,7.6,6.2,13.8,13.8,13.7
			C39,85.4,45.2,79.3,45.1,71.7z"/>
		<path class="st5" d="M33.2,67.8c-0.3-1.1-1.5-1.9-2.8-2c-1.2,0-2.3,0-3.5,0c-0.1,0-0.3,0-0.4,0c-0.6,0-1-0.5-1-1s0.4-0.9,1-1
			c0.1,0,0.1,0,0.2,0c3.1,0,6.3,0,9.4,0c0.1,0,0.3,0,0.4,0c0.5,0.1,0.8,0.6,0.8,1c0,0.5-0.4,0.9-1,0.9c-0.6,0-1.3,0-1.9,0
			c0.3,0.6,0.6,1.3,0.9,2c0.3,0,0.6,0,0.9,0c0.6,0,1,0.4,1,1s-0.4,1-1,1c-0.3,0-0.7,0-1,0c-0.9,3.2-3.2,4.2-6.4,3.9
			c0.1,0.2,0.2,0.2,0.3,0.3c1.9,1.9,3.9,3.9,5.8,5.8c0.3,0.3,0.5,0.6,0.3,1.1c-0.2,0.7-1,0.9-1.5,0.5c-0.1-0.1-0.2-0.1-0.2-0.2
			c-2.5-2.5-5.1-5.1-7.6-7.6c-0.3-0.3-0.4-0.6-0.4-1c0.1-0.5,0.5-0.8,1-0.8c1.3,0,2.5,0,3.8,0s2.2-0.6,2.8-1.8v-0.1
			c-0.1,0-0.2,0-0.3,0c-2,0-4.1,0-6.1,0c-0.1,0-0.3,0-0.4,0c-0.5-0.1-0.8-0.5-0.8-1s0.4-0.9,0.9-0.9c0.1,0,0.2,0,0.3,0
			c2,0,4,0,6.1,0C32.9,67.8,33,67.8,33.2,67.8z"/>
	</g>
</g>
</svg>
